#define patt03_width 88
#define patt03_height 24
static unsigned char patt03_bits[] = {
   0xff, 0xff, 0xff, 0xff, 0xff, 0xff, 0xff, 0xff, 0xff, 0xff, 0xff, 0x09,
   0x08, 0x08, 0x08, 0x08, 0x08, 0x08, 0x08, 0x08, 0x08, 0x88, 0x05, 0x04,
   0x04, 0x04, 0x04, 0x04, 0x04, 0x04, 0x04, 0x04, 0x84, 0x03, 0x02, 0x02,
   0x02, 0x02, 0x02, 0x02, 0x02, 0x02, 0x02, 0x82, 0x01, 0x01, 0x01, 0x01,
   0x01, 0x01, 0x01, 0x01, 0x01, 0x01, 0x81, 0x81, 0x80, 0x80, 0x80, 0x80,
   0x80, 0x80, 0x80, 0x80, 0x80, 0x80, 0x41, 0x40, 0x40, 0x40, 0x40, 0x40,
   0x40, 0x40, 0x40, 0x40, 0xc0, 0x21, 0x20, 0x20, 0x20, 0x20, 0x20, 0x20,
   0x20, 0x20, 0x20, 0xa0, 0x11, 0x10, 0x10, 0x10, 0x10, 0x10, 0x10, 0x10,
   0x10, 0x10, 0x90, 0x09, 0x08, 0x08, 0x08, 0x08, 0x08, 0x08, 0x08, 0x08,
   0x08, 0x88, 0x05, 0x04, 0x04, 0x04, 0x04, 0x04, 0x04, 0x04, 0x04, 0x04,
   0x84, 0x03, 0x02, 0x02, 0x02, 0x02, 0x02, 0x02, 0x02, 0x02, 0x02, 0x82,
   0x01, 0x01, 0x01, 0x01, 0x01, 0x01, 0x01, 0x01, 0x01, 0x01, 0x81, 0x81,
   0x80, 0x80, 0x80, 0x80, 0x80, 0x80, 0x80, 0x80, 0x80, 0x80, 0x41, 0x40,
   0x40, 0x40, 0x40, 0x40, 0x40, 0x40, 0x40, 0x40, 0xc0, 0x21, 0x20, 0x20,
   0x20, 0x20, 0x20, 0x20, 0x20, 0x20, 0x20, 0xa0, 0x11, 0x10, 0x10, 0x10,
   0x10, 0x10, 0x10, 0x10, 0x10, 0x10, 0x90, 0x09, 0x08, 0x08, 0x08, 0x08,
   0x08, 0x08, 0x08, 0x08, 0x08, 0x88, 0x05, 0x04, 0x04, 0x04, 0x04, 0x04,
   0x04, 0x04, 0x04, 0x04, 0x84, 0x03, 0x02, 0x02, 0x02, 0x02, 0x02, 0x02,
   0x02, 0x02, 0x02, 0x82, 0x01, 0x01, 0x01, 0x01, 0x01, 0x01, 0x01, 0x01,
   0x01, 0x01, 0x81, 0x81, 0x80, 0x80, 0x80, 0x80, 0x80, 0x80, 0x80, 0x80,
   0x80, 0x80, 0x41, 0x40, 0x40, 0x40, 0x40, 0x40, 0x40, 0x40, 0x40, 0x40,
   0xc0, 0xff, 0xff, 0xff, 0xff, 0xff, 0xff, 0xff, 0xff, 0xff, 0xff, 0xff};
