#define lg_arrow_width 32
#define lg_arrow_height 32
#define lg_arrow_x_hot 1
#define lg_arrow_y_hot 1
static unsigned char lg_arrow_bits[] = {
   0x00, 0x00, 0x00, 0x00, 0x06, 0x00, 0x00, 0x00, 0x1e, 0x00, 0x00, 0x00,
   0x7c, 0x00, 0x00, 0x00, 0xfc, 0x01, 0x00, 0x00, 0xf8, 0x07, 0x00, 0x00,
   0xf8, 0x1f, 0x00, 0x00, 0xf0, 0x7f, 0x00, 0x00, 0xf0, 0xff, 0x01, 0x00,
   0xe0, 0xff, 0x07, 0x00, 0xe0, 0xff, 0x1f, 0x00, 0xc0, 0xff, 0x7f, 0x00,
   0xc0, 0xff, 0x3f, 0x00, 0x80, 0xff, 0x1f, 0x00, 0x80, 0xff, 0x0f, 0x00,
   0x00, 0xff, 0x07, 0x00, 0x00, 0xff, 0x03, 0x00, 0x00, 0xfe, 0x07, 0x00,
   0x00, 0xfe, 0x0e, 0x00, 0x00, 0x7c, 0x1c, 0x00, 0x00, 0x3c, 0x38, 0x00,
   0x00, 0x18, 0x70, 0x00, 0x00, 0x08, 0xe0, 0x00, 0x00, 0x00, 0xc0, 0x01,
   0x00, 0x00, 0x80, 0x03, 0x00, 0x00, 0x00, 0x07, 0x00, 0x00, 0x00, 0x0e,
   0x00, 0x00, 0x00, 0x1c, 0x00, 0x00, 0x00, 0x38, 0x00, 0x00, 0x00, 0x70,
   0x00, 0x00, 0x00, 0x60, 0x00, 0x00, 0x00, 0x00};
