#define lg_x_mask_width 32
#define lg_x_mask_height 32
#define lg_x_mask_x_hot 15
#define lg_x_mask_y_hot 15
static unsigned char lg_x_mask_bits[] = {
   0x0e, 0x00, 0x00, 0x70, 0x1f, 0x00, 0x00, 0xf8, 0x3f, 0x00, 0x00, 0xfc,
   0x7f, 0x00, 0x00, 0xfe, 0xfe, 0x00, 0x00, 0x7f, 0xfc, 0x01, 0x80, 0x3f,
   0xf8, 0x03, 0xc0, 0x1f, 0xf0, 0x07, 0xe0, 0x0f, 0xe0, 0x0f, 0xf0, 0x07,
   0xc0, 0x1f, 0xf8, 0x03, 0x80, 0x3f, 0xfc, 0x01, 0x00, 0x7f, 0xfe, 0x00,
   0x00, 0xfe, 0x7f, 0x00, 0x00, 0xfc, 0x3f, 0x00, 0x00, 0xf8, 0x1f, 0x00,
   0x00, 0xf0, 0x0f, 0x00, 0x00, 0xf0, 0x0f, 0x00, 0x00, 0xf8, 0x1f, 0x00,
   0x00, 0xfc, 0x3f, 0x00, 0x00, 0xfe, 0x7f, 0x00, 0x00, 0x7f, 0xfe, 0x00,
   0x80, 0x3f, 0xfc, 0x01, 0xc0, 0x1f, 0xf8, 0x03, 0xe0, 0x0f, 0xf0, 0x07,
   0xf0, 0x07, 0xe0, 0x0f, 0xf8, 0x03, 0xc0, 0x1f, 0xfc, 0x01, 0x80, 0x3f,
   0xfe, 0x00, 0x00, 0x7f, 0x7f, 0x00, 0x00, 0xfe, 0x3f, 0x00, 0x00, 0xfc,
   0x1f, 0x00, 0x00, 0xf8, 0x0e, 0x00, 0x00, 0x70};
