#define nsatIcon_width  32
#define nsatIcon_height 32
static char nsatIcon_bits[] = {
   0x00, 0x00, 0x00, 0x00, 0x00, 0x00, 0x00, 0x04, 0x00, 0x00, 0x00, 0x24,
   0x00, 0x00, 0x00, 0x14, 0x00, 0x00, 0x00, 0x0c, 0x20, 0x00, 0xc0, 0x7f,
   0x50, 0x00, 0x00, 0x06, 0x98, 0x00, 0x00, 0x05, 0x64, 0x01, 0xbe, 0x04,
   0x68, 0x02, 0x65, 0x04, 0x90, 0x83, 0xc2, 0x00, 0xa0, 0x42, 0xc1, 0x00,
   0xc0, 0xe3, 0xa0, 0x00, 0x00, 0x94, 0xd0, 0x00, 0x00, 0x78, 0xe9, 0x00,
   0x00, 0x8c, 0x76, 0x00, 0x00, 0x0e, 0x3d, 0x00, 0x00, 0x11, 0x1a, 0x00,
   0x80, 0x21, 0x0e, 0x00, 0x40, 0x41, 0x06, 0x00, 0xa0, 0x82, 0x03, 0x00,
   0x50, 0x84, 0x05, 0x00, 0x30, 0xc8, 0x78, 0x00, 0x60, 0x74, 0xa8, 0x00,
   0xc0, 0x3a, 0x38, 0x01, 0xa0, 0x1d, 0xc8, 0x02, 0x50, 0x0f, 0xd0, 0x04,
   0x20, 0x06, 0x20, 0x03, 0x00, 0x00, 0x40, 0x01, 0x00, 0x00, 0x80, 0x00,
   0x00, 0x00, 0x00, 0x00, 0x00, 0x00, 0x00, 0x00};
