<?xml version="1.0" encoding="ISO-8859-1" standalone="no"?>
<!DOCTYPE svg PUBLIC "-//W3C//DTD SVG 1.1//EN" "http://www.w3.org/Graphics/SVG/1.1/DTD/svg11.dtd">
<svg version="1.1" baseProfile="full" id="body" width="900px" height="600px" viewBox="0 0.2 1 0.55" preserveAspectRatio="none" xmlns="http://www.w3.org/2000/svg" xmlns:xlink="http://www.w3.org/1999/xlink" xmlns:ev="http://www.w3.org/2001/xml-events">
<title>SVG drawing</title>
<desc>This was produced by version 4.2 of GNU libplot, a free library for exporting 2-D vector graphics.</desc>
<rect id="background" x="0" y="0" width="1" height="1" stroke="none" fill="none"/>
<g id="content" transform="translate(-0.03125,1.1875) scale(1,-1) scale(0.0017361) " xml:space="preserve" stroke="black" stroke-linecap="butt" stroke-linejoin="miter" stroke-miterlimit="10.433" stroke-dasharray="none" stroke-dashoffset="0" stroke-opacity="1" fill="none" fill-rule="even-odd" fill-opacity="1" font-style="normal" font-variant="normal" font-weight="normal" font-stretch="normal" font-size-adjust="none" letter-spacing="normal" word-spacing="normal" text-anchor="start">
<polyline points="32.688,568.66 32.688,568.62 31.719,561.84 30.531,555.12 30.375,553.91 29.75,548.47 29.375,546.62 " stroke="red" stroke-width="0.96875" stroke-linecap="round" stroke-linejoin="round" />
<polyline points="26.938,537.16 26.375,535.38 26.25,535.09 23.469,528.97 22.156,527.19 18.594,522.59 18.031,521.94 " stroke="red" stroke-width="0.96875" stroke-linecap="round" stroke-linejoin="round" />
<polyline points="18.031,540.06 18.812,539.28 20.562,539.28 21.438,540.16 21.438,541.91 20.562,542.78 18.031,542.78 " stroke="red" stroke-width="0.71875" stroke-linecap="round" stroke-linejoin="round" />
<line x1="18.031" y1="544.53" x2="21.438" y2="544.53" stroke="red" stroke-width="0.71875" stroke-linecap="round" />
<polyline points="24.062,543.66 24.938,544.53 26.688,544.53 27.562,543.66 27.562,542.78 24.062,539.28 27.562,539.28 " stroke="red" stroke-width="0.71875" stroke-linecap="round" stroke-linejoin="round" />
<polyline points="30.188,543.66 31.062,544.53 32.812,544.53 33.688,543.66 33.688,542.78 30.188,539.28 33.688,539.28 " stroke="red" stroke-width="0.71875" stroke-linecap="round" stroke-linejoin="round" />
<polygon points="37.188,544.53 36.312,543.66 36.312,540.16 37.188,539.28 38.938,539.28 39.812,540.16 39.812,543.66 38.938,544.53 " stroke="red" stroke-width="0.71875" stroke-linejoin="round" />
<polyline points="353.69,568.66 353.69,568.62 353.5,561.84 355.28,555.12 355.38,554.88 359.5,550.28 361.06,549.41 " stroke="red" stroke-width="0.96875" stroke-linecap="round" stroke-linejoin="round" />
<polyline points="387.75,553.19 388.31,553.44 390.56,555.12 392.41,556.91 396.53,561.19 397.12,561.84 400.62,566.66 402.12,568.62 402.16,568.66 " stroke="red" stroke-width="0.96875" stroke-linecap="round" stroke-linejoin="round" />
<polyline points="364.03,546.72 364.91,545.84 366.66,545.84 367.53,546.72 367.53,548.47 366.66,549.34 364.03,549.34 364.03,551.09 367.53,551.09 " stroke="red" stroke-width="0.71875" stroke-linecap="round" stroke-linejoin="round" />
<polyline points="370.16,550.22 371.03,551.09 372.78,551.09 373.66,550.22 373.66,549.34 370.16,545.84 373.66,545.84 " stroke="red" stroke-width="0.71875" stroke-linecap="round" stroke-linejoin="round" />
<polyline points="376.28,550.22 377.16,551.09 378.91,551.09 379.78,550.22 379.78,549.34 376.28,545.84 379.78,545.84 " stroke="red" stroke-width="0.71875" stroke-linecap="round" stroke-linejoin="round" />
<polygon points="383.28,551.09 382.41,550.22 382.41,546.72 383.28,545.84 385.03,545.84 385.91,546.72 385.91,550.22 385.03,551.09 " stroke="red" stroke-width="0.71875" stroke-linejoin="round" />
<polyline points="61.625,568.66 61.625,568.62 60.844,561.84 59.219,555.12 59.188,555 55.062,549.22 54.531,548.47 50.938,543.78 49.75,541.91 46.844,537.38 45.781,535.38 45.438,534.81 " stroke="red" stroke-width="0.96875" stroke-linecap="round" stroke-linejoin="round" />
<polyline points="38.969,525.34 38.594,524.94 36.719,522.59 34.5,520.03 31.5,516.28 30.375,514.97 26.406,510.06 26.25,509.88 22.156,505.75 20.406,503.88 18.031,502.19 " stroke="red" stroke-width="0.96875" stroke-linecap="round" stroke-linejoin="round" />
<polyline points="32.219,528.34 33.094,527.47 34.844,527.47 35.719,528.34 35.719,530.09 34.844,530.97 32.219,530.97 32.219,532.72 35.719,532.72 " stroke="red" stroke-width="0.71875" stroke-linecap="round" stroke-linejoin="round" />
<polyline points="38.344,531.84 39.219,532.72 40.969,532.72 41.844,531.84 41.844,530.97 38.344,527.47 41.844,527.47 " stroke="red" stroke-width="0.71875" stroke-linecap="round" stroke-linejoin="round" />
<polygon points="45.344,532.72 44.469,531.84 44.469,530.97 45.344,530.09 47.094,530.09 47.969,530.97 47.969,531.84 47.094,532.72 " stroke="red" stroke-width="0.71875" stroke-linejoin="round" />
<polyline points="45.344,530.09 44.469,529.22 44.469,528.34 45.344,527.47 47.094,527.47 47.969,528.34 47.969,529.22 47.094,530.09 " stroke="red" stroke-width="0.71875" stroke-linecap="round" stroke-linejoin="round" />
<polygon points="51.469,532.72 50.594,531.84 50.594,528.34 51.469,527.47 53.219,527.47 54.094,528.34 54.094,531.84 53.219,532.72 " stroke="red" stroke-width="0.71875" stroke-linejoin="round" />
<polyline points="320.22,568.66 320.22,568.62 319.97,561.84 320.44,555.12 321.12,548.47 322.47,542.25 322.56,541.91 325.81,535.38 326.59,534.38 330.69,529.91 331.78,528.97 334.81,527.5 338.94,525.88 343.03,524.31 347.16,523.06 349.25,522.59 351.28,522.22 354.25,521.88 " stroke="red" stroke-width="0.96875" stroke-linecap="round" stroke-linejoin="round" />
<polyline points="379.91,527.34 380.06,527.41 383.06,528.97 384.19,529.66 388.31,532.41 392.41,535.34 392.47,535.38 396.53,538.75 400.28,541.91 400.62,542.19 404.75,546 407.47,548.47 408.88,549.81 412.97,553.75 414.44,555.12 417.09,558.25 420.12,561.84 421.22,563.28 425.16,568.62 425.19,568.66 " stroke="red" stroke-width="0.96875" stroke-linecap="round" stroke-linejoin="round" />
<polyline points="357.22,520.88 358.09,520 359.84,520 360.72,520.88 360.72,522.62 359.84,523.5 357.22,523.5 357.22,525.25 360.72,525.25 " stroke="red" stroke-width="0.71875" stroke-linecap="round" stroke-linejoin="round" />
<polyline points="363.34,524.38 364.22,525.25 365.97,525.25 366.84,524.38 366.84,523.5 363.34,520 366.84,520 " stroke="red" stroke-width="0.71875" stroke-linecap="round" stroke-linejoin="round" />
<polygon points="370.34,525.25 369.47,524.38 369.47,523.5 370.34,522.62 372.09,522.62 372.97,523.5 372.97,524.38 372.09,525.25 " stroke="red" stroke-width="0.71875" stroke-linejoin="round" />
<polyline points="370.34,522.62 369.47,521.75 369.47,520.88 370.34,520 372.09,520 372.97,520.88 372.97,521.75 372.09,522.62 " stroke="red" stroke-width="0.71875" stroke-linecap="round" stroke-linejoin="round" />
<polygon points="376.47,525.25 375.59,524.38 375.59,520.88 376.47,520 378.22,520 379.09,520.88 379.09,524.38 378.22,525.25 " stroke="red" stroke-width="0.71875" stroke-linejoin="round" />
<polyline points="79.469,568.66 79.438,568.62 76.188,561.84 75.625,560.56 73.969,555.12 72.188,548.47 71.5,546.62 69.562,541.91 67.406,538.47 65.094,535.38 63.281,533.56 59.469,529.97 " stroke="red" stroke-width="0.96875" stroke-linecap="round" stroke-linejoin="round" />
<polyline points="50.594,520.53 46.844,516.78 46.344,516.28 42.719,512.97 39.875,510.06 38.594,508.75 34.5,504.34 34.062,503.88 30.375,500.25 27.625,497.75 26.25,496.62 22.156,493.97 18.594,491.69 18.031,491.34 " stroke="red" stroke-width="0.96875" stroke-linecap="round" stroke-linejoin="round" />
<polyline points="44.562,523.5 45.438,522.62 47.188,522.62 48.062,523.5 48.062,525.25 47.188,526.12 44.562,526.12 44.562,527.88 48.062,527.88 " stroke="red" stroke-width="0.71875" stroke-linecap="round" stroke-linejoin="round" />
<polyline points="50.688,527 51.562,527.88 53.312,527.88 54.188,527 54.188,526.12 53.312,525.25 52.438,525.25 53.312,525.25 54.188,524.38 54.188,523.5 53.312,522.62 51.562,522.62 50.688,523.5 " stroke="red" stroke-width="0.71875" stroke-linecap="round" stroke-linejoin="round" />
<polyline points="58.562,527.88 56.812,525.25 60.312,525.25 60.312,527.88 60.312,522.62 " stroke="red" stroke-width="0.71875" stroke-linecap="round" stroke-linejoin="round" />
<polygon points="63.812,527.88 62.938,527 62.938,523.5 63.812,522.62 65.562,522.62 66.438,523.5 66.438,527 65.562,527.88 " stroke="red" stroke-width="0.71875" stroke-linejoin="round" />
<polyline points="295.53,568.66 295.53,568.62 296.91,561.84 297.78,558.38 298.53,555.12 300.28,548.47 301.91,543.59 302.44,541.91 305.12,535.38 306.03,533.69 308.25,528.97 310.12,526.34 313.12,522.59 314.25,521.44 318.34,517.81 320.47,516.28 322.47,515 326.59,513.12 330.69,511.59 334.81,510.31 335.91,510.06 338.94,509.31 343.03,508.41 347.16,507.72 351.28,507.34 354.25,507.28 " stroke="red" stroke-width="0.96875" stroke-linecap="round" stroke-linejoin="round" />
<polyline points="379.03,513.78 380.06,514.31 383.62,516.28 384.19,516.59 388.31,519.06 392.41,521.56 393.97,522.59 396.53,524.34 400.62,527.38 402.66,528.97 404.75,530.75 408.88,534.41 409.94,535.38 412.97,538.16 417.09,541.84 417.16,541.91 421.22,545.56 424.41,548.47 425.31,549.34 429.44,553.44 431.06,555.12 433.56,558.19 436.53,561.84 437.66,563.31 441.75,568.62 441.78,568.66 " stroke="red" stroke-width="0.96875" stroke-linecap="round" stroke-linejoin="round" />
<polyline points="357.22,507.31 358.09,506.44 359.84,506.44 360.72,507.31 360.72,509.06 359.84,509.94 357.22,509.94 357.22,511.69 360.72,511.69 " stroke="red" stroke-width="0.71875" stroke-linecap="round" stroke-linejoin="round" />
<polyline points="363.34,510.81 364.22,511.69 365.97,511.69 366.84,510.81 366.84,509.94 365.97,509.06 365.09,509.06 365.97,509.06 366.84,508.19 366.84,507.31 365.97,506.44 364.22,506.44 363.34,507.31 " stroke="red" stroke-width="0.71875" stroke-linecap="round" stroke-linejoin="round" />
<polyline points="371.22,511.69 369.47,509.06 372.97,509.06 372.97,511.69 372.97,506.44 " stroke="red" stroke-width="0.71875" stroke-linecap="round" stroke-linejoin="round" />
<polygon points="376.47,511.69 375.59,510.81 375.59,507.31 376.47,506.44 378.22,506.44 379.09,507.31 379.09,510.81 378.22,511.69 " stroke="red" stroke-width="0.71875" stroke-linejoin="round" />
<polyline points="117.53,568.66 117.53,568.62 116.78,567.41 113.16,561.84 112.66,561.28 108.53,557.25 105.31,555.12 104.44,554.69 100.31,552.34 96.188,548.91 95.781,548.47 92.094,543.72 91.062,541.91 87.969,536.53 87.375,535.38 83.844,529.78 83.344,528.97 81.344,527.31 " stroke="red" stroke-width="0.96875" stroke-linecap="round" stroke-linejoin="round" />
<polyline points="67.406,517.88 67.406,517.84 65.219,516.28 63.281,514.91 59.188,511.59 57.281,510.06 55.062,508.34 50.938,505.28 49.062,503.88 46.844,502.22 42.719,499 41.406,497.75 38.594,495.22 34.5,491.72 34.438,491.69 30.375,488.56 26.25,485.75 26.156,485.69 22.156,483.25 18.031,480.56 " stroke="red" stroke-width="0.96875" stroke-linecap="round" stroke-linejoin="round" />
<polyline points="64.562,520.84 65.438,519.97 67.188,519.97 68.062,520.84 68.062,522.59 67.188,523.47 64.562,523.47 64.562,525.22 68.062,525.22 " stroke="red" stroke-width="0.71875" stroke-linecap="round" stroke-linejoin="round" />
<polyline points="72.438,525.22 70.688,522.59 74.188,522.59 74.188,525.22 74.188,519.97 " stroke="red" stroke-width="0.71875" stroke-linecap="round" stroke-linejoin="round" />
<polygon points="77.688,525.22 76.812,524.34 76.812,520.84 77.688,519.97 79.438,519.97 80.312,520.84 80.312,524.34 79.438,525.22 " stroke="red" stroke-width="0.71875" stroke-linejoin="round" />
<polygon points="83.812,525.22 82.938,524.34 82.938,520.84 83.812,519.97 85.562,519.97 86.438,520.84 86.438,524.34 85.562,525.22 " stroke="red" stroke-width="0.71875" stroke-linejoin="round" />
<polyline points="258.66,568.66 258.69,568.62 260.75,565.72 263.22,561.84 264.88,559.31 267.44,555.12 269,552.78 271.72,548.47 273.09,546.56 276.16,541.91 277.22,540.41 280.38,535.38 281.34,534 284.53,528.97 285.44,527.81 289.56,522.62 289.59,522.59 293.69,518.06 295.31,516.28 297.78,513.91 301.91,510.19 302.06,510.06 306.03,506.94 310.12,504.12 310.56,503.88 314.25,501.38 318.34,499.03 321.09,497.75 322.47,497.12 326.59,495.56 330.69,494.31 334.81,493.44 338.94,492.88 341.91,492.81 " stroke="red" stroke-width="0.96875" stroke-linecap="round" stroke-linejoin="round" />
<polyline points="368.84,497.19 370.56,497.75 371.84,498.19 375.97,500.03 380.06,502.28 382.62,503.88 384.19,504.75 388.31,507.19 392.41,509.56 393.19,510.06 396.53,512.03 400.62,514.66 403.03,516.28 404.75,517.5 408.88,520.66 411.16,522.59 412.97,524.16 417.09,527.94 418.19,528.97 421.22,531.53 425.31,534.81 426.06,535.38 429.44,538.12 433.56,541.59 433.91,541.91 437.66,545.31 441.09,548.47 441.78,549.16 445.91,553.44 447.44,555.12 450,558.16 453.06,561.84 454.12,563.12 458.25,567.62 459.19,568.62 459.22,568.66 " stroke="red" stroke-width="0.96875" stroke-linecap="round" stroke-linejoin="round" />
<polyline points="344.88,492.19 345.75,491.31 347.5,491.31 348.38,492.19 348.38,493.94 347.5,494.81 344.88,494.81 344.88,496.56 348.38,496.56 " stroke="red" stroke-width="0.71875" stroke-linecap="round" stroke-linejoin="round" />
<polyline points="352.75,496.56 351,493.94 354.5,493.94 354.5,496.56 354.5,491.31 " stroke="red" stroke-width="0.71875" stroke-linecap="round" stroke-linejoin="round" />
<polygon points="358,496.56 357.12,495.69 357.12,492.19 358,491.31 359.75,491.31 360.62,492.19 360.62,495.69 359.75,496.56 " stroke="red" stroke-width="0.71875" stroke-linejoin="round" />
<polygon points="364.12,496.56 363.25,495.69 363.25,492.19 364.12,491.31 365.88,491.31 366.75,492.19 366.75,495.69 365.88,496.56 " stroke="red" stroke-width="0.71875" stroke-linejoin="round" />
<polyline points="488.12,568.66 488.09,568.62 487.03,567.84 482.91,564.97 478.81,561.94 478.66,561.84 474.69,558.78 470.56,555.47 470.19,555.12 466.47,551.94 462.56,548.47 462.34,548.28 458.25,544.53 455.31,541.91 454.12,540.84 450,537.38 447.47,535.38 445.91,534.22 441.78,531.28 438.38,528.97 437.66,528.41 433.56,525.03 430.44,522.59 429.44,521.81 425.31,518.66 422.06,516.28 421.22,515.66 417.09,512.44 413.78,510.06 412.97,509.5 408.88,506.69 404.75,504.19 404.22,503.88 400.62,501.31 396.53,498.56 395.28,497.75 392.41,495.84 388.31,493.28 385.47,491.69 384.19,490.97 380.06,488.94 375.97,487.28 371.84,485.84 371.38,485.69 367.72,484.44 363.62,483.16 359.5,481.94 355.38,480.75 351.91,479.75 351.28,479.53 347.16,478.44 343.03,477.5 338.94,476.81 334.81,476.66 330.69,476.75 326.59,477.09 322.47,477.66 318.34,478.41 314.25,479.38 312.94,479.75 310.12,480.69 306.03,482.28 301.91,483.84 297.78,485.66 297.72,485.69 293.69,488 289.56,490.69 288.06,491.69 285.44,493.66 281.34,496.91 280.28,497.75 277.22,500.41 273.22,503.88 273.09,503.94 269,507.53 266,510.06 264.88,511.03 264.25,511.56 " stroke="red" stroke-width="0.96875" stroke-linecap="round" stroke-linejoin="round" />
<polyline points="253.66,521 252.53,522.12 252.06,522.59 248.41,526.28 245.59,528.97 244.31,530.25 240.19,534.03 238.75,535.38 236.06,537.91 231.97,541.59 231.62,541.91 227.84,545.19 223.78,548.47 223.72,548.5 219.62,551.72 215.5,554.72 214.94,555.12 211.41,557.56 207.28,560.09 203.44,561.84 203.16,561.97 199.06,563.53 194.94,564.88 190.81,566 186.72,567.28 182.59,568.31 180.66,568.62 180.47,568.66 " stroke="red" stroke-width="0.96875" stroke-linecap="round" stroke-linejoin="round" />
<polyline points="170.16,568.66 170.06,568.62 166.12,567.5 162.03,565.75 157.91,563.31 155.34,561.84 153.78,560.91 149.69,558 146.31,555.12 145.56,554.41 141.44,549.81 140.44,548.47 137.34,544.81 134.53,541.91 133.22,540.78 129.12,537.88 125,535.72 123.84,535.38 120.88,534.69 116.78,533.78 112.66,532.72 108.53,531.22 105.75,528.97 104.44,527.72 100.31,523.28 99.688,522.59 96.188,518.94 93.469,516.28 92.094,515.09 87.969,512.75 83.844,510.81 82.125,510.06 79.75,509.06 75.625,507.28 71.5,504.81 70.125,503.88 67.406,501.75 63.281,498.62 62.125,497.75 59.188,495.62 55.062,493.06 52.938,491.69 50.938,490.41 46.844,487.66 43.938,485.69 42.719,484.84 38.594,482 35,479.75 34.5,479.38 30.375,476.66 26.25,474.03 25.938,473.84 22.156,471.59 18.031,469.19 " stroke="red" stroke-width="0.96875" stroke-linecap="round" stroke-linejoin="round" />
<polyline points="248.16,514.53 249.03,513.66 250.78,513.66 251.66,514.53 251.66,516.28 250.78,517.16 248.16,517.16 248.16,518.91 251.66,518.91 " stroke="red" stroke-width="0.71875" stroke-linecap="round" stroke-linejoin="round" />
<polyline points="256.03,518.91 254.28,516.28 257.78,516.28 257.78,518.91 257.78,513.66 " stroke="red" stroke-width="0.71875" stroke-linecap="round" stroke-linejoin="round" />
<polyline points="263.91,518.03 263.03,518.91 261.28,518.91 260.41,518.03 260.41,514.53 261.28,513.66 263.03,513.66 263.91,514.53 263.91,515.41 263.03,516.28 260.41,516.28 " stroke="red" stroke-width="0.71875" stroke-linecap="round" stroke-linejoin="round" />
<polygon points="267.41,518.91 266.53,518.03 266.53,514.53 267.41,513.66 269.16,513.66 270.03,514.53 270.03,518.03 269.16,518.91 " stroke="red" stroke-width="0.71875" stroke-linejoin="round" />
<polyline points="534.84,568.66 534.75,568.62 532.28,567.88 528.19,566.41 524.06,564.75 519.94,562.91 517.44,561.84 515.84,561.12 511.72,559.28 507.59,557.34 503.5,555.28 503.22,555.12 499.38,552.62 495.25,549.81 493.34,548.47 491.16,546.94 487.03,544.06 483.94,541.91 482.91,541.16 478.81,538.12 475.28,535.38 474.69,534.94 470.56,531.62 467.22,528.97 466.47,528.38 462.34,525.28 458.84,522.59 458.25,522.12 454.12,518.94 450.5,516.28 450,515.94 445.91,512.84 442.22,510.06 441.78,509.72 437.66,506.62 433.56,504.06 433.22,503.88 429.44,501.81 425.31,499.56 422.12,497.75 421.22,497.22 417.09,494.5 412.97,491.81 412.81,491.69 408.88,489.06 404.75,486.47 403.56,485.69 400.62,483.81 396.53,481.31 393.69,479.75 392.41,479.09 388.31,477.12 384.19,475.56 380.06,474.09 379.25,473.84 375.97,472.69 371.84,471.31 367.72,470.03 363.62,468.88 360.09,468 359.5,467.84 355.38,466.88 351.28,465.78 347.16,464.78 343.03,463.94 338.94,463.19 334.81,462.75 330.69,462.44 326.59,462.28 322.47,462.25 318.34,462.31 314.25,462.56 311.25,462.94 " stroke="red" stroke-width="0.96875" stroke-linecap="round" stroke-linejoin="round" />
<polyline points="284.91,470.84 281.34,472.34 277.97,473.84 277.22,474.22 273.09,476.38 269,479.12 268.16,479.75 264.88,482.78 261.69,485.69 260.75,486.56 256.66,490.25 254.94,491.69 252.53,493.75 248.41,497.22 247.78,497.75 244.31,500.75 240.59,503.88 240.19,504.22 236.06,507.62 233.03,510.06 231.97,510.91 227.84,514.09 224.78,516.28 223.72,517.06 219.62,519.59 215.5,521.94 214.22,522.59 211.41,524.06 207.28,525.94 203.16,527.44 199.06,528.62 197.47,528.97 194.94,529.47 190.81,529.94 186.72,530 182.59,529.66 178.53,528.97 178.47,528.94 174.38,528 170.25,527.12 166.12,525.91 162.03,524.28 158.69,522.59 157.91,522.22 153.78,519.19 149.72,516.28 149.69,516.25 145.56,513.81 141.44,511.78 137.34,510.5 135.59,510.06 133.22,509.5 129.12,508.66 125,507.97 120.88,507.72 116.78,507.34 112.66,506.66 108.53,505.44 106.16,503.88 104.44,502.84 100.31,500.28 96.188,497.84 96.031,497.75 92.094,495.69 87.969,494.19 83.844,492.59 81.75,491.69 79.75,490.78 75.625,488.66 71.5,486.28 70.469,485.69 67.406,483.97 63.281,481.75 59.312,479.75 59.188,479.66 55.062,477 50.938,474.38 50.094,473.84 46.844,471.72 42.719,469.19 40.656,468 38.594,466.78 34.5,464.41 30.594,462.19 30.375,462.06 26.25,459.69 22.156,457.44 20.344,456.47 18.031,455.22 " stroke="red" stroke-width="0.96875" stroke-linecap="round" stroke-linejoin="round" />
<polyline points="287.28,464.38 288.16,463.5 289.91,463.5 290.78,464.38 290.78,466.12 289.91,467 287.28,467 287.28,468.75 290.78,468.75 " stroke="red" stroke-width="0.71875" stroke-linecap="round" stroke-linejoin="round" />
<polyline points="293.41,464.38 294.28,463.5 296.03,463.5 296.91,464.38 296.91,466.12 296.03,467 293.41,467 293.41,468.75 296.91,468.75 " stroke="red" stroke-width="0.71875" stroke-linecap="round" stroke-linejoin="round" />
<polyline points="299.53,467.88 300.41,468.75 302.16,468.75 303.03,467.88 303.03,467 299.53,463.5 303.03,463.5 " stroke="red" stroke-width="0.71875" stroke-linecap="round" stroke-linejoin="round" />
<polygon points="306.53,468.75 305.66,467.88 305.66,464.38 306.53,463.5 308.28,463.5 309.16,464.38 309.16,467.88 308.28,468.75 " stroke="red" stroke-width="0.71875" stroke-linejoin="round" />
<polyline points="594,555 589.88,554.66 585.78,554.34 581.66,554.06 577.53,553.75 573.44,553.38 569.31,552.91 565.19,552.22 561.09,551.41 556.97,550.5 552.88,549.53 548.75,548.62 548.09,548.47 544.62,547.59 540.53,546.41 536.41,545.09 532.28,543.34 529.09,541.91 528.19,541.44 524.06,539.41 519.94,537.34 515.84,535.62 515.25,535.38 511.72,533.84 507.59,531.97 503.5,529.97 501.59,528.97 499.38,527.78 495.25,525.53 491.16,523.22 490.06,522.59 487.03,520.78 482.91,518.12 480.06,516.28 478.81,515.47 474.69,512.81 470.56,510.12 470.5,510.06 466.47,507.06 462.34,503.97 462.22,503.88 458.25,500.75 454.12,497.78 454.06,497.75 450,494.94 445.91,492.16 445.19,491.69 441.78,489.47 437.66,486.84 435.72,485.69 433.56,484.38 429.44,481.81 426.19,479.75 425.31,479.19 421.22,476.66 417.09,474.34 416.16,473.84 412.97,472.12 408.88,470.03 404.75,468.03 404.69,468 400.62,465.91 396.53,463.84 393.06,462.19 392.41,461.88 388.31,459.97 384.19,458.12 380.19,456.47 380.06,456.41 375.97,454.81 371.84,453.47 367.72,452.62 363.62,451.91 359.5,451.34 355.38,450.81 355.19,450.75 351.28,450.03 347.16,449.34 343.03,448.72 338.94,448.25 334.81,447.84 330.69,447.56 326.59,447.38 322.47,447.31 319.5,447.31 " stroke="red" stroke-width="0.96875" stroke-linecap="round" stroke-linejoin="round" />
<polyline points="292.53,451.97 289.56,453.06 285.44,454.81 281.78,456.47 281.34,456.66 277.22,458.34 273.09,460.06 269,461.81 268.09,462.19 264.88,463.72 260.75,465.88 257.25,468 256.66,468.41 252.53,471.09 248.53,473.84 248.41,473.91 244.31,476.75 240.19,479.59 239.97,479.75 236.06,482.09 231.97,484.47 229.66,485.69 227.84,486.66 223.72,488.62 219.62,490.16 215.5,491.41 214.34,491.69 211.41,492.41 207.28,493.16 203.16,493.69 199.06,494 194.94,494.16 190.81,494.22 186.72,494.47 182.59,494.59 178.47,494.53 174.38,494.22 170.25,493.28 166.12,492.19 164.44,491.69 162.03,491.03 157.91,489.91 153.78,489 149.69,488.19 145.56,487.56 141.44,487.06 137.34,487.03 133.22,487.03 129.12,486.97 125,486.75 120.88,485.97 119.75,485.69 116.78,484.91 112.66,483.53 108.53,481.94 104.44,480.5 102.25,479.75 100.31,479.06 96.188,477.56 92.094,475.94 87.969,474 87.656,473.84 83.844,471.88 79.75,469.69 76.531,468 75.625,467.5 71.5,465.47 67.406,463.38 65.125,462.19 63.281,461.22 59.188,458.97 55.062,456.81 54.375,456.47 50.938,454.69 46.844,452.56 43.344,450.75 42.719,450.44 38.594,448.16 34.5,445.94 32.906,445.12 30.375,443.72 26.25,441.56 22.156,439.78 21.562,439.5 18.031,437.72 " stroke="red" stroke-width="0.96875" stroke-linecap="round" stroke-linejoin="round" />
<polyline points="295.53,446.47 296.41,445.59 298.16,445.59 299.03,446.47 299.03,448.22 298.16,449.09 295.53,449.09 295.53,450.84 299.03,450.84 " stroke="red" stroke-width="0.71875" stroke-linecap="round" stroke-linejoin="round" />
<polyline points="301.66,446.47 302.53,445.59 304.28,445.59 305.16,446.47 305.16,448.22 304.28,449.09 301.66,449.09 301.66,450.84 305.16,450.84 " stroke="red" stroke-width="0.71875" stroke-linecap="round" stroke-linejoin="round" />
<polygon points="308.66,450.84 307.78,449.97 307.78,449.09 308.66,448.22 310.41,448.22 311.28,449.09 311.28,449.97 310.41,450.84 " stroke="red" stroke-width="0.71875" stroke-linejoin="round" />
<polyline points="308.66,448.22 307.78,447.34 307.78,446.47 308.66,445.59 310.41,445.59 311.28,446.47 311.28,447.34 310.41,448.22 " stroke="red" stroke-width="0.71875" stroke-linecap="round" stroke-linejoin="round" />
<polygon points="314.78,450.84 313.91,449.97 313.91,446.47 314.78,445.59 316.53,445.59 317.41,446.47 317.41,449.97 316.53,450.84 " stroke="red" stroke-width="0.71875" stroke-linejoin="round" />
<polyline points="594,524.28 589.88,524.75 585.78,525.28 581.66,525.38 577.53,525.38 573.44,525.25 569.31,524.97 565.19,524.28 561.09,523.44 557.41,522.59 556.97,522.47 552.88,521.41 548.75,520.44 544.62,519.34 540.53,518.16 536.41,516.81 535.09,516.28 532.28,515.16 528.19,513.5 524.06,511.84 519.94,510.22 519.56,510.06 515.84,508.5 511.72,506.75 507.59,504.91 505.31,503.88 503.5,503.03 499.38,501.22 495.25,499.38 491.75,497.75 491.16,497.47 487.03,495.41 482.91,493.16 480.47,491.69 478.81,490.66 474.69,488 471.16,485.69 470.56,485.28 466.47,482.91 462.34,480.72 460.38,479.75 458.25,478.62 454.12,476.44 450,473.97 449.81,473.84 445.91,471.44 441.78,469 440.06,468 437.66,466.62 433.56,464.16 430.25,462.19 429.44,461.72 425.31,459.28 421.22,456.97 420.19,456.47 417.09,454.81 412.97,452.72 409,450.75 408.88,450.69 404.75,448.62 400.62,446.44 398.06,445.12 396.53,444.31 392.41,442.19 388.31,440.19 386.72,439.5 384.19,438.38 380.06,436.75 375.97,435.31 371.84,434.03 371.59,433.97 367.72,432.72 363.62,431.53 359.5,430.53 355.38,429.69 351.28,429.22 347.16,428.91 343.03,428.78 338.94,428.81 334.81,428.94 330.69,429.16 326.59,429.44 323.59,429.72 " stroke="red" stroke-width="0.96875" stroke-linecap="round" stroke-linejoin="round" />
<polyline points="296.66,433.53 294.75,433.97 293.69,434.16 289.56,435.06 285.44,436.25 281.34,437.62 277.22,439.19 276.44,439.5 273.09,440.78 269,442.28 264.88,443.78 261.19,445.12 260.75,445.28 256.66,446.66 252.53,448.19 248.41,449.81 246.12,450.75 244.31,451.53 240.19,453.28 236.06,455 232.5,456.47 231.97,456.69 227.84,458.22 223.72,459.59 219.62,460.62 215.5,461.44 211.41,462.09 210.56,462.19 207.28,462.66 203.16,463.38 199.06,464 194.94,464.56 190.81,465.06 186.72,465.5 182.59,465.91 178.47,466.25 174.38,466.5 170.25,466.62 166.12,466.62 162.03,466.53 157.91,466.38 153.78,466.03 149.69,465.62 145.56,465.28 141.44,464.94 137.34,465.12 133.22,465.31 129.12,465.34 125,465.19 120.88,464.19 116.78,462.94 114.62,462.19 112.66,461.5 108.53,459.97 104.44,458.47 100.31,456.84 99.406,456.47 96.188,455 92.094,453 87.969,450.84 87.844,450.75 83.844,448.53 79.75,446.19 77.844,445.12 75.625,443.84 71.5,441.81 67.406,439.88 66.594,439.5 63.281,438.03 59.188,436.19 55.062,434.09 54.812,433.97 50.938,431.94 46.844,429.72 44.5,428.44 42.719,427.47 38.594,425.41 34.5,423.41 33.562,422.97 30.375,421.47 26.25,419.59 22.156,417.91 21.281,417.53 18.031,416.09 " stroke="red" stroke-width="0.96875" stroke-linecap="round" stroke-linejoin="round" />
<polyline points="299.62,429.47 300.5,428.59 302.25,428.59 303.12,429.47 303.12,431.22 302.25,432.09 299.62,432.09 299.62,433.84 303.12,433.84 " stroke="red" stroke-width="0.71875" stroke-linecap="round" stroke-linejoin="round" />
<polyline points="309.25,432.97 308.38,433.84 306.62,433.84 305.75,432.97 305.75,429.47 306.62,428.59 308.38,428.59 309.25,429.47 309.25,430.34 308.38,431.22 305.75,431.22 " stroke="red" stroke-width="0.71875" stroke-linecap="round" stroke-linejoin="round" />
<polyline points="313.62,433.84 311.88,431.22 315.38,431.22 315.38,433.84 315.38,428.59 " stroke="red" stroke-width="0.71875" stroke-linecap="round" stroke-linejoin="round" />
<polygon points="318.88,433.84 318,432.97 318,429.47 318.88,428.59 320.62,428.59 321.5,429.47 321.5,432.97 320.62,433.84 " stroke="red" stroke-width="0.71875" stroke-linejoin="round" />
<polyline points="594,460.25 592.78,462.19 589.88,467.72 589.75,468 586.72,473.84 585.78,475.16 581.66,477.81 577.53,479.44 576.38,479.75 573.44,480.38 569.31,480.97 565.19,481.72 561.09,482.22 556.97,482.47 552.88,482.47 548.75,481.81 544.62,481 540.53,480.12 538.5,479.75 536.41,479.34 532.28,479.19 528.19,479 524.06,478.69 519.94,478.16 515.84,476.97 511.72,475.59 507.59,474.06 507,473.84 503.5,472.41 499.38,470.84 495.25,469.16 492.53,468 491.16,467.38 487.03,465.41 482.91,463.31 480.66,462.19 478.81,461.28 474.69,459.28 470.56,457.38 468.44,456.47 466.47,455.56 462.34,453.78 458.25,452.09 454.81,450.75 454.12,450.5 450,448.81 445.91,447.03 441.78,445.16 441.66,445.12 437.66,443.06 433.56,440.75 431.41,439.5 429.44,438.38 425.31,435.97 421.66,433.97 421.22,433.72 417.09,431.62 412.97,429.62 410.53,428.44 408.88,427.62 404.75,425.56 400.62,423.41 399.81,422.97 396.53,421.19 392.41,419.03 389.38,417.53 388.31,416.97 384.19,415.03 380.06,413.16 377.69,412.16 375.97,411.41 371.84,409.72 367.72,408.25 363.62,406.91 363.28,406.78 359.5,405.62 355.38,404.47 351.28,403.28 347.16,402.12 344.84,401.47 343.03,400.94 340.06,400.09 " stroke="red" stroke-width="0.96875" stroke-linecap="round" stroke-linejoin="round" />
<polyline points="313.12,397.38 310.12,397.94 306.03,399.06 301.91,400.16 297.97,401.47 297.78,401.53 293.69,402.88 289.56,404.41 285.44,406.09 283.88,406.78 281.34,407.72 277.22,409.28 273.09,411.03 271.03,412.16 269,413.12 264.88,415.25 260.75,417.34 260.38,417.53 256.66,419.12 252.53,420.31 248.41,421.47 244.31,422.62 243.19,422.97 240.19,423.81 236.06,425.56 231.97,427.25 228.97,428.44 227.84,428.88 223.72,430.34 219.62,431.78 215.5,433.28 213.75,433.97 211.41,434.78 207.28,436.09 203.16,437.25 199.06,438.28 194.94,439.19 193.25,439.5 190.81,439.97 186.72,440.59 182.59,441.12 178.47,441.59 174.38,442 170.25,442.47 166.12,442.88 162.03,443.22 157.91,443.44 153.78,443.38 149.69,443.19 145.56,442.97 141.44,442.69 137.34,442.69 133.22,442.56 129.12,442.28 125,441.72 120.88,440.41 118.69,439.5 116.78,438.69 112.66,436.72 108.53,434.59 107.19,433.97 104.44,432.72 100.31,430.78 96.188,428.75 95.594,428.44 92.094,426.59 87.969,424.75 83.844,423.12 83.406,422.97 79.75,421.66 75.625,420.28 71.5,418.66 68.844,417.53 67.406,416.91 63.281,414.94 59.188,412.81 57.938,412.16 55.062,410.59 50.938,408.38 47.875,406.78 46.844,406.25 42.719,404.22 38.594,402.41 36.344,401.47 34.5,400.69 30.375,398.97 26.25,397.28 23.594,396.22 22.156,395.59 18.031,393.75 " stroke="red" stroke-width="0.96875" stroke-linecap="round" stroke-linejoin="round" />
<polyline points="316.09,395.38 316.97,394.5 318.72,394.5 319.59,395.38 319.59,397.12 318.72,398 316.09,398 316.09,399.75 319.59,399.75 " stroke="red" stroke-width="0.71875" stroke-linecap="round" stroke-linejoin="round" />
<polyline points="322.22,399.75 325.72,399.75 323.97,394.5 " stroke="red" stroke-width="0.71875" stroke-linecap="round" stroke-linejoin="round" />
<polygon points="329.22,399.75 328.34,398.88 328.34,395.38 329.22,394.5 330.97,394.5 331.84,395.38 331.84,398.88 330.97,399.75 " stroke="red" stroke-width="0.71875" stroke-linejoin="round" />
<polygon points="335.34,399.75 334.47,398.88 334.47,395.38 335.34,394.5 337.09,394.5 337.97,395.38 337.97,398.88 337.09,399.75 " stroke="red" stroke-width="0.71875" stroke-linejoin="round" />
<polyline points="594,347.56 592.66,350.28 590.5,355.25 589.88,356.78 588.41,360.25 586.41,365.28 585.78,367.06 584.44,370.38 582.69,375.47 581.66,378.5 580.88,380.59 578.84,385.78 577.53,389.03 576.69,390.97 574.38,396.22 573.44,398.47 572.12,401.47 569.81,406.78 569.31,407.91 567.25,412.16 565.19,415.75 564.06,417.53 561.09,421.78 560.16,422.97 556.97,426.56 555,428.44 552.88,430.28 548.75,433.03 546.88,433.97 544.62,434.91 540.53,436.19 536.41,437.03 532.28,437.59 528.19,437.84 524.06,437.78 519.94,437.41 515.84,436.56 511.72,435.44 507.59,434.12 507.09,433.97 503.5,432.66 499.38,431.22 495.25,429.81 491.16,428.47 491.06,428.44 487.03,427.16 482.91,425.94 478.81,424.81 474.69,423.81 471.03,422.97 470.56,422.88 466.47,422.12 462.34,421.31 458.25,420.38 454.12,419.22 450,417.66 449.72,417.53 445.91,415.88 441.78,414.06 437.66,412.25 437.47,412.16 433.56,410.41 429.44,408.56 425.53,406.78 425.31,406.69 421.22,404.75 417.09,402.94 413.69,401.47 412.97,401.16 408.88,399.34 404.75,397.56 401.75,396.22 400.62,395.69 396.53,393.78 392.41,391.91 390.38,390.97 388.31,389.94 384.19,387.75 380.31,385.78 380.06,385.62 375.97,383.41 371.84,381.28 370.44,380.59 367.72,379.16 363.62,376.91 361.06,375.47 359.5,374.5 355.38,371.94 352.5,370.38 351.28,369.72 347.16,367.66 343.03,365.62 342.41,365.28 338.94,363.47 334.81,361.28 332.88,360.25 332.34,359.97 " stroke="red" stroke-width="0.96875" stroke-linecap="round" stroke-linejoin="round" />
<polyline points="315.91,350.53 315.5,350.28 314.25,349.41 310.12,346.69 307.84,345.31 306.03,344.25 301.91,342.16 297.91,340.41 297.78,340.34 293.69,338.91 289.56,337.81 285.44,337.34 281.34,337.31 277.22,337.81 273.09,338.88 269.25,340.41 269,340.53 264.88,343.06 261.97,345.31 260.75,346.44 257.19,350.28 256.66,351.03 254.12,355.25 252.53,358.16 251.44,360.25 248.81,365.28 248.41,366 246,370.38 244.31,373.06 242.78,375.47 240.19,379.03 239,380.59 236.06,383.88 234.22,385.78 231.97,387.75 227.88,390.97 227.84,391 223.72,394.06 220.09,396.22 219.62,396.44 215.5,398.28 211.41,399.88 207.28,401.34 207,401.47 203.16,403.62 199.06,406.09 197.88,406.78 194.94,408.5 190.81,410.69 186.72,411.66 183.06,412.16 182.59,412.22 178.47,412.47 174.38,412.59 170.25,412.94 166.12,413.22 162.03,413.38 157.91,413.44 153.78,413.22 149.69,412.88 145.56,412.47 142.56,412.16 141.44,412.03 137.34,411.94 133.22,411.78 129.12,411.53 125,411.09 120.88,410.22 116.78,409 112.66,407.41 111.31,406.78 108.53,405.44 104.44,403.44 100.31,401.78 99.5,401.47 96.188,400.41 92.094,399.19 87.969,397.84 83.844,396.28 83.656,396.22 79.75,394.44 75.625,392.44 71.938,390.97 71.5,390.81 67.406,389.16 63.281,387.38 59.875,385.78 59.188,385.41 55.062,383.22 50.938,381.19 49.688,380.59 46.844,379.28 42.719,377.5 38.594,375.75 37.906,375.47 34.5,374 30.375,372.25 26.25,370.53 25.875,370.38 22.156,368.78 18.031,367 " stroke="red" stroke-width="0.96875" stroke-linecap="round" stroke-linejoin="round" />
<polyline points="312.97,353.5 313.84,352.62 315.59,352.62 316.47,353.5 316.47,355.25 315.59,356.12 312.97,356.12 312.97,357.88 316.47,357.88 " stroke="red" stroke-width="0.71875" stroke-linecap="round" stroke-linejoin="round" />
<polyline points="319.09,357.88 322.59,357.88 320.84,352.62 " stroke="red" stroke-width="0.71875" stroke-linecap="round" stroke-linejoin="round" />
<polyline points="328.72,357 327.84,357.88 326.09,357.88 325.22,357 325.22,353.5 326.09,352.62 327.84,352.62 328.72,353.5 328.72,354.38 327.84,355.25 325.22,355.25 " stroke="red" stroke-width="0.71875" stroke-linecap="round" stroke-linejoin="round" />
<polygon points="332.22,357.88 331.34,357 331.34,353.5 332.22,352.62 333.97,352.62 334.84,353.5 334.84,357 333.97,357.88 " stroke="red" stroke-width="0.71875" stroke-linejoin="round" />
<polyline points="580.88,247 580.81,247.03 577.53,248.59 573.44,250.84 572.34,251.5 569.31,253.78 566.66,256 565.19,257.59 562.56,260.5 561.09,262.34 558.88,265.03 556.97,267.59 555.41,269.59 552.88,273.09 552.06,274.16 549.34,278.75 548.75,280.16 547.38,283.34 546.09,287.97 545.44,292.62 545.72,297.31 546.22,302 546.66,306.72 546.88,311.44 546.22,316.22 545.38,321 544.62,324.44 544.34,325.81 543.22,330.66 542.22,335.5 541.22,340.41 540.53,343.59 540.12,345.31 538.97,350.28 537.66,355.25 536.41,359.47 536.12,360.25 534.09,365.28 532.28,369.09 531.59,370.38 528.31,375.47 528.19,375.66 524.06,379.97 523.25,380.59 519.94,382.66 515.84,383.94 511.72,384.34 507.59,384.16 503.5,383.5 499.38,382.34 495.25,380.94 494.31,380.59 491.16,379.34 487.03,377.72 482.91,376.59 478.81,375.59 478.25,375.47 474.69,374.62 470.56,373.75 466.47,373.03 462.34,372.31 458.25,371.56 454.12,370.81 451.59,370.38 450,370.03 445.91,369 441.78,367.81 437.66,366.47 433.88,365.28 433.56,365.19 429.44,363.78 425.31,362.5 421.22,361.25 418.84,360.25 417.09,359.5 412.97,357.66 408.88,355.75 407.91,355.25 404.75,353.56 400.62,350.84 399.84,350.28 396.53,347.72 393.31,345.31 392.41,344.62 388.31,341.72 386.09,340.41 384.19,339.22 380.06,336.78 377.88,335.5 375.97,334.34 371.84,331.88 369.75,330.66 367.72,329.38 363.62,326.88 361.84,325.81 359.5,324.34 355.38,321.94 353.72,321 353.62,320.94 " stroke="red" stroke-width="0.96875" stroke-linecap="round" stroke-linejoin="round" />
<polyline points="332.69,311.47 332.53,311.44 330.69,310.88 326.59,309.81 322.47,308.88 318.34,307.81 314.25,306.84 313.53,306.72 310.12,305.97 306.03,305.22 301.91,304.66 297.78,304.28 293.69,304.16 289.56,304.25 285.44,304.59 281.34,305.16 277.22,305.97 274.25,306.72 273.09,306.97 269,308.28 264.88,309.81 261.03,311.44 260.75,311.53 256.66,313.16 252.53,314.97 250.25,316.22 248.41,317.22 244.31,320.03 243.09,321 240.19,323.53 237.81,325.81 236.06,327.56 233.16,330.66 231.97,332.03 228.94,335.5 227.84,336.81 224.84,340.41 223.72,341.78 220.72,345.31 219.62,346.62 216.41,350.28 215.5,351.38 212.09,355.25 211.41,356.03 207.28,360 206.88,360.25 203.16,362.47 199.06,364.34 196.56,365.28 194.94,365.88 190.81,367.19 186.72,369.16 184.09,370.38 182.59,371.06 178.47,372.88 174.38,374.44 170.25,375.38 169.59,375.47 166.12,375.97 162.03,376.31 157.91,376.44 153.78,376.44 149.69,376.34 145.56,376.16 141.44,375.94 137.34,375.84 133.22,375.69 130.06,375.47 129.12,375.41 125,374.94 120.88,374.22 116.78,373.41 112.66,372.62 108.53,371.78 104.44,370.69 103.34,370.38 100.31,369.31 96.188,367.75 92.094,366.12 89.562,365.28 87.969,364.75 83.844,363.28 79.75,361.75 76.125,360.25 75.625,360.06 71.5,357.78 67.406,355.59 66.75,355.25 63.281,353.47 59.188,351.56 55.344,350.28 55.062,350.16 50.938,348.66 46.844,347.16 42.719,345.59 42.094,345.31 38.594,343.69 34.5,341.78 31.406,340.41 30.375,339.94 26.25,338.12 22.156,336.44 19.719,335.5 18.031,334.84 " stroke="red" stroke-width="0.96875" stroke-linecap="round" stroke-linejoin="round" />
<polyline points="334.31,314.47 335.19,313.59 336.94,313.59 337.81,314.47 337.81,316.22 336.94,317.09 334.31,317.09 334.31,318.84 337.81,318.84 " stroke="red" stroke-width="0.71875" stroke-linecap="round" stroke-linejoin="round" />
<polygon points="341.31,318.84 340.44,317.97 340.44,317.09 341.31,316.22 343.06,316.22 343.94,317.09 343.94,317.97 343.06,318.84 " stroke="red" stroke-width="0.71875" stroke-linejoin="round" />
<polyline points="341.31,316.22 340.44,315.34 340.44,314.47 341.31,313.59 343.06,313.59 343.94,314.47 343.94,315.34 343.06,316.22 " stroke="red" stroke-width="0.71875" stroke-linecap="round" stroke-linejoin="round" />
<polyline points="346.56,317.97 347.44,318.84 349.19,318.84 350.06,317.97 350.06,317.09 346.56,313.59 350.06,313.59 " stroke="red" stroke-width="0.71875" stroke-linecap="round" stroke-linejoin="round" />
<polygon points="353.56,318.84 352.69,317.97 352.69,314.47 353.56,313.59 355.31,313.59 356.19,314.47 356.19,317.97 355.31,318.84 " stroke="red" stroke-width="0.71875" stroke-linejoin="round" />
<polyline points="35.281,247 35.156,247.03 34.5,247.28 30.375,248.94 26.25,250.88 25.031,251.5 22.156,253.53 18.031,255.81 " stroke="red" stroke-width="0.96875" stroke-linecap="round" stroke-linejoin="round" />
<polyline points="18.031,267.06 19.281,269.59 22.156,273.56 22.562,274.16 25.812,278.75 26.25,279.34 29.562,283.34 30.375,284.09 34.5,287.97 38.594,290.78 41.375,292.62 42.719,293.38 46.844,295.34 50.656,297.31 50.938,297.44 55.062,299.19 59.188,301.12 61.094,302 63.281,302.81 67.406,304.34 71.5,306 73.375,306.72 75.625,307.38 79.75,308.09 83.844,308.75 87.969,309.47 92.094,310.38 93.406,311.12 " stroke="red" stroke-width="0.96875" stroke-linecap="round" stroke-linejoin="round" />
<polyline points="111.72,320.56 112.66,320.84 113.38,321 116.78,321.66 120.88,322.19 125,322.56 129.12,322.66 133.22,322.59 137.34,322.34 141.44,321.88 145.56,321.03 145.75,321 149.69,319.88 153.78,318.47 157.91,316.84 159.69,316.22 162.03,315.28 166.12,313.5 170.25,311.56 170.5,311.44 174.38,309.44 178.47,307.22 179.41,306.72 182.59,304.78 186.72,302.22 187.06,302 190.81,299.16 192.91,297.31 194.94,295.16 197.09,292.62 199.06,289.97 200.53,287.97 203.16,284.25 203.81,283.34 206.97,278.75 207.28,278.28 209.59,274.16 211.31,269.59 211.41,269.25 212.53,265.03 213.38,260.5 213.88,256 214.59,251.5 215.12,247.03 215.12,247 " stroke="red" stroke-width="0.96875" stroke-linecap="round" stroke-linejoin="round" />
<polyline points="89.812,314.09 90.688,313.22 92.438,313.22 93.312,314.09 93.312,315.84 92.438,316.72 89.812,316.72 89.812,318.47 93.312,318.47 " stroke="red" stroke-width="0.71875" stroke-linecap="round" stroke-linejoin="round" />
<polygon points="96.812,318.47 95.938,317.59 95.938,316.72 96.812,315.84 98.562,315.84 99.438,316.72 99.438,317.59 98.562,318.47 " stroke="red" stroke-width="0.71875" stroke-linejoin="round" />
<polyline points="96.812,315.84 95.938,314.97 95.938,314.09 96.812,313.22 98.562,313.22 99.438,314.09 99.438,314.97 98.562,315.84 " stroke="red" stroke-width="0.71875" stroke-linecap="round" stroke-linejoin="round" />
<polygon points="102.94,318.47 102.06,317.59 102.06,316.72 102.94,315.84 104.69,315.84 105.56,316.72 105.56,317.59 104.69,318.47 " stroke="red" stroke-width="0.71875" stroke-linejoin="round" />
<polyline points="102.94,315.84 102.06,314.97 102.06,314.09 102.94,313.22 104.69,313.22 105.56,314.09 105.56,314.97 104.69,315.84 " stroke="red" stroke-width="0.71875" stroke-linecap="round" stroke-linejoin="round" />
<polygon points="109.06,318.47 108.19,317.59 108.19,314.09 109.06,313.22 110.81,313.22 111.69,314.09 111.69,317.59 110.81,318.47 " stroke="red" stroke-width="0.71875" stroke-linejoin="round" />
</g>
</svg>
