<?xml version="1.0" encoding="ISO-8859-1" standalone="no"?>
<!DOCTYPE svg PUBLIC "-//W3C//DTD SVG 1.1//EN" "http://www.w3.org/Graphics/SVG/1.1/DTD/svg11.dtd">
<svg version="1.1" baseProfile="full" id="body" width="900px" height="600px" viewBox="0 0.2 1 0.55" preserveAspectRatio="none" xmlns="http://www.w3.org/2000/svg" xmlns:xlink="http://www.w3.org/1999/xlink" xmlns:ev="http://www.w3.org/2001/xml-events">
<title>SVG drawing</title>
<desc>This was produced by version 4.2 of GNU libplot, a free library for exporting 2-D vector graphics.</desc>
<rect id="background" x="0" y="0" width="1" height="1" stroke="none" fill="none"/>
<g id="content" transform="translate(-0.03125,1.1875) scale(1,-1) scale(0.0017361) " xml:space="preserve" stroke="black" stroke-linecap="butt" stroke-linejoin="miter" stroke-miterlimit="10.433" stroke-dasharray="none" stroke-dashoffset="0" stroke-opacity="1" fill="none" fill-rule="even-odd" fill-opacity="1" font-style="normal" font-variant="normal" font-weight="normal" font-stretch="normal" font-size-adjust="none" letter-spacing="normal" word-spacing="normal" text-anchor="start">
<polyline points="22.438,568.66 22.438,568.62 22.156,567.88 21.719,566.56 " stroke="red" stroke-width="0.96875" stroke-linecap="round" stroke-linejoin="round" />
<polyline points="18.938,557.09 18.406,555.12 18.031,554.25 " stroke="red" stroke-width="0.96875" stroke-linecap="round" stroke-linejoin="round" />
<polyline points="18.031,564.47 18.438,564.47 19.312,563.59 19.312,562.72 18.031,561.44 " stroke="red" stroke-width="0.71875" stroke-linecap="round" stroke-linejoin="round" />
<line x1="18.031" y1="559.22" x2="19.312" y2="559.22" stroke="red" stroke-width="0.71875" stroke-linecap="round" />
<polygon points="22.812,564.47 21.938,563.59 21.938,562.72 22.812,561.84 24.562,561.84 25.438,562.72 25.438,563.59 24.562,564.47 " stroke="red" stroke-width="0.71875" stroke-linejoin="round" />
<polyline points="22.812,561.84 21.938,560.97 21.938,560.09 22.812,559.22 24.562,559.22 25.438,560.09 25.438,560.97 24.562,561.84 " stroke="red" stroke-width="0.71875" stroke-linecap="round" stroke-linejoin="round" />
<polygon points="28.938,564.47 28.062,563.59 28.062,560.09 28.938,559.22 30.688,559.22 31.562,560.09 31.562,563.59 30.688,564.47 " stroke="red" stroke-width="0.71875" stroke-linejoin="round" />
<polyline points="281.38,568.66 281.38,568.62 281.34,567.84 280.94,561.84 281.34,556.47 281.44,555.12 283.38,548.47 285.44,544.16 286.72,541.91 289.56,538.25 292.94,535.38 293.69,534.84 297.78,532.34 300.78,530.81 " stroke="red" stroke-width="0.96875" stroke-linecap="round" stroke-linejoin="round" />
<polyline points="327.72,527.94 330.69,528.22 334.81,528.94 334.84,528.97 338.94,530.53 343.03,533.28 345.75,535.38 347.16,536.75 351.28,540.88 352.25,541.91 355.38,545.78 357.88,548.47 359.5,550.69 362.88,555.12 363.62,556.69 366.03,561.84 367.59,568.62 367.59,568.66 " stroke="red" stroke-width="0.96875" stroke-linecap="round" stroke-linejoin="round" />
<polyline points="303.75,525.75 304.62,524.88 306.38,524.88 307.25,525.75 307.25,527.5 306.38,528.38 303.75,528.38 303.75,530.12 307.25,530.12 " stroke="red" stroke-width="0.71875" stroke-linecap="round" stroke-linejoin="round" />
<polyline points="309.88,529.25 310.75,530.12 312.5,530.12 313.38,529.25 313.38,528.38 309.88,524.88 313.38,524.88 " stroke="red" stroke-width="0.71875" stroke-linecap="round" stroke-linejoin="round" />
<polygon points="316.88,530.12 316,529.25 316,528.38 316.88,527.5 318.62,527.5 319.5,528.38 319.5,529.25 318.62,530.12 " stroke="red" stroke-width="0.71875" stroke-linejoin="round" />
<polyline points="316.88,527.5 316,526.62 316,525.75 316.88,524.88 318.62,524.88 319.5,525.75 319.5,526.62 318.62,527.5 " stroke="red" stroke-width="0.71875" stroke-linecap="round" stroke-linejoin="round" />
<polygon points="323,530.12 322.12,529.25 322.12,525.75 323,524.88 324.75,524.88 325.62,525.75 325.62,529.25 324.75,530.12 " stroke="red" stroke-width="0.71875" stroke-linejoin="round" />
<polyline points="50.219,568.66 50.219,568.62 47.188,561.84 46.844,561.16 43.656,555.12 42.719,553.5 39.5,548.47 38.594,547.31 38.156,546.72 " stroke="red" stroke-width="0.96875" stroke-linecap="round" stroke-linejoin="round" />
<polyline points="30.531,537.25 30.375,537.06 29.125,535.38 26.25,531.84 24.625,528.97 22.156,525.34 20.438,522.59 18.031,518.88 " stroke="red" stroke-width="0.96875" stroke-linecap="round" stroke-linejoin="round" />
<polyline points="24,540.25 24.875,539.38 26.625,539.38 27.5,540.25 27.5,542 26.625,542.88 24,542.88 24,544.62 27.5,544.62 " stroke="red" stroke-width="0.71875" stroke-linecap="round" stroke-linejoin="round" />
<polyline points="30.125,543.75 31,544.62 32.75,544.62 33.625,543.75 33.625,542.88 32.75,542 31.875,542 32.75,542 33.625,541.12 33.625,540.25 32.75,539.38 31,539.38 30.125,540.25 " stroke="red" stroke-width="0.71875" stroke-linecap="round" stroke-linejoin="round" />
<polyline points="38,544.62 36.25,542 39.75,542 39.75,544.62 39.75,539.38 " stroke="red" stroke-width="0.71875" stroke-linecap="round" stroke-linejoin="round" />
<polygon points="43.25,544.62 42.375,543.75 42.375,540.25 43.25,539.38 45,539.38 45.875,540.25 45.875,543.75 45,544.62 " stroke="red" stroke-width="0.71875" stroke-linejoin="round" />
<polyline points="260.41,568.66 260.41,568.62 260.75,566.56 261.47,561.84 263,555.12 264.88,549 265.03,548.47 267.72,541.91 269,539.66 271.44,535.38 273.09,533.19 276.09,528.97 277.22,527.66 281.34,523.44 282.31,522.59 285.44,520.28 289.56,517.81 293.06,516.28 293.69,516.06 297.78,514.81 301.91,513.94 306.03,513.38 309,513.22 " stroke="red" stroke-width="0.96875" stroke-linecap="round" stroke-linejoin="round" />
<polyline points="335.94,516.62 338.94,517.44 343.03,519.03 347.16,520.91 350.38,522.59 351.28,523.12 355.38,525.81 359.5,528.53 360.09,528.97 363.62,531.91 367.72,535.38 367.75,535.38 371.84,539.28 374.5,541.91 375.97,543.56 380.06,548.28 380.22,548.47 384.19,554.06 384.94,555.12 388.06,561.84 388.31,562.56 390.38,568.62 390.38,568.66 " stroke="red" stroke-width="0.96875" stroke-linecap="round" stroke-linejoin="round" />
<polyline points="311.97,512.19 312.84,511.31 314.59,511.31 315.47,512.19 315.47,513.94 314.59,514.81 311.97,514.81 311.97,516.56 315.47,516.56 " stroke="red" stroke-width="0.71875" stroke-linecap="round" stroke-linejoin="round" />
<polyline points="318.09,515.69 318.97,516.56 320.72,516.56 321.59,515.69 321.59,514.81 320.72,513.94 319.84,513.94 320.72,513.94 321.59,513.06 321.59,512.19 320.72,511.31 318.97,511.31 318.09,512.19 " stroke="red" stroke-width="0.71875" stroke-linecap="round" stroke-linejoin="round" />
<polyline points="325.97,516.56 324.22,513.94 327.72,513.94 327.72,516.56 327.72,511.31 " stroke="red" stroke-width="0.71875" stroke-linecap="round" stroke-linejoin="round" />
<polygon points="331.22,516.56 330.34,515.69 330.34,512.19 331.22,511.31 332.97,511.31 333.84,512.19 333.84,515.69 332.97,516.56 " stroke="red" stroke-width="0.71875" stroke-linejoin="round" />
<polyline points="85.438,568.66 85.375,568.62 83.844,567.88 79.75,565.44 75.625,562.34 75.219,561.84 71.5,556.5 70.688,555.12 67.406,549.16 67,548.47 63.281,543 63.219,542.91 " stroke="red" stroke-width="0.96875" stroke-linecap="round" stroke-linejoin="round" />
<polyline points="55.438,533.47 55.062,533 52,528.97 50.938,527.66 46.844,522.94 46.5,522.59 42.719,518.84 39.344,516.28 38.594,515.72 34.5,512.25 32.219,510.06 30.375,508.16 26.656,503.88 26.25,503.38 22.156,498.53 21.5,497.75 18.031,493.81 " stroke="red" stroke-width="0.96875" stroke-linecap="round" stroke-linejoin="round" />
<polyline points="48.688,536.44 49.562,535.56 51.312,535.56 52.188,536.44 52.188,538.19 51.312,539.06 48.688,539.06 48.688,540.81 52.188,540.81 " stroke="red" stroke-width="0.71875" stroke-linecap="round" stroke-linejoin="round" />
<polyline points="56.562,540.81 54.812,538.19 58.312,538.19 58.312,540.81 58.312,535.56 " stroke="red" stroke-width="0.71875" stroke-linecap="round" stroke-linejoin="round" />
<polygon points="61.812,540.81 60.938,539.94 60.938,536.44 61.812,535.56 63.562,535.56 64.438,536.44 64.438,539.94 63.562,540.81 " stroke="red" stroke-width="0.71875" stroke-linejoin="round" />
<polygon points="67.938,540.81 67.062,539.94 67.062,536.44 67.938,535.56 69.688,535.56 70.562,536.44 70.562,539.94 69.688,540.81 " stroke="red" stroke-width="0.71875" stroke-linejoin="round" />
<polyline points="214.09,568.66 214.12,568.62 215.5,567.28 219.62,562.25 219.91,561.84 223.72,556.62 224.69,555.12 227.84,550.81 229.38,548.47 231.97,544.69 233.69,541.91 236.06,538.31 237.91,535.38 240.19,532.16 242.53,528.97 244.31,526.97 248.41,522.72 248.53,522.59 252.53,519.31 256.53,516.28 256.66,516.22 260.75,513.53 264.88,511 266.5,510.06 269,508.75 273.09,506.78 277.22,504.84 279.66,503.88 281.34,503.28 285.44,502.06 289.56,501.09 292.53,500.66 " stroke="red" stroke-width="0.96875" stroke-linecap="round" stroke-linejoin="round" />
<polyline points="319.5,501.03 322.47,501.5 326.59,502.59 330.69,503.88 330.72,503.88 334.81,505.06 338.94,506.31 343.03,507.62 347.16,509.09 349.62,510.06 351.28,510.72 355.38,512.56 359.5,514.53 362.84,516.28 363.62,516.72 367.72,519.16 371.84,521.84 372.94,522.59 375.97,524.84 380.06,528.22 380.94,528.97 384.19,531.84 388,535.38 388.31,535.69 392.41,539.88 394.28,541.91 396.53,544.69 399.44,548.47 400.62,550.31 403.78,555.12 404.75,556.84 407.84,561.84 408.88,563.5 412.38,568.62 412.41,568.66 " stroke="red" stroke-width="0.96875" stroke-linecap="round" stroke-linejoin="round" />
<polyline points="295.53,498.28 296.41,497.41 298.16,497.41 299.03,498.28 299.03,500.03 298.16,500.91 295.53,500.91 295.53,502.66 299.03,502.66 " stroke="red" stroke-width="0.71875" stroke-linecap="round" stroke-linejoin="round" />
<polyline points="303.41,502.66 301.66,500.03 305.16,500.03 305.16,502.66 305.16,497.41 " stroke="red" stroke-width="0.71875" stroke-linecap="round" stroke-linejoin="round" />
<polygon points="308.66,502.66 307.78,501.78 307.78,498.28 308.66,497.41 310.41,497.41 311.28,498.28 311.28,501.78 310.41,502.66 " stroke="red" stroke-width="0.71875" stroke-linejoin="round" />
<polygon points="314.78,502.66 313.91,501.78 313.91,498.28 314.78,497.41 316.53,497.41 317.41,498.28 317.41,501.78 316.53,502.66 " stroke="red" stroke-width="0.71875" stroke-linejoin="round" />
<polyline points="447.66,568.66 447.59,568.62 445.91,567.91 441.78,565.88 437.66,563.53 435.28,561.84 433.56,560.59 429.44,557.31 427,555.12 425.31,553.56 421.22,549.22 420.59,548.47 417.09,544.19 415.31,541.91 412.97,539 410.03,535.38 408.88,534.06 404.75,529.56 404.12,528.97 400.62,525.84 396.84,522.59 396.53,522.34 392.41,519.06 388.78,516.28 388.31,515.94 384.19,513.12 380.06,510.66 378.97,510.06 375.97,508.44 371.84,506.47 367.72,504.59 366,503.88 363.62,502.78 359.5,501.03 355.38,499.47 351.28,497.94 350.72,497.75 347.16,496.41 343.03,494.94 338.94,493.5 334.81,491.97 334.03,491.69 330.69,490.47 326.59,489.09 322.47,487.97 318.34,487.38 314.25,486.97 310.12,486.72 306.03,486.53 303.03,486.28 " stroke="red" stroke-width="0.96875" stroke-linecap="round" stroke-linejoin="round" />
<polyline points="276.09,487.44 273.09,488 269,488.66 264.88,489.41 260.75,490.28 256.66,491.25 255,491.69 252.53,492.41 248.41,493.69 244.31,495.12 240.19,496.66 237.53,497.75 236.06,498.41 231.97,500.34 227.84,502.34 224.72,503.88 223.72,504.56 219.62,507.59 216.53,510.06 215.5,511.03 211.41,515.09 210.16,516.28 207.28,519.44 204.03,522.59 203.16,523.41 199.06,526.78 195.69,528.97 194.94,529.47 190.81,532.19 186.72,535.03 186.16,535.38 182.59,537.94 178.47,540.62 176.41,541.91 174.38,543.19 170.25,545.59 166.12,547.69 164.38,548.47 162.03,549.5 157.91,551 153.78,552.44 149.69,553.47 145.56,554.06 141.44,554.25 137.34,553.59 133.22,552.47 129.12,550.97 125,549.19 123.25,548.47 120.88,547.56 116.78,546.12 112.66,544.81 108.53,543.53 104.44,542.22 103.62,541.91 100.31,540.5 96.188,538.22 92.531,535.38 92.094,535 87.969,530.38 86.875,528.97 83.844,525.78 80.688,522.59 79.75,521.72 75.625,518.25 72.469,516.28 71.5,515.69 67.406,513.03 63.281,510.06 59.188,506.56 56,503.88 55.062,502.78 50.938,498.09 50.656,497.75 46.844,493.38 45.281,491.69 42.719,489.06 38.656,485.69 38.594,485.66 34.5,482.88 30.375,480.25 29.625,479.75 26.25,477.66 22.156,474.69 21,473.84 18.031,471.75 " stroke="red" stroke-width="0.96875" stroke-linecap="round" stroke-linejoin="round" />
<polyline points="279.06,483.91 279.94,483.03 281.69,483.03 282.56,483.91 282.56,485.66 281.69,486.53 279.06,486.53 279.06,488.28 282.56,488.28 " stroke="red" stroke-width="0.71875" stroke-linecap="round" stroke-linejoin="round" />
<polyline points="286.94,488.28 285.19,485.66 288.69,485.66 288.69,488.28 288.69,483.03 " stroke="red" stroke-width="0.71875" stroke-linecap="round" stroke-linejoin="round" />
<polyline points="294.81,487.41 293.94,488.28 292.19,488.28 291.31,487.41 291.31,483.91 292.19,483.03 293.94,483.03 294.81,483.91 294.81,484.78 293.94,485.66 291.31,485.66 " stroke="red" stroke-width="0.71875" stroke-linecap="round" stroke-linejoin="round" />
<polygon points="298.31,488.28 297.44,487.41 297.44,483.91 298.31,483.03 300.06,483.03 300.94,483.91 300.94,487.41 300.06,488.28 " stroke="red" stroke-width="0.71875" stroke-linejoin="round" />
<polyline points="594,554.25 589.88,554.41 585.78,554.62 581.66,554.91 579.22,555.12 577.53,555.25 573.44,555.59 569.31,556 565.19,556.5 561.09,557.03 556.97,557.56 552.88,558.09 548.75,558.62 544.62,559.12 540.53,559.56 536.41,559.97 532.28,560.22 528.19,560.41 524.06,560.53 519.94,560.62 515.84,560.78 511.72,560.84 507.59,560.81 503.5,560.62 499.38,560.16 495.25,559.5 491.16,558.62 487.03,557.56 482.91,556.25 479.81,555.12 478.81,554.72 474.69,553.06 470.56,551.31 466.47,549.53 464.16,548.47 462.34,547.62 458.25,545.62 454.12,543.53 450.47,541.91 450,541.69 445.91,539.75 441.78,537.62 437.94,535.38 437.66,535.22 433.56,532.16 429.81,528.97 429.44,528.66 425.31,524.91 422.91,522.59 421.22,521 417.09,517.28 415.97,516.28 412.97,513.84 408.88,510.66 408.06,510.06 404.75,507.72 400.62,504.78 399.31,503.88 396.53,501.94 392.41,499.22 390.06,497.75 388.31,496.66 384.19,494.5 380.06,492.53 378.19,491.69 375.97,490.66 371.84,488.97 367.72,487.56 363.62,486.31 361.31,485.69 359.5,485.16 355.38,484 351.28,482.59 347.16,481.16 343.03,479.75 343,479.75 338.94,478.16 334.81,476.56 330.69,475.19 326.59,474.03 325.75,473.84 322.47,473.03 318.34,472.44 314.25,471.97 311.25,471.66 " stroke="red" stroke-width="0.96875" stroke-linecap="round" stroke-linejoin="round" />
<polyline points="284.31,469.5 281.34,469.88 277.22,470.47 273.09,471.06 269,471.31 264.88,471.53 260.75,471.81 256.66,472.19 252.53,472.88 248.41,473.72 247.94,473.84 244.31,474.69 240.19,475.81 236.06,477.09 231.97,478.56 229.06,479.75 227.84,480.25 223.72,482.06 219.62,483.88 215.59,485.69 215.5,485.72 211.41,487.62 207.28,489.53 203.16,491.44 202.69,491.69 199.06,493.72 194.94,496.34 192.91,497.75 190.81,499.34 186.72,502.41 184.59,503.88 182.59,505.19 178.47,507.66 174.38,509.91 174.16,510.06 170.25,512.34 166.12,514.44 162.03,516.25 161.88,516.28 157.91,517.69 153.78,518.66 149.69,519.34 145.56,519.72 141.44,519.59 137.34,518.28 133.22,516.59 132.56,516.28 129.12,514.75 125,513 120.88,512.31 116.78,511.69 112.66,510.84 109.88,510.06 108.53,509.66 104.44,507.34 100.31,504.78 98.938,503.88 96.188,502.16 92.094,499.41 89.844,497.75 87.969,496.34 83.844,492.88 82.594,491.69 79.75,488.97 76.594,485.69 75.625,484.72 71.5,480.53 70.75,479.75 67.406,477.31 63.281,474.34 62.562,473.84 59.188,471.69 55.062,469.34 52.594,468 50.938,467.16 46.844,465.12 42.719,463.09 40.875,462.19 38.594,461.09 34.5,459 30.375,456.78 29.781,456.47 26.25,454.62 22.156,452.81 18.031,451.25 " stroke="red" stroke-width="0.96875" stroke-linecap="round" stroke-linejoin="round" />
<polyline points="287.28,468.09 288.16,467.22 289.91,467.22 290.78,468.09 290.78,469.84 289.91,470.72 287.28,470.72 287.28,472.47 290.78,472.47 " stroke="red" stroke-width="0.71875" stroke-linecap="round" stroke-linejoin="round" />
<polyline points="293.41,468.09 294.28,467.22 296.03,467.22 296.91,468.09 296.91,469.84 296.03,470.72 293.41,470.72 293.41,472.47 296.91,472.47 " stroke="red" stroke-width="0.71875" stroke-linecap="round" stroke-linejoin="round" />
<polyline points="299.53,471.59 300.41,472.47 302.16,472.47 303.03,471.59 303.03,470.72 299.53,467.22 303.03,467.22 " stroke="red" stroke-width="0.71875" stroke-linecap="round" stroke-linejoin="round" />
<polygon points="306.53,472.47 305.66,471.59 305.66,468.09 306.53,467.22 308.28,467.22 309.16,468.09 309.16,471.59 308.28,472.47 " stroke="red" stroke-width="0.71875" stroke-linejoin="round" />
<polyline points="594,520.97 591.69,522.59 589.88,523.62 585.78,525.78 581.66,527.41 577.53,528.91 577.38,528.97 573.44,530 569.31,531 565.19,531.78 561.09,532.53 556.97,533.19 552.88,533.78 548.75,534.38 544.62,534.88 540.53,535.31 539.31,535.38 536.41,535.59 532.28,535.59 528.19,535.53 524.81,535.38 524.06,535.38 519.94,535.12 515.84,535.09 511.72,535 507.59,534.78 503.5,534.41 499.38,533.66 495.25,532.75 491.16,531.69 487.03,530.5 482.91,529.31 481.78,528.97 478.81,528.06 474.69,526.69 470.56,525.19 466.47,523.31 465.03,522.59 462.34,521.22 458.25,519.06 454.12,516.84 452.84,516.28 450,515.03 445.91,513.09 441.78,511 440.12,510.06 437.66,508.62 433.56,505.59 431.31,503.88 429.44,502.47 425.31,499.47 422.91,497.75 421.22,496.62 417.09,494.12 412.97,491.69 408.88,489.28 404.75,486.91 402.84,485.69 400.62,484.28 396.53,481.72 393.19,479.75 392.41,479.25 388.31,476.88 384.19,474.75 382.31,473.84 380.06,472.75 375.97,470.88 371.84,469.12 368.75,468 367.72,467.59 363.62,466 359.5,464.38 355.38,462.75 353.97,462.19 351.28,461.16 347.16,459.69 343.03,458.41 338.94,457.34 334.81,456.47 330.69,455.59 326.59,454.75 322.47,453.94 319.5,453.28 " stroke="red" stroke-width="0.96875" stroke-linecap="round" stroke-linejoin="round" />
<polyline points="292.53,449.03 289.56,448.91 285.44,449.44 281.34,450.19 278.78,450.75 277.22,451.09 273.09,452.03 269,452.47 264.88,452.91 260.75,453.34 256.66,453.88 252.53,454.94 248.41,456.06 247.09,456.47 244.31,457.12 240.19,458.09 236.06,458.78 231.97,459.53 227.84,460.38 223.72,461.41 221.56,462.19 219.62,462.91 215.5,464.53 211.41,466.25 207.28,468 207.25,468 203.16,469.34 199.06,470.66 194.94,472 190.81,473.41 190.03,473.84 186.72,475.72 182.59,478.34 180.5,479.75 178.47,481.09 174.38,483.53 170.25,484.84 166.78,485.69 166.12,485.84 162.03,486.56 157.91,486.97 153.78,487.19 149.69,487.03 145.56,486.59 141.44,485.94 140.34,485.69 137.34,485.03 133.22,484.03 129.12,482.91 125,481.69 120.88,480.41 118.91,479.75 116.78,479 112.66,477.53 108.53,475.91 104.44,474.44 102.94,473.84 100.31,472.84 96.188,471.09 92.094,469.19 90,468 87.969,466.94 83.844,464.75 79.75,462.62 78.969,462.19 75.625,460.53 71.5,458.31 68.031,456.47 67.406,456.12 63.281,453.84 59.188,451.75 57.125,450.75 55.062,449.81 50.938,447.91 46.844,446 44.969,445.12 42.719,444.03 38.594,441.81 34.5,439.53 34.469,439.5 30.375,437.25 26.25,435.03 23.875,433.97 22.156,433.19 18.031,431.53 " stroke="red" stroke-width="0.96875" stroke-linecap="round" stroke-linejoin="round" />
<polyline points="295.53,449.09 296.41,448.22 298.16,448.22 299.03,449.09 299.03,450.84 298.16,451.72 295.53,451.72 295.53,453.47 299.03,453.47 " stroke="red" stroke-width="0.71875" stroke-linecap="round" stroke-linejoin="round" />
<polyline points="301.66,449.09 302.53,448.22 304.28,448.22 305.16,449.09 305.16,450.84 304.28,451.72 301.66,451.72 301.66,453.47 305.16,453.47 " stroke="red" stroke-width="0.71875" stroke-linecap="round" stroke-linejoin="round" />
<polygon points="308.66,453.47 307.78,452.59 307.78,451.72 308.66,450.84 310.41,450.84 311.28,451.72 311.28,452.59 310.41,453.47 " stroke="red" stroke-width="0.71875" stroke-linejoin="round" />
<polyline points="308.66,450.84 307.78,449.97 307.78,449.09 308.66,448.22 310.41,448.22 311.28,449.09 311.28,449.97 310.41,450.84 " stroke="red" stroke-width="0.71875" stroke-linecap="round" stroke-linejoin="round" />
<polygon points="314.78,453.47 313.91,452.59 313.91,449.09 314.78,448.22 316.53,448.22 317.41,449.09 317.41,452.59 316.53,453.47 " stroke="red" stroke-width="0.71875" stroke-linejoin="round" />
<polyline points="594,418.56 589.88,422.59 589.62,422.97 586.38,428.44 585.78,429.66 584.19,433.97 582.56,439.5 581.66,443.12 581.19,445.12 579.94,450.75 578.75,456.47 577.75,462.19 577.53,463.31 576.5,468 574.78,473.84 573.44,477.25 572.16,479.75 569.31,484.03 567.75,485.69 565.19,488.09 561.09,491.28 560.47,491.69 556.97,493.78 552.88,495.94 549.06,497.75 548.75,497.88 544.62,499.38 540.53,500.62 536.41,501.62 532.28,502.38 528.19,502.94 524.06,503.34 519.94,503.62 515.84,503.88 511.72,503.97 507.59,503.97 504.03,503.88 503.5,503.84 499.38,503.53 495.25,503.09 491.16,502.53 487.03,501.84 482.91,501.19 478.81,500.38 474.69,499.38 470.56,498.16 469.59,497.75 466.47,496.44 462.34,494.59 458.25,492.69 456.09,491.69 454.12,490.75 450,488.72 445.91,486.53 444.34,485.69 441.78,484.19 437.66,481.78 433.84,479.75 433.56,479.56 429.44,477.44 425.31,475.38 422.28,473.84 421.22,473.31 417.09,471.12 412.97,468.97 411.12,468 408.88,466.78 404.75,464.53 400.66,462.19 400.62,462.19 396.53,459.78 392.41,457.5 390.47,456.47 388.31,455.28 384.19,453.19 380.06,451.12 379.31,450.75 375.97,449.06 371.84,447 368.25,445.12 367.72,444.84 363.62,442.66 359.5,440.56 357.38,439.5 355.38,438.5 351.28,436.56 347.16,434.62 345.72,433.97 345,433.59 " stroke="red" stroke-width="0.96875" stroke-linecap="round" stroke-linejoin="round" />
<polyline points="322.69,424.16 322.47,424.09 318.34,423.03 318.12,422.97 314.25,422.09 310.12,421.31 306.03,420.69 301.91,420.19 297.78,419.91 293.69,419.81 289.56,419.91 285.44,420.22 281.34,420.69 277.22,421.28 273.09,422.03 269.5,422.97 269,423.09 264.88,424.19 260.75,425.41 256.66,426.72 252.53,427.97 251.09,428.44 248.41,429.31 244.31,430.78 240.19,432.41 236.06,433.56 234.5,433.97 231.97,434.44 227.84,435.19 223.72,436.03 219.62,437.44 215.5,439.06 214.44,439.5 211.41,440.72 207.28,442.41 203.16,443.91 199.81,445.12 199.06,445.38 194.94,446.72 190.81,448 186.72,449.06 182.59,450.06 179.53,450.75 178.47,451 174.38,451.91 170.25,452.97 166.12,453.94 162.03,454.78 157.91,455.44 153.78,455.91 149.69,456.19 145.56,456.31 141.44,456.22 137.34,455.91 133.22,455.44 129.12,454.81 125,454.06 120.88,453.22 116.78,452.34 112.66,451.41 110.09,450.75 108.53,450.41 104.44,449.34 100.31,448.19 96.188,446.91 92.094,445.53 90.969,445.12 87.969,443.97 83.844,442.25 79.75,440.41 77.781,439.5 75.625,438.53 71.5,436.94 67.406,435.44 63.281,433.97 63.219,433.97 59.188,432.5 55.062,430.84 50.938,429.12 49.438,428.44 46.844,427.25 42.719,425.28 38.594,423 38.531,422.97 34.5,420.69 30.375,418.44 28.656,417.53 26.25,416.28 22.156,414.44 18.031,412.62 " stroke="red" stroke-width="0.96875" stroke-linecap="round" stroke-linejoin="round" />
<polyline points="324.31,427.12 325.19,426.25 326.94,426.25 327.81,427.12 327.81,428.88 326.94,429.75 324.31,429.75 324.31,431.5 327.81,431.5 " stroke="red" stroke-width="0.71875" stroke-linecap="round" stroke-linejoin="round" />
<polyline points="333.94,430.62 333.06,431.5 331.31,431.5 330.44,430.62 330.44,427.12 331.31,426.25 333.06,426.25 333.94,427.12 333.94,428 333.06,428.88 330.44,428.88 " stroke="red" stroke-width="0.71875" stroke-linecap="round" stroke-linejoin="round" />
<polyline points="338.31,431.5 336.56,428.88 340.06,428.88 340.06,431.5 340.06,426.25 " stroke="red" stroke-width="0.71875" stroke-linecap="round" stroke-linejoin="round" />
<polygon points="343.56,431.5 342.69,430.62 342.69,427.12 343.56,426.25 345.31,426.25 346.19,427.12 346.19,430.62 345.31,431.5 " stroke="red" stroke-width="0.71875" stroke-linejoin="round" />
<polyline points="594,380.09 592.47,380.59 589.88,381.44 585.78,383.59 583.25,385.78 581.66,387.28 578.53,390.97 577.53,392.38 575.22,396.22 573.44,399.5 572.41,401.47 569.91,406.78 569.31,408.16 567.41,412.16 565.19,417.41 565.12,417.53 562.75,422.97 561.09,426.59 560.12,428.44 557,433.97 556.97,433.97 552.88,439.5 548.75,443.97 547.56,445.12 544.62,447.84 541.22,450.75 540.53,451.34 536.41,454.44 533.56,456.47 532.28,457.28 528.19,459.59 524.06,461.66 522.78,462.19 519.94,463.38 515.84,464.97 511.72,466.31 507.59,467.38 504.31,468 503.5,468.16 499.38,468.41 495.25,468.44 491.16,468.22 488.62,468 487.03,467.84 482.91,467.41 478.81,466.81 474.69,466.06 470.56,465.19 466.47,464.19 462.34,463.03 459.81,462.19 458.25,461.69 454.12,460.12 450,458.34 445.91,456.56 445.69,456.47 441.78,454.62 437.66,452.75 433.56,450.84 433.34,450.75 429.44,448.84 425.31,446.78 421.94,445.12 421.22,444.75 417.09,442.91 412.97,441.16 408.91,439.5 408.88,439.5 404.75,437.75 400.62,435.88 396.53,434.03 396.34,433.97 392.41,432.06 388.31,430.12 384.97,428.44 384.19,428.03 380.06,425.78 375.97,423.5 375,422.97 371.84,421.12 367.72,418.72 365.72,417.53 363.62,416.28 359.5,413.84 356.5,412.16 355.38,411.5 351.28,409.28 347.16,407.16 346.44,406.78 343.03,405.09 338.94,403.06 335.75,401.47 334.81,401 334.69,400.94 " stroke="red" stroke-width="0.96875" stroke-linecap="round" stroke-linejoin="round" />
<polyline points="316.16,391.47 315.09,390.97 314.25,390.56 310.12,388.72 306.03,386.97 302.44,385.78 301.91,385.59 297.78,384.34 293.69,383.19 289.56,382.03 285.47,380.59 285.44,380.59 281.34,379 277.22,377.31 273.09,375.62 272.34,375.47 269,374.88 264.88,374.66 260.75,374.81 256.66,375.34 256.12,375.47 252.53,376.34 248.41,377.62 244.31,379.19 241,380.59 240.19,380.97 236.06,382.41 231.97,384.12 228.72,385.78 227.84,386.25 223.72,388.91 221.09,390.97 219.62,392.16 215.5,395.12 213.81,396.22 211.41,397.56 207.28,399.62 203.88,401.47 203.16,401.88 199.06,404.25 194.94,406.78 194.91,406.78 190.81,409.38 186.72,411.88 186.25,412.16 182.59,414.12 178.47,416.25 175.81,417.53 174.38,418.19 170.25,420.25 166.12,422.16 164.25,422.97 162.03,423.88 157.91,425.31 153.78,426.34 149.69,427.16 145.56,427.78 141.44,428.25 138.28,428.44 137.34,428.5 133.22,428.59 129.12,428.59 125,428.44 124.75,428.44 120.88,428.31 116.78,428.03 112.66,427.62 108.53,426.97 104.44,425.91 100.31,424.66 96.188,423.22 95.5,422.97 92.094,421.69 87.969,420.5 83.844,419.41 79.75,418.41 76.094,417.53 75.625,417.44 71.5,416.19 67.406,414.84 63.281,413.38 60.062,412.16 59.188,411.78 55.062,410.09 50.938,408.41 47,406.78 46.844,406.72 42.719,404.97 38.594,403.03 35.156,401.47 34.5,401.19 30.375,399.31 26.25,397.53 22.875,396.22 22.156,395.91 18.031,394.19 " stroke="red" stroke-width="0.96875" stroke-linecap="round" stroke-linejoin="round" />
<polyline points="314.97,394.47 315.84,393.59 317.59,393.59 318.47,394.47 318.47,396.22 317.59,397.09 314.97,397.09 314.97,398.84 318.47,398.84 " stroke="red" stroke-width="0.71875" stroke-linecap="round" stroke-linejoin="round" />
<polyline points="321.09,398.84 324.59,398.84 322.84,393.59 " stroke="red" stroke-width="0.71875" stroke-linecap="round" stroke-linejoin="round" />
<polygon points="328.09,398.84 327.22,397.97 327.22,394.47 328.09,393.59 329.84,393.59 330.72,394.47 330.72,397.97 329.84,398.84 " stroke="red" stroke-width="0.71875" stroke-linejoin="round" />
<polygon points="334.22,398.84 333.34,397.97 333.34,394.47 334.22,393.59 335.97,393.59 336.84,394.47 336.84,397.97 335.97,398.84 " stroke="red" stroke-width="0.71875" stroke-linejoin="round" />
<polyline points="594,330.97 589.88,334.59 588.94,335.5 585.78,338.31 583.72,340.41 581.66,342.31 578.75,345.31 577.53,346.44 573.97,350.28 573.44,350.75 569.31,354.94 569.06,355.25 565.19,359.56 564.62,360.25 561.09,364.47 560.44,365.28 556.97,369.72 556.5,370.38 552.94,375.47 552.88,375.59 549.25,380.59 548.75,381.28 545.16,385.78 544.62,386.41 540.53,390.91 540.47,390.97 536.41,395.06 535.47,396.22 532.28,400.12 531.22,401.47 528.19,405.28 526.94,406.78 524.06,410.22 522.38,412.16 519.94,414.59 516.66,417.53 515.84,418.22 511.72,421.28 509.09,422.97 507.59,423.88 503.5,425.88 499.38,426.97 495.25,427.59 491.16,427.84 487.03,427.78 482.91,427.66 478.81,427.25 474.69,426.56 470.56,425.59 466.47,424.25 462.78,422.97 462.34,422.81 458.25,421.28 454.12,419.81 450,418.5 447.03,417.53 445.91,417.16 441.78,415.69 437.66,414.16 433.56,412.56 432.47,412.16 429.44,410.97 425.31,409.41 421.22,407.91 418.44,406.78 417.09,406.25 412.97,404.62 408.88,403 404.91,401.47 404.75,401.44 400.62,400 396.53,398.5 392.41,396.84 390.94,396.22 388.31,395.03 384.19,393.16 380.06,391.28 379.38,390.97 375.97,389.47 371.84,387.59 368.03,385.78 367.72,385.62 363.62,383.66 359.5,381.78 356.84,380.59 355.38,379.94 351.28,377.81 347.16,375.59 346.91,375.47 343.03,373.22 338.94,370.88 337.94,370.38 337.25,370.03 " stroke="red" stroke-width="0.96875" stroke-linecap="round" stroke-linejoin="round" />
<polyline points="318.47,360.56 318.34,360.5 317.88,360.25 314.25,358.38 310.12,356.44 307.41,355.25 306.03,354.62 301.91,353.09 297.78,351.69 293.69,350.31 293.53,350.28 289.56,348.72 285.44,346.78 282.03,345.31 281.34,345.03 277.22,343.47 273.09,342.28 269,341.66 264.88,341.38 260.75,341.38 256.66,341.72 252.53,342.44 248.41,343.38 244.31,344.44 240.94,345.31 240.19,345.5 236.06,346.28 231.97,347.03 227.84,347.81 223.72,348.72 219.62,350.22 219.47,350.28 215.5,352.34 211.41,354.91 210.88,355.25 207.28,357.91 203.94,360.25 203.16,360.81 199.06,363.75 196.88,365.28 194.94,366.66 190.81,369.53 189.69,370.38 186.72,372.59 182.94,375.47 182.59,375.72 178.47,378.97 176.47,380.59 174.38,382.31 170.53,385.78 170.25,386 166.12,389.56 164.34,390.97 162.03,392.69 157.91,395.31 155.59,396.22 153.78,396.88 149.69,398.03 145.56,398.91 141.44,399.53 137.34,400.25 133.22,400.78 129.12,401.09 125,401.16 120.88,400.59 116.78,399.78 112.66,398.78 108.53,397.75 104.44,397.25 100.31,396.81 96.188,396.38 94.875,396.22 92.094,395.84 87.969,394.81 83.844,393.53 79.75,392.03 77,390.97 75.625,390.47 71.5,389.34 67.406,388.22 63.281,387.12 59.188,385.97 58.562,385.78 55.062,384.59 50.938,383.09 46.844,381.47 44.781,380.59 42.719,379.66 38.594,377.72 34.5,375.75 33.844,375.47 30.375,373.75 26.25,371.81 22.938,370.38 22.156,370.03 18.031,368.34 " stroke="red" stroke-width="0.96875" stroke-linecap="round" stroke-linejoin="round" />
<polyline points="317.06,363.53 317.94,362.66 319.69,362.66 320.56,363.53 320.56,365.28 319.69,366.16 317.06,366.16 317.06,367.91 320.56,367.91 " stroke="red" stroke-width="0.71875" stroke-linecap="round" stroke-linejoin="round" />
<polyline points="323.19,367.91 326.69,367.91 324.94,362.66 " stroke="red" stroke-width="0.71875" stroke-linecap="round" stroke-linejoin="round" />
<polyline points="332.81,367.03 331.94,367.91 330.19,367.91 329.31,367.03 329.31,363.53 330.19,362.66 331.94,362.66 332.81,363.53 332.81,364.41 331.94,365.28 329.31,365.28 " stroke="red" stroke-width="0.71875" stroke-linecap="round" stroke-linejoin="round" />
<polygon points="336.31,367.91 335.44,367.03 335.44,363.53 336.31,362.66 338.06,362.66 338.94,363.53 338.94,367.03 338.06,367.91 " stroke="red" stroke-width="0.71875" stroke-linejoin="round" />
<polyline points="538.78,247 538.78,247.03 536.41,251.44 536.38,251.5 533.53,256 532.28,257.5 529.94,260.5 528.19,262.81 526.56,265.03 524.06,268.75 523.53,269.59 520.81,274.16 519.94,275.97 518.62,278.75 516.5,283.34 515.84,284.81 514.31,287.97 512.06,292.62 511.72,293.22 509.25,297.31 507.59,300.22 506.59,302 504.16,306.72 503.5,308.25 502.25,311.44 501.38,316.22 500.69,321 500.03,325.81 499.38,330.62 499.38,330.66 499.06,335.5 498.53,340.41 497.44,345.31 495.53,350.28 495.25,350.59 491.16,354.34 489.38,355.25 487.03,356.12 482.91,355.66 481.38,355.25 478.81,354.56 474.69,353.38 470.56,352.47 466.47,352.47 462.34,352.56 458.25,352.69 454.12,352.81 450,352.88 445.91,352.91 441.78,352.88 437.66,352.81 433.56,352.53 429.44,352.19 425.31,351.88 421.22,351.66 417.09,352.19 412.97,352.66 408.88,352.94 404.75,352.94 400.62,352.34 396.53,351.53 392.41,350.53 391.53,350.28 388.31,349.16 384.19,347.28 380.06,345.31 375.97,343.09 371.84,341 370.31,340.41 367.72,339.28 363.62,337.53 359.5,335.78 358.91,335.5 355.38,333.75 351.28,331.41 349.97,330.66 347.16,328.91 343.03,326.44 341.94,325.81 338.94,324 334.81,322.16 331.97,321 330.69,320.47 326.59,318.88 322.47,317.44 319.5,316.34 " stroke="red" stroke-width="0.96875" stroke-linecap="round" stroke-linejoin="round" />
<polyline points="292.53,308.5 289.56,307.81 285.44,307.06 283.12,306.72 281.34,306.41 277.22,305.84 273.09,305.44 269,305.12 264.88,305 260.75,305.06 256.66,305.38 252.53,306 249.22,306.72 248.41,306.84 244.31,307.88 240.19,309.12 236.06,310.88 234.94,311.44 231.97,312.94 227.84,315.44 226.72,316.22 223.72,318.12 219.62,320.06 217.5,321 215.5,321.75 211.41,323.25 207.28,324.75 205.25,325.81 203.16,326.81 199.06,329 196.22,330.66 194.94,331.34 190.81,333.88 188.5,335.5 186.72,336.78 182.59,340 182.12,340.41 178.47,343.38 176.16,345.31 174.38,346.78 170.25,349.72 169.41,350.28 166.12,352.31 162.03,354.97 161.56,355.25 157.91,357.59 153.78,360.22 153.75,360.25 149.69,362.5 145.56,364.47 143.41,365.28 141.44,365.97 137.34,366.62 133.22,366.94 129.12,366.94 125,366.78 120.88,366.81 116.78,366.75 112.66,366.53 108.53,366.19 104.44,365.53 103.12,365.28 100.31,364.72 96.188,363.81 92.094,362.91 87.969,362.25 83.844,361.56 79.75,360.84 76.656,360.25 75.625,360.06 71.5,359.09 67.406,358.06 63.281,356.94 59.188,355.72 57.875,355.25 55.062,354.19 50.938,352.53 46.844,350.81 45.562,350.28 42.719,348.94 38.594,346.97 35.188,345.31 34.5,344.97 30.375,342.84 26.25,340.72 25.719,340.41 22.156,338.34 18.031,336 " stroke="red" stroke-width="0.96875" stroke-linecap="round" stroke-linejoin="round" />
<polyline points="295.53,310.59 296.41,309.72 298.16,309.72 299.03,310.59 299.03,312.34 298.16,313.22 295.53,313.22 295.53,314.97 299.03,314.97 " stroke="red" stroke-width="0.71875" stroke-linecap="round" stroke-linejoin="round" />
<polygon points="302.53,314.97 301.66,314.09 301.66,313.22 302.53,312.34 304.28,312.34 305.16,313.22 305.16,314.09 304.28,314.97 " stroke="red" stroke-width="0.71875" stroke-linejoin="round" />
<polyline points="302.53,312.34 301.66,311.47 301.66,310.59 302.53,309.72 304.28,309.72 305.16,310.59 305.16,311.47 304.28,312.34 " stroke="red" stroke-width="0.71875" stroke-linecap="round" stroke-linejoin="round" />
<polyline points="307.78,314.09 308.66,314.97 310.41,314.97 311.28,314.09 311.28,313.22 307.78,309.72 311.28,309.72 " stroke="red" stroke-width="0.71875" stroke-linecap="round" stroke-linejoin="round" />
<polygon points="314.78,314.97 313.91,314.09 313.91,310.59 314.78,309.72 316.53,309.72 317.41,310.59 317.41,314.09 316.53,314.97 " stroke="red" stroke-width="0.71875" stroke-linejoin="round" />
<polyline points="28.094,247 28.094,247.19 31.594,247.19 " stroke="red" stroke-width="0.71875" stroke-linecap="round" stroke-linejoin="round" />
<line x1="35.094" y1="247.19" x2="34.906" y2="247" stroke="red" stroke-width="0.71875" stroke-linecap="round" />
<polyline points="37.031,247 36.844,247.19 35.094,247.19 " stroke="red" stroke-width="0.71875" stroke-linecap="round" stroke-linejoin="round" />
<line x1="41.219" y1="247.19" x2="41.031" y2="247" stroke="red" stroke-width="0.71875" stroke-linecap="round" />
<polyline points="43.156,247 42.969,247.19 41.219,247.19 " stroke="red" stroke-width="0.71875" stroke-linecap="round" stroke-linejoin="round" />
<line x1="47.344" y1="247.19" x2="47.156" y2="247" stroke="red" stroke-width="0.71875" stroke-linecap="round" />
<polyline points="49.281,247 49.094,247.19 47.344,247.19 " stroke="red" stroke-width="0.71875" stroke-linecap="round" stroke-linejoin="round" />
<polyline points="158.28,247 158.28,247.03 158.94,251.5 159.19,256 159.38,260.5 159.16,265.03 158.56,269.59 157.91,272.72 157.66,274.16 156.53,278.75 154.38,283.34 153.78,284.16 150.5,287.97 149.69,288.66 145.56,291.62 143.97,292.62 141.44,294.22 137.34,297.09 137.03,297.31 133.22,299.53 129.12,301.78 128.62,302 125,303.41 120.88,304.84 117.91,305.56 " stroke="red" stroke-width="0.96875" stroke-linecap="round" stroke-linejoin="round" />
<polyline points="90.938,302.5 89.75,302 87.969,301.06 83.844,298.5 82.125,297.31 79.75,295.25 76.75,292.62 75.625,291.75 71.5,290.44 67.406,289.53 63.281,289 59.188,288.72 55.062,288.81 50.938,288.88 46.844,288.78 42.719,288.44 41.219,287.97 38.594,287.19 34.5,285.91 30.375,284.69 26.25,283.47 26.031,283.34 22.156,281.22 18.031,278.97 " stroke="red" stroke-width="0.96875" stroke-linecap="round" stroke-linejoin="round" />
<polyline points="93.938,304.31 94.812,303.44 96.562,303.44 97.438,304.31 97.438,306.06 96.562,306.94 93.938,306.94 93.938,308.69 97.438,308.69 " stroke="red" stroke-width="0.71875" stroke-linecap="round" stroke-linejoin="round" />
<polygon points="100.94,308.69 100.06,307.81 100.06,306.94 100.94,306.06 102.69,306.06 103.56,306.94 103.56,307.81 102.69,308.69 " stroke="red" stroke-width="0.71875" stroke-linejoin="round" />
<polyline points="100.94,306.06 100.06,305.19 100.06,304.31 100.94,303.44 102.69,303.44 103.56,304.31 103.56,305.19 102.69,306.06 " stroke="red" stroke-width="0.71875" stroke-linecap="round" stroke-linejoin="round" />
<polygon points="107.06,308.69 106.19,307.81 106.19,306.94 107.06,306.06 108.81,306.06 109.69,306.94 109.69,307.81 108.81,308.69 " stroke="red" stroke-width="0.71875" stroke-linejoin="round" />
<polyline points="107.06,306.06 106.19,305.19 106.19,304.31 107.06,303.44 108.81,303.44 109.69,304.31 109.69,305.19 108.81,306.06 " stroke="red" stroke-width="0.71875" stroke-linecap="round" stroke-linejoin="round" />
<polygon points="113.19,308.69 112.31,307.81 112.31,304.31 113.19,303.44 114.94,303.44 115.81,304.31 115.81,307.81 114.94,308.69 " stroke="red" stroke-width="0.71875" stroke-linejoin="round" />
</g>
</svg>
