<?xml version="1.0" encoding="ISO-8859-1" standalone="no"?>
<!DOCTYPE svg PUBLIC "-//W3C//DTD SVG 1.1//EN" "http://www.w3.org/Graphics/SVG/1.1/DTD/svg11.dtd">
<svg version="1.1" baseProfile="full" id="body" width="900px" height="600px" viewBox="0 0.2 1 0.55" preserveAspectRatio="none" xmlns="http://www.w3.org/2000/svg" xmlns:xlink="http://www.w3.org/1999/xlink" xmlns:ev="http://www.w3.org/2001/xml-events">
<title>SVG drawing</title>
<desc>This was produced by version 4.2 of GNU libplot, a free library for exporting 2-D vector graphics.</desc>
<rect id="background" x="0" y="0" width="1" height="1" stroke="none" fill="none"/>
<g id="content" transform="translate(-0.03125,1.1875) scale(1,-1) scale(0.0017361) " xml:space="preserve" stroke="black" stroke-linecap="butt" stroke-linejoin="miter" stroke-miterlimit="10.433" stroke-dasharray="none" stroke-dashoffset="0" stroke-opacity="1" fill="none" fill-rule="even-odd" fill-opacity="1" font-style="normal" font-variant="normal" font-weight="normal" font-stretch="normal" font-size-adjust="none" letter-spacing="normal" word-spacing="normal" text-anchor="start">
<polyline points="190.97,568.66 191,568.62 194.94,565.91 199.06,563.25 201.38,561.84 203.16,560.84 207.28,558.72 211.41,556.47 214.09,555.12 215.5,554.5 219.62,552.94 223.72,551.69 227.84,551.09 231.97,550.78 236.06,550.69 240.19,550.78 244.31,551.12 248.41,551.56 252.53,552 255.5,552.22 " stroke="red" stroke-width="0.96875" stroke-linecap="round" stroke-linejoin="round" />
<polyline points="282.47,548.22 285.44,547.88 289.56,547.62 293.69,547.53 297.78,547.66 301.91,548 305,548.47 306.03,548.62 310.12,549.94 314.25,551.59 318.34,553.5 321.41,555.12 322.47,555.81 326.59,558.53 330.69,561.19 331.69,561.84 334.81,563.84 338.94,566.41 342.41,568.62 342.47,568.66 " stroke="red" stroke-width="0.96875" stroke-linecap="round" stroke-linejoin="round" />
<polyline points="258.5,548.91 259.38,548.03 261.12,548.03 262,548.91 262,550.66 261.12,551.53 258.5,551.53 258.5,553.28 262,553.28 " stroke="red" stroke-width="0.71875" stroke-linecap="round" stroke-linejoin="round" />
<polyline points="264.62,552.41 265.5,553.28 267.25,553.28 268.12,552.41 268.12,551.53 264.62,548.03 268.12,548.03 " stroke="red" stroke-width="0.71875" stroke-linecap="round" stroke-linejoin="round" />
<polygon points="271.62,553.28 270.75,552.41 270.75,551.53 271.62,550.66 273.38,550.66 274.25,551.53 274.25,552.41 273.38,553.28 " stroke="red" stroke-width="0.71875" stroke-linejoin="round" />
<polyline points="271.62,550.66 270.75,549.78 270.75,548.91 271.62,548.03 273.38,548.03 274.25,548.91 274.25,549.78 273.38,550.66 " stroke="red" stroke-width="0.71875" stroke-linecap="round" stroke-linejoin="round" />
<polygon points="277.75,553.28 276.88,552.41 276.88,548.91 277.75,548.03 279.5,548.03 280.38,548.91 280.38,552.41 279.5,553.28 " stroke="red" stroke-width="0.71875" stroke-linejoin="round" />
<polyline points="547.62,568.66 547.62,568.62 548.75,565.78 550.28,561.84 552.88,555.31 552.94,555.12 555.66,548.47 556.97,545.5 559.03,541.91 560.16,540.12 " stroke="red" stroke-width="0.96875" stroke-linecap="round" stroke-linejoin="round" />
<polyline points="577.75,533.06 581.66,534.78 582.53,535.38 585.78,537.44 589.88,540.69 591.09,541.91 594,544.72 " stroke="red" stroke-width="0.96875" stroke-linecap="round" stroke-linejoin="round" />
<polyline points="553.78,533.62 554.66,532.75 556.41,532.75 557.28,533.62 557.28,535.38 556.41,536.25 553.78,536.25 553.78,538 557.28,538 " stroke="red" stroke-width="0.71875" stroke-linecap="round" stroke-linejoin="round" />
<polyline points="559.91,537.12 560.78,538 562.53,538 563.41,537.12 563.41,536.25 559.91,532.75 563.41,532.75 " stroke="red" stroke-width="0.71875" stroke-linecap="round" stroke-linejoin="round" />
<polygon points="566.91,538 566.03,537.12 566.03,536.25 566.91,535.38 568.66,535.38 569.53,536.25 569.53,537.12 568.66,538 " stroke="red" stroke-width="0.71875" stroke-linejoin="round" />
<polyline points="566.91,535.38 566.03,534.5 566.03,533.62 566.91,532.75 568.66,532.75 569.53,533.62 569.53,534.5 568.66,535.38 " stroke="red" stroke-width="0.71875" stroke-linecap="round" stroke-linejoin="round" />
<polygon points="573.03,538 572.16,537.12 572.16,533.62 573.03,532.75 574.78,532.75 575.66,533.62 575.66,537.12 574.78,538 " stroke="red" stroke-width="0.71875" stroke-linejoin="round" />
<polyline points="373,568.66 372.94,568.62 371.84,567.97 367.72,565.69 363.62,563.53 360.19,561.84 359.5,561.5 355.38,559.38 351.28,556.81 348.53,555.12 347.16,554.22 343.03,551.62 338.94,549.19 337.72,548.47 334.81,546.78 330.69,544.53 326.59,542.5 325.31,541.91 322.47,540.62 318.34,539 314.25,537.59 310.12,536.34 306.56,535.38 306.03,535.25 301.91,534.25 297.78,533.31 293.69,532.38 289.56,531.53 285.44,530.78 281.34,530.12 277.22,529.53 273.09,529.09 269.72,528.97 269,528.94 264.88,528.91 263.22,528.97 260.75,529.03 256.66,529.28 252.53,529.47 248.41,529.75 244.31,530.09 240.19,530.53 236.06,531.16 231.97,531.81 227.84,532.53 223.72,533.34 220.75,533.97 " stroke="red" stroke-width="0.96875" stroke-linecap="round" stroke-linejoin="round" />
<polyline points="193.81,542 190.81,543.03 186.72,544.47 182.59,545.94 178.47,547.44 175.72,548.47 174.38,549 170.25,550.75 166.12,552.5 162.03,554.25 159.97,555.12 157.91,556.03 153.78,557.59 149.69,559.06 145.56,560.44 141.44,561.75 141.12,561.84 137.34,562.94 133.22,564.03 129.12,565.06 125,566 120.88,566.62 116.78,567.16 112.66,567.59 108.53,568.03 106.12,568.62 106,568.66 " stroke="red" stroke-width="0.96875" stroke-linecap="round" stroke-linejoin="round" />
<polyline points="75.969,568.66 75.875,568.62 75.625,568.53 71.5,566.44 67.406,563.81 64.688,561.84 63.281,560.78 59.188,557.62 55.75,555.12 55.062,554.62 50.938,551.88 46.844,549.22 45.656,548.47 42.719,546.69 38.594,544.25 34.5,541.91 34.469,541.91 30.375,539.84 26.25,538 22.156,536.66 18.031,535.59 " stroke="red" stroke-width="0.96875" stroke-linecap="round" stroke-linejoin="round" />
<polyline points="196.78,535.84 197.66,534.97 199.41,534.97 200.28,535.84 200.28,537.59 199.41,538.47 196.78,538.47 196.78,540.22 200.28,540.22 " stroke="red" stroke-width="0.71875" stroke-linecap="round" stroke-linejoin="round" />
<polyline points="202.91,539.34 203.78,540.22 205.53,540.22 206.41,539.34 206.41,538.47 205.53,537.59 204.66,537.59 205.53,537.59 206.41,536.72 206.41,535.84 205.53,534.97 203.78,534.97 202.91,535.84 " stroke="red" stroke-width="0.71875" stroke-linecap="round" stroke-linejoin="round" />
<polyline points="210.78,540.22 209.03,537.59 212.53,537.59 212.53,540.22 212.53,534.97 " stroke="red" stroke-width="0.71875" stroke-linecap="round" stroke-linejoin="round" />
<polygon points="216.03,540.22 215.16,539.34 215.16,535.84 216.03,534.97 217.78,534.97 218.66,535.84 218.66,539.34 217.78,540.22 " stroke="red" stroke-width="0.71875" stroke-linejoin="round" />
<polyline points="512.12,568.66 512.12,568.62 515.38,561.84 515.84,560.88 518.5,555.12 519.94,552.03 521.97,548.47 524.06,544.75 525.72,541.91 528.19,537.66 529.5,535.38 532.28,530.41 533.09,528.97 536.19,522.59 536.41,522.12 538.66,516.28 540.53,511.72 541.22,510.06 541.88,508.59 " stroke="red" stroke-width="0.96875" stroke-linecap="round" stroke-linejoin="round" />
<polyline points="546.31,499.16 547,497.75 548.75,494.72 550.91,491.69 552.88,489.25 556.97,486.16 557.97,485.69 561.09,484.38 565.19,483.56 569.31,483.53 573.44,483.66 577.53,484.53 580.34,485.69 581.66,486.25 585.78,489.06 588.69,491.69 589.88,492.84 593.88,497.75 594,497.91 " stroke="red" stroke-width="0.96875" stroke-linecap="round" stroke-linejoin="round" />
<polyline points="533.5,502.12 534.38,501.25 536.12,501.25 537,502.12 537,503.88 536.12,504.75 533.5,504.75 533.5,506.5 537,506.5 " stroke="red" stroke-width="0.71875" stroke-linecap="round" stroke-linejoin="round" />
<polyline points="539.62,505.62 540.5,506.5 542.25,506.5 543.12,505.62 543.12,504.75 542.25,503.88 541.38,503.88 542.25,503.88 543.12,503 543.12,502.12 542.25,501.25 540.5,501.25 539.62,502.12 " stroke="red" stroke-width="0.71875" stroke-linecap="round" stroke-linejoin="round" />
<polyline points="547.5,506.5 545.75,503.88 549.25,503.88 549.25,506.5 549.25,501.25 " stroke="red" stroke-width="0.71875" stroke-linecap="round" stroke-linejoin="round" />
<polygon points="552.75,506.5 551.88,505.62 551.88,502.12 552.75,501.25 554.5,501.25 555.38,502.12 555.38,505.62 554.5,506.5 " stroke="red" stroke-width="0.71875" stroke-linejoin="round" />
<polyline points="594,468.59 593.5,468 589.88,463.84 588.22,462.19 585.78,459.97 581.66,457.25 579.94,456.47 577.53,455.47 573.44,454.25 569.31,453.53 565.19,452.84 561.09,452.88 556.97,453.56 552.88,454.97 550.25,456.47 548.75,457.44 544.62,460.75 543.12,462.19 540.53,465 538,468 536.41,470.16 533.91,473.84 532.28,476.41 530.22,479.75 528.19,483.19 526.66,485.69 524.06,490.06 523.09,491.69 519.94,497 519.56,497.75 516.72,503.88 515.84,506.06 514.25,510.06 511.84,516.28 511.72,516.59 509.31,522.59 507.59,526.59 506.53,528.97 503.5,534.88 503.19,535.38 499.38,541.69 499.25,541.91 495.25,547.81 494.78,548.47 491.16,553.19 489.41,555.12 487.03,557.56 482.91,560.59 480.81,561.84 478.81,562.94 474.69,564.72 470.56,566.03 466.47,566.81 462.34,567.28 458.25,567.47 454.12,567.44 450,567.44 445.91,567.31 441.78,567.03 437.66,566.66 433.56,566.25 429.44,565.75 425.31,565.09 421.22,564.31 417.09,563.38 412.97,562.38 411.06,561.84 408.88,561.22 404.75,559.97 400.62,558.62 396.53,557.16 392.41,555.62 391.19,555.12 388.31,553.88 384.19,551.91 380.06,550 376.75,548.47 375.97,548.12 371.84,546.28 367.72,544.59 363.62,542.84 361.53,541.91 359.5,540.94 355.38,538.88 353.84,538.16 " stroke="red" stroke-width="0.96875" stroke-linecap="round" stroke-linejoin="round" />
<polyline points="330.56,528.72 326.59,527.16 322.47,525.72 318.34,524.41 314.25,523.12 312.44,522.59 310.12,521.84 306.03,520.59 301.91,519.34 297.78,518.19 293.69,517.16 289.56,516.28 285.44,515.56 281.34,515 277.22,514.53 273.09,514.12 269,513.81 264.88,513.53 260.75,513.34 256.66,513.25 252.53,513.28 248.41,513.41 244.31,513.62 240.19,513.94 236.06,514.41 231.97,514.94 227.84,515.53 223.72,516.19 222.97,516.28 219.62,516.78 215.5,517.41 211.41,518.06 207.28,518.75 203.16,519.47 199.06,520.22 194.94,520.97 190.81,521.72 186.72,522.34 184.94,522.59 182.59,522.94 178.47,523.47 174.38,523.97 170.25,524.5 166.12,524.94 162.03,525.28 157.91,525.47 153.78,525.22 149.69,524.84 145.56,524.38 141.44,523.84 137.34,523.53 133.22,523.28 129.12,523.06 125,522.88 120.88,523.12 116.78,523.31 112.66,523.28 108.53,522.81 108.12,522.59 104.44,520.84 100.31,518.66 96.188,516.5 95.781,516.28 92.094,514.62 87.969,513.09 83.844,511.59 79.75,510.09 79.594,510.06 75.625,508.69 71.5,507.44 67.406,506.19 63.281,504.84 60.406,503.88 59.188,503.5 55.062,502.03 50.938,500.53 46.844,499 43.438,497.75 42.719,497.5 38.594,496.22 34.5,495 30.375,493.81 26.25,492.69 22.219,491.69 22.156,491.69 18.031,490.81 " stroke="red" stroke-width="0.96875" stroke-linecap="round" stroke-linejoin="round" />
<polyline points="332.53,531.69 333.41,530.81 335.16,530.81 336.03,531.69 336.03,533.44 335.16,534.31 332.53,534.31 332.53,536.06 336.03,536.06 " stroke="red" stroke-width="0.71875" stroke-linecap="round" stroke-linejoin="round" />
<polyline points="340.41,536.06 338.66,533.44 342.16,533.44 342.16,536.06 342.16,530.81 " stroke="red" stroke-width="0.71875" stroke-linecap="round" stroke-linejoin="round" />
<polygon points="345.66,536.06 344.78,535.19 344.78,531.69 345.66,530.81 347.41,530.81 348.28,531.69 348.28,535.19 347.41,536.06 " stroke="red" stroke-width="0.71875" stroke-linejoin="round" />
<polygon points="351.78,536.06 350.91,535.19 350.91,531.69 351.78,530.81 353.53,530.81 354.41,531.69 354.41,535.19 353.53,536.06 " stroke="red" stroke-width="0.71875" stroke-linejoin="round" />
<polyline points="594,449.94 589.88,446.19 588.47,445.12 585.78,443.12 581.66,440.34 580.31,439.5 577.53,437.88 573.44,435.78 569.31,434.09 568.41,433.97 565.19,433.59 561.09,433.62 558.41,433.97 556.97,434.19 552.88,435.47 548.75,437.41 545.09,439.5 544.62,439.81 540.53,442.78 537.56,445.12 536.41,446.12 532.28,449.97 531.5,450.75 528.19,454.44 526.44,456.47 524.06,459.59 522.09,462.19 519.94,465.22 517.94,468 515.84,471.12 514,473.84 511.72,477.44 510.22,479.75 507.59,484.22 506.72,485.69 503.5,491.5 503.38,491.69 499.72,497.75 499.38,498.38 496.06,503.88 495.25,505.16 491.88,510.06 491.16,511.03 487.03,516.03 486.75,516.28 482.91,519.78 479.38,522.59 478.81,523.03 474.69,525.84 470.56,528.28 469.31,528.97 466.47,530.38 462.34,532.03 458.25,533.28 454.12,534.22 450,534.94 446.59,535.38 445.91,535.47 441.78,535.84 437.66,536.09 433.56,536.34 429.44,536.47 425.31,536.41 421.22,536.12 417.38,535.38 417.09,535.34 412.97,534.31 408.88,533.16 404.75,531.91 400.62,530.94 396.53,530 392.41,529.06 391.94,528.97 388.31,528.16 384.19,527.16 380.06,526.06 375.97,524.81 371.84,523.38 370.03,522.59 367.72,521.56 363.62,519.75 359.59,518.09 " stroke="red" stroke-width="0.96875" stroke-linecap="round" stroke-linejoin="round" />
<polyline points="333.69,508.94 330.69,508.19 326.59,507.28 322.47,506.41 318.34,505.28 314.25,504.19 313.06,503.88 310.12,503.06 306.03,502.06 301.91,501.31 297.78,500.66 293.69,500.09 289.56,499.59 285.44,499.28 281.34,499 277.22,498.75 273.09,498.5 269,498.09 265.62,497.75 264.88,497.66 260.75,497.28 256.66,496.94 252.53,496.75 248.41,496.69 244.31,496.69 240.19,496.78 236.06,497.06 231.97,497.38 227.84,497.72 227.56,497.75 223.72,498.06 219.62,498.34 215.5,498.62 211.41,498.88 207.28,499.09 203.16,499.28 199.06,499.41 194.94,499.5 190.81,499.56 186.72,499.59 182.59,499.56 178.47,499.47 174.38,499.31 170.25,499.06 166.12,498.69 162.03,498.19 159.12,497.75 157.91,497.56 153.78,496.84 149.69,496.03 145.56,495.19 141.44,494.25 137.34,493.19 133.22,492.09 131.72,491.69 129.12,491.03 125,489.97 120.88,488.94 116.78,487.88 112.66,486.81 108.53,485.75 108.19,485.69 104.44,485.03 100.31,484.31 96.188,483.53 92.094,482.62 87.969,480.94 85.281,479.75 83.844,479.22 79.75,477.72 75.625,476.34 71.5,475.78 67.406,475.44 63.281,475.12 59.188,474.78 55.062,473.91 54.75,473.84 50.938,473 46.844,472.09 42.719,471.25 38.594,470.53 34.5,469.94 30.375,469.47 26.25,469.12 22.156,468.97 18.031,468.94 " stroke="red" stroke-width="0.96875" stroke-linecap="round" stroke-linejoin="round" />
<polyline points="336.66,511.62 337.53,510.75 339.28,510.75 340.16,511.62 340.16,513.38 339.28,514.25 336.66,514.25 336.66,516 340.16,516 " stroke="red" stroke-width="0.71875" stroke-linecap="round" stroke-linejoin="round" />
<polyline points="344.53,516 342.78,513.38 346.28,513.38 346.28,516 346.28,510.75 " stroke="red" stroke-width="0.71875" stroke-linecap="round" stroke-linejoin="round" />
<polyline points="352.41,515.12 351.53,516 349.78,516 348.91,515.12 348.91,511.62 349.78,510.75 351.53,510.75 352.41,511.62 352.41,512.5 351.53,513.38 348.91,513.38 " stroke="red" stroke-width="0.71875" stroke-linecap="round" stroke-linejoin="round" />
<polygon points="355.91,516 355.03,515.12 355.03,511.62 355.91,510.75 357.66,510.75 358.53,511.62 358.53,515.12 357.66,516 " stroke="red" stroke-width="0.71875" stroke-linejoin="round" />
<polyline points="594,435.56 592,433.97 589.88,432.28 585.78,429.62 583.78,428.44 581.66,427.25 577.53,425.34 573.44,423.84 570.09,422.97 569.31,422.78 565.19,422.31 561.09,422.22 556.97,422.44 553.31,422.97 552.88,423.03 548.75,424.09 544.62,425.53 540.53,427.34 538.47,428.44 536.41,429.59 532.28,432.12 529.62,433.97 528.19,435.09 524.06,438.53 522.97,439.5 519.94,442.41 517.12,445.12 515.84,446.44 511.75,450.75 511.72,450.78 507.59,455.5 506.75,456.47 503.5,460.38 501.78,462.19 499.38,464.88 496.34,468 495.25,469.12 491.16,473.12 490.34,473.84 487.03,476.94 483.97,479.75 482.91,480.88 478.81,484.88 477.88,485.69 474.69,488.38 470.56,491.38 470.12,491.69 466.47,494.28 462.34,496.97 461.03,497.75 458.25,499.38 454.12,501.5 450,503.19 447.91,503.88 445.91,504.5 441.78,505.5 437.66,506.22 433.56,506.72 429.44,506.97 425.31,507 421.22,506.84 417.09,506.41 412.97,505.88 408.88,505.28 404.75,504.66 400.62,504.25 397.59,503.88 396.53,503.75 392.41,503.09 388.31,502.25 384.19,501.03 380.06,499.72 375.97,498.41 373.88,497.75 371.84,497.12 367.72,496 363.62,494.84 359.5,493.59 355.38,492.19 354.22,491.69 351.41,490.41 " stroke="red" stroke-width="0.96875" stroke-linecap="round" stroke-linejoin="round" />
<polyline points="327.47,481.44 326.59,481.22 322.47,480.34 318.34,479.97 314.25,479.75 313.25,479.75 310.12,479.66 306.03,479.53 301.91,479.06 297.78,478.59 293.69,478.12 289.56,477.72 285.44,477.62 281.34,477.66 277.22,477.69 273.09,477.69 269,477.47 264.88,477.22 260.75,476.94 256.66,476.69 252.53,476.47 248.41,476.31 244.31,476.19 240.19,476.09 236.06,476.19 231.97,476.28 227.84,476.38 223.72,476.44 219.62,476.31 215.5,476.12 211.41,475.84 207.28,475.53 203.16,475 199.06,474.44 194.94,473.88 194.53,473.84 190.81,473.41 186.72,473.62 184.09,473.84 182.59,473.94 178.47,474.22 174.38,474.31 171.03,473.84 170.25,473.72 166.12,473 162.03,472.19 157.91,471.38 153.78,470.66 149.69,469.91 145.56,469.12 141.44,468.38 137.78,468 137.34,467.94 133.22,467.56 129.12,467.16 125,466.69 120.88,465.78 116.78,464.81 112.66,463.88 108.53,463.03 104.44,462.81 100.31,462.66 96.188,462.44 93.531,462.19 92.094,462.06 87.969,460.91 83.844,459.62 79.75,458.38 75.625,457.22 71.5,456.66 69.5,456.47 67.406,456.25 63.281,455.94 59.188,455.66 55.062,455.22 50.938,454.81 46.844,454.47 42.719,454.19 38.594,454 34.5,453.88 30.375,453.91 26.25,454.06 22.156,454.41 18.031,454.94 " stroke="red" stroke-width="0.96875" stroke-linecap="round" stroke-linejoin="round" />
<polyline points="330.47,483.94 331.34,483.06 333.09,483.06 333.97,483.94 333.97,485.69 333.09,486.56 330.47,486.56 330.47,488.31 333.97,488.31 " stroke="red" stroke-width="0.71875" stroke-linecap="round" stroke-linejoin="round" />
<polyline points="336.59,483.94 337.47,483.06 339.22,483.06 340.09,483.94 340.09,485.69 339.22,486.56 336.59,486.56 336.59,488.31 340.09,488.31 " stroke="red" stroke-width="0.71875" stroke-linecap="round" stroke-linejoin="round" />
<polyline points="342.72,487.44 343.59,488.31 345.34,488.31 346.22,487.44 346.22,486.56 342.72,483.06 346.22,483.06 " stroke="red" stroke-width="0.71875" stroke-linecap="round" stroke-linejoin="round" />
<polygon points="349.72,488.31 348.84,487.44 348.84,483.94 349.72,483.06 351.47,483.06 352.34,483.94 352.34,487.44 351.47,488.31 " stroke="red" stroke-width="0.71875" stroke-linejoin="round" />
<polyline points="594,420.72 589.88,418.53 587.56,417.53 585.78,416.78 581.66,415.09 577.53,413.75 573.44,412.69 570.75,412.16 569.31,411.78 565.19,411.22 561.09,410.94 556.97,410.91 552.88,411.12 548.75,411.81 547.22,412.16 544.62,412.66 540.53,413.72 536.41,415.06 532.28,416.59 530.12,417.53 528.19,418.41 524.06,420.47 519.94,422.84 519.75,422.97 515.84,425.41 511.72,428.22 511.38,428.44 507.59,431.16 503.78,433.97 503.5,434.19 499.38,437.12 496.09,439.5 495.25,440.19 491.16,443.38 488.94,445.12 487.03,446.69 482.91,450.16 482.12,450.75 478.81,453.31 474.69,456.22 474.31,456.47 470.56,458.75 466.47,461.22 464.69,462.19 462.34,463.53 458.25,465.66 454.12,467.62 453.25,468 450,469.34 445.91,470.84 441.78,472.22 437.66,473.44 436.19,473.84 433.56,474.53 429.44,475.44 425.31,476.16 421.22,476.66 417.09,476.97 412.97,477.06 408.88,476.97 404.75,476.62 400.62,475.81 396.53,474.91 392.41,473.97 391.78,473.84 388.31,473.06 384.19,472.56 380.06,472.09 375.97,471.53 371.84,470.88 367.72,469.78 363.62,468.59 361.72,468 359.5,467.28 355.38,465.94 352.41,464.97 " stroke="red" stroke-width="0.96875" stroke-linecap="round" stroke-linejoin="round" />
<polyline points="325.47,458.25 322.47,457.66 318.34,456.91 316,456.47 314.25,456.09 310.12,455.28 306.03,454.53 301.91,453.75 297.78,453 293.69,452.38 289.56,451.78 285.44,451.41 281.34,451.06 277.22,450.81 276.31,450.75 273.09,450.59 269,450.38 264.88,450.19 260.75,450.06 256.66,450 252.53,450.19 248.41,450.41 244.31,450.56 240.19,450.66 236.06,450.19 231.97,449.59 227.84,449 223.72,448.5 219.62,448.72 215.5,448.97 211.41,449.16 207.28,449.16 203.16,448.25 199.06,447.25 194.94,446.31 190.81,445.56 186.72,445.47 182.59,445.53 178.47,445.75 174.38,446 170.25,446.16 166.12,446.25 162.03,446.25 157.91,446.09 153.78,445.56 150.69,445.12 149.69,444.97 145.56,444.41 141.44,443.94 137.34,443.84 133.22,443.81 129.12,443.81 125,443.75 120.88,443.47 116.78,443.19 112.66,442.94 108.53,442.69 104.44,442.62 100.31,442.56 96.188,442.44 92.094,442.25 87.969,441.72 83.844,441.19 79.75,440.75 75.625,440.41 71.5,440.31 67.406,440.31 63.281,440.38 59.188,440.5 55.062,440.59 50.938,440.72 46.844,440.88 42.719,441.03 38.594,441.16 34.5,441.31 30.375,441.53 26.25,441.78 22.156,442.12 18.031,442.59 " stroke="red" stroke-width="0.96875" stroke-linecap="round" stroke-linejoin="round" />
<polyline points="328.44,459.41 329.31,458.53 331.06,458.53 331.94,459.41 331.94,461.16 331.06,462.03 328.44,462.03 328.44,463.78 331.94,463.78 " stroke="red" stroke-width="0.71875" stroke-linecap="round" stroke-linejoin="round" />
<polyline points="334.56,459.41 335.44,458.53 337.19,458.53 338.06,459.41 338.06,461.16 337.19,462.03 334.56,462.03 334.56,463.78 338.06,463.78 " stroke="red" stroke-width="0.71875" stroke-linecap="round" stroke-linejoin="round" />
<polygon points="341.56,463.78 340.69,462.91 340.69,462.03 341.56,461.16 343.31,461.16 344.19,462.03 344.19,462.91 343.31,463.78 " stroke="red" stroke-width="0.71875" stroke-linejoin="round" />
<polyline points="341.56,461.16 340.69,460.28 340.69,459.41 341.56,458.53 343.31,458.53 344.19,459.41 344.19,460.28 343.31,461.16 " stroke="red" stroke-width="0.71875" stroke-linecap="round" stroke-linejoin="round" />
<polygon points="347.69,463.78 346.81,462.91 346.81,459.41 347.69,458.53 349.44,458.53 350.31,459.41 350.31,462.91 349.44,463.78 " stroke="red" stroke-width="0.71875" stroke-linejoin="round" />
<polyline points="594,402.56 590.16,401.47 589.88,401.41 585.78,400.28 581.66,399.03 577.53,397.91 573.44,396.94 569.75,396.22 569.31,396.12 565.19,395.53 561.09,395.09 556.97,394.88 552.88,394.81 548.75,395.12 544.62,395.62 541.22,396.22 540.53,396.31 536.41,397.12 532.28,398.06 528.19,399.16 524.06,400.47 521.19,401.47 519.94,401.91 515.84,403.5 511.72,405.31 508.56,406.78 507.59,407.25 503.5,409.25 499.38,411.31 497.69,412.16 495.25,413.28 491.16,415.16 487.03,417 485.84,417.53 482.91,418.88 478.81,420.88 474.72,422.97 474.69,422.97 470.56,425.09 466.47,427.03 463.25,428.44 462.34,428.84 458.25,430.47 454.12,431.94 450,433.25 447.44,433.97 445.91,434.34 441.78,435.28 437.66,436.06 433.56,436.88 429.44,437.59 425.31,438.19 421.22,438.66 417.09,438.72 412.97,438.62 408.88,438.44 404.75,438.16 400.62,437.94 396.53,437.72 392.41,437.47 388.31,437.25 384.19,437.09 380.06,436.94 375.97,436.78 371.84,436.56 367.72,436.25 363.62,435.91 359.5,435.53 355.38,435.16 351.28,434.91 347.16,434.59 343.03,434.16 341.59,433.97 338.94,433.53 334.81,432.34 331.84,431.44 " stroke="red" stroke-width="0.96875" stroke-linecap="round" stroke-linejoin="round" />
<polyline points="304.88,425.41 301.91,424.88 297.78,424.16 293.69,423.44 290.66,422.97 289.56,422.78 285.44,422.09 281.34,421.5 277.22,420.91 273.09,420.38 269,419.97 264.88,419.56 260.75,419.12 256.66,418.59 252.53,417.62 252.22,417.53 248.41,416.5 244.31,415.44 240.19,414.53 236.06,414.72 231.97,415.06 227.84,415.34 223.72,415.41 219.62,414.31 215.5,412.84 213.78,412.16 211.41,411.25 207.28,409.94 203.16,410.06 199.06,410.53 194.94,411.16 190.81,411.72 186.72,411.12 182.59,410.44 178.47,409.78 174.38,409.28 170.25,409.31 166.12,409.5 162.03,409.81 157.91,410.16 153.78,410.25 149.69,410.38 145.56,410.56 141.44,410.84 137.34,411.53 134.12,412.16 133.22,412.31 129.12,413.09 125,413.91 120.88,414.56 116.78,415.22 112.66,415.84 108.53,416.47 104.44,416.88 100.31,417.28 98,417.53 96.188,417.72 92.094,418.16 87.969,418.97 83.844,419.72 79.75,420.41 75.625,421.03 71.5,421.34 67.406,421.62 63.281,421.91 59.188,422.28 55.062,422.88 54.5,422.97 50.938,423.5 46.844,424.12 42.719,424.81 38.594,425.41 34.5,426 30.375,426.56 26.25,427.12 22.156,427.69 18.031,428.25 " stroke="red" stroke-width="0.96875" stroke-linecap="round" stroke-linejoin="round" />
<polyline points="307.84,426.16 308.72,425.28 310.47,425.28 311.34,426.16 311.34,427.91 310.47,428.78 307.84,428.78 307.84,430.53 311.34,430.53 " stroke="red" stroke-width="0.71875" stroke-linecap="round" stroke-linejoin="round" />
<polyline points="317.47,429.66 316.59,430.53 314.84,430.53 313.97,429.66 313.97,426.16 314.84,425.28 316.59,425.28 317.47,426.16 317.47,427.03 316.59,427.91 313.97,427.91 " stroke="red" stroke-width="0.71875" stroke-linecap="round" stroke-linejoin="round" />
<polyline points="321.84,430.53 320.09,427.91 323.59,427.91 323.59,430.53 323.59,425.28 " stroke="red" stroke-width="0.71875" stroke-linecap="round" stroke-linejoin="round" />
<polygon points="327.09,430.53 326.22,429.66 326.22,426.16 327.09,425.28 328.84,425.28 329.72,426.16 329.72,429.66 328.84,430.53 " stroke="red" stroke-width="0.71875" stroke-linejoin="round" />
<polyline points="594,372.25 589.88,372.34 585.78,372.41 581.66,372.44 577.53,372.41 573.44,372.28 569.31,372.12 565.19,371.72 561.09,371.31 556.97,370.88 552.88,370.47 551.44,370.38 548.75,370.16 544.62,369.91 540.53,369.75 536.41,369.72 532.28,369.81 528.19,370.03 524.25,370.38 524.06,370.38 519.94,370.84 515.84,371.53 511.72,372.31 507.59,373.19 503.5,374.12 499.38,374.94 496.66,375.47 495.25,375.72 491.16,376.53 487.03,377.31 482.91,378.16 478.81,378.94 474.69,379.62 470.56,380.19 466.47,380.59 466.28,380.59 462.34,380.81 458.25,380.88 454.12,380.72 453.16,380.59 450,380.19 445.91,379.47 441.78,378.69 437.66,377.88 433.56,377.31 429.44,376.75 425.31,376.09 421.75,375.47 421.22,375.34 417.09,374.03 412.97,372.56 408.88,371.09 406.62,370.38 404.75,369.72 400.62,368.81 396.53,368.31 392.41,368.28 388.31,368.69 384.19,370.03 383.5,370.38 380.06,372.12 375.97,374.84 375.16,375.47 371.84,377.97 368.34,380.59 367.72,381.03 363.62,383.75 360.03,385.78 359.5,386.03 355.38,387.62 351.28,388.19 347.16,388.38 343.03,388.31 338.94,388.06 334.81,388 330.69,387.81 326.59,387.53 323.59,387.25 " stroke="red" stroke-width="0.96875" stroke-linecap="round" stroke-linejoin="round" />
<polyline points="296.66,383.56 293.69,383.34 289.56,383.09 285.44,382.78 281.34,382.53 277.22,382.28 273.09,382.06 269,381.84 264.88,381.66 260.75,381.5 256.66,381.38 252.53,381.38 248.41,381.41 244.31,381.5 240.19,381.59 236.06,381.88 231.97,382.09 227.84,382.22 223.72,382.16 219.62,381.59 215.5,380.91 213.72,380.59 211.41,380.19 207.28,379.44 203.16,378.78 199.06,378.19 194.94,377.62 190.81,377.19 186.72,377.03 182.59,376.91 178.47,376.75 174.38,376.56 170.25,376.03 166.38,375.47 166.12,375.44 162.03,374.81 157.91,374.19 153.78,373.59 149.69,373 145.56,372.44 141.44,371.88 137.34,371.44 133.22,371.03 129.12,370.72 125,370.5 122.47,370.38 120.88,370.28 116.78,370.25 112.94,370.38 112.66,370.38 108.53,371 104.44,372.56 100.31,374.44 98.281,375.47 96.188,376.56 92.094,378.78 88.781,380.59 87.969,381.03 83.844,383.25 79.75,385.41 79,385.78 75.625,387.41 71.5,389.03 67.406,390.59 66.438,390.97 63.281,392.09 59.188,393.53 55.062,395.06 51.906,396.22 50.938,396.53 46.844,397.84 42.719,399.16 38.594,400.34 34.688,401.47 34.5,401.53 30.375,402.62 26.25,403.72 22.156,404.78 18.031,405.88 " stroke="red" stroke-width="0.96875" stroke-linecap="round" stroke-linejoin="round" />
<polyline points="299.62,383.28 300.5,382.41 302.25,382.41 303.12,383.28 303.12,385.03 302.25,385.91 299.62,385.91 299.62,387.66 303.12,387.66 " stroke="red" stroke-width="0.71875" stroke-linecap="round" stroke-linejoin="round" />
<polyline points="305.75,387.66 309.25,387.66 307.5,382.41 " stroke="red" stroke-width="0.71875" stroke-linecap="round" stroke-linejoin="round" />
<polygon points="312.75,387.66 311.88,386.78 311.88,383.28 312.75,382.41 314.5,382.41 315.38,383.28 315.38,386.78 314.5,387.66 " stroke="red" stroke-width="0.71875" stroke-linejoin="round" />
<polygon points="318.88,387.66 318,386.78 318,383.28 318.88,382.41 320.62,382.41 321.5,383.28 321.5,386.78 320.62,387.66 " stroke="red" stroke-width="0.71875" stroke-linejoin="round" />
<polyline points="594,326.47 589.88,326.84 585.78,327.12 581.66,327.47 577.53,327.66 573.44,327.75 569.31,327.75 565.19,327.66 561.09,327.47 556.97,327.25 552.88,326.97 548.75,326.66 544.62,326.34 540.53,325.97 538.94,325.81 536.41,325.53 532.28,325.06 528.19,324.53 524.06,323.91 519.94,323.22 515.84,322.53 511.72,321.75 508.62,321 507.59,320.72 503.5,319.34 499.38,317.44 497.09,316.22 495.25,315.19 491.16,312.53 489.66,311.44 487.03,309.62 484.09,306.72 482.91,305.44 480.25,302 478.81,299.97 477.09,297.31 474.69,293.56 474.09,292.62 470.56,288.44 470.09,287.97 466.47,284.94 464.41,283.34 462.34,281.91 458.25,279.31 457.28,278.75 454.12,277.09 450,275.47 446.66,274.16 445.91,273.91 441.78,272.31 437.66,270.41 436.5,269.59 433.56,267.75 429.44,265.47 428.56,265.03 425.31,263.69 421.22,262.41 417.09,261.66 412.97,261.31 408.88,261.34 404.75,261.78 400.62,263.19 396.72,265.03 396.53,265.16 392.41,267.75 389.88,269.59 388.31,270.91 384.19,273.44 383,274.16 380.06,276.16 376.34,278.75 375.97,279.03 371.84,282.16 370.25,283.34 367.72,285.38 364.31,287.97 363.62,288.56 359.5,291.62 358,292.62 355.38,294.56 351.28,297.16 351.03,297.31 347.16,299.59 343.03,301.78 342.59,301.97 " stroke="red" stroke-width="0.96875" stroke-linecap="round" stroke-linejoin="round" />
<polyline points="318.78,311.44 318.75,311.44 318.34,311.66 314.25,314.06 310.84,316.22 310.12,316.62 306.03,319.41 304.09,321 301.91,322.72 297.97,325.81 297.78,325.94 293.69,328.97 291.25,330.66 289.56,331.84 285.44,334.44 283.62,335.5 281.34,336.78 277.22,338.84 273.62,340.41 273.09,340.62 269,341.97 264.88,343.09 260.75,344.06 256.66,344.94 255.09,345.31 252.53,345.94 248.41,346.91 244.31,347.88 240.19,348.75 236.06,349.41 231.97,349.84 227.84,350.09 223.72,350.09 219.62,349.62 215.5,349.03 211.41,348.41 207.28,347.84 203.16,347.69 199.06,347.62 194.94,347.66 190.81,347.72 186.72,347.94 182.59,348.12 178.47,348.25 174.38,348.25 170.25,347.78 166.12,347.28 162.03,346.78 157.91,346.44 153.78,346.56 149.69,346.78 145.56,347 141.44,347.22 137.34,347.22 133.22,347.12 129.12,346.94 125,346.66 120.88,346.19 116.78,345.69 113.91,345.31 112.66,345.16 108.53,344.66 104.44,344.25 100.31,343.88 96.188,343.62 92.094,343.44 87.969,343.53 83.844,343.72 79.75,344 75.625,344.38 71.5,344.75 67.406,345.16 66,345.31 63.281,345.66 59.188,346.22 55.062,346.94 50.938,347.72 46.844,348.66 42.719,349.72 40.531,350.28 38.594,351.09 34.5,352.94 30.375,355 29.906,355.25 26.25,357.56 22.156,360.16 22,360.25 18.031,363.19 " stroke="red" stroke-width="0.96875" stroke-linecap="round" stroke-linejoin="round" />
<polyline points="319.44,304.97 320.31,304.09 322.06,304.09 322.94,304.97 322.94,306.72 322.06,307.59 319.44,307.59 319.44,309.34 322.94,309.34 " stroke="red" stroke-width="0.71875" stroke-linecap="round" stroke-linejoin="round" />
<polyline points="325.56,309.34 329.06,309.34 327.31,304.09 " stroke="red" stroke-width="0.71875" stroke-linecap="round" stroke-linejoin="round" />
<polyline points="335.19,308.47 334.31,309.34 332.56,309.34 331.69,308.47 331.69,304.97 332.56,304.09 334.31,304.09 335.19,304.97 335.19,305.84 334.31,306.72 331.69,306.72 " stroke="red" stroke-width="0.71875" stroke-linecap="round" stroke-linejoin="round" />
<polygon points="338.69,309.34 337.81,308.47 337.81,304.97 338.69,304.09 340.44,304.09 341.31,304.97 341.31,308.47 340.44,309.34 " stroke="red" stroke-width="0.71875" stroke-linejoin="round" />
<polyline points="309.69,247 309.66,247.03 306.03,249.56 303.25,251.5 301.91,252.44 297.78,255.38 296.94,256 293.69,258.41 291.03,260.5 289.56,261.69 285.81,265.03 285.44,265.34 281.34,269.09 280.78,269.59 277.22,272.69 275.44,274.16 273.09,275.91 269,278.62 268.78,278.75 264.88,281.19 261.44,283.34 260.75,283.78 256.66,286.31 253.41,287.97 252.53,288.41 248.41,290.22 244.31,291.84 242.19,292.62 240.19,293.28 236.06,294.62 231.97,295.94 227.84,297.19 227.5,297.31 223.72,298.34 219.62,299.53 215.5,300.59 211.41,301.53 209.28,302 207.28,302.38 204.28,303.03 " stroke="red" stroke-width="0.96875" stroke-linecap="round" stroke-linejoin="round" />
<polyline points="177.34,308.06 174.38,308.38 170.25,308.69 166.12,308.88 162.03,309 157.91,309.06 153.78,309.03 149.69,308.94 145.56,308.81 141.44,308.69 137.34,308.59 133.22,308.5 129.12,308.44 125,308.38 120.88,308.28 116.78,308.25 112.66,308.31 108.53,308.5 104.44,308.97 100.31,309.56 96.188,310.25 92.094,311 89.469,311.44 87.969,311.62 83.844,312.12 79.75,312.59 75.625,313.06 71.5,313.47 67.406,313.91 63.281,314.34 59.188,314.81 55.062,315.38 50.938,315.94 48.938,316.22 46.844,316.47 42.719,317.03 38.594,317.66 34.5,318.31 30.375,319.03 26.25,319.81 22.156,320.44 18.875,321 18.031,321.12 " stroke="red" stroke-width="0.96875" stroke-linecap="round" stroke-linejoin="round" />
<polyline points="180.31,304.25 181.19,303.38 182.94,303.38 183.81,304.25 183.81,306 182.94,306.88 180.31,306.88 180.31,308.62 183.81,308.62 " stroke="red" stroke-width="0.71875" stroke-linecap="round" stroke-linejoin="round" />
<polygon points="187.31,308.62 186.44,307.75 186.44,306.88 187.31,306 189.06,306 189.94,306.88 189.94,307.75 189.06,308.62 " stroke="red" stroke-width="0.71875" stroke-linejoin="round" />
<polyline points="187.31,306 186.44,305.12 186.44,304.25 187.31,303.38 189.06,303.38 189.94,304.25 189.94,305.12 189.06,306 " stroke="red" stroke-width="0.71875" stroke-linecap="round" stroke-linejoin="round" />
<polyline points="192.56,307.75 193.44,308.62 195.19,308.62 196.06,307.75 196.06,306.88 192.56,303.38 196.06,303.38 " stroke="red" stroke-width="0.71875" stroke-linecap="round" stroke-linejoin="round" />
<polygon points="199.56,308.62 198.69,307.75 198.69,304.25 199.56,303.38 201.31,303.38 202.19,304.25 202.19,307.75 201.31,308.62 " stroke="red" stroke-width="0.71875" stroke-linejoin="round" />
</g>
</svg>
