<?xml version="1.0" encoding="ISO-8859-1" standalone="no"?>
<!DOCTYPE svg PUBLIC "-//W3C//DTD SVG 1.1//EN" "http://www.w3.org/Graphics/SVG/1.1/DTD/svg11.dtd">
<svg version="1.1" baseProfile="full" id="body" width="900px" height="600px" viewBox="0 0.2 1 0.55" preserveAspectRatio="none" xmlns="http://www.w3.org/2000/svg" xmlns:xlink="http://www.w3.org/1999/xlink" xmlns:ev="http://www.w3.org/2001/xml-events">
<title>SVG drawing</title>
<desc>This was produced by version 4.2 of GNU libplot, a free library for exporting 2-D vector graphics.</desc>
<rect id="background" x="0" y="0" width="1" height="1" stroke="none" fill="none"/>
<g id="content" transform="translate(-0.03125,1.1875) scale(1,-1) scale(0.0017361) " xml:space="preserve" stroke="black" stroke-linecap="butt" stroke-linejoin="miter" stroke-miterlimit="10.433" stroke-dasharray="none" stroke-dashoffset="0" stroke-opacity="1" fill="none" fill-rule="even-odd" fill-opacity="1" font-style="normal" font-variant="normal" font-weight="normal" font-stretch="normal" font-size-adjust="none" letter-spacing="normal" word-spacing="normal" text-anchor="start">
<polyline points="265.12,568.66 265.16,568.62 269,565.5 273.09,562.47 274.09,561.84 277.22,560.19 281.34,558.28 285.44,556.66 289.56,555.28 290.09,555.12 293.69,554.22 297.78,553.41 301.91,552.78 306.03,552.38 310.12,552.28 313.12,552.34 " stroke="red" stroke-width="0.96875" stroke-linecap="round" stroke-linejoin="round" />
<polyline points="340.06,558.41 343.03,559.25 347.16,560.38 351.28,561.53 352.22,561.84 355.38,562.94 359.5,564.62 363.62,566.31 367.72,567.91 369.59,568.62 369.69,568.66 " stroke="red" stroke-width="0.96875" stroke-linecap="round" stroke-linejoin="round" />
<polyline points="316.09,552.34 316.97,551.47 318.72,551.47 319.59,552.34 319.59,554.09 318.72,554.97 316.09,554.97 316.09,556.72 319.59,556.72 " stroke="red" stroke-width="0.71875" stroke-linecap="round" stroke-linejoin="round" />
<polyline points="322.22,555.84 323.09,556.72 324.84,556.72 325.72,555.84 325.72,554.97 322.22,551.47 325.72,551.47 " stroke="red" stroke-width="0.71875" stroke-linecap="round" stroke-linejoin="round" />
<polyline points="328.34,555.84 329.22,556.72 330.97,556.72 331.84,555.84 331.84,554.97 328.34,551.47 331.84,551.47 " stroke="red" stroke-width="0.71875" stroke-linecap="round" stroke-linejoin="round" />
<polygon points="335.34,556.72 334.47,555.84 334.47,552.34 335.34,551.47 337.09,551.47 337.97,552.34 337.97,555.84 337.09,556.72 " stroke="red" stroke-width="0.71875" stroke-linejoin="round" />
<polyline points="226,568.66 226.03,568.62 227.84,566.62 231.97,562.16 232.25,561.84 236.06,558.47 240.09,555.12 240.19,555.06 244.31,552.53 248.41,550.19 251.59,548.47 252.53,548.03 256.66,546.12 260.75,544.22 264.88,542.47 266.34,541.91 269,540.97 273.09,539.72 277.22,538.84 281.34,538.19 285.44,537.66 289.56,537.28 293.69,536.91 297.78,536.62 301.91,536.47 304.88,536.47 " stroke="red" stroke-width="0.96875" stroke-linecap="round" stroke-linejoin="round" />
<polyline points="331.84,539.69 334.81,540.38 338.94,541.34 341.56,541.91 343.03,542.22 347.16,543.12 351.28,544.06 355.38,545.06 359.5,546.25 363.62,547.56 366.22,548.47 367.72,549.03 371.84,550.66 375.97,552.41 380.06,554.25 381.94,555.12 384.19,556.22 388.31,558.28 392.41,560.59 394.5,561.84 396.53,563.03 400.62,565.53 404.75,568.16 405.5,568.62 405.56,568.66 " stroke="red" stroke-width="0.96875" stroke-linecap="round" stroke-linejoin="round" />
<polyline points="307.84,535.56 308.72,534.69 310.47,534.69 311.34,535.56 311.34,537.31 310.47,538.19 307.84,538.19 307.84,539.94 311.34,539.94 " stroke="red" stroke-width="0.71875" stroke-linecap="round" stroke-linejoin="round" />
<polyline points="313.97,539.06 314.84,539.94 316.59,539.94 317.47,539.06 317.47,538.19 313.97,534.69 317.47,534.69 " stroke="red" stroke-width="0.71875" stroke-linecap="round" stroke-linejoin="round" />
<polygon points="320.97,539.94 320.09,539.06 320.09,538.19 320.97,537.31 322.72,537.31 323.59,538.19 323.59,539.06 322.72,539.94 " stroke="red" stroke-width="0.71875" stroke-linejoin="round" />
<polyline points="320.97,537.31 320.09,536.44 320.09,535.56 320.97,534.69 322.72,534.69 323.59,535.56 323.59,536.44 322.72,537.31 " stroke="red" stroke-width="0.71875" stroke-linecap="round" stroke-linejoin="round" />
<polygon points="327.09,539.94 326.22,539.06 326.22,535.56 327.09,534.69 328.84,534.69 329.72,535.56 329.72,539.06 328.84,539.94 " stroke="red" stroke-width="0.71875" stroke-linejoin="round" />
<polyline points="443.03,568.66 443,568.62 441.78,567.81 437.66,565.25 433.56,563.34 429.91,561.84 429.44,561.66 425.31,560.03 421.22,558.41 417.09,556.38 414.62,555.12 412.97,554.25 408.88,552.03 404.75,549.94 402,548.47 400.62,547.75 396.53,545.59 392.41,543.56 388.84,541.91 388.31,541.62 384.19,539.81 380.06,538.06 375.97,536.47 373.03,535.38 371.84,534.94 367.72,533.69 363.62,532.56 359.5,531.56 355.38,530.59 351.28,529.66 348.22,528.97 347.16,528.69 343.03,527.69 338.94,526.75 334.81,525.81 330.69,524.97 326.59,524.19 322.47,523.5 318.34,522.94 315.44,522.59 314.25,522.44 310.12,522.03 306.03,521.69 301.91,521.44 297.78,521.25 293.69,521.12 289.56,521.09 285.44,521.06 281.34,521.09 277.22,521.25 273.09,521.53 269,522.06 265.75,522.59 264.88,522.75 260.75,523.56 257.78,524.22 " stroke="red" stroke-width="0.96875" stroke-linecap="round" stroke-linejoin="round" />
<polyline points="230.84,530.94 227.84,531.75 223.72,532.88 219.62,533.91 215.5,534.88 213.12,535.38 211.41,535.81 207.28,536.69 203.16,537.53 199.06,538.31 194.94,539.06 190.81,539.78 186.72,540.5 182.59,541.25 179.28,541.91 178.47,542.06 174.38,542.97 170.25,543.94 166.12,544.94 162.03,545.97 157.91,547.06 153.78,548.12 152.47,548.47 149.69,549.19 145.56,550.19 141.44,551.12 137.34,551.84 133.22,552.44 129.12,552.91 125,553.22 120.88,553.59 116.78,553.81 112.66,553.91 108.53,553.88 104.44,553.66 100.31,553.28 96.188,552.66 92.094,551.78 87.969,550.75 83.844,549.5 81.031,548.47 79.75,548 75.625,546.31 71.5,544.38 67.406,542.62 65.594,541.91 63.281,541.09 59.188,539.78 55.062,538.72 50.938,537.69 46.844,536.56 42.906,535.38 42.719,535.34 38.594,534.03 34.5,532.5 30.375,530.78 26.594,528.97 26.25,528.81 22.156,526.59 18.031,524.34 " stroke="red" stroke-width="0.96875" stroke-linecap="round" stroke-linejoin="round" />
<polyline points="233.81,525.62 234.69,524.75 236.44,524.75 237.31,525.62 237.31,527.38 236.44,528.25 233.81,528.25 233.81,530 237.31,530 " stroke="red" stroke-width="0.71875" stroke-linecap="round" stroke-linejoin="round" />
<polyline points="239.94,529.12 240.81,530 242.56,530 243.44,529.12 243.44,528.25 242.56,527.38 241.69,527.38 242.56,527.38 243.44,526.5 243.44,525.62 242.56,524.75 240.81,524.75 239.94,525.62 " stroke="red" stroke-width="0.71875" stroke-linecap="round" stroke-linejoin="round" />
<polyline points="247.81,530 246.06,527.38 249.56,527.38 249.56,530 249.56,524.75 " stroke="red" stroke-width="0.71875" stroke-linecap="round" stroke-linejoin="round" />
<polygon points="253.06,530 252.19,529.12 252.19,525.62 253.06,524.75 254.81,524.75 255.69,525.62 255.69,529.12 254.81,530 " stroke="red" stroke-width="0.71875" stroke-linejoin="round" />
<polyline points="571.56,568.66 571.56,568.62 572.62,561.84 573.44,555.44 573.47,555.12 573.91,548.47 574.34,541.91 574.88,535.38 575.56,528.97 576.47,524.38 " stroke="red" stroke-width="0.96875" stroke-linecap="round" stroke-linejoin="round" />
<polyline points="578.81,514.94 580.22,510.06 581.66,505.41 582.19,503.88 584.28,497.75 585.78,493.81 586.81,491.69 589.88,485.94 590.03,485.69 593.97,479.75 594,479.69 " stroke="red" stroke-width="0.96875" stroke-linecap="round" stroke-linejoin="round" />
<polyline points="567.03,517.91 567.91,517.03 569.66,517.03 570.53,517.91 570.53,519.66 569.66,520.53 567.03,520.53 567.03,522.28 570.53,522.28 " stroke="red" stroke-width="0.71875" stroke-linecap="round" stroke-linejoin="round" />
<polyline points="573.16,521.41 574.03,522.28 575.78,522.28 576.66,521.41 576.66,520.53 575.78,519.66 574.91,519.66 575.78,519.66 576.66,518.78 576.66,517.91 575.78,517.03 574.03,517.03 573.16,517.91 " stroke="red" stroke-width="0.71875" stroke-linecap="round" stroke-linejoin="round" />
<polyline points="581.03,522.28 579.28,519.66 582.78,519.66 582.78,522.28 582.78,517.03 " stroke="red" stroke-width="0.71875" stroke-linecap="round" stroke-linejoin="round" />
<polygon points="586.28,522.28 585.41,521.41 585.41,517.91 586.28,517.03 588.03,517.03 588.91,517.91 588.91,521.41 588.03,522.28 " stroke="red" stroke-width="0.71875" stroke-linejoin="round" />
<polyline points="594,448.81 590.56,450.75 589.88,451.19 585.78,454.5 584,456.47 581.66,459.91 580.22,462.19 577.53,466.91 576.97,468 574.03,473.84 573.44,475.16 571.38,479.75 569.31,485.38 569.22,485.69 567.5,491.69 565.91,497.75 565.19,500.59 564.34,503.88 562.56,510.06 561.09,515.44 560.84,516.28 559.19,522.59 557.56,528.97 556.97,531.53 555.97,535.38 554.19,541.91 552.88,546.09 551.88,548.47 548.75,554.91 548.62,555.12 544.62,560.81 543.75,561.84 540.53,565.22 536.41,568.56 536.31,568.62 536.25,568.66 " stroke="red" stroke-width="0.96875" stroke-linecap="round" stroke-linejoin="round" />
<polyline points="487.94,568.66 487.84,568.62 487.03,568.38 482.91,566.53 478.81,564.41 474.69,562.12 474.19,561.84 470.56,559.69 466.47,557.16 463.22,555.12 462.34,554.59 458.25,552.19 454.12,549.84 451.75,548.47 450,547.47 445.91,545.19 441.78,542.94 439.75,541.91 437.66,540.81 433.56,539.09 429.44,537.41 425.31,535.75 424.38,535.38 421.22,534.16 417.09,532.91 412.97,531.78 408.88,530.75 404.75,529.72 402.41,528.97 400.62,528.38 396.53,526.94 392.41,525.5 388.31,524.06 384.25,522.59 384.19,522.56 380.06,521.03 375.97,519.59 371.84,518.25 368.84,517.47 " stroke="red" stroke-width="0.96875" stroke-linecap="round" stroke-linejoin="round" />
<polyline points="341.91,511.5 338.94,510.97 334.81,510.25 333.72,510.06 330.69,509.5 326.59,508.81 322.47,508.16 318.34,507.62 314.25,507.16 310.12,506.69 306.03,506.28 301.91,505.81 297.78,505.34 293.69,504.94 289.56,504.56 285.44,504.31 281.34,504.16 277.22,504.03 273.09,504 269,504.03 264.88,504.12 260.75,504.28 256.66,504.47 252.53,504.66 248.41,504.88 244.31,505.12 240.19,505.31 236.06,505.5 231.97,505.62 227.84,505.72 223.72,505.72 219.62,505.59 215.5,505.38 211.41,505.09 207.28,504.75 203.16,504.5 199.06,504.25 194.94,503.91 194.66,503.88 190.81,503.5 186.72,502.94 182.59,502.28 178.47,501.47 174.38,500.5 170.25,499.19 166.12,497.84 165.88,497.75 162.03,496.59 157.91,495.5 153.78,494.84 149.69,494.34 145.56,494 141.44,493.88 137.34,494 133.22,494.34 129.12,494.81 125,495.38 120.88,496.16 116.78,496.94 112.66,497.62 111.53,497.75 108.53,498.12 104.44,497.91 103.19,497.75 100.31,497.44 96.188,496.84 92.094,496.12 87.969,495.25 83.844,494.34 79.75,493.47 75.625,492.69 71.5,492.19 67.406,491.84 64.094,491.69 63.281,491.66 59.75,491.69 59.188,491.69 55.062,492.12 50.938,492.69 46.844,493.31 42.719,493.88 38.594,494.34 34.5,494.72 30.375,495.06 26.25,495.34 22.156,495.5 18.031,495.66 " stroke="red" stroke-width="0.96875" stroke-linecap="round" stroke-linejoin="round" />
<polyline points="344.88,512.44 345.75,511.56 347.5,511.56 348.38,512.44 348.38,514.19 347.5,515.06 344.88,515.06 344.88,516.81 348.38,516.81 " stroke="red" stroke-width="0.71875" stroke-linecap="round" stroke-linejoin="round" />
<polyline points="352.75,516.81 351,514.19 354.5,514.19 354.5,516.81 354.5,511.56 " stroke="red" stroke-width="0.71875" stroke-linecap="round" stroke-linejoin="round" />
<polygon points="358,516.81 357.12,515.94 357.12,512.44 358,511.56 359.75,511.56 360.62,512.44 360.62,515.94 359.75,516.81 " stroke="red" stroke-width="0.71875" stroke-linejoin="round" />
<polygon points="364.12,516.81 363.25,515.94 363.25,512.44 364.12,511.56 365.88,511.56 366.75,512.44 366.75,515.94 365.88,516.81 " stroke="red" stroke-width="0.71875" stroke-linejoin="round" />
<polyline points="594,433.28 592.31,433.97 589.88,435.09 585.78,437.47 583.22,439.5 581.66,440.88 577.53,444.94 577.38,445.12 573.44,449.75 572.62,450.75 569.31,455.31 568.5,456.47 565.19,462 565.09,462.19 562.03,468 561.09,470 559.25,473.84 556.97,479.03 556.66,479.75 554.22,485.69 552.88,489.09 551.53,491.69 548.75,497.47 548.59,497.75 545.44,503.88 544.62,505.56 542.22,510.06 540.53,513.31 538.69,516.28 536.41,519.88 534.09,522.59 532.28,524.62 528.19,528.06 526.78,528.97 524.06,530.62 519.94,532.62 515.84,534.62 513.91,535.38 511.72,536.22 507.59,537.38 503.5,538.16 499.38,538.72 495.25,538.94 491.16,538.84 487.03,538.38 482.91,537.34 478.81,536.09 476.78,535.38 474.69,534.69 470.56,533.12 466.47,531.59 462.34,530.03 459.62,528.97 458.25,528.38 454.12,526.53 450,524.41 446.47,522.59 445.91,522.28 441.78,520.22 437.66,518.25 433.56,516.47 433.06,516.28 429.44,514.84 425.31,513.38 421.22,512.03 417.09,511 413.09,510.06 412.97,510.03 408.88,509.06 404.75,508.06 400.62,506.97 396.53,505.91 392.41,504.81 388.78,503.88 388.31,503.75 384.19,502.53 380.06,501.34 375.97,500.22 371.84,499.19 367.72,498.25 365.38,497.75 363.62,497.38 359.5,496.53 355.38,495.72 352.41,495.19 " stroke="red" stroke-width="0.96875" stroke-linecap="round" stroke-linejoin="round" />
<polyline points="325.47,490.25 322.47,489.72 318.34,489.12 314.25,488.59 310.12,488.09 306.03,487.59 301.91,487.06 297.78,486.56 293.69,486.09 289.97,485.69 289.56,485.62 285.44,485.25 281.34,484.91 277.22,484.59 273.09,484.28 269,483.91 264.88,483.56 260.75,483.25 256.66,482.97 252.53,482.91 248.41,482.84 244.31,482.78 240.19,482.69 236.06,482.41 231.97,482.06 227.84,481.59 223.72,481 219.62,480.22 217.41,479.75 215.5,479.34 211.41,478.5 207.28,477.66 203.16,476.94 199.06,476.19 194.94,475.41 190.81,474.56 186.72,473.84 182.59,473.16 178.47,472.47 174.38,471.78 170.25,470.75 166.12,469.62 162.03,468.41 160.69,468 157.91,467.16 153.78,465.94 149.69,464.78 145.56,463.62 141.44,462.5 140.22,462.19 137.34,461.53 133.22,460.59 129.12,459.69 125,458.75 120.88,457.81 116.78,457 113.44,456.47 112.66,456.38 108.53,456.12 104.44,456.31 102.5,456.47 100.31,456.72 96.188,457.34 92.094,457.97 87.969,457.84 83.844,457.81 79.75,458.03 75.625,458.56 71.5,460.16 67.406,461.81 66.406,462.19 63.281,463.53 59.188,465.06 55.062,466.28 50.938,467.44 48.906,468 46.844,468.59 42.719,469.72 38.594,470.81 34.5,471.88 30.375,472.91 26.656,473.84 26.25,473.94 22.156,474.91 18.031,475.91 " stroke="red" stroke-width="0.96875" stroke-linecap="round" stroke-linejoin="round" />
<polyline points="328.44,491.06 329.31,490.19 331.06,490.19 331.94,491.06 331.94,492.81 331.06,493.69 328.44,493.69 328.44,495.44 331.94,495.44 " stroke="red" stroke-width="0.71875" stroke-linecap="round" stroke-linejoin="round" />
<polyline points="336.31,495.44 334.56,492.81 338.06,492.81 338.06,495.44 338.06,490.19 " stroke="red" stroke-width="0.71875" stroke-linecap="round" stroke-linejoin="round" />
<polyline points="344.19,494.56 343.31,495.44 341.56,495.44 340.69,494.56 340.69,491.06 341.56,490.19 343.31,490.19 344.19,491.06 344.19,491.94 343.31,492.81 340.69,492.81 " stroke="red" stroke-width="0.71875" stroke-linecap="round" stroke-linejoin="round" />
<polygon points="347.69,495.44 346.81,494.56 346.81,491.06 347.69,490.19 349.44,490.19 350.31,491.06 350.31,494.56 349.44,495.44 " stroke="red" stroke-width="0.71875" stroke-linejoin="round" />
<polyline points="594,421.06 589.88,422.22 587.91,422.97 585.78,423.78 581.66,426.16 578.41,428.44 577.53,429.09 573.44,432.59 571.97,433.97 569.31,436.62 566.34,439.5 565.19,440.72 561.31,445.12 561.09,445.41 557.06,450.75 556.97,450.88 553.25,456.47 552.88,457.12 549.09,462.19 548.75,462.72 544.69,468 544.62,468.06 540.53,473.16 539.91,473.84 536.41,478.03 534.94,479.75 532.28,482.94 529.75,485.69 528.19,487.41 524.06,491.31 523.59,491.69 519.94,494.66 515.84,497.53 515.44,497.75 511.72,499.97 507.59,502.03 503.5,503.69 502.88,503.88 499.38,504.91 495.25,505.78 491.16,506.28 487.03,506.47 482.91,506.31 478.81,505.91 474.69,505.28 470.56,504.5 467.34,503.88 466.47,503.69 462.34,502.78 458.25,501.78 454.12,500.66 450,499.44 445.91,498.22 444.28,497.75 441.78,497.03 437.66,495.84 433.56,494.66 429.44,493.5 425.31,492.34 423.03,491.69 421.22,491.16 417.09,489.78 412.97,488.38 408.88,486.94 405.31,485.69 404.75,485.47 400.62,484.19 396.53,483 392.41,481.84 388.31,480.78 384.19,479.81 383.84,479.75 380.06,478.94 375.97,478.12 371.84,477.31 367.72,476.53 363.62,475.78 359.5,475.03 355.38,474.25 353.56,473.84 351.28,473.31 347.16,472.31 344.19,471.59 " stroke="red" stroke-width="0.96875" stroke-linecap="round" stroke-linejoin="round" />
<polyline points="317.22,466.06 314.25,465.66 310.12,465.16 306.03,464.66 301.91,464.09 297.78,463.5 293.69,462.97 289.56,462.47 286.41,462.19 285.44,462.12 281.34,461.81 277.22,461.53 273.09,461.28 269,461.03 264.88,460.78 260.75,460.5 256.66,460.22 252.53,459.91 248.41,459.59 244.31,459.19 240.19,458.75 236.06,458.19 231.97,457.59 227.84,457 224.09,456.47 223.72,456.41 219.62,456.03 215.5,455.66 211.41,455.19 207.28,454.62 203.16,453.41 199.06,452.12 194.94,450.91 194.38,450.75 190.81,449.84 186.72,449.53 182.59,449.34 178.47,449.19 174.38,448.94 170.25,448.28 166.12,447.56 162.03,446.84 157.91,446.09 153.78,445.41 152.22,445.12 149.69,444.69 145.56,443.97 141.44,443.25 137.34,442.44 133.22,441.69 129.12,440.97 125,440.34 120.88,439.91 116.78,439.56 115.44,439.5 112.66,439.41 108.53,439.41 106.97,439.5 104.44,439.69 100.31,440.16 96.188,440.69 92.094,441.31 87.969,441.81 83.844,442.34 79.75,442.91 75.625,443.59 71.5,444.56 69.5,445.12 67.406,445.72 63.281,447.06 59.188,448.47 55.062,449.78 51.812,450.75 50.938,451.03 46.844,452.28 42.719,453.5 38.594,454.66 34.5,455.81 32.219,456.47 30.375,456.97 26.25,458.09 22.156,459.19 18.031,460.25 " stroke="red" stroke-width="0.96875" stroke-linecap="round" stroke-linejoin="round" />
<polyline points="320.19,466.72 321.06,465.84 322.81,465.84 323.69,466.72 323.69,468.47 322.81,469.34 320.19,469.34 320.19,471.09 323.69,471.09 " stroke="red" stroke-width="0.71875" stroke-linecap="round" stroke-linejoin="round" />
<polyline points="326.31,466.72 327.19,465.84 328.94,465.84 329.81,466.72 329.81,468.47 328.94,469.34 326.31,469.34 326.31,471.09 329.81,471.09 " stroke="red" stroke-width="0.71875" stroke-linecap="round" stroke-linejoin="round" />
<polyline points="332.44,470.22 333.31,471.09 335.06,471.09 335.94,470.22 335.94,469.34 332.44,465.84 335.94,465.84 " stroke="red" stroke-width="0.71875" stroke-linecap="round" stroke-linejoin="round" />
<polygon points="339.44,471.09 338.56,470.22 338.56,466.72 339.44,465.84 341.19,465.84 342.06,466.72 342.06,470.22 341.19,471.09 " stroke="red" stroke-width="0.71875" stroke-linejoin="round" />
<polyline points="594,407.97 589.88,408.75 585.78,409.84 581.66,411.62 580.69,412.16 577.53,413.66 573.44,416.06 571.22,417.53 569.31,418.88 565.19,421.66 563.38,422.97 561.09,424.66 556.97,427.91 556.34,428.44 552.88,431.44 550.09,433.97 548.75,435.28 544.62,439.34 544.44,439.5 540.53,443.28 538.47,445.12 536.41,447 532.28,450.62 532.12,450.75 528.19,454.06 525.09,456.47 524.06,457.31 519.94,460.34 516.94,462.19 515.84,462.88 511.72,465.06 507.59,466.97 505.09,468 503.5,468.66 499.38,470.22 495.25,471.62 491.16,472.78 487.03,473.72 486.31,473.84 482.91,474.34 478.81,474.75 474.69,474.91 470.56,474.84 466.47,474.5 462.34,474.06 460.72,473.84 458.25,473.5 454.12,472.91 450,472.41 445.91,471.84 441.78,471.22 437.66,470.5 433.56,469.72 429.44,468.88 425.34,468 425.31,468 421.22,466.97 417.09,465.75 412.97,464.62 408.88,463.53 404.75,462.5 403.31,462.19 400.62,461.59 396.53,460.66 392.41,459.72 388.31,458.72 384.19,457.5 380.94,456.47 380.06,456.12 375.97,454.56 371.84,453.03 367.72,451.62 365.12,450.75 363.62,450.22 359.5,448.78 355.38,447.34 351.28,446 348.31,445.12 347.16,444.75 344.19,443.88 " stroke="red" stroke-width="0.96875" stroke-linecap="round" stroke-linejoin="round" />
<polyline points="317.22,438.09 314.25,437.5 310.12,436.69 306.03,435.94 301.91,435.41 297.78,434.97 293.69,434.56 289.56,434.19 287.28,433.97 285.44,433.72 281.34,433.16 277.22,432.59 273.09,432 269,431.31 264.88,430.59 260.75,429.91 256.66,429.28 252.53,428.94 248.41,428.66 245.62,428.44 244.31,428.34 240.19,427.97 236.06,427.12 231.97,426.31 227.84,425.53 223.72,424.91 219.62,424.75 215.5,424.75 211.41,424.81 207.28,424.91 203.16,424.81 199.06,424.69 194.94,424.56 190.81,424.44 186.72,424.16 182.59,423.91 178.47,423.75 174.38,423.69 170.25,424.12 166.12,424.62 162.03,425.06 157.91,425.38 153.78,425.28 149.69,425.06 145.56,424.81 141.44,424.56 137.34,424.41 133.22,424.31 129.12,424.28 125,424.25 120.88,424.28 116.78,424.34 112.66,424.5 108.53,424.69 104.44,425 100.31,425.38 96.188,425.88 92.094,426.5 87.969,427.28 83.844,428.16 82.656,428.44 79.75,429.06 75.625,429.97 71.5,430.75 67.406,431.62 63.281,432.56 59.188,433.56 57.844,433.97 55.062,434.66 50.938,435.75 46.844,436.84 42.719,437.94 38.594,438.97 36.25,439.5 34.5,439.91 30.375,440.84 26.25,441.78 22.156,442.66 18.031,443.59 " stroke="red" stroke-width="0.96875" stroke-linecap="round" stroke-linejoin="round" />
<polyline points="320.19,438.94 321.06,438.06 322.81,438.06 323.69,438.94 323.69,440.69 322.81,441.56 320.19,441.56 320.19,443.31 323.69,443.31 " stroke="red" stroke-width="0.71875" stroke-linecap="round" stroke-linejoin="round" />
<polyline points="326.31,438.94 327.19,438.06 328.94,438.06 329.81,438.94 329.81,440.69 328.94,441.56 326.31,441.56 326.31,443.31 329.81,443.31 " stroke="red" stroke-width="0.71875" stroke-linecap="round" stroke-linejoin="round" />
<polygon points="333.31,443.31 332.44,442.44 332.44,441.56 333.31,440.69 335.06,440.69 335.94,441.56 335.94,442.44 335.06,443.31 " stroke="red" stroke-width="0.71875" stroke-linejoin="round" />
<polyline points="333.31,440.69 332.44,439.81 332.44,438.94 333.31,438.06 335.06,438.06 335.94,438.94 335.94,439.81 335.06,440.69 " stroke="red" stroke-width="0.71875" stroke-linecap="round" stroke-linejoin="round" />
<polygon points="339.44,443.31 338.56,442.44 338.56,438.94 339.44,438.06 341.19,438.06 342.06,438.94 342.06,442.44 341.19,443.31 " stroke="red" stroke-width="0.71875" stroke-linejoin="round" />
<polyline points="594,389.94 589.88,390.34 585.78,390.97 581.66,391.88 577.53,393.06 573.44,394.56 569.69,396.22 569.31,396.38 565.19,398.22 561.09,400.34 559.03,401.47 556.97,402.62 552.88,405.03 549.78,406.78 548.75,407.38 544.62,409.66 540.53,411.94 540.12,412.16 536.41,414.22 532.28,416.78 531.06,417.53 528.19,419.41 524.06,422.09 522.59,422.97 519.94,424.56 515.84,426.66 511.72,428.44 511.66,428.44 507.59,429.78 503.5,430.91 499.38,432 495.25,433.03 491.41,433.97 491.16,434 487.03,434.91 482.91,435.88 478.81,436.81 474.69,437.66 470.56,438.34 466.47,438.81 462.34,439.09 458.25,439.12 454.12,438.91 450,438.12 445.91,437.16 441.78,436.06 437.66,434.94 433.56,434.03 433.19,433.97 429.44,433.06 425.31,432.19 421.22,431.34 417.09,430.78 412.97,430.28 408.88,429.78 404.75,429.25 400.62,428.47 400.56,428.44 396.53,427.53 392.41,426.5 388.31,425.44 384.19,424.28 380.06,423.09 379.66,422.97 375.97,421.75 371.84,420.34 367.72,418.75 364.59,417.53 363.62,417.16 359.5,415.5 355.38,413.88 351.28,412.31 350.84,412.16 347.16,410.75 343.03,409.28 338.94,407.88 335.56,406.78 334.81,406.56 330.69,405.34 327.72,404.56 " stroke="red" stroke-width="0.96875" stroke-linecap="round" stroke-linejoin="round" />
<polyline points="300.78,399.47 297.78,398.94 293.69,398.25 289.56,397.53 285.44,396.88 281.53,396.22 281.34,396.19 277.22,395.5 273.09,394.78 269,394 264.88,393.19 260.75,392.41 256.66,391.62 253.25,390.97 252.53,390.84 248.41,390.12 244.31,389.41 240.19,388.66 236.06,387.69 231.97,386.78 227.84,386 226.06,385.78 223.72,385.47 219.62,385.69 218.81,385.78 215.5,386.12 211.41,386.69 207.28,387.28 203.16,387.53 199.06,387.84 194.94,388.22 190.81,388.75 186.72,389.75 182.66,390.97 182.59,391 178.47,392.22 174.38,393.34 170.25,394.16 166.12,395 162.03,395.84 160.44,396.22 157.91,396.75 153.78,397.59 149.69,398.41 145.56,399.19 141.44,399.97 137.34,400.94 135.19,401.47 133.22,401.94 129.12,402.94 125,403.94 120.88,404.84 116.78,405.69 112.66,406.5 111,406.78 108.53,407.16 104.44,407.69 100.31,408.19 96.188,408.72 92.094,409.25 87.969,410.03 83.844,410.84 79.75,411.72 77.656,412.16 75.625,412.53 71.5,413.06 67.406,413.62 63.281,414.19 59.188,414.84 55.062,415.69 50.938,416.66 47.5,417.53 46.844,417.72 42.719,418.78 38.594,419.84 34.5,420.91 30.375,422 26.531,422.97 26.25,423.03 22.156,423.88 18.031,424.78 " stroke="red" stroke-width="0.96875" stroke-linecap="round" stroke-linejoin="round" />
<polyline points="303.75,399.97 304.62,399.09 306.38,399.09 307.25,399.97 307.25,401.72 306.38,402.59 303.75,402.59 303.75,404.34 307.25,404.34 " stroke="red" stroke-width="0.71875" stroke-linecap="round" stroke-linejoin="round" />
<polyline points="313.38,403.47 312.5,404.34 310.75,404.34 309.88,403.47 309.88,399.97 310.75,399.09 312.5,399.09 313.38,399.97 313.38,400.84 312.5,401.72 309.88,401.72 " stroke="red" stroke-width="0.71875" stroke-linecap="round" stroke-linejoin="round" />
<polyline points="317.75,404.34 316,401.72 319.5,401.72 319.5,404.34 319.5,399.09 " stroke="red" stroke-width="0.71875" stroke-linecap="round" stroke-linejoin="round" />
<polygon points="323,404.34 322.12,403.47 322.12,399.97 323,399.09 324.75,399.09 325.62,399.97 325.62,403.47 324.75,404.34 " stroke="red" stroke-width="0.71875" stroke-linejoin="round" />
<polyline points="594,359.69 589.88,360 586.47,360.25 585.78,360.31 581.66,360.84 577.53,361.47 573.44,362.19 569.31,362.97 565.19,363.78 561.09,364.72 558.66,365.28 556.97,365.69 552.88,366.72 548.75,367.72 544.62,368.75 540.53,369.81 538.25,370.38 536.41,370.81 532.28,371.81 528.19,372.78 524.06,373.75 519.94,374.66 516,375.47 515.84,375.5 511.72,376.25 507.59,376.88 503.5,377.34 499.38,377.66 495.25,377.81 491.16,377.84 487.03,377.69 482.91,377.34 478.81,376.91 474.69,376.34 470.56,375.72 469.25,375.47 466.47,374.88 462.34,373.91 458.25,372.72 454.12,371.41 451.06,370.38 450,369.94 445.91,368.19 441.78,366.41 438.91,365.28 437.66,364.75 433.56,363.84 429.44,363.34 425.31,363.12 421.22,363.06 417.09,362.53 412.97,362.19 408.88,362.12 404.75,362.47 400.62,364.12 398.25,365.28 396.53,366.12 392.41,368.25 388.31,370.38 384.19,371.91 380.06,373 375.97,373.62 371.84,373.84 367.72,373.25 363.62,372.47 359.5,371.56 355.38,370.66 353.56,370.38 351.28,370 347.16,369.41 343.03,368.91 338.94,368.53 334.81,368.44 326.59,368.44 322.47,368.47 319.5,368.44 " stroke="red" stroke-width="0.96875" stroke-linecap="round" stroke-linejoin="round" />
<polyline points="292.53,366.91 289.56,366.69 285.44,366.53 281.34,366.38 277.22,366.22 273.09,366.03 269,365.75 264.88,365.38 264.03,365.28 260.75,364.94 256.66,364.44 252.53,363.84 248.41,363.25 244.31,362.66 240.19,362.06 236.06,361.5 231.97,360.97 227.84,360.5 225.47,360.25 223.72,360.06 219.62,359.66 215.5,359.22 211.41,358.78 207.28,358.41 203.16,358.38 199.06,358.44 194.94,358.56 190.81,358.66 186.72,358.62 182.59,358.56 178.47,358.47 174.38,358.41 170.25,358.28 166.12,358.22 162.03,358.16 157.91,358.22 153.78,358.5 149.69,358.94 145.56,359.53 141.62,360.25 141.44,360.28 137.34,361.09 133.22,362.06 129.12,363.28 125,364.78 123.94,365.28 120.88,366.81 116.78,369.03 114.44,370.38 112.66,371.25 108.53,373.38 104.44,375.44 104.38,375.47 100.31,377.41 96.188,379.41 93.75,380.59 92.094,381.31 87.969,382.97 83.844,384.5 80.25,385.78 79.75,385.91 75.625,387.12 71.5,388.34 67.406,389.53 63.281,390.72 62.5,390.97 59.188,391.88 55.062,393.03 50.938,394.19 46.844,395.41 44.156,396.22 42.719,396.62 38.594,397.84 34.5,399.12 30.375,400.44 27.094,401.47 26.25,401.72 22.156,402.84 18.031,404.03 " stroke="red" stroke-width="0.96875" stroke-linecap="round" stroke-linejoin="round" />
<polyline points="295.53,366.28 296.41,365.41 298.16,365.41 299.03,366.28 299.03,368.03 298.16,368.91 295.53,368.91 295.53,370.66 299.03,370.66 " stroke="red" stroke-width="0.71875" stroke-linecap="round" stroke-linejoin="round" />
<polyline points="301.66,370.66 305.16,370.66 303.41,365.41 " stroke="red" stroke-width="0.71875" stroke-linecap="round" stroke-linejoin="round" />
<polygon points="308.66,370.66 307.78,369.78 307.78,366.28 308.66,365.41 310.41,365.41 311.28,366.28 311.28,369.78 310.41,370.66 " stroke="red" stroke-width="0.71875" stroke-linejoin="round" />
<polygon points="314.78,370.66 313.91,369.78 313.91,366.28 314.78,365.41 316.53,365.41 317.41,366.28 317.41,369.78 316.53,370.66 " stroke="red" stroke-width="0.71875" stroke-linejoin="round" />
<polyline points="594,304.59 589.88,304.94 585.78,305.12 581.66,305.78 577.53,306.41 574.88,306.72 573.44,306.84 569.31,307.03 566.78,306.72 565.19,306.5 561.09,305.62 556.97,304.62 552.88,303.56 548.75,302.69 545.97,302 544.62,301.66 540.53,300.38 536.41,298.69 534.19,297.31 532.28,296.06 528.19,292.75 528.06,292.62 524.06,289.5 522.16,287.97 519.94,286.34 515.84,284.16 514.28,283.34 511.72,282.12 507.59,280.22 504.38,278.75 503.5,278.34 499.38,276.59 495.25,275 492.97,274.16 491.16,273.44 487.03,271.88 482.91,269.97 482.06,269.59 478.81,268.34 474.69,267 470.56,265.88 467.16,265.03 466.47,264.88 462.34,263.91 458.25,263.03 454.12,262.22 450,261.62 445.91,261.22 441.78,260.97 437.66,260.88 433.56,261.16 429.44,261.59 425.31,262.22 421.22,263 417.09,263.84 412.97,264.81 412.16,265.03 408.88,265.94 404.75,267.25 400.62,268.78 398.72,269.59 396.53,270.66 392.41,272.91 390.31,274.16 388.31,275.47 384.19,277.78 382.41,278.75 380.06,280.03 375.97,282.19 373.59,283.34 371.84,284.25 367.72,286.25 364.03,287.97 363.62,288.19 359.5,290.12 355.38,292.06 354.09,292.62 351.28,293.91 347.16,295.88 344.5,297.31 343.03,298.09 338.94,300.62 337.25,302 334.81,303.94 331.62,306.72 330.69,307.47 328.84,309.03 " stroke="red" stroke-width="0.96875" stroke-linecap="round" stroke-linejoin="round" />
<polyline points="314.56,318.47 314.25,318.66 310.19,321 310.12,321.03 306.03,323.16 301.91,324.94 299.66,325.81 297.78,326.44 293.69,327.62 289.56,328.56 285.44,329.28 281.34,329.84 277.22,330.31 273.94,330.66 273.09,330.72 269,331.31 264.88,331.78 260.75,332.16 256.66,332.38 252.53,332.22 248.41,331.97 244.31,331.75 240.19,331.59 236.06,331.91 231.97,332.28 227.84,332.59 223.72,332.81 219.62,332.53 215.5,332.19 211.41,331.81 207.28,331.44 203.16,331.09 199.06,330.69 198.5,330.66 194.94,330.28 190.81,329.94 186.72,329.88 182.59,329.91 178.47,330 174.38,330.09 170.25,330.16 166.12,330.19 157.91,330.19 153.78,330.16 149.69,330.06 145.56,329.94 141.44,329.72 137.34,329.28 133.22,328.84 129.12,328.41 125,328.03 120.88,327.91 116.78,327.84 108.53,327.84 104.44,327.72 100.31,327.59 96.188,327.53 92.094,327.59 87.969,327.91 83.844,328.38 79.75,329.09 75.625,330.06 73.875,330.66 71.5,332.12 67.406,335.44 67.312,335.5 63.5,340.41 63.281,340.75 60.594,345.31 59.188,347.72 57.656,350.28 55.062,353.25 53.281,355.25 50.938,357.38 47.656,360.25 46.844,360.88 42.719,363.78 40.656,365.28 38.594,366.59 34.5,369.22 32.688,370.38 30.375,371.56 26.25,373.69 22.25,375.47 22.156,375.5 18.031,377.06 " stroke="red" stroke-width="0.96875" stroke-linecap="round" stroke-linejoin="round" />
<polyline points="311.97,312 312.84,311.12 314.59,311.12 315.47,312 315.47,313.75 314.59,314.62 311.97,314.62 311.97,316.38 315.47,316.38 " stroke="red" stroke-width="0.71875" stroke-linecap="round" stroke-linejoin="round" />
<polyline points="318.09,316.38 321.59,316.38 319.84,311.12 " stroke="red" stroke-width="0.71875" stroke-linecap="round" stroke-linejoin="round" />
<polyline points="327.72,315.5 326.84,316.38 325.09,316.38 324.22,315.5 324.22,312 325.09,311.12 326.84,311.12 327.72,312 327.72,312.88 326.84,313.75 324.22,313.75 " stroke="red" stroke-width="0.71875" stroke-linecap="round" stroke-linejoin="round" />
<polygon points="331.22,316.38 330.34,315.5 330.34,312 331.22,311.12 332.97,311.12 333.84,312 333.84,315.5 332.97,316.38 " stroke="red" stroke-width="0.71875" stroke-linejoin="round" />
<polyline points="293.72,247 293.69,247.03 289.56,250.19 287.78,251.5 285.44,253.19 281.47,256 281.34,256.09 277.22,258.81 274.56,260.5 273.09,261.41 269,263.41 264.91,265.03 264.88,265.06 260.75,266.38 256.66,267.62 252.53,269.38 252.03,269.59 248.41,271.16 244.31,272.94 241.53,274.16 240.19,274.78 236.06,276.31 231.97,277.78 229.12,278.75 227.84,279.16 223.72,280.41 219.62,282.03 216.5,283.34 215.5,283.75 211.41,285.28 207.28,286.62 203.16,286.75 199.06,286.53 194.94,286.19 190.81,285.81 186.72,285.94 182.59,286.06 178.47,286.16 175.5,286.16 " stroke="red" stroke-width="0.96875" stroke-linecap="round" stroke-linejoin="round" />
<polyline points="148.56,282.25 145.56,281.72 141.44,280.97 137.34,280.16 133.22,279.41 129.12,278.78 128.88,278.75 125,278.19 120.88,277.97 116.78,277.97 112.66,278.16 108.53,278.53 105.34,278.75 104.44,278.81 100.31,279.25 96.188,279.97 92.094,281.06 87.969,282.91 87.125,283.34 83.844,284.78 79.75,286.75 77.375,287.97 75.625,288.72 71.5,290.59 67.406,292.56 67.25,292.62 63.281,293.94 59.188,295.25 55.062,296.41 51.812,297.31 50.938,297.5 46.844,298.53 42.719,299.62 38.594,300.91 35.406,302 34.5,302.28 30.375,303.75 26.25,305.34 22.625,306.72 22.156,306.91 18.031,308.81 " stroke="red" stroke-width="0.96875" stroke-linecap="round" stroke-linejoin="round" />
<polyline points="151.53,282.72 152.41,281.84 154.16,281.84 155.03,282.72 155.03,284.47 154.16,285.34 151.53,285.34 151.53,287.09 155.03,287.09 " stroke="red" stroke-width="0.71875" stroke-linecap="round" stroke-linejoin="round" />
<polygon points="158.53,287.09 157.66,286.22 157.66,285.34 158.53,284.47 160.28,284.47 161.16,285.34 161.16,286.22 160.28,287.09 " stroke="red" stroke-width="0.71875" stroke-linejoin="round" />
<polyline points="158.53,284.47 157.66,283.59 157.66,282.72 158.53,281.84 160.28,281.84 161.16,282.72 161.16,283.59 160.28,284.47 " stroke="red" stroke-width="0.71875" stroke-linecap="round" stroke-linejoin="round" />
<polyline points="163.78,286.22 164.66,287.09 166.41,287.09 167.28,286.22 167.28,285.34 163.78,281.84 167.28,281.84 " stroke="red" stroke-width="0.71875" stroke-linecap="round" stroke-linejoin="round" />
<polygon points="170.78,287.09 169.91,286.22 169.91,282.72 170.78,281.84 172.53,281.84 173.41,282.72 173.41,286.22 172.53,287.09 " stroke="red" stroke-width="0.71875" stroke-linejoin="round" />
</g>
</svg>
