<?xml version="1.0" encoding="ISO-8859-1" standalone="no"?>
<!DOCTYPE svg PUBLIC "-//W3C//DTD SVG 1.1//EN" "http://www.w3.org/Graphics/SVG/1.1/DTD/svg11.dtd">
<svg version="1.1" baseProfile="full" id="body" width="900px" height="600px" viewBox="0 0.2 1 0.55" preserveAspectRatio="none" xmlns="http://www.w3.org/2000/svg" xmlns:xlink="http://www.w3.org/1999/xlink" xmlns:ev="http://www.w3.org/2001/xml-events">
<title>SVG drawing</title>
<desc>This was produced by version 4.2 of GNU libplot, a free library for exporting 2-D vector graphics.</desc>
<rect id="background" x="0" y="0" width="1" height="1" stroke="none" fill="none"/>
<g id="content" transform="translate(-0.03125,1.1875) scale(1,-1) scale(0.0017361) " xml:space="preserve" stroke="black" stroke-linecap="butt" stroke-linejoin="miter" stroke-miterlimit="10.433" stroke-dasharray="none" stroke-dashoffset="0" stroke-opacity="1" fill="none" fill-rule="even-odd" fill-opacity="1" font-style="normal" font-variant="normal" font-weight="normal" font-stretch="normal" font-size-adjust="none" letter-spacing="normal" word-spacing="normal" text-anchor="start">
<polyline points="43.531,568.66 43.531,568.62 42.719,567.47 39.219,561.84 38.594,561 34.5,555.22 34.406,555.12 33.531,553.78 " stroke="red" stroke-width="0.96875" stroke-linecap="round" stroke-linejoin="round" />
<polyline points="27.125,544.31 26.25,543.09 25.344,541.91 22.156,537.59 20.969,535.38 18.312,528.97 18.031,528.47 " stroke="red" stroke-width="0.96875" stroke-linecap="round" stroke-linejoin="round" />
<polyline points="19.875,547.28 20.75,546.41 22.5,546.41 23.375,547.28 23.375,549.03 22.5,549.91 19.875,549.91 19.875,551.66 23.375,551.66 " stroke="red" stroke-width="0.71875" stroke-linecap="round" stroke-linejoin="round" />
<polyline points="26,550.78 26.875,551.66 28.625,551.66 29.5,550.78 29.5,549.91 26,546.41 29.5,546.41 " stroke="red" stroke-width="0.71875" stroke-linecap="round" stroke-linejoin="round" />
<polyline points="32.125,550.78 33,551.66 34.75,551.66 35.625,550.78 35.625,549.91 32.125,546.41 35.625,546.41 " stroke="red" stroke-width="0.71875" stroke-linecap="round" stroke-linejoin="round" />
<polygon points="39.125,551.66 38.25,550.78 38.25,547.28 39.125,546.41 40.875,546.41 41.75,547.28 41.75,550.78 40.875,551.66 " stroke="red" stroke-width="0.71875" stroke-linejoin="round" />
<polyline points="395.78,568.66 395.78,568.62 396.53,567.53 399.5,564.72 " stroke="red" stroke-width="0.96875" stroke-linecap="round" stroke-linejoin="round" />
<polyline points="426.03,565.19 429.44,567.75 430.41,568.62 430.44,568.66 " stroke="red" stroke-width="0.96875" stroke-linecap="round" stroke-linejoin="round" />
<polyline points="402.47,558.72 403.34,557.84 405.09,557.84 405.97,558.72 405.97,560.47 405.09,561.34 402.47,561.34 402.47,563.09 405.97,563.09 " stroke="red" stroke-width="0.71875" stroke-linecap="round" stroke-linejoin="round" />
<polyline points="408.59,562.22 409.47,563.09 411.22,563.09 412.09,562.22 412.09,561.34 408.59,557.84 412.09,557.84 " stroke="red" stroke-width="0.71875" stroke-linecap="round" stroke-linejoin="round" />
<polyline points="414.72,562.22 415.59,563.09 417.34,563.09 418.22,562.22 418.22,561.34 414.72,557.84 418.22,557.84 " stroke="red" stroke-width="0.71875" stroke-linecap="round" stroke-linejoin="round" />
<polygon points="421.72,563.09 420.84,562.22 420.84,558.72 421.72,557.84 423.47,557.84 424.34,558.72 424.34,562.22 423.47,563.09 " stroke="red" stroke-width="0.71875" stroke-linejoin="round" />
<polyline points="75.375,568.66 75.375,568.62 73.125,561.84 71.5,557.75 70.438,555.12 67.406,549.5 66.688,548.47 63.281,545 59.406,541.91 59.188,541.72 56.219,539.44 " stroke="red" stroke-width="0.96875" stroke-linecap="round" stroke-linejoin="round" />
<polyline points="46.5,530 45.656,528.97 42.719,525.78 39.344,522.59 38.594,521.91 34.5,517.62 33.375,516.28 30.375,512.81 28.281,510.06 26.25,507.69 22.938,503.88 22.156,503.31 18.031,500.66 " stroke="red" stroke-width="0.96875" stroke-linecap="round" stroke-linejoin="round" />
<polyline points="40.438,532.97 41.312,532.09 43.062,532.09 43.938,532.97 43.938,534.72 43.062,535.59 40.438,535.59 40.438,537.34 43.938,537.34 " stroke="red" stroke-width="0.71875" stroke-linecap="round" stroke-linejoin="round" />
<polyline points="46.562,536.47 47.438,537.34 49.188,537.34 50.062,536.47 50.062,535.59 46.562,532.09 50.062,532.09 " stroke="red" stroke-width="0.71875" stroke-linecap="round" stroke-linejoin="round" />
<polygon points="53.562,537.34 52.688,536.47 52.688,535.59 53.562,534.72 55.312,534.72 56.188,535.59 56.188,536.47 55.312,537.34 " stroke="red" stroke-width="0.71875" stroke-linejoin="round" />
<polyline points="53.562,534.72 52.688,533.84 52.688,532.97 53.562,532.09 55.312,532.09 56.188,532.97 56.188,533.84 55.312,534.72 " stroke="red" stroke-width="0.71875" stroke-linecap="round" stroke-linejoin="round" />
<polygon points="59.688,537.34 58.812,536.47 58.812,532.97 59.688,532.09 61.438,532.09 62.312,532.97 62.312,536.47 61.438,537.34 " stroke="red" stroke-width="0.71875" stroke-linejoin="round" />
<polyline points="357,568.66 357,568.62 357.22,561.84 358.28,555.12 359.5,550.97 360.25,548.47 362.91,541.91 363.62,540.5 366.38,535.38 367.72,533.44 371.34,528.97 371.84,528.47 375.97,526.12 380.06,524.91 384.19,524.47 388.31,524.69 388.62,524.75 " stroke="red" stroke-width="0.96875" stroke-linecap="round" stroke-linejoin="round" />
<polyline points="411.22,533.69 412.97,534.59 414.38,535.38 417.09,536.97 421.22,539.44 424.62,541.91 425.31,542.41 429.44,545.5 433.41,548.47 433.56,548.59 437.66,551.97 440.97,555.12 441.78,556.06 445.91,561.25 446.31,561.84 450,566.94 451.25,568.62 451.28,568.66 " stroke="red" stroke-width="0.96875" stroke-linecap="round" stroke-linejoin="round" />
<polyline points="391.59,527.22 392.47,526.34 394.22,526.34 395.09,527.22 395.09,528.97 394.22,529.84 391.59,529.84 391.59,531.59 395.09,531.59 " stroke="red" stroke-width="0.71875" stroke-linecap="round" stroke-linejoin="round" />
<polyline points="397.72,530.72 398.59,531.59 400.34,531.59 401.22,530.72 401.22,529.84 397.72,526.34 401.22,526.34 " stroke="red" stroke-width="0.71875" stroke-linecap="round" stroke-linejoin="round" />
<polygon points="404.72,531.59 403.84,530.72 403.84,529.84 404.72,528.97 406.47,528.97 407.34,529.84 407.34,530.72 406.47,531.59 " stroke="red" stroke-width="0.71875" stroke-linejoin="round" />
<polyline points="404.72,528.97 403.84,528.09 403.84,527.22 404.72,526.34 406.47,526.34 407.34,527.22 407.34,528.09 406.47,528.97 " stroke="red" stroke-width="0.71875" stroke-linecap="round" stroke-linejoin="round" />
<polygon points="410.84,531.59 409.97,530.72 409.97,527.22 410.84,526.34 412.59,526.34 413.47,527.22 413.47,530.72 412.59,531.59 " stroke="red" stroke-width="0.71875" stroke-linejoin="round" />
<polyline points="99.812,568.66 99.781,568.62 96.188,565.34 93.219,561.84 92.094,560.47 89.156,555.12 87.969,552.44 86.438,548.47 83.844,542.34 83.656,541.91 80.156,535.38 79.75,534.81 76.562,531.09 " stroke="red" stroke-width="0.96875" stroke-linecap="round" stroke-linejoin="round" />
<polyline points="58.562,521.66 55.062,518.59 52.656,516.28 50.938,514.75 46.844,510.94 45.875,510.06 42.719,507.34 39.156,503.88 38.594,503.44 34.5,500.16 31.5,497.75 30.375,496.91 26.25,493.94 22.469,491.69 22.156,491.5 18.031,489.03 " stroke="red" stroke-width="0.96875" stroke-linecap="round" stroke-linejoin="round" />
<polyline points="56.906,524.62 57.781,523.75 59.531,523.75 60.406,524.62 60.406,526.38 59.531,527.25 56.906,527.25 56.906,529 60.406,529 " stroke="red" stroke-width="0.71875" stroke-linecap="round" stroke-linejoin="round" />
<polyline points="63.031,528.12 63.906,529 65.656,529 66.531,528.12 66.531,527.25 65.656,526.38 64.781,526.38 65.656,526.38 66.531,525.5 66.531,524.62 65.656,523.75 63.906,523.75 63.031,524.62 " stroke="red" stroke-width="0.71875" stroke-linecap="round" stroke-linejoin="round" />
<polyline points="70.906,529 69.156,526.38 72.656,526.38 72.656,529 72.656,523.75 " stroke="red" stroke-width="0.71875" stroke-linecap="round" stroke-linejoin="round" />
<polygon points="76.156,529 75.281,528.12 75.281,524.62 76.156,523.75 77.906,523.75 78.781,524.62 78.781,528.12 77.906,529 " stroke="red" stroke-width="0.71875" stroke-linejoin="round" />
<polyline points="324.78,568.66 324.78,568.62 325.59,561.84 326.59,556.5 326.81,555.12 328.28,548.47 330.16,541.91 330.69,540.38 332.56,535.38 334.81,530.66 335.69,528.97 338.94,524.53 340.75,522.59 343.03,520.31 346.97,516.28 347.16,516.09 351.28,512.06 353.34,510.06 355.38,508.28 359.5,505.47 362.84,503.88 363.62,503.62 367.72,502.72 371.84,502.28 375.97,502.41 380.06,502.97 383.22,503.69 " stroke="red" stroke-width="0.96875" stroke-linecap="round" stroke-linejoin="round" />
<polyline points="405.62,513.16 408.88,515.19 410.5,516.28 412.97,517.91 417.09,520.59 420.09,522.59 421.22,523.34 425.31,526.47 428.28,528.97 429.44,529.91 433.56,533.34 436.03,535.38 437.66,536.75 441.78,540.03 443.97,541.91 445.91,543.62 450,547.66 450.81,548.47 454.12,552.19 456.72,555.12 458.25,557 462.12,561.84 462.34,562.09 466.47,567.22 467.62,568.62 467.66,568.66 " stroke="red" stroke-width="0.96875" stroke-linecap="round" stroke-linejoin="round" />
<polyline points="386.03,506.66 386.91,505.78 388.66,505.78 389.53,506.66 389.53,508.41 388.66,509.28 386.03,509.28 386.03,511.03 389.53,511.03 " stroke="red" stroke-width="0.71875" stroke-linecap="round" stroke-linejoin="round" />
<polyline points="392.16,510.16 393.03,511.03 394.78,511.03 395.66,510.16 395.66,509.28 394.78,508.41 393.91,508.41 394.78,508.41 395.66,507.53 395.66,506.66 394.78,505.78 393.03,505.78 392.16,506.66 " stroke="red" stroke-width="0.71875" stroke-linecap="round" stroke-linejoin="round" />
<polyline points="400.03,511.03 398.28,508.41 401.78,508.41 401.78,511.03 401.78,505.78 " stroke="red" stroke-width="0.71875" stroke-linecap="round" stroke-linejoin="round" />
<polygon points="405.28,511.03 404.41,510.16 404.41,506.66 405.28,505.78 407.03,505.78 407.91,506.66 407.91,510.16 407.03,511.03 " stroke="red" stroke-width="0.71875" stroke-linejoin="round" />
<polyline points="131.12,568.66 131.12,568.62 129.12,562.31 128.97,561.84 126.44,555.12 125,552.62 120.88,550.59 116.78,549.53 112.66,548.84 110.75,548.47 108.53,548.03 104.44,545.19 101.22,541.91 100.31,540.91 96.5,535.38 96.188,534.94 92.688,528.97 92.094,528.19 87.969,523.94 87.281,523.38 " stroke="red" stroke-width="0.96875" stroke-linecap="round" stroke-linejoin="round" />
<polyline points="70.094,513.91 67.406,512.38 64.094,510.06 63.281,509.44 59.188,505.91 56.719,503.88 55.062,502.66 50.938,499.78 47.938,497.75 46.844,497.06 42.719,494.47 38.781,491.69 38.594,491.56 34.5,488.75 30.375,486 29.906,485.69 26.25,483.31 22.156,480.81 20.5,479.75 18.031,478.25 " stroke="red" stroke-width="0.96875" stroke-linecap="round" stroke-linejoin="round" />
<polyline points="69.25,516.88 70.125,516 71.875,516 72.75,516.88 72.75,518.62 71.875,519.5 69.25,519.5 69.25,521.25 72.75,521.25 " stroke="red" stroke-width="0.71875" stroke-linecap="round" stroke-linejoin="round" />
<polyline points="77.125,521.25 75.375,518.62 78.875,518.62 78.875,521.25 78.875,516 " stroke="red" stroke-width="0.71875" stroke-linecap="round" stroke-linejoin="round" />
<polygon points="82.375,521.25 81.5,520.38 81.5,516.88 82.375,516 84.125,516 85,516.88 85,520.38 84.125,521.25 " stroke="red" stroke-width="0.71875" stroke-linejoin="round" />
<polygon points="88.5,521.25 87.625,520.38 87.625,516.88 88.5,516 90.25,516 91.125,516.88 91.125,520.38 90.25,521.25 " stroke="red" stroke-width="0.71875" stroke-linejoin="round" />
<polyline points="285.09,568.66 285.12,568.62 285.44,568.25 289.56,562.72 290,561.84 293.56,555.12 293.69,554.88 296.88,548.47 297.78,546.81 300.41,541.91 301.91,539.38 304.25,535.38 306.03,532.75 308.56,528.97 310.12,526.88 313.25,522.59 314.25,521.34 318.19,516.28 318.34,516.09 322.47,511.31 323.59,510.06 326.59,507.09 330.19,503.88 330.69,503.47 334.81,500.31 338.41,497.75 338.94,497.41 343.03,494.47 347.16,491.91 347.56,491.69 351.28,489.81 355.38,488.19 359.5,487.09 363.62,486.31 366.59,485.97 " stroke="red" stroke-width="0.96875" stroke-linecap="round" stroke-linejoin="round" />
<polyline points="393.53,490.72 395.34,491.69 396.53,492.31 400.62,494.69 404.75,497.19 405.59,497.75 408.88,500.03 412.97,503.19 413.84,503.88 417.09,506.22 421.22,509.12 422.69,510.06 425.31,511.72 429.44,514.5 431.84,516.28 433.56,517.62 437.66,521.09 439.47,522.59 441.78,524.5 445.91,528.03 446.97,528.97 450,531.28 454.12,534.69 454.94,535.38 458.25,538.31 462,541.91 462.34,542.25 466.47,546.5 468.31,548.47 470.56,550.97 474.62,555.12 474.69,555.19 478.81,559.19 481.56,561.84 482.91,563.16 487.03,567.19 488.53,568.62 488.56,568.66 " stroke="red" stroke-width="0.96875" stroke-linecap="round" stroke-linejoin="round" />
<polyline points="369.56,484.38 370.44,483.5 372.19,483.5 373.06,484.38 373.06,486.12 372.19,487 369.56,487 369.56,488.75 373.06,488.75 " stroke="red" stroke-width="0.71875" stroke-linecap="round" stroke-linejoin="round" />
<polyline points="377.44,488.75 375.69,486.12 379.19,486.12 379.19,488.75 379.19,483.5 " stroke="red" stroke-width="0.71875" stroke-linecap="round" stroke-linejoin="round" />
<polygon points="382.69,488.75 381.81,487.88 381.81,484.38 382.69,483.5 384.44,483.5 385.31,484.38 385.31,487.88 384.44,488.75 " stroke="red" stroke-width="0.71875" stroke-linejoin="round" />
<polygon points="388.81,488.75 387.94,487.88 387.94,484.38 388.81,483.5 390.56,483.5 391.44,484.38 391.44,487.88 390.56,488.75 " stroke="red" stroke-width="0.71875" stroke-linejoin="round" />
<polyline points="520,568.66 519.97,568.62 519.94,568.62 515.84,565.81 511.72,563.06 509.91,561.84 507.59,560.31 503.5,557.5 500.44,555.12 499.38,554.28 495.25,550.91 492.41,548.47 491.16,547.41 487.03,543.81 484.78,541.91 482.91,540.34 478.81,536.75 477.25,535.38 474.69,533.16 470.56,529.62 469.81,528.97 466.47,526.34 462.34,523.06 461.78,522.59 458.25,519.59 454.44,516.28 454.12,516 450,512.56 446.91,510.06 445.91,509.22 441.78,506.06 438.72,503.88 437.66,503.16 433.56,500.62 429.44,498.12 428.81,497.75 425.31,495.5 421.22,492.78 419.75,491.69 417.09,489.72 412.97,486.91 411.06,485.69 408.88,484.34 404.75,481.97 401.25,479.75 400.62,479.34 396.53,476.75 392.41,474.5 391,473.84 388.31,472.59 384.19,471.34 380.06,470.25 375.97,469.31 371.84,468.53 369.09,468 367.72,467.72 363.62,467.09 359.5,466.72 355.38,466.69 351.28,467.41 349.28,468 347.16,468.69 343.03,470.56 338.94,472.88 337.25,473.84 334.81,475.31 330.69,478.03 328.22,479.75 326.59,480.59 322.47,482.91 318.34,485.16 317.5,485.69 314.25,487.81 310.12,490.94 309.25,491.69 306.03,494.69 302.72,497.75 301.91,498.5 297.78,502.12 295.72,503.88 293.69,505.75 289.56,509.91 289.44,510.06 285.44,515.66 284.97,516.28 283.72,517.88 " stroke="red" stroke-width="0.96875" stroke-linecap="round" stroke-linejoin="round" />
<polyline points="275.19,527.31 273.47,528.97 273.09,529.34 269,534.75 268.47,535.38 264.88,540.09 263.38,541.91 260.75,544.97 257.38,548.47 256.66,549.22 252.53,552.81 249.66,555.12 248.41,556.16 244.31,559.34 240.78,561.84 240.19,562.25 236.06,564.91 231.97,567.22 229.19,568.62 229.12,568.66 " stroke="red" stroke-width="0.96875" stroke-linecap="round" stroke-linejoin="round" />
<polyline points="188.81,568.66 188.75,568.62 186.72,567.88 182.59,566.38 178.47,565.06 174.38,563.97 170.25,563.16 166.12,562.47 162.03,561.91 161.31,561.84 157.91,561.47 156.19,561.84 153.78,562.31 149.69,562.75 145.56,562.34 144.28,561.84 141.44,560.44 138.94,555.12 137.34,550.28 136.72,548.47 133.91,541.91 133.22,540.81 129.12,536.06 128.19,535.38 125,533.5 120.88,532.72 116.78,532 112.66,530.94 108.53,529.19 108.31,528.97 104.44,524.38 103.06,522.59 100.31,519.19 97.844,516.28 96.188,514.56 92.094,510.88 90.375,510.06 87.969,509 83.844,507.56 79.75,506.28 75.625,504.88 73.938,503.88 71.5,501.88 67.406,498.34 66.719,497.75 63.281,494.84 59.188,491.78 59,491.69 55.062,489.41 50.938,487.19 48.094,485.69 46.844,485.03 42.719,482.78 38.594,480.34 37.625,479.75 34.5,477.56 30.375,474.84 28.812,473.84 26.25,472.22 22.156,470.12 18.031,468.12 " stroke="red" stroke-width="0.96875" stroke-linecap="round" stroke-linejoin="round" />
<polyline points="269.28,520.84 270.16,519.97 271.91,519.97 272.78,520.84 272.78,522.59 271.91,523.47 269.28,523.47 269.28,525.22 272.78,525.22 " stroke="red" stroke-width="0.71875" stroke-linecap="round" stroke-linejoin="round" />
<polyline points="277.16,525.22 275.41,522.59 278.91,522.59 278.91,525.22 278.91,519.97 " stroke="red" stroke-width="0.71875" stroke-linecap="round" stroke-linejoin="round" />
<polyline points="285.03,524.34 284.16,525.22 282.41,525.22 281.53,524.34 281.53,520.84 282.41,519.97 284.16,519.97 285.03,520.84 285.03,521.72 284.16,522.59 281.53,522.59 " stroke="red" stroke-width="0.71875" stroke-linecap="round" stroke-linejoin="round" />
<polygon points="288.53,525.22 287.66,524.34 287.66,520.84 288.53,519.97 290.28,519.97 291.16,520.84 291.16,524.34 290.28,525.22 " stroke="red" stroke-width="0.71875" stroke-linejoin="round" />
<polyline points="556.41,568.66 556.34,568.62 552.88,566.91 548.75,564.88 544.62,562.81 542.75,561.84 540.53,560.62 536.41,558.22 532.31,555.12 532.28,555.09 528.19,551.84 524.06,548.78 523.62,548.47 519.94,545.88 515.84,543.34 513.56,541.91 511.72,540.69 507.59,537.88 504.22,535.38 503.5,534.84 499.38,531.69 495.84,528.97 495.25,528.53 491.16,525.41 487.41,522.59 487.03,522.31 482.91,519.38 478.81,516.5 478.5,516.28 474.69,513.66 470.56,510.78 469.66,510.06 466.47,507.38 462.5,503.88 462.34,503.72 458.25,500 455.56,497.75 454.12,496.56 450,493.59 447.28,491.69 445.91,490.75 441.78,487.97 438.34,485.69 437.66,485.22 433.56,482.47 429.5,479.75 429.44,479.69 425.31,477 421.22,474.44 420.19,473.84 417.09,472.03 412.97,469.66 410.06,468 408.88,467.31 404.75,464.97 400.62,462.78 399.41,462.19 396.53,460.88 392.41,459.25 388.31,457.78 384.75,456.47 384.19,456.25 380.06,454.75 375.97,453.41 371.84,452.19 367.72,451.09 366.19,450.75 363.62,450.22 359.5,449.62 355.38,449.25 351.28,449.41 347.16,449.78 343.03,450.41 341.28,450.75 338.94,451.28 334.81,452.31 330.69,453.53 326.59,454.97 323,456.47 322.47,456.81 318.34,459.97 315.41,462.19 314.25,463.12 312.28,464.66 " stroke="red" stroke-width="0.96875" stroke-linecap="round" stroke-linejoin="round" />
<polyline points="300.44,474.09 297.78,476.47 294.19,479.75 293.69,480.22 289.56,484.16 287.94,485.69 285.44,488.22 282.19,491.69 281.34,492.66 277.22,497.41 276.94,497.75 273.09,502.28 271.41,503.88 269,506.09 264.88,509.69 264.47,510.06 260.75,513.38 257.53,516.28 256.66,517.12 252.53,520.5 249.78,522.59 248.41,523.62 244.31,526.41 240.19,528.84 239.88,528.97 236.06,530.41 231.97,531.62 227.84,532.53 223.72,533.09 219.62,533.28 215.5,533.25 211.41,533.06 207.28,532.81 203.16,532.69 199.06,532.69 194.94,532.78 190.81,533.06 186.72,533.84 182.59,534.66 178.53,535.38 178.47,535.41 174.38,536.03 170.25,536.81 166.12,537.22 162.03,537.22 157.91,536.62 155.81,535.38 153.78,533.94 149.69,528.97 145.56,524.38 143.78,522.59 141.44,520.66 137.34,518.66 133.22,517.03 131.19,516.28 129.12,515.56 125,514.09 120.88,512.84 116.78,511.31 114.16,510.06 112.66,509.28 108.53,506.72 105.47,503.88 104.44,503.03 100.31,499.78 97.375,497.75 96.188,496.97 92.094,494.56 87.969,493.03 84.469,491.69 83.844,491.44 79.75,489.44 75.625,487.09 73.625,485.69 71.5,484.25 67.406,481.72 63.625,479.75 63.281,479.56 59.188,477.5 55.062,475.5 51.719,473.84 50.938,473.44 46.844,471.22 42.719,468.97 41.094,468 38.594,466.47 34.5,464.09 30.969,462.19 30.375,461.88 26.25,459.78 22.156,458.06 18.031,456.47 " stroke="red" stroke-width="0.96875" stroke-linecap="round" stroke-linejoin="round" />
<polyline points="295.53,467.62 296.41,466.75 298.16,466.75 299.03,467.62 299.03,469.38 298.16,470.25 295.53,470.25 295.53,472 299.03,472 " stroke="red" stroke-width="0.71875" stroke-linecap="round" stroke-linejoin="round" />
<polyline points="301.66,467.62 302.53,466.75 304.28,466.75 305.16,467.62 305.16,469.38 304.28,470.25 301.66,470.25 301.66,472 305.16,472 " stroke="red" stroke-width="0.71875" stroke-linecap="round" stroke-linejoin="round" />
<polyline points="307.78,471.12 308.66,472 310.41,472 311.28,471.12 311.28,470.25 307.78,466.75 311.28,466.75 " stroke="red" stroke-width="0.71875" stroke-linecap="round" stroke-linejoin="round" />
<polygon points="314.78,472 313.91,471.12 313.91,467.62 314.78,466.75 316.53,466.75 317.41,467.62 317.41,471.12 316.53,472 " stroke="red" stroke-width="0.71875" stroke-linejoin="round" />
<polyline points="594,557.28 589.88,556.31 585.78,555.19 585.53,555.12 581.66,553.78 577.53,552.31 573.44,550.78 569.31,549.16 567.75,548.47 565.19,547.28 561.09,545.22 556.97,543.06 554.81,541.91 552.88,540.81 548.75,538.88 544.62,536.94 541.41,535.38 540.53,534.97 536.41,532.88 532.28,530.69 528.91,528.97 528.19,528.56 524.06,526.28 519.94,523.94 517.88,522.59 515.84,521.22 511.72,518.47 508.44,516.28 507.59,515.75 503.5,513 499.38,510.22 499.12,510.06 495.25,507.31 491.16,504.47 490.28,503.88 487.03,501.44 482.91,498.69 481.59,497.75 478.81,495.72 474.69,492.59 473.56,491.69 470.56,489.25 466.47,485.91 466.19,485.69 462.34,482.84 458.25,480.06 457.72,479.75 454.12,477.41 450,474.62 448.84,473.84 445.91,471.78 441.78,468.97 440.34,468 437.66,466.16 433.56,463.56 431.28,462.19 429.44,461.12 425.31,458.78 421.22,456.53 421.09,456.47 417.09,454.09 412.97,451.81 411,450.75 408.88,449.69 404.75,447.75 400.62,446.25 397.25,445.12 396.53,444.88 392.41,443.59 388.31,442.41 384.19,441.19 380.06,440.12 377.34,439.5 375.97,439.19 371.84,438.41 367.72,437.75 363.62,437.25 359.5,436.97 355.38,436.84 351.28,437.06 347.16,437.47 343.03,438.06 338.94,438.84 336.03,439.5 334.81,439.78 330.69,440.88 326.59,442.06 322.47,443.41 320.03,444.38 " stroke="red" stroke-width="0.96875" stroke-linecap="round" stroke-linejoin="round" />
<polyline points="302.84,453.81 301.91,454.47 299.25,456.47 297.78,457.56 293.69,460.75 291.78,462.19 289.56,463.94 285.44,466.78 283.66,468 281.34,469.69 277.22,472.72 275.72,473.84 273.09,475.94 269,478.88 267.69,479.75 264.88,481.62 260.75,484.06 257.59,485.69 256.66,486.19 252.53,487.81 248.41,489.22 244.31,490.38 240.19,491.38 238.78,491.69 236.06,492.31 231.97,493.09 227.84,493.78 223.72,494.34 219.62,494.94 215.5,495.53 211.41,496.16 207.28,496.91 204.66,497.75 203.16,498.25 199.06,499.75 194.94,501.34 190.81,502.97 188.44,503.88 186.72,504.56 182.59,506 178.47,507.22 174.38,508.09 170.25,508.34 166.12,508.09 162.03,507.25 157.91,505.88 153.78,504.06 153.38,503.88 149.69,502.31 145.56,500.53 141.44,498.81 138.75,497.75 137.34,497.19 133.22,495.59 129.12,493.97 125,492.38 123.38,491.69 120.88,490.66 116.78,488.78 112.66,486.78 110.5,485.69 108.53,484.69 104.44,482.59 100.31,480.66 98.344,479.75 96.188,478.69 92.094,476.66 87.969,474.44 86.906,473.84 83.844,472.12 79.75,469.88 76.156,468 75.625,467.72 71.5,465.81 67.406,463.97 63.469,462.19 63.281,462.12 59.188,460.19 55.062,458.16 51.625,456.47 50.938,456.12 46.844,453.94 42.719,451.81 40.656,450.75 38.594,449.66 34.5,447.56 30.375,445.56 29.344,445.12 26.25,443.66 22.156,442.25 18.031,440.84 " stroke="red" stroke-width="0.96875" stroke-linecap="round" stroke-linejoin="round" />
<polyline points="299.62,447.34 300.5,446.47 302.25,446.47 303.12,447.34 303.12,449.09 302.25,449.97 299.62,449.97 299.62,451.72 303.12,451.72 " stroke="red" stroke-width="0.71875" stroke-linecap="round" stroke-linejoin="round" />
<polyline points="305.75,447.34 306.62,446.47 308.38,446.47 309.25,447.34 309.25,449.09 308.38,449.97 305.75,449.97 305.75,451.72 309.25,451.72 " stroke="red" stroke-width="0.71875" stroke-linecap="round" stroke-linejoin="round" />
<polygon points="312.75,451.72 311.88,450.84 311.88,449.97 312.75,449.09 314.5,449.09 315.38,449.97 315.38,450.84 314.5,451.72 " stroke="red" stroke-width="0.71875" stroke-linejoin="round" />
<polyline points="312.75,449.09 311.88,448.22 311.88,447.34 312.75,446.47 314.5,446.47 315.38,447.34 315.38,448.22 314.5,449.09 " stroke="red" stroke-width="0.71875" stroke-linecap="round" stroke-linejoin="round" />
<polygon points="318.88,451.72 318,450.84 318,447.34 318.88,446.47 320.62,446.47 321.5,447.34 321.5,450.84 320.62,451.72 " stroke="red" stroke-width="0.71875" stroke-linejoin="round" />
<polyline points="594,526.12 589.88,525 585.78,524.34 581.66,523.12 579.97,522.59 577.53,521.75 573.44,520.16 569.31,518.41 565.19,516.59 564.47,516.28 561.09,514.81 556.97,513.16 552.88,511.56 549.44,510.06 548.75,509.72 544.62,507.69 540.53,505.59 537.25,503.88 536.41,503.41 532.28,501.53 528.19,499.66 524.06,497.75 519.94,495.66 515.84,493.53 512.25,491.69 511.72,491.41 507.59,489.12 503.5,486.84 501.5,485.69 499.38,484.44 495.25,482.06 491.19,479.75 491.16,479.72 487.03,477.44 482.91,474.69 481.69,473.84 478.81,471.78 474.69,468.81 473.53,468 470.56,465.84 466.47,463.44 464.31,462.19 462.34,461.09 458.25,458.78 454.12,456.47 454.09,456.47 450,453.91 445.91,451.34 444.94,450.75 441.78,448.78 437.66,446.31 435.5,445.12 433.56,444.03 429.44,441.78 425.31,439.62 425.12,439.5 421.22,437.47 417.09,435.47 413.69,433.97 412.97,433.66 408.88,431.97 404.75,430.44 400.62,429.06 398.62,428.44 396.53,427.75 392.41,426.53 388.31,425.44 384.19,424.47 380.06,423.66 375.97,422.97 371.84,422.38 367.72,422 363.62,421.78 359.5,421.75 355.38,421.88 351.28,422.22 347.16,422.75 345.97,422.97 343.03,423.44 338.94,424.22 334.81,425.31 330.69,426.56 327.72,427.56 " stroke="red" stroke-width="0.96875" stroke-linecap="round" stroke-linejoin="round" />
<polyline points="300.94,436.62 297.78,437.94 294.5,439.5 293.69,439.91 289.56,442.03 285.44,444.03 283.12,445.12 281.34,445.94 277.22,447.69 273.09,449.38 269.69,450.75 269,451.06 264.88,452.72 260.75,454.31 256.66,455.91 254.97,456.47 252.53,457.25 248.41,458.47 244.31,459.59 240.19,460.62 236.06,461.81 234.75,462.19 231.97,463 227.84,464.19 223.72,465.38 219.62,466.72 215.84,468 215.5,468.12 211.41,469.5 207.28,470.84 203.16,472.09 199.06,473.31 197.09,473.84 194.94,474.44 190.81,475.47 186.72,476.41 182.59,477.19 178.47,477.75 174.38,478.09 170.25,478.03 166.12,477.72 162.03,477.25 157.91,476.59 153.78,475.78 149.69,474.84 145.56,473.88 145.47,473.84 141.44,472.84 137.34,471.94 133.22,470.94 129.12,469.84 125,468.59 123.25,468 120.88,467.16 116.78,465.66 112.66,464.06 108.53,462.47 107.91,462.19 104.44,460.69 100.31,458.81 96.188,456.81 95.469,456.47 92.094,454.72 87.969,452.56 84.656,450.75 83.844,450.31 79.75,447.91 75.625,445.56 74.625,445.12 71.5,443.78 67.406,442.22 63.281,440.78 59.656,439.5 59.188,439.34 55.062,437.38 50.938,435.28 48.344,433.97 46.844,433.19 42.719,431.12 38.594,429.16 37.094,428.44 34.5,427.19 30.375,425.25 26.25,423.34 25.312,422.97 22.156,421.62 18.031,419.69 " stroke="red" stroke-width="0.96875" stroke-linecap="round" stroke-linejoin="round" />
<polyline points="303.75,430.16 304.62,429.28 306.38,429.28 307.25,430.16 307.25,431.91 306.38,432.78 303.75,432.78 303.75,434.53 307.25,434.53 " stroke="red" stroke-width="0.71875" stroke-linecap="round" stroke-linejoin="round" />
<polyline points="313.38,433.66 312.5,434.53 310.75,434.53 309.88,433.66 309.88,430.16 310.75,429.28 312.5,429.28 313.38,430.16 313.38,431.03 312.5,431.91 309.88,431.91 " stroke="red" stroke-width="0.71875" stroke-linecap="round" stroke-linejoin="round" />
<polyline points="317.75,434.53 316,431.91 319.5,431.91 319.5,434.53 319.5,429.28 " stroke="red" stroke-width="0.71875" stroke-linecap="round" stroke-linejoin="round" />
<polygon points="323,434.53 322.12,433.66 322.12,430.16 323,429.28 324.75,429.28 325.62,430.16 325.62,433.66 324.75,434.53 " stroke="red" stroke-width="0.71875" stroke-linejoin="round" />
<polyline points="594,469.97 589.88,471.97 585.78,473.72 581.66,473.31 577.53,472.75 573.44,472.19 569.31,471.66 565.19,471.72 561.09,471.72 556.97,471.62 552.88,471.31 548.75,470.5 544.62,469.47 540.53,468.22 539.84,468 536.41,466.78 532.28,465.06 528.19,463.34 525.53,462.19 524.06,461.56 519.94,459.81 515.84,458.19 511.72,456.62 511.28,456.47 507.59,455.12 503.5,453.75 499.38,452.97 495.25,452.09 491.16,450.97 490.53,450.75 487.03,449.41 482.91,446.78 480.28,445.12 478.81,444.22 474.69,441.81 470.56,439.75 470,439.5 466.47,438.16 462.34,436.62 458.25,435.06 455.47,433.97 454.12,433.34 450,430.94 445.91,428.59 445.62,428.44 441.78,426.22 437.66,424.06 435.44,422.97 433.56,422.03 429.44,420.09 425.31,418.31 423.44,417.53 421.22,416.59 417.09,414.94 412.97,413.38 409.66,412.16 408.88,411.81 404.75,410.16 400.62,408.53 396.53,406.97 396,406.78 392.41,405.41 388.31,403.94 384.19,402.78 380.06,401.81 378.41,401.47 375.97,400.94 371.84,400.19 367.72,399.47 363.62,398.81 359.5,398.25 355.38,397.75 351.28,397.31 347.16,397.06 343.03,396.97 338.94,397.22 334.81,398.12 330.69,399.44 326.59,401.16 325.84,401.47 322.47,402.75 319.5,403.75 " stroke="red" stroke-width="0.96875" stroke-linecap="round" stroke-linejoin="round" />
<polyline points="292.53,412.72 289.56,413.62 285.44,415.03 281.34,416.5 278.66,417.53 277.22,418.06 273.09,419.59 269,421.22 264.88,422.78 264.34,422.97 260.75,424.19 256.66,425.53 252.53,426.72 248.41,427.97 247.03,428.44 244.31,429.34 240.19,430.88 236.06,432.91 233.91,433.97 231.97,434.91 227.84,436.78 223.72,438.53 220.84,439.5 219.62,439.94 215.5,441.22 211.41,442.5 207.28,443.78 203.31,445.12 203.16,445.16 199.06,446.38 194.94,447.41 190.81,448.25 186.72,448.69 182.59,449 178.47,449.25 174.38,449.44 170.25,449.88 166.12,450.25 162.03,450.47 157.91,450.5 153.78,450.09 149.69,449.53 145.56,448.78 141.44,447.91 137.34,447.06 133.22,446.09 129.34,445.12 129.12,445.06 125,443.81 120.88,442.25 116.78,440.47 114.72,439.5 112.66,438.47 108.53,436.28 104.44,434.34 103.66,433.97 100.31,432.31 96.188,430.12 93.156,428.44 92.094,427.81 87.969,425.84 83.844,424.38 79.75,423.22 78.719,422.97 75.625,422.22 71.5,420.94 67.406,419.44 63.281,417.72 62.875,417.53 59.188,415.72 55.062,413.97 50.938,412.25 50.688,412.16 46.844,410.5 42.719,408.62 39.062,406.78 38.594,406.56 34.5,404.31 30.375,402.09 29.281,401.47 26.25,399.81 22.156,397.78 18.906,396.22 18.031,395.78 " stroke="red" stroke-width="0.96875" stroke-linecap="round" stroke-linejoin="round" />
<polyline points="295.53,406.5 296.41,405.62 298.16,405.62 299.03,406.5 299.03,408.25 298.16,409.12 295.53,409.12 295.53,410.88 299.03,410.88 " stroke="red" stroke-width="0.71875" stroke-linecap="round" stroke-linejoin="round" />
<polyline points="301.66,410.88 305.16,410.88 303.41,405.62 " stroke="red" stroke-width="0.71875" stroke-linecap="round" stroke-linejoin="round" />
<polygon points="308.66,410.88 307.78,410 307.78,406.5 308.66,405.62 310.41,405.62 311.28,406.5 311.28,410 310.41,410.88 " stroke="red" stroke-width="0.71875" stroke-linejoin="round" />
<polygon points="314.78,410.88 313.91,410 313.91,406.5 314.78,405.62 316.53,405.62 317.41,406.5 317.41,410 316.53,410.88 " stroke="red" stroke-width="0.71875" stroke-linejoin="round" />
<polyline points="594,343.16 593.31,345.31 591.72,350.28 590.22,355.25 589.88,356.31 588.53,360.25 586.91,365.28 585.78,369.03 585.34,370.38 584,375.47 582.75,380.59 581.66,384.97 581.44,385.78 579.97,390.97 578.09,396.22 577.53,397.59 575.81,401.47 573.44,406.06 573,406.78 569.31,411.88 569.06,412.16 565.19,415.38 561.5,417.53 561.09,417.75 556.97,419.28 552.88,420.28 548.75,420.97 544.62,421.28 540.53,421.28 536.41,420.97 532.28,420.22 528.19,419.31 524.06,418.34 520.66,417.53 519.94,417.38 515.84,416.41 511.72,415.47 507.59,414.5 503.5,413.59 499.38,413.06 495.25,412.56 492,412.16 491.16,412.03 487.03,411.31 482.91,410.25 478.81,409.06 474.69,407.81 471.41,406.78 470.56,406.53 466.47,405.03 462.34,403.53 458.25,402.06 456.66,401.47 454.12,400.53 450,398.94 445.91,397.28 443.31,396.22 441.78,395.53 437.66,393.66 433.56,392 430.88,390.97 429.44,390.41 425.31,388.78 421.22,387.09 418.22,385.78 417.09,385.25 412.97,383.28 408.88,381.28 407.41,380.59 404.75,379.22 400.62,377.03 397.62,375.47 396.53,374.84 392.41,372.62 388.31,370.41 388.19,370.38 384.19,368.22 380.06,366.19 378.22,365.28 375.97,364.19 371.84,362.25 368.19,360.25 367.72,360 363.62,357.69 359.5,355.44 359.12,355.25 355.38,353.19 351.28,350.91 350.19,350.28 347.16,348.28 343.03,345.47 342.84,345.31 338.94,342.47 335.72,340.41 334.81,339.81 334.75,339.78 " stroke="red" stroke-width="0.96875" stroke-linecap="round" stroke-linejoin="round" />
<polyline points="317.31,330.34 314.25,329.19 310.12,328.12 306.03,327.53 301.91,327.66 297.78,328.31 293.69,329.69 291.91,330.66 289.56,332.31 286.25,335.5 285.44,336.47 282.78,340.41 281.34,343.06 280.25,345.31 278.31,350.28 277.22,354.12 276.91,355.25 275.56,360.25 273.97,365.28 273.09,367.47 271.91,370.38 269,375.41 268.97,375.47 264.97,380.59 264.88,380.69 260.75,384.75 259.66,385.78 256.66,388.12 252.94,390.97 252.53,391.22 248.41,393.69 244.31,395.94 243.78,396.22 240.19,397.94 236.06,400.44 234.47,401.47 231.97,403.12 227.84,405.94 226.56,406.78 223.72,408.53 219.62,409.19 215.5,409.38 211.41,409.34 207.28,409.41 203.16,410.94 200.5,412.16 199.06,412.78 194.94,414.66 190.81,416.34 186.72,416.72 182.59,416.81 178.47,416.75 174.38,416.69 170.25,417.38 169.31,417.53 166.12,418.06 162.03,418.69 157.91,419.16 153.78,419 149.69,418.59 145.56,417.97 143.16,417.53 141.44,417.22 137.34,416.47 133.22,415.62 129.12,414.62 125,413.5 120.88,412.28 120.47,412.16 116.78,410.78 112.66,408.91 108.75,406.78 108.53,406.69 104.44,403.75 100.56,401.47 100.31,401.34 96.188,399.47 92.094,398.03 87.969,397.25 83.844,396.56 82,396.22 79.75,395.75 75.625,394.78 71.5,393.62 67.406,392.47 63.281,391.34 62.094,390.97 59.188,390 55.062,388.09 50.938,386.12 50.219,385.78 46.844,384.12 42.719,382.19 39.281,380.59 38.594,380.28 34.5,378.31 30.375,376.38 28.469,375.47 26.25,374.38 22.156,372.47 18.031,370.5 " stroke="red" stroke-width="0.96875" stroke-linecap="round" stroke-linejoin="round" />
<polyline points="316.09,333.31 316.97,332.44 318.72,332.44 319.59,333.31 319.59,335.06 318.72,335.94 316.09,335.94 316.09,337.69 319.59,337.69 " stroke="red" stroke-width="0.71875" stroke-linecap="round" stroke-linejoin="round" />
<polyline points="322.22,337.69 325.72,337.69 323.97,332.44 " stroke="red" stroke-width="0.71875" stroke-linecap="round" stroke-linejoin="round" />
<polyline points="331.84,336.81 330.97,337.69 329.22,337.69 328.34,336.81 328.34,333.31 329.22,332.44 330.97,332.44 331.84,333.31 331.84,334.19 330.97,335.06 328.34,335.06 " stroke="red" stroke-width="0.71875" stroke-linecap="round" stroke-linejoin="round" />
<polygon points="335.34,337.69 334.47,336.81 334.47,333.31 335.34,332.44 337.09,332.44 337.97,333.31 337.97,336.81 337.09,337.69 " stroke="red" stroke-width="0.71875" stroke-linejoin="round" />
<polyline points="539.12,247 539.06,247.03 536.41,249.16 533.78,251.5 532.28,253.16 529.84,256 528.19,258.22 526.44,260.5 524.06,264.03 523.38,265.03 520.59,269.59 519.94,270.84 518.31,274.16 516.69,278.75 515.84,282.12 515.5,283.34 514.88,287.97 515,292.62 515.84,294.59 517.06,297.31 519.94,301.66 520.16,302 523.44,306.72 524.06,307.59 526.25,311.44 528.19,315.5 528.44,316.22 529.75,321 530.56,325.81 530.88,330.66 530.53,335.5 529.72,340.41 528.31,345.31 528.19,345.69 525.62,350.28 524.06,352.5 520.78,355.25 519.94,355.72 515.84,356.47 511.72,356.31 507.59,355.53 506.66,355.25 503.5,354.16 499.38,352.59 495.25,350.81 494.19,350.28 491.16,348.41 487.03,345.91 485.91,345.31 482.91,343.69 478.81,341.88 474.81,340.41 474.69,340.38 470.56,338.91 466.47,337.06 463.06,335.5 462.34,335.19 458.25,333.22 454.12,331.47 450,330.69 449.75,330.66 445.91,330.03 441.78,329.41 437.66,328.72 433.56,327.53 429.44,326.22 428.25,325.81 425.31,324.75 421.22,323.28 417.09,321.81 414.84,321 412.97,320.25 408.88,318.47 404.75,316.62 403.59,316.22 400.62,314.97 396.53,312.97 393.78,311.44 392.41,310.56 388.31,307.62 387.19,306.72 384.19,304.22 381.03,302 380.06,301.31 375.97,298.56 373.84,297.31 371.84,296.03 367.72,292.94 367.31,292.62 363.62,289.72 361.16,287.97 359.5,286.75 355.38,284.22 353.03,283.34 351.28,282.75 347.16,281.78 344.19,281.41 " stroke="red" stroke-width="0.96875" stroke-linecap="round" stroke-linejoin="round" />
<polyline points="317.22,282.19 314.25,282.44 310.12,282.91 307.38,283.34 306.03,283.53 301.91,284.47 297.78,285.62 293.69,287.06 291.59,287.97 289.56,288.78 285.44,291.09 283.19,292.62 281.34,293.62 277.22,296.06 275.31,297.31 273.09,298.69 269,301.69 268.66,302 264.88,305.62 263.94,306.72 260.75,311 260.47,311.44 257.56,316.22 256.66,317.81 254.53,321 252.53,324.16 251.47,325.81 248.41,330.66 245.22,335.5 244.31,336.88 241.62,340.41 240.19,342.19 237.47,345.31 236.06,346.88 232.78,350.28 231.97,351.09 227.84,354.62 227.03,355.25 223.72,357.53 219.62,359.81 218.72,360.25 215.5,361.78 211.41,363.56 207.28,365.16 206.84,365.28 203.16,366.31 199.06,367.31 194.94,368.22 190.81,369.12 187,370.38 186.72,370.44 182.59,371.75 178.47,373.12 174.38,374.44 170.25,375.31 169.25,375.47 166.12,375.94 162.03,376.44 157.91,376.84 153.78,377.31 149.69,377.69 145.56,377.94 141.44,378.09 137.34,378.19 133.22,378.09 129.12,377.75 125,377.09 120.88,375.81 119.84,375.47 116.78,374.41 112.66,373 108.53,371.56 105.56,370.38 104.44,369.88 100.31,368.19 96.188,366.59 92.594,365.28 92.094,365.12 87.969,364.16 83.844,363.25 79.75,362.34 75.625,361.34 72.156,360.25 71.5,360.06 67.406,358.69 63.281,357.28 59.188,355.88 57.281,355.25 55.062,354.47 50.938,352.91 46.844,351.31 44.188,350.28 42.719,349.72 38.594,348.22 34.5,346.81 30.375,345.5 29.781,345.31 26.25,344.19 22.156,342.88 18.031,341.66 " stroke="red" stroke-width="0.96875" stroke-linecap="round" stroke-linejoin="round" />
<polyline points="320.19,279.38 321.06,278.5 322.81,278.5 323.69,279.38 323.69,281.12 322.81,282 320.19,282 320.19,283.75 323.69,283.75 " stroke="red" stroke-width="0.71875" stroke-linecap="round" stroke-linejoin="round" />
<polygon points="327.19,283.75 326.31,282.88 326.31,282 327.19,281.12 328.94,281.12 329.81,282 329.81,282.88 328.94,283.75 " stroke="red" stroke-width="0.71875" stroke-linejoin="round" />
<polyline points="327.19,281.12 326.31,280.25 326.31,279.38 327.19,278.5 328.94,278.5 329.81,279.38 329.81,280.25 328.94,281.12 " stroke="red" stroke-width="0.71875" stroke-linecap="round" stroke-linejoin="round" />
<polyline points="332.44,282.88 333.31,283.75 335.06,283.75 335.94,282.88 335.94,282 332.44,278.5 335.94,278.5 " stroke="red" stroke-width="0.71875" stroke-linecap="round" stroke-linejoin="round" />
<polygon points="339.44,283.75 338.56,282.88 338.56,279.38 339.44,278.5 341.19,278.5 342.06,279.38 342.06,282.88 341.19,283.75 " stroke="red" stroke-width="0.71875" stroke-linejoin="round" />
<line x1="21" y1="248.28" x2="18.031" y2="249.19" stroke="red" stroke-width="0.96875" stroke-linecap="round" />
<polyline points="26.906,247 26.625,247.28 24,247.28 24,249.03 27.5,249.03 " stroke="red" stroke-width="0.71875" stroke-linecap="round" stroke-linejoin="round" />
<polyline points="31,249.03 30.125,248.16 30.125,247.28 30.406,247 " stroke="red" stroke-width="0.71875" stroke-linecap="round" stroke-linejoin="round" />
<polyline points="33.344,247 33.625,247.28 33.625,248.16 32.75,249.03 31,249.03 " stroke="red" stroke-width="0.71875" stroke-linecap="round" stroke-linejoin="round" />
<polyline points="37.125,249.03 36.25,248.16 36.25,247.28 36.531,247 " stroke="red" stroke-width="0.71875" stroke-linecap="round" stroke-linejoin="round" />
<polyline points="39.469,247 39.75,247.28 39.75,248.16 38.875,249.03 37.125,249.03 " stroke="red" stroke-width="0.71875" stroke-linecap="round" stroke-linejoin="round" />
<polyline points="43.25,249.03 42.375,248.16 42.375,247 " stroke="red" stroke-width="0.71875" stroke-linecap="round" stroke-linejoin="round" />
<polyline points="45.875,247 45.875,248.16 45,249.03 43.25,249.03 " stroke="red" stroke-width="0.71875" stroke-linecap="round" stroke-linejoin="round" />
<polyline points="201.44,247 201.44,247.03 201.97,251.5 202.09,256 201.78,260.5 201.22,265.03 200.38,269.59 199.28,274.16 199.06,275.56 198.5,278.75 197.31,283.34 195.38,287.97 194.94,288.72 192.31,292.62 190.81,294.31 188.12,297.31 186.72,298.56 182.59,301.62 182,302 178.47,303.81 174.38,305.66 172,306.72 170.25,307.44 166.12,309.22 162.03,311.12 161.38,311.44 157.91,313.12 153.78,315.09 151.28,316.22 149.69,316.84 145.56,318.28 142.59,319.16 " stroke="red" stroke-width="0.96875" stroke-linecap="round" stroke-linejoin="round" />
<polyline points="115.62,322.81 112.66,322.66 108.53,322.09 104.44,321.09 104.09,321 100.31,319.72 96.188,318.25 92.094,316.84 89.094,316.22 87.969,315.97 83.844,315.09 79.75,314.22 75.625,313.25 71.5,311.91 70.25,311.44 67.406,310.28 63.281,308.56 59.188,306.81 58.938,306.72 55.062,304.47 50.938,302.19 50.625,302 46.844,299.69 42.719,297.47 42.25,297.31 38.594,295.72 34.5,294.03 31.031,292.62 30.375,292.22 26.25,289.38 24.719,287.97 22.156,284.69 20.844,283.34 18.031,280.5 " stroke="red" stroke-width="0.96875" stroke-linecap="round" stroke-linejoin="round" />
<polyline points="118.62,320.38 119.5,319.5 121.25,319.5 122.12,320.38 122.12,322.12 121.25,323 118.62,323 118.62,324.75 122.12,324.75 " stroke="red" stroke-width="0.71875" stroke-linecap="round" stroke-linejoin="round" />
<polygon points="125.62,324.75 124.75,323.88 124.75,323 125.62,322.12 127.38,322.12 128.25,323 128.25,323.88 127.38,324.75 " stroke="red" stroke-width="0.71875" stroke-linejoin="round" />
<polyline points="125.62,322.12 124.75,321.25 124.75,320.38 125.62,319.5 127.38,319.5 128.25,320.38 128.25,321.25 127.38,322.12 " stroke="red" stroke-width="0.71875" stroke-linecap="round" stroke-linejoin="round" />
<polygon points="131.75,324.75 130.88,323.88 130.88,323 131.75,322.12 133.5,322.12 134.38,323 134.38,323.88 133.5,324.75 " stroke="red" stroke-width="0.71875" stroke-linejoin="round" />
<polyline points="131.75,322.12 130.88,321.25 130.88,320.38 131.75,319.5 133.5,319.5 134.38,320.38 134.38,321.25 133.5,322.12 " stroke="red" stroke-width="0.71875" stroke-linecap="round" stroke-linejoin="round" />
<polygon points="137.88,324.75 137,323.88 137,320.38 137.88,319.5 139.62,319.5 140.5,320.38 140.5,323.88 139.62,324.75 " stroke="red" stroke-width="0.71875" stroke-linejoin="round" />
</g>
</svg>
