<?xml version="1.0" encoding="ISO-8859-1" standalone="no"?>
<!DOCTYPE svg PUBLIC "-//W3C//DTD SVG 1.1//EN" "http://www.w3.org/Graphics/SVG/1.1/DTD/svg11.dtd">
<svg version="1.1" baseProfile="full" id="body" width="900px" height="600px" viewBox="0 0.2 1 0.55" preserveAspectRatio="none" xmlns="http://www.w3.org/2000/svg" xmlns:xlink="http://www.w3.org/1999/xlink" xmlns:ev="http://www.w3.org/2001/xml-events">
<title>SVG drawing</title>
<desc>This was produced by version 4.2 of GNU libplot, a free library for exporting 2-D vector graphics.</desc>
<rect id="background" x="0" y="0" width="1" height="1" stroke="none" fill="none"/>
<g id="content" transform="translate(-0.03125,1.1875) scale(1,-1) scale(0.0017361) " xml:space="preserve" stroke="black" stroke-linecap="butt" stroke-linejoin="miter" stroke-miterlimit="10.433" stroke-dasharray="none" stroke-dashoffset="0" stroke-opacity="1" fill="none" fill-rule="even-odd" fill-opacity="1" font-style="normal" font-variant="normal" font-weight="normal" font-stretch="normal" font-size-adjust="none" letter-spacing="normal" word-spacing="normal" text-anchor="start">
<polyline points="40.781,568.66 40.781,568.62 39.219,561.84 38.594,559.84 37.219,555.12 35.469,548.47 34.75,546.62 " stroke="red" stroke-width="0.96875" stroke-linecap="round" stroke-linejoin="round" />
<polyline points="30.156,537.16 29.094,535.38 26.25,531.72 24.281,528.97 22.156,526.59 18.344,522.59 18.031,522.28 " stroke="red" stroke-width="0.96875" stroke-linecap="round" stroke-linejoin="round" />
<polyline points="22.375,540.16 23.25,539.28 25,539.28 25.875,540.16 25.875,541.91 25,542.78 22.375,542.78 22.375,544.53 25.875,544.53 " stroke="red" stroke-width="0.71875" stroke-linecap="round" stroke-linejoin="round" />
<polyline points="28.5,543.66 29.375,544.53 31.125,544.53 32,543.66 32,542.78 28.5,539.28 32,539.28 " stroke="red" stroke-width="0.71875" stroke-linecap="round" stroke-linejoin="round" />
<polyline points="34.625,543.66 35.5,544.53 37.25,544.53 38.125,543.66 38.125,542.78 34.625,539.28 38.125,539.28 " stroke="red" stroke-width="0.71875" stroke-linecap="round" stroke-linejoin="round" />
<polygon points="41.625,544.53 40.75,543.66 40.75,540.16 41.625,539.28 43.375,539.28 44.25,540.16 44.25,543.66 43.375,544.53 " stroke="red" stroke-width="0.71875" stroke-linejoin="round" />
<polyline points="373.12,568.66 373.12,568.62 374.56,561.84 375.97,559.66 380.06,555.66 381.09,555.12 383.06,554.47 " stroke="red" stroke-width="0.96875" stroke-linecap="round" stroke-linejoin="round" />
<polyline points="408.06,557.88 408.88,558.5 412.81,561.84 412.97,562 417.09,566.75 418.66,568.62 418.69,568.66 " stroke="red" stroke-width="0.96875" stroke-linecap="round" stroke-linejoin="round" />
<polyline points="386.03,551.41 386.91,550.53 388.66,550.53 389.53,551.41 389.53,553.16 388.66,554.03 386.03,554.03 386.03,555.78 389.53,555.78 " stroke="red" stroke-width="0.71875" stroke-linecap="round" stroke-linejoin="round" />
<polyline points="392.16,554.91 393.03,555.78 394.78,555.78 395.66,554.91 395.66,554.03 392.16,550.53 395.66,550.53 " stroke="red" stroke-width="0.71875" stroke-linecap="round" stroke-linejoin="round" />
<polyline points="398.28,554.91 399.16,555.78 400.91,555.78 401.78,554.91 401.78,554.03 398.28,550.53 401.78,550.53 " stroke="red" stroke-width="0.71875" stroke-linecap="round" stroke-linejoin="round" />
<polygon points="405.28,555.78 404.41,554.91 404.41,551.41 405.28,550.53 407.03,550.53 407.91,551.41 407.91,554.91 407.03,555.78 " stroke="red" stroke-width="0.71875" stroke-linejoin="round" />
<polyline points="68.875,568.66 68.875,568.62 67.406,562.84 67.125,561.84 64.5,555.12 63.281,553.16 59.875,548.47 59.188,547.72 55.062,542.62 54.562,541.91 50.938,536.69 50.188,535.38 49.75,534.72 " stroke="red" stroke-width="0.96875" stroke-linecap="round" stroke-linejoin="round" />
<polyline points="43.188,525.28 42.719,524.72 40.562,522.59 38.594,520.81 34.5,516.72 34.062,516.28 30.375,512.44 28.281,510.06 26.25,507.88 22.188,503.88 22.156,503.84 18.031,501.25 " stroke="red" stroke-width="0.96875" stroke-linecap="round" stroke-linejoin="round" />
<polyline points="36.344,528.25 37.219,527.38 38.969,527.38 39.844,528.25 39.844,530 38.969,530.88 36.344,530.88 36.344,532.62 39.844,532.62 " stroke="red" stroke-width="0.71875" stroke-linecap="round" stroke-linejoin="round" />
<polyline points="42.469,531.75 43.344,532.62 45.094,532.62 45.969,531.75 45.969,530.88 42.469,527.38 45.969,527.38 " stroke="red" stroke-width="0.71875" stroke-linecap="round" stroke-linejoin="round" />
<polygon points="49.469,532.62 48.594,531.75 48.594,530.88 49.469,530 51.219,530 52.094,530.88 52.094,531.75 51.219,532.62 " stroke="red" stroke-width="0.71875" stroke-linejoin="round" />
<polyline points="49.469,530 48.594,529.12 48.594,528.25 49.469,527.38 51.219,527.38 52.094,528.25 52.094,529.12 51.219,530 " stroke="red" stroke-width="0.71875" stroke-linecap="round" stroke-linejoin="round" />
<polygon points="55.594,532.62 54.719,531.75 54.719,528.25 55.594,527.38 57.344,527.38 58.219,528.25 58.219,531.75 57.344,532.62 " stroke="red" stroke-width="0.71875" stroke-linejoin="round" />
<polyline points="337.53,568.66 337.53,568.62 337.97,561.84 338.94,555.94 339.06,555.12 340.12,548.47 342.03,541.91 343.03,539.66 345.19,535.38 347.16,532.75 350.47,528.97 351.28,528.41 355.38,526 359.5,524.34 363.62,523.34 367.72,522.88 371.84,522.88 374.81,523.12 " stroke="red" stroke-width="0.96875" stroke-linecap="round" stroke-linejoin="round" />
<polyline points="398.53,531.03 400.62,532.25 404.75,534.72 405.62,535.38 408.88,537.97 412.97,541.28 413.72,541.91 417.09,544.78 421.22,548.25 421.47,548.47 425.31,552 428.62,555.12 429.44,556.12 433.56,561.31 433.97,561.84 437.66,567.12 438.69,568.62 438.72,568.66 " stroke="red" stroke-width="0.96875" stroke-linecap="round" stroke-linejoin="round" />
<polyline points="377.81,524.56 378.69,523.69 380.44,523.69 381.31,524.56 381.31,526.31 380.44,527.19 377.81,527.19 377.81,528.94 381.31,528.94 " stroke="red" stroke-width="0.71875" stroke-linecap="round" stroke-linejoin="round" />
<polyline points="383.94,528.06 384.81,528.94 386.56,528.94 387.44,528.06 387.44,527.19 383.94,523.69 387.44,523.69 " stroke="red" stroke-width="0.71875" stroke-linecap="round" stroke-linejoin="round" />
<polygon points="390.94,528.94 390.06,528.06 390.06,527.19 390.94,526.31 392.69,526.31 393.56,527.19 393.56,528.06 392.69,528.94 " stroke="red" stroke-width="0.71875" stroke-linejoin="round" />
<polyline points="390.94,526.31 390.06,525.44 390.06,524.56 390.94,523.69 392.69,523.69 393.56,524.56 393.56,525.44 392.69,526.31 " stroke="red" stroke-width="0.71875" stroke-linecap="round" stroke-linejoin="round" />
<polygon points="397.06,528.94 396.19,528.06 396.19,524.56 397.06,523.69 398.81,523.69 399.69,524.56 399.69,528.06 398.81,528.94 " stroke="red" stroke-width="0.71875" stroke-linejoin="round" />
<polyline points="89.438,568.66 89.406,568.62 87.969,566 86.062,561.84 83.844,556.78 83.188,555.12 81.188,548.47 79.75,544.69 78.562,541.91 75.625,537.06 73.969,535.38 71.5,533.66 67.406,531.19 66.719,530.81 " stroke="red" stroke-width="0.96875" stroke-linecap="round" stroke-linejoin="round" />
<polyline points="55.156,521.38 55.062,521.25 50.938,516.84 50.406,516.28 46.844,513.12 43.094,510.06 42.719,509.75 38.594,506 36.5,503.88 34.5,502 30.375,498.31 29.719,497.75 26.25,495.06 22.156,492.62 20.562,491.69 18.031,490.19 " stroke="red" stroke-width="0.96875" stroke-linecap="round" stroke-linejoin="round" />
<polyline points="48.688,524.34 49.562,523.47 51.312,523.47 52.188,524.34 52.188,526.09 51.312,526.97 48.688,526.97 48.688,528.72 52.188,528.72 " stroke="red" stroke-width="0.71875" stroke-linecap="round" stroke-linejoin="round" />
<polyline points="54.812,527.84 55.688,528.72 57.438,528.72 58.312,527.84 58.312,526.97 57.438,526.09 56.562,526.09 57.438,526.09 58.312,525.22 58.312,524.34 57.438,523.47 55.688,523.47 54.812,524.34 " stroke="red" stroke-width="0.71875" stroke-linecap="round" stroke-linejoin="round" />
<polyline points="62.688,528.72 60.938,526.09 64.438,526.09 64.438,528.72 64.438,523.47 " stroke="red" stroke-width="0.71875" stroke-linecap="round" stroke-linejoin="round" />
<polygon points="67.938,528.72 67.062,527.84 67.062,524.34 67.938,523.47 69.688,523.47 70.562,524.34 70.562,527.84 69.688,528.72 " stroke="red" stroke-width="0.71875" stroke-linejoin="round" />
<polyline points="309.09,568.66 309.09,568.62 310.12,562.72 310.25,561.84 311.59,555.12 312.97,548.47 314.25,543.72 314.72,541.91 317.03,535.38 318.34,532.59 320.19,528.97 322.47,526.09 325.69,522.59 326.59,521.75 330.69,518.19 333.06,516.28 334.81,515.03 338.94,512.28 342.5,510.06 343.03,509.72 347.16,507.69 351.28,506.06 355.38,504.94 359.5,504.62 363.62,504.75 367.72,505.22 370.72,505.81 " stroke="red" stroke-width="0.96875" stroke-linecap="round" stroke-linejoin="round" />
<polyline points="393.94,514.25 396.53,515.69 397.56,516.28 400.62,518.09 404.75,520.59 407.66,522.59 408.88,523.47 412.97,526.69 415.62,528.97 417.09,530.22 421.22,533.75 423.25,535.38 425.31,537.12 429.44,540.53 431.03,541.91 433.56,544.16 437.66,548 438.16,548.47 441.78,552.38 444.16,555.12 445.91,557.47 449.16,561.84 450,563.03 454.12,568.53 454.22,568.62 454.25,568.66 " stroke="red" stroke-width="0.96875" stroke-linecap="round" stroke-linejoin="round" />
<polyline points="373.69,507.75 374.56,506.88 376.31,506.88 377.19,507.75 377.19,509.5 376.31,510.38 373.69,510.38 373.69,512.12 377.19,512.12 " stroke="red" stroke-width="0.71875" stroke-linecap="round" stroke-linejoin="round" />
<polyline points="379.81,511.25 380.69,512.12 382.44,512.12 383.31,511.25 383.31,510.38 382.44,509.5 381.56,509.5 382.44,509.5 383.31,508.62 383.31,507.75 382.44,506.88 380.69,506.88 379.81,507.75 " stroke="red" stroke-width="0.71875" stroke-linecap="round" stroke-linejoin="round" />
<polyline points="387.69,512.12 385.94,509.5 389.44,509.5 389.44,512.12 389.44,506.88 " stroke="red" stroke-width="0.71875" stroke-linecap="round" stroke-linejoin="round" />
<polygon points="392.94,512.12 392.06,511.25 392.06,507.75 392.94,506.88 394.69,506.88 395.56,507.75 395.56,511.25 394.69,512.12 " stroke="red" stroke-width="0.71875" stroke-linejoin="round" />
<polyline points="128.38,568.66 128.34,568.62 125,563.03 123.66,561.84 120.88,559.78 116.78,557.44 112.66,555.47 111.91,555.12 108.53,553.81 104.44,551.06 101.78,548.47 100.31,546.88 97,541.91 96.188,540.56 93.594,535.38 92.094,532.5 90,528.97 88.281,527.31 " stroke="red" stroke-width="0.96875" stroke-linecap="round" stroke-linejoin="round" />
<polyline points="72.25,517.88 71.5,517.5 69.5,516.28 67.406,514.94 63.281,511.69 61.562,510.06 59.188,507.75 55.062,504.53 54.125,503.88 50.938,501.88 46.844,499.31 44.5,497.75 42.719,496.59 38.594,493.19 36.719,491.69 34.5,490 30.375,487.09 28.25,485.69 26.25,484.44 22.156,482 18.562,479.75 18.031,479.41 " stroke="red" stroke-width="0.96875" stroke-linecap="round" stroke-linejoin="round" />
<polyline points="71.312,520.84 72.188,519.97 73.938,519.97 74.812,520.84 74.812,522.59 73.938,523.47 71.312,523.47 71.312,525.22 74.812,525.22 " stroke="red" stroke-width="0.71875" stroke-linecap="round" stroke-linejoin="round" />
<polyline points="79.188,525.22 77.438,522.59 80.938,522.59 80.938,525.22 80.938,519.97 " stroke="red" stroke-width="0.71875" stroke-linecap="round" stroke-linejoin="round" />
<polygon points="84.438,525.22 83.562,524.34 83.562,520.84 84.438,519.97 86.188,519.97 87.062,520.84 87.062,524.34 86.188,525.22 " stroke="red" stroke-width="0.71875" stroke-linejoin="round" />
<polygon points="90.562,525.22 89.688,524.34 89.688,520.84 90.562,519.97 92.312,519.97 93.188,520.84 93.188,524.34 92.312,525.22 " stroke="red" stroke-width="0.71875" stroke-linejoin="round" />
<polyline points="269.09,568.66 269.12,568.62 273.09,563.06 273.78,561.84 277.22,555.84 277.62,555.12 281.34,549.06 281.69,548.47 285.44,542.84 286.06,541.91 289.56,537 290.72,535.38 293.69,531.41 295.34,528.97 297.78,525.91 300.41,522.59 301.91,520.91 306.03,516.44 306.12,516.28 310.12,512.22 312.41,510.06 314.25,508.44 318.34,505.16 320.06,503.88 322.47,502.03 326.59,499.09 328.62,497.75 330.69,496.44 334.81,494.09 338.94,492.06 339.75,491.69 343.03,490.28 347.16,488.94 351.28,488.06 354.25,487.75 " stroke="red" stroke-width="0.96875" stroke-linecap="round" stroke-linejoin="round" />
<polyline points="381.19,494.16 384.19,495.31 388.31,497.19 389.22,497.75 392.41,499.72 396.53,502.56 398.31,503.88 400.62,505.34 404.75,507.97 408.09,510.06 408.88,510.53 412.97,513.22 417.09,516.19 417.25,516.28 421.22,519.38 425.28,522.59 425.31,522.62 429.44,526.06 432.62,528.97 433.56,529.69 437.66,532.91 440.81,535.38 441.78,536.19 445.91,539.75 448.22,541.91 450,543.72 454.12,548.12 454.47,548.47 458.25,552.44 460.78,555.12 462.34,556.81 466.47,561.03 467.25,561.84 470.56,565.25 474.16,568.62 474.19,568.66 " stroke="red" stroke-width="0.96875" stroke-linecap="round" stroke-linejoin="round" />
<polyline points="357.22,488.25 358.09,487.38 359.84,487.38 360.72,488.25 360.72,490 359.84,490.88 357.22,490.88 357.22,492.62 360.72,492.62 " stroke="red" stroke-width="0.71875" stroke-linecap="round" stroke-linejoin="round" />
<polyline points="365.09,492.62 363.34,490 366.84,490 366.84,492.62 366.84,487.38 " stroke="red" stroke-width="0.71875" stroke-linecap="round" stroke-linejoin="round" />
<polygon points="370.34,492.62 369.47,491.75 369.47,488.25 370.34,487.38 372.09,487.38 372.97,488.25 372.97,491.75 372.09,492.62 " stroke="red" stroke-width="0.71875" stroke-linejoin="round" />
<polygon points="376.47,492.62 375.59,491.75 375.59,488.25 376.47,487.38 378.22,487.38 379.09,488.25 379.09,491.75 378.22,492.62 " stroke="red" stroke-width="0.71875" stroke-linejoin="round" />
<polyline points="504.53,568.66 504.5,568.62 503.5,567.91 499.38,564.81 495.69,561.84 495.25,561.5 491.16,558.06 487.72,555.12 487.03,554.53 482.91,551.47 479.03,548.47 478.81,548.31 474.69,545.03 470.88,541.91 470.56,541.62 466.47,538.12 463.28,535.38 462.34,534.62 458.25,531.22 455.41,528.97 454.12,527.94 450,524.62 447.44,522.59 445.91,521.34 441.78,517.97 439.66,516.28 437.66,514.69 433.56,511.62 431.25,510.06 429.44,508.84 425.31,506.28 421.22,503.94 421.06,503.88 417.09,501.22 412.97,498.53 411.75,497.75 408.88,495.81 404.75,493.12 402.78,491.69 400.62,490.12 396.53,487.31 393.88,485.69 392.41,484.78 388.31,482.59 384.19,480.94 380.75,479.75 380.06,479.47 375.97,478.09 371.84,476.81 367.72,475.38 363.62,474.16 362.41,473.84 359.5,473.12 355.38,472.34 351.28,472.03 347.16,471.94 343.03,472.09 338.94,472.56 334.81,473.34 332.94,473.84 330.69,474.53 326.59,476.22 322.47,478.41 320.06,479.75 318.34,480.53 314.25,482.59 310.12,484.84 308.72,485.69 306.03,487.38 301.91,489.88 299.16,491.69 297.78,492.69 293.69,495.91 291.5,497.75 289.56,499.53 285.44,503.38 284.91,503.88 281.34,507.09 278.16,510.06 277.22,510.97 276.66,511.56 " stroke="red" stroke-width="0.96875" stroke-linecap="round" stroke-linejoin="round" />
<polyline points="267.72,521 266.16,522.59 264.88,523.88 260.75,527.69 259.28,528.97 256.66,531.59 253.31,535.38 252.53,536.31 248.41,540.81 247.31,541.91 244.31,544.84 240.19,548.34 240.03,548.47 236.06,551.88 232.12,555.12 231.97,555.25 227.84,558.59 223.72,561.59 223.31,561.84 219.62,563.91 215.5,565.88 211.41,567.56 208.28,568.62 208.19,568.66 " stroke="red" stroke-width="0.96875" stroke-linecap="round" stroke-linejoin="round" />
<polyline points="176.91,568.66 176.84,568.62 174.38,567.38 170.25,564.59 166.59,561.84 166.12,561.5 162.03,558.72 157.91,556.38 153.78,556.25 149.69,556.09 145.56,555.44 144.72,555.12 141.44,553.66 137.72,548.47 137.34,548 133.22,543.12 132,541.91 129.12,539.47 125,536.81 120.88,535.78 119.34,535.38 116.78,534.78 112.66,533.44 108.53,531.44 106.31,528.97 104.44,526.75 101.22,522.59 100.31,521.53 96.188,516.88 95.625,516.28 92.094,513.19 87.969,511.28 84.562,510.06 83.844,509.81 79.75,508.44 75.625,506.91 71.5,504.03 71.312,503.88 67.406,499.97 65.031,497.75 63.281,496.22 59.188,493.09 56.719,491.69 55.062,490.75 50.938,488.41 46.844,485.97 46.406,485.69 42.719,483.31 38.594,480.66 37.062,479.75 34.5,478.03 30.375,475.47 27.688,473.84 26.25,472.97 22.156,470.75 18.031,468.56 " stroke="red" stroke-width="0.96875" stroke-linecap="round" stroke-linejoin="round" />
<polyline points="261.59,514.53 262.47,513.66 264.22,513.66 265.09,514.53 265.09,516.28 264.22,517.16 261.59,517.16 261.59,518.91 265.09,518.91 " stroke="red" stroke-width="0.71875" stroke-linecap="round" stroke-linejoin="round" />
<polyline points="269.47,518.91 267.72,516.28 271.22,516.28 271.22,518.91 271.22,513.66 " stroke="red" stroke-width="0.71875" stroke-linecap="round" stroke-linejoin="round" />
<polyline points="277.34,518.03 276.47,518.91 274.72,518.91 273.84,518.03 273.84,514.53 274.72,513.66 276.47,513.66 277.34,514.53 277.34,515.41 276.47,516.28 273.84,516.28 " stroke="red" stroke-width="0.71875" stroke-linecap="round" stroke-linejoin="round" />
<polygon points="280.84,518.91 279.97,518.03 279.97,514.53 280.84,513.66 282.59,513.66 283.47,514.53 283.47,518.03 282.59,518.91 " stroke="red" stroke-width="0.71875" stroke-linejoin="round" />
<polyline points="545.84,568.66 545.75,568.62 544.62,568.25 540.53,566.66 536.41,564.94 532.28,562.72 530.78,561.84 528.19,560.22 524.06,557.56 520.47,555.12 519.94,554.75 515.84,552.12 511.72,549.53 510.03,548.47 507.59,546.94 503.5,544.31 500.25,541.91 499.38,541.25 495.25,538.03 491.97,535.38 491.16,534.72 487.03,531.41 483.78,528.97 482.91,528.34 478.81,525.41 474.88,522.59 474.69,522.47 470.56,519.5 466.47,516.47 466.22,516.28 462.34,513.31 458.25,510.09 458.19,510.06 454.12,506.84 450.28,503.88 450,503.69 445.91,500.94 441.78,498.28 440.94,497.75 437.66,495.69 433.56,493.31 430.81,491.69 429.44,490.84 425.31,488.19 421.53,485.69 421.22,485.44 417.09,482.78 412.97,480.22 412.19,479.75 408.88,477.78 404.75,475.5 401.94,473.84 400.62,473.09 396.53,470.84 392.41,468.88 390.41,468 388.31,467.06 384.19,465.47 380.06,463.97 375.97,462.56 374.75,462.19 371.84,461.28 367.72,460.22 363.62,459.34 359.5,458.56 355.38,457.88 351.28,457 348.81,456.47 347.16,456.12 343.03,455.41 338.94,454.84 334.81,454.53 330.69,454.44 326.59,454.56 322.47,454.97 318.34,455.78 315.97,456.47 314.25,457.22 313.75,457.47 " stroke="red" stroke-width="0.96875" stroke-linecap="round" stroke-linejoin="round" />
<polyline points="298.97,466.94 297.78,467.75 297.41,468 293.69,470.53 289.56,473.16 288.56,473.84 285.44,476.12 281.34,479.25 280.72,479.75 277.22,483.06 274.41,485.69 273.09,486.97 269,491.22 268.53,491.69 264.88,495.59 262.78,497.75 260.75,499.88 256.72,503.88 256.66,503.94 252.53,507.56 249.62,510.06 248.41,511.12 244.31,514.66 242.34,516.28 240.19,518.16 236.06,521.19 233.97,522.59 231.97,523.97 227.84,526.5 223.72,528.75 223.25,528.97 219.62,530.34 215.5,531.53 211.41,532.34 207.28,532.81 203.16,532.91 199.06,532.66 194.94,532.06 190.81,531.16 186.72,530.09 182.66,528.97 182.59,528.94 178.47,527.84 174.38,526.88 170.25,526.5 166.12,526.19 162.03,525.84 157.91,525.38 153.78,524.41 149.69,523.25 147.53,522.59 145.56,522.03 141.44,520.75 137.34,519.41 133.22,518.03 129.12,516.62 128.16,516.28 125,515.16 120.88,514.19 116.78,512.97 112.66,511.31 110.34,510.06 108.53,509.09 104.44,505.5 102.47,503.88 100.31,502.19 96.188,499.28 93.719,497.75 92.094,496.75 87.969,495.12 83.844,493.34 80.719,491.69 79.75,491.09 75.625,488.25 72.188,485.69 71.5,485.22 67.406,482.69 63.281,480.69 61.125,479.75 59.188,478.75 55.062,476.19 51.312,473.84 50.938,473.59 46.844,470.88 42.719,468.31 42.156,468 38.594,465.97 34.5,463.72 31.531,462.19 30.375,461.59 26.25,459.47 22.156,457.53 19.812,456.47 18.031,455.62 " stroke="red" stroke-width="0.96875" stroke-linecap="round" stroke-linejoin="round" />
<polyline points="295.06,460.44 295.94,459.56 297.69,459.56 298.56,460.44 298.56,462.19 297.69,463.06 295.06,463.06 295.06,464.81 298.56,464.81 " stroke="red" stroke-width="0.71875" stroke-linecap="round" stroke-linejoin="round" />
<polyline points="301.19,460.44 302.06,459.56 303.81,459.56 304.69,460.44 304.69,462.19 303.81,463.06 301.19,463.06 301.19,464.81 304.69,464.81 " stroke="red" stroke-width="0.71875" stroke-linecap="round" stroke-linejoin="round" />
<polyline points="307.31,463.94 308.19,464.81 309.94,464.81 310.81,463.94 310.81,463.06 307.31,459.56 310.81,459.56 " stroke="red" stroke-width="0.71875" stroke-linecap="round" stroke-linejoin="round" />
<polygon points="314.31,464.81 313.44,463.94 313.44,460.44 314.31,459.56 316.06,459.56 316.94,460.44 316.94,463.94 316.06,464.81 " stroke="red" stroke-width="0.71875" stroke-linejoin="round" />
<polyline points="594,556.56 589.88,556 585.78,555.22 585.38,555.12 581.66,554.09 577.53,552.84 573.44,551.56 569.31,550.22 565.19,548.94 563.72,548.47 561.09,547.56 556.97,546.09 552.88,544.59 548.75,543.31 544.62,541.97 544.44,541.91 540.53,540.41 536.41,538.66 532.28,536.31 530.75,535.38 528.19,533.84 524.06,531.34 519.94,529 519.88,528.97 515.84,527.06 511.72,525.16 507.59,523.16 506.5,522.59 503.5,520.97 499.38,518.25 496.44,516.28 495.25,515.5 491.16,512.72 487.06,510.06 487.03,510.03 482.91,507.31 478.81,504.59 477.78,503.88 474.69,501.59 470.56,498.53 469.5,497.75 466.47,495.59 462.34,492.94 460.31,491.69 458.25,490.44 454.12,488.12 450.03,485.69 450,485.66 445.91,483.12 441.78,480.56 440.5,479.75 437.66,477.75 433.56,474.78 432.25,473.84 429.44,471.75 425.31,468.78 424.22,468 421.22,465.88 417.09,463.41 414.97,462.19 412.97,461.06 408.88,458.84 404.75,456.78 404.09,456.47 400.62,454.94 396.53,453.25 392.41,451.72 389.72,450.75 388.31,450.25 384.19,448.72 380.06,447.28 375.97,446 372.66,445.12 371.84,444.91 367.72,444.09 363.62,443.47 359.5,443 355.38,442.59 351.28,442.22 347.16,441.94 343.03,441.78 338.94,441.75 334.81,441.81 330.69,442 326.59,442.28 323.59,442.59 " stroke="red" stroke-width="0.96875" stroke-linecap="round" stroke-linejoin="round" />
<polyline points="298.88,450 297.78,450.56 297.44,450.75 293.69,453.09 289.56,455.94 288.75,456.47 285.44,458.59 281.34,461.22 279.81,462.19 277.22,463.91 273.09,466.72 271.22,468 269,469.62 264.88,472.81 263.56,473.84 260.75,476.22 256.69,479.75 256.66,479.75 252.53,482.34 248.41,484.72 246.56,485.69 244.31,486.91 240.19,488.97 236.06,490.94 234.22,491.69 231.97,492.66 227.84,494.09 223.72,495.22 219.62,495.91 215.5,496.28 211.41,496.44 207.28,496.47 203.16,496.62 199.06,496.72 194.94,496.75 190.81,496.72 186.72,496.5 182.59,496.31 178.47,496.12 174.38,496.06 170.25,496.5 166.12,497.03 162.03,497.62 161.06,497.75 157.91,498.16 153.78,498.19 149.69,497.94 148.16,497.75 145.56,497.44 141.44,496.72 137.34,495.78 133.22,494.75 129.12,493.69 125,492.56 122,491.69 120.88,491.38 116.78,489.97 112.66,488.34 108.53,486.5 106.91,485.69 104.44,484.47 100.31,482.44 96.188,480.44 94.812,479.75 92.094,478.22 87.969,475.47 85.625,473.84 83.844,472.62 79.75,469.88 76.688,468 75.625,467.34 71.5,465.44 67.406,463.56 64.531,462.19 63.281,461.59 59.188,459.44 55.062,457.16 53.781,456.47 50.938,454.97 46.844,452.91 42.719,450.88 42.5,450.75 38.594,448.81 34.5,446.78 31,445.12 30.375,444.81 26.25,442.75 22.156,441.12 18.312,439.5 18.031,439.38 " stroke="red" stroke-width="0.96875" stroke-linecap="round" stroke-linejoin="round" />
<polyline points="299.62,443.5 300.5,442.62 302.25,442.62 303.12,443.5 303.12,445.25 302.25,446.12 299.62,446.12 299.62,447.88 303.12,447.88 " stroke="red" stroke-width="0.71875" stroke-linecap="round" stroke-linejoin="round" />
<polyline points="305.75,443.5 306.62,442.62 308.38,442.62 309.25,443.5 309.25,445.25 308.38,446.12 305.75,446.12 305.75,447.88 309.25,447.88 " stroke="red" stroke-width="0.71875" stroke-linecap="round" stroke-linejoin="round" />
<polygon points="312.75,447.88 311.88,447 311.88,446.12 312.75,445.25 314.5,445.25 315.38,446.12 315.38,447 314.5,447.88 " stroke="red" stroke-width="0.71875" stroke-linejoin="round" />
<polyline points="312.75,445.25 311.88,444.38 311.88,443.5 312.75,442.62 314.5,442.62 315.38,443.5 315.38,444.38 314.5,445.25 " stroke="red" stroke-width="0.71875" stroke-linecap="round" stroke-linejoin="round" />
<polygon points="318.88,447.88 318,447 318,443.5 318.88,442.62 320.62,442.62 321.5,443.5 321.5,447 320.62,447.88 " stroke="red" stroke-width="0.71875" stroke-linejoin="round" />
<polyline points="594,525.41 589.88,525.16 585.78,525.03 581.66,524.16 577.53,523.16 575.53,522.59 573.44,521.94 569.31,520.56 565.19,518.97 561.09,517.34 558.34,516.28 556.97,515.72 552.88,514.09 548.75,512.59 544.62,511.06 541.97,510.06 540.53,509.47 536.41,507.75 532.28,506 528.19,504.31 527.12,503.88 524.06,502.59 519.94,500.94 515.84,499.47 511.72,497.94 511.22,497.75 507.59,496.25 503.5,494.44 499.38,492.5 497.75,491.69 495.25,490.41 491.16,488.25 487.03,486 486.56,485.69 482.91,483.22 478.81,480.41 477.81,479.75 474.69,477.66 470.56,475.06 468.12,473.84 466.47,472.97 462.34,470.75 458.25,468.5 457.38,468 454.12,466 450,463.56 447.69,462.19 445.91,461.19 441.78,458.81 437.66,456.5 437.62,456.47 433.56,453.72 429.44,451.09 428.94,450.75 425.31,448.53 421.22,446.19 419.22,445.12 417.09,443.94 412.97,441.78 408.88,439.72 408.47,439.5 404.75,437.69 400.62,436 396.53,434.44 395.19,433.97 392.41,432.94 388.31,431.5 384.19,430.09 380.06,428.84 378.53,428.44 375.97,427.72 371.84,426.75 367.72,426.03 363.62,425.47 359.5,425.06 355.38,424.84 351.28,424.91 347.16,425.09 343.03,425.47 338.94,425.97 334.81,426.56 330.69,427.28 326.59,428.09 325,428.44 323.59,428.69 " stroke="red" stroke-width="0.96875" stroke-linecap="round" stroke-linejoin="round" />
<polyline points="296.66,435.59 293.69,436.62 289.56,438.34 286.78,439.5 285.44,440.09 281.34,441.94 277.22,443.94 274.91,445.12 273.09,446.03 269,447.94 264.88,449.88 262.84,450.75 260.75,451.69 256.66,453.47 252.53,455.16 249.16,456.47 248.41,456.75 244.31,458.19 240.19,459.5 236.06,460.72 231.97,461.84 230.53,462.19 227.84,462.88 223.72,463.78 219.62,464.5 215.5,465.25 211.41,466.09 207.28,467.12 205.28,468 203.16,468.88 199.06,470.53 194.94,471.94 190.81,473 186.72,473.38 182.59,473.5 178.47,473.47 174.38,473.28 170.25,473.06 166.12,472.81 162.03,472.5 157.91,472.16 153.78,471.88 149.69,471.56 145.56,471.28 141.44,470.97 137.34,470.81 133.22,470.62 129.12,470.25 125,469.66 120.88,468.47 119.53,468 116.78,466.97 112.66,465.25 108.53,463.34 105.88,462.19 104.44,461.56 100.31,459.59 96.188,457.53 94.188,456.47 92.094,455.31 87.969,452.81 84.75,450.75 83.844,450.19 79.75,447.44 76.156,445.12 75.625,444.78 71.5,442.81 67.406,441.16 63.281,439.66 62.875,439.5 59.188,438.22 55.062,436.47 50.938,434.66 49.406,433.97 46.844,432.78 42.719,430.84 38.594,428.88 37.688,428.44 34.5,426.84 30.375,424.78 26.594,422.97 26.25,422.81 22.156,421.16 18.031,419.44 " stroke="red" stroke-width="0.96875" stroke-linecap="round" stroke-linejoin="round" />
<polyline points="299.62,429.88 300.5,429 302.25,429 303.12,429.88 303.12,431.62 302.25,432.5 299.62,432.5 299.62,434.25 303.12,434.25 " stroke="red" stroke-width="0.71875" stroke-linecap="round" stroke-linejoin="round" />
<polyline points="309.25,433.38 308.38,434.25 306.62,434.25 305.75,433.38 305.75,429.88 306.62,429 308.38,429 309.25,429.88 309.25,430.75 308.38,431.62 305.75,431.62 " stroke="red" stroke-width="0.71875" stroke-linecap="round" stroke-linejoin="round" />
<polyline points="313.62,434.25 311.88,431.62 315.38,431.62 315.38,434.25 315.38,429 " stroke="red" stroke-width="0.71875" stroke-linecap="round" stroke-linejoin="round" />
<polygon points="318.88,434.25 318,433.38 318,429.88 318.88,429 320.62,429 321.5,429.88 321.5,433.38 320.62,434.25 " stroke="red" stroke-width="0.71875" stroke-linejoin="round" />
<polyline points="594,466.06 592.12,468 589.88,470.41 586.09,473.84 585.78,474.06 581.66,475.16 577.53,475.78 573.44,476.06 569.31,475.97 565.19,475.19 561.09,474.25 559.28,473.84 556.97,473.31 552.88,472.47 548.75,472.25 544.62,472.03 540.53,471.75 536.41,471.31 532.28,470.34 528.19,469.19 524.41,468 524.06,467.88 519.94,466.38 515.84,464.84 511.72,463.28 508.94,462.19 507.59,461.69 503.5,460.12 499.38,459.03 495.25,457.97 491.16,456.88 489.81,456.47 487.03,455.53 482.91,453.72 478.81,451.88 476.34,450.75 474.69,450.03 470.56,448.19 466.47,446.28 463.88,445.12 462.34,444.44 458.25,442.59 454.12,440.78 451.41,439.5 450,438.81 445.91,436.62 441.78,434.31 441.16,433.97 437.66,431.81 433.56,429.72 430.84,428.44 429.44,427.78 425.31,425.88 421.22,424.03 419.03,422.97 417.09,422 412.97,420 408.88,418.16 407.47,417.53 404.75,416.34 400.62,414.59 396.53,412.94 394.53,412.16 392.41,411.28 388.31,409.72 384.19,408.38 380.06,407.09 379,406.78 375.97,405.88 371.84,404.72 367.72,403.66 363.62,402.66 359.5,401.78 357.91,401.47 355.38,400.94 351.28,400.12 347.16,399.44 343.03,398.84 338.94,398.47 334.81,398.47 330.69,398.72 326.59,399.25 323.59,399.91 " stroke="red" stroke-width="0.96875" stroke-linecap="round" stroke-linejoin="round" />
<polyline points="297.66,408.88 293.69,410.16 289.56,411.5 288,412.16 285.44,413.16 281.34,414.91 277.22,416.72 275.41,417.53 273.09,418.47 269,420.09 264.88,421.69 261.66,422.97 260.75,423.28 256.66,424.84 252.53,426.38 248.41,428 247.31,428.44 244.31,429.62 240.19,431.28 236.06,433.03 233.75,433.97 231.97,434.62 227.84,436.09 223.72,437.44 219.62,438.56 215.97,439.5 215.5,439.62 211.41,440.59 207.28,441.56 203.16,442.84 199.06,444.28 196.72,445.12 194.94,445.78 190.81,447.22 186.72,447.94 182.59,448.34 178.47,448.53 174.38,448.62 170.25,448.81 166.12,448.97 162.03,449.06 157.91,449.12 153.78,449.22 149.69,449.25 145.56,449.16 141.44,448.94 137.34,448.59 133.22,448.03 129.12,447.25 125,446.19 122.22,445.12 120.88,444.56 116.78,442.72 112.66,440.72 110.28,439.5 108.53,438.59 104.44,436.56 100.31,434.44 99.406,433.97 96.188,432.22 92.094,429.94 89.5,428.44 87.969,427.59 83.844,425.59 79.75,423.84 77.406,422.97 75.625,422.31 71.5,420.75 67.406,419.09 63.875,417.53 63.281,417.25 59.188,415.22 55.062,413.53 51.406,412.16 50.938,411.97 46.844,410.47 42.719,408.97 38.594,407.09 38,406.78 34.5,405.09 30.375,403.03 27.312,401.47 26.25,400.94 22.156,399.03 18.031,396.97 " stroke="red" stroke-width="0.96875" stroke-linecap="round" stroke-linejoin="round" />
<polyline points="299.62,402.41 300.5,401.53 302.25,401.53 303.12,402.41 303.12,404.16 302.25,405.03 299.62,405.03 299.62,406.78 303.12,406.78 " stroke="red" stroke-width="0.71875" stroke-linecap="round" stroke-linejoin="round" />
<polyline points="305.75,406.78 309.25,406.78 307.5,401.53 " stroke="red" stroke-width="0.71875" stroke-linecap="round" stroke-linejoin="round" />
<polygon points="312.75,406.78 311.88,405.91 311.88,402.41 312.75,401.53 314.5,401.53 315.38,402.41 315.38,405.91 314.5,406.78 " stroke="red" stroke-width="0.71875" stroke-linejoin="round" />
<polygon points="318.88,406.78 318,405.91 318,402.41 318.88,401.53 320.62,401.53 321.5,402.41 321.5,405.91 320.62,406.78 " stroke="red" stroke-width="0.71875" stroke-linejoin="round" />
<polyline points="594,336.5 592.75,340.41 591.16,345.31 589.88,349.34 589.56,350.28 587.88,355.25 586.16,360.25 585.78,361.34 584.25,365.28 582.41,370.38 581.66,372.78 580.75,375.47 579,380.59 577.53,384.94 577.25,385.78 575.31,390.97 573.44,395.84 573.28,396.22 570.94,401.47 569.31,404.81 568.34,406.78 565.31,412.16 565.19,412.31 561.25,417.53 561.09,417.72 556.97,421.41 554.66,422.97 552.88,423.97 548.75,425.59 544.62,426.62 540.53,427.19 536.41,427.28 532.28,426.84 528.19,426.12 524.06,425.19 519.94,424.09 515.84,423 515.75,422.97 511.72,421.78 507.59,420.59 503.5,419.44 499.38,418.56 495.25,417.81 493.59,417.53 491.16,417.12 487.03,416.47 482.91,415.91 478.81,415.28 474.69,414.53 470.56,413.62 466.47,412.38 465.78,412.16 462.34,410.97 458.25,409.47 454.12,407.94 451.47,406.78 450,406.16 445.91,404.34 441.78,402.59 439.06,401.47 437.66,400.88 433.56,399.38 429.44,397.88 425.31,396.41 424.78,396.22 421.22,394.84 417.09,393.31 412.97,391.81 410.69,390.97 408.88,390.28 404.75,388.69 400.62,386.97 397.72,385.78 396.53,385.22 392.41,383.34 388.31,381.44 386.44,380.59 384.19,379.47 380.06,377.44 376.09,375.47 375.97,375.38 371.84,373.12 367.72,370.38 363.62,367.66 359.88,365.28 359.5,365.06 355.38,362.69 351.28,360.91 349.59,360.25 347.16,359.28 343.03,357.75 338.94,356.22 336.38,355.25 335.72,355 " stroke="red" stroke-width="0.96875" stroke-linecap="round" stroke-linejoin="round" />
<polyline points="314.78,345.53 314.38,345.31 314.25,345.25 310.12,343.28 306.03,341.56 302.56,340.41 301.91,340.19 297.78,339.22 293.69,338.72 289.56,338.81 285.44,340.06 284.81,340.41 281.34,342.66 278.59,345.31 277.22,347.03 275.16,350.28 273.09,355.03 273,355.25 271.12,360.25 269.16,365.28 269,365.66 266.69,370.38 264.88,373.19 263.28,375.47 260.75,378.44 258.88,380.59 256.66,382.78 254.06,385.78 252.53,387.22 248.47,390.97 248.41,391 244.31,394 241.16,396.22 240.19,396.81 236.06,399.69 233.69,401.47 231.97,402.75 227.84,405.88 226.53,406.78 223.72,408.62 219.62,409.72 215.5,410.38 211.41,410.88 207.28,411.41 205.53,412.16 203.16,413.09 199.06,414.84 194.94,416.44 191.59,417.53 190.81,417.78 186.72,418.44 182.59,418.94 178.47,419.31 174.38,419.62 170.25,420 166.12,420.34 162.03,420.59 157.91,420.75 153.78,420.91 149.69,420.91 145.56,420.81 141.44,420.5 137.34,419.97 133.22,419.25 129.12,418.34 125.94,417.53 125,417.28 120.88,416.12 116.78,414.84 112.66,413.44 109.16,412.16 108.53,411.88 104.44,409.5 100.31,407.31 99.25,406.78 96.188,405.31 92.094,403.59 87.969,402.25 85.719,401.47 83.844,400.81 79.75,399.12 75.625,397.19 73.906,396.22 71.5,394.84 67.406,392.62 63.969,390.97 63.281,390.66 59.188,388.94 55.062,387.69 50.938,386.44 48.812,385.78 46.844,385.09 42.719,383.5 38.594,381.59 36.5,380.59 34.5,379.66 30.375,377.72 26.25,375.91 25.281,375.47 22.156,374.06 18.031,372.22 " stroke="red" stroke-width="0.96875" stroke-linecap="round" stroke-linejoin="round" />
<polyline points="313.06,348.53 313.94,347.66 315.69,347.66 316.56,348.53 316.56,350.28 315.69,351.16 313.06,351.16 313.06,352.91 316.56,352.91 " stroke="red" stroke-width="0.71875" stroke-linecap="round" stroke-linejoin="round" />
<polyline points="319.19,352.91 322.69,352.91 320.94,347.66 " stroke="red" stroke-width="0.71875" stroke-linecap="round" stroke-linejoin="round" />
<polyline points="328.81,352.03 327.94,352.91 326.19,352.91 325.31,352.03 325.31,348.53 326.19,347.66 327.94,347.66 328.81,348.53 328.81,349.41 327.94,350.28 325.31,350.28 " stroke="red" stroke-width="0.71875" stroke-linecap="round" stroke-linejoin="round" />
<polygon points="332.31,352.91 331.44,352.03 331.44,348.53 332.31,347.66 334.06,347.66 334.94,348.53 334.94,352.03 334.06,352.91 " stroke="red" stroke-width="0.71875" stroke-linejoin="round" />
<polyline points="553.38,247 553.34,247.03 552.88,247.44 548.75,250.91 548.09,251.5 544.62,254.97 543.66,256 540.53,259.31 539.44,260.5 536.41,264.12 535.56,265.03 532.28,268.88 531.62,269.59 528.19,273.75 527.84,274.16 525.09,278.75 524.06,281.16 523.12,283.34 521.97,287.97 521.66,292.62 523.09,297.31 524.06,299.44 525.12,302 527.34,306.72 528.19,308.56 529.28,311.44 530.25,316.22 530.88,321 531.22,325.81 531.31,330.66 531.28,335.5 530.97,340.41 530.38,345.31 529.41,350.28 528.19,354.56 527.94,355.25 525.44,360.25 524.06,362.25 520.88,365.28 519.94,365.94 515.84,366.81 511.72,366.72 507.59,366.03 504.66,365.28 503.5,364.97 499.38,363.59 495.25,362.03 491.16,360.38 490.88,360.25 487.03,358.41 482.91,356.91 478.81,355.47 478.16,355.25 474.69,353.97 470.56,352.56 466.47,351.16 463.94,350.28 462.34,349.72 458.25,348.34 454.12,347.03 450,345.72 448.62,345.31 445.91,344.56 441.78,343.59 437.66,342.84 433.56,342.69 429.44,342.56 425.31,342.38 421.22,341.97 417.09,341.03 414.91,340.41 412.97,339.84 408.88,338.44 404.75,336.88 401.75,335.5 400.62,335 396.53,332.97 392.41,330.94 391.78,330.66 388.31,328.84 384.19,326.69 382.47,325.81 380.06,324.5 375.97,322.34 373.25,321 371.84,320.25 367.72,318.53 363.62,316.72 362.53,316.22 359.5,314.62 355.38,312.34 353.97,311.44 351.28,310.06 347.16,308.16 343.34,306.72 343.03,306.59 340.06,305.62 " stroke="red" stroke-width="0.96875" stroke-linecap="round" stroke-linejoin="round" />
<polyline points="313.12,301.22 310.12,300.81 306.03,300.5 301.91,300.75 297.78,301.19 293.69,301.72 292.03,302 289.56,302.34 285.44,302.81 281.34,303.47 277.22,304.34 273.09,305.59 271.16,306.72 269,308 264.88,311.28 264.69,311.44 260.75,315.09 259.66,316.22 256.66,319.34 255.03,321 252.53,323.84 250.97,325.81 248.41,329.47 247.66,330.66 244.62,335.5 244.31,336.03 241.38,340.41 240.19,342.16 237.62,345.31 236.06,347.22 233.41,350.28 231.97,352.03 229,355.25 227.84,356.47 223.72,360.25 219.62,363.66 217.56,365.28 215.5,366.91 211.41,369.94 210.75,370.38 207.28,372.28 203.16,373.62 199.06,374.75 196.19,375.47 194.94,375.78 190.81,376.75 186.72,378.28 182.59,379.75 180,380.59 178.47,381.06 174.38,382.16 170.25,382.78 166.12,383.22 162.03,383.5 157.91,383.62 153.78,383.66 149.69,383.59 145.56,383.44 141.44,383.22 137.34,383.06 133.22,382.75 129.12,382.34 125,381.72 120.88,380.69 120.59,380.59 116.78,379.56 112.66,378.44 108.53,377.28 104.44,376.09 102.44,375.47 100.31,374.72 96.188,373.09 92.094,371.28 90.062,370.38 87.969,369.47 83.844,367.78 79.75,366.16 77.469,365.28 75.625,364.59 71.5,363.03 67.406,361.47 64.344,360.25 63.281,359.81 59.188,358.06 55.062,356.34 52.344,355.25 50.938,354.66 46.844,353 42.719,351.41 39.75,350.28 38.594,349.81 34.5,348.19 30.375,346.69 26.406,345.31 26.25,345.28 22.156,343.78 18.031,342.41 " stroke="red" stroke-width="0.96875" stroke-linecap="round" stroke-linejoin="round" />
<polyline points="316.09,301.69 316.97,300.81 318.72,300.81 319.59,301.69 319.59,303.44 318.72,304.31 316.09,304.31 316.09,306.06 319.59,306.06 " stroke="red" stroke-width="0.71875" stroke-linecap="round" stroke-linejoin="round" />
<polygon points="323.09,306.06 322.22,305.19 322.22,304.31 323.09,303.44 324.84,303.44 325.72,304.31 325.72,305.19 324.84,306.06 " stroke="red" stroke-width="0.71875" stroke-linejoin="round" />
<polyline points="323.09,303.44 322.22,302.56 322.22,301.69 323.09,300.81 324.84,300.81 325.72,301.69 325.72,302.56 324.84,303.44 " stroke="red" stroke-width="0.71875" stroke-linecap="round" stroke-linejoin="round" />
<polyline points="328.34,305.19 329.22,306.06 330.97,306.06 331.84,305.19 331.84,304.31 328.34,300.81 331.84,300.81 " stroke="red" stroke-width="0.71875" stroke-linecap="round" stroke-linejoin="round" />
<polygon points="335.34,306.06 334.47,305.19 334.47,301.69 335.34,300.81 337.09,300.81 337.97,301.69 337.97,305.19 337.09,306.06 " stroke="red" stroke-width="0.71875" stroke-linejoin="round" />
<polyline points="248.62,247 248.62,247.03 248.41,247.56 246.91,251.5 244.81,256 244.31,257.12 242.78,260.5 240.25,265.03 240.19,265.16 237.47,269.59 236.06,271.66 234.5,274.16 231.97,278.19 231.62,278.75 228.75,283.34 227.84,284.75 225.81,287.97 223.72,291.12 222.62,292.62 219.62,296.34 218.84,297.31 215.5,301.38 215,302 211.41,306.12 210.88,306.72 207.28,310.28 206.12,311.44 203.16,313.72 199.69,316.22 199.06,316.62 194.94,318.97 191.06,321 190.81,321.12 186.72,322.62 182.59,323.94 178.47,325.16 176.31,325.81 174.38,326.38 170.25,328.22 166.12,330.25 165.38,330.66 165.09,330.78 " stroke="red" stroke-width="0.96875" stroke-linecap="round" stroke-linejoin="round" />
<polyline points="140.53,338.25 137.34,338.72 133.22,339.16 129.12,339.38 125,339.34 120.88,338.88 116.78,338.25 112.66,337.47 108.53,336.62 104.44,335.72 103.59,335.5 100.31,334.66 96.188,333.59 92.094,332.47 87.969,331.41 85.281,330.66 83.844,330.12 79.75,328.53 75.625,326.91 73.125,325.81 71.5,325.03 67.406,323.03 63.281,321.09 63.094,321 59.188,318.97 55.062,316.72 54.062,316.22 50.938,314.5 46.844,312.41 44.875,311.44 42.719,310.28 38.594,307.91 36.562,306.72 34.5,305.38 30.375,302.75 29.156,302 26.25,300 22.156,297.47 21.875,297.31 18.031,295.12 " stroke="red" stroke-width="0.96875" stroke-linecap="round" stroke-linejoin="round" />
<polyline points="143.5,333.75 144.38,332.88 146.12,332.88 147,333.75 147,335.5 146.12,336.38 143.5,336.38 143.5,338.12 147,338.12 " stroke="red" stroke-width="0.71875" stroke-linecap="round" stroke-linejoin="round" />
<polygon points="150.5,338.12 149.62,337.25 149.62,336.38 150.5,335.5 152.25,335.5 153.12,336.38 153.12,337.25 152.25,338.12 " stroke="red" stroke-width="0.71875" stroke-linejoin="round" />
<polyline points="150.5,335.5 149.62,334.62 149.62,333.75 150.5,332.88 152.25,332.88 153.12,333.75 153.12,334.62 152.25,335.5 " stroke="red" stroke-width="0.71875" stroke-linecap="round" stroke-linejoin="round" />
<polygon points="156.62,338.12 155.75,337.25 155.75,336.38 156.62,335.5 158.38,335.5 159.25,336.38 159.25,337.25 158.38,338.12 " stroke="red" stroke-width="0.71875" stroke-linejoin="round" />
<polyline points="156.62,335.5 155.75,334.62 155.75,333.75 156.62,332.88 158.38,332.88 159.25,333.75 159.25,334.62 158.38,335.5 " stroke="red" stroke-width="0.71875" stroke-linecap="round" stroke-linejoin="round" />
<polygon points="162.75,338.12 161.88,337.25 161.88,333.75 162.75,332.88 164.5,332.88 165.38,333.75 165.38,337.25 164.5,338.12 " stroke="red" stroke-width="0.71875" stroke-linejoin="round" />
</g>
</svg>
