<?xml version="1.0" encoding="ISO-8859-1" standalone="no"?>
<!DOCTYPE svg PUBLIC "-//W3C//DTD SVG 1.1//EN" "http://www.w3.org/Graphics/SVG/1.1/DTD/svg11.dtd">
<svg version="1.1" baseProfile="full" id="body" width="900px" height="600px" viewBox="0 0.2 1 0.55" preserveAspectRatio="none" xmlns="http://www.w3.org/2000/svg" xmlns:xlink="http://www.w3.org/1999/xlink" xmlns:ev="http://www.w3.org/2001/xml-events">
<title>SVG drawing</title>
<desc>This was produced by version 4.2 of GNU libplot, a free library for exporting 2-D vector graphics.</desc>
<rect id="background" x="0" y="0" width="1" height="1" stroke="none" fill="none"/>
<g id="content" transform="translate(-0.03125,1.1875) scale(1,-1) scale(0.0017361) " xml:space="preserve" stroke="black" stroke-linecap="butt" stroke-linejoin="miter" stroke-miterlimit="10.433" stroke-dasharray="none" stroke-dashoffset="0" stroke-opacity="1" fill="none" fill-rule="even-odd" fill-opacity="1" font-style="normal" font-variant="normal" font-weight="normal" font-stretch="normal" font-size-adjust="none" letter-spacing="normal" word-spacing="normal" text-anchor="start">
<polyline points="55.094,568.66 55.094,568.62 55.062,568.53 50.938,561.94 50.875,561.84 48.969,559.84 " stroke="red" stroke-width="0.96875" stroke-linecap="round" stroke-linejoin="round" />
<polyline points="36.094,550.38 34.5,549.69 30.656,548.47 30.375,548.41 26.25,547.44 22.156,546.66 18.031,545.62 " stroke="red" stroke-width="0.96875" stroke-linecap="round" stroke-linejoin="round" />
<polyline points="33.188,553.38 34.062,552.5 35.812,552.5 36.688,553.38 36.688,555.12 35.812,556 33.188,556 33.188,557.75 36.688,557.75 " stroke="red" stroke-width="0.71875" stroke-linecap="round" stroke-linejoin="round" />
<polyline points="39.312,556.88 40.188,557.75 41.938,557.75 42.812,556.88 42.812,556 39.312,552.5 42.812,552.5 " stroke="red" stroke-width="0.71875" stroke-linecap="round" stroke-linejoin="round" />
<polygon points="46.312,557.75 45.438,556.88 45.438,556 46.312,555.12 48.062,555.12 48.938,556 48.938,556.88 48.062,557.75 " stroke="red" stroke-width="0.71875" stroke-linejoin="round" />
<polyline points="46.312,555.12 45.438,554.25 45.438,553.38 46.312,552.5 48.062,552.5 48.938,553.38 48.938,554.25 48.062,555.12 " stroke="red" stroke-width="0.71875" stroke-linecap="round" stroke-linejoin="round" />
<polygon points="52.438,557.75 51.562,556.88 51.562,553.38 52.438,552.5 54.188,552.5 55.062,553.38 55.062,556.88 54.188,557.75 " stroke="red" stroke-width="0.71875" stroke-linejoin="round" />
<polyline points="244.03,568.66 244.03,568.62 241.94,561.84 240.19,556.16 239.97,555.12 238.47,548.47 236.31,541.91 236.06,541.38 232.69,535.38 231.97,534.53 227.84,531 223.72,529.12 219.62,529.09 215.5,529.75 211.41,530.84 207.28,532.22 203.16,534.06 200.81,535.38 199.06,536.56 194.94,539.91 192.84,541.91 190.81,544.44 187.25,548.47 186.72,549.28 183.09,555.12 182.59,556.22 179.75,561.84 178.47,564.97 176.59,568.62 176.59,568.66 " stroke="red" stroke-width="0.96875" stroke-linecap="round" stroke-linejoin="round" />
<polyline points="99.719,568.66 99.656,568.62 96.188,566.75 92.094,564.06 89.469,561.84 87.969,560.47 83.844,556.12 83.031,555.12 79.75,549.97 78.844,548.47 75.625,543.47 74.875,541.91 71.5,536.19 71.031,535.38 67.406,530.81 65.719,528.97 63.281,527.25 59.188,524.91 55.062,523.16 53.344,522.59 50.938,521.91 46.844,521.03 42.719,520.5 38.594,520.88 34.5,521.47 30.375,522.16 27.344,522.59 26.25,522.75 22.156,522.91 18.031,522.59 " stroke="red" stroke-width="0.96875" stroke-linecap="round" stroke-linejoin="round" />
<polyline points="286.41,568.66 286.38,568.62 285.44,567.97 281.34,564.78 278.06,561.84 277.22,561.06 273.09,556.72 271.94,555.12 269,550.94 267.44,548.47 264.88,544.56 263.25,541.91 260.75,538 259.16,535.38 256.66,531.62 255.09,528.97 252.53,525.44 250.47,522.59 248.41,520 245.28,516.28 244.31,515.25 240.19,511.38 238.19,510.06 236.06,508.75 231.97,506.91 227.84,505.62 223.72,504.97 219.62,505.25 215.5,506.03 211.41,507.19 207.28,508.59 203.16,509.69 201.97,510.06 199.06,510.97 194.94,512.47 190.81,514.25 187.22,516.28 186.72,516.59 184.41,517.88 " stroke="red" stroke-width="0.96875" stroke-linecap="round" stroke-linejoin="round" />
<polyline points="167.84,527.31 166.12,528.56 165.59,528.97 162.03,531.75 157.91,534.09 153.78,533.84 149.69,532.56 145.56,530.19 143.88,528.97 141.44,527.88 137.34,527.31 133.22,527.03 129.12,526.97 125,527.16 120.88,528.38 118.97,528.97 116.78,529.69 112.66,530.53 108.53,530.5 106.66,528.97 104.44,526.81 100.88,522.59 100.31,521.97 96.188,517.34 95.156,516.28 92.094,513.62 87.969,511.38 85.125,510.06 83.844,509.53 79.75,508.09 75.625,506.91 71.5,506.16 67.406,505.66 63.281,505.31 59.188,505 55.062,504.44 50.938,503.91 50.594,503.88 46.844,503.41 42.719,502.94 38.594,502.72 34.5,502.53 30.375,502.31 26.25,502 22.156,501.53 18.031,500.94 " stroke="red" stroke-width="0.96875" stroke-linecap="round" stroke-linejoin="round" />
<polyline points="164.5,520.84 165.38,519.97 167.12,519.97 168,520.84 168,522.59 167.12,523.47 164.5,523.47 164.5,525.22 168,525.22 " stroke="red" stroke-width="0.71875" stroke-linecap="round" stroke-linejoin="round" />
<polyline points="172.38,525.22 170.62,522.59 174.12,522.59 174.12,525.22 174.12,519.97 " stroke="red" stroke-width="0.71875" stroke-linecap="round" stroke-linejoin="round" />
<polygon points="177.62,525.22 176.75,524.34 176.75,520.84 177.62,519.97 179.38,519.97 180.25,520.84 180.25,524.34 179.38,525.22 " stroke="red" stroke-width="0.71875" stroke-linejoin="round" />
<polygon points="183.75,525.22 182.88,524.34 182.88,520.84 183.75,519.97 185.5,519.97 186.38,520.84 186.38,524.34 185.5,525.22 " stroke="red" stroke-width="0.71875" stroke-linejoin="round" />
<polyline points="594,556.53 591.22,555.12 589.88,554.09 585.78,551.19 582.03,548.47 581.66,548.16 577.53,544.81 574.16,541.91 573.44,541.22 569.31,537.31 567.34,535.38 565.19,533.34 561.09,529.62 560.19,528.97 556.97,527.84 552.88,526.97 548.75,526.66 544.62,527.59 543,528.97 540.53,534.56 540.25,535.38 536.56,541.91 536.41,542.03 532.28,545.41 528.19,547.56 525.62,548.47 524.06,548.81 519.94,549.5 515.84,549.59 511.72,549.62 507.59,549.69 503.5,549.84 499.38,550.47 495.25,551.16 491.16,551.97 487.03,552.78 482.91,553.47 478.81,554.12 474.69,554.75 472.16,555.12 470.56,555.31 466.47,555.84 462.34,556.38 458.25,556.97 454.12,557.62 450,558.47 445.91,559.38 441.78,560.31 437.66,561.28 435.56,561.84 433.56,562.34 429.44,563.38 425.31,564.41 421.22,565.34 417.09,566.03 412.97,566.56 408.88,567 404.75,567.34 400.62,567.69 396.53,567.94 392.41,568.09 388.31,568.06 384.19,567.88 380.06,567.5 375.97,566.94 371.84,566.12 367.72,564.81 363.62,563.28 360.03,561.84 359.5,561.62 355.38,559.94 351.28,558.5 347.16,557.09 343.03,555.72 341.19,555.12 338.94,554.41 334.81,553.28 330.69,552.06 326.59,550.75 322.47,549.19 320.91,548.47 318.34,547.25 314.25,545.03 310.12,542.59 309.88,542.44 " stroke="red" stroke-width="0.96875" stroke-linecap="round" stroke-linejoin="round" />
<polyline points="293.97,533 293.69,532.81 289.56,530.09 288.03,528.97 285.44,527.06 281.34,523.84 279.81,522.59 277.22,520.5 273.09,517.03 272.31,516.28 269,513.22 265.56,510.06 264.88,509.44 260.75,505.69 258.72,503.88 256.66,501.88 252.75,497.75 252.53,497.53 248.41,493.88 245.5,491.69 244.31,490.88 240.19,488.47 236.06,486.53 233.94,485.69 231.97,484.88 227.84,483.5 223.72,482.5 219.62,482.31 215.5,482.62 211.41,483.47 207.28,484.78 205.47,485.69 203.16,486.75 199.06,488.66 194.94,490.44 191.81,491.69 190.81,492.06 186.72,493.59 182.59,495.28 178.47,497.12 177,497.75 174.38,498.94 170.25,499.03 166.12,498.66 162.03,498.06 159.59,497.75 157.91,497.56 156.97,497.75 153.78,498.47 149.69,499.56 145.56,500.69 141.44,501.59 137.34,501.84 133.22,501.81 129.12,501.53 125,501.03 120.88,500.22 116.78,499.09 113.12,497.75 112.66,497.59 108.53,495.84 104.44,494 100.31,492.34 98.438,491.69 96.188,490.97 92.094,489.81 87.969,488.88 83.844,488.09 79.75,487.5 75.625,487.06 71.5,487.12 67.406,487.25 63.281,487.41 59.188,487.5 55.062,487.16 50.938,486.69 46.844,486.16 43.781,485.69 42.719,485.5 38.594,484.84 34.5,484.09 30.375,483.25 26.25,482.31 22.156,481.38 18.031,480.28 " stroke="red" stroke-width="0.96875" stroke-linecap="round" stroke-linejoin="round" />
<polyline points="291.41,535.97 292.28,535.09 294.03,535.09 294.91,535.97 294.91,537.72 294.03,538.59 291.41,538.59 291.41,540.34 294.91,540.34 " stroke="red" stroke-width="0.71875" stroke-linecap="round" stroke-linejoin="round" />
<polyline points="299.28,540.34 297.53,537.72 301.03,537.72 301.03,540.34 301.03,535.09 " stroke="red" stroke-width="0.71875" stroke-linecap="round" stroke-linejoin="round" />
<polyline points="307.16,539.47 306.28,540.34 304.53,540.34 303.66,539.47 303.66,535.97 304.53,535.09 306.28,535.09 307.16,535.97 307.16,536.84 306.28,537.72 303.66,537.72 " stroke="red" stroke-width="0.71875" stroke-linecap="round" stroke-linejoin="round" />
<polygon points="310.66,540.34 309.78,539.47 309.78,535.97 310.66,535.09 312.41,535.09 313.28,535.97 313.28,539.47 312.41,540.34 " stroke="red" stroke-width="0.71875" stroke-linejoin="round" />
<polyline points="594,514.81 589.88,511.69 587.59,510.06 585.78,508.75 581.66,505.19 580.09,503.88 577.53,501.81 573.44,498.59 572.28,497.75 569.31,495.59 565.19,492.97 563.28,491.69 561.09,490.19 556.97,487.19 555,485.69 552.88,484.03 548.75,480.81 547.19,479.75 544.62,478.16 540.53,476.16 536.41,474.72 532.28,473.97 528.75,473.84 528.19,473.81 528,473.84 524.06,474.34 519.94,475.59 515.84,478.25 514,479.75 511.72,482.03 508.91,485.69 507.59,487.91 505.66,491.69 503.5,497.09 503.12,497.75 499.97,503.88 499.38,504.88 495.34,510.06 495.25,510.12 491.16,513.72 487.47,516.28 487.03,516.56 482.91,519.28 478.81,521.72 477.31,522.59 474.69,523.94 470.56,526.03 466.47,528.09 464.72,528.97 462.34,529.94 458.25,531.5 454.12,532.91 450,534.09 445.91,535.19 445.09,535.38 441.78,536.16 437.66,537.06 433.56,537.94 429.44,538.72 425.31,539.44 421.22,540.03 417.09,540.47 412.97,540.78 408.88,541 404.75,541.16 400.62,541.41 396.53,541.53 392.41,541.56 388.31,541.47 384.19,541.12 380.06,540.62 375.97,539.91 371.84,539 367.72,537.75 363.62,536.41 360.75,535.38 359.5,534.97 355.38,533.5 351.28,532.09 347.16,530.66 343.03,529.09 342.69,528.97 338.94,527.56 334.81,525.91 330.69,524.16 327.47,522.62 " stroke="red" stroke-width="0.96875" stroke-linecap="round" stroke-linejoin="round" />
<polyline points="310.62,513.19 310.12,512.88 306.03,510.09 305.97,510.06 301.91,507.19 297.78,504.03 297.59,503.88 293.69,500.97 289.56,497.84 289.44,497.75 285.44,494.5 282.44,491.69 281.34,490.59 277.22,486.12 276.84,485.69 273.09,481.69 270.47,479.75 269,478.94 264.88,476.91 260.75,474.97 258.41,473.84 256.66,473 252.53,471.19 248.41,469.56 244.31,468.06 244.16,468 240.19,466.5 236.06,463.69 234.12,462.19 231.97,460.5 227.84,457.22 226.72,456.47 223.72,454.75 219.62,454.62 215.5,455.31 211.84,456.47 211.41,456.62 207.28,458.59 203.16,460.78 200.78,462.19 199.06,463.28 194.94,465.88 191.25,468 190.81,468.25 186.72,468.72 182.59,468.72 178.47,468.5 174.38,468.28 170.25,468.84 166.12,469.47 162.03,470.09 157.91,470.66 153.78,471.06 149.69,471.44 145.56,471.88 141.44,472.34 137.34,473.28 134.94,473.84 133.22,474.25 129.12,475 125,475.41 120.88,474.34 119.31,473.84 116.78,473 112.66,471.62 108.53,470.41 104.44,469.97 100.31,469.69 96.188,469.44 92.094,469.19 87.969,468.66 83.844,468.09 83.094,468 79.75,467.5 75.625,466.94 71.5,466.59 67.406,466.28 63.281,465.97 59.188,465.69 55.062,465.47 50.938,465.22 46.844,464.88 42.719,464.44 38.594,463.59 34.5,462.59 32.938,462.19 30.375,461.53 26.25,460.41 22.156,459.56 18.031,458.62 " stroke="red" stroke-width="0.96875" stroke-linecap="round" stroke-linejoin="round" />
<polyline points="307.84,516.16 308.72,515.28 310.47,515.28 311.34,516.16 311.34,517.91 310.47,518.78 307.84,518.78 307.84,520.53 311.34,520.53 " stroke="red" stroke-width="0.71875" stroke-linecap="round" stroke-linejoin="round" />
<polyline points="313.97,516.16 314.84,515.28 316.59,515.28 317.47,516.16 317.47,517.91 316.59,518.78 313.97,518.78 313.97,520.53 317.47,520.53 " stroke="red" stroke-width="0.71875" stroke-linecap="round" stroke-linejoin="round" />
<polyline points="320.09,519.66 320.97,520.53 322.72,520.53 323.59,519.66 323.59,518.78 320.09,515.28 323.59,515.28 " stroke="red" stroke-width="0.71875" stroke-linecap="round" stroke-linejoin="round" />
<polygon points="327.09,520.53 326.22,519.66 326.22,516.16 327.09,515.28 328.84,515.28 329.72,516.16 329.72,519.66 328.84,520.53 " stroke="red" stroke-width="0.71875" stroke-linejoin="round" />
<polyline points="594,486.34 592.94,485.69 589.88,483.84 585.78,481.31 583.53,479.75 581.66,478.34 577.53,475.25 575.62,473.84 573.44,472.16 569.31,469.03 568.09,468 565.19,465.56 561.09,462.19 556.97,459.06 553.06,456.47 552.88,456.31 548.75,454.28 544.62,452.53 540.53,451.03 539.62,450.75 536.41,449.78 532.28,448.69 528.19,448 524.06,447.81 519.94,448.25 515.84,450.03 514.69,450.75 511.72,452.81 507.62,456.47 507.59,456.47 503.5,459.91 500.66,462.19 499.38,463.22 495.25,466.62 493.62,468 491.16,470.12 487.03,473.72 486.91,473.84 482.91,477.78 480.94,479.75 478.81,482.22 475.53,485.69 474.69,486.56 470.56,490.31 468.62,491.69 466.47,493.22 462.34,495.81 459,497.75 458.25,498.19 454.12,500.41 450,502.34 446.47,503.88 445.91,504.09 441.78,505.66 437.66,507.06 433.56,508.44 429.44,509.62 427.78,510.06 425.31,510.66 421.22,511.53 417.09,512.25 412.97,512.84 408.88,513.31 404.75,513.62 400.62,513.78 396.53,513.84 392.41,513.78 388.31,513.56 384.19,513.25 380.06,512.84 375.97,512.34 371.84,511.78 367.72,511.25 363.62,510.69 359.62,510.06 359.5,510.03 355.38,509.28 351.28,508.38 347.16,507.38 343.03,506.16 338.94,504.78 336.81,503.88 334.81,502.84 330.69,500.44 326.59,497.75 326.56,497.75 324.91,496.5 " stroke="red" stroke-width="0.96875" stroke-linecap="round" stroke-linejoin="round" />
<polyline points="311.62,487.06 310.12,486.03 309.62,485.69 306.03,483.16 301.91,480.16 301.34,479.75 297.78,476.22 295.47,473.84 293.69,471.84 290,468 289.56,467.56 285.44,464.34 281.41,462.19 281.34,462.16 277.22,460.5 273.09,459.03 269,456.69 268.59,456.47 264.88,453.78 260.75,451.06 260.22,450.75 256.66,448.69 252.53,447.66 248.41,446.72 244.31,445.72 242.28,445.12 240.19,444.44 236.06,441.5 233.25,439.5 231.97,438.62 227.84,436.12 223.72,434.19 222.19,433.97 219.62,433.56 215.5,433.31 211.41,433.47 207.78,433.97 207.28,434.03 203.16,434.81 199.06,435.88 194.94,437.16 190.81,438.56 187.78,439.5 186.72,439.84 182.59,441.03 178.47,442.09 174.38,443.03 170.25,444.09 166.12,445.09 166.03,445.12 162.03,446 157.91,446.78 153.78,447.12 149.69,447.31 145.56,447.31 141.44,447.22 137.34,447.06 133.22,446.84 129.12,446.53 125,446.16 120.88,445.69 116.78,445.19 115.88,445.12 112.66,444.78 108.53,444.5 104.44,444.78 100.5,445.12 100.31,445.12 96.188,445.41 92.094,445.56 88.219,445.12 87.969,445.09 83.844,444.41 79.75,443.59 75.625,442.66 71.5,441.44 67.406,440.16 65.125,439.5 63.281,439 59.188,438.06 55.062,438.16 50.938,438.44 46.844,438.81 42.719,439.16 38.594,438.91 34.5,438.53 30.375,438.09 26.25,437.59 22.156,437.25 18.031,436.81 " stroke="red" stroke-width="0.96875" stroke-linecap="round" stroke-linejoin="round" />
<polyline points="307.84,490.03 308.72,489.16 310.47,489.16 311.34,490.03 311.34,491.78 310.47,492.66 307.84,492.66 307.84,494.41 311.34,494.41 " stroke="red" stroke-width="0.71875" stroke-linecap="round" stroke-linejoin="round" />
<polyline points="313.97,490.03 314.84,489.16 316.59,489.16 317.47,490.03 317.47,491.78 316.59,492.66 313.97,492.66 313.97,494.41 317.47,494.41 " stroke="red" stroke-width="0.71875" stroke-linecap="round" stroke-linejoin="round" />
<polygon points="320.97,494.41 320.09,493.53 320.09,492.66 320.97,491.78 322.72,491.78 323.59,492.66 323.59,493.53 322.72,494.41 " stroke="red" stroke-width="0.71875" stroke-linejoin="round" />
<polyline points="320.97,491.78 320.09,490.91 320.09,490.03 320.97,489.16 322.72,489.16 323.59,490.03 323.59,490.91 322.72,491.78 " stroke="red" stroke-width="0.71875" stroke-linecap="round" stroke-linejoin="round" />
<polygon points="327.09,494.41 326.22,493.53 326.22,490.03 327.09,489.16 328.84,489.16 329.72,490.03 329.72,493.53 328.84,494.41 " stroke="red" stroke-width="0.71875" stroke-linejoin="round" />
<polyline points="594,448.91 589.88,447.62 585.78,446.34 583.41,445.12 581.66,444.22 577.53,442.06 573.44,440 572.47,439.5 569.31,438.06 565.19,436.31 561.09,434.78 558.78,433.97 556.97,433.38 552.88,432.03 548.75,430.5 544.62,429.12 542.25,428.44 540.53,427.94 536.41,426.97 532.28,426.22 528.19,425.69 524.06,425.47 519.94,425.56 515.84,426.28 511.72,427.31 508.41,428.44 507.59,428.72 503.5,430.56 499.38,433.03 498.06,433.97 495.25,436.66 492.41,439.5 491.16,440.84 487.03,445.06 486.97,445.12 482.91,448.75 480.5,450.75 478.81,452.12 474.69,455.22 472.88,456.47 470.56,458.06 466.47,460.53 463.38,462.19 462.34,462.78 458.25,464.84 454.12,466.78 451.59,468 450,468.78 445.91,470.72 441.78,472.62 439.16,473.84 437.66,474.53 433.56,476.75 429.44,478.91 427.72,479.75 425.31,480.84 421.22,482.47 417.09,483.41 412.97,484.09 408.88,484.53 404.75,484.81 400.62,484.91 396.53,484.88 392.41,484.75 388.31,484.62 384.19,484.69 380.06,484.75 375.97,484.75 371.84,484.66 367.72,484.5 363.62,484.19 359.5,483.62 355.38,482.72 351.28,481.22 348.09,479.75 347.16,479.22 343.03,476.62 339.03,473.84 338.94,473.78 334.81,470.69 331.16,468 330.69,467.66 326.59,464.53 323.56,462.19 322.47,461.34 322.31,461.19 " stroke="red" stroke-width="0.96875" stroke-linecap="round" stroke-linejoin="round" />
<polyline points="311.97,451.72 310.88,450.75 310.12,450.09 306.03,446.78 303.91,445.12 301.91,443.62 297.78,440.91 295.44,439.5 293.69,438.5 289.56,436.31 285.44,434.5 284.22,433.97 281.34,432.47 277.22,430.31 273.62,428.44 273.09,428.16 269,425.62 264.88,423.09 264.66,422.97 260.75,420.62 256.66,418.41 253.06,417.53 252.53,417.41 248.41,416.78 244.31,416.44 240.19,416.22 236.06,415.97 231.97,415.66 227.84,415.22 223.72,414.59 219.62,412.59 218.81,412.16 215.5,409.28 211.78,406.78 211.41,406.56 207.28,404.97 203.16,406.44 202.5,406.78 199.06,408.62 194.94,411.22 193.41,412.16 190.81,413.41 186.72,413.75 182.59,413.84 178.47,413.81 174.38,413.84 170.25,414.75 166.12,415.81 162.03,416.84 158.97,417.53 157.91,417.78 153.78,418.12 149.69,418.34 145.56,418.44 141.44,418.5 137.34,418.78 133.22,418.97 129.12,419.06 125,419.03 120.88,418.47 116.78,417.88 114.34,417.53 112.66,417.31 108.53,416.91 104.44,417.28 102.53,417.53 100.31,417.84 96.188,418.47 92.094,419.06 87.969,419.47 83.844,419.72 79.75,419.81 75.625,419.66 71.5,418.84 67.406,417.97 65.344,417.53 63.281,417.09 59.188,416.41 55.062,416.5 50.938,416.78 46.844,417.12 42.719,417.44 38.594,417.34 34.5,417.16 30.375,416.88 26.25,416.59 22.156,416.44 18.031,416.25 " stroke="red" stroke-width="0.96875" stroke-linecap="round" stroke-linejoin="round" />
<polyline points="306.56,454.72 307.44,453.84 309.19,453.84 310.06,454.72 310.06,456.47 309.19,457.34 306.56,457.34 306.56,459.09 310.06,459.09 " stroke="red" stroke-width="0.71875" stroke-linecap="round" stroke-linejoin="round" />
<polyline points="316.19,458.22 315.31,459.09 313.56,459.09 312.69,458.22 312.69,454.72 313.56,453.84 315.31,453.84 316.19,454.72 316.19,455.59 315.31,456.47 312.69,456.47 " stroke="red" stroke-width="0.71875" stroke-linecap="round" stroke-linejoin="round" />
<polyline points="320.56,459.09 318.81,456.47 322.31,456.47 322.31,459.09 322.31,453.84 " stroke="red" stroke-width="0.71875" stroke-linecap="round" stroke-linejoin="round" />
<polygon points="325.81,459.09 324.94,458.22 324.94,454.72 325.81,453.84 327.56,453.84 328.44,454.72 328.44,458.22 327.56,459.09 " stroke="red" stroke-width="0.71875" stroke-linejoin="round" />
<polyline points="594,404.41 589.88,404.72 585.78,405.12 581.66,405.5 577.53,405.84 573.44,406.19 569.31,406.44 565.19,406.38 561.09,406.19 556.97,405.97 552.88,405.69 548.75,405.41 544.62,405.09 540.53,404.84 536.41,404.69 532.28,404.56 528.19,404.59 524.06,404.84 519.94,405.38 515.84,406.53 515.12,406.78 511.72,407.91 507.59,409.53 503.5,411.41 502,412.16 499.38,413.19 495.25,415.03 491.16,417.16 490.41,417.53 487.03,419.41 482.91,421.59 480.5,422.97 478.81,423.97 474.69,426.53 471.81,428.44 470.56,429.28 466.47,431.88 463.06,433.97 462.34,434.34 458.25,436.44 454.12,438.31 451.38,439.5 450,440.09 445.91,441.72 441.78,443.28 437.66,444.81 436.94,445.12 433.56,446.47 429.44,448.06 425.31,449.66 422.22,450.75 421.22,451.12 417.09,452.28 412.97,453.22 408.88,454 404.75,454.59 400.62,455.03 396.53,455.28 392.41,455.38 388.31,455.34 384.19,455.38 380.06,455.22 375.97,454.78 371.84,453.91 367.72,452.25 364.56,450.75 363.62,450.31 359.5,448.16 355.38,445.97 353.78,445.12 351.28,443.81 347.16,441.5 343.88,439.5 343.03,438.97 338.94,435.97 336.75,433.97 334.81,431.59 332.41,428.44 330.69,426.03 328.53,422.97 326.59,420.28 324.38,417.53 324.28,417.44 " stroke="red" stroke-width="0.96875" stroke-linecap="round" stroke-linejoin="round" />
<polyline points="305.94,408 303.28,406.78 301.91,406.19 297.78,404.31 293.69,402.38 291.75,401.47 289.56,400.47 285.44,398.47 281.34,396.47 280.81,396.22 277.22,394.47 273.09,392.53 269.97,390.97 269,390.47 264.88,388.5 260.75,386.91 256.66,385.78 256.66,385.75 256.62,385.78 252.53,386.19 248.41,386.75 244.31,387.09 240.19,386.94 238.47,385.78 236.06,384.12 231.97,381.03 231.38,380.59 227.84,378.25 223.72,376.12 219.62,375.84 215.5,376 211.41,376.34 207.28,376.75 203.16,376.44 199.06,376.12 194.94,375.84 190.81,375.78 186.72,376.97 182.59,378.62 178.47,380.56 178.38,380.59 174.38,382.41 170.25,383.78 166.12,384.88 162.03,385.75 161.94,385.78 157.91,386.38 153.78,386.66 149.69,386.84 145.56,387.03 141.44,387.22 137.34,387.81 133.22,388.5 129.12,389.22 125,389.88 120.88,389.84 116.78,389.78 112.66,389.78 108.53,389.97 104.47,390.97 104.44,390.97 100.31,392.16 96.188,393.34 92.094,394.44 87.969,395 83.844,395.44 79.75,395.72 75.625,395.88 71.5,395.75 67.406,395.59 63.281,395.44 59.188,395.31 55.062,395.53 50.938,395.75 46.844,396 42.719,396.19 38.594,396.09 34.5,395.94 30.375,395.72 26.25,395.47 22.156,395.28 18.031,395.03 " stroke="red" stroke-width="0.96875" stroke-linecap="round" stroke-linejoin="round" />
<polyline points="307.84,410.97 308.72,410.09 310.47,410.09 311.34,410.97 311.34,412.72 310.47,413.59 307.84,413.59 307.84,415.34 311.34,415.34 " stroke="red" stroke-width="0.71875" stroke-linecap="round" stroke-linejoin="round" />
<polyline points="313.97,415.34 317.47,415.34 315.72,410.09 " stroke="red" stroke-width="0.71875" stroke-linecap="round" stroke-linejoin="round" />
<polygon points="320.97,415.34 320.09,414.47 320.09,410.97 320.97,410.09 322.72,410.09 323.59,410.97 323.59,414.47 322.72,415.34 " stroke="red" stroke-width="0.71875" stroke-linejoin="round" />
<polygon points="327.09,415.34 326.22,414.47 326.22,410.97 327.09,410.09 328.84,410.09 329.72,410.97 329.72,414.47 328.84,415.34 " stroke="red" stroke-width="0.71875" stroke-linejoin="round" />
<polyline points="594,337.38 589.88,340 589.31,340.41 585.78,342.53 581.78,345.31 581.66,345.41 577.53,348.09 574.38,350.28 573.44,350.97 569.31,353.94 567.41,355.25 565.19,356.44 561.09,358.44 556.97,360.12 556.69,360.25 552.88,361.53 548.75,363.09 544.62,364.69 543.03,365.28 540.53,366.12 536.41,367.34 532.28,367.88 528.19,368.22 524.06,368.53 519.94,368.84 515.84,369.44 511.72,370.28 511.34,370.38 507.59,371.56 503.5,373.41 500.41,375.47 499.38,376.16 495.25,379.59 494.25,380.59 491.16,383.44 488.81,385.78 487.03,387.28 482.91,390.22 481.75,390.97 478.81,392.22 474.69,393.84 470.56,395.41 468.69,396.22 466.47,397.06 462.34,398.69 458.25,400.31 455.28,401.47 454.12,401.91 450,403.41 445.91,404.91 441.78,406.41 440.5,406.78 437.66,407.62 433.56,408 429.44,408.03 425.31,407.88 421.22,407.66 417.09,407.84 412.97,408.09 408.88,408.31 404.75,408.47 400.62,408.22 396.53,407.94 392.41,407.66 388.31,407.47 384.19,407.62 380.06,407.78 375.97,407.81 371.84,407.62 367.72,407.19 366.03,406.78 363.62,406.19 359.5,404.5 355.38,402.09 354.72,401.47 351.28,398.44 348.78,396.22 347.16,394.91 343.03,391.72 342,390.97 338.94,388.94 334.81,386.41 333.72,385.78 332.91,385.31 " stroke="red" stroke-width="0.96875" stroke-linecap="round" stroke-linejoin="round" />
<polyline points="313.75,375.88 312.88,375.47 310.12,374.12 306.03,372.16 301.91,370.5 301.56,370.38 297.78,368.91 293.69,367.25 289.56,365.5 289.16,365.28 285.44,363.28 281.34,361.03 279.88,360.25 277.22,358.81 273.09,356.78 269.22,355.25 269,355.16 264.88,353.75 260.75,352.56 256.66,351.53 252.53,350.56 251.06,350.28 248.41,349.69 244.31,348.94 240.19,348.34 236.06,348.62 231.97,348.97 227.84,349.22 223.72,349.25 219.62,348.41 215.5,347.34 211.41,346.09 208.84,345.31 207.28,344.81 203.16,344.09 199.06,343.59 194.94,343.38 190.81,343.41 186.72,343.97 182.59,344.72 179.75,345.31 178.47,345.59 174.38,346.53 170.25,347.12 166.12,347.75 162.03,348.5 157.91,349.44 155.75,350.28 153.78,351.12 149.69,353.16 145.56,355.22 145.47,355.25 141.44,357.03 137.34,358.03 133.22,358.81 129.12,359.5 125,360.12 124.47,360.25 120.88,361.09 116.78,362.09 112.66,363.09 108.53,364.09 104.44,365.06 103.5,365.28 100.31,366.03 96.188,366.97 92.094,367.91 87.969,368.69 83.844,369.38 79.75,369.97 76.312,370.38 75.625,370.44 71.5,370.66 67.406,370.84 63.281,370.97 59.188,371.09 55.062,371.41 50.938,371.72 46.844,372 42.719,372.25 38.594,372.38 34.5,372.41 30.375,372.34 26.25,372.22 22.156,371.97 18.031,371.59 " stroke="red" stroke-width="0.96875" stroke-linecap="round" stroke-linejoin="round" />
<polyline points="313.03,378.84 313.91,377.97 315.66,377.97 316.53,378.84 316.53,380.59 315.66,381.47 313.03,381.47 313.03,383.22 316.53,383.22 " stroke="red" stroke-width="0.71875" stroke-linecap="round" stroke-linejoin="round" />
<polyline points="319.16,383.22 322.66,383.22 320.91,377.97 " stroke="red" stroke-width="0.71875" stroke-linecap="round" stroke-linejoin="round" />
<polyline points="328.78,382.34 327.91,383.22 326.16,383.22 325.28,382.34 325.28,378.84 326.16,377.97 327.91,377.97 328.78,378.84 328.78,379.72 327.91,380.59 325.28,380.59 " stroke="red" stroke-width="0.71875" stroke-linecap="round" stroke-linejoin="round" />
<polygon points="332.28,383.22 331.41,382.34 331.41,378.84 332.28,377.97 334.03,377.97 334.91,378.84 334.91,382.34 334.03,383.22 " stroke="red" stroke-width="0.71875" stroke-linejoin="round" />
<polyline points="594,318.38 589.88,318.06 585.78,316.84 585,316.22 581.66,313.56 579.69,311.44 577.53,308.84 575.88,306.72 573.44,304.03 571.78,302.03 " stroke="red" stroke-width="0.96875" stroke-linecap="round" stroke-linejoin="round" />
<polyline points="566.72,292.56 566.09,287.97 566.09,283.34 567,278.75 569.31,274.44 570.78,274.16 573.44,273.88 575.59,274.16 577.53,274.53 581.66,276.19 585.78,278.03 589.88,278.5 594,278.5 " stroke="red" stroke-width="0.96875" stroke-linecap="round" stroke-linejoin="round" />
<polyline points="557.91,295.56 558.78,294.69 560.53,294.69 561.41,295.56 561.41,297.31 560.53,298.19 557.91,298.19 557.91,299.94 561.41,299.94 " stroke="red" stroke-width="0.71875" stroke-linecap="round" stroke-linejoin="round" />
<polyline points="564.03,299.94 567.53,299.94 565.78,294.69 " stroke="red" stroke-width="0.71875" stroke-linecap="round" stroke-linejoin="round" />
<polyline points="573.66,299.06 572.78,299.94 571.03,299.94 570.16,299.06 570.16,295.56 571.03,294.69 572.78,294.69 573.66,295.56 573.66,296.44 572.78,297.31 570.16,297.31 " stroke="red" stroke-width="0.71875" stroke-linecap="round" stroke-linejoin="round" />
<polygon points="577.16,299.94 576.28,299.06 576.28,295.56 577.16,294.69 578.91,294.69 579.78,295.56 579.78,299.06 578.91,299.94 " stroke="red" stroke-width="0.71875" stroke-linejoin="round" />
<polyline points="476.56,247 476.62,247.03 478.81,248.5 482.81,251.5 482.91,251.59 487.03,255.25 487.78,256 491.16,259.22 492.28,260.5 495.25,264.38 495.69,265.03 498.38,269.59 499.38,271.66 500.5,274.16 502.16,278.75 503.5,283.34 504.31,287.97 504.59,292.62 504.16,297.31 503.5,299.81 502.84,302 500.47,306.72 499.38,308.19 496.62,311.44 495.25,312.44 491.16,315.12 489.28,316.22 487.03,317.34 482.91,319.22 479.22,321 478.81,321.19 474.69,323.19 470.56,325.47 469.88,325.81 466.47,327.44 462.34,329.38 459.59,330.66 458.25,331.22 454.12,333.03 450,334.97 448.75,335.5 445.91,336.66 441.78,338.12 437.66,339.5 435.38,340.41 433.56,341.03 429.44,342.41 425.31,343.62 421.22,344.66 417.34,345.31 417.09,345.38 412.97,345.91 408.88,346.38 404.75,346.81 400.62,347.38 396.53,347.97 392.41,348.56 388.31,349.06 384.19,349.38 380.06,349.5 375.97,349.44 371.84,349.19 367.72,348.69 363.62,348.06 359.5,347.34 355.38,346.59 351.28,346.03 347.16,345.41 346.81,345.31 343.03,344.47 338.94,343.28 334.81,341.53 332.31,340.41 330.69,339.62 326.59,337.59 322.47,335.69 322.09,335.5 318.34,333.59 314.25,331.47 314.12,331.38 " stroke="red" stroke-width="0.96875" stroke-linecap="round" stroke-linejoin="round" />
<polyline points="295.66,321.94 293.69,321.22 293.03,321 289.56,319.81 285.44,318.72 281.34,317.72 277.22,316.78 274.72,316.22 273.09,315.81 269,314.75 264.88,313.75 260.75,312.81 256.66,311.91 253.94,311.44 252.53,311.16 248.41,310.28 244.31,309.34 240.19,308.31 236.34,306.72 236.06,306.59 231.97,304.88 227.84,303.53 223.72,302.53 219.62,302.09 217.59,302 215.5,301.88 211.41,301.84 208.94,302 207.28,302.09 203.16,302.75 199.06,303.69 194.94,304.88 190.81,306.22 188.28,306.72 186.72,306.97 182.59,307.56 178.47,308.16 174.38,308.81 170.25,309.94 166.12,311.09 164.88,311.44 162.03,312.09 157.91,313 153.78,313.62 149.69,314.22 145.56,314.81 141.44,315.41 137.41,316.22 137.34,316.22 133.22,317.06 129.12,317.97 125,318.91 120.88,319.78 116.78,320.69 115.56,321 112.66,321.72 108.53,322.88 104.44,324.47 101.22,325.81 100.31,326.19 96.188,327.88 92.094,329.56 88.969,330.66 87.969,331 83.844,332.34 79.75,333.56 75.625,334.72 72.969,335.5 71.5,335.91 67.406,336.91 63.281,337.75 59.188,338.41 55.062,338.72 50.938,338.84 46.844,338.78 42.719,338.59 38.594,338.28 34.5,337.84 30.375,337.31 26.25,336.69 22.156,335.91 20.062,335.5 18.031,335.12 " stroke="red" stroke-width="0.96875" stroke-linecap="round" stroke-linejoin="round" />
<polyline points="295.53,324.91 296.41,324.03 298.16,324.03 299.03,324.91 299.03,326.66 298.16,327.53 295.53,327.53 295.53,329.28 299.03,329.28 " stroke="red" stroke-width="0.71875" stroke-linecap="round" stroke-linejoin="round" />
<polygon points="302.53,329.28 301.66,328.41 301.66,327.53 302.53,326.66 304.28,326.66 305.16,327.53 305.16,328.41 304.28,329.28 " stroke="red" stroke-width="0.71875" stroke-linejoin="round" />
<polyline points="302.53,326.66 301.66,325.78 301.66,324.91 302.53,324.03 304.28,324.03 305.16,324.91 305.16,325.78 304.28,326.66 " stroke="red" stroke-width="0.71875" stroke-linecap="round" stroke-linejoin="round" />
<polyline points="307.78,328.41 308.66,329.28 310.41,329.28 311.28,328.41 311.28,327.53 307.78,324.03 311.28,324.03 " stroke="red" stroke-width="0.71875" stroke-linecap="round" stroke-linejoin="round" />
<polygon points="314.78,329.28 313.91,328.41 313.91,324.91 314.78,324.03 316.53,324.03 317.41,324.91 317.41,328.41 316.53,329.28 " stroke="red" stroke-width="0.71875" stroke-linejoin="round" />
</g>
</svg>
