<?xml version="1.0" encoding="ISO-8859-1" standalone="no"?>
<!DOCTYPE svg PUBLIC "-//W3C//DTD SVG 1.1//EN" "http://www.w3.org/Graphics/SVG/1.1/DTD/svg11.dtd">
<svg version="1.1" baseProfile="full" id="body" width="900px" height="600px" viewBox="0 0.2 1 0.55" preserveAspectRatio="none" xmlns="http://www.w3.org/2000/svg" xmlns:xlink="http://www.w3.org/1999/xlink" xmlns:ev="http://www.w3.org/2001/xml-events">
<title>SVG drawing</title>
<desc>This was produced by version 4.2 of GNU libplot, a free library for exporting 2-D vector graphics.</desc>
<rect id="background" x="0" y="0" width="1" height="1" stroke="none" fill="none"/>
<g id="content" transform="translate(-0.03125,1.1875) scale(1,-1) scale(0.0017361) " xml:space="preserve" stroke="black" stroke-linecap="butt" stroke-linejoin="miter" stroke-miterlimit="10.433" stroke-dasharray="none" stroke-dashoffset="0" stroke-opacity="1" fill="none" fill-rule="even-odd" fill-opacity="1" font-style="normal" font-variant="normal" font-weight="normal" font-stretch="normal" font-size-adjust="none" letter-spacing="normal" word-spacing="normal" text-anchor="start">
<polyline points="512.5,568.66 512.5,568.62 515.84,561.94 515.91,561.84 517.31,560.44 " stroke="red" stroke-width="0.96875" stroke-linecap="round" stroke-linejoin="round" />
<polyline points="537.19,560.44 538.44,561.84 540.53,564.38 543.59,568.62 543.62,568.66 " stroke="red" stroke-width="0.96875" stroke-linecap="round" stroke-linejoin="round" />
<polyline points="517.69,553.97 518.56,553.09 520.31,553.09 521.19,553.97 521.19,555.72 520.31,556.59 517.69,556.59 517.69,558.34 521.19,558.34 " stroke="red" stroke-width="0.71875" stroke-linecap="round" stroke-linejoin="round" />
<polyline points="523.81,557.47 524.69,558.34 526.44,558.34 527.31,557.47 527.31,556.59 523.81,553.09 527.31,553.09 " stroke="red" stroke-width="0.71875" stroke-linecap="round" stroke-linejoin="round" />
<polyline points="529.94,557.47 530.81,558.34 532.56,558.34 533.44,557.47 533.44,556.59 529.94,553.09 533.44,553.09 " stroke="red" stroke-width="0.71875" stroke-linecap="round" stroke-linejoin="round" />
<polygon points="536.94,558.34 536.06,557.47 536.06,553.97 536.94,553.09 538.69,553.09 539.56,553.97 539.56,557.47 538.69,558.34 " stroke="red" stroke-width="0.71875" stroke-linejoin="round" />
<polyline points="159.09,568.66 159.12,568.62 162.03,565.28 164.69,561.84 165.56,561.12 " stroke="red" stroke-width="0.96875" stroke-linecap="round" stroke-linejoin="round" />
<polyline points="183.12,561.12 184.16,561.84 186.72,564.44 190.81,567.97 192.09,568.62 192.12,568.66 " stroke="red" stroke-width="0.96875" stroke-linecap="round" stroke-linejoin="round" />
<polyline points="163.88,554.66 164.75,553.78 166.5,553.78 167.38,554.66 167.38,556.41 166.5,557.28 163.88,557.28 163.88,559.03 167.38,559.03 " stroke="red" stroke-width="0.71875" stroke-linecap="round" stroke-linejoin="round" />
<polyline points="170,558.16 170.88,559.03 172.62,559.03 173.5,558.16 173.5,557.28 170,553.78 173.5,553.78 " stroke="red" stroke-width="0.71875" stroke-linecap="round" stroke-linejoin="round" />
<polygon points="177,559.03 176.12,558.16 176.12,557.28 177,556.41 178.75,556.41 179.62,557.28 179.62,558.16 178.75,559.03 " stroke="red" stroke-width="0.71875" stroke-linejoin="round" />
<polyline points="177,556.41 176.12,555.53 176.12,554.66 177,553.78 178.75,553.78 179.62,554.66 179.62,555.53 178.75,556.41 " stroke="red" stroke-width="0.71875" stroke-linecap="round" stroke-linejoin="round" />
<polygon points="183.12,559.03 182.25,558.16 182.25,554.66 183.12,553.78 184.88,553.78 185.75,554.66 185.75,558.16 184.88,559.03 " stroke="red" stroke-width="0.71875" stroke-linejoin="round" />
<polyline points="479.97,568.66 479.97,568.62 482.12,561.84 482.91,559.28 484.22,555.12 486,548.47 487.03,545.28 488.28,541.91 491.16,536.44 491.81,535.38 495.25,531.53 498.31,528.97 499.38,528.31 503.5,526.31 507.59,524.25 511.69,522.59 511.72,522.56 514.69,521.78 " stroke="red" stroke-width="0.96875" stroke-linecap="round" stroke-linejoin="round" />
<polyline points="538.94,526.41 540.53,527.56 542.16,528.97 544.62,531.56 548,535.38 548.75,536.31 552.88,541.44 553.31,541.91 556.97,545.88 559.38,548.47 561.09,550.41 565.06,555.12 565.19,555.28 569.31,560.91 569.91,561.84 573.44,567.66 574.03,568.62 574.06,568.66 " stroke="red" stroke-width="0.96875" stroke-linecap="round" stroke-linejoin="round" />
<polyline points="517.69,519.94 518.56,519.06 520.31,519.06 521.19,519.94 521.19,521.69 520.31,522.56 517.69,522.56 517.69,524.31 521.19,524.31 " stroke="red" stroke-width="0.71875" stroke-linecap="round" stroke-linejoin="round" />
<polyline points="523.81,523.44 524.69,524.31 526.44,524.31 527.31,523.44 527.31,522.56 523.81,519.06 527.31,519.06 " stroke="red" stroke-width="0.71875" stroke-linecap="round" stroke-linejoin="round" />
<polygon points="530.81,524.31 529.94,523.44 529.94,522.56 530.81,521.69 532.56,521.69 533.44,522.56 533.44,523.44 532.56,524.31 " stroke="red" stroke-width="0.71875" stroke-linejoin="round" />
<polyline points="530.81,521.69 529.94,520.81 529.94,519.94 530.81,519.06 532.56,519.06 533.44,519.94 533.44,520.81 532.56,521.69 " stroke="red" stroke-width="0.71875" stroke-linecap="round" stroke-linejoin="round" />
<polygon points="536.94,524.31 536.06,523.44 536.06,519.94 536.94,519.06 538.69,519.06 539.56,519.94 539.56,523.44 538.69,524.31 " stroke="red" stroke-width="0.71875" stroke-linejoin="round" />
<polyline points="244.38,568.66 244.31,568.62 244.28,568.62 240.19,566.81 236.06,564.88 231.97,562.81 230.09,561.84 227.84,560.69 223.72,558.5 219.62,556.09 218.03,555.12 215.5,553.88 211.41,551.94 207.28,550.09 203.25,548.47 203.16,548.44 199.06,546.97 194.94,545.47 190.81,543.88 186.75,541.91 186.72,541.88 182.59,540.16 178.47,538.62 174.38,537.41 170.25,537.19 166.12,537.31 162.03,537.62 159.03,537.91 " stroke="red" stroke-width="0.96875" stroke-linecap="round" stroke-linejoin="round" />
<polyline points="132.09,536.22 129.12,537.06 125,538.56 120.88,540.59 118.31,541.91 116.78,542.78 112.66,545 108.53,546.94 104.44,548.34 103.97,548.47 100.31,549.72 96.188,551 92.094,552.22 87.969,553.47 83.844,554.5 80.281,555.12 79.75,555.19 75.625,555.47 73.938,555.12 71.5,554.62 67.406,553.59 63.281,552.56 59.188,551.66 55.062,551.25 50.938,550.94 46.844,550.72 42.719,550.59 38.594,550.75 34.5,550.88 30.375,550.97 26.25,550.91 22.156,550.62 18.031,550.09 " stroke="red" stroke-width="0.96875" stroke-linecap="round" stroke-linejoin="round" />
<polyline points="135.06,533.94 135.94,533.06 137.69,533.06 138.56,533.94 138.56,535.69 137.69,536.56 135.06,536.56 135.06,538.31 138.56,538.31 " stroke="red" stroke-width="0.71875" stroke-linecap="round" stroke-linejoin="round" />
<polyline points="141.19,537.44 142.06,538.31 143.81,538.31 144.69,537.44 144.69,536.56 143.81,535.69 142.94,535.69 143.81,535.69 144.69,534.81 144.69,533.94 143.81,533.06 142.06,533.06 141.19,533.94 " stroke="red" stroke-width="0.71875" stroke-linecap="round" stroke-linejoin="round" />
<polyline points="149.06,538.31 147.31,535.69 150.81,535.69 150.81,538.31 150.81,533.06 " stroke="red" stroke-width="0.71875" stroke-linecap="round" stroke-linejoin="round" />
<polygon points="154.31,538.31 153.44,537.44 153.44,533.94 154.31,533.06 156.06,533.06 156.94,533.94 156.94,537.44 156.06,538.31 " stroke="red" stroke-width="0.71875" stroke-linejoin="round" />
<polyline points="441.25,568.66 441.28,568.62 441.78,568.16 445.91,563.81 447.53,561.84 450,558.59 452.34,555.12 454.12,552.03 455.84,548.47 458.25,542.88 458.62,541.91 460.97,535.38 462.34,531.59 463.28,528.97 465.97,522.59 466.47,521.56 469.44,516.28 470.56,514.66 474.69,510.16 474.84,510.06 478.81,507.19 482.91,505 485.88,503.88 487.03,503.47 491.16,502.44 494.12,501.88 " stroke="red" stroke-width="0.96875" stroke-linecap="round" stroke-linejoin="round" />
<polyline points="521.09,499.59 524.06,500.34 528.19,501.81 532.28,503.62 532.72,503.88 536.41,505.72 540.53,508 543.72,510.06 544.62,510.66 548.75,513.78 551.69,516.28 552.88,517.38 556.97,521 558.72,522.59 561.09,524.88 565.19,528.91 565.25,528.97 569.31,533.38 570.84,535.38 573.44,538.94 575.5,541.91 577.53,544.91 579.94,548.47 581.66,551.06 584.44,555.12 585.78,557.06 589.62,561.84 589.88,562.12 594,567.22 " stroke="red" stroke-width="0.96875" stroke-linecap="round" stroke-linejoin="round" />
<polyline points="497.09,498.09 497.97,497.22 499.72,497.22 500.59,498.09 500.59,499.84 499.72,500.72 497.09,500.72 497.09,502.47 500.59,502.47 " stroke="red" stroke-width="0.71875" stroke-linecap="round" stroke-linejoin="round" />
<polyline points="503.22,501.59 504.09,502.47 505.84,502.47 506.72,501.59 506.72,500.72 505.84,499.84 504.97,499.84 505.84,499.84 506.72,498.97 506.72,498.09 505.84,497.22 504.09,497.22 503.22,498.09 " stroke="red" stroke-width="0.71875" stroke-linecap="round" stroke-linejoin="round" />
<polyline points="511.09,502.47 509.34,499.84 512.84,499.84 512.84,502.47 512.84,497.22 " stroke="red" stroke-width="0.71875" stroke-linecap="round" stroke-linejoin="round" />
<polygon points="516.34,502.47 515.47,501.59 515.47,498.09 516.34,497.22 518.09,497.22 518.97,498.09 518.97,501.59 518.09,502.47 " stroke="red" stroke-width="0.71875" stroke-linejoin="round" />
<polyline points="294.75,568.66 294.69,568.62 293.69,568.22 289.56,566.53 285.44,564.94 281.34,563.44 277.22,562 276.69,561.84 273.09,560.62 269,559.44 264.88,558.28 260.75,557.03 256.66,555.69 255.22,555.12 252.53,554 248.41,552.19 244.31,550.31 240.28,548.47 240.19,548.44 236.06,546.66 231.97,544.97 227.84,543.34 224.12,541.91 223.72,541.75 219.62,540.16 215.5,538.62 211.41,537.16 207.28,535.72 206.38,535.38 203.16,534.22 201.66,533.69 " stroke="red" stroke-width="0.96875" stroke-linecap="round" stroke-linejoin="round" />
<polyline points="175.81,524.25 174.38,523.84 170.25,523.19 166.12,522.59 166.09,522.59 162.03,522.06 157.91,521.53 153.78,520.69 149.69,519.94 145.56,519.34 141.44,518.91 137.34,518.84 133.22,518.94 129.12,519.25 125,519.78 120.88,520.75 116.78,521.88 114.22,522.59 112.66,523.06 108.53,524.22 104.44,524.69 100.31,524.94 96.188,525.12 92.094,525.22 87.969,525.56 83.844,525.97 79.75,526.41 75.625,526.91 71.5,527.69 67.406,528.44 64.25,528.97 63.281,529.12 59.188,529.56 55.062,529.53 50.938,529.34 46.844,529.03 46.156,528.97 42.719,528.59 38.594,528.28 34.5,527.91 30.375,527.47 26.25,526.91 22.156,526.31 18.031,525.56 " stroke="red" stroke-width="0.96875" stroke-linecap="round" stroke-linejoin="round" />
<polyline points="178.78,527.22 179.66,526.34 181.41,526.34 182.28,527.22 182.28,528.97 181.41,529.84 178.78,529.84 178.78,531.59 182.28,531.59 " stroke="red" stroke-width="0.71875" stroke-linecap="round" stroke-linejoin="round" />
<polyline points="186.66,531.59 184.91,528.97 188.41,528.97 188.41,531.59 188.41,526.34 " stroke="red" stroke-width="0.71875" stroke-linecap="round" stroke-linejoin="round" />
<polygon points="191.91,531.59 191.03,530.72 191.03,527.22 191.91,526.34 193.66,526.34 194.53,527.22 194.53,530.72 193.66,531.59 " stroke="red" stroke-width="0.71875" stroke-linejoin="round" />
<polygon points="198.03,531.59 197.16,530.72 197.16,527.22 198.03,526.34 199.78,526.34 200.66,527.22 200.66,530.72 199.78,531.59 " stroke="red" stroke-width="0.71875" stroke-linejoin="round" />
<polyline points="394.59,568.66 394.62,568.62 396.53,567.03 400.62,563.25 402.09,561.84 404.75,559.16 408.44,555.12 408.88,554.59 412.97,549.75 414.03,548.47 417.09,544.66 419.31,541.91 421.22,539.41 424.66,535.38 425.31,534.56 429.44,529.31 429.72,528.97 433.56,523.38 434.06,522.59 437.66,516.88 438,516.28 441.53,510.06 441.78,509.59 444.97,503.88 445.91,502.47 449.22,497.75 450,496.72 454.12,491.91 454.31,491.69 458.25,487.78 460.66,485.69 462.12,484.47 " stroke="red" stroke-width="0.96875" stroke-linecap="round" stroke-linejoin="round" />
<polyline points="478.03,475 478.81,474.72 482.91,474.09 487.03,474.19 491.16,474.94 495.25,475.91 499.38,476.97 503.5,478 507.59,478.84 511.72,479.69 511.88,479.75 515.84,480.56 519.94,481.53 524.06,482.72 528.19,484.16 531.81,485.69 532.28,485.91 536.41,488.06 540.53,490.75 541.88,491.69 544.62,493.59 548.75,496.47 550.56,497.75 552.88,499.41 556.97,502.34 559,503.88 561.09,505.59 565.19,509.25 566.06,510.06 569.31,513.22 571.97,516.28 573.44,518 577.22,522.59 577.53,523 581.66,528.12 582.34,528.97 585.78,533.59 587.28,535.38 589.88,538.53 592.78,541.91 594,543.34 " stroke="red" stroke-width="0.96875" stroke-linecap="round" stroke-linejoin="round" />
<polyline points="458.88,478 459.75,477.12 461.5,477.12 462.38,478 462.38,479.75 461.5,480.62 458.88,480.62 458.88,482.38 462.38,482.38 " stroke="red" stroke-width="0.71875" stroke-linecap="round" stroke-linejoin="round" />
<polyline points="466.75,482.38 465,479.75 468.5,479.75 468.5,482.38 468.5,477.12 " stroke="red" stroke-width="0.71875" stroke-linecap="round" stroke-linejoin="round" />
<polygon points="472,482.38 471.12,481.5 471.12,478 472,477.12 473.75,477.12 474.62,478 474.62,481.5 473.75,482.38 " stroke="red" stroke-width="0.71875" stroke-linejoin="round" />
<polygon points="478.12,482.38 477.25,481.5 477.25,478 478.12,477.12 479.88,477.12 480.75,478 480.75,481.5 479.88,482.38 " stroke="red" stroke-width="0.71875" stroke-linejoin="round" />
<polyline points="594,521.81 589.88,517.75 588.38,516.28 585.78,513.88 582.41,510.06 581.66,509.22 577.53,504.53 576.94,503.88 573.44,500.06 571.09,497.75 569.31,496.06 565.19,492.81 563.69,491.69 561.09,489.78 556.97,486.88 555.25,485.69 552.88,484 548.75,480.88 547.25,479.75 544.62,477.75 540.53,474.94 538.75,473.84 536.41,472.41 532.28,470.41 528.19,468.5 527.09,468 524.06,466.56 519.94,464.56 515.84,462.41 515.47,462.19 511.72,460.12 507.59,457.75 505.44,456.47 503.5,455.5 499.38,453.53 495.25,451.72 492.84,450.75 491.16,450.16 487.03,448.94 482.91,448.22 478.81,447.81 474.69,447.69 470.56,447.91 466.47,448.34 462.34,449.22 458.25,450.53 457.72,450.75 454.12,452.66 450,455.31 448.41,456.47 445.91,459.09 443.16,462.19 441.78,464.03 438.94,468 437.66,469.94 435.31,473.84 433.56,476.69 431.56,479.75 429.44,482.69 427.25,485.69 425.31,488.41 423,491.69 421.22,494.31 419,497.75 417.09,500.88 415.25,503.88 412.97,507.38 411.19,510.06 408.88,513.41 406.72,516.28 404.75,518.84 401.28,522.59 400.62,523.25 396.53,527.12 394.34,528.97 392.41,530.69 388.31,534.03 386.41,535.38 384.19,536.97 380.06,539.56 375.97,541.78 375.69,541.91 371.84,543.66 368.84,544.88 " stroke="red" stroke-width="0.96875" stroke-linecap="round" stroke-linejoin="round" />
<polyline points="341.91,552.09 338.94,552.5 334.81,552.75 330.69,552.78 326.59,552.62 322.47,552.22 318.34,551.56 314.25,550.75 310.12,549.84 306.03,548.91 304.03,548.47 301.91,548 297.78,547.09 293.69,546.16 289.56,545.25 285.44,544.41 281.34,543.56 277.22,542.72 273.5,541.91 273.09,541.81 269,540.72 264.88,539.53 260.75,538.22 256.66,536.81 252.81,535.38 252.53,535.28 248.41,533.72 244.31,532.19 240.19,530.78 236.06,529.59 233.78,528.97 231.97,528.41 227.84,527.25 223.72,526.09 219.62,524.94 215.5,523.72 211.69,522.59 211.41,522.5 207.28,521.16 203.16,519.72 199.06,518.31 194.94,516.97 192.75,516.28 190.81,515.69 186.72,514.44 182.59,513.28 178.47,512.22 174.38,511.25 170.25,510.31 169.03,510.06 166.12,509.38 162.03,508.47 157.91,507.66 153.78,507.19 149.69,506.88 145.56,506.69 141.44,506.59 137.34,506.44 133.22,506.34 129.12,506.34 125,506.44 120.88,506.97 116.78,507.59 112.66,508.25 108.53,508.84 104.44,508.75 100.31,508.5 96.188,508.12 92.094,507.72 87.969,507.53 83.844,507.38 79.75,507.31 75.625,507.31 71.5,507.59 67.406,507.94 63.281,508.28 59.188,508.53 55.062,508.38 50.938,508.09 46.844,507.69 42.719,507.16 38.594,506.59 34.5,505.94 30.375,505.22 26.25,504.38 24,503.88 22.156,503.47 18.031,502.53 " stroke="red" stroke-width="0.96875" stroke-linecap="round" stroke-linejoin="round" />
<polyline points="344.88,547.31 345.75,546.44 347.5,546.44 348.38,547.31 348.38,549.06 347.5,549.94 344.88,549.94 344.88,551.69 348.38,551.69 " stroke="red" stroke-width="0.71875" stroke-linecap="round" stroke-linejoin="round" />
<polyline points="352.75,551.69 351,549.06 354.5,549.06 354.5,551.69 354.5,546.44 " stroke="red" stroke-width="0.71875" stroke-linecap="round" stroke-linejoin="round" />
<polyline points="360.62,550.81 359.75,551.69 358,551.69 357.12,550.81 357.12,547.31 358,546.44 359.75,546.44 360.62,547.31 360.62,548.19 359.75,549.06 357.12,549.06 " stroke="red" stroke-width="0.71875" stroke-linecap="round" stroke-linejoin="round" />
<polygon points="364.12,551.69 363.25,550.81 363.25,547.31 364.12,546.44 365.88,546.44 366.75,547.31 366.75,550.81 365.88,551.69 " stroke="red" stroke-width="0.71875" stroke-linejoin="round" />
<polyline points="594,500.69 590.47,497.75 589.88,497.31 585.78,493.88 583.59,491.69 581.66,489.84 577.53,486.09 577.06,485.69 573.44,482.62 569.59,479.75 569.31,479.5 565.19,476.34 561.78,473.84 561.09,473.34 556.97,470.38 553.44,468 552.88,467.59 548.75,464.78 544.62,462.25 544.53,462.19 540.53,459.88 536.41,457.69 534.09,456.47 532.28,455.38 528.19,452.94 524.38,450.75 524.06,450.56 519.94,448.28 515.84,446.16 513.69,445.12 511.72,444.19 507.59,442.38 503.5,440.72 500.53,439.5 499.38,439.06 495.25,437.53 491.16,436.22 487.03,435.12 482.91,434.41 479.28,433.97 478.81,433.91 474.69,433.56 470.56,433.41 466.47,433.28 462.34,433.34 458.25,433.69 456.62,433.97 454.12,434.44 450,436.19 445.91,438.34 443.97,439.5 441.78,440.97 437.66,443.91 436.19,445.12 433.56,447.5 430.25,450.75 429.44,451.69 425.38,456.47 425.31,456.53 421.22,461.91 420.97,462.19 417.09,466.66 415.88,468 412.97,471.28 410.66,473.84 408.88,475.94 405.5,479.75 404.75,480.75 400.78,485.69 400.62,485.88 396.53,490.88 395.78,491.69 392.41,495.44 390.03,497.75 388.31,499.41 384.19,502.53 382.12,503.88 380.06,505.12 375.97,507.44 371.84,509.56 370.91,510.06 367.72,511.72 363.62,513.75 360.22,515.28 " stroke="red" stroke-width="0.96875" stroke-linecap="round" stroke-linejoin="round" />
<polyline points="333.69,522.91 330.69,523.31 326.59,523.69 322.47,523.94 318.34,524.09 314.25,524.09 310.12,524 306.03,523.78 301.91,523.44 297.78,523.03 293.81,522.59 293.69,522.56 289.56,522.03 285.44,521.59 281.34,521.06 277.22,520.44 273.09,519.66 269,518.66 264.88,517.62 260.75,516.53 259.91,516.28 256.66,515.38 252.53,514 248.41,512.66 244.31,511.34 240.19,510.16 239.53,510.06 236.06,509.41 231.97,508.78 227.84,508.16 223.72,507.53 219.62,506.66 215.5,505.75 211.41,504.81 207.28,503.91 207.12,503.88 203.16,502.97 199.06,502.12 194.94,501.31 190.81,500.5 186.72,499.62 182.59,498.66 178.81,497.75 178.47,497.66 174.38,496.47 170.25,495.09 166.12,493.72 162.03,492.47 158.94,491.69 157.91,491.41 153.78,490.81 149.69,490.41 145.56,490.16 141.44,490.06 137.34,490.16 133.22,490.31 129.12,490.47 125,490.62 120.88,490.53 116.78,490.41 112.66,490.25 108.53,490.06 104.44,490.12 100.31,490.16 96.188,490.16 92.094,490.06 87.969,489.53 83.844,488.94 79.75,488.31 75.625,487.69 71.5,487.5 67.406,487.38 63.281,487.28 59.188,487.16 55.062,486.78 50.938,486.28 46.844,485.75 46.375,485.69 42.719,485.12 38.594,484.53 34.5,483.94 30.375,483.28 26.25,482.59 22.156,481.94 18.031,481.16 " stroke="red" stroke-width="0.96875" stroke-linecap="round" stroke-linejoin="round" />
<polyline points="336.66,518.25 337.53,517.38 339.28,517.38 340.16,518.25 340.16,520 339.28,520.88 336.66,520.88 336.66,522.62 340.16,522.62 " stroke="red" stroke-width="0.71875" stroke-linecap="round" stroke-linejoin="round" />
<polyline points="342.78,518.25 343.66,517.38 345.41,517.38 346.28,518.25 346.28,520 345.41,520.88 342.78,520.88 342.78,522.62 346.28,522.62 " stroke="red" stroke-width="0.71875" stroke-linecap="round" stroke-linejoin="round" />
<polyline points="348.91,521.75 349.78,522.62 351.53,522.62 352.41,521.75 352.41,520.88 348.91,517.38 352.41,517.38 " stroke="red" stroke-width="0.71875" stroke-linecap="round" stroke-linejoin="round" />
<polygon points="355.91,522.62 355.03,521.75 355.03,518.25 355.91,517.38 357.66,517.38 358.53,518.25 358.53,521.75 357.66,522.62 " stroke="red" stroke-width="0.71875" stroke-linejoin="round" />
<polyline points="594,475.75 591.28,473.84 589.88,472.91 585.78,470.12 582.94,468 581.66,467.03 577.53,464 575.03,462.19 573.44,461.06 569.31,458.22 566.53,456.47 565.19,455.62 561.09,453.09 557.19,450.75 556.97,450.62 552.88,448.12 548.75,445.88 547.28,445.12 544.62,443.69 540.53,441.56 536.41,439.53 536.34,439.5 532.28,437.34 528.19,435.34 525.12,433.97 524.06,433.44 519.94,431.59 515.84,429.91 511.97,428.44 511.72,428.34 507.59,426.81 503.5,425.41 499.38,424.03 495.66,422.97 495.25,422.84 491.16,421.81 487.03,421 482.91,420.5 478.81,420.16 474.69,420 470.56,419.97 466.47,420.06 462.34,420.28 458.25,420.66 454.12,421.19 450,422.12 447.16,422.97 445.91,423.34 441.78,424.88 437.66,426.78 434.44,428.44 433.56,428.94 429.44,431.44 425.84,433.97 425.31,434.34 421.22,437.72 419,439.5 417.09,441.19 412.97,444.84 412.66,445.12 408.88,448.53 406.34,450.75 404.75,452.22 400.62,455.75 399.78,456.47 396.53,459.16 392.75,462.19 392.41,462.5 388.31,465.78 385.44,468 384.19,468.97 380.06,471.97 377.31,473.84 375.97,474.75 371.84,477.25 367.72,479.5 367.25,479.75 363.62,481.5 359.5,483.28 355.38,484.88 353.09,485.69 352.41,485.91 " stroke="red" stroke-width="0.96875" stroke-linecap="round" stroke-linejoin="round" />
<polyline points="325.47,491.75 322.47,492.16 318.34,492.88 314.25,493.59 310.12,494.19 306.03,494.66 301.91,494.81 297.78,494.81 293.69,494.66 289.56,494.41 285.44,494 281.34,493.5 277.22,493 273.09,492.44 269,491.97 266.88,491.69 264.88,491.44 260.75,490.84 256.66,490.25 252.53,489.69 248.41,489.12 244.31,488.53 240.19,487.91 236.06,487 231.97,485.94 231.06,485.69 227.84,484.69 223.72,483.34 219.62,482.22 215.5,481.22 211.41,480.41 207.28,479.81 203.16,479.81 199.06,479.88 194.94,479.91 190.81,479.78 190.66,479.75 186.72,478.75 182.59,477.59 178.47,476.41 174.38,475.28 170.25,474.19 168.78,473.84 166.12,473.16 162.03,472.22 157.91,471.38 153.78,470.53 149.69,469.78 145.56,469.16 141.44,468.69 137.34,468.94 133.22,469.34 129.12,469.75 125,470.09 120.88,469.53 116.78,468.91 112.66,468.25 110.81,468 108.53,467.69 104.44,467.75 100.31,467.94 98.156,468 96.188,468.06 92.094,468.03 91.844,468 87.969,467.16 83.844,466.09 79.75,465.03 75.625,464.03 71.5,463.5 67.406,463.09 63.281,462.69 59.188,462.31 58.531,462.19 55.062,461.69 50.938,461.03 46.844,460.38 42.719,459.72 38.594,459.19 34.5,458.69 30.375,458.25 26.25,457.88 22.156,457.62 18.031,457.47 " stroke="red" stroke-width="0.96875" stroke-linecap="round" stroke-linejoin="round" />
<polyline points="328.44,487.88 329.31,487 331.06,487 331.94,487.88 331.94,489.62 331.06,490.5 328.44,490.5 328.44,492.25 331.94,492.25 " stroke="red" stroke-width="0.71875" stroke-linecap="round" stroke-linejoin="round" />
<polyline points="334.56,487.88 335.44,487 337.19,487 338.06,487.88 338.06,489.62 337.19,490.5 334.56,490.5 334.56,492.25 338.06,492.25 " stroke="red" stroke-width="0.71875" stroke-linecap="round" stroke-linejoin="round" />
<polygon points="341.56,492.25 340.69,491.38 340.69,490.5 341.56,489.62 343.31,489.62 344.19,490.5 344.19,491.38 343.31,492.25 " stroke="red" stroke-width="0.71875" stroke-linejoin="round" />
<polyline points="341.56,489.62 340.69,488.75 340.69,487.88 341.56,487 343.31,487 344.19,487.88 344.19,488.75 343.31,489.62 " stroke="red" stroke-width="0.71875" stroke-linecap="round" stroke-linejoin="round" />
<polygon points="347.69,492.25 346.81,491.38 346.81,487.88 347.69,487 349.44,487 350.31,487.88 350.31,491.38 349.44,492.25 " stroke="red" stroke-width="0.71875" stroke-linejoin="round" />
<polyline points="594,445.12 593.97,445.12 589.88,443.34 585.78,441.56 581.72,439.5 581.66,439.5 577.53,437.28 573.44,435.12 571.19,433.97 569.31,432.94 565.19,430.75 561.09,428.62 560.69,428.44 556.97,426.56 552.88,424.62 549.09,422.97 548.75,422.81 544.62,420.94 540.53,419.12 536.84,417.53 536.41,417.34 532.28,415.72 528.19,414.22 524.06,412.88 521.62,412.16 519.94,411.66 515.84,410.41 511.72,409.31 507.59,408.31 503.5,407.41 500.44,406.78 499.38,406.56 495.25,405.81 491.16,405.16 487.03,404.66 482.91,404.31 478.81,404.09 474.69,404 470.56,404.03 466.47,404.25 462.34,404.59 458.25,405.06 454.12,405.62 450,406.19 446.34,406.78 445.91,406.88 441.78,407.56 437.66,408.44 433.56,409.59 429.44,410.97 426.41,412.16 425.31,412.53 421.22,414.12 417.09,416 414.12,417.53 412.97,418.12 408.88,420.41 404.75,422.91 404.62,422.97 400.62,425.31 396.53,427.88 395.66,428.44 392.41,430.5 388.31,433.16 387.03,433.97 384.19,435.56 380.06,437.84 377,439.5 375.97,440.06 371.84,442.16 367.72,444.34 366.22,445.12 363.62,446.44 359.5,448.41 355.38,450.25 353.91,450.75 351.28,451.59 347.16,452.62 344.19,453.22 " stroke="red" stroke-width="0.96875" stroke-linecap="round" stroke-linejoin="round" />
<polyline points="317.22,456.84 314.25,457.5 310.12,458.34 306.03,459.09 301.91,459.38 297.78,459.5 293.69,459.53 289.56,459.53 285.44,459.72 281.34,459.84 277.22,459.94 273.09,459.97 269,459.84 264.88,459.62 260.75,459.41 256.66,459.19 252.53,459.25 248.41,459.25 244.31,459.06 240.19,458.66 236.06,457.41 233.19,456.47 231.97,456.09 227.84,454.88 223.72,453.81 219.62,453 215.5,452.22 211.41,451.38 208.62,450.75 207.28,450.44 203.16,449.25 199.06,448.16 194.94,447.19 190.81,446.41 186.72,446.16 182.59,446.09 178.47,446.09 174.38,446.16 170.25,446.12 166.12,446 162.03,445.81 157.91,445.5 155.94,445.12 153.78,444.69 149.69,443.84 145.56,443.06 141.44,442.38 137.34,442.28 133.22,442.25 129.12,442.31 125,442.38 120.88,442.22 116.78,442 112.66,441.72 108.53,441.41 104.44,441 100.31,440.56 96.188,440.06 92.094,439.53 92,439.5 87.969,438.84 83.844,438.16 79.75,437.47 75.625,436.84 71.5,436.34 67.406,435.81 63.281,435.31 59.188,434.78 55.062,434.19 53.469,433.97 50.938,433.56 46.844,433 42.719,432.5 38.594,432.09 34.5,431.75 30.375,431.47 26.25,431.22 22.156,431.09 18.031,431.03 " stroke="red" stroke-width="0.96875" stroke-linecap="round" stroke-linejoin="round" />
<polyline points="320.19,453.22 321.06,452.34 322.81,452.34 323.69,453.22 323.69,454.97 322.81,455.84 320.19,455.84 320.19,457.59 323.69,457.59 " stroke="red" stroke-width="0.71875" stroke-linecap="round" stroke-linejoin="round" />
<polyline points="329.81,456.72 328.94,457.59 327.19,457.59 326.31,456.72 326.31,453.22 327.19,452.34 328.94,452.34 329.81,453.22 329.81,454.09 328.94,454.97 326.31,454.97 " stroke="red" stroke-width="0.71875" stroke-linecap="round" stroke-linejoin="round" />
<polyline points="334.19,457.59 332.44,454.97 335.94,454.97 335.94,457.59 335.94,452.34 " stroke="red" stroke-width="0.71875" stroke-linecap="round" stroke-linejoin="round" />
<polygon points="339.44,457.59 338.56,456.72 338.56,453.22 339.44,452.34 341.19,452.34 342.06,453.22 342.06,456.72 341.19,457.59 " stroke="red" stroke-width="0.71875" stroke-linejoin="round" />
<polyline points="594,399.41 589.88,400 585.78,400.25 581.66,399.91 577.53,399.31 573.44,398.56 569.31,397.75 565.19,397.03 561.09,396.31 560.59,396.22 556.97,395.5 552.88,394.66 548.75,393.62 544.62,392.62 540.53,391.66 537.47,390.97 536.41,390.69 532.28,389.69 528.19,388.75 524.06,387.94 519.94,387.19 515.84,386.56 511.72,386 510,385.78 507.59,385.41 503.5,384.81 499.38,384.16 495.25,383.5 491.16,382.88 487.03,382.28 482.91,381.69 478.81,381.12 474.94,380.59 474.69,380.56 470.56,379.97 466.47,379.5 462.34,379.09 458.25,378.78 454.12,378.59 450,378.66 445.91,378.81 441.78,379.03 437.66,379.31 433.56,379.5 429.44,379.72 425.31,379.94 421.22,380.16 417.09,380.31 412.97,380.44 408.88,380.53 405.97,380.59 404.75,380.62 400.62,380.66 396.53,380.72 392.41,380.88 388.31,381.22 384.19,381.97 380.06,382.94 375.97,384.12 371.84,385.53 371.12,385.78 367.72,386.94 363.62,388.5 359.5,390.25 358,390.97 355.38,392.19 351.28,394.44 348.09,396.22 347.16,396.72 343.03,398.94 338.94,401.19 338.44,401.47 334.81,403.56 330.69,405.97 329.28,406.78 326.59,408.38 323.22,410.28 " stroke="red" stroke-width="0.96875" stroke-linecap="round" stroke-linejoin="round" />
<polyline points="302.44,419.75 301.91,419.94 297.78,421.22 293.69,422.41 291.44,422.97 289.56,423.41 285.44,424.19 281.34,424.81 277.22,425.28 273.09,425.56 269,425.59 264.88,425.44 260.75,425.19 256.66,424.84 252.53,424.28 248.41,423.72 244.31,423.28 240.19,423.03 236.06,423.62 231.97,424.25 227.84,424.75 223.72,425 219.62,424 216.19,422.97 215.5,422.75 211.41,421.47 207.28,420.31 203.16,420.19 199.06,420.22 194.94,420.25 190.81,420.22 186.72,419.56 182.59,418.78 178.47,417.97 176.19,417.53 174.38,417.19 170.25,417.06 166.12,417 162.03,417 157.91,416.97 153.78,416.53 149.69,416.03 145.56,415.53 141.44,415.12 137.34,415.22 133.22,415.34 129.12,415.41 125,415.31 120.88,414.44 116.78,413.25 113.53,412.16 112.66,411.78 108.53,410.09 104.44,408.78 100.31,407.78 96.188,407 94.812,406.78 92.094,406.44 87.969,406.06 83.844,405.72 79.75,405.28 75.625,404.69 71.5,403.53 67.406,402.31 64.438,401.47 63.281,401.16 59.188,400.16 55.062,399.56 50.938,399.16 46.844,398.88 42.719,398.72 38.594,398.62 34.5,398.62 30.375,398.81 26.25,399.12 22.156,399.66 18.031,400.28 " stroke="red" stroke-width="0.96875" stroke-linecap="round" stroke-linejoin="round" />
<polyline points="303.75,413.28 304.62,412.41 306.38,412.41 307.25,413.28 307.25,415.03 306.38,415.91 303.75,415.91 303.75,417.66 307.25,417.66 " stroke="red" stroke-width="0.71875" stroke-linecap="round" stroke-linejoin="round" />
<polyline points="309.88,417.66 313.38,417.66 311.62,412.41 " stroke="red" stroke-width="0.71875" stroke-linecap="round" stroke-linejoin="round" />
<polygon points="316.88,417.66 316,416.78 316,413.28 316.88,412.41 318.62,412.41 319.5,413.28 319.5,416.78 318.62,417.66 " stroke="red" stroke-width="0.71875" stroke-linejoin="round" />
<polygon points="323,417.66 322.12,416.78 322.12,413.28 323,412.41 324.75,412.41 325.62,413.28 325.62,416.78 324.75,417.66 " stroke="red" stroke-width="0.71875" stroke-linejoin="round" />
<polyline points="594,338.81 592.19,340.41 589.88,342.25 585.78,345.19 585.53,345.31 581.66,347.47 577.53,349.31 574.66,350.28 573.44,350.62 569.31,351.44 565.19,352.06 561.09,352.38 556.97,352.44 552.88,352.25 548.75,351.66 544.62,350.91 541.59,350.28 540.53,350 536.41,348.94 532.28,347.97 528.19,347 524.06,346.06 520.53,345.31 519.94,345.19 515.84,344.5 511.72,343.91 507.59,343.38 503.5,342.88 499.38,342.47 495.25,342.12 491.16,341.84 487.03,341.56 482.91,341.38 478.81,341.12 474.69,340.88 470.56,340.53 469.62,340.41 466.47,339.97 462.34,339.19 458.25,338.22 454.12,337 450,335.5 445.91,333.62 441.78,331.56 440.06,330.66 437.66,328.75 434.44,325.81 433.56,324.78 430.66,321 429.44,319.16 427.62,316.22 425.31,312.34 424.78,311.44 421.22,306.84 421.09,306.72 417.16,302 417.09,301.91 413.28,297.31 412.97,296.97 409.34,292.62 408.88,292.22 404.75,288.62 404.16,287.97 400.62,284.91 398.59,283.34 396.53,282.03 392.41,279.84 389.69,278.75 388.31,278.22 384.19,277.22 380.06,276.56 375.97,276.25 371.84,276.25 367.72,276.66 363.62,277.34 359.5,278.25 357.88,278.75 355.38,279.47 351.28,281.62 348.78,283.34 347.16,284.66 343.88,287.97 343.03,289.03 340.56,292.62 338.94,296.41 338.5,297.31 336.62,302 335.09,306.72 334.81,307.72 333.72,311.44 333.72,311.47 " stroke="red" stroke-width="0.96875" stroke-linecap="round" stroke-linejoin="round" />
<polyline points="331.72,320.94 331.72,321 330.69,324.78 330.38,325.81 328.34,330.66 326.59,333.5 325.12,335.5 322.47,338.59 320.59,340.41 318.34,342.41 314.78,345.31 314.25,345.75 310.12,348.78 307.97,350.28 306.03,351.59 301.91,354.5 300.75,355.25 297.78,357.12 293.69,359.34 291.59,360.25 289.56,361.12 285.44,361.62 281.34,361.81 277.22,361.91 273.09,362.09 269,362.88 264.88,363.94 260.75,365.28 260.72,365.28 256.66,366.88 252.53,368.91 249.59,370.38 248.41,370.94 244.31,373.09 240.19,375.16 239.69,375.47 236.06,377.47 231.97,379.62 229.91,380.59 227.84,381.5 223.72,383.09 219.62,384.03 215.5,384.75 211.41,385.31 207.59,385.78 207.28,385.81 203.16,386.41 199.06,387.03 194.94,387.66 190.81,388.28 186.72,388.94 182.59,389.44 178.47,389.78 174.38,389.91 170.25,389.53 166.12,388.97 162.03,388.31 157.91,387.62 153.78,387.09 149.69,386.59 145.56,386.09 142.94,385.78 141.44,385.59 137.34,385 133.22,384.34 129.12,383.59 125,382.72 120.88,381.53 117.41,380.59 116.78,380.44 112.66,379.47 108.53,378.66 104.44,378.53 100.31,378.5 96.188,378.5 92.094,378.34 87.969,377.47 83.844,376.53 79.75,375.59 79.219,375.47 75.625,374.69 71.5,373.84 67.406,373.03 63.281,372.28 59.188,371.56 55.062,371 50.938,370.47 49.969,370.38 46.844,369.97 42.719,369.47 38.594,368.88 34.5,368.28 30.375,367.69 26.25,367.16 22.156,366.66 18.031,366.22 " stroke="red" stroke-width="0.96875" stroke-linecap="round" stroke-linejoin="round" />
<polyline points="322.25,314.47 323.12,313.59 324.88,313.59 325.75,314.47 325.75,316.22 324.88,317.09 322.25,317.09 322.25,318.84 325.75,318.84 " stroke="red" stroke-width="0.71875" stroke-linecap="round" stroke-linejoin="round" />
<polyline points="328.38,318.84 331.88,318.84 330.12,313.59 " stroke="red" stroke-width="0.71875" stroke-linecap="round" stroke-linejoin="round" />
<polyline points="338,317.97 337.12,318.84 335.38,318.84 334.5,317.97 334.5,314.47 335.38,313.59 337.12,313.59 338,314.47 338,315.34 337.12,316.22 334.5,316.22 " stroke="red" stroke-width="0.71875" stroke-linecap="round" stroke-linejoin="round" />
<polygon points="341.5,318.84 340.62,317.97 340.62,314.47 341.5,313.59 343.25,313.59 344.12,314.47 344.12,317.97 343.25,318.84 " stroke="red" stroke-width="0.71875" stroke-linejoin="round" />
<polyline points="327.25,247 327.22,247.03 326.59,247.62 322.62,251.5 322.47,251.66 318.69,256 318.34,256.38 314.97,260.5 314.25,261.38 311.25,265.03 310.12,266.38 307.41,269.59 306.03,271.16 303.44,274.16 301.91,275.84 299.19,278.75 297.78,280.16 294.41,283.34 293.69,284 289.56,287.38 288.75,287.97 285.44,290.28 281.88,292.62 281.34,293 277.22,295.75 275.03,297.31 273.09,298.66 269.03,302 269,302.03 264.88,305.59 263.66,306.72 260.75,309.28 258.44,311.44 256.66,312.81 252.53,316.06 252.38,316.22 248.41,319.28 246.28,321 244.31,322.53 240.19,325.78 240.12,325.81 236.06,328.59 233.09,330.66 231.97,331.41 227.84,334.06 225.56,335.5 225.31,335.69 " stroke="red" stroke-width="0.96875" stroke-linecap="round" stroke-linejoin="round" />
<polyline points="201.25,344.94 200.28,345.31 199.06,345.81 194.94,347.5 190.81,349.12 186.91,350.28 186.72,350.31 182.59,351.25 178.47,351.94 174.38,352.47 170.25,352.66 166.12,352.75 162.03,352.78 157.91,352.81 153.78,353.19 149.69,353.56 145.56,353.88 141.44,354.09 137.34,354.03 133.22,353.84 129.12,353.56 125,353.19 120.88,352.78 116.78,352.28 112.66,351.75 108.53,351.16 104.44,350.47 103.34,350.28 100.31,349.66 96.188,348.84 92.094,348.12 87.969,347.59 83.844,347.12 79.75,346.69 75.625,346.31 71.5,345.91 67.406,345.53 65.094,345.31 63.281,345.16 59.188,344.75 55.062,344.22 50.938,343.72 46.844,343.25 42.719,342.81 38.594,342.53 34.5,342.34 30.375,342.16 26.25,342.03 22.156,341.75 18.031,341.53 " stroke="red" stroke-width="0.96875" stroke-linecap="round" stroke-linejoin="round" />
<polyline points="204.22,338.66 205.09,337.78 206.84,337.78 207.72,338.66 207.72,340.41 206.84,341.28 204.22,341.28 204.22,343.03 207.72,343.03 " stroke="red" stroke-width="0.71875" stroke-linecap="round" stroke-linejoin="round" />
<polygon points="211.22,343.03 210.34,342.16 210.34,341.28 211.22,340.41 212.97,340.41 213.84,341.28 213.84,342.16 212.97,343.03 " stroke="red" stroke-width="0.71875" stroke-linejoin="round" />
<polyline points="211.22,340.41 210.34,339.53 210.34,338.66 211.22,337.78 212.97,337.78 213.84,338.66 213.84,339.53 212.97,340.41 " stroke="red" stroke-width="0.71875" stroke-linecap="round" stroke-linejoin="round" />
<polyline points="216.47,342.16 217.34,343.03 219.09,343.03 219.97,342.16 219.97,341.28 216.47,337.78 219.97,337.78 " stroke="red" stroke-width="0.71875" stroke-linecap="round" stroke-linejoin="round" />
<polygon points="223.47,343.03 222.59,342.16 222.59,338.66 223.47,337.78 225.22,337.78 226.09,338.66 226.09,342.16 225.22,343.03 " stroke="red" stroke-width="0.71875" stroke-linejoin="round" />
<polyline points="18.031,293.09 19.125,292.62 22.156,290 26.25,289.09 30.375,288.62 34.5,288.56 38.594,288.69 42.719,288.91 46.844,288.72 50.938,288.56 55.062,288.47 59.188,288.53 63.281,288.97 67.406,289.66 71.5,290.56 75.625,291.72 78.125,292.62 79.75,293 83.844,293.97 87.969,294.88 92.094,295.69 96.188,296.38 100.31,297 102.56,297.31 104.44,297.5 108.53,297.91 112.66,298.28 116.78,298.59 120.88,298.81 125,298.91 129.12,298.84 133.22,298.62 137.34,298.28 141.44,297.78 144.44,297.31 145.56,297.09 149.69,296.12 153.78,295.03 157.91,293.75 160.91,292.62 162.03,291.97 166.12,289.19 167.69,287.97 170.25,285.16 171.75,283.34 174.22,278.75 174.38,278.28 175.78,274.16 177.53,269.59 177.69,268.84 " stroke="red" stroke-width="0.96875" stroke-linecap="round" stroke-linejoin="round" />
<polyline points="177.81,259.41 176.22,256 174.38,254.31 170.56,251.5 170.25,251.34 166.12,249.5 162.03,247.91 159.34,247.03 159.22,247 " stroke="red" stroke-width="0.96875" stroke-linecap="round" stroke-linejoin="round" />
<polyline points="117.16,247 117.06,247.03 116.78,247.16 112.66,249.62 110.22,251.5 108.53,253.03 105.88,256 104.44,257.41 100.81,260.5 100.31,260.97 96.188,263.84 93.781,265.03 92.094,265.94 87.969,266.09 83.844,265.56 82.125,265.03 79.75,264.34 75.625,262.56 71.5,260.62 71.312,260.5 67.406,258.12 64.469,256 63.281,254.81 59.688,251.5 59.188,251.12 55.062,249.03 50.938,247.41 49.906,247.03 49.812,247 " stroke="red" stroke-width="0.96875" stroke-linecap="round" stroke-linejoin="round" />
<polyline points="167.97,262.38 168.84,261.5 170.59,261.5 171.47,262.38 171.47,264.12 170.59,265 167.97,265 167.97,266.75 171.47,266.75 " stroke="red" stroke-width="0.71875" stroke-linecap="round" stroke-linejoin="round" />
<polygon points="174.97,266.75 174.09,265.88 174.09,265 174.97,264.12 176.72,264.12 177.59,265 177.59,265.88 176.72,266.75 " stroke="red" stroke-width="0.71875" stroke-linejoin="round" />
<polyline points="174.97,264.12 174.09,263.25 174.09,262.38 174.97,261.5 176.72,261.5 177.59,262.38 177.59,263.25 176.72,264.12 " stroke="red" stroke-width="0.71875" stroke-linecap="round" stroke-linejoin="round" />
<polygon points="181.09,266.75 180.22,265.88 180.22,265 181.09,264.12 182.84,264.12 183.72,265 183.72,265.88 182.84,266.75 " stroke="red" stroke-width="0.71875" stroke-linejoin="round" />
<polyline points="181.09,264.12 180.22,263.25 180.22,262.38 181.09,261.5 182.84,261.5 183.72,262.38 183.72,263.25 182.84,264.12 " stroke="red" stroke-width="0.71875" stroke-linecap="round" stroke-linejoin="round" />
<polygon points="187.22,266.75 186.34,265.88 186.34,262.38 187.22,261.5 188.97,261.5 189.84,262.38 189.84,265.88 188.97,266.75 " stroke="red" stroke-width="0.71875" stroke-linejoin="round" />
</g>
</svg>
