<?xml version="1.0" encoding="ISO-8859-1" standalone="no"?>
<!DOCTYPE svg PUBLIC "-//W3C//DTD SVG 1.1//EN" "http://www.w3.org/Graphics/SVG/1.1/DTD/svg11.dtd">
<svg version="1.1" baseProfile="full" id="body" width="900px" height="600px" viewBox="0 0.2 1 0.55" preserveAspectRatio="none" xmlns="http://www.w3.org/2000/svg" xmlns:xlink="http://www.w3.org/1999/xlink" xmlns:ev="http://www.w3.org/2001/xml-events">
<title>SVG drawing</title>
<desc>This was produced by version 4.2 of GNU libplot, a free library for exporting 2-D vector graphics.</desc>
<rect id="background" x="0" y="0" width="1" height="1" stroke="none" fill="none"/>
<g id="content" transform="translate(-0.03125,1.1875) scale(1,-1) scale(0.0017361) " xml:space="preserve" stroke="black" stroke-linecap="butt" stroke-linejoin="miter" stroke-miterlimit="10.433" stroke-dasharray="none" stroke-dashoffset="0" stroke-opacity="1" fill="none" fill-rule="even-odd" fill-opacity="1" font-style="normal" font-variant="normal" font-weight="normal" font-stretch="normal" font-size-adjust="none" letter-spacing="normal" word-spacing="normal" text-anchor="start">
<polyline points="293.25,568.66 293.28,568.62 293.69,568.34 297.78,565.59 301.91,563.09 304.12,561.84 306.03,560.81 310.12,558.84 314.25,557.12 318.34,555.66 320.19,555.12 322.47,554.5 326.59,553.72 330.69,553.19 334.81,552.84 337.78,552.72 " stroke="red" stroke-width="0.96875" stroke-linecap="round" stroke-linejoin="round" />
<polyline points="364.75,554.47 367.72,555 368.28,555.12 371.84,556 375.97,557.28 380.06,558.78 384.19,560.5 387.03,561.84 388.31,562.47 392.41,564.62 396.53,566.78 400.12,568.62 400.19,568.66 " stroke="red" stroke-width="0.96875" stroke-linecap="round" stroke-linejoin="round" />
<polyline points="340.78,551.16 341.66,550.28 343.41,550.28 344.28,551.16 344.28,552.91 343.41,553.78 340.78,553.78 340.78,555.53 344.28,555.53 " stroke="red" stroke-width="0.71875" stroke-linecap="round" stroke-linejoin="round" />
<polyline points="346.91,554.66 347.78,555.53 349.53,555.53 350.41,554.66 350.41,553.78 346.91,550.28 350.41,550.28 " stroke="red" stroke-width="0.71875" stroke-linecap="round" stroke-linejoin="round" />
<polyline points="353.03,554.66 353.91,555.53 355.66,555.53 356.53,554.66 356.53,553.78 353.03,550.28 356.53,550.28 " stroke="red" stroke-width="0.71875" stroke-linecap="round" stroke-linejoin="round" />
<polygon points="360.03,555.53 359.16,554.66 359.16,551.16 360.03,550.28 361.78,550.28 362.66,551.16 362.66,554.66 361.78,555.53 " stroke="red" stroke-width="0.71875" stroke-linejoin="round" />
<polyline points="39.312,568.66 39.281,568.62 38.594,567.78 34.625,562.84 " stroke="red" stroke-width="0.96875" stroke-linecap="round" stroke-linejoin="round" />
<polyline points="26.062,553.38 22.156,548.75 21.969,548.47 18.031,542.62 " stroke="red" stroke-width="0.96875" stroke-linecap="round" stroke-linejoin="round" />
<polyline points="19.875,556.38 20.75,555.5 22.5,555.5 23.375,556.38 23.375,558.12 22.5,559 19.875,559 19.875,560.75 23.375,560.75 " stroke="red" stroke-width="0.71875" stroke-linecap="round" stroke-linejoin="round" />
<polyline points="26,559.88 26.875,560.75 28.625,560.75 29.5,559.88 29.5,559 26,555.5 29.5,555.5 " stroke="red" stroke-width="0.71875" stroke-linecap="round" stroke-linejoin="round" />
<polygon points="33,560.75 32.125,559.88 32.125,559 33,558.12 34.75,558.12 35.625,559 35.625,559.88 34.75,560.75 " stroke="red" stroke-width="0.71875" stroke-linejoin="round" />
<polyline points="33,558.12 32.125,557.25 32.125,556.38 33,555.5 34.75,555.5 35.625,556.38 35.625,557.25 34.75,558.12 " stroke="red" stroke-width="0.71875" stroke-linecap="round" stroke-linejoin="round" />
<polygon points="39.125,560.75 38.25,559.88 38.25,556.38 39.125,555.5 40.875,555.5 41.75,556.38 41.75,559.88 40.875,560.75 " stroke="red" stroke-width="0.71875" stroke-linejoin="round" />
<polyline points="252.97,568.66 253,568.62 256.66,565.88 260.75,562.66 261.81,561.84 264.88,559.59 269,556.75 271.5,555.12 273.09,554.09 277.22,551.75 281.34,549.56 283.5,548.47 285.44,547.53 289.56,545.62 293.69,543.75 297.78,542.03 298.16,541.91 301.91,540.56 306.03,539.31 310.12,538.22 314.25,537.34 318.34,536.66 322.47,536.16 326.59,535.91 329.56,535.84 " stroke="red" stroke-width="0.96875" stroke-linecap="round" stroke-linejoin="round" />
<polyline points="356.53,538.09 359.5,538.56 363.62,539.28 367.72,540.09 371.84,540.97 375.81,541.91 375.97,541.94 380.06,543 384.19,544.22 388.31,545.59 392.41,547.22 395.38,548.47 396.53,548.97 400.62,550.88 404.75,552.81 408.88,554.72 409.69,555.12 412.97,556.75 417.09,558.78 421.22,560.75 423.53,561.84 425.31,562.66 429.44,564.62 433.56,566.66 437.22,568.62 437.28,568.66 " stroke="red" stroke-width="0.96875" stroke-linecap="round" stroke-linejoin="round" />
<polyline points="332.53,534.62 333.41,533.75 335.16,533.75 336.03,534.62 336.03,536.38 335.16,537.25 332.53,537.25 332.53,539 336.03,539 " stroke="red" stroke-width="0.71875" stroke-linecap="round" stroke-linejoin="round" />
<polyline points="338.66,538.12 339.53,539 341.28,539 342.16,538.12 342.16,537.25 338.66,533.75 342.16,533.75 " stroke="red" stroke-width="0.71875" stroke-linecap="round" stroke-linejoin="round" />
<polygon points="345.66,539 344.78,538.12 344.78,537.25 345.66,536.38 347.41,536.38 348.28,537.25 348.28,538.12 347.41,539 " stroke="red" stroke-width="0.71875" stroke-linejoin="round" />
<polyline points="345.66,536.38 344.78,535.5 344.78,534.62 345.66,533.75 347.41,533.75 348.28,534.62 348.28,535.5 347.41,536.38 " stroke="red" stroke-width="0.71875" stroke-linecap="round" stroke-linejoin="round" />
<polygon points="351.78,539 350.91,538.12 350.91,534.62 351.78,533.75 353.53,533.75 354.41,534.62 354.41,538.12 353.53,539 " stroke="red" stroke-width="0.71875" stroke-linejoin="round" />
<polyline points="469.97,568.66 469.91,568.62 466.47,566.78 462.34,564.5 458.25,562.22 457.59,561.84 454.12,559.88 450,557.5 445.91,555.25 445.66,555.12 441.78,553.06 437.66,551.03 433.56,549.19 431.88,548.47 429.44,547.41 425.31,545.62 421.22,543.91 417.09,542.16 416.5,541.91 412.97,540.44 408.88,538.75 404.75,537.12 400.62,535.47 400.44,535.38 396.53,533.84 392.41,532.31 388.31,530.94 384.19,529.78 380.94,528.97 380.06,528.72 375.97,527.66 371.84,526.69 367.72,525.72 363.62,524.75 359.5,523.88 355.38,523.03 352.84,522.59 351.28,522.31 347.16,521.69 343.03,521.12 338.94,520.69 334.81,520.28 330.69,519.97 326.59,519.72 322.47,519.59 318.34,519.62 314.25,519.75 310.12,520 306.03,520.31 301.91,520.66 297.78,521.06 293.69,521.56 289.56,522.12 286.59,522.59 285.44,522.78 281.34,523.53 277.22,524.31 273.09,525.12 269,525.81 266,526.31 " stroke="red" stroke-width="0.96875" stroke-linecap="round" stroke-linejoin="round" />
<polyline points="239.06,530.91 236.06,531.38 231.97,531.94 227.84,532.47 223.72,532.94 219.62,533.41 215.5,533.81 211.41,534.22 207.28,534.59 203.16,535.03 199.97,535.38 199.06,535.5 194.94,536 190.81,536.5 186.72,536.78 182.59,537.06 178.47,537.34 174.38,537.72 170.25,538.31 166.12,538.94 162.03,539.62 157.91,540.31 153.78,541.38 151.41,541.91 149.69,542.28 145.56,543 141.44,543.47 137.34,543 133.22,542.28 131.28,541.91 129.12,541.44 125,540.66 120.88,541.31 117.75,541.91 116.78,542.06 112.66,542.72 108.53,543 104.44,542.19 103.34,541.91 100.31,541.03 96.188,539.53 92.094,537.78 87.969,536.22 85.969,535.38 83.844,534.56 79.75,532.78 75.625,530.88 71.5,529 71.406,528.97 67.406,527.31 63.281,525.41 59.188,523.31 58,522.59 55.062,521 50.938,518.81 46.844,516.81 45.656,516.28 42.719,515.16 38.594,514.28 34.5,513.31 30.375,512.09 26.25,510.5 25.438,510.06 22.156,508.56 18.031,506.59 " stroke="red" stroke-width="0.96875" stroke-linecap="round" stroke-linejoin="round" />
<polyline points="242.03,526.75 242.91,525.88 244.66,525.88 245.53,526.75 245.53,528.5 244.66,529.38 242.03,529.38 242.03,531.12 245.53,531.12 " stroke="red" stroke-width="0.71875" stroke-linecap="round" stroke-linejoin="round" />
<polyline points="248.16,530.25 249.03,531.12 250.78,531.12 251.66,530.25 251.66,529.38 250.78,528.5 249.91,528.5 250.78,528.5 251.66,527.62 251.66,526.75 250.78,525.88 249.03,525.88 248.16,526.75 " stroke="red" stroke-width="0.71875" stroke-linecap="round" stroke-linejoin="round" />
<polyline points="256.03,531.12 254.28,528.5 257.78,528.5 257.78,531.12 257.78,525.88 " stroke="red" stroke-width="0.71875" stroke-linecap="round" stroke-linejoin="round" />
<polygon points="261.28,531.12 260.41,530.25 260.41,526.75 261.28,525.88 263.03,525.88 263.91,526.75 263.91,530.25 263.03,531.12 " stroke="red" stroke-width="0.71875" stroke-linejoin="round" />
<polyline points="594,509.09 593.75,510.06 592.12,516.28 591,520.78 " stroke="red" stroke-width="0.96875" stroke-linecap="round" stroke-linejoin="round" />
<polyline points="588.91,530.25 588.41,535.38 587.97,541.91 587.59,548.47 587.03,555.12 585.78,560.56 585.41,561.84 582.66,568.62 582.62,568.66 " stroke="red" stroke-width="0.96875" stroke-linecap="round" stroke-linejoin="round" />
<polyline points="579.38,523.78 580.25,522.91 582,522.91 582.88,523.78 582.88,525.53 582,526.41 579.38,526.41 579.38,528.16 582.88,528.16 " stroke="red" stroke-width="0.71875" stroke-linecap="round" stroke-linejoin="round" />
<polyline points="587.25,528.16 585.5,525.53 589,525.53 589,528.16 589,522.91 " stroke="red" stroke-width="0.71875" stroke-linecap="round" stroke-linejoin="round" />
<polyline points="592.5,528.16 591.62,527.28 591.62,523.78 592.5,522.91 594,522.91 " stroke="red" stroke-width="0.71875" stroke-linecap="round" stroke-linejoin="round" />
<line x1="594" y1="528.16" x2="592.5" y2="528.16" stroke="red" stroke-width="0.71875" stroke-linecap="round" />
<polyline points="18.031,487.53 22.156,487.25 26.25,486.97 30.375,486.75 34.5,486.56 38.594,486.44 42.719,486.34 46.844,486.41 50.938,486.5 55.062,486.59 59.188,486.62 63.281,486.34 67.406,485.94 69.594,485.69 71.5,485.47 75.625,485.09 79.75,485.12 83.844,485.31 87.969,485.66 88.219,485.69 92.094,486.22 96.188,486.88 100.31,487.69 104.44,488.62 108.53,489.66 112.66,491.09 114.41,491.69 116.78,492.47 120.88,493.62 125,494.5 129.12,494.78 133.22,494.81 137.34,494.53 141.44,493.84 145.56,492.41 147.41,491.69 149.69,490.78 153.78,489.31 157.91,488.22 162.03,488.28 166.12,488.62 170.25,489.19 174.38,489.88 178.47,490.66 182.59,491.59 182.91,491.69 186.72,492.72 190.81,493.91 194.94,495 199.06,496.16 203.16,497.38 204.5,497.75 207.28,498.56 211.41,499.72 215.5,500.72 219.62,501.53 223.72,502.12 227.84,502.44 231.97,502.59 236.06,502.59 240.19,502.53 244.31,502.34 248.41,502.12 252.53,501.91 256.66,501.72 260.75,501.59 264.88,501.53 269,501.5 273.09,501.5 277.22,501.56 280.19,501.62 " stroke="red" stroke-width="0.96875" stroke-linecap="round" stroke-linejoin="round" />
<polyline points="307.16,502.56 310.12,502.66 314.25,502.78 318.34,502.97 322.47,503.22 326.59,503.66 328.47,503.88 330.69,504.12 334.81,504.59 338.94,505.06 343.03,505.44 347.16,505.81 351.28,506.28 355.38,506.88 359.5,507.75 363.62,508.72 367.72,509.78 368.72,510.06 371.84,510.84 375.97,511.81 380.06,512.81 384.19,513.91 388.31,515.03 391.97,516.28 392.41,516.44 396.53,517.88 400.62,519.38 404.75,520.94 408.88,522.38 409.5,522.59 412.97,523.78 417.09,525.19 421.22,526.62 425.31,528.09 427.69,528.97 429.44,529.56 433.56,531.03 437.66,532.53 441.78,534.12 445,535.38 445.91,535.75 450,537.38 454.12,539.03 458.25,540.66 461.34,541.91 462.34,542.31 466.47,543.94 470.56,545.59 474.69,547.09 478.62,548.47 478.81,548.53 482.91,549.97 487.03,551.5 491.16,553.34 494.94,555.12 495.25,555.28 499.38,557.31 503.5,559.38 507.59,561.69 507.88,561.84 511.72,564.03 515.84,566.41 519.78,568.62 519.84,568.66 " stroke="red" stroke-width="0.96875" stroke-linecap="round" stroke-linejoin="round" />
<polyline points="283.19,500.28 284.06,499.41 285.81,499.41 286.69,500.28 286.69,502.03 285.81,502.91 283.19,502.91 283.19,504.66 286.69,504.66 " stroke="red" stroke-width="0.71875" stroke-linecap="round" stroke-linejoin="round" />
<polyline points="291.06,504.66 289.31,502.03 292.81,502.03 292.81,504.66 292.81,499.41 " stroke="red" stroke-width="0.71875" stroke-linecap="round" stroke-linejoin="round" />
<polygon points="296.31,504.66 295.44,503.78 295.44,500.28 296.31,499.41 298.06,499.41 298.94,500.28 298.94,503.78 298.06,504.66 " stroke="red" stroke-width="0.71875" stroke-linejoin="round" />
<polygon points="302.44,504.66 301.56,503.78 301.56,500.28 302.44,499.41 304.19,499.41 305.06,500.28 305.06,503.78 304.19,504.66 " stroke="red" stroke-width="0.71875" stroke-linejoin="round" />
<polyline points="594,461.22 593.56,462.19 591.31,468 589.88,472.38 589.38,473.84 587.47,479.75 585.78,485.09 585.53,485.69 583.28,491.69 581.66,495.94 580.84,497.75 578.22,503.88 577.53,505.53 575.56,510.06 573.44,515.66 573.16,516.28 570.75,522.59 569.31,526.38 567.84,528.97 565.19,532.56 562.12,535.38 561.09,536.25 556.97,538.62 552.88,540.12 548.75,541.28 544.88,541.91 544.62,541.94 540.53,542.12 536.41,541.97 535.88,541.91 532.28,541.5 528.19,540.78 524.06,539.88 519.94,538.78 515.84,537.66 511.72,536.47 508.28,535.38 507.59,535.19 503.5,533.81 499.38,532.16 495.25,530.41 491.81,528.97 491.16,528.69 487.03,527.06 482.91,525.78 478.81,524.56 474.69,523.38 471.97,522.59 470.56,522.19 466.47,521 462.34,519.78 458.25,518.53 454.12,517.25 450.84,516.28 450,516.03 445.91,514.84 441.78,513.69 437.66,512.56 433.56,511.34 429.44,510.12 429.12,510.06 425.31,508.88 421.22,507.62 417.09,506.38 412.97,505.16 408.88,503.91 408.75,503.88 404.75,502.56 400.62,501.16 396.53,499.84 392.41,498.59 389.41,497.75 388.31,497.41 384.19,496.28 380.06,495.19 375.97,494.12 371.84,493.09 367.72,492.12 365.75,491.69 363.62,491.22 359.5,490.34 355.38,489.59 351.28,488.94 348.28,488.47 " stroke="red" stroke-width="0.96875" stroke-linecap="round" stroke-linejoin="round" />
<polyline points="321.34,484.78 318.34,484.5 314.25,484.19 310.12,483.88 306.03,483.56 301.91,483.22 297.78,482.88 293.69,482.5 289.56,482.06 285.44,481.53 281.34,480.94 277.22,480.34 273.34,479.75 273.09,479.69 269,479.06 264.88,478.47 260.75,477.84 256.66,477.25 252.53,476.75 248.41,476.22 244.31,475.62 240.19,474.97 236.06,474.03 235.31,473.84 231.97,473.03 227.84,472 223.72,470.97 219.62,470.06 215.5,469.16 211.41,468.22 210.44,468 207.28,467.22 203.16,465.72 199.06,463.91 195.66,462.19 194.94,461.84 190.81,459.81 186.72,458.75 182.59,457.88 178.47,457.06 175.84,456.47 174.38,456.19 170.25,454.56 166.12,452.97 162.03,451.56 159.25,450.75 157.91,450.44 153.78,449.91 149.69,449.59 145.56,449.5 141.44,449.66 137.34,450.16 133.47,450.75 133.22,450.81 129.12,451.72 125,452.69 120.88,453.56 116.78,454.41 112.66,455.25 108.53,456.06 106.84,456.47 104.44,457.16 100.31,458.19 96.188,459.09 92.094,459.84 87.969,460.12 83.844,460.41 79.75,460.72 75.625,461.16 71.5,462.16 71.312,462.19 67.406,463.31 63.281,464.5 59.188,465.66 55.062,466.5 50.938,467.22 46.844,467.91 46.188,468 42.719,468.53 38.594,469.16 34.5,469.78 30.375,470.41 26.25,471.09 22.156,471.88 18.031,472.72 " stroke="red" stroke-width="0.96875" stroke-linecap="round" stroke-linejoin="round" />
<polyline points="324.31,484.72 325.19,483.84 326.94,483.84 327.81,484.72 327.81,486.47 326.94,487.34 324.31,487.34 324.31,489.09 327.81,489.09 " stroke="red" stroke-width="0.71875" stroke-linecap="round" stroke-linejoin="round" />
<polyline points="332.19,489.09 330.44,486.47 333.94,486.47 333.94,489.09 333.94,483.84 " stroke="red" stroke-width="0.71875" stroke-linecap="round" stroke-linejoin="round" />
<polyline points="340.06,488.22 339.19,489.09 337.44,489.09 336.56,488.22 336.56,484.72 337.44,483.84 339.19,483.84 340.06,484.72 340.06,485.59 339.19,486.47 336.56,486.47 " stroke="red" stroke-width="0.71875" stroke-linecap="round" stroke-linejoin="round" />
<polygon points="343.56,489.09 342.69,488.22 342.69,484.72 343.56,483.84 345.31,483.84 346.19,484.72 346.19,488.22 345.31,489.09 " stroke="red" stroke-width="0.71875" stroke-linejoin="round" />
<polyline points="594,439.09 593.59,439.5 589.88,443.88 588.81,445.12 585.78,449.09 584.53,450.75 581.66,455.06 580.69,456.47 577.59,462.19 577.53,462.28 574.38,468 573.44,469.81 570.97,473.84 569.31,476.59 567.25,479.75 565.19,482.72 562.94,485.69 561.09,488.16 558.09,491.69 556.97,493.03 552.88,497.19 552.09,497.75 548.75,500.16 544.62,502.34 540.56,503.88 540.53,503.88 536.41,505.06 532.28,506.19 528.19,507 524.06,507.5 519.94,507.75 515.84,507.66 511.72,507.38 507.59,506.94 503.5,506.41 499.38,505.91 495.25,505.38 491.16,504.78 487.03,504.09 485.88,503.88 482.91,503.22 478.81,502.25 474.69,501.19 470.56,500.09 466.47,498.84 462.88,497.75 462.34,497.59 458.25,496.34 454.12,495.12 450,494.22 445.91,493.31 441.78,492.41 438.62,491.69 437.66,491.47 433.56,490.31 429.44,489.06 425.31,487.78 421.22,486.44 418.97,485.69 417.09,485 412.97,483.53 408.88,482.06 404.75,480.69 401.22,479.75 400.62,479.56 396.53,478.5 392.41,477.47 388.31,476.41 384.19,475.22 380.06,474.09 379.03,473.84 375.97,473.03 371.84,472.06 367.72,471.28 363.62,470.56 359.5,469.88 355.38,469.22 351.28,468.47 348.62,468 347.16,467.72 343.03,466.94 340.06,466.38 " stroke="red" stroke-width="0.96875" stroke-linecap="round" stroke-linejoin="round" />
<polyline points="313.12,461.91 310.12,461.44 306.03,460.84 301.91,460.19 297.78,459.56 293.69,458.94 289.56,458.31 285.44,457.75 281.34,457.22 277.22,456.69 275.59,456.47 273.09,456.09 269,455.31 264.88,454.53 260.75,453.75 256.66,453 252.53,452.25 248.41,451.53 244.31,450.81 243.94,450.75 240.19,450.09 236.06,449.38 231.97,448.69 227.84,447.97 223.72,447.25 219.62,446.47 215.5,445.56 213.84,445.12 211.41,444.44 207.28,443.12 203.16,441.47 199.06,439.97 197.72,439.5 194.94,438.62 190.81,437.53 186.72,436.75 182.59,436.06 178.47,435.44 174.38,434.84 170.25,434.38 166.22,433.97 166.12,433.94 162.03,433.56 157.91,433.22 153.78,432.66 149.69,432.12 145.56,431.78 141.44,431.59 137.34,431.94 133.22,432.53 129.12,433.25 125.81,433.97 125,434.12 120.88,435 116.78,435.91 112.66,436.88 108.53,437.84 104.44,438.84 101.75,439.5 100.31,439.88 96.188,440.84 92.094,441.75 87.969,442.38 83.844,442.91 79.75,443.44 75.625,444.06 71.5,444.97 70.969,445.12 67.406,446.03 63.281,447.16 59.188,448.38 55.062,449.56 50.938,450.75 50.906,450.75 46.844,451.91 42.719,453.03 38.594,454.09 34.5,455.16 30.375,456.19 29.406,456.47 26.25,457.19 22.156,458.16 18.031,459.19 " stroke="red" stroke-width="0.96875" stroke-linecap="round" stroke-linejoin="round" />
<polyline points="316.09,462.22 316.97,461.34 318.72,461.34 319.59,462.22 319.59,463.97 318.72,464.84 316.09,464.84 316.09,466.59 319.59,466.59 " stroke="red" stroke-width="0.71875" stroke-linecap="round" stroke-linejoin="round" />
<polyline points="322.22,462.22 323.09,461.34 324.84,461.34 325.72,462.22 325.72,463.97 324.84,464.84 322.22,464.84 322.22,466.59 325.72,466.59 " stroke="red" stroke-width="0.71875" stroke-linecap="round" stroke-linejoin="round" />
<polyline points="328.34,465.72 329.22,466.59 330.97,466.59 331.84,465.72 331.84,464.84 328.34,461.34 331.84,461.34 " stroke="red" stroke-width="0.71875" stroke-linecap="round" stroke-linejoin="round" />
<polygon points="335.34,466.59 334.47,465.72 334.47,462.22 335.34,461.34 337.09,461.34 337.97,462.22 337.97,465.72 337.09,466.59 " stroke="red" stroke-width="0.71875" stroke-linejoin="round" />
<polyline points="594,419.97 590.38,422.97 589.88,423.41 585.78,426.94 584.12,428.44 581.66,430.81 578.41,433.97 577.53,434.84 573.44,438.97 572.88,439.5 569.31,443.28 567.5,445.12 565.19,447.62 562.16,450.75 561.09,451.94 556.97,456.09 556.59,456.47 552.88,460.03 550.28,462.19 548.75,463.5 544.62,466.5 542.22,468 540.53,469.03 536.41,471.12 532.28,472.94 529.72,473.84 528.19,474.38 524.06,475.47 519.94,476.31 515.84,476.88 511.72,477.22 507.59,477.41 503.5,477.5 499.38,477.66 495.25,477.72 491.16,477.69 487.03,477.56 482.91,477.25 478.81,476.81 474.69,476.28 470.56,475.59 466.47,474.75 462.34,473.88 462.22,473.84 458.25,472.88 454.12,471.84 450,470.84 445.91,469.78 441.78,468.69 439.31,468 437.66,467.5 433.56,466.38 429.44,465.25 425.31,464.09 421.22,462.91 419.19,462.19 417.09,461.44 412.97,459.81 408.88,458.19 404.75,456.5 404.62,456.47 400.62,454.69 396.53,452.97 392.41,451.41 390.56,450.75 388.31,449.97 384.19,448.72 380.06,447.47 375.97,446.25 372.03,445.12 371.84,445.06 367.72,443.97 363.62,442.97 359.5,442.03 355.38,441.19 351.28,440.34 347.16,439.56 346.81,439.5 343.03,438.78 340.06,438.22 " stroke="red" stroke-width="0.96875" stroke-linecap="round" stroke-linejoin="round" />
<polyline points="313.12,432.03 310.12,431.19 306.03,430.03 301.91,429.16 298.22,428.44 297.78,428.34 293.69,427.56 289.56,426.78 285.44,425.88 281.34,425 277.22,424.22 273.09,423.47 269.78,422.97 269,422.84 264.88,422.25 260.75,421.66 256.66,421.12 252.53,420.47 248.41,419.91 244.31,419.44 240.19,419.16 236.06,419.59 231.97,420.03 227.84,420.31 223.72,420.34 219.62,419.25 215.5,418 214.06,417.53 211.41,416.69 207.28,415.62 203.16,415.59 199.06,415.75 194.94,415.91 190.81,416.03 186.72,415.59 182.59,415.12 178.47,414.72 174.38,414.47 170.25,414.78 166.12,415.19 162.03,415.66 157.91,416.03 153.78,416.09 149.69,416.09 145.56,416.12 141.44,416.22 137.34,416.56 133.22,417 129.12,417.53 129.06,417.53 125,418.06 120.88,418.56 116.78,419.09 112.66,419.66 108.53,420.31 104.44,421.06 100.31,421.88 96.188,422.75 95.156,422.97 92.094,423.62 87.969,424.41 83.844,425.19 79.75,425.94 75.625,426.72 71.5,427.5 67.406,428.38 67.094,428.44 63.281,429.31 59.188,430.41 55.062,431.72 50.938,433.12 48.719,433.97 46.844,434.53 42.719,435.81 38.594,437.03 34.5,438.28 30.594,439.5 30.375,439.56 26.25,440.81 22.156,442.09 18.031,443.44 " stroke="red" stroke-width="0.96875" stroke-linecap="round" stroke-linejoin="round" />
<polyline points="316.09,433.72 316.97,432.84 318.72,432.84 319.59,433.72 319.59,435.47 318.72,436.34 316.09,436.34 316.09,438.09 319.59,438.09 " stroke="red" stroke-width="0.71875" stroke-linecap="round" stroke-linejoin="round" />
<polyline points="322.22,433.72 323.09,432.84 324.84,432.84 325.72,433.72 325.72,435.47 324.84,436.34 322.22,436.34 322.22,438.09 325.72,438.09 " stroke="red" stroke-width="0.71875" stroke-linecap="round" stroke-linejoin="round" />
<polygon points="329.22,438.09 328.34,437.22 328.34,436.34 329.22,435.47 330.97,435.47 331.84,436.34 331.84,437.22 330.97,438.09 " stroke="red" stroke-width="0.71875" stroke-linejoin="round" />
<polyline points="329.22,435.47 328.34,434.59 328.34,433.72 329.22,432.84 330.97,432.84 331.84,433.72 331.84,434.59 330.97,435.47 " stroke="red" stroke-width="0.71875" stroke-linecap="round" stroke-linejoin="round" />
<polygon points="335.34,438.09 334.47,437.22 334.47,433.72 335.34,432.84 337.09,432.84 337.97,433.72 337.97,437.22 337.09,438.09 " stroke="red" stroke-width="0.71875" stroke-linejoin="round" />
<polyline points="594,398.56 589.88,400.97 589,401.47 585.78,403.38 581.66,406.25 580.91,406.78 577.53,409.22 573.66,412.16 573.44,412.31 569.31,415.19 565.84,417.53 565.19,418 561.09,420.69 557.62,422.97 556.97,423.41 552.88,426 548.75,428.41 548.69,428.44 544.62,430.59 540.53,432.62 537.62,433.97 536.41,434.5 532.28,436.34 528.19,438.06 524.22,439.5 524.06,439.56 519.94,440.84 515.84,441.88 511.72,442.69 507.59,443.31 503.5,443.78 499.38,444.22 495.25,444.53 491.16,444.72 487.03,444.78 482.91,444.62 478.81,444.31 474.69,443.91 470.56,443.38 466.47,442.78 462.34,442.06 458.25,441.28 454.12,440.41 450,439.62 449.41,439.5 445.91,438.78 441.78,437.88 437.66,436.97 433.56,435.88 429.44,434.72 427.03,433.97 425.31,433.41 421.22,432 417.09,430.53 412.97,429.09 411.16,428.44 408.88,427.62 404.75,426.22 400.62,424.94 396.53,423.59 394.75,422.97 392.41,422.12 388.31,420.53 384.19,418.72 381.47,417.53 380.06,416.91 375.97,415.19 371.84,413.53 368.41,412.16 367.72,411.88 363.62,410.38 359.5,408.94 355.38,407.62 352.12,406.78 351.28,406.59 347.16,405.62 343.03,404.72 338.94,403.81 335.94,403.12 " stroke="red" stroke-width="0.96875" stroke-linecap="round" stroke-linejoin="round" />
<polyline points="309,396.47 308.03,396.22 306.03,395.72 301.91,394.62 297.78,393.53 293.69,392.44 289.56,391.31 288.31,390.97 285.44,390.28 281.34,389.38 277.22,388.53 273.09,387.72 269,387.06 264.88,386.41 260.75,385.84 260.22,385.78 256.66,385.31 252.53,384.88 248.41,384.5 244.31,384.12 240.19,383.75 236.06,383.25 231.97,382.81 227.84,382.5 223.72,382.34 219.62,382.59 215.5,383.06 211.41,383.66 207.28,384.38 203.16,385.03 199.06,385.75 199.03,385.78 194.94,386.59 190.81,387.59 186.72,389.06 182.59,390.56 181.47,390.97 178.47,391.75 174.38,392.62 170.25,392.97 166.12,393.19 162.03,393.31 157.91,393.44 153.78,393.69 149.69,393.94 145.56,394.25 141.44,394.62 137.34,395.16 133.22,395.75 130.19,396.22 129.12,396.34 125,396.94 120.88,397.41 116.78,397.91 112.66,398.41 108.53,398.97 104.44,399.69 100.31,400.44 96.188,401.25 95,401.47 92.094,402.03 87.969,402.78 83.844,403.56 79.75,404.38 75.625,405.19 71.5,405.81 67.406,406.44 65.125,406.78 63.281,407.06 59.188,407.75 55.062,408.75 50.938,409.84 46.844,411.03 43.156,412.16 42.719,412.31 38.594,413.78 34.5,415.34 30.375,417 29.062,417.53 26.25,418.69 22.156,420.41 18.031,422.22 " stroke="red" stroke-width="0.96875" stroke-linecap="round" stroke-linejoin="round" />
<polyline points="311.97,398.16 312.84,397.28 314.59,397.28 315.47,398.16 315.47,399.91 314.59,400.78 311.97,400.78 311.97,402.53 315.47,402.53 " stroke="red" stroke-width="0.71875" stroke-linecap="round" stroke-linejoin="round" />
<polyline points="321.59,401.66 320.72,402.53 318.97,402.53 318.09,401.66 318.09,398.16 318.97,397.28 320.72,397.28 321.59,398.16 321.59,399.03 320.72,399.91 318.09,399.91 " stroke="red" stroke-width="0.71875" stroke-linecap="round" stroke-linejoin="round" />
<polyline points="325.97,402.53 324.22,399.91 327.72,399.91 327.72,402.53 327.72,397.28 " stroke="red" stroke-width="0.71875" stroke-linecap="round" stroke-linejoin="round" />
<polygon points="331.22,402.53 330.34,401.66 330.34,398.16 331.22,397.28 332.97,397.28 333.84,398.16 333.84,401.66 332.97,402.53 " stroke="red" stroke-width="0.71875" stroke-linejoin="round" />
<polyline points="594,365.75 589.88,367.03 585.78,368.44 581.66,370.09 581.03,370.38 577.53,371.78 573.44,373.59 569.38,375.47 569.31,375.5 565.19,377.31 561.09,379.19 557.88,380.59 556.97,381 552.88,382.69 548.75,384.34 545.09,385.78 544.62,385.94 540.53,387.38 536.41,388.75 532.28,390 528.94,390.97 528.19,391.16 524.06,392.09 519.94,392.91 515.84,393.66 511.72,394.28 507.59,394.69 503.5,394.94 499.38,394.97 495.25,394.78 491.16,394.41 487.03,393.84 482.91,393.06 478.81,392.12 474.69,391.09 474.19,390.97 470.56,390.25 466.47,389.62 462.34,388.97 458.25,388.25 454.12,387.44 450,386.16 448.75,385.78 445.91,384.88 441.78,383.78 437.66,382.94 433.56,382.81 429.44,382.94 425.31,383.34 421.22,383.94 417.09,384.69 412.97,385.31 408.88,385.69 405.75,385.78 404.5,385.78 400.62,385.41 396.53,384.84 392.41,384.16 388.31,383.38 384.19,382.5 380.06,381.59 375.97,380.69 375.56,380.59 371.84,379.72 367.72,378.81 363.62,377.91 359.5,377.06 355.38,376.28 351.28,375.66 349.78,375.47 347.16,375.09 343.03,374.56 338.94,374 334.81,373.38 330.69,372.75 326.59,372.09 323.59,371.66 " stroke="red" stroke-width="0.96875" stroke-linecap="round" stroke-linejoin="round" />
<polyline points="296.66,367.38 293.69,366.88 289.56,366.16 285.44,365.5 284.28,365.28 281.34,364.78 277.22,364.09 273.09,363.41 269,362.69 264.88,361.97 260.75,361.28 256.66,360.62 254,360.25 252.53,360.06 248.41,359.53 244.31,359.03 240.19,358.62 236.06,358.34 231.97,358.09 227.84,357.81 223.72,357.44 219.62,356.5 215.5,355.41 214.84,355.25 211.41,354.28 207.28,353.28 203.16,353.22 199.06,353.47 194.94,353.94 190.81,354.5 186.72,354.75 182.59,355 179.19,355.25 178.47,355.31 174.38,355.66 170.25,356.03 166.12,356.53 162.03,357.22 157.91,358.09 153.78,359.41 151.47,360.25 149.69,360.91 145.56,362.44 141.44,363.97 137.34,365.22 137.09,365.28 133.22,366.25 129.12,367.22 125,368.16 120.88,369.25 116.78,370.34 116.69,370.38 112.66,371.28 108.53,372.25 104.44,373.22 100.31,374.25 96.188,375.34 95.75,375.47 92.094,376.38 87.969,377.41 83.844,378.41 79.75,379.44 75.625,380.47 75.188,380.59 71.5,381.59 67.406,382.78 63.281,384.03 59.188,385.41 58.094,385.78 55.062,386.75 50.938,388.09 46.844,389.5 42.719,390.97 42.688,390.97 38.594,392.31 34.5,393.72 30.375,395.19 27.562,396.22 26.25,396.66 22.156,398.09 18.031,399.56 " stroke="red" stroke-width="0.96875" stroke-linecap="round" stroke-linejoin="round" />
<polyline points="299.62,367.91 300.5,367.03 302.25,367.03 303.12,367.91 303.12,369.66 302.25,370.53 299.62,370.53 299.62,372.28 303.12,372.28 " stroke="red" stroke-width="0.71875" stroke-linecap="round" stroke-linejoin="round" />
<polyline points="305.75,372.28 309.25,372.28 307.5,367.03 " stroke="red" stroke-width="0.71875" stroke-linecap="round" stroke-linejoin="round" />
<polygon points="312.75,372.28 311.88,371.41 311.88,367.91 312.75,367.03 314.5,367.03 315.38,367.91 315.38,371.41 314.5,372.28 " stroke="red" stroke-width="0.71875" stroke-linejoin="round" />
<polygon points="318.88,372.28 318,371.41 318,367.91 318.88,367.03 320.62,367.03 321.5,367.91 321.5,371.41 320.62,372.28 " stroke="red" stroke-width="0.71875" stroke-linejoin="round" />
<polyline points="594,316.12 593.56,316.22 589.88,316.81 585.78,317.25 581.66,317.59 577.53,317.84 573.44,317.97 569.31,318.03 565.19,318.25 561.09,318.38 556.97,318.41 552.88,318.28 548.75,317.91 544.62,317.31 540.53,316.44 539.75,316.22 536.41,315.12 532.28,312.84 530.31,311.44 528.19,309.94 524.06,307.06 523.53,306.72 519.94,304.53 515.84,302.34 515.19,302 511.72,300.09 507.59,297.66 507.03,297.31 503.5,295.06 499.38,293.22 497.81,292.62 495.25,291.56 491.16,290.12 487.03,288.84 485.34,287.97 482.91,286.84 478.81,284.91 475.44,283.34 474.69,283.06 470.56,281.59 466.47,280.84 462.34,280.44 458.25,280.28 454.12,280.31 450,280.41 445.91,280.69 441.78,281.16 437.66,281.94 433.56,283.19 433.12,283.34 429.44,284.81 425.31,286.78 423.06,287.97 421.22,289.03 417.09,291.62 415.56,292.62 412.97,294.38 408.88,297.22 408.78,297.31 404.75,300.28 402.44,302 400.62,303.41 396.53,306.72 392.41,310.16 390.81,311.44 388.31,313.59 384.66,316.22 384.19,316.53 380.06,319.12 376.75,321 375.97,321.41 371.84,323.34 367.72,324.75 364.16,325.81 363.62,325.94 359.5,326.97 355.38,327.94 351.28,329.28 347.22,330.66 347.16,330.66 343.03,331.91 338.94,333.09 334.81,334.03 331.84,334.59 " stroke="red" stroke-width="0.96875" stroke-linecap="round" stroke-linejoin="round" />
<polyline points="304.88,337.22 301.91,337.25 297.78,337.19 293.69,337.06 289.56,336.88 285.44,336.62 281.34,336.34 277.22,336 273.09,335.59 272.28,335.5 269,335.09 264.88,334.59 260.75,334.06 256.66,333.53 252.53,333.09 248.41,332.72 244.31,332.38 240.19,332.12 236.06,332.09 231.97,332.06 227.84,331.97 223.72,331.78 219.62,331.22 215.69,330.66 215.5,330.62 211.41,329.81 207.28,328.94 203.16,328.06 199.06,327.25 194.94,326.56 190.81,326 186.94,325.81 186.72,325.78 182.59,325.69 178.47,325.62 174.38,325.53 170.25,325.19 166.12,324.81 162.03,324.38 157.91,323.91 153.78,323.56 149.69,323.22 145.56,322.81 141.44,322.38 137.34,321.69 133.25,321 133.22,321 129.12,320.34 125,319.78 120.88,319.34 116.78,318.97 112.66,318.69 108.53,318.5 104.44,318.44 100.31,318.56 96.188,319.03 92.094,320.16 90.5,321 87.969,322.94 85.406,325.81 83.844,328.16 82.5,330.66 79.75,334.5 79.031,335.5 75.625,339.34 74.656,340.41 71.5,343.19 69.156,345.31 67.406,346.66 63.281,349.88 62.812,350.28 59.188,352.69 55.375,355.25 55.062,355.44 50.938,357.88 47,360.25 46.844,360.34 42.719,362.53 38.594,364.69 37.406,365.28 34.5,366.59 30.375,368.41 26.25,370.25 26,370.38 22.156,371.84 18.031,373.53 " stroke="red" stroke-width="0.96875" stroke-linecap="round" stroke-linejoin="round" />
<polyline points="307.84,334.75 308.72,333.88 310.47,333.88 311.34,334.75 311.34,336.5 310.47,337.38 307.84,337.38 307.84,339.12 311.34,339.12 " stroke="red" stroke-width="0.71875" stroke-linecap="round" stroke-linejoin="round" />
<polyline points="313.97,339.12 317.47,339.12 315.72,333.88 " stroke="red" stroke-width="0.71875" stroke-linecap="round" stroke-linejoin="round" />
<polyline points="323.59,338.25 322.72,339.12 320.97,339.12 320.09,338.25 320.09,334.75 320.97,333.88 322.72,333.88 323.59,334.75 323.59,335.62 322.72,336.5 320.09,336.5 " stroke="red" stroke-width="0.71875" stroke-linecap="round" stroke-linejoin="round" />
<polygon points="327.09,339.12 326.22,338.25 326.22,334.75 327.09,333.88 328.84,333.88 329.72,334.75 329.72,338.25 328.84,339.12 " stroke="red" stroke-width="0.71875" stroke-linejoin="round" />
<polyline points="347.56,247 347.5,247.03 347.16,247.25 343.03,250 340.91,251.5 338.94,252.94 334.81,255.94 334.75,256 330.69,259.06 328.88,260.5 326.59,262.38 323.41,265.03 322.47,265.84 318.34,268.91 317.31,269.59 314.25,271.53 310.12,273.84 309.47,274.16 306.03,275.94 301.91,278.06 300.41,278.75 297.78,279.94 293.69,281.59 289.56,283 287.97,283.34 285.44,283.91 281.34,284.56 277.22,285.06 273.09,285.5 269,286 264.88,286.53 260.75,287.06 256.66,287.66 254.47,287.97 252.53,288.25 248.41,288.69 244.31,289.06 240.19,289.28 236.06,289.16 231.97,289 227.84,288.84 223.72,288.78 219.62,289.28 215.5,289.84 211.41,290.28 207.28,290.47 203.16,289.38 199.06,288.06 198.81,287.97 196.06,286.91 " stroke="red" stroke-width="0.96875" stroke-linecap="round" stroke-linejoin="round" />
<polyline points="169.12,281.25 166.12,280.75 162.03,279.97 157.91,279.06 156.94,278.75 153.78,277.59 149.69,276.06 145.56,274.56 144.5,274.16 141.44,272.59 137.34,270.19 136.34,269.59 133.22,267.34 129.78,265.03 129.12,264.5 125,261.75 121.06,260.5 120.88,260.47 116.78,259.59 112.66,259.22 108.53,259.12 104.44,258.84 100.31,258.88 96.188,259.34 92.219,260.5 92.094,260.53 87.969,262.72 84.625,265.03 83.844,265.5 79.75,268.22 77.875,269.59 75.625,270.88 71.5,273.03 69.406,274.16 67.406,274.88 63.281,276.41 59.188,277.97 57.375,278.75 55.062,279.62 50.938,281.28 46.844,282.97 45.969,283.34 42.719,284.69 38.594,286.53 35.688,287.97 34.5,288.56 30.375,290.75 27.062,292.62 26.25,293.09 22.156,295.31 18.406,297.31 18.031,297.5 " stroke="red" stroke-width="0.96875" stroke-linecap="round" stroke-linejoin="round" />
<polyline points="172.09,281.78 172.97,280.91 174.72,280.91 175.59,281.78 175.59,283.53 174.72,284.41 172.09,284.41 172.09,286.16 175.59,286.16 " stroke="red" stroke-width="0.71875" stroke-linecap="round" stroke-linejoin="round" />
<polygon points="179.09,286.16 178.22,285.28 178.22,284.41 179.09,283.53 180.84,283.53 181.72,284.41 181.72,285.28 180.84,286.16 " stroke="red" stroke-width="0.71875" stroke-linejoin="round" />
<polyline points="179.09,283.53 178.22,282.66 178.22,281.78 179.09,280.91 180.84,280.91 181.72,281.78 181.72,282.66 180.84,283.53 " stroke="red" stroke-width="0.71875" stroke-linecap="round" stroke-linejoin="round" />
<polyline points="184.34,285.28 185.22,286.16 186.97,286.16 187.84,285.28 187.84,284.41 184.34,280.91 187.84,280.91 " stroke="red" stroke-width="0.71875" stroke-linecap="round" stroke-linejoin="round" />
<polygon points="191.34,286.16 190.47,285.28 190.47,281.78 191.34,280.91 193.09,280.91 193.97,281.78 193.97,285.28 193.09,286.16 " stroke="red" stroke-width="0.71875" stroke-linejoin="round" />
</g>
</svg>
