<?xml version="1.0" encoding="ISO-8859-1" standalone="no"?>
<!DOCTYPE svg PUBLIC "-//W3C//DTD SVG 1.1//EN" "http://www.w3.org/Graphics/SVG/1.1/DTD/svg11.dtd">
<svg version="1.1" baseProfile="full" id="body" width="900px" height="600px" viewBox="0 0.2 1 0.55" preserveAspectRatio="none" xmlns="http://www.w3.org/2000/svg" xmlns:xlink="http://www.w3.org/1999/xlink" xmlns:ev="http://www.w3.org/2001/xml-events">
<title>SVG drawing</title>
<desc>This was produced by version 4.2 of GNU libplot, a free library for exporting 2-D vector graphics.</desc>
<rect id="background" x="0" y="0" width="1" height="1" stroke="none" fill="none"/>
<g id="content" transform="translate(-0.03125,1.1875) scale(1,-1) scale(0.0017361) " xml:space="preserve" stroke="black" stroke-linecap="butt" stroke-linejoin="miter" stroke-miterlimit="10.433" stroke-dasharray="none" stroke-dashoffset="0" stroke-opacity="1" fill="none" fill-rule="even-odd" fill-opacity="1" font-style="normal" font-variant="normal" font-weight="normal" font-stretch="normal" font-size-adjust="none" letter-spacing="normal" word-spacing="normal" text-anchor="start">
<polyline points="19.812,568.66 20.656,567.81 22.406,567.81 23.25,568.66 " stroke="red" stroke-width="0.71875" stroke-linecap="round" stroke-linejoin="round" />
<polyline points="20.656,567.81 19.781,566.94 19.781,566.06 20.656,565.19 22.406,565.19 23.281,566.06 23.281,566.94 22.406,567.81 " stroke="red" stroke-width="0.71875" stroke-linecap="round" stroke-linejoin="round" />
<polyline points="25.906,568.66 25.906,566.06 26.781,565.19 28.531,565.19 29.406,566.06 29.406,568.66 " stroke="red" stroke-width="0.71875" stroke-linecap="round" stroke-linejoin="round" />
<polyline points="269.31,568.66 269.31,568.62 269.12,561.84 269.91,555.12 271.94,548.47 273.09,545.94 275.47,541.91 277.22,539.66 280.94,535.38 281.34,535 285.44,531.59 289.09,528.97 289.56,528.69 292.53,527.44 " stroke="red" stroke-width="0.96875" stroke-linecap="round" stroke-linejoin="round" />
<polyline points="319.5,527.53 322.47,528.69 323.25,528.97 326.59,530.5 330.69,532.75 334.75,535.38 334.81,535.47 338.94,539.69 340.56,541.91 343.03,546.31 344.16,548.47 346.69,555.12 347.16,556.84 348.5,561.84 349.34,568.62 349.34,568.66 " stroke="red" stroke-width="0.96875" stroke-linecap="round" stroke-linejoin="round" />
<polyline points="295.53,522.75 296.41,521.88 298.16,521.88 299.03,522.75 299.03,524.5 298.16,525.38 295.53,525.38 295.53,527.12 299.03,527.12 " stroke="red" stroke-width="0.71875" stroke-linecap="round" stroke-linejoin="round" />
<polyline points="301.66,526.25 302.53,527.12 304.28,527.12 305.16,526.25 305.16,525.38 301.66,521.88 305.16,521.88 " stroke="red" stroke-width="0.71875" stroke-linecap="round" stroke-linejoin="round" />
<polygon points="308.66,527.12 307.78,526.25 307.78,525.38 308.66,524.5 310.41,524.5 311.28,525.38 311.28,526.25 310.41,527.12 " stroke="red" stroke-width="0.71875" stroke-linejoin="round" />
<polyline points="308.66,524.5 307.78,523.62 307.78,522.75 308.66,521.88 310.41,521.88 311.28,522.75 311.28,523.62 310.41,524.5 " stroke="red" stroke-width="0.71875" stroke-linecap="round" stroke-linejoin="round" />
<polygon points="314.78,527.12 313.91,526.25 313.91,522.75 314.78,521.88 316.53,521.88 317.41,522.75 317.41,526.25 316.53,527.12 " stroke="red" stroke-width="0.71875" stroke-linejoin="round" />
<polyline points="49.562,568.66 49.562,568.62 46.844,563.81 45.719,561.84 42.719,557.47 40.969,555.12 39.156,553.19 " stroke="red" stroke-width="0.96875" stroke-linecap="round" stroke-linejoin="round" />
<polyline points="30.406,543.75 30.375,543.72 28.875,541.91 26.25,538.84 23.5,535.38 22.156,533.62 19.125,528.97 18.031,527.56 " stroke="red" stroke-width="0.96875" stroke-linecap="round" stroke-linejoin="round" />
<polyline points="24.281,546.72 25.156,545.84 26.906,545.84 27.781,546.72 27.781,548.47 26.906,549.34 24.281,549.34 24.281,551.09 27.781,551.09 " stroke="red" stroke-width="0.71875" stroke-linecap="round" stroke-linejoin="round" />
<polyline points="30.406,550.22 31.281,551.09 33.031,551.09 33.906,550.22 33.906,549.34 33.031,548.47 32.156,548.47 33.031,548.47 33.906,547.59 33.906,546.72 33.031,545.84 31.281,545.84 30.406,546.72 " stroke="red" stroke-width="0.71875" stroke-linecap="round" stroke-linejoin="round" />
<polyline points="38.281,551.09 36.531,548.47 40.031,548.47 40.031,551.09 40.031,545.84 " stroke="red" stroke-width="0.71875" stroke-linecap="round" stroke-linejoin="round" />
<polygon points="43.531,551.09 42.656,550.22 42.656,546.72 43.531,545.84 45.281,545.84 46.156,546.72 46.156,550.22 45.281,551.09 " stroke="red" stroke-width="0.71875" stroke-linejoin="round" />
<polyline points="248.47,568.66 248.47,568.62 250.47,561.84 252.53,556.06 252.81,555.12 255.12,548.47 256.66,545.06 257.75,541.91 260.75,535.72 260.94,535.38 264.88,529.72 265.47,528.97 269,525.47 272.38,522.59 273.09,522.06 277.22,519.25 281.34,516.78 282.25,516.28 285.44,514.75 289.56,513.09 292.53,512.19 " stroke="red" stroke-width="0.96875" stroke-linecap="round" stroke-linejoin="round" />
<polyline points="319.5,511.69 322.47,512.5 326.59,513.97 330.69,515.62 332.16,516.28 334.81,517.53 338.94,519.66 343.03,522.19 343.62,522.59 347.16,525.34 351.28,528.84 351.41,528.97 355.38,533.97 356.5,535.38 359.5,539.97 360.69,541.91 363.62,547.62 364.03,548.47 366.75,555.12 367.72,558.03 369.06,561.84 371,568.62 371,568.66 " stroke="red" stroke-width="0.96875" stroke-linecap="round" stroke-linejoin="round" />
<polyline points="295.53,508.25 296.41,507.38 298.16,507.38 299.03,508.25 299.03,510 298.16,510.88 295.53,510.88 295.53,512.62 299.03,512.62 " stroke="red" stroke-width="0.71875" stroke-linecap="round" stroke-linejoin="round" />
<polyline points="301.66,511.75 302.53,512.62 304.28,512.62 305.16,511.75 305.16,510.88 304.28,510 303.41,510 304.28,510 305.16,509.12 305.16,508.25 304.28,507.38 302.53,507.38 301.66,508.25 " stroke="red" stroke-width="0.71875" stroke-linecap="round" stroke-linejoin="round" />
<polyline points="309.53,512.62 307.78,510 311.28,510 311.28,512.62 311.28,507.38 " stroke="red" stroke-width="0.71875" stroke-linecap="round" stroke-linejoin="round" />
<polygon points="314.78,512.62 313.91,511.75 313.91,508.25 314.78,507.38 316.53,507.38 317.41,508.25 317.41,511.75 316.53,512.62 " stroke="red" stroke-width="0.71875" stroke-linejoin="round" />
<polyline points="393.53,568.66 393.5,568.62 392.41,566.91 389.47,561.84 388.31,559.88 385.72,555.12 384.19,552.53 381.97,548.47 380.06,545.19 378.25,541.91 375.97,538 374.44,535.38 371.84,531.5 370.03,528.97 367.72,526.47 363.75,522.59 363.62,522.47 359.5,519.22 355.44,516.28 355.38,516.25 351.28,513.5 347.16,510.97 345.56,510.06 343.03,508.69 338.94,506.59 334.81,504.59 333.22,503.88 330.69,502.75 326.59,501.16 322.47,499.84 318.34,499.06 314.25,498.53 310.12,498.22 306.03,498.12 301.91,498.19 297.78,498.47 293.69,498.97 289.56,499.72 285.44,500.84 281.34,502.25 277.22,503.84 277.19,503.88 273.09,505.59 269,507.31 264.88,509.19 263.12,510.06 260.75,511.34 256.66,513.84 252.72,516.28 252.53,516.44 248.41,519.41 244.31,522.53 244.22,522.59 240.19,526.12 237.19,528.97 236.06,530.19 231.97,534.47 231,535.38 227.84,538.66 224.28,541.91 223.72,542.44 221.44,544.34 " stroke="red" stroke-width="0.96875" stroke-linecap="round" stroke-linejoin="round" />
<polyline points="209.25,553.81 207.44,555.12 207.28,555.25 203.16,558.81 199.56,561.84 199.06,562.28 194.94,565.78 191.34,568.62 191.31,568.66 " stroke="red" stroke-width="0.96875" stroke-linecap="round" stroke-linejoin="round" />
<polyline points="92.438,568.66 92.375,568.62 92.094,568.47 87.969,567.06 83.844,565.62 79.75,563.94 75.875,561.84 75.625,561.69 71.5,556.78 70.312,555.12 67.406,550.41 66.156,548.47 63.281,544.69 60.812,541.91 59.188,540.34 55.062,536.75 53.469,535.38 50.938,533.38 46.844,530.06 45.531,528.97 42.719,526.56 38.594,522.84 38.344,522.59 34.5,518.75 32.25,516.28 30.375,514.25 26.781,510.06 26.25,509.47 22.156,504.88 21.281,503.88 18.031,500.84 " stroke="red" stroke-width="0.96875" stroke-linecap="round" stroke-linejoin="round" />
<polyline points="205,547.34 205.88,546.47 207.62,546.47 208.5,547.34 208.5,549.09 207.62,549.97 205,549.97 205,551.72 208.5,551.72 " stroke="red" stroke-width="0.71875" stroke-linecap="round" stroke-linejoin="round" />
<polyline points="212.88,551.72 211.12,549.09 214.62,549.09 214.62,551.72 214.62,546.47 " stroke="red" stroke-width="0.71875" stroke-linecap="round" stroke-linejoin="round" />
<polygon points="218.12,551.72 217.25,550.84 217.25,547.34 218.12,546.47 219.88,546.47 220.75,547.34 220.75,550.84 219.88,551.72 " stroke="red" stroke-width="0.71875" stroke-linejoin="round" />
<polygon points="224.25,551.72 223.38,550.84 223.38,547.34 224.25,546.47 226,546.47 226.88,547.34 226.88,550.84 226,551.72 " stroke="red" stroke-width="0.71875" stroke-linejoin="round" />
<polyline points="424.41,568.66 424.34,568.62 421.22,567.12 417.09,564 414.72,561.84 412.97,560.19 408.88,555.69 408.41,555.12 404.75,550.59 403.06,548.47 400.62,545.47 397.88,541.91 396.53,540.22 392.84,535.38 392.41,534.88 388.31,529.47 387.94,528.97 384.19,523.69 383.38,522.59 380.06,518.75 377.72,516.28 375.97,514.69 371.84,511.38 369.94,510.06 367.72,508.62 363.62,506.19 359.5,503.97 359.31,503.88 355.38,501.69 351.28,499.44 347.94,497.75 347.16,497.38 343.03,495.47 338.94,493.78 334.81,492.16 333.5,491.69 330.69,490.72 326.59,489.47 322.47,488.47 318.34,487.84 314.25,487.38 311.25,487.12 " stroke="red" stroke-width="0.96875" stroke-linecap="round" stroke-linejoin="round" />
<polyline points="284.31,487.38 281.34,487.91 277.22,488.88 273.09,489.94 269,490.97 266.09,491.69 264.88,492 260.75,493.09 256.66,494.22 252.53,495.34 248.41,496.53 244.31,497.75 244.25,497.75 240.19,499 236.06,500.22 231.97,501.38 227.84,502.5 223.72,503.56 222.72,503.88 219.62,505.12 215.5,506.81 211.41,508.5 207.34,510.06 207.28,510.06 203.16,511.38 199.06,512.75 194.94,514.31 190.81,516.03 190.34,516.28 186.72,518.12 182.59,519.78 178.47,521.12 174.38,522.38 173.91,522.59 170.25,524.38 166.12,526.53 162.03,528.84 161.81,528.97 157.91,532.25 154.25,535.38 153.78,535.78 149.69,538.84 145.56,541.19 143.88,541.91 141.44,542.88 137.34,543.41 133.22,543.53 129.12,543.28 125,542.62 120.88,541.94 120.66,541.91 116.78,541.12 112.66,540.22 108.53,539.25 104.44,538.25 100.31,537.03 96.188,535.5 95.969,535.38 92.094,533.5 87.969,529.88 87.125,528.97 83.844,525.78 80.594,522.59 79.75,521.84 75.625,518.53 71.5,516.69 70.5,516.28 67.406,515.09 63.281,513.5 59.188,511.69 56.438,510.06 55.062,509.19 50.938,506.34 47.688,503.88 46.844,503.19 42.719,499.66 40.719,497.75 38.594,495.75 34.5,491.75 34.406,491.69 30.375,487.75 28.188,485.69 26.25,483.84 22.156,480.22 21.625,479.75 18.031,476.34 " stroke="red" stroke-width="0.96875" stroke-linecap="round" stroke-linejoin="round" />
<polyline points="287.28,484.69 288.16,483.81 289.91,483.81 290.78,484.69 290.78,486.44 289.91,487.31 287.28,487.31 287.28,489.06 290.78,489.06 " stroke="red" stroke-width="0.71875" stroke-linecap="round" stroke-linejoin="round" />
<polyline points="295.16,489.06 293.41,486.44 296.91,486.44 296.91,489.06 296.91,483.81 " stroke="red" stroke-width="0.71875" stroke-linecap="round" stroke-linejoin="round" />
<polyline points="303.03,488.19 302.16,489.06 300.41,489.06 299.53,488.19 299.53,484.69 300.41,483.81 302.16,483.81 303.03,484.69 303.03,485.56 302.16,486.44 299.53,486.44 " stroke="red" stroke-width="0.71875" stroke-linecap="round" stroke-linejoin="round" />
<polygon points="306.53,489.06 305.66,488.19 305.66,484.69 306.53,483.81 308.28,483.81 309.16,484.69 309.16,488.19 308.28,489.06 " stroke="red" stroke-width="0.71875" stroke-linejoin="round" />
<polyline points="594,541.47 593.16,541.91 589.88,543.25 585.78,544.84 581.66,545.94 577.53,546.91 573.44,547.78 569.97,548.47 569.31,548.59 565.19,549.41 561.09,550.19 556.97,550.97 552.88,551.72 548.75,552.44 544.62,553.09 540.53,553.72 536.41,554.31 532.28,554.84 529.97,555.12 528.19,555.31 524.06,555.75 519.94,556.22 515.84,556.81 511.72,557.38 507.59,557.94 503.5,558.47 499.38,558.97 495.25,559.41 491.16,559.72 487.03,559.84 482.91,559.53 478.81,559.03 474.69,558.31 470.56,557.41 466.47,556.38 462.34,555.16 462.22,555.12 458.25,553.75 454.12,552.25 450,550.66 445.91,548.97 444.72,548.47 441.78,547.22 437.66,545.44 433.56,543.84 429.44,541.94 429.38,541.91 425.31,539.5 421.22,536.47 420.03,535.38 417.09,532.75 413.19,528.97 412.97,528.78 408.88,524.66 407.03,522.59 404.75,520.03 401.5,516.28 400.62,515.34 396.53,510.78 395.84,510.06 392.41,506.69 389.34,503.88 388.31,503.09 384.19,500.25 380.12,497.75 380.06,497.72 375.97,495.41 371.84,493.25 368.78,491.69 367.72,491.16 363.62,489.12 359.5,487.22 355.97,485.69 355.38,485.44 351.28,483.81 347.16,482.38 343.03,481.12 338.94,480.03 337.84,479.75 334.81,478.78 330.69,477.62 326.59,476.62 322.47,475.78 319.5,475.34 " stroke="red" stroke-width="0.96875" stroke-linecap="round" stroke-linejoin="round" />
<polyline points="292.53,472.38 289.56,472.25 285.44,472.47 281.34,472.88 277.22,473.38 274.09,473.84 273.09,473.97 269,474.53 264.88,475.12 260.75,475.75 256.66,476.44 252.53,477.09 248.41,477.75 244.31,478.47 240.19,479.25 238.16,479.75 236.06,480.25 231.97,481.28 227.84,482.31 223.72,483.34 219.62,484.19 215.5,485.03 212.47,485.69 211.41,485.91 207.28,486.91 203.16,488.09 199.06,489.28 194.94,490.5 190.94,491.69 190.81,491.72 186.72,493.38 182.59,495.38 178.47,497.72 178.44,497.75 174.38,500.44 170.25,503 168.78,503.88 166.12,505.12 162.03,506.91 157.91,508.47 153.78,509.69 152.38,510.06 149.69,510.75 145.56,511.59 141.44,512.03 137.34,511 134.69,510.06 133.22,509.53 129.12,508 125,506.66 120.88,506.41 116.78,506.31 112.66,506.22 108.53,505.97 104.44,505.19 100.31,504.12 99.562,503.88 96.188,502.78 92.094,501.16 87.969,498.91 86,497.75 83.844,496.53 79.75,494.12 75.625,491.75 75.531,491.69 71.5,489.75 67.406,487.66 63.875,485.69 63.281,485.34 59.188,482.78 55.062,480.03 54.625,479.75 50.938,476.88 47.312,473.84 46.844,473.44 42.719,469.78 40.938,468 38.594,465.78 34.938,462.19 34.5,461.81 30.375,458.19 28.344,456.47 26.25,455.12 22.156,452.75 18.594,450.75 18.031,450.47 " stroke="red" stroke-width="0.96875" stroke-linecap="round" stroke-linejoin="round" />
<polyline points="295.53,472.03 296.41,471.16 298.16,471.16 299.03,472.03 299.03,473.78 298.16,474.66 295.53,474.66 295.53,476.41 299.03,476.41 " stroke="red" stroke-width="0.71875" stroke-linecap="round" stroke-linejoin="round" />
<polyline points="301.66,472.03 302.53,471.16 304.28,471.16 305.16,472.03 305.16,473.78 304.28,474.66 301.66,474.66 301.66,476.41 305.16,476.41 " stroke="red" stroke-width="0.71875" stroke-linecap="round" stroke-linejoin="round" />
<polyline points="307.78,475.53 308.66,476.41 310.41,476.41 311.28,475.53 311.28,474.66 307.78,471.16 311.28,471.16 " stroke="red" stroke-width="0.71875" stroke-linecap="round" stroke-linejoin="round" />
<polygon points="314.78,476.41 313.91,475.53 313.91,472.03 314.78,471.16 316.53,471.16 317.41,472.03 317.41,475.53 316.53,476.41 " stroke="red" stroke-width="0.71875" stroke-linejoin="round" />
<polyline points="594,469.5 589.88,473.75 589.84,473.84 586.81,479.75 585.78,482.94 585.12,485.69 583.78,491.69 582.09,497.75 581.66,498.97 579.69,503.88 577.53,507.25 575.47,510.06 573.44,512.19 569.31,515.72 568.44,516.28 565.19,518.12 561.09,520.22 556.97,522.12 555.91,522.59 552.88,523.78 548.75,525.38 544.62,526.78 540.53,528.06 537.19,528.97 536.41,529.16 532.28,529.84 528.19,530.47 524.06,531 519.94,531.5 515.84,532.16 511.72,532.78 507.59,533.34 503.5,533.84 499.38,534.22 495.25,534.47 491.16,534.56 487.03,534.41 482.91,533.84 478.81,533.06 474.69,532.09 470.56,531 466.47,529.88 463.44,528.97 462.34,528.62 458.25,527.28 454.12,525.84 450,524.34 445.91,522.69 445.66,522.59 441.78,520.81 437.66,518.75 433.56,516.53 433.12,516.28 429.44,514.12 425.31,511.53 423.22,510.06 421.22,508.59 417.09,504.84 416.12,503.88 412.97,500.72 409.81,497.75 408.88,496.97 404.75,493.72 402.03,491.69 400.62,490.69 396.53,487.81 393.41,485.69 392.41,485 388.31,482.34 384.19,480.12 383.41,479.75 380.06,477.94 375.97,475.84 371.84,473.88 371.75,473.84 367.72,471.84 363.62,469.91 359.5,468.09 359.28,468 355.38,466.34 351.28,464.78 347.16,463.38 343.44,462.19 343.03,462.06 340.06,461.16 " stroke="red" stroke-width="0.96875" stroke-linecap="round" stroke-linejoin="round" />
<polyline points="313.12,456.22 310.12,455.81 306.03,455.34 301.91,454.94 297.78,454.66 293.69,454.47 289.56,454.41 285.44,454.59 281.34,454.88 277.22,455.25 273.09,455.66 269,455.94 264.88,456.22 261.91,456.47 260.75,456.53 256.66,456.88 252.53,457.38 248.41,457.94 244.31,458.53 240.19,459.16 236.06,459.66 231.97,460.22 227.84,460.84 223.72,461.62 221.31,462.19 219.62,462.59 215.5,463.62 211.41,464.72 207.28,465.91 203.16,467.44 201.78,468 199.06,469.03 194.94,470.66 190.81,472.22 186.72,473.19 183.53,473.84 182.59,474.03 178.47,474.75 174.38,475.53 170.25,476.88 166.12,478.25 162.03,479.59 161.47,479.75 157.91,480.75 153.78,480.75 149.69,480.41 145.56,479.84 144.94,479.75 141.44,479.25 137.34,479.16 133.22,479.03 129.12,478.84 125,478.47 120.88,477.59 116.78,476.62 112.66,475.62 108.53,474.66 104.44,474.12 102.53,473.84 100.31,473.53 96.188,472.75 92.094,471.69 87.969,469.91 84,468 83.844,467.94 79.75,465.78 75.625,463.53 73.406,462.19 71.5,461.09 67.406,458.59 64.094,456.47 63.281,456 59.188,453.75 55.062,451.59 53.469,450.75 50.938,449.56 46.844,447.56 42.719,445.5 42,445.12 38.594,443.31 34.5,441.06 31.781,439.5 30.375,438.72 26.25,436.38 22.156,434 22.094,433.97 18.031,431.53 " stroke="red" stroke-width="0.96875" stroke-linecap="round" stroke-linejoin="round" />
<polyline points="316.09,456.41 316.97,455.53 318.72,455.53 319.59,456.41 319.59,458.16 318.72,459.03 316.09,459.03 316.09,460.78 319.59,460.78 " stroke="red" stroke-width="0.71875" stroke-linecap="round" stroke-linejoin="round" />
<polyline points="322.22,456.41 323.09,455.53 324.84,455.53 325.72,456.41 325.72,458.16 324.84,459.03 322.22,459.03 322.22,460.78 325.72,460.78 " stroke="red" stroke-width="0.71875" stroke-linecap="round" stroke-linejoin="round" />
<polygon points="329.22,460.78 328.34,459.91 328.34,459.03 329.22,458.16 330.97,458.16 331.84,459.03 331.84,459.91 330.97,460.78 " stroke="red" stroke-width="0.71875" stroke-linejoin="round" />
<polyline points="329.22,458.16 328.34,457.28 328.34,456.41 329.22,455.53 330.97,455.53 331.84,456.41 331.84,457.28 330.97,458.16 " stroke="red" stroke-width="0.71875" stroke-linecap="round" stroke-linejoin="round" />
<polygon points="335.34,460.78 334.47,459.91 334.47,456.41 335.34,455.53 337.09,455.53 337.97,456.41 337.97,459.91 337.09,460.78 " stroke="red" stroke-width="0.71875" stroke-linejoin="round" />
<polyline points="594,420.44 589.88,421.56 587.56,422.97 585.78,424.19 581.66,427.56 580.84,428.44 577.53,432.28 576.41,433.97 573.44,438.19 572.69,439.5 570,445.12 569.31,446.75 567.84,450.75 565.88,456.47 565.19,458.66 564.06,462.19 562.06,468 561.09,470.44 559.56,473.84 556.97,478.56 556.19,479.75 552.88,483.38 549.97,485.69 548.75,486.56 544.62,489.12 540.53,491.41 539.97,491.69 536.41,493.41 532.28,495.34 528.19,497.12 526.62,497.75 524.06,498.69 519.94,500.06 515.84,501.28 511.72,502.28 507.59,503.09 503.5,503.72 501.72,503.88 499.38,504.06 495.25,504.22 491.16,504.22 487.03,504.09 482.91,503.97 481.66,503.88 478.81,503.66 474.69,503.19 470.56,502.5 466.47,501.53 462.34,500.41 458.25,499.09 454.44,497.75 454.12,497.62 450,496.06 445.91,494.44 441.78,492.66 439.81,491.69 437.66,490.66 433.56,488 430.44,485.69 429.44,484.91 425.31,481.5 423.19,479.75 421.22,478.34 417.09,476.31 412.97,474.38 411.88,473.84 408.88,472.38 404.75,470.19 401.41,468 400.62,467.47 396.53,464.75 392.44,462.19 392.41,462.19 388.31,459.75 384.19,457.66 381.78,456.47 380.06,455.62 375.97,453.72 371.84,451.81 369.66,450.75 367.72,449.81 363.62,447.75 359.5,445.69 358.28,445.12 355.38,443.66 351.28,441.81 347.16,440.12 347.09,440.09 " stroke="red" stroke-width="0.96875" stroke-linecap="round" stroke-linejoin="round" />
<polyline points="321.34,430.69 318.34,429.84 314.25,428.84 312.25,428.44 310.12,428 306.03,427.31 301.91,426.88 297.78,426.53 293.69,426.31 289.56,426.12 285.44,425.78 281.34,425.5 277.22,425.38 273.09,425.5 269,426.41 264.88,427.56 262.09,428.44 260.75,428.81 256.66,429.94 252.53,430.47 248.41,430.91 244.31,431.31 240.19,431.81 236.06,432.69 231.97,433.62 230.62,433.97 227.84,434.53 223.72,435.34 219.62,436.09 215.5,436.91 211.41,437.84 207.28,438.88 205.12,439.5 203.16,440.03 199.06,441.19 194.94,442.41 190.81,443.62 186.72,444.78 185.47,445.12 182.59,445.81 178.47,446.78 174.38,447.66 170.25,448.56 166.12,449.41 162.03,450.19 158.56,450.75 157.91,450.88 153.78,451.41 149.69,451.81 145.56,452.03 141.44,452.09 137.34,451.88 133.22,451.56 129.12,451.16 125.62,450.75 125,450.69 120.88,450.41 116.78,450.03 112.66,449.59 108.53,449 104.44,448.22 100.31,447.31 96.188,446.25 92.188,445.12 92.094,445.09 87.969,443.69 83.844,442.16 79.75,440.53 77.312,439.5 75.625,438.84 71.5,437.31 67.406,435.88 63.281,434.44 61.844,433.97 59.188,433.03 55.062,431.59 50.938,430.06 46.844,428.44 46.812,428.44 42.719,426.62 38.594,424.66 35.219,422.97 34.5,422.59 30.375,420.47 26.25,418.28 24.875,417.53 22.156,415.97 18.031,413.38 " stroke="red" stroke-width="0.96875" stroke-linecap="round" stroke-linejoin="round" />
<polyline points="324.31,433.62 325.19,432.75 326.94,432.75 327.81,433.62 327.81,435.38 326.94,436.25 324.31,436.25 324.31,438 327.81,438 " stroke="red" stroke-width="0.71875" stroke-linecap="round" stroke-linejoin="round" />
<polyline points="333.94,437.12 333.06,438 331.31,438 330.44,437.12 330.44,433.62 331.31,432.75 333.06,432.75 333.94,433.62 333.94,434.5 333.06,435.38 330.44,435.38 " stroke="red" stroke-width="0.71875" stroke-linecap="round" stroke-linejoin="round" />
<polyline points="338.31,438 336.56,435.38 340.06,435.38 340.06,438 340.06,432.75 " stroke="red" stroke-width="0.71875" stroke-linecap="round" stroke-linejoin="round" />
<polygon points="343.56,438 342.69,437.12 342.69,433.62 343.56,432.75 345.31,432.75 346.19,433.62 346.19,437.12 345.31,438 " stroke="red" stroke-width="0.71875" stroke-linejoin="round" />
<polyline points="594,385.62 592.88,385.78 589.88,386.12 585.78,387.06 581.66,388.53 577.53,390.53 576.81,390.97 573.44,393.16 569.56,396.22 569.31,396.41 565.19,400.78 564.62,401.47 561.09,406.22 560.69,406.78 557.38,412.16 556.97,412.91 554.44,417.53 552.88,420.56 551.25,422.97 548.75,426.84 547.62,428.44 544.62,432.88 543.84,433.97 540.53,438.91 540.06,439.5 536.41,444.31 535.69,445.12 532.28,448.66 529.97,450.75 528.19,452.25 524.06,455.22 522.06,456.47 519.94,457.56 515.84,459.59 511.72,461.41 509.72,462.19 507.59,463.03 503.5,464.5 499.38,466.06 495.25,467.44 493.12,468 491.16,468.5 487.03,469.22 482.91,469.31 478.81,469.12 474.69,468.66 470.56,468 470.5,468 466.47,467.25 462.34,466.34 458.25,465.28 454.12,464.09 450,462.97 447.59,462.19 445.91,461.66 441.78,460.16 437.66,458.47 433.56,456.66 433.12,456.47 429.44,454.78 425.31,452.81 421.22,450.81 421.12,450.75 417.09,448.53 412.97,446.28 410.78,445.12 408.88,444.09 404.75,441.97 400.62,440.19 399.03,439.5 396.53,438.47 392.41,436.84 388.31,435.25 385.16,433.97 384.19,433.5 380.06,431.53 375.97,429.53 373.78,428.44 371.84,427.41 367.72,424.97 364.38,422.97 363.62,422.5 359.5,420 355.38,417.59 355.28,417.53 351.28,415.44 347.16,413.38 344.66,412.16 343.03,411.34 338.94,409.38 334.81,407.28 333.84,406.78 332.75,406.22 " stroke="red" stroke-width="0.96875" stroke-linecap="round" stroke-linejoin="round" />
<polyline points="315.12,396.75 314.25,396.28 314.06,396.22 310.12,394.12 306.03,392 303.62,390.97 301.91,390.31 297.78,388.97 293.69,387.78 289.56,386.66 286.22,385.78 285.44,385.56 281.34,384.34 277.22,382.97 273.09,381.31 271.88,380.59 269,378.91 264.88,376.59 262.47,375.47 260.75,374.72 256.66,373.62 252.53,374.38 249.06,375.47 248.41,375.69 244.31,377.34 240.19,379 236.06,379.53 231.97,380.09 229.06,380.59 227.84,380.84 223.72,381.94 219.62,384.09 216.25,385.78 215.5,386.12 211.41,388.03 207.28,389.66 203.16,390.72 202.34,390.97 199.06,392.25 194.94,394.25 191.75,396.22 190.81,396.84 186.72,400.22 185.12,401.47 182.59,403.31 178.47,405.97 177.06,406.78 174.38,408.31 170.25,410.75 167.72,412.16 166.12,413.09 162.03,415.41 157.91,417.38 157.5,417.53 153.78,418.94 149.69,420.31 145.56,421.5 141.44,422.56 139.72,422.97 137.34,423.53 133.22,424.28 129.12,424.88 125,425.22 120.88,425.25 116.78,425.09 112.66,424.78 108.53,424.34 104.44,423.88 100.31,423.28 98.562,422.97 96.188,422.53 92.094,421.69 87.969,420.66 83.844,419.56 79.75,418.44 76.531,417.53 75.625,417.28 71.5,416 67.406,414.62 63.281,413.19 60.531,412.16 59.188,411.56 55.062,409.84 50.938,408.06 48.094,406.78 46.844,406.19 42.719,404.25 38.594,402.47 36.312,401.47 34.5,400.69 30.375,398.84 26.25,396.97 24.688,396.22 22.156,394.97 18.031,392.91 " stroke="red" stroke-width="0.96875" stroke-linecap="round" stroke-linejoin="round" />
<polyline points="313.47,399.72 314.34,398.84 316.09,398.84 316.97,399.72 316.97,401.47 316.09,402.34 313.47,402.34 313.47,404.09 316.97,404.09 " stroke="red" stroke-width="0.71875" stroke-linecap="round" stroke-linejoin="round" />
<polyline points="319.59,404.09 323.09,404.09 321.34,398.84 " stroke="red" stroke-width="0.71875" stroke-linecap="round" stroke-linejoin="round" />
<polygon points="326.59,404.09 325.72,403.22 325.72,399.72 326.59,398.84 328.34,398.84 329.22,399.72 329.22,403.22 328.34,404.09 " stroke="red" stroke-width="0.71875" stroke-linejoin="round" />
<polygon points="332.72,404.09 331.84,403.22 331.84,399.72 332.72,398.84 334.47,398.84 335.34,399.72 335.34,403.22 334.47,404.09 " stroke="red" stroke-width="0.71875" stroke-linejoin="round" />
<polyline points="594,340.25 593.66,340.41 589.88,342.06 585.78,344.31 584.47,345.31 581.66,347.41 578.56,350.28 577.53,351.19 573.44,355.22 573.41,355.25 569.31,358.75 567.53,360.25 565.19,362 561.09,365.28 561.06,365.28 556.97,368.62 555.03,370.38 552.88,372.44 549.94,375.47 548.75,376.66 544.91,380.59 544.62,380.88 540.53,384.94 539.69,385.78 536.41,389.06 534.88,390.97 532.28,394.62 531.16,396.22 528.19,400.22 527.19,401.47 524.06,405.19 522.56,406.78 519.94,409.5 517.41,412.16 515.84,413.78 512.03,417.53 511.72,417.84 507.59,421.41 505.53,422.97 503.5,424.41 499.38,426.19 495.25,427.5 491.16,428.41 490.94,428.44 487.03,429 482.91,429.47 478.81,429.72 474.69,429.69 470.56,429.44 466.47,428.84 464.34,428.44 462.34,428.03 458.25,426.94 454.12,425.69 450,424.22 446.84,422.97 445.91,422.56 441.78,420.75 437.66,418.94 433.97,417.53 433.56,417.38 429.44,415.91 425.31,414.53 421.22,413.19 418.5,412.16 417.09,411.62 412.97,410.03 408.88,408.53 404.75,407.09 403.72,406.78 400.62,405.94 396.53,404.81 392.41,403.62 388.31,402.38 385.84,401.47 384.19,400.88 380.06,399.12 375.97,397.22 373.97,396.22 371.84,395.06 367.72,392.56 365.09,390.97 363.62,390.09 359.5,387.81 355.56,385.78 355.38,385.69 351.28,383.66 347.16,381.56 345.38,380.59 343.03,379.28 338.94,376.91 336,375.47 335.19,375.09 " stroke="red" stroke-width="0.96875" stroke-linecap="round" stroke-linejoin="round" />
<polyline points="315.41,365.62 314.81,365.28 314.25,364.97 310.12,362.66 306.03,360.56 305.28,360.25 301.91,358.78 297.78,357 293.81,355.25 293.69,355.19 289.56,353.25 285.44,351.19 283.5,350.28 281.34,349.16 277.22,347.28 273.09,345.66 272.12,345.31 269,344.22 264.88,343.16 260.75,342.44 256.66,342.06 252.53,342.41 248.41,343.06 244.31,343.94 240.19,345.03 239.16,345.31 236.06,346.19 231.97,347.41 227.84,348.56 223.72,349.62 219.62,350.03 217.25,350.28 215.5,350.47 211.41,351.25 207.28,352.56 203.16,355.16 203.06,355.25 199.06,357.81 194.94,360.09 194.66,360.25 190.81,362.19 186.72,364.56 185.56,365.28 182.59,367.28 178.47,370.34 178.47,370.38 174.38,373.94 172.56,375.47 170.25,377.41 166.34,380.59 166.12,380.75 162.03,383.78 158.97,385.78 157.91,386.44 153.78,388.31 149.69,389.91 146.41,390.97 145.56,391.25 141.44,392.5 137.34,394.06 133.22,395.5 130.97,396.22 129.12,396.75 125,397.72 120.88,398.03 116.78,398.06 112.66,397.88 108.53,397.53 104.44,397.25 100.31,396.88 96.188,396.41 94.75,396.22 92.094,395.81 87.969,395.06 83.844,394.16 79.75,393.12 75.625,391.91 73.031,390.97 71.5,390.44 67.406,388.91 63.281,387.31 59.406,385.78 59.188,385.66 55.062,383.91 50.938,382.09 47.594,380.59 46.844,380.25 42.719,378.38 38.594,376.62 35.938,375.47 34.5,374.81 30.375,373.03 26.25,371.31 23.688,370.38 22.156,369.81 18.031,368.44 " stroke="red" stroke-width="0.96875" stroke-linecap="round" stroke-linejoin="round" />
<polyline points="313.5,368.62 314.38,367.75 316.12,367.75 317,368.62 317,370.38 316.12,371.25 313.5,371.25 313.5,373 317,373 " stroke="red" stroke-width="0.71875" stroke-linecap="round" stroke-linejoin="round" />
<polyline points="319.62,373 323.12,373 321.38,367.75 " stroke="red" stroke-width="0.71875" stroke-linecap="round" stroke-linejoin="round" />
<polyline points="329.25,372.12 328.38,373 326.62,373 325.75,372.12 325.75,368.62 326.62,367.75 328.38,367.75 329.25,368.62 329.25,369.5 328.38,370.38 325.75,370.38 " stroke="red" stroke-width="0.71875" stroke-linecap="round" stroke-linejoin="round" />
<polygon points="332.75,373 331.88,372.12 331.88,368.62 332.75,367.75 334.5,367.75 335.38,368.62 335.38,372.12 334.5,373 " stroke="red" stroke-width="0.71875" stroke-linejoin="round" />
<polyline points="552.25,247 552.22,247.03 548.75,250.84 548.19,251.5 544.62,255.84 544.5,256 540.91,260.5 540.53,261 537.62,265.03 536.41,266.84 534.59,269.59 532.28,273.19 531.69,274.16 528.47,278.75 528.19,279.16 525.19,283.34 524.06,285 521.97,287.97 519.94,291 518.81,292.62 516.41,297.31 515.84,298.53 514.25,302 512.34,306.72 511.72,308.38 510.53,311.44 508.25,316.22 507.59,317.47 505.47,321 503.5,324.22 502.59,325.81 500.56,330.66 501.66,335.5 503.47,340.41 503.5,340.47 505.06,345.31 505.56,350.28 503.5,354.94 503.31,355.25 499.38,359.97 499.12,360.25 495.25,363.47 492.62,365.28 491.16,366.12 487.03,367.62 482.91,367.31 478.81,366.25 476.09,365.28 474.69,364.75 470.56,363.16 466.47,361.88 462.34,360.81 459.28,360.25 458.25,360.06 454.12,359.56 450,359.97 448.03,360.25 445.91,360.53 441.78,361.06 437.66,361.56 433.56,361.56 429.44,361.5 425.31,361.31 421.22,361.06 417.09,361.03 412.97,360.94 408.88,360.78 404.75,360.56 400.62,360.31 400.03,360.25 396.53,359.88 392.41,359.22 388.31,358.31 384.19,356.72 380.53,355.25 380.06,355.06 375.97,353.25 371.84,351.5 368.5,350.28 367.72,349.94 363.62,348.06 359.5,346.09 357.94,345.31 355.38,343.88 351.28,341.66 348.91,340.41 347.16,339.38 343.03,337 340.31,335.5 338.94,334.69 336.72,333.5 " stroke="red" stroke-width="0.96875" stroke-linecap="round" stroke-linejoin="round" />
<polyline points="316.47,324.06 314.25,322.91 310.44,321 310.12,320.84 306.03,318.72 301.91,317.03 299.47,316.22 297.78,315.66 293.69,314.44 289.56,313.38 285.44,312.16 283,311.44 281.34,310.88 277.22,309.62 273.09,308.62 269,308.03 264.88,307.62 260.75,307.38 256.66,307.28 252.53,307.22 248.41,307.31 244.31,307.69 240.19,308.34 236.06,309.81 232.41,311.44 231.97,311.66 227.84,313.78 223.72,316 223.22,316.22 219.62,317.62 215.5,319.28 211.47,321 211.41,321.03 207.28,322.66 203.16,324.44 200.16,325.81 199.06,326.25 194.94,328.03 190.81,330.06 189.88,330.66 186.72,332.56 182.59,335.34 182.34,335.5 178.47,338.06 174.97,340.41 174.38,340.78 170.25,343.53 167.66,345.31 166.12,346.34 162.03,349.16 160.31,350.28 157.91,351.81 153.78,354 151.25,355.25 149.69,356 145.56,357.72 141.44,359.22 137.94,360.25 137.34,360.41 133.22,361.28 129.12,361.91 125,362.38 120.88,362.88 116.78,363.25 112.66,363.44 108.53,363.44 104.44,362.94 100.31,362.28 96.188,361.59 92.094,360.94 87.969,360.66 83.844,360.41 81.969,360.25 79.75,360.06 75.625,359.62 71.5,359 67.406,358.22 63.281,357.31 59.188,356.31 55.562,355.25 55.062,355.09 50.938,353.75 46.844,352.41 42.719,351 40.625,350.28 38.594,349.44 34.5,347.62 30.375,345.75 29.531,345.31 26.25,343.62 22.156,341.38 20.344,340.41 18.031,339.12 " stroke="red" stroke-width="0.96875" stroke-linecap="round" stroke-linejoin="round" />
<polyline points="316.09,327.03 316.97,326.16 318.72,326.16 319.59,327.03 319.59,328.78 318.72,329.66 316.09,329.66 316.09,331.41 319.59,331.41 " stroke="red" stroke-width="0.71875" stroke-linecap="round" stroke-linejoin="round" />
<polygon points="323.09,331.41 322.22,330.53 322.22,329.66 323.09,328.78 324.84,328.78 325.72,329.66 325.72,330.53 324.84,331.41 " stroke="red" stroke-width="0.71875" stroke-linejoin="round" />
<polyline points="323.09,328.78 322.22,327.91 322.22,327.03 323.09,326.16 324.84,326.16 325.72,327.03 325.72,327.91 324.84,328.78 " stroke="red" stroke-width="0.71875" stroke-linecap="round" stroke-linejoin="round" />
<polyline points="328.34,330.53 329.22,331.41 330.97,331.41 331.84,330.53 331.84,329.66 328.34,326.16 331.84,326.16 " stroke="red" stroke-width="0.71875" stroke-linecap="round" stroke-linejoin="round" />
<polygon points="335.34,331.41 334.47,330.53 334.47,327.03 335.34,326.16 337.09,326.16 337.97,327.03 337.97,330.53 337.09,331.41 " stroke="red" stroke-width="0.71875" stroke-linejoin="round" />
<polyline points="75.625,277.5 79.75,278.44 81.469,278.75 83.844,279.16 87.969,279.78 92.094,280.59 96.188,282.62 97.156,283.34 100.31,285.56 102.94,287.97 104.44,288.88 108.53,290.38 112.66,288.34 113.12,287.97 115.56,283.34 113.34,278.75 112.66,278.38 108.53,276.91 104.44,274.59 103.94,274.16 100.72,269.59 100.31,269.12 99.969,268.66 " stroke="red" stroke-width="0.96875" stroke-linecap="round" stroke-linejoin="round" />
<polyline points="90.438,259.22 87.969,257.72 84.312,256 83.844,255.88 79.75,254.97 75.625,254.34 71.5,253.72 67.406,253.34 63.281,253.25 59.188,253.56 55.062,254.97 52.875,256 52.5,260.5 55.062,264.19 55.656,265.03 59.188,267.81 61.656,269.59 63.281,270.56 67.406,273.16 68.906,274.16 71.5,275.59 75.625,277.5 " stroke="red" stroke-width="0.96875" stroke-linecap="round" stroke-linejoin="round" />
<polyline points="85.688,262.19 86.562,261.31 88.312,261.31 89.188,262.19 89.188,263.94 88.312,264.81 85.688,264.81 85.688,266.56 89.188,266.56 " stroke="red" stroke-width="0.71875" stroke-linecap="round" stroke-linejoin="round" />
<polygon points="92.688,266.56 91.812,265.69 91.812,264.81 92.688,263.94 94.438,263.94 95.312,264.81 95.312,265.69 94.438,266.56 " stroke="red" stroke-width="0.71875" stroke-linejoin="round" />
<polyline points="92.688,263.94 91.812,263.06 91.812,262.19 92.688,261.31 94.438,261.31 95.312,262.19 95.312,263.06 94.438,263.94 " stroke="red" stroke-width="0.71875" stroke-linecap="round" stroke-linejoin="round" />
<polygon points="98.812,266.56 97.938,265.69 97.938,264.81 98.812,263.94 100.56,263.94 101.44,264.81 101.44,265.69 100.56,266.56 " stroke="red" stroke-width="0.71875" stroke-linejoin="round" />
<polyline points="98.812,263.94 97.938,263.06 97.938,262.19 98.812,261.31 100.56,261.31 101.44,262.19 101.44,263.06 100.56,263.94 " stroke="red" stroke-width="0.71875" stroke-linecap="round" stroke-linejoin="round" />
<polygon points="104.94,266.56 104.06,265.69 104.06,262.19 104.94,261.31 106.69,261.31 107.56,262.19 107.56,265.69 106.69,266.56 " stroke="red" stroke-width="0.71875" stroke-linejoin="round" />
</g>
</svg>
