<?xml version="1.0" encoding="ISO-8859-1" standalone="no"?>
<!DOCTYPE svg PUBLIC "-//W3C//DTD SVG 1.1//EN" "http://www.w3.org/Graphics/SVG/1.1/DTD/svg11.dtd">
<svg version="1.1" baseProfile="full" id="body" width="900px" height="600px" viewBox="0 0.2 1 0.55" preserveAspectRatio="none" xmlns="http://www.w3.org/2000/svg" xmlns:xlink="http://www.w3.org/1999/xlink" xmlns:ev="http://www.w3.org/2001/xml-events">
<title>SVG drawing</title>
<desc>This was produced by version 4.2 of GNU libplot, a free library for exporting 2-D vector graphics.</desc>
<rect id="background" x="0" y="0" width="1" height="1" stroke="none" fill="none"/>
<g id="content" transform="translate(-0.03125,1.1875) scale(1,-1) scale(0.0017361) " xml:space="preserve" stroke="black" stroke-linecap="butt" stroke-linejoin="miter" stroke-miterlimit="10.433" stroke-dasharray="none" stroke-dashoffset="0" stroke-opacity="1" fill="none" fill-rule="even-odd" fill-opacity="1" font-style="normal" font-variant="normal" font-weight="normal" font-stretch="normal" font-size-adjust="none" letter-spacing="normal" word-spacing="normal" text-anchor="start">
<polyline points="252.25,568.66 252.28,568.62 252.53,568.47 256.66,565.66 260.75,562.78 262.25,561.84 264.88,560.44 269,558.5 273.09,556.91 277.22,555.84 281.34,555.19 282.34,555.12 285.44,554.97 288.44,555.06 " stroke="red" stroke-width="0.96875" stroke-linecap="round" stroke-linejoin="round" />
<polyline points="315.38,561.81 315.66,561.84 318.34,562.22 322.47,562.72 326.59,562.94 330.69,563.19 334.81,563.53 338.94,564.03 343.03,565 347.16,566.16 351.28,567.47 354.62,568.62 354.72,568.66 " stroke="red" stroke-width="0.96875" stroke-linecap="round" stroke-linejoin="round" />
<polyline points="291.41,557.09 292.28,556.22 294.03,556.22 294.91,557.09 294.91,558.84 294.03,559.72 291.41,559.72 291.41,561.47 294.91,561.47 " stroke="red" stroke-width="0.71875" stroke-linecap="round" stroke-linejoin="round" />
<polyline points="297.53,560.59 298.41,561.47 300.16,561.47 301.03,560.59 301.03,559.72 297.53,556.22 301.03,556.22 " stroke="red" stroke-width="0.71875" stroke-linecap="round" stroke-linejoin="round" />
<polyline points="303.66,560.59 304.53,561.47 306.28,561.47 307.16,560.59 307.16,559.72 303.66,556.22 307.16,556.22 " stroke="red" stroke-width="0.71875" stroke-linecap="round" stroke-linejoin="round" />
<polygon points="310.66,561.47 309.78,560.59 309.78,557.09 310.66,556.22 312.41,556.22 313.28,557.09 313.28,560.59 312.41,561.47 " stroke="red" stroke-width="0.71875" stroke-linejoin="round" />
<polyline points="213.31,568.66 213.34,568.62 215.5,566.28 219.62,562.09 219.91,561.84 223.72,558.91 227.84,555.88 228.94,555.12 231.97,553.5 236.06,551.41 240.19,549.5 242.56,548.47 244.31,547.78 248.41,546.25 252.53,544.81 256.66,543.5 260.75,542.09 261.44,541.91 264.88,540.91 269,539.91 273.09,539.12 277.22,538.78 281.34,538.66 285.44,538.69 288.44,538.84 " stroke="red" stroke-width="0.96875" stroke-linecap="round" stroke-linejoin="round" />
<polyline points="315.38,542.31 318.34,542.66 322.47,543.16 326.59,543.62 330.69,544.16 334.81,544.75 338.94,545.41 343.03,546.28 347.16,547.31 351.16,548.47 351.28,548.5 355.38,549.97 359.5,551.84 363.62,553.94 365.72,555.12 367.72,556.31 371.84,558.84 375.97,561.38 376.66,561.84 380.06,564 384.19,566.72 386.91,568.62 386.94,568.66 " stroke="red" stroke-width="0.96875" stroke-linecap="round" stroke-linejoin="round" />
<polyline points="291.41,538.75 292.28,537.88 294.03,537.88 294.91,538.75 294.91,540.5 294.03,541.38 291.41,541.38 291.41,543.12 294.91,543.12 " stroke="red" stroke-width="0.71875" stroke-linecap="round" stroke-linejoin="round" />
<polyline points="297.53,542.25 298.41,543.12 300.16,543.12 301.03,542.25 301.03,541.38 297.53,537.88 301.03,537.88 " stroke="red" stroke-width="0.71875" stroke-linecap="round" stroke-linejoin="round" />
<polygon points="304.53,543.12 303.66,542.25 303.66,541.38 304.53,540.5 306.28,540.5 307.16,541.38 307.16,542.25 306.28,543.12 " stroke="red" stroke-width="0.71875" stroke-linejoin="round" />
<polyline points="304.53,540.5 303.66,539.62 303.66,538.75 304.53,537.88 306.28,537.88 307.16,538.75 307.16,539.62 306.28,540.5 " stroke="red" stroke-width="0.71875" stroke-linecap="round" stroke-linejoin="round" />
<polygon points="310.66,543.12 309.78,542.25 309.78,538.75 310.66,537.88 312.41,537.88 313.28,538.75 313.28,542.25 312.41,543.12 " stroke="red" stroke-width="0.71875" stroke-linejoin="round" />
<polyline points="577.59,568.66 577.59,568.62 578.94,561.84 580.38,555.12 580.5,554.56 " stroke="red" stroke-width="0.96875" stroke-linecap="round" stroke-linejoin="round" />
<polyline points="583.47,545.12 584.81,541.91 585.78,540.03 589.72,535.38 589.88,535.22 594,533 " stroke="red" stroke-width="0.96875" stroke-linecap="round" stroke-linejoin="round" />
<polyline points="571.16,548.09 572.03,547.22 573.78,547.22 574.66,548.09 574.66,549.84 573.78,550.72 571.16,550.72 571.16,552.47 574.66,552.47 " stroke="red" stroke-width="0.71875" stroke-linecap="round" stroke-linejoin="round" />
<polyline points="577.28,551.59 578.16,552.47 579.91,552.47 580.78,551.59 580.78,550.72 577.28,547.22 580.78,547.22 " stroke="red" stroke-width="0.71875" stroke-linecap="round" stroke-linejoin="round" />
<polygon points="584.28,552.47 583.41,551.59 583.41,550.72 584.28,549.84 586.03,549.84 586.91,550.72 586.91,551.59 586.03,552.47 " stroke="red" stroke-width="0.71875" stroke-linejoin="round" />
<polyline points="584.28,549.84 583.41,548.97 583.41,548.09 584.28,547.22 586.03,547.22 586.91,548.09 586.91,548.97 586.03,549.84 " stroke="red" stroke-width="0.71875" stroke-linecap="round" stroke-linejoin="round" />
<polygon points="590.41,552.47 589.53,551.59 589.53,548.09 590.41,547.22 592.16,547.22 593.03,548.09 593.03,551.59 592.16,552.47 " stroke="red" stroke-width="0.71875" stroke-linejoin="round" />
<polyline points="423.56,568.66 423.5,568.62 421.22,567.31 417.09,565.56 412.97,563.88 408.88,562.12 408.25,561.84 404.75,560.19 400.62,557.81 396.53,555.5 395.84,555.12 392.41,553.19 388.31,550.97 384.19,548.66 383.81,548.47 380.06,546.34 375.97,544.09 371.84,541.97 371.69,541.91 367.72,539.97 363.62,538.22 359.5,536.69 355.53,535.38 355.38,535.34 351.28,534.16 347.16,533.09 343.03,532.09 338.94,531.16 334.81,530.19 330.69,529.25 329.41,528.97 326.59,528.28 322.47,527.41 318.34,526.72 314.25,526.12 310.12,525.62 306.03,525.22 301.91,524.84 297.78,524.53 293.69,524.28 289.56,524.09 285.44,523.88 281.34,523.69 277.22,523.66 273.09,523.75 269,524.22 264.88,524.84 260.75,525.59 256.66,526.47 252.53,527.28 248.41,528.16 245.44,528.84 " stroke="red" stroke-width="0.96875" stroke-linecap="round" stroke-linejoin="round" />
<polyline points="218.5,535.44 215.5,536.28 211.41,537.44 207.28,538.62 203.16,539.78 199.06,540.97 195.84,541.91 194.94,542.19 190.81,543.47 186.72,544.81 182.59,546.16 178.47,547.59 175.97,548.47 174.38,549.09 170.25,550.78 166.12,552.44 162.03,554.06 159.25,555.12 157.91,555.62 153.78,556.72 149.69,557.69 145.56,558.5 141.44,559.22 137.34,560 133.22,560.66 129.12,561.25 125,561.69 120.88,561.75 116.78,561.66 112.66,561.47 108.53,561.19 104.44,561.12 100.31,560.97 96.188,560.66 92.094,560.09 87.969,559.19 83.844,558.03 79.75,556.66 75.75,555.12 75.625,555.06 71.5,552.84 67.406,550.56 63.594,548.47 63.281,548.31 59.188,546.25 55.062,544.12 50.938,542.16 50.312,541.91 46.844,540.53 42.719,539.22 38.594,538.84 34.5,538.5 30.375,538.06 26.25,537.38 22.156,535.78 21.312,535.38 18.031,534 " stroke="red" stroke-width="0.96875" stroke-linecap="round" stroke-linejoin="round" />
<polyline points="221.47,530.19 222.34,529.31 224.09,529.31 224.97,530.19 224.97,531.94 224.09,532.81 221.47,532.81 221.47,534.56 224.97,534.56 " stroke="red" stroke-width="0.71875" stroke-linecap="round" stroke-linejoin="round" />
<polyline points="227.59,533.69 228.47,534.56 230.22,534.56 231.09,533.69 231.09,532.81 230.22,531.94 229.34,531.94 230.22,531.94 231.09,531.06 231.09,530.19 230.22,529.31 228.47,529.31 227.59,530.19 " stroke="red" stroke-width="0.71875" stroke-linecap="round" stroke-linejoin="round" />
<polyline points="235.47,534.56 233.72,531.94 237.22,531.94 237.22,534.56 237.22,529.31 " stroke="red" stroke-width="0.71875" stroke-linecap="round" stroke-linejoin="round" />
<polygon points="240.72,534.56 239.84,533.69 239.84,530.19 240.72,529.31 242.47,529.31 243.34,530.19 243.34,533.69 242.47,534.56 " stroke="red" stroke-width="0.71875" stroke-linejoin="round" />
<polyline points="549.38,568.66 549.38,568.62 551.56,561.84 552.88,556.53 553.19,555.12 554.06,548.47 554.81,541.91 555.59,535.38 556.62,528.97 556.97,527.81 558.75,522.59 559.34,521 " stroke="red" stroke-width="0.96875" stroke-linecap="round" stroke-linejoin="round" />
<polyline points="563.44,511.56 564.12,510.06 565.19,507.78 567.22,503.88 569.31,498.19 569.47,497.75 571.78,491.69 573.44,487.81 574.5,485.69 577.53,480.59 578.22,479.75 581.66,475.69 583.78,473.84 585.78,472.38 589.88,470.69 594,470.19 " stroke="red" stroke-width="0.96875" stroke-linecap="round" stroke-linejoin="round" />
<polyline points="550.72,514.53 551.59,513.66 553.34,513.66 554.22,514.53 554.22,516.28 553.34,517.16 550.72,517.16 550.72,518.91 554.22,518.91 " stroke="red" stroke-width="0.71875" stroke-linecap="round" stroke-linejoin="round" />
<polyline points="556.84,518.03 557.72,518.91 559.47,518.91 560.34,518.03 560.34,517.16 559.47,516.28 558.59,516.28 559.47,516.28 560.34,515.41 560.34,514.53 559.47,513.66 557.72,513.66 556.84,514.53 " stroke="red" stroke-width="0.71875" stroke-linecap="round" stroke-linejoin="round" />
<polyline points="564.72,518.91 562.97,516.28 566.47,516.28 566.47,518.91 566.47,513.66 " stroke="red" stroke-width="0.71875" stroke-linecap="round" stroke-linejoin="round" />
<polygon points="569.97,518.91 569.09,518.03 569.09,514.53 569.97,513.66 571.72,513.66 572.59,514.53 572.59,518.03 571.72,518.91 " stroke="red" stroke-width="0.71875" stroke-linejoin="round" />
<polyline points="594,446.25 589.88,446.38 585.78,447.12 581.66,448.69 577.53,450.75 573.44,453.59 569.88,456.47 569.31,457.06 565.38,462.19 565.19,462.47 561.62,468 561.09,468.91 558.19,473.84 556.97,476.09 555,479.75 552.88,484.59 552.41,485.69 550.34,491.69 548.75,496.91 548.5,497.75 546.75,503.88 544.62,509.91 544.59,510.06 542.34,516.28 540.53,521.44 540.06,522.59 537.72,528.97 536.41,533.44 535.66,535.38 533.16,541.91 532.28,543.94 529.97,548.47 528.19,551.53 525.56,555.12 524.06,556.75 519.94,560.41 517.88,561.84 515.84,563.09 511.72,565.06 507.59,566.47 503.5,567.41 499.38,567.88 495.25,568 491.16,567.91 487.03,567.59 482.91,567.44 478.81,567.12 474.69,566.56 470.56,565.81 466.47,564.56 462.34,563.09 459.16,561.84 458.25,561.47 454.12,559.66 450,557.78 445.91,555.78 444.53,555.12 441.78,553.78 437.66,551.78 433.56,549.72 431.09,548.47 429.44,547.62 425.31,545.56 421.22,543.5 417.88,541.91 417.09,541.5 412.97,539.44 408.88,537.34 404.91,535.38 404.75,535.31 400.62,533.94 396.53,532.75 392.41,531.62 388.31,530.5 384.38,528.97 384.19,528.88 380.06,527.06 375.97,525.44 371.84,524.03 367.72,522.78 367,522.59 363.62,521.62 359.5,520.5 356.53,519.72 " stroke="red" stroke-width="0.96875" stroke-linecap="round" stroke-linejoin="round" />
<polyline points="329.56,513.31 326.59,512.69 322.47,511.94 318.34,511.31 314.25,510.78 310.12,510.31 307.59,510.06 306.03,509.88 301.91,509.44 297.78,509.06 293.69,508.72 289.56,508.41 285.44,508.22 281.34,508.06 277.22,508 273.09,508.03 269,508.19 264.88,508.41 260.75,508.69 256.66,509 252.53,509.31 248.41,509.66 244.31,509.97 243.47,510.06 240.19,510.31 236.06,510.69 231.97,511.06 227.84,511.44 223.72,511.81 219.62,512.12 215.5,512.44 211.41,512.69 207.28,512.91 203.16,513.12 199.06,513.25 194.94,513.34 190.81,513.34 186.72,513.28 182.59,513.12 178.47,512.84 174.38,512.44 170.25,511.75 166.12,510.91 162.59,510.06 162.03,509.91 157.91,508.94 153.78,508.03 149.69,507.19 145.56,506.41 141.44,505.72 137.34,505.06 133.22,504.5 129.12,504.03 126.72,503.88 125,503.75 123.03,503.88 120.88,504 116.78,504.44 112.66,504.91 108.53,505.22 104.44,504.75 100.31,504.06 99.375,503.88 96.188,503.25 92.094,502.38 87.969,501.59 83.844,500.81 79.75,500.03 75.625,499.19 71.5,498 70.656,497.75 67.406,496.84 63.281,495.72 59.188,494.69 55.062,493.94 50.938,493.28 46.844,492.91 42.719,492.84 38.594,493.53 34.5,494.47 30.375,495.47 26.25,496.41 22.156,497.03 18.031,497.66 " stroke="red" stroke-width="0.96875" stroke-linecap="round" stroke-linejoin="round" />
<polyline points="332.53,514.69 333.41,513.81 335.16,513.81 336.03,514.69 336.03,516.44 335.16,517.31 332.53,517.31 332.53,519.06 336.03,519.06 " stroke="red" stroke-width="0.71875" stroke-linecap="round" stroke-linejoin="round" />
<polyline points="340.41,519.06 338.66,516.44 342.16,516.44 342.16,519.06 342.16,513.81 " stroke="red" stroke-width="0.71875" stroke-linecap="round" stroke-linejoin="round" />
<polygon points="345.66,519.06 344.78,518.19 344.78,514.69 345.66,513.81 347.41,513.81 348.28,514.69 348.28,518.19 347.41,519.06 " stroke="red" stroke-width="0.71875" stroke-linejoin="round" />
<polygon points="351.78,519.06 350.91,518.19 350.91,514.69 351.78,513.81 353.53,513.81 354.41,514.69 354.41,518.19 353.53,519.06 " stroke="red" stroke-width="0.71875" stroke-linejoin="round" />
<polyline points="594,432.31 589.88,432.16 585.78,432.5 581.66,433.56 580.59,433.97 577.53,435.25 573.44,437.41 570.09,439.5 569.31,440.03 565.19,443.19 563.03,445.12 561.09,447 557.59,450.75 556.97,451.5 553.03,456.47 552.88,456.72 548.88,462.19 548.75,462.38 545.06,468 544.62,468.75 541.66,473.84 540.53,476.09 538.66,479.75 536.41,485.47 536.31,485.69 533.78,491.69 532.28,495.22 531.06,497.75 528.19,503.47 527.94,503.88 524.06,509.47 523.59,510.06 519.94,514.56 518.28,516.28 515.84,518.81 511.72,522.47 511.56,522.59 507.59,525.59 503.5,528.19 502.12,528.97 499.38,530.47 495.25,532.19 491.16,533.44 487.03,534.31 482.91,534.94 478.81,535.28 474.69,535.34 470.56,535.09 466.47,534.44 462.34,533.56 458.25,532.53 454.12,531.38 450,530.41 445.91,529.38 444.41,528.97 441.78,528.22 437.66,526.91 433.56,525.22 429.44,523.38 427.75,522.59 425.31,521.44 421.22,519.47 417.09,517.5 414.44,516.28 412.97,515.62 408.88,513.88 404.75,512.19 400.62,510.41 399.81,510.06 396.53,508.56 392.41,506.69 388.31,504.94 384.19,504.19 381.31,503.88 380.06,503.75 375.97,503.5 371.84,503.25 367.72,502.59 363.62,501.91 359.5,501.19 355.38,500.47 352.34,499.94 " stroke="red" stroke-width="0.96875" stroke-linecap="round" stroke-linejoin="round" />
<polyline points="325.38,495.44 322.47,494.97 318.34,494.41 314.25,493.88 310.12,493.31 306.03,492.81 301.91,492.19 298.5,491.69 297.78,491.59 293.69,491 289.56,490.47 285.44,490.22 281.34,490.03 277.22,489.91 273.09,489.88 269,489.75 264.88,489.69 260.75,489.66 256.66,489.69 252.53,489.84 248.41,490 244.31,490.16 240.19,490.28 236.06,490.22 231.97,490.06 227.84,489.84 223.72,489.59 219.62,489.22 215.5,488.81 211.41,488.38 207.28,487.94 203.16,487.72 199.06,487.47 194.94,487.19 190.81,486.81 186.72,486.06 184.94,485.69 182.59,485.16 178.47,484.16 174.38,483.06 170.25,481.88 166.12,480.69 162.94,479.75 162.03,479.5 157.91,478.47 153.78,477.53 149.69,476.62 145.56,475.72 141.44,474.81 137.34,473.91 136.97,473.84 133.22,473.06 129.12,472.22 125,471.31 120.88,470.19 116.78,469 113.22,468 112.66,467.84 108.53,466.88 104.44,466.25 100.31,465.75 96.188,465.25 92.094,464.72 87.969,463.75 83.844,462.69 81.844,462.19 79.75,461.78 75.625,461.22 71.5,461.31 67.406,461.72 63.844,462.19 63.281,462.28 59.188,463.12 55.062,463.78 50.938,464.53 46.844,465.31 42.719,466.22 38.594,467.44 36.938,468 34.5,468.84 30.375,470.34 26.25,471.81 22.156,473 19.344,473.84 18.031,474.25 " stroke="red" stroke-width="0.96875" stroke-linecap="round" stroke-linejoin="round" />
<polyline points="328.38,496 329.25,495.12 331,495.12 331.88,496 331.88,497.75 331,498.62 328.38,498.62 328.38,500.38 331.88,500.38 " stroke="red" stroke-width="0.71875" stroke-linecap="round" stroke-linejoin="round" />
<polyline points="336.25,500.38 334.5,497.75 338,497.75 338,500.38 338,495.12 " stroke="red" stroke-width="0.71875" stroke-linecap="round" stroke-linejoin="round" />
<polyline points="344.12,499.5 343.25,500.38 341.5,500.38 340.62,499.5 340.62,496 341.5,495.12 343.25,495.12 344.12,496 344.12,496.88 343.25,497.75 340.62,497.75 " stroke="red" stroke-width="0.71875" stroke-linecap="round" stroke-linejoin="round" />
<polygon points="347.62,500.38 346.75,499.5 346.75,496 347.62,495.12 349.38,495.12 350.25,496 350.25,499.5 349.38,500.38 " stroke="red" stroke-width="0.71875" stroke-linejoin="round" />
<polyline points="594,420.72 589.88,420.5 585.78,420.59 581.66,421.25 577.53,422.28 575.5,422.97 573.44,423.72 569.31,425.56 565.19,427.81 564.19,428.44 561.09,430.5 556.97,433.69 556.62,433.97 552.88,437.31 550.53,439.5 548.75,441.31 545.09,445.12 544.62,445.62 540.53,450.16 539.97,450.75 536.41,454.91 534.97,456.47 532.28,459.78 530.28,462.19 528.19,465.03 525.88,468 524.06,470.56 521.59,473.84 519.94,476.16 517,479.75 515.84,481.16 511.72,485.41 511.41,485.69 507.59,488.94 503.78,491.69 503.5,491.91 499.38,494.59 495.25,496.88 493.44,497.75 491.16,498.84 487.03,500.47 482.91,501.84 478.81,502.94 474.69,503.78 473.94,503.88 470.56,504.31 466.47,504.38 462.34,504.19 458.84,503.88 458.25,503.81 454.12,503.28 450,502.78 445.91,502.12 441.78,501.34 437.66,500.41 433.56,499.22 429.44,497.97 428.81,497.75 425.31,496.62 421.22,495.31 417.09,494.06 412.97,492.78 409.59,491.69 408.88,491.47 404.75,490.09 400.62,488.69 396.53,487.38 392.41,486.25 390.19,485.69 388.31,485.22 384.19,484.31 380.06,483.38 375.97,482.47 371.84,481.53 367.72,480.69 363.62,479.91 362.69,479.75 359.5,479.19 355.38,478.56 351.28,478.06 348.28,477.72 " stroke="red" stroke-width="0.96875" stroke-linecap="round" stroke-linejoin="round" />
<polyline points="321.34,473.91 320.97,473.84 318.34,473.44 314.25,472.81 310.12,472.22 306.03,471.62 301.91,470.94 297.78,470.28 293.69,469.72 289.56,469.28 285.44,469.06 281.34,468.94 277.22,468.84 273.09,468.75 269,468.5 264.88,468.28 260.75,468.03 260.09,468 256.66,467.81 252.53,467.78 248.41,467.75 244.31,467.72 240.19,467.66 236.06,467.41 231.97,467.12 227.84,466.78 223.72,466.41 219.62,466.06 215.5,465.69 211.41,465.28 207.28,464.78 203.16,463.88 199.06,462.84 196.53,462.19 194.94,461.78 190.81,460.75 186.72,460.59 182.59,460.59 178.47,460.62 174.38,460.53 170.25,459.91 166.12,459.16 162.03,458.31 157.91,457.44 153.78,456.53 153.53,456.47 149.69,455.59 145.56,454.66 141.44,453.78 137.34,453.03 133.22,452.34 129.12,451.66 125,451 123.81,450.75 120.88,450.25 116.78,449.53 112.66,448.88 108.53,448.28 104.44,447.88 100.31,447.5 96.188,447.16 92.094,446.84 87.969,446.34 83.844,445.91 79.75,445.59 75.625,445.47 71.5,445.78 67.406,446.25 63.281,446.88 59.188,447.56 55.062,448.28 50.938,449.09 46.844,450 43.625,450.75 42.719,451 38.594,452.19 34.5,453.5 30.375,454.91 26.25,456.41 26.062,456.47 22.156,457.75 18.031,459.06 " stroke="red" stroke-width="0.96875" stroke-linecap="round" stroke-linejoin="round" />
<polyline points="324.31,474.31 325.19,473.44 326.94,473.44 327.81,474.31 327.81,476.06 326.94,476.94 324.31,476.94 324.31,478.69 327.81,478.69 " stroke="red" stroke-width="0.71875" stroke-linecap="round" stroke-linejoin="round" />
<polyline points="330.44,474.31 331.31,473.44 333.06,473.44 333.94,474.31 333.94,476.06 333.06,476.94 330.44,476.94 330.44,478.69 333.94,478.69 " stroke="red" stroke-width="0.71875" stroke-linecap="round" stroke-linejoin="round" />
<polyline points="336.56,477.81 337.44,478.69 339.19,478.69 340.06,477.81 340.06,476.94 336.56,473.44 340.06,473.44 " stroke="red" stroke-width="0.71875" stroke-linecap="round" stroke-linejoin="round" />
<polygon points="343.56,478.69 342.69,477.81 342.69,474.31 343.56,473.44 345.31,473.44 346.19,474.31 346.19,477.81 345.31,478.69 " stroke="red" stroke-width="0.71875" stroke-linejoin="round" />
<polyline points="594,408.06 589.88,407.78 585.78,407.72 581.66,408.06 577.53,408.66 573.44,409.53 569.31,410.72 565.66,412.16 565.19,412.31 561.09,414.06 556.97,416.19 554.69,417.53 552.88,418.66 548.75,421.38 546.59,422.97 544.62,424.5 540.53,427.97 540,428.44 536.41,431.72 533.69,433.97 532.28,435.06 528.19,438.19 526.41,439.5 524.06,441.31 519.94,444.47 519.09,445.12 515.84,447.66 511.78,450.75 511.72,450.81 507.59,453.88 503.94,456.47 503.5,456.81 499.38,459.94 496.16,462.19 495.25,462.81 491.16,465.38 487.03,467.53 485.81,468 482.91,469.03 478.81,470.16 474.69,471 470.56,471.62 466.47,472.34 462.34,472.88 458.25,473.28 454.12,473.47 450,473.31 445.91,473.03 441.78,472.62 437.66,472.09 433.56,471.66 429.44,471.16 425.31,470.59 421.22,469.94 417.09,469.16 412.97,468.31 411.47,468 408.88,467.44 404.75,466.53 400.62,465.69 396.53,464.78 392.41,463.88 388.31,462.97 384.78,462.19 384.19,462.06 380.06,461.16 375.97,460.25 371.84,459.41 367.72,458.44 363.62,457.44 359.66,456.47 359.5,456.41 355.38,455.31 351.28,454.28 347.16,453.25 343.03,452.22 338.94,451.19 337.28,450.75 335.94,450.41 " stroke="red" stroke-width="0.96875" stroke-linecap="round" stroke-linejoin="round" />
<polyline points="309,445.25 307.94,445.12 306.03,444.88 301.91,444.38 297.78,443.94 293.69,443.53 289.56,443.25 285.44,443.12 281.34,443.03 277.22,443 273.09,442.94 269,442.75 264.88,442.56 260.75,442.28 256.66,442 252.53,441.59 248.41,441.16 244.31,440.72 240.19,440.28 236.06,439.97 231.97,439.69 228.44,439.5 227.84,439.47 223.72,439.31 219.62,439.47 217.56,439.5 215.5,439.56 211.41,439.56 209.91,439.5 207.28,439.41 203.16,438.41 199.06,437.44 194.94,436.53 190.81,435.81 186.72,435.62 182.59,435.59 178.47,435.62 174.38,435.72 170.25,435.78 166.12,435.81 162.03,435.81 157.91,435.72 153.78,435.41 149.69,435.03 145.56,434.69 141.44,434.34 137.34,434.12 133.38,433.97 133.22,433.94 129.12,433.78 125,433.62 120.88,433.47 116.78,433.31 112.66,433.19 108.53,433.06 104.44,433.03 100.31,433 96.188,433.03 92.094,433.06 87.969,433 83.844,432.97 79.75,433.06 75.625,433.22 71.5,433.75 70.094,433.97 67.406,434.28 63.281,434.88 59.188,435.5 55.062,436.09 50.938,436.72 46.844,437.38 42.719,438.12 38.594,438.94 35.969,439.5 34.5,439.84 30.375,440.78 26.25,441.78 22.156,442.69 18.031,443.69 " stroke="red" stroke-width="0.96875" stroke-linecap="round" stroke-linejoin="round" />
<polyline points="311.97,445.47 312.84,444.59 314.59,444.59 315.47,445.47 315.47,447.22 314.59,448.09 311.97,448.09 311.97,449.84 315.47,449.84 " stroke="red" stroke-width="0.71875" stroke-linecap="round" stroke-linejoin="round" />
<polyline points="318.09,445.47 318.97,444.59 320.72,444.59 321.59,445.47 321.59,447.22 320.72,448.09 318.09,448.09 318.09,449.84 321.59,449.84 " stroke="red" stroke-width="0.71875" stroke-linecap="round" stroke-linejoin="round" />
<polygon points="325.09,449.84 324.22,448.97 324.22,448.09 325.09,447.22 326.84,447.22 327.72,448.09 327.72,448.97 326.84,449.84 " stroke="red" stroke-width="0.71875" stroke-linejoin="round" />
<polyline points="325.09,447.22 324.22,446.34 324.22,445.47 325.09,444.59 326.84,444.59 327.72,445.47 327.72,446.34 326.84,447.22 " stroke="red" stroke-width="0.71875" stroke-linecap="round" stroke-linejoin="round" />
<polygon points="331.22,449.84 330.34,448.97 330.34,445.47 331.22,444.59 332.97,444.59 333.84,445.47 333.84,448.97 332.97,449.84 " stroke="red" stroke-width="0.71875" stroke-linejoin="round" />
<polyline points="594,390.09 589.88,389.88 585.78,389.81 581.66,389.97 577.53,390.31 573.44,390.84 572.75,390.97 569.31,391.5 565.19,392.38 561.09,393.47 556.97,394.81 553.38,396.22 552.88,396.41 548.75,398.09 544.62,400 541.62,401.47 540.53,402.03 536.41,404.12 532.28,406.25 531.25,406.78 528.19,408.44 524.06,410.66 521.31,412.16 519.94,412.91 515.84,414.97 511.72,417.06 510.78,417.53 507.59,419.16 503.5,421.22 500.12,422.97 499.38,423.34 495.25,425.31 491.16,427.16 488.09,428.44 487.03,428.88 482.91,430.59 478.81,432.25 474.69,433.81 474.22,433.97 470.56,435.03 466.47,435.88 462.34,436.5 458.25,436.91 454.12,437.16 450,437.16 445.91,437.03 441.78,436.81 437.66,436.56 433.56,436.44 429.44,436.28 425.31,436.06 421.22,435.75 417.09,435.25 412.97,434.66 408.88,434.03 408.34,433.97 404.75,433.41 400.62,432.88 396.53,432.31 392.41,431.78 388.31,431.19 384.19,430.53 380.06,429.84 375.97,429.12 372.19,428.44 371.84,428.38 367.72,427.62 363.62,426.81 359.5,425.91 355.38,424.91 351.28,423.66 349.16,422.97 347.16,422.31 343.03,420.94 338.94,419.59 334.81,418.38 331.97,417.53 331.84,417.5 " stroke="red" stroke-width="0.96875" stroke-linecap="round" stroke-linejoin="round" />
<polyline points="304.88,411.88 301.91,411.38 297.78,410.72 293.69,410.06 289.56,409.44 285.44,408.88 281.34,408.31 277.22,407.78 273.09,407.28 269,406.84 268.47,406.78 264.88,406.44 260.75,406.03 256.66,405.59 252.53,405.16 248.41,404.69 244.31,404.22 240.19,403.66 236.06,403.12 231.97,402.5 227.84,401.78 226.09,401.47 223.72,401.09 219.62,400.34 215.5,399.84 211.41,399.56 207.28,399.5 203.16,399.91 199.06,400.53 194.94,401.41 194.56,401.47 190.81,402.44 186.72,403.03 182.59,403.53 178.47,403.97 174.38,404.34 170.25,404.97 166.12,405.62 162.03,406.34 159.34,406.78 157.91,407.03 153.78,407.5 149.69,407.94 145.56,408.38 141.44,408.88 137.34,409.66 133.22,410.47 129.12,411.22 125,411.88 120.88,412.06 118.22,412.16 116.78,412.19 112.66,412.31 108.53,412.53 104.44,413.03 100.31,413.62 96.188,414.28 92.094,414.94 87.969,415.59 83.844,416.25 79.75,416.88 75.625,417.47 75.188,417.53 71.5,418 67.406,418.53 63.281,419.09 59.188,419.69 55.062,420.28 50.938,420.91 46.844,421.56 42.719,422.22 38.594,422.88 38.031,422.97 34.5,423.5 30.375,424.19 26.25,424.94 22.156,425.66 18.031,426.5 " stroke="red" stroke-width="0.96875" stroke-linecap="round" stroke-linejoin="round" />
<polyline points="307.84,412.34 308.72,411.47 310.47,411.47 311.34,412.34 311.34,414.09 310.47,414.97 307.84,414.97 307.84,416.72 311.34,416.72 " stroke="red" stroke-width="0.71875" stroke-linecap="round" stroke-linejoin="round" />
<polyline points="317.47,415.84 316.59,416.72 314.84,416.72 313.97,415.84 313.97,412.34 314.84,411.47 316.59,411.47 317.47,412.34 317.47,413.22 316.59,414.09 313.97,414.09 " stroke="red" stroke-width="0.71875" stroke-linecap="round" stroke-linejoin="round" />
<polyline points="321.84,416.72 320.09,414.09 323.59,414.09 323.59,416.72 323.59,411.47 " stroke="red" stroke-width="0.71875" stroke-linecap="round" stroke-linejoin="round" />
<polygon points="327.09,416.72 326.22,415.84 326.22,412.34 327.09,411.47 328.84,411.47 329.72,412.34 329.72,415.84 328.84,416.72 " stroke="red" stroke-width="0.71875" stroke-linejoin="round" />
<polyline points="594,359.53 589.88,359.69 585.78,359.81 581.66,360.09 579.5,360.25 577.53,360.38 573.44,360.69 569.31,361 565.19,361.34 561.09,361.72 556.97,362.19 552.88,362.78 548.75,363.59 544.62,364.53 541.5,365.28 540.53,365.53 536.41,366.56 532.28,367.53 528.19,368.5 524.06,369.44 519.97,370.38 519.94,370.38 515.84,371.25 511.72,372.06 507.59,372.81 503.5,373.53 499.38,374.06 495.25,374.53 491.16,374.91 487.03,375.25 485.06,375.47 482.91,375.72 478.81,376.09 474.69,376.41 470.56,376.56 466.47,376.28 462.34,375.81 460.06,375.47 458.25,375.19 454.12,374.44 450,373.72 445.91,372.94 441.78,372.09 437.66,371.22 434.5,370.38 433.56,370.03 429.44,368.72 425.31,367.75 421.22,367.06 417.09,366.56 412.97,366.38 408.88,366.5 404.75,367.06 400.62,368.47 396.78,370.38 396.53,370.5 392.41,373.06 388.91,375.47 388.31,375.88 384.19,378.34 380.06,380.34 379.38,380.59 375.97,381.72 371.84,382.62 367.72,382.81 363.62,382.75 359.5,382.47 355.38,382.09 351.28,381.72 347.16,381.25 343.03,380.75 341.91,380.59 338.94,380.19 334.81,379.53 330.69,378.91 326.59,378.34 323.59,378.03 " stroke="red" stroke-width="0.96875" stroke-linecap="round" stroke-linejoin="round" />
<polyline points="296.66,377.47 293.69,377.38 289.56,377.22 285.44,377.09 281.34,376.97 277.22,376.81 273.09,376.62 269,376.47 264.88,376.25 260.75,375.97 256.66,375.56 256.09,375.47 252.53,374.78 248.41,373.94 244.31,373.16 240.19,372.53 236.06,372.44 231.97,372.47 227.84,372.59 223.72,372.69 219.62,372.66 215.5,372.53 211.41,372.34 207.28,372.06 203.16,371.44 199.06,370.78 196.53,370.38 194.94,370.09 190.81,369.5 186.72,369.22 182.59,369.03 178.47,368.88 174.38,368.75 170.25,368.56 166.12,368.34 162.03,368.22 157.91,368.16 153.78,368.22 149.69,368.44 145.56,368.78 141.44,369.28 137.34,370.16 136.59,370.38 133.22,371.53 129.12,373.16 125,375.03 124.12,375.47 120.88,377.06 116.78,379.12 113.72,380.59 112.66,381.06 108.53,382.78 104.44,384.09 100.31,385.31 98.812,385.78 96.188,386.44 92.094,387.53 87.969,388.69 83.844,389.84 79.844,390.97 79.75,391 75.625,392.19 71.5,393.5 67.406,394.81 63.281,396.06 62.844,396.22 59.188,397.19 55.062,398.22 50.938,399.22 46.844,400.16 42.719,401.06 40.594,401.47 38.594,401.84 34.5,402.56 30.375,403.31 26.25,404.09 22.156,404.91 18.031,405.88 " stroke="red" stroke-width="0.96875" stroke-linecap="round" stroke-linejoin="round" />
<polyline points="299.62,376 300.5,375.12 302.25,375.12 303.12,376 303.12,377.75 302.25,378.62 299.62,378.62 299.62,380.38 303.12,380.38 " stroke="red" stroke-width="0.71875" stroke-linecap="round" stroke-linejoin="round" />
<polyline points="305.75,380.38 309.25,380.38 307.5,375.12 " stroke="red" stroke-width="0.71875" stroke-linecap="round" stroke-linejoin="round" />
<polygon points="312.75,380.38 311.88,379.5 311.88,376 312.75,375.12 314.5,375.12 315.38,376 315.38,379.5 314.5,380.38 " stroke="red" stroke-width="0.71875" stroke-linejoin="round" />
<polygon points="318.88,380.38 318,379.5 318,376 318.88,375.12 320.62,375.12 321.5,376 321.5,379.5 320.62,380.38 " stroke="red" stroke-width="0.71875" stroke-linejoin="round" />
<polyline points="594,301.28 590.06,302 589.88,302.03 585.78,302.47 581.66,303.62 577.53,304.62 573.44,305.41 569.31,306 565.19,306.31 561.09,306.47 556.97,306.5 552.88,306.44 548.75,306.28 544.62,306 540.53,305.56 536.41,304.94 532.28,304.03 528.19,302.91 525.56,302 524.06,301.47 519.94,299.69 515.84,297.62 515.25,297.31 511.72,295.19 507.97,292.62 507.59,292.34 503.5,289 502.31,287.97 499.38,285.84 495.38,283.34 495.25,283.31 491.16,281.31 487.03,279.56 485.34,278.75 482.91,277.62 478.81,275.75 475.22,274.16 474.69,273.94 470.56,272.41 466.47,271.09 462.34,269.81 461.59,269.59 458.25,268.66 454.12,267.53 450,266.31 445.91,265.25 445,265.03 441.78,264.38 437.66,263.78 433.56,263.81 429.44,264.16 425.31,264.78 424.03,265.03 421.22,265.62 417.09,266.66 412.97,267.91 408.88,269.44 408.5,269.59 404.75,271.28 400.62,273.53 399.59,274.16 396.53,276.41 393.59,278.75 392.41,279.78 388.41,283.34 388.31,283.47 384.19,286.91 382.81,287.97 380.06,290.16 376.78,292.62 375.97,293.25 371.84,296.19 370.28,297.31 367.72,299.22 363.94,302 363.62,302.25 359.5,305.22 357.34,306.72 355.38,308.09 351.28,310.41 349.34,311.44 347.16,312.62 343.03,314.72 340.06,316.22 338.94,316.75 334.81,318.75 332.41,319.91 " stroke="red" stroke-width="0.96875" stroke-linecap="round" stroke-linejoin="round" />
<polyline points="314.38,329.34 314.25,329.44 312.06,330.66 310.12,331.66 306.03,333.84 302.56,335.5 301.91,335.81 297.78,337.47 293.69,338.94 289.56,340.19 288.75,340.41 285.44,341.22 281.34,342.16 277.22,342.94 273.09,343.59 269,343.91 264.88,344.09 260.75,344.19 256.66,344.28 252.53,344.41 248.41,344.56 244.31,344.78 240.19,345.06 238.56,345.31 236.06,345.69 231.97,346.25 227.84,346.72 223.72,346.97 219.62,346.47 215.5,345.75 213.16,345.31 211.41,344.97 207.28,344.19 203.16,343.72 199.06,343.38 194.94,343.09 190.81,342.91 186.72,342.94 182.59,343.06 178.47,343.16 174.38,343.19 170.25,342.91 166.12,342.59 162.03,342.28 157.91,342 153.78,341.91 149.69,341.81 145.56,341.75 141.44,341.62 137.34,341.28 133.22,340.94 129.12,340.59 126.53,340.41 125,340.28 120.88,340.12 116.78,340.03 112.66,340.03 108.53,340.12 104.44,340.41 104.31,340.41 100.31,340.78 96.188,341.28 92.094,341.88 87.969,342.5 83.844,343.28 79.75,344.22 76,345.31 75.625,345.44 71.5,347.31 67.406,349.72 66.594,350.28 63.281,352.75 60.062,355.25 59.188,355.91 55.062,359.09 53.594,360.25 50.938,362.19 46.844,365.28 46.812,365.28 42.719,368 38.875,370.38 38.594,370.5 34.5,372.5 30.375,374.5 28.375,375.47 26.25,376.34 22.156,377.91 18.031,379.56 " stroke="red" stroke-width="0.96875" stroke-linecap="round" stroke-linejoin="round" />
<polyline points="311.97,322.88 312.84,322 314.59,322 315.47,322.88 315.47,324.62 314.59,325.5 311.97,325.5 311.97,327.25 315.47,327.25 " stroke="red" stroke-width="0.71875" stroke-linecap="round" stroke-linejoin="round" />
<polyline points="318.09,327.25 321.59,327.25 319.84,322 " stroke="red" stroke-width="0.71875" stroke-linecap="round" stroke-linejoin="round" />
<polyline points="327.72,326.38 326.84,327.25 325.09,327.25 324.22,326.38 324.22,322.88 325.09,322 326.84,322 327.72,322.88 327.72,323.75 326.84,324.62 324.22,324.62 " stroke="red" stroke-width="0.71875" stroke-linecap="round" stroke-linejoin="round" />
<polygon points="331.22,327.25 330.34,326.38 330.34,322.88 331.22,322 332.97,322 333.84,322.88 333.84,326.38 332.97,327.25 " stroke="red" stroke-width="0.71875" stroke-linejoin="round" />
<polyline points="326.38,247 326.31,247.03 322.47,249.44 319.47,251.5 318.34,252.28 314.25,255.38 313.44,256 310.12,258.75 308.12,260.5 306.03,262.44 303,265.03 301.91,266.03 297.91,269.59 297.78,269.69 293.69,273.34 292.78,274.16 289.56,276.97 287.59,278.75 285.44,280.62 282.16,283.34 281.34,284 277.22,286.88 275.47,287.97 273.09,289.34 269,291.28 265.78,292.62 264.88,293 260.75,294.56 256.66,295.94 252.53,297 251.25,297.31 248.41,297.88 244.31,298.59 240.19,299.34 236.06,300.47 231.97,301.72 231.09,302 227.84,303 223.72,304.28 219.62,305.38 215.5,306.22 212.66,306.72 212.53,306.72 " stroke="red" stroke-width="0.96875" stroke-linecap="round" stroke-linejoin="round" />
<polyline points="185.56,308.62 182.59,308.66 178.47,308.62 174.38,308.53 170.25,308.34 166.12,308.16 162.03,307.91 157.91,307.66 153.78,307.47 149.69,307.28 145.56,307.12 141.44,306.94 137.34,306.72 136.91,306.72 133.22,306.5 129.12,306.34 125,306.22 120.88,306.28 116.78,306.41 112.66,306.62 111.69,306.72 108.53,306.91 104.44,307.28 100.31,307.69 96.188,308.12 92.094,308.56 87.969,308.97 83.844,309.38 79.75,309.75 75.625,310.12 71.5,310.34 67.406,310.56 63.281,310.81 59.188,311.16 56.938,311.44 55.062,311.66 50.938,312.22 46.844,312.88 42.719,313.66 38.594,314.66 34.5,315.78 33.094,316.22 30.375,317.03 26.25,318.34 22.156,319.44 18.031,320.59 " stroke="red" stroke-width="0.96875" stroke-linecap="round" stroke-linejoin="round" />
<polyline points="188.56,306.34 189.44,305.47 191.19,305.47 192.06,306.34 192.06,308.09 191.19,308.97 188.56,308.97 188.56,310.72 192.06,310.72 " stroke="red" stroke-width="0.71875" stroke-linecap="round" stroke-linejoin="round" />
<polygon points="195.56,310.72 194.69,309.84 194.69,308.97 195.56,308.09 197.31,308.09 198.19,308.97 198.19,309.84 197.31,310.72 " stroke="red" stroke-width="0.71875" stroke-linejoin="round" />
<polyline points="195.56,308.09 194.69,307.22 194.69,306.34 195.56,305.47 197.31,305.47 198.19,306.34 198.19,307.22 197.31,308.09 " stroke="red" stroke-width="0.71875" stroke-linecap="round" stroke-linejoin="round" />
<polyline points="200.81,309.84 201.69,310.72 203.44,310.72 204.31,309.84 204.31,308.97 200.81,305.47 204.31,305.47 " stroke="red" stroke-width="0.71875" stroke-linecap="round" stroke-linejoin="round" />
<polygon points="207.81,310.72 206.94,309.84 206.94,306.34 207.81,305.47 209.56,305.47 210.44,306.34 210.44,309.84 209.56,310.72 " stroke="red" stroke-width="0.71875" stroke-linejoin="round" />
</g>
</svg>
