<?xml version="1.0" encoding="ISO-8859-1" standalone="no"?>
<!DOCTYPE svg PUBLIC "-//W3C//DTD SVG 1.1//EN" "http://www.w3.org/Graphics/SVG/1.1/DTD/svg11.dtd">
<svg version="1.1" baseProfile="full" id="body" width="900px" height="600px" viewBox="0 0.2 1 0.55" preserveAspectRatio="none" xmlns="http://www.w3.org/2000/svg" xmlns:xlink="http://www.w3.org/1999/xlink" xmlns:ev="http://www.w3.org/2001/xml-events">
<title>SVG drawing</title>
<desc>This was produced by version 4.2 of GNU libplot, a free library for exporting 2-D vector graphics.</desc>
<rect id="background" x="0" y="0" width="1" height="1" stroke="none" fill="none"/>
<g id="content" transform="translate(-0.03125,1.1875) scale(1,-1) scale(0.0017361) " xml:space="preserve" stroke="black" stroke-linecap="butt" stroke-linejoin="miter" stroke-miterlimit="10.433" stroke-dasharray="none" stroke-dashoffset="0" stroke-opacity="1" fill="none" fill-rule="even-odd" fill-opacity="1" font-style="normal" font-variant="normal" font-weight="normal" font-stretch="normal" font-size-adjust="none" letter-spacing="normal" word-spacing="normal" text-anchor="start">
<polyline points="306.81,568.66 306.88,568.62 310.12,566.75 314.25,564.53 318.34,562.5 319.84,561.84 322.47,560.66 326.59,559 330.69,557.53 334.81,556.28 338.94,555.25 339.62,555.12 343.03,554.5 347.16,553.97 350.12,553.72 " stroke="red" stroke-width="0.96875" stroke-linecap="round" stroke-linejoin="round" />
<polyline points="377.09,555.38 380.06,556.06 384.19,557.09 388.31,558.25 392.41,559.53 396.53,560.94 398.97,561.84 400.62,562.47 404.75,564.22 408.88,566.16 412.97,568.19 413.88,568.62 413.94,568.66 " stroke="red" stroke-width="0.96875" stroke-linecap="round" stroke-linejoin="round" />
<polyline points="353.12,551.88 354,551 355.75,551 356.62,551.88 356.62,553.62 355.75,554.5 353.12,554.5 353.12,556.25 356.62,556.25 " stroke="red" stroke-width="0.71875" stroke-linecap="round" stroke-linejoin="round" />
<polyline points="359.25,555.38 360.12,556.25 361.88,556.25 362.75,555.38 362.75,554.5 359.25,551 362.75,551 " stroke="red" stroke-width="0.71875" stroke-linecap="round" stroke-linejoin="round" />
<polyline points="365.38,555.38 366.25,556.25 368,556.25 368.88,555.38 368.88,554.5 365.38,551 368.88,551 " stroke="red" stroke-width="0.71875" stroke-linecap="round" stroke-linejoin="round" />
<polygon points="372.38,556.25 371.5,555.38 371.5,551.88 372.38,551 374.12,551 375,551.88 375,555.38 374.12,556.25 " stroke="red" stroke-width="0.71875" stroke-linejoin="round" />
<polyline points="45.562,568.66 45.531,568.62 42.719,565.88 39.438,561.84 38.594,560.75 36.875,557.91 " stroke="red" stroke-width="0.96875" stroke-linecap="round" stroke-linejoin="round" />
<polyline points="33.188,548.44 31.562,541.91 30.375,537.5 29.875,535.38 27.812,528.97 26.25,526.09 23.688,522.59 22.156,521.19 18.031,518.38 " stroke="red" stroke-width="0.96875" stroke-linecap="round" stroke-linejoin="round" />
<polyline points="24,551.44 24.875,550.56 26.625,550.56 27.5,551.44 27.5,553.19 26.625,554.06 24,554.06 24,555.81 27.5,555.81 " stroke="red" stroke-width="0.71875" stroke-linecap="round" stroke-linejoin="round" />
<polyline points="30.125,554.94 31,555.81 32.75,555.81 33.625,554.94 33.625,554.06 30.125,550.56 33.625,550.56 " stroke="red" stroke-width="0.71875" stroke-linecap="round" stroke-linejoin="round" />
<polygon points="37.125,555.81 36.25,554.94 36.25,554.06 37.125,553.19 38.875,553.19 39.75,554.06 39.75,554.94 38.875,555.81 " stroke="red" stroke-width="0.71875" stroke-linejoin="round" />
<polyline points="37.125,553.19 36.25,552.31 36.25,551.44 37.125,550.56 38.875,550.56 39.75,551.44 39.75,552.31 38.875,553.19 " stroke="red" stroke-width="0.71875" stroke-linecap="round" stroke-linejoin="round" />
<polygon points="43.25,555.81 42.375,554.94 42.375,551.44 43.25,550.56 45,550.56 45.875,551.44 45.875,554.94 45,555.81 " stroke="red" stroke-width="0.71875" stroke-linejoin="round" />
<polyline points="264.81,568.66 264.84,568.62 264.88,568.62 269,565.28 273.09,562.19 273.62,561.84 277.22,559.47 281.34,557.03 284.81,555.12 285.44,554.78 289.56,552.56 293.69,550.47 297.78,548.56 297.97,548.47 301.91,546.75 306.03,545.12 310.12,543.56 314.25,542.22 315.28,541.91 318.34,541 322.47,539.97 326.59,539.09 330.69,538.41 334.81,537.88 338.94,537.47 343.03,537.25 346.03,537.19 " stroke="red" stroke-width="0.96875" stroke-linecap="round" stroke-linejoin="round" />
<polyline points="372.97,539.16 375.97,539.62 380.06,540.38 384.19,541.25 386.72,541.91 388.31,542.28 392.41,543.53 396.53,544.84 400.62,546.25 404.75,547.75 406.59,548.47 408.88,549.38 412.97,551.12 417.09,552.97 421.22,554.88 421.81,555.12 425.31,556.69 429.44,558.53 433.56,560.41 436.53,561.84 437.66,562.38 441.78,564.72 445.91,567.22 448.12,568.62 448.19,568.66 " stroke="red" stroke-width="0.96875" stroke-linecap="round" stroke-linejoin="round" />
<polyline points="349,535.84 349.88,534.97 351.62,534.97 352.5,535.84 352.5,537.59 351.62,538.47 349,538.47 349,540.22 352.5,540.22 " stroke="red" stroke-width="0.71875" stroke-linecap="round" stroke-linejoin="round" />
<polyline points="355.12,539.34 356,540.22 357.75,540.22 358.62,539.34 358.62,538.47 355.12,534.97 358.62,534.97 " stroke="red" stroke-width="0.71875" stroke-linecap="round" stroke-linejoin="round" />
<polygon points="362.12,540.22 361.25,539.34 361.25,538.47 362.12,537.59 363.88,537.59 364.75,538.47 364.75,539.34 363.88,540.22 " stroke="red" stroke-width="0.71875" stroke-linejoin="round" />
<polyline points="362.12,537.59 361.25,536.72 361.25,535.84 362.12,534.97 363.88,534.97 364.75,535.84 364.75,536.72 363.88,537.59 " stroke="red" stroke-width="0.71875" stroke-linecap="round" stroke-linejoin="round" />
<polygon points="368.25,540.22 367.38,539.34 367.38,535.84 368.25,534.97 370,534.97 370.88,535.84 370.88,539.34 370,540.22 " stroke="red" stroke-width="0.71875" stroke-linejoin="round" />
<polyline points="481.59,568.66 481.53,568.62 478.81,567.06 474.69,564.75 470.56,562.5 469.25,561.84 466.47,560.41 462.34,558.31 458.25,556.22 456.06,555.12 454.12,554.12 450,551.84 445.91,549.66 443.56,548.47 441.78,547.56 437.66,545.59 433.56,543.84 429.44,542.19 428.69,541.91 425.31,540.56 421.22,538.97 417.09,537.41 412.97,535.88 411.59,535.38 408.88,534.44 404.75,533 400.62,531.56 396.53,530.16 392.81,528.97 392.41,528.81 388.31,527.53 384.19,526.56 380.06,525.72 375.97,524.97 371.84,524.28 367.72,523.53 363.62,522.78 362.31,522.59 359.5,522.12 355.38,521.53 351.28,521.19 347.16,520.94 343.03,520.78 338.94,520.72 334.81,520.59 330.69,520.53 326.59,520.53 322.47,520.56 318.34,520.75 314.25,520.97 310.12,521.28 306.03,521.66 301.91,522.03 297.78,522.47 296.78,522.59 293.69,522.97 289.56,523.53 285.44,524.12 281.34,524.75 277.22,525.38 274.25,525.81 " stroke="red" stroke-width="0.96875" stroke-linecap="round" stroke-linejoin="round" />
<polyline points="247.28,528.69 244.44,528.97 244.31,528.97 240.19,529.44 236.06,529.78 231.97,530.03 227.84,530.22 223.72,530.34 219.62,530.44 215.5,530.47 211.41,530.5 207.28,530.53 203.16,530.69 199.06,530.88 194.94,531.06 190.81,531.28 186.72,531.22 182.59,531.16 178.47,531.22 174.38,531.53 170.25,532.69 166.12,533.91 162.03,535.09 160.81,535.38 157.91,536.16 153.78,536.88 149.69,537.38 145.56,537.66 141.44,537.69 137.34,536.94 133.22,535.97 130.97,535.38 129.12,534.94 125,534.09 120.88,534.81 117.97,535.38 116.78,535.62 112.66,536.31 108.53,536.53 104.91,535.38 104.44,535.25 100.31,533.41 96.188,531.09 92.844,528.97 92.094,528.53 87.969,526.69 83.844,524.94 79.75,523.31 77.875,522.59 75.625,521.81 71.5,520.53 67.406,519.12 63.281,517.56 60.219,516.28 59.188,515.88 55.062,514.88 50.938,513.69 46.844,512.19 42.719,510.19 42.594,510.06 38.594,506.28 36.062,503.88 34.5,502.69 30.375,500.22 26.25,498.59 22.156,498.28 18.031,498.38 " stroke="red" stroke-width="0.96875" stroke-linecap="round" stroke-linejoin="round" />
<polyline points="250.25,525.59 251.12,524.72 252.88,524.72 253.75,525.59 253.75,527.34 252.88,528.22 250.25,528.22 250.25,529.97 253.75,529.97 " stroke="red" stroke-width="0.71875" stroke-linecap="round" stroke-linejoin="round" />
<polyline points="256.38,529.09 257.25,529.97 259,529.97 259.88,529.09 259.88,528.22 259,527.34 258.12,527.34 259,527.34 259.88,526.47 259.88,525.59 259,524.72 257.25,524.72 256.38,525.59 " stroke="red" stroke-width="0.71875" stroke-linecap="round" stroke-linejoin="round" />
<polyline points="264.25,529.97 262.5,527.34 266,527.34 266,529.97 266,524.72 " stroke="red" stroke-width="0.71875" stroke-linecap="round" stroke-linejoin="round" />
<polygon points="269.5,529.97 268.62,529.09 268.62,525.59 269.5,524.72 271.25,524.72 272.12,525.59 272.12,529.09 271.25,529.97 " stroke="red" stroke-width="0.71875" stroke-linejoin="round" />
<polyline points="532.69,568.66 532.62,568.62 532.28,568.44 528.19,565.88 524.06,563.41 521.28,561.84 519.94,561.12 515.84,559.72 511.72,558.47 507.59,557.28 503.5,556.03 501.22,555.12 499.38,554.34 495.25,552.53 491.16,550.75 487.03,549.03 485.75,548.47 482.91,547.28 478.81,545.56 474.69,543.84 470.56,542.16 469.94,541.91 466.47,540.41 462.34,538.62 458.25,536.84 454.94,535.38 454.12,535.03 450,533.25 445.91,531.56 441.78,529.94 439.09,528.97 437.66,528.38 433.56,526.81 429.44,525.25 425.31,523.75 422,522.59 421.22,522.31 417.09,520.88 412.97,519.5 408.88,518.16 404.75,516.88 402.97,516.28 400.62,515.5 396.53,514.22 392.41,513.03 388.31,511.97 384.19,511.06 380.06,510.25 379.09,510.06 375.97,509.41 371.84,508.56 367.72,507.56 363.62,506.56 359.5,505.66 355.38,504.84 351.28,504.5 347.16,504.25 343.03,504.09 338.94,503.97 338.06,503.88 334.81,503.53 330.69,503.03 326.59,502.56 322.47,502.12 318.34,501.84 315.38,501.66 " stroke="red" stroke-width="0.96875" stroke-linecap="round" stroke-linejoin="round" />
<polyline points="288.44,500.5 285.44,500.5 281.34,500.53 277.22,500.62 273.09,500.69 269,500.75 264.88,500.78 260.75,500.75 256.66,500.69 252.53,500.44 248.41,500.09 244.31,499.66 240.19,499.16 236.06,498.66 231.97,498.09 229.72,497.75 227.84,497.44 223.72,496.66 219.62,495.69 215.5,494.56 211.41,493.28 207.28,491.84 206.91,491.69 203.16,490.09 199.06,488.44 194.94,486.97 190.81,485.75 190.44,485.69 186.72,485.03 182.59,484.56 178.47,484.31 174.38,484.31 170.25,484.56 166.12,485.09 162.88,485.69 162.03,485.84 157.91,486.84 153.78,488.16 149.69,489.34 145.56,490.25 141.44,490.81 137.34,490.69 133.22,490.31 129.12,489.69 125,488.84 120.88,487.5 116.78,485.97 115.97,485.69 112.66,484.5 108.53,483.22 104.44,483.03 100.31,483.03 96.188,483.12 92.094,483.19 87.969,482.66 83.844,482.06 79.75,481.53 75.625,481.12 71.5,481.38 67.406,481.72 63.281,482.09 59.188,482.38 55.062,482.25 50.938,482.12 46.844,482.06 42.719,482.12 38.594,482.38 34.5,482.75 30.375,483.16 26.25,483.62 22.156,484.28 18.031,485.03 " stroke="red" stroke-width="0.96875" stroke-linecap="round" stroke-linejoin="round" />
<polyline points="291.41,499.25 292.28,498.38 294.03,498.38 294.91,499.25 294.91,501 294.03,501.88 291.41,501.88 291.41,503.62 294.91,503.62 " stroke="red" stroke-width="0.71875" stroke-linecap="round" stroke-linejoin="round" />
<polyline points="299.28,503.62 297.53,501 301.03,501 301.03,503.62 301.03,498.38 " stroke="red" stroke-width="0.71875" stroke-linecap="round" stroke-linejoin="round" />
<polygon points="304.53,503.62 303.66,502.75 303.66,499.25 304.53,498.38 306.28,498.38 307.16,499.25 307.16,502.75 306.28,503.62 " stroke="red" stroke-width="0.71875" stroke-linejoin="round" />
<polygon points="310.66,503.62 309.78,502.75 309.78,499.25 310.66,498.38 312.41,498.38 313.28,499.25 313.28,502.75 312.41,503.62 " stroke="red" stroke-width="0.71875" stroke-linejoin="round" />
<polyline points="594,500.91 593.19,503.88 591.34,510.06 589.88,515.25 589.53,516.28 587.44,522.59 585.78,527.12 584.72,528.97 581.66,533.34 579.53,535.38 577.53,537.12 573.44,539.47 569.31,540.84 565.19,541.72 562.97,541.91 561.09,542.03 556.97,541.97 556,541.91 552.88,541.62 548.75,541.38 544.62,540.91 540.53,540.25 536.41,539.41 532.28,538.22 528.19,536.97 524.06,535.72 523.06,535.38 519.94,534.44 515.84,533.03 511.72,531.56 507.59,530.03 504.66,528.97 503.5,528.56 499.38,527.69 495.25,526.94 491.16,526.19 487.03,525.38 482.91,524.31 478.81,523.12 477.03,522.59 474.69,521.88 470.56,520.47 466.47,518.91 462.34,517.28 459.84,516.28 458.25,515.62 454.12,514 450,512.56 445.91,511.22 442.25,510.06 441.78,509.88 437.66,508.56 433.56,507.16 429.44,505.78 425.31,504.47 423.47,503.88 421.22,503.12 417.09,501.88 412.97,500.66 408.88,499.53 404.75,498.44 402,497.75 400.62,497.41 396.53,496.34 392.41,495.38 388.31,494.41 384.19,493.47 380.06,492.53 376.22,491.69 375.97,491.62 371.84,490.69 367.72,489.81 363.62,489.03 359.5,488.31 355.38,487.69 351.28,487.09 347.16,486.5 344.19,486.06 " stroke="red" stroke-width="0.96875" stroke-linecap="round" stroke-linejoin="round" />
<polyline points="317.22,482.34 314.25,482.03 310.12,481.59 306.03,481.16 301.91,480.66 297.78,480.09 295.09,479.75 293.69,479.53 289.56,478.88 285.44,478.25 281.34,477.59 277.22,476.88 273.09,476.09 269,475.31 264.88,474.5 261.75,473.84 260.75,473.62 256.66,472.75 252.53,471.72 248.41,470.59 244.31,469.44 240.19,468.19 239.44,468 236.06,467.09 231.97,465.97 227.84,464.81 223.72,463.59 219.62,462.22 219.59,462.19 215.5,460.81 211.41,459.28 207.28,457.53 205.5,456.47 203.16,455.34 199.06,453.38 194.94,451.5 193.22,450.75 190.81,449.84 186.72,448.75 182.59,447.88 178.47,447.25 174.38,446.91 170.25,447.34 166.12,448 162.03,448.72 157.91,449.41 153.78,449.78 149.69,450.12 145.56,450.5 142.66,450.75 141.44,450.91 137.34,451.28 133.22,451.69 129.12,452.12 125,452.56 120.88,453.06 116.78,453.59 112.66,454.19 108.53,454.84 104.44,455.88 102.06,456.47 100.31,456.97 96.188,458.06 92.094,458.94 87.969,458.94 83.844,458.81 79.75,458.78 75.625,458.94 71.5,460.03 67.406,461.28 64.344,462.19 63.281,462.53 59.188,463.69 55.062,464.22 50.938,464.66 46.844,465.09 42.719,465.62 38.594,466.53 34.5,467.53 32.812,468 30.375,468.66 26.25,469.84 22.156,471.03 18.031,472.25 " stroke="red" stroke-width="0.96875" stroke-linecap="round" stroke-linejoin="round" />
<polyline points="320.19,482.28 321.06,481.41 322.81,481.41 323.69,482.28 323.69,484.03 322.81,484.91 320.19,484.91 320.19,486.66 323.69,486.66 " stroke="red" stroke-width="0.71875" stroke-linecap="round" stroke-linejoin="round" />
<polyline points="328.06,486.66 326.31,484.03 329.81,484.03 329.81,486.66 329.81,481.41 " stroke="red" stroke-width="0.71875" stroke-linecap="round" stroke-linejoin="round" />
<polyline points="335.94,485.78 335.06,486.66 333.31,486.66 332.44,485.78 332.44,482.28 333.31,481.41 335.06,481.41 335.94,482.28 335.94,483.16 335.06,484.03 332.44,484.03 " stroke="red" stroke-width="0.71875" stroke-linecap="round" stroke-linejoin="round" />
<polygon points="339.44,486.66 338.56,485.78 338.56,482.28 339.44,481.41 341.19,481.41 342.06,482.28 342.06,485.78 341.19,486.66 " stroke="red" stroke-width="0.71875" stroke-linejoin="round" />
<polyline points="594,455.56 593.38,456.47 590.34,462.19 589.88,463.19 587.56,468 585.78,472.16 584.91,473.84 581.94,479.75 581.66,480.25 578.09,485.69 577.53,486.5 573.44,491.59 573.34,491.69 569.31,495.66 566.72,497.75 565.19,498.91 561.09,501.34 556.97,503.09 554.56,503.88 552.88,504.38 548.75,505.5 544.62,506.31 540.53,506.91 536.41,507.31 532.28,507.62 528.19,507.72 524.06,507.62 519.94,507.31 515.84,506.53 511.72,505.69 507.59,504.78 503.5,503.91 503.31,503.88 499.38,503.25 495.25,502.59 491.16,501.91 487.03,501.16 482.91,500.31 478.81,499.38 474.69,498.38 472.38,497.75 470.56,497.25 466.47,495.97 462.34,494.66 458.25,493.31 454.12,492 453.12,491.69 450,490.72 445.91,489.44 441.78,488.16 437.66,486.84 434.16,485.69 433.56,485.47 429.44,484.06 425.31,482.72 421.22,481.41 417.09,480.22 415.25,479.75 412.97,479.09 408.88,477.94 404.75,476.81 400.62,475.84 396.53,474.94 392.41,474.12 390.97,473.84 388.31,473.28 384.19,472.31 380.06,471.34 375.97,470.41 371.84,469.56 367.72,468.97 363.62,468.41 360.56,468 359.5,467.84 355.38,467.16 351.28,466.22 347.16,465.22 343.03,464.19 338.94,463.22 335.94,462.66 " stroke="red" stroke-width="0.96875" stroke-linecap="round" stroke-linejoin="round" />
<polyline points="309,457.84 306.03,457.28 302,456.47 301.91,456.44 297.78,455.44 293.69,454.41 289.56,453.34 285.44,452.25 281.34,451.19 279.62,450.75 277.22,450.16 273.09,449.16 269,448.31 264.88,447.47 260.75,446.59 256.66,445.69 254.38,445.12 252.53,444.66 248.41,443.62 244.31,442.69 240.19,441.84 236.06,441.09 231.97,440.41 227.84,439.72 226.5,439.5 223.72,439.06 219.62,438.5 215.5,437.91 211.41,437.19 207.28,436.34 203.16,435.16 199.12,433.97 199.06,433.94 194.94,432.66 190.81,431.53 186.72,430.31 182.59,429.22 178.75,428.44 178.47,428.38 174.38,427.88 170.69,428.44 170.25,428.5 166.12,429.41 162.03,430.44 157.91,431.41 153.78,431.5 149.69,431.44 145.56,431.38 141.44,431.38 137.34,431.81 133.22,432.38 129.12,433.09 125,433.91 124.75,433.97 120.88,434.78 116.78,435.72 112.66,436.69 108.53,437.66 104.44,438.75 101.47,439.5 100.31,439.81 96.188,440.84 92.094,441.75 87.969,442.22 83.844,442.59 79.75,442.94 75.625,443.34 71.5,444.12 67.406,445.09 67.312,445.12 63.281,446.19 59.188,447.41 55.062,448.44 50.938,449.41 46.844,450.38 45.094,450.75 42.719,451.28 38.594,452.34 34.5,453.5 30.375,454.72 26.25,456.06 25.062,456.47 22.156,457.41 18.031,458.84 " stroke="red" stroke-width="0.96875" stroke-linecap="round" stroke-linejoin="round" />
<polyline points="311.97,458.44 312.84,457.56 314.59,457.56 315.47,458.44 315.47,460.19 314.59,461.06 311.97,461.06 311.97,462.81 315.47,462.81 " stroke="red" stroke-width="0.71875" stroke-linecap="round" stroke-linejoin="round" />
<polyline points="318.09,458.44 318.97,457.56 320.72,457.56 321.59,458.44 321.59,460.19 320.72,461.06 318.09,461.06 318.09,462.81 321.59,462.81 " stroke="red" stroke-width="0.71875" stroke-linecap="round" stroke-linejoin="round" />
<polyline points="324.22,461.94 325.09,462.81 326.84,462.81 327.72,461.94 327.72,461.06 324.22,457.56 327.72,457.56 " stroke="red" stroke-width="0.71875" stroke-linecap="round" stroke-linejoin="round" />
<polygon points="331.22,462.81 330.34,461.94 330.34,458.44 331.22,457.56 332.97,457.56 333.84,458.44 333.84,461.94 332.97,462.81 " stroke="red" stroke-width="0.71875" stroke-linejoin="round" />
<polyline points="594,430.94 591.16,433.97 589.88,435.31 585.88,439.5 585.78,439.62 581.66,443.91 580.47,445.12 577.53,448.34 575.22,450.75 573.44,452.78 569.84,456.47 569.31,457.06 565.19,460.75 563.34,462.19 561.09,463.94 556.97,466.66 554.66,468 552.88,469 548.75,471.19 544.62,473 542.34,473.84 540.53,474.47 536.41,475.59 532.28,476.34 528.19,476.84 524.06,477.16 519.94,477.34 515.84,477.47 511.72,477.5 507.59,477.44 503.5,477.28 499.38,477.09 495.25,476.81 491.16,476.44 487.03,475.91 482.91,475.22 478.81,474.44 476.12,473.84 474.69,473.5 470.56,472.47 466.47,471.34 462.34,470.16 458.25,468.91 455.31,468 454.12,467.59 450,466.16 445.91,464.72 441.78,463.28 438.59,462.19 437.66,461.88 433.56,460.62 429.44,459.44 425.31,458.25 421.22,457.03 419.75,456.47 417.09,455.34 412.97,453.62 408.88,451.97 405.62,450.75 404.75,450.44 400.62,449.25 396.53,448.09 392.41,446.88 388.31,445.59 386.84,445.12 384.19,444.16 380.06,442.69 375.97,441.28 371.84,439.94 370.44,439.5 367.72,438.69 363.62,437.47 359.5,436.31 355.38,435.22 351.28,434.25 349.94,433.97 347.16,433.34 343.03,432.41 339.91,431.62 " stroke="red" stroke-width="0.96875" stroke-linecap="round" stroke-linejoin="round" />
<polyline points="313.12,422.5 310.12,421.75 306.03,420.81 301.91,419.88 297.78,419.06 293.69,418.31 289.56,417.62 289.12,417.53 285.44,416.88 281.34,416.12 277.22,415.38 273.09,414.66 269,413.97 264.88,413.34 260.75,412.88 256.66,412.5 252.53,412.28 248.41,412.19 244.31,412.22 240.19,412.38 236.06,413.09 231.97,413.75 227.84,414.19 223.72,414.31 219.62,413.16 216.69,412.16 215.5,411.69 211.41,410.34 207.28,409.41 203.16,409.91 199.06,410.66 194.94,411.47 190.81,412.12 186.72,411.75 182.59,411.31 178.47,410.97 174.38,410.78 170.25,411.28 166.12,412 165.38,412.16 162.03,412.78 157.91,413.56 153.78,413.94 149.69,414.25 145.56,414.5 141.44,414.75 137.34,415.16 133.22,415.62 129.12,416.16 125,416.72 120.88,417.31 119.5,417.53 116.78,417.97 112.66,418.69 108.53,419.5 104.44,420.5 100.31,421.56 96.188,422.69 95.188,422.97 92.094,423.78 87.969,424.78 83.844,425.72 79.75,426.59 75.625,427.44 71.5,428.12 69.719,428.44 67.406,428.81 63.281,429.59 59.188,430.5 55.062,431.84 50.938,433.34 49.375,433.97 46.844,434.81 42.719,436.19 38.594,437.41 34.5,438.62 31.625,439.5 30.375,439.88 26.25,441.12 22.156,442.41 18.031,443.84 " stroke="red" stroke-width="0.96875" stroke-linecap="round" stroke-linejoin="round" />
<polyline points="316.09,425.16 316.97,424.28 318.72,424.28 319.59,425.16 319.59,426.91 318.72,427.78 316.09,427.78 316.09,429.53 319.59,429.53 " stroke="red" stroke-width="0.71875" stroke-linecap="round" stroke-linejoin="round" />
<polyline points="322.22,425.16 323.09,424.28 324.84,424.28 325.72,425.16 325.72,426.91 324.84,427.78 322.22,427.78 322.22,429.53 325.72,429.53 " stroke="red" stroke-width="0.71875" stroke-linecap="round" stroke-linejoin="round" />
<polygon points="329.22,429.53 328.34,428.66 328.34,427.78 329.22,426.91 330.97,426.91 331.84,427.78 331.84,428.66 330.97,429.53 " stroke="red" stroke-width="0.71875" stroke-linejoin="round" />
<polyline points="329.22,426.91 328.34,426.03 328.34,425.16 329.22,424.28 330.97,424.28 331.84,425.16 331.84,426.03 330.97,426.91 " stroke="red" stroke-width="0.71875" stroke-linecap="round" stroke-linejoin="round" />
<polygon points="335.34,429.53 334.47,428.66 334.47,425.16 335.34,424.28 337.09,424.28 337.97,425.16 337.97,428.66 337.09,429.53 " stroke="red" stroke-width="0.71875" stroke-linejoin="round" />
<polyline points="594,405.22 591.59,406.78 589.88,407.94 585.78,410.81 583.94,412.16 581.66,413.94 577.53,417.12 577,417.53 573.44,420.22 569.56,422.97 569.31,423.12 565.19,425.72 561.09,428.16 560.59,428.44 556.97,430.38 552.88,432.44 549.69,433.97 548.75,434.41 544.62,436.16 540.53,437.78 536.41,439.22 535.38,439.5 532.28,440.41 528.19,441.38 524.06,442.09 519.94,442.62 515.84,442.94 511.72,443.06 507.59,443.06 503.5,442.91 499.38,442.59 495.25,442.19 491.16,441.69 487.03,441.16 482.91,440.78 478.81,440.41 474.69,439.97 471.34,439.5 470.56,439.41 466.47,438.5 462.34,437.5 458.25,436.47 454.12,435.41 450,434.5 447.5,433.97 445.91,433.59 441.78,432.59 437.66,431.56 433.56,430.38 429.44,429.16 427.16,428.44 425.31,427.84 421.22,426.47 417.09,425 412.97,423.47 411.69,422.97 408.88,421.81 404.75,420.03 400.62,418.25 399,417.53 396.53,416.5 392.41,414.81 388.31,413.25 385.34,412.16 384.19,411.72 380.06,410.19 375.97,408.75 371.84,407.41 369.78,406.78 367.72,406.22 363.62,405.06 359.5,403.91 355.38,402.75 351.28,401.53 351.16,401.47 347.16,400.31 343.03,399.12 338.94,397.97 334.81,396.81 332.56,396.22 331.84,396 " stroke="red" stroke-width="0.96875" stroke-linecap="round" stroke-linejoin="round" />
<polyline points="304.88,388.53 301.91,387.53 297.78,386.16 296.56,385.78 293.69,384.88 289.56,383.72 285.44,382.91 281.34,382.16 277.22,381.5 273.09,380.88 271.41,380.59 269,380.19 264.88,379.56 260.75,378.97 256.66,378.47 252.53,378.09 248.41,377.78 244.31,377.62 240.19,377.56 236.06,377.75 231.97,378.03 227.84,378.44 223.72,378.88 219.62,379.34 215.5,379.91 211.41,380.56 211.25,380.59 207.28,381.31 203.16,382.12 199.06,383.06 194.94,384.09 190.81,385.25 189.38,385.78 186.72,386.69 182.59,388.06 178.47,389.31 174.38,390.34 170.25,390.66 166.12,390.81 157.91,390.81 153.88,390.97 153.78,390.97 149.69,391.16 145.56,391.41 141.44,391.69 137.34,392.03 133.22,392.44 129.12,392.91 125,393.38 120.88,393.84 116.78,394.34 112.66,394.94 108.53,395.59 105.97,396.22 104.44,396.56 100.31,397.62 96.188,398.75 92.094,399.94 87.969,401.06 86.531,401.47 83.844,402.25 79.75,403.56 75.625,404.94 71.5,406.28 69.906,406.78 67.406,407.53 63.281,408.75 59.188,410 55.062,411.56 53.594,412.16 50.938,413.06 46.844,414.62 42.719,416.31 39.75,417.53 38.594,417.97 34.5,419.56 30.375,421.16 26.25,422.72 25.531,422.97 22.156,424.09 18.031,425.47 " stroke="red" stroke-width="0.96875" stroke-linecap="round" stroke-linejoin="round" />
<polyline points="307.84,390.69 308.72,389.81 310.47,389.81 311.34,390.69 311.34,392.44 310.47,393.31 307.84,393.31 307.84,395.06 311.34,395.06 " stroke="red" stroke-width="0.71875" stroke-linecap="round" stroke-linejoin="round" />
<polyline points="317.47,394.19 316.59,395.06 314.84,395.06 313.97,394.19 313.97,390.69 314.84,389.81 316.59,389.81 317.47,390.69 317.47,391.56 316.59,392.44 313.97,392.44 " stroke="red" stroke-width="0.71875" stroke-linecap="round" stroke-linejoin="round" />
<polyline points="321.84,395.06 320.09,392.44 323.59,392.44 323.59,395.06 323.59,389.81 " stroke="red" stroke-width="0.71875" stroke-linecap="round" stroke-linejoin="round" />
<polygon points="327.09,395.06 326.22,394.19 326.22,390.69 327.09,389.81 328.84,389.81 329.72,390.69 329.72,394.19 328.84,395.06 " stroke="red" stroke-width="0.71875" stroke-linejoin="round" />
<polyline points="594,367.25 589.88,369.12 587.31,370.38 585.78,371.12 581.66,373.19 577.53,375.22 577,375.47 573.44,377.06 569.31,378.81 565.19,380.44 564.75,380.59 561.09,381.88 556.97,383.22 552.88,384.53 549.44,385.78 548.75,386 544.62,387.44 540.53,388.81 536.41,390.09 532.38,390.97 532.28,390.97 528.19,391.59 524.06,392 519.94,392.19 515.84,392.19 511.72,392 507.59,391.66 503.5,391.22 500.88,390.97 499.38,390.84 495.25,390.41 491.16,389.88 487.03,389.25 482.91,388.44 478.81,387.47 474.69,386.41 472.28,385.78 470.56,385.28 466.47,384.31 462.34,383.41 458.25,382.47 454.12,381.59 450.97,380.59 450,380.28 445.91,379.12 441.78,378.31 437.66,377.91 433.56,378.69 429.44,379.72 426.06,380.59 425.31,380.78 421.22,381.62 417.09,381.78 412.97,381.69 408.88,381.41 404.75,380.91 403.16,380.59 400.62,380.09 396.53,379.09 392.41,378.09 388.31,377.06 384.19,376.25 380.06,375.5 379.78,375.47 375.97,374.78 371.84,374.09 367.72,373.47 363.62,372.91 359.5,372.34 355.38,371.81 351.28,371.31 347.16,370.78 344.12,370.38 343.03,370.22 338.94,369.59 334.81,368.91 330.69,368.16 326.59,367.44 323.59,366.91 " stroke="red" stroke-width="0.96875" stroke-linecap="round" stroke-linejoin="round" />
<polyline points="296.66,362 293.69,361.34 289.56,360.47 288.38,360.25 285.44,359.72 281.34,359 277.22,358.28 273.09,357.59 269,356.75 264.88,355.94 261.12,355.25 260.75,355.19 256.66,354.47 252.53,354.09 248.41,353.84 244.31,353.66 240.19,353.53 236.06,353.5 231.97,353.47 227.84,353.34 223.72,353.09 219.62,352.19 215.5,351.12 212.38,350.28 211.41,350.03 207.28,349.22 203.16,349.19 199.06,349.44 194.94,349.94 192.88,350.28 190.81,350.72 186.72,351.56 182.59,352.5 178.47,353.5 174.38,354.53 170.62,355.25 170.25,355.31 166.12,356.12 162.03,357 157.91,357.94 153.78,359.34 151.44,360.25 149.69,360.88 145.56,362.41 141.44,363.88 137.34,364.91 135.72,365.28 133.22,365.78 129.12,366.53 125,367.28 120.88,368.22 116.78,369.19 112.66,370.16 111.78,370.38 108.53,371.03 104.44,371.72 100.31,372.47 96.188,373.28 92.094,374.22 87.969,375.31 87.438,375.47 83.844,376.41 79.75,377.5 75.625,378.62 71.5,379.88 69.188,380.59 67.406,381.16 63.281,382.5 59.188,383.88 55.062,385.28 53.719,385.78 50.938,386.78 46.844,388.34 42.719,390 40.438,390.97 38.594,391.91 34.5,394.09 30.562,396.22 30.375,396.31 26.25,398.47 22.156,400.44 19.938,401.47 18.031,402.34 " stroke="red" stroke-width="0.96875" stroke-linecap="round" stroke-linejoin="round" />
<polyline points="299.62,363.06 300.5,362.19 302.25,362.19 303.12,363.06 303.12,364.81 302.25,365.69 299.62,365.69 299.62,367.44 303.12,367.44 " stroke="red" stroke-width="0.71875" stroke-linecap="round" stroke-linejoin="round" />
<polyline points="305.75,367.44 309.25,367.44 307.5,362.19 " stroke="red" stroke-width="0.71875" stroke-linecap="round" stroke-linejoin="round" />
<polygon points="312.75,367.44 311.88,366.56 311.88,363.06 312.75,362.19 314.5,362.19 315.38,363.06 315.38,366.56 314.5,367.44 " stroke="red" stroke-width="0.71875" stroke-linejoin="round" />
<polygon points="318.88,367.44 318,366.56 318,363.06 318.88,362.19 320.62,362.19 321.5,363.06 321.5,366.56 320.62,367.44 " stroke="red" stroke-width="0.71875" stroke-linejoin="round" />
<polyline points="594,306.97 589.88,307.16 585.78,307.19 581.66,307.62 577.53,307.94 573.44,308.12 569.31,308.09 565.19,307.53 561.38,306.72 561.09,306.66 556.97,305.31 552.88,303.53 548.91,302 548.75,301.94 544.62,300.28 540.53,298.56 537.81,297.31 536.41,296.66 532.28,293.75 530.78,292.62 528.19,290.91 524.06,288.59 522.75,287.97 519.94,286.81 515.84,285.09 511.94,283.34 511.72,283.25 507.59,281.31 503.5,279.41 499.38,279.19 495.25,279.19 491.16,279.16 487.03,278.84 486.84,278.75 482.91,276.75 478.81,274.53 478.06,274.16 474.69,272.38 470.56,270.78 466.47,270.78 462.34,271.19 458.25,271.84 454.12,272.69 450,273.28 445.91,274.06 445.5,274.16 441.78,275.03 437.66,276.28 433.56,278.03 432.03,278.75 429.44,279.97 425.31,282.03 422.81,283.34 421.22,284.22 417.09,286.5 414.69,287.97 412.97,289.09 408.88,292.03 408.06,292.62 404.75,295.28 402.22,297.31 400.62,298.66 396.84,302 396.53,302.28 392.41,306.03 391.62,306.72 388.31,309.56 385.19,311.44 384.19,312.03 380.06,314.12 375.97,316.09 375.69,316.22 371.84,317.88 367.72,319.59 363.81,321 363.62,321.06 359.5,322.28 355.38,323.44 351.28,324.94 348.88,325.81 347.16,326.41 343.03,327.78 338.94,329.03 334.81,329.91 331.84,330.41 " stroke="red" stroke-width="0.96875" stroke-linecap="round" stroke-linejoin="round" />
<polyline points="304.88,331.28 301.91,331.12 297.78,330.84 295.41,330.66 293.69,330.5 289.56,330.16 285.44,329.78 281.34,329.41 277.22,329.06 273.09,328.72 269,328.5 264.88,328.34 260.75,328.16 256.66,327.97 252.53,327.66 248.41,327.31 244.31,326.97 240.19,326.69 236.06,326.66 231.97,326.66 227.84,326.62 223.72,326.5 219.62,326.12 216.72,325.81 215.5,325.66 211.41,325.06 207.28,324.44 203.16,323.72 199.06,323.03 194.94,322.44 190.81,321.94 186.72,321.78 182.59,321.69 178.47,321.66 174.38,321.62 170.25,321.44 166.12,321.22 162.47,321 162.03,320.97 157.91,320.69 153.78,320.34 149.69,320.03 145.56,319.72 141.44,319.34 137.34,318.88 133.22,318.41 129.12,317.91 125,317.41 120.88,316.88 116.78,316.38 115.12,316.22 112.66,315.97 108.53,315.88 107,316.22 104.44,317.03 100.31,320.06 99.531,321 96.938,325.81 96.188,327.44 94.938,330.66 92.094,334.56 91.375,335.5 87.969,338.88 86.344,340.41 83.844,342.25 79.75,345.16 79.469,345.31 75.625,347.53 71.5,349.69 70.438,350.28 67.406,351.72 63.281,353.88 60.938,355.25 59.188,356.16 55.062,358.69 52.562,360.25 50.938,361.12 46.844,363.31 43.094,365.28 42.719,365.47 38.594,367.34 34.5,369.28 32.312,370.38 30.375,371.12 26.25,372.75 22.156,374.31 19.219,375.47 18.031,375.91 " stroke="red" stroke-width="0.96875" stroke-linecap="round" stroke-linejoin="round" />
<polyline points="307.84,329.72 308.72,328.84 310.47,328.84 311.34,329.72 311.34,331.47 310.47,332.34 307.84,332.34 307.84,334.09 311.34,334.09 " stroke="red" stroke-width="0.71875" stroke-linecap="round" stroke-linejoin="round" />
<polyline points="313.97,334.09 317.47,334.09 315.72,328.84 " stroke="red" stroke-width="0.71875" stroke-linecap="round" stroke-linejoin="round" />
<polyline points="323.59,333.22 322.72,334.09 320.97,334.09 320.09,333.22 320.09,329.72 320.97,328.84 322.72,328.84 323.59,329.72 323.59,330.59 322.72,331.47 320.09,331.47 " stroke="red" stroke-width="0.71875" stroke-linecap="round" stroke-linejoin="round" />
<polygon points="327.09,334.09 326.22,333.22 326.22,329.72 327.09,328.84 328.84,328.84 329.72,329.72 329.72,333.22 328.84,334.09 " stroke="red" stroke-width="0.71875" stroke-linejoin="round" />
<polyline points="327.06,247 327.03,247.03 326.59,247.34 322.47,250.41 321,251.5 318.34,253.53 315.06,256 314.25,256.66 310.12,259.81 309.19,260.5 306.03,262.78 302.47,265.03 301.91,265.38 297.78,267.53 293.69,269.41 293.16,269.59 289.56,270.84 285.44,271.91 281.34,272.72 277.22,273.38 273.09,273.91 271.81,274.16 269,274.75 264.88,275.59 260.75,276.38 256.66,277.16 252.53,277.66 248.41,278.12 244.31,278.56 242.19,278.75 240.19,278.91 236.06,279.28 231.97,279.5 227.84,279.56 223.72,279.53 219.62,279.28 215.5,278.91 214.16,278.75 211.41,278.34 207.28,277.66 203.16,277.34 199.06,277.03 194.94,276.69 190.81,276.25 187.84,275.56 " stroke="red" stroke-width="0.96875" stroke-linecap="round" stroke-linejoin="round" />
<polyline points="160.88,269.56 157.91,268.66 153.78,266.53 150.84,265.03 149.69,264.38 145.56,262.34 141.44,260.78 140.06,260.5 137.34,260 133.22,259.47 129.12,259.12 125,258.91 120.88,258.38 116.78,258 112.66,257.81 108.53,257.84 104.44,258.25 100.31,259.06 96.188,260.44 96,260.5 92.094,262.28 87.969,264.81 87.656,265.03 83.844,267.28 80.062,269.59 79.75,269.75 75.625,271.84 71.5,273.81 70.781,274.16 67.406,275.25 63.281,276.62 59.188,278 56.844,278.75 55.062,279.31 50.938,280.72 46.844,282.28 44.375,283.34 42.719,284.12 38.594,286.5 36.281,287.97 34.5,289.19 30.375,292.12 29.688,292.62 26.25,295.56 23.781,297.31 22.156,298.44 18.031,301.06 " stroke="red" stroke-width="0.96875" stroke-linecap="round" stroke-linejoin="round" />
<polyline points="163.88,270.09 164.75,269.22 166.5,269.22 167.38,270.09 167.38,271.84 166.5,272.72 163.88,272.72 163.88,274.47 167.38,274.47 " stroke="red" stroke-width="0.71875" stroke-linecap="round" stroke-linejoin="round" />
<polygon points="170.88,274.47 170,273.59 170,272.72 170.88,271.84 172.62,271.84 173.5,272.72 173.5,273.59 172.62,274.47 " stroke="red" stroke-width="0.71875" stroke-linejoin="round" />
<polyline points="170.88,271.84 170,270.97 170,270.09 170.88,269.22 172.62,269.22 173.5,270.09 173.5,270.97 172.62,271.84 " stroke="red" stroke-width="0.71875" stroke-linecap="round" stroke-linejoin="round" />
<polyline points="176.12,273.59 177,274.47 178.75,274.47 179.62,273.59 179.62,272.72 176.12,269.22 179.62,269.22 " stroke="red" stroke-width="0.71875" stroke-linecap="round" stroke-linejoin="round" />
<polygon points="183.12,274.47 182.25,273.59 182.25,270.09 183.12,269.22 184.88,269.22 185.75,270.09 185.75,273.59 184.88,274.47 " stroke="red" stroke-width="0.71875" stroke-linejoin="round" />
</g>
</svg>
