<?xml version="1.0" encoding="ISO-8859-1" standalone="no"?>
<!DOCTYPE svg PUBLIC "-//W3C//DTD SVG 1.1//EN" "http://www.w3.org/Graphics/SVG/1.1/DTD/svg11.dtd">
<svg version="1.1" baseProfile="full" id="body" width="900px" height="600px" viewBox="0 0.2 1 0.55" preserveAspectRatio="none" xmlns="http://www.w3.org/2000/svg" xmlns:xlink="http://www.w3.org/1999/xlink" xmlns:ev="http://www.w3.org/2001/xml-events">
<title>SVG drawing</title>
<desc>This was produced by version 4.2 of GNU libplot, a free library for exporting 2-D vector graphics.</desc>
<rect id="background" x="0" y="0" width="1" height="1" stroke="none" fill="none"/>
<g id="content" transform="translate(-0.03125,1.1875) scale(1,-1) scale(0.0017361) " xml:space="preserve" stroke="black" stroke-linecap="butt" stroke-linejoin="miter" stroke-miterlimit="10.433" stroke-dasharray="none" stroke-dashoffset="0" stroke-opacity="1" fill="none" fill-rule="even-odd" fill-opacity="1" font-style="normal" font-variant="normal" font-weight="normal" font-stretch="normal" font-size-adjust="none" letter-spacing="normal" word-spacing="normal" text-anchor="start">
<polyline points="279.28,568.66 279.31,568.62 281.34,566.97 285.44,563.94 288.72,561.84 289.56,561.34 293.69,559.44 297.78,557.81 301.91,556.44 306.03,555.25 306.59,555.12 310.12,554.31 314.25,553.56 318.34,553 322.47,552.59 325.47,552.5 " stroke="red" stroke-width="0.96875" stroke-linecap="round" stroke-linejoin="round" />
<polyline points="352.41,554.84 353.75,555.12 355.38,555.53 359.5,557 363.62,558.69 367.72,560.56 370.34,561.84 371.84,562.66 375.97,564.94 380.06,567.12 383.09,568.62 383.16,568.66 " stroke="red" stroke-width="0.96875" stroke-linecap="round" stroke-linejoin="round" />
<polyline points="328.44,551.28 329.31,550.41 331.06,550.41 331.94,551.28 331.94,553.03 331.06,553.91 328.44,553.91 328.44,555.66 331.94,555.66 " stroke="red" stroke-width="0.71875" stroke-linecap="round" stroke-linejoin="round" />
<polyline points="334.56,554.78 335.44,555.66 337.19,555.66 338.06,554.78 338.06,553.91 334.56,550.41 338.06,550.41 " stroke="red" stroke-width="0.71875" stroke-linecap="round" stroke-linejoin="round" />
<polyline points="340.69,554.78 341.56,555.66 343.31,555.66 344.19,554.78 344.19,553.91 340.69,550.41 344.19,550.41 " stroke="red" stroke-width="0.71875" stroke-linecap="round" stroke-linejoin="round" />
<polygon points="347.69,555.66 346.81,554.78 346.81,551.28 347.69,550.41 349.44,550.41 350.31,551.28 350.31,554.78 349.44,555.66 " stroke="red" stroke-width="0.71875" stroke-linejoin="round" />
<polyline points="22.031,559.53 18.062,555.12 18.031,555.09 " stroke="red" stroke-width="0.96875" stroke-linecap="round" stroke-linejoin="round" />
<polyline points="18.031,561.62 18.375,561.62 19.25,562.5 19.25,564.25 18.375,565.12 18.031,565.12 " stroke="red" stroke-width="0.71875" stroke-linecap="round" stroke-linejoin="round" />
<line x1="18.031" y1="566.88" x2="19.25" y2="566.88" stroke="red" stroke-width="0.71875" stroke-linecap="round" />
<polyline points="21.875,566 22.75,566.88 24.5,566.88 25.375,566 25.375,565.12 21.875,561.62 25.375,561.62 " stroke="red" stroke-width="0.71875" stroke-linecap="round" stroke-linejoin="round" />
<polygon points="28.875,566.88 28,566 28,565.12 28.875,564.25 30.625,564.25 31.5,565.12 31.5,566 30.625,566.88 " stroke="red" stroke-width="0.71875" stroke-linejoin="round" />
<polyline points="28.875,564.25 28,563.38 28,562.5 28.875,561.62 30.625,561.62 31.5,562.5 31.5,563.38 30.625,564.25 " stroke="red" stroke-width="0.71875" stroke-linecap="round" stroke-linejoin="round" />
<polygon points="35,566.88 34.125,566 34.125,562.5 35,561.62 36.75,561.62 37.625,562.5 37.625,566 36.75,566.88 " stroke="red" stroke-width="0.71875" stroke-linejoin="round" />
<polyline points="240.22,568.66 240.25,568.62 244.31,565.38 248.41,562.31 249.06,561.84 252.53,559.47 256.66,556.66 258.53,555.12 260.75,553.38 264.88,550.28 267.5,548.47 269,547.56 273.09,545.25 277.22,543.34 280.88,541.91 281.34,541.72 285.44,540.44 289.56,539.34 293.69,538.5 297.78,537.84 301.91,537.31 306.03,536.91 310.12,536.56 314.25,536.34 318.34,536.25 321.34,536.28 " stroke="red" stroke-width="0.96875" stroke-linecap="round" stroke-linejoin="round" />
<polyline points="348.28,539.41 351.28,539.91 355.38,540.72 359.5,541.66 360.47,541.91 363.62,542.72 367.72,543.94 371.84,545.31 375.97,546.81 380.06,548.47 384.19,550.31 388.31,552.25 392.41,554.16 394.47,555.12 396.53,556.12 400.62,558.09 404.75,560.09 408.09,561.84 408.88,562.22 412.97,564.38 417.09,566.53 420.97,568.62 421.03,568.66 " stroke="red" stroke-width="0.96875" stroke-linecap="round" stroke-linejoin="round" />
<polyline points="324.31,535.69 325.19,534.81 326.94,534.81 327.81,535.69 327.81,537.44 326.94,538.31 324.31,538.31 324.31,540.06 327.81,540.06 " stroke="red" stroke-width="0.71875" stroke-linecap="round" stroke-linejoin="round" />
<polyline points="330.44,539.19 331.31,540.06 333.06,540.06 333.94,539.19 333.94,538.31 330.44,534.81 333.94,534.81 " stroke="red" stroke-width="0.71875" stroke-linecap="round" stroke-linejoin="round" />
<polygon points="337.44,540.06 336.56,539.19 336.56,538.31 337.44,537.44 339.19,537.44 340.06,538.31 340.06,539.19 339.19,540.06 " stroke="red" stroke-width="0.71875" stroke-linejoin="round" />
<polyline points="337.44,537.44 336.56,536.56 336.56,535.69 337.44,534.81 339.19,534.81 340.06,535.69 340.06,536.56 339.19,537.44 " stroke="red" stroke-width="0.71875" stroke-linecap="round" stroke-linejoin="round" />
<polygon points="343.56,540.06 342.69,539.19 342.69,535.69 343.56,534.81 345.31,534.81 346.19,535.69 346.19,539.19 345.31,540.06 " stroke="red" stroke-width="0.71875" stroke-linejoin="round" />
<polyline points="455.59,568.66 455.53,568.62 454.12,567.84 450,565.09 445.91,562.5 444.81,561.84 441.78,560.06 437.66,557.88 433.56,556.09 431.12,555.12 429.44,554.44 425.31,552.78 421.22,551.09 417.09,549.09 415.81,548.47 412.97,547.06 408.88,545.03 404.75,543.06 402.12,541.91 400.62,541.22 396.53,539.44 392.41,537.75 388.31,536.12 386.28,535.38 384.19,534.62 380.06,533.28 375.97,532.06 371.84,530.94 367.72,529.91 363.75,528.97 363.62,528.91 359.5,527.88 355.38,526.88 351.28,525.97 347.16,525.12 343.03,524.38 338.94,523.69 334.81,523 332.22,522.59 330.69,522.34 326.59,521.78 322.47,521.31 318.34,521.03 314.25,520.84 310.12,520.75 306.03,520.69 301.91,520.62 297.78,520.59 293.69,520.66 289.56,520.81 285.44,521.19 281.34,521.66 277.22,522.19 274.69,522.59 273.09,522.84 269,523.56 266,524.12 " stroke="red" stroke-width="0.96875" stroke-linecap="round" stroke-linejoin="round" />
<polyline points="239.06,530.34 236.06,531.19 231.97,532.31 227.84,533.41 223.72,534.41 219.62,535.09 217.56,535.38 215.5,535.72 211.41,536.22 207.28,536.69 203.16,537.25 199.06,537.81 194.94,538.38 190.81,538.91 186.72,539.34 182.59,539.81 178.47,540.34 174.38,540.91 170.25,541.53 167.97,541.91 166.12,542.19 162.03,542.94 157.91,543.75 153.78,544.88 149.69,545.97 145.56,546.88 141.44,547.56 137.34,547.66 133.22,547.56 129.12,547.41 125,547.25 120.88,547.75 116.78,548.16 112.66,548.44 108.53,548.44 104.44,547.72 100.31,546.59 96.188,545.09 92.094,543.22 88.969,541.91 87.969,541.47 83.844,539.72 79.75,537.97 75.625,536.28 72.719,535.38 71.5,535.09 67.406,534.06 63.281,533 59.188,531.84 55.062,530 52.969,528.97 50.938,527.97 46.844,525.88 42.719,523.78 40.031,522.59 38.594,522 34.5,520.31 30.375,518.66 26.25,517.03 24.344,516.28 22.156,515.56 18.031,514.28 " stroke="red" stroke-width="0.96875" stroke-linecap="round" stroke-linejoin="round" />
<polyline points="242.03,525.28 242.91,524.41 244.66,524.41 245.53,525.28 245.53,527.03 244.66,527.91 242.03,527.91 242.03,529.66 245.53,529.66 " stroke="red" stroke-width="0.71875" stroke-linecap="round" stroke-linejoin="round" />
<polyline points="248.16,528.78 249.03,529.66 250.78,529.66 251.66,528.78 251.66,527.91 250.78,527.03 249.91,527.03 250.78,527.03 251.66,526.16 251.66,525.28 250.78,524.41 249.03,524.41 248.16,525.28 " stroke="red" stroke-width="0.71875" stroke-linecap="round" stroke-linejoin="round" />
<polyline points="256.03,529.66 254.28,527.03 257.78,527.03 257.78,529.66 257.78,524.41 " stroke="red" stroke-width="0.71875" stroke-linecap="round" stroke-linejoin="round" />
<polygon points="261.28,529.66 260.41,528.78 260.41,525.28 261.28,524.41 263.03,524.41 263.91,525.28 263.91,528.78 263.03,529.66 " stroke="red" stroke-width="0.71875" stroke-linejoin="round" />
<polyline points="593.09,568.66 593.09,568.62 593.59,561.84 593.97,555.12 593.84,548.47 593.75,541.91 593.75,540.12 " stroke="red" stroke-width="0.96875" stroke-linecap="round" stroke-linejoin="round" />
<path d="M594.47,530.66 L594.47,530.68 L594.47,530.7 L594.46,530.73 L594.46,530.75 L594.45,530.77 L594.45,530.8 L594.44,530.82 L594.43,530.84 L594.42,530.86 L594.41,530.88 L594.4,530.9 L594.39,530.92 L594.38,530.94 L594.36,530.95 L594.35,530.97 L594.33,530.99 L594.31,531 L594.3,531.02 L594.28,531.03 L594.26,531.04 L594.24,531.06 L594.22,531.07 L594.2,531.08 L594.18,531.09 L594.16,531.1 L594.14,531.1 L594.12,531.11 L594.09,531.12 L594.07,531.12 L594.05,531.12 L594.02,531.12 L594,531.12 C593.74,531.12,593.53,530.91,593.53,530.66 C593.53,530.4,593.74,530.19,594,530.19 C594.26,530.19,594.47,530.4,594.47,530.66 Z " stroke="red" stroke-width="0" stroke-linecap="round" stroke-linejoin="round" fill="red" fill-rule="nonzero" />
<polyline points="583.28,533.62 584.16,532.75 585.91,532.75 586.78,533.62 586.78,535.38 585.91,536.25 583.28,536.25 583.28,538 586.78,538 " stroke="red" stroke-width="0.71875" stroke-linecap="round" stroke-linejoin="round" />
<polyline points="589.41,537.12 590.28,538 592.03,538 592.91,537.12 592.91,536.25 592.03,535.38 591.16,535.38 592.03,535.38 592.91,534.5 592.91,533.62 592.03,532.75 590.28,532.75 589.41,533.62 " stroke="red" stroke-width="0.71875" stroke-linecap="round" stroke-linejoin="round" />
<polyline points="594,466.38 593.16,468 590.38,473.84 589.88,475.06 588.03,479.75 586.09,485.69 585.78,486.84 584.5,491.69 582.94,497.75 581.66,502.81 581.38,503.88 579.53,510.06 577.81,516.28 577.53,517.44 576.31,522.59 575,528.97 574.16,535.38 573.44,540.94 573.28,541.91 572.25,548.47 570.88,555.12 569.31,560.03 568.53,561.84 565.19,568.03 564.78,568.62 564.75,568.66 " stroke="red" stroke-width="0.96875" stroke-linecap="round" stroke-linejoin="round" />
<polyline points="500.97,568.66 500.91,568.62 499.38,567.81 495.25,565.41 491.16,562.84 489.53,561.84 487.03,560.28 482.91,557.78 478.81,555.34 478.41,555.12 474.69,553.16 470.56,551.06 466.47,549.09 465.16,548.47 462.34,547.09 458.25,545.09 454.12,543.06 451.16,541.91 450,541.47 445.91,540.06 441.78,538.81 437.66,537.69 433.56,536.38 430.5,535.38 429.44,535.03 425.31,533.59 421.22,532.06 417.09,530.47 413.09,528.97 412.97,528.91 408.88,527.38 404.75,525.84 400.62,524.28 396.53,522.72 396.19,522.59 392.41,521.16 388.31,519.62 384.19,518.41 380.06,517.31 376.06,516.28 375.97,516.25 371.84,515.22 368.84,514.38 " stroke="red" stroke-width="0.96875" stroke-linecap="round" stroke-linejoin="round" />
<polyline points="341.91,508.66 338.94,508.25 334.81,507.62 330.69,506.97 326.59,506.41 322.47,505.88 318.34,505.5 314.25,505.19 310.12,504.88 306.03,504.59 301.91,504.19 298.47,503.88 297.78,503.78 293.69,503.41 289.56,503.12 285.44,503.09 281.34,503.16 277.22,503.28 273.09,503.44 269,503.5 264.88,503.59 260.75,503.69 256.66,503.78 254.31,503.88 252.53,503.94 248.41,504.12 244.31,504.28 240.19,504.41 236.06,504.41 231.97,504.38 227.84,504.28 223.72,504.12 219.62,503.97 217.91,503.88 215.5,503.72 211.41,503.38 207.28,502.91 203.16,502.41 199.06,501.81 194.94,501.03 190.81,500.16 186.72,498.84 183.41,497.75 182.59,497.5 178.47,496.25 174.38,495.09 170.25,493.88 166.12,492.66 162.56,491.69 162.03,491.53 157.91,490.62 153.78,490.56 149.69,490.88 145.56,491.59 145.12,491.69 141.44,492.62 137.34,493.62 133.22,494.5 129.12,495.16 125,495.59 120.88,495.81 116.78,495.81 112.66,495.59 108.53,495.12 104.44,494.03 100.31,492.75 97.094,491.69 96.188,491.41 92.094,490.16 87.969,489.34 83.844,488.66 79.75,488.19 75.625,488 71.5,488.34 67.406,488.81 63.281,489.31 59.188,489.72 55.062,489.88 50.938,489.97 46.844,490.03 42.719,490.09 38.594,490.12 34.5,490.16 30.375,490.25 26.25,490.38 22.156,490.53 18.031,490.78 " stroke="red" stroke-width="0.96875" stroke-linecap="round" stroke-linejoin="round" />
<polyline points="344.88,509 345.75,508.12 347.5,508.12 348.38,509 348.38,510.75 347.5,511.62 344.88,511.62 344.88,513.38 348.38,513.38 " stroke="red" stroke-width="0.71875" stroke-linecap="round" stroke-linejoin="round" />
<polyline points="352.75,513.38 351,510.75 354.5,510.75 354.5,513.38 354.5,508.12 " stroke="red" stroke-width="0.71875" stroke-linecap="round" stroke-linejoin="round" />
<polygon points="358,513.38 357.12,512.5 357.12,509 358,508.12 359.75,508.12 360.62,509 360.62,512.5 359.75,513.38 " stroke="red" stroke-width="0.71875" stroke-linejoin="round" />
<polygon points="364.12,513.38 363.25,512.5 363.25,509 364.12,508.12 365.88,508.12 366.75,509 366.75,512.5 365.88,513.38 " stroke="red" stroke-width="0.71875" stroke-linejoin="round" />
<polyline points="594,444.09 593,445.12 589.88,448.59 587.97,450.75 585.78,453.56 583.72,456.47 581.66,460.25 580.62,462.19 578.03,468 577.53,469.22 575.72,473.84 573.59,479.75 573.44,480.25 571.31,485.69 569.31,490.84 568.91,491.69 566.12,497.75 565.19,499.91 563.28,503.88 561.09,509.5 560.84,510.06 558.41,516.28 556.97,520.03 555.81,522.59 552.88,528.81 552.75,528.97 548.75,533.69 546.72,535.38 544.62,537 540.53,539.25 536.41,540.75 532.5,541.91 532.28,541.94 528.19,542.62 524.06,542.94 519.94,542.88 515.84,542.59 511.72,542.06 510.97,541.91 507.59,541.22 503.5,540.16 499.38,538.81 495.25,537.38 491.16,535.91 489.81,535.38 487.03,534.38 482.91,532.88 478.81,531.31 474.69,529.69 472.94,528.97 470.56,527.94 466.47,525.81 462.34,523.75 459.84,522.59 458.25,521.88 454.12,520.19 450,518.97 445.91,517.81 441.78,516.66 440.41,516.28 437.66,515.5 433.56,514.44 429.44,513.47 425.31,512.53 421.22,511.66 417.09,510.69 414.38,510.06 412.97,509.72 408.88,508.62 404.75,507.5 400.62,506 396.53,504.47 394.94,503.88 392.41,502.84 388.31,501.28 384.19,500.12 380.06,499.06 375.97,498.09 374.47,497.75 371.84,497.09 367.72,495.94 363.62,494.88 359.5,493.91 356.53,493.28 " stroke="red" stroke-width="0.96875" stroke-linecap="round" stroke-linejoin="round" />
<polyline points="329.56,488.72 326.59,488.22 322.47,487.59 318.34,487.06 314.25,486.56 310.12,486.12 306.03,485.69 305.88,485.69 301.91,485.31 297.78,484.94 293.69,484.59 289.56,484.28 285.44,483.94 281.34,483.59 277.22,483.25 273.09,482.88 269,482.5 264.88,482.09 260.75,481.72 256.66,481.28 252.53,480.84 248.41,480.38 244.31,479.84 243.62,479.75 240.19,479.22 236.06,478.41 231.97,477.53 227.84,476.62 223.72,475.72 219.62,474.88 215.5,474.06 214.41,473.84 211.41,473.28 207.28,472.47 203.16,471.41 199.06,470.25 194.94,469 191.56,468 190.81,467.78 186.72,467.47 182.59,467.28 178.47,467.03 174.38,466.53 170.25,464.81 166.12,462.78 165.09,462.19 162.03,460.59 157.91,458.44 153.78,456.72 153.16,456.47 149.69,455.41 145.56,454.31 141.44,453.38 137.34,452.59 133.22,452.03 129.12,451.72 125,451.69 120.88,452.28 116.78,453.16 112.66,454.12 108.53,455.12 104.44,455.81 100.31,456.41 99.938,456.47 96.188,457.16 92.094,457.88 87.969,458.53 83.844,459.22 79.75,460 75.625,460.88 71.5,462.16 71.406,462.19 67.406,463.62 63.281,465.03 59.188,466.38 55.062,467.34 52.094,468 50.938,468.25 46.844,469.09 42.719,469.84 38.594,470.59 34.5,471.31 30.375,472.03 26.25,472.75 22.156,473.5 20.281,473.84 18.031,474.25 " stroke="red" stroke-width="0.96875" stroke-linecap="round" stroke-linejoin="round" />
<polyline points="332.53,489.25 333.41,488.38 335.16,488.38 336.03,489.25 336.03,491 335.16,491.88 332.53,491.88 332.53,493.62 336.03,493.62 " stroke="red" stroke-width="0.71875" stroke-linecap="round" stroke-linejoin="round" />
<polyline points="340.41,493.62 338.66,491 342.16,491 342.16,493.62 342.16,488.38 " stroke="red" stroke-width="0.71875" stroke-linecap="round" stroke-linejoin="round" />
<polyline points="348.28,492.75 347.41,493.62 345.66,493.62 344.78,492.75 344.78,489.25 345.66,488.38 347.41,488.38 348.28,489.25 348.28,490.12 347.41,491 344.78,491 " stroke="red" stroke-width="0.71875" stroke-linecap="round" stroke-linejoin="round" />
<polygon points="351.78,493.62 350.91,492.75 350.91,489.25 351.78,488.38 353.53,488.38 354.41,489.25 354.41,492.75 353.53,493.62 " stroke="red" stroke-width="0.71875" stroke-linejoin="round" />
<polyline points="594,428.47 589.88,431.72 587.28,433.97 585.78,435.38 581.69,439.5 581.66,439.53 577.53,444.19 576.75,445.12 573.44,449.41 572.41,450.75 569.31,455.34 568.47,456.47 565.19,462 565.06,462.19 561.75,468 561.09,469.19 558.31,473.84 556.97,476.19 554.62,479.75 552.88,482.25 550.06,485.69 548.75,487.38 544.97,491.69 544.62,492.06 540.53,496.44 539.09,497.75 536.41,500.25 532.28,503.28 531.25,503.88 528.19,505.53 524.06,507.22 519.94,508.41 515.84,509.25 511.72,509.72 507.59,509.91 503.5,509.84 499.38,509.66 495.25,509.28 491.16,508.75 487.03,508 482.91,507 478.81,505.88 474.69,504.66 472.16,503.88 470.56,503.38 466.47,502.25 462.34,501.12 458.25,500 454.12,498.88 450.72,497.75 450,497.53 445.91,496.19 441.78,494.97 437.66,493.84 433.56,492.97 429.44,492.16 427.25,491.69 425.31,491.28 421.22,490.31 417.09,489.19 412.97,487.97 408.88,486.62 406.16,485.69 404.75,485.19 400.62,483.66 396.53,482.16 392.41,480.78 389.12,479.75 388.31,479.5 384.19,478.31 380.06,477.16 375.97,476.06 371.84,475.03 367.72,474.22 365.47,473.84 363.62,473.5 359.5,472.81 355.38,472.09 351.28,471.25 348.28,470.62 " stroke="red" stroke-width="0.96875" stroke-linecap="round" stroke-linejoin="round" />
<polyline points="321.34,465.53 318.34,465.09 314.25,464.53 310.12,464 306.03,463.5 301.91,463 297.78,462.47 295.44,462.19 293.69,461.97 289.56,461.5 285.44,461.19 281.34,460.91 277.22,460.59 273.09,460.25 269,459.69 264.88,459.06 260.75,458.38 256.66,457.66 252.53,456.91 250.22,456.47 248.41,456.09 244.31,455.31 240.19,454.53 236.06,453.81 231.97,453.06 227.84,452.34 223.72,451.66 219.62,451.28 215.5,450.88 214.56,450.75 211.41,450.34 207.28,449.59 203.16,447.97 199.06,446.34 195.78,445.12 194.94,444.81 190.81,443.47 186.72,442.75 182.59,442.12 178.47,441.53 174.38,440.91 170.25,440.34 166.12,439.88 163.03,439.5 162.03,439.41 157.91,438.94 153.78,438.12 149.69,437.28 145.56,436.44 141.44,435.69 137.34,435.09 133.22,434.62 129.12,434.34 125,434.25 120.88,434.59 116.78,435.16 112.66,435.91 108.53,436.78 104.44,437.62 100.31,438.5 96.188,439.44 95.844,439.5 92.094,440.38 87.969,441.28 83.844,442.19 79.75,443.09 75.625,444 71.5,445.03 71.125,445.12 67.406,446.12 63.281,447.38 59.188,448.69 55.062,450 52.625,450.75 50.938,451.28 46.844,452.5 42.719,453.62 38.594,454.69 34.5,455.72 31.5,456.47 30.375,456.72 26.25,457.62 22.156,458.59 18.031,459.53 " stroke="red" stroke-width="0.96875" stroke-linecap="round" stroke-linejoin="round" />
<polyline points="324.31,466.19 325.19,465.31 326.94,465.31 327.81,466.19 327.81,467.94 326.94,468.81 324.31,468.81 324.31,470.56 327.81,470.56 " stroke="red" stroke-width="0.71875" stroke-linecap="round" stroke-linejoin="round" />
<polyline points="330.44,466.19 331.31,465.31 333.06,465.31 333.94,466.19 333.94,467.94 333.06,468.81 330.44,468.81 330.44,470.56 333.94,470.56 " stroke="red" stroke-width="0.71875" stroke-linecap="round" stroke-linejoin="round" />
<polyline points="336.56,469.69 337.44,470.56 339.19,470.56 340.06,469.69 340.06,468.81 336.56,465.31 340.06,465.31 " stroke="red" stroke-width="0.71875" stroke-linecap="round" stroke-linejoin="round" />
<polygon points="343.56,470.56 342.69,469.69 342.69,466.19 343.56,465.31 345.31,465.31 346.19,466.19 346.19,469.69 345.31,470.56 " stroke="red" stroke-width="0.71875" stroke-linejoin="round" />
<polyline points="594,413.75 589.88,416 587.31,417.53 585.78,418.47 581.66,421.41 579.66,422.97 577.53,424.72 573.44,428.38 573.34,428.44 569.31,432.31 567.53,433.97 565.19,436.16 561.66,439.5 561.09,440.06 556.97,444.06 555.88,445.12 552.88,448.19 550.31,450.75 548.75,452.47 544.78,456.47 544.62,456.62 540.53,460.53 538.47,462.19 536.41,463.91 532.28,466.72 530.12,468 528.19,469.19 524.06,471.41 519.94,473.34 518.78,473.84 515.84,475.06 511.72,476.47 507.59,477.59 503.5,478.47 499.38,479.19 495.25,479.66 494.19,479.75 491.16,479.91 487.03,479.91 485.5,479.75 482.91,479.47 478.81,478.84 474.69,478.09 470.56,477.31 466.47,476.72 462.34,476.12 458.25,475.5 454.12,474.88 450,474.19 448.16,473.84 445.91,473.41 441.78,472.53 437.66,471.56 433.56,470.47 429.44,469.34 425.31,468.16 424.75,468 421.22,466.91 417.09,465.56 412.97,464.25 408.88,462.94 406.62,462.19 404.75,461.59 400.62,460.25 396.53,458.88 392.41,457.5 389.38,456.47 388.31,456.03 384.19,454.25 380.06,452.5 375.97,450.84 375.72,450.75 371.84,449.22 367.72,447.97 363.62,446.78 359.5,445.69 357.28,445.12 355.38,444.59 351.28,443.56 348.28,442.88 " stroke="red" stroke-width="0.96875" stroke-linecap="round" stroke-linejoin="round" />
<polyline points="321.34,437.34 318.34,436.69 314.25,435.78 310.12,434.91 306.03,434.06 305.34,433.97 301.91,433.31 297.78,432.66 293.69,432.03 289.56,431.44 285.44,430.78 281.34,430.09 277.22,429.41 273.09,428.72 271.38,428.44 269,428.06 264.88,427.44 260.75,426.88 256.66,426.34 252.53,425.78 248.41,425.25 244.31,424.69 240.19,424.12 236.06,423.72 231.97,423.41 227.84,423.09 226.22,422.97 223.72,422.78 219.62,422.22 215.5,421.62 211.41,421.06 207.28,420.53 203.16,420.47 199.06,420.47 194.94,420.44 190.81,420.34 186.72,419.72 182.59,419.12 178.47,418.62 174.38,418.31 170.25,418.78 166.12,419.34 162.03,419.91 157.91,420.31 153.78,419.94 149.69,419.5 145.56,419.03 141.44,418.69 137.34,418.78 133.22,419 129.12,419.28 125,419.59 120.88,419.88 116.78,420.22 112.66,420.59 108.53,421.09 104.44,421.66 100.31,422.31 96.781,422.97 96.188,423.06 92.094,423.91 87.969,424.88 83.844,425.88 79.75,426.91 75.625,427.88 72.406,428.44 71.5,428.59 67.406,429.28 63.281,430 59.188,430.81 55.062,432.03 50.938,433.38 49.344,433.97 46.844,434.75 42.719,436.06 38.594,437.22 34.5,438.31 30.375,439.41 30,439.5 26.25,440.44 22.156,441.41 18.031,442.41 " stroke="red" stroke-width="0.96875" stroke-linecap="round" stroke-linejoin="round" />
<polyline points="324.31,438.22 325.19,437.34 326.94,437.34 327.81,438.22 327.81,439.97 326.94,440.84 324.31,440.84 324.31,442.59 327.81,442.59 " stroke="red" stroke-width="0.71875" stroke-linecap="round" stroke-linejoin="round" />
<polyline points="330.44,438.22 331.31,437.34 333.06,437.34 333.94,438.22 333.94,439.97 333.06,440.84 330.44,440.84 330.44,442.59 333.94,442.59 " stroke="red" stroke-width="0.71875" stroke-linecap="round" stroke-linejoin="round" />
<polygon points="337.44,442.59 336.56,441.72 336.56,440.84 337.44,439.97 339.19,439.97 340.06,440.84 340.06,441.72 339.19,442.59 " stroke="red" stroke-width="0.71875" stroke-linejoin="round" />
<polyline points="337.44,439.97 336.56,439.09 336.56,438.22 337.44,437.34 339.19,437.34 340.06,438.22 340.06,439.09 339.19,439.97 " stroke="red" stroke-width="0.71875" stroke-linecap="round" stroke-linejoin="round" />
<polygon points="343.56,442.59 342.69,441.72 342.69,438.22 343.56,437.34 345.31,437.34 346.19,438.22 346.19,441.72 345.31,442.59 " stroke="red" stroke-width="0.71875" stroke-linejoin="round" />
<polyline points="594,395.09 591,396.22 589.88,396.59 585.78,398.12 581.66,400.19 579.34,401.47 577.53,402.5 573.44,405 570.75,406.78 569.31,407.75 565.19,410.62 563.06,412.16 561.09,413.5 556.97,416.34 555.19,417.53 552.88,419.12 548.75,421.78 546.91,422.97 544.62,424.44 540.53,427.12 538.41,428.44 536.41,429.72 532.28,431.88 528.19,433.78 527.75,433.97 524.06,435.34 519.94,436.69 515.84,438.16 511.75,439.5 511.72,439.53 507.59,440.75 503.5,441.88 499.38,442.94 495.25,443.84 491.16,444.53 487.03,445.03 485.28,445.12 482.91,445.22 478.81,445.19 477.44,445.12 474.69,444.97 470.56,444.66 466.47,444.22 462.34,443.66 458.25,443 454.12,442.25 450,441.41 445.91,440.53 441.78,439.59 441.41,439.5 437.66,438.56 433.56,437.62 429.44,436.66 425.31,435.66 421.22,434.66 418.28,433.97 417.09,433.66 412.97,432.66 408.88,431.62 404.75,430.56 400.62,429.31 397.88,428.44 396.53,428 392.41,426.56 388.31,425.06 384.19,423.44 383.06,422.97 380.06,421.69 375.97,419.91 371.84,418.16 370.28,417.53 367.72,416.5 363.62,414.84 359.5,413.25 356.66,412.16 355.38,411.66 351.28,410.06 347.16,408.56 343.03,407.16 341.91,406.78 338.94,405.88 335.94,405.03 " stroke="red" stroke-width="0.96875" stroke-linecap="round" stroke-linejoin="round" />
<polyline points="309,398.88 306.03,398.28 301.91,397.5 297.78,396.69 295.34,396.22 293.69,395.88 289.56,395 285.44,393.97 281.34,392.91 277.22,391.84 273.72,390.97 273.09,390.84 269,390.03 264.88,389.28 260.75,388.56 256.66,387.88 252.53,387.22 248.41,386.53 244.31,385.91 243.47,385.78 240.19,385.28 236.06,384.56 231.97,383.91 227.84,383.31 223.72,382.88 219.62,382.91 215.5,383.12 211.41,383.47 207.28,383.91 203.16,384.16 199.06,384.5 194.94,385 190.81,385.72 190.72,385.78 186.72,387.16 182.59,388.81 178.47,390.56 177.41,390.97 174.38,391.88 170.25,392.41 166.12,392.81 162.03,393.16 157.91,393.53 153.78,394.12 149.69,394.72 145.56,395.31 141.44,395.94 140.28,396.22 137.34,396.78 133.22,397.69 129.12,398.59 125,399.47 120.88,399.97 116.78,400.38 112.66,400.78 108.53,401.19 106.69,401.47 104.44,401.78 100.31,402.44 96.188,403.16 92.094,403.91 87.969,404.88 83.844,405.91 80.406,406.78 79.75,406.94 75.625,407.91 71.5,408.59 67.406,409.22 63.281,409.81 59.188,410.41 55.062,411.12 50.938,411.88 49.688,412.16 46.844,412.78 42.719,413.84 38.594,415.03 34.5,416.31 30.781,417.53 30.375,417.66 26.25,419.03 22.156,420.28 18.031,421.59 " stroke="red" stroke-width="0.96875" stroke-linecap="round" stroke-linejoin="round" />
<polyline points="311.97,399.97 312.84,399.09 314.59,399.09 315.47,399.97 315.47,401.72 314.59,402.59 311.97,402.59 311.97,404.34 315.47,404.34 " stroke="red" stroke-width="0.71875" stroke-linecap="round" stroke-linejoin="round" />
<polyline points="321.59,403.47 320.72,404.34 318.97,404.34 318.09,403.47 318.09,399.97 318.97,399.09 320.72,399.09 321.59,399.97 321.59,400.84 320.72,401.72 318.09,401.72 " stroke="red" stroke-width="0.71875" stroke-linecap="round" stroke-linejoin="round" />
<polyline points="325.97,404.34 324.22,401.72 327.72,401.72 327.72,404.34 327.72,399.09 " stroke="red" stroke-width="0.71875" stroke-linecap="round" stroke-linejoin="round" />
<polygon points="331.22,404.34 330.34,403.47 330.34,399.97 331.22,399.09 332.97,399.09 333.84,399.97 333.84,403.47 332.97,404.34 " stroke="red" stroke-width="0.71875" stroke-linejoin="round" />
<polyline points="594,366.09 589.88,366.84 585.78,367.72 581.66,368.75 577.53,369.88 575.97,370.38 573.44,371.09 569.31,372.41 565.19,373.78 561.09,375.25 560.53,375.47 556.97,376.75 552.88,378.25 548.75,379.78 546.53,380.59 544.62,381.28 540.53,382.69 536.41,384.06 532.28,385.34 530.94,385.78 528.19,386.59 524.06,387.78 519.94,388.97 515.84,390.09 512.31,390.97 511.72,391.09 507.59,391.91 503.5,392.56 499.38,392.88 495.25,392.94 491.16,392.78 487.03,392.41 482.91,391.84 478.81,391.09 478.19,390.97 474.69,390.34 470.56,389.47 466.47,388.44 462.34,387.31 458.25,386.06 457.31,385.78 454.12,384.69 450,383.38 445.91,382.06 441.78,380.75 441.31,380.59 437.66,379.38 433.56,377.75 429.44,376.41 425.47,375.47 425.31,375.44 421.22,374.88 417.09,375.38 416.75,375.47 412.97,376.28 408.88,377.47 404.75,378.78 400.62,380 398.25,380.59 396.53,380.97 392.41,381.56 388.31,381.75 384.19,381.22 380.97,380.59 380.06,380.41 375.97,379.47 371.84,378.53 367.72,377.69 363.62,376.91 359.5,376.09 356.09,375.47 355.38,375.31 351.28,374.47 347.16,373.62 343.03,372.81 338.94,372.06 334.81,371.5 330.69,371.03 327.72,370.72 " stroke="red" stroke-width="0.96875" stroke-linecap="round" stroke-linejoin="round" />
<polyline points="300.78,368.44 297.78,368.09 293.69,367.62 289.56,367.09 285.44,366.47 281.34,365.81 277.94,365.28 277.22,365.19 273.09,364.53 269,363.94 264.88,363.34 260.75,362.72 256.66,362.09 252.53,361.41 248.41,360.75 245.09,360.25 244.31,360.12 240.19,359.53 236.06,359.16 231.97,358.78 227.84,358.38 223.72,357.88 219.62,356.69 215.5,355.25 215.47,355.25 211.41,353.69 207.28,352.25 203.16,352.19 199.06,352.5 194.94,353.03 190.81,353.56 186.72,353.66 182.59,353.69 178.47,353.62 174.38,353.53 170.25,353.22 166.12,352.88 162.03,352.53 157.91,352.34 153.78,352.78 149.69,353.47 145.56,354.41 142.53,355.25 141.44,355.59 137.34,356.72 133.22,358.06 129.12,359.66 127.78,360.25 125,361.5 120.88,363.78 118.22,365.28 116.78,366 112.66,367.97 108.53,369.78 106.97,370.38 104.44,371.06 100.31,372.25 96.188,373.47 92.094,374.84 90.5,375.47 87.969,376.34 83.844,377.88 79.75,379.44 76.625,380.59 75.625,380.94 71.5,382.38 67.406,383.81 63.281,385.28 61.938,385.78 59.188,386.69 55.062,388.06 50.938,389.44 46.844,390.84 46.469,390.97 42.719,392.12 38.594,393.44 34.5,394.78 30.375,396.12 30.156,396.22 26.25,397.44 22.156,398.69 18.031,399.97 " stroke="red" stroke-width="0.96875" stroke-linecap="round" stroke-linejoin="round" />
<polyline points="303.75,367.88 304.62,367 306.38,367 307.25,367.88 307.25,369.62 306.38,370.5 303.75,370.5 303.75,372.25 307.25,372.25 " stroke="red" stroke-width="0.71875" stroke-linecap="round" stroke-linejoin="round" />
<polyline points="309.88,372.25 313.38,372.25 311.62,367 " stroke="red" stroke-width="0.71875" stroke-linecap="round" stroke-linejoin="round" />
<polygon points="316.88,372.25 316,371.38 316,367.88 316.88,367 318.62,367 319.5,367.88 319.5,371.38 318.62,372.25 " stroke="red" stroke-width="0.71875" stroke-linejoin="round" />
<polygon points="323,372.25 322.12,371.38 322.12,367.88 323,367 324.75,367 325.62,367.88 325.62,371.38 324.75,372.25 " stroke="red" stroke-width="0.71875" stroke-linejoin="round" />
<polyline points="594,320.09 589.88,320.47 585.78,320.59 581.66,320.59 577.53,320.41 573.44,320.16 569.31,319.91 565.19,320.12 561.09,320.31 556.97,320.44 552.88,320.44 548.75,320.03 544.62,319.34 540.53,318.25 536.41,316.59 535.72,316.22 532.28,313.91 529.47,311.44 528.19,310.47 524.06,307.19 523.47,306.72 519.94,303.94 517.66,302 515.84,300.41 512.38,297.31 511.72,296.72 507.59,293.12 507,292.62 503.5,290.22 499.38,288.59 497.62,287.97 495.25,287.16 491.16,285.62 487.03,283.88 486.12,283.34 482.91,281.59 478.81,279.28 477.78,278.75 474.69,277.34 470.56,275.72 466.47,274.59 464.31,274.16 462.34,273.81 458.25,273.12 454.12,272.53 450,271.84 445.91,271.34 441.78,271.06 437.66,271.03 433.56,271.5 429.44,272.28 425.31,273.38 422.97,274.16 421.22,274.78 417.09,276.5 412.97,278.44 412.38,278.75 408.88,280.56 404.75,282.78 403.62,283.34 400.62,285 396.53,287.38 395.47,287.97 392.41,289.91 388.31,292.56 388.16,292.62 384.19,294.91 380.16,297.31 380.06,297.34 375.97,299.88 372.53,302 371.84,302.44 367.72,304.34 363.62,306.03 361.84,306.72 359.5,307.53 355.38,308.97 351.28,310.75 349.75,311.44 347.16,312.47 343.03,314.12 338.94,315.88 338.22,316.22 334.81,317.72 330.69,319.66 328.53,320.72 " stroke="red" stroke-width="0.96875" stroke-linecap="round" stroke-linejoin="round" />
<polyline points="304.88,329.62 301.91,330.19 298.94,330.66 297.78,330.81 293.69,331.22 289.56,331.5 285.44,331.69 281.34,331.75 277.22,331.72 273.09,331.62 269,331.41 264.88,331.16 260.75,330.88 257.31,330.66 256.66,330.59 252.53,330.28 248.41,329.97 244.31,329.66 240.19,329.41 236.06,329.38 231.97,329.34 227.84,329.22 223.72,328.97 219.62,328.28 215.5,327.56 211.41,326.81 207.28,326.12 205.31,325.81 203.16,325.44 199.06,324.81 194.94,324.25 190.81,323.78 186.72,323.53 182.59,323.41 178.47,323.31 174.38,323.25 170.25,323.16 166.12,323.06 162.03,322.94 157.91,322.78 153.78,322.5 149.69,322.16 145.56,321.75 141.44,321.25 139.78,321 137.34,320.59 133.22,319.94 129.12,319.34 125,318.84 120.88,318.56 116.78,318.41 112.66,318.31 108.53,318.28 104.44,318.25 100.31,318.28 96.188,318.41 92.094,318.62 87.969,319 83.844,319.59 79.75,320.5 78.031,321 75.625,321.88 71.5,324.19 69.375,325.81 67.406,327.84 65.188,330.66 63.281,334.09 62.5,335.5 59.562,340.41 59.188,340.97 55.969,345.31 55.062,346.34 51.531,350.28 50.938,350.81 46.844,354.69 46.219,355.25 42.719,358.09 39.969,360.25 38.594,361.16 34.5,363.88 32.375,365.28 30.375,366.41 26.25,368.69 23.094,370.38 22.156,370.75 18.031,372.38 " stroke="red" stroke-width="0.96875" stroke-linecap="round" stroke-linejoin="round" />
<polyline points="307.84,323.72 308.72,322.84 310.47,322.84 311.34,323.72 311.34,325.47 310.47,326.34 307.84,326.34 307.84,328.09 311.34,328.09 " stroke="red" stroke-width="0.71875" stroke-linecap="round" stroke-linejoin="round" />
<polyline points="313.97,328.09 317.47,328.09 315.72,322.84 " stroke="red" stroke-width="0.71875" stroke-linecap="round" stroke-linejoin="round" />
<polyline points="323.59,327.22 322.72,328.09 320.97,328.09 320.09,327.22 320.09,323.72 320.97,322.84 322.72,322.84 323.59,323.72 323.59,324.59 322.72,325.47 320.09,325.47 " stroke="red" stroke-width="0.71875" stroke-linecap="round" stroke-linejoin="round" />
<polygon points="327.09,328.09 326.22,327.22 326.22,323.72 327.09,322.84 328.84,322.84 329.72,323.72 329.72,327.22 328.84,328.09 " stroke="red" stroke-width="0.71875" stroke-linejoin="round" />
<polyline points="76.906,247 76.906,247.03 75.625,249.06 74.188,251.5 71.5,255.47 71.156,256 68.594,260.5 67.406,262.16 65.375,265.03 63.281,267.34 61.344,269.59 59.812,271 " stroke="red" stroke-width="0.96875" stroke-linecap="round" stroke-linejoin="round" />
<polyline points="49.219,280.44 46.844,282.09 44.969,283.34 42.719,284.59 38.594,286.69 36.25,287.97 34.5,288.81 30.375,290.94 27.438,292.62 26.25,293.09 22.156,294.78 18.031,296.5 " stroke="red" stroke-width="0.96875" stroke-linecap="round" stroke-linejoin="round" />
<polyline points="44.562,273.97 45.438,273.09 47.188,273.09 48.062,273.97 48.062,275.72 47.188,276.59 44.562,276.59 44.562,278.34 48.062,278.34 " stroke="red" stroke-width="0.71875" stroke-linecap="round" stroke-linejoin="round" />
<polygon points="51.562,278.34 50.688,277.47 50.688,276.59 51.562,275.72 53.312,275.72 54.188,276.59 54.188,277.47 53.312,278.34 " stroke="red" stroke-width="0.71875" stroke-linejoin="round" />
<polyline points="51.562,275.72 50.688,274.84 50.688,273.97 51.562,273.09 53.312,273.09 54.188,273.97 54.188,274.84 53.312,275.72 " stroke="red" stroke-width="0.71875" stroke-linecap="round" stroke-linejoin="round" />
<polyline points="56.812,277.47 57.688,278.34 59.438,278.34 60.312,277.47 60.312,276.59 56.812,273.09 60.312,273.09 " stroke="red" stroke-width="0.71875" stroke-linecap="round" stroke-linejoin="round" />
<polygon points="63.812,278.34 62.938,277.47 62.938,273.97 63.812,273.09 65.562,273.09 66.438,273.97 66.438,277.47 65.562,278.34 " stroke="red" stroke-width="0.71875" stroke-linejoin="round" />
<polyline points="146.34,247 146.38,247.03 149.69,250.59 150.47,251.5 153.78,254.66 155.16,256 157.91,258.44 160.94,260.5 162.03,261.06 166.12,262.88 170.25,264.44 172.09,265.03 174.38,265.62 178.47,266.5 182.59,267.22 186.72,267.88 190.81,268.47 194.94,269.19 197.47,269.59 199.06,269.81 203.16,270.34 207.28,270.69 211.41,270.34 214.12,270.06 " stroke="red" stroke-width="0.96875" stroke-linecap="round" stroke-linejoin="round" />
<polyline points="241.06,269.66 241.22,269.59 244.31,268.34 248.41,266.53 252,265.03 252.53,264.81 256.66,263.38 260.75,263.19 264.88,263.12 269,263.03 273.09,262.78 277.22,261.91 281.34,260.69 281.84,260.5 285.44,259.09 289.56,257.16 291.56,256 293.69,254.69 297.78,252.06 298.59,251.5 301.91,249.38 305.59,247.03 305.66,247 " stroke="red" stroke-width="0.96875" stroke-linecap="round" stroke-linejoin="round" />
<polyline points="217.09,267.84 217.97,266.97 219.72,266.97 220.59,267.84 220.59,269.59 219.72,270.47 217.09,270.47 217.09,272.22 220.59,272.22 " stroke="red" stroke-width="0.71875" stroke-linecap="round" stroke-linejoin="round" />
<polygon points="224.09,272.22 223.22,271.34 223.22,270.47 224.09,269.59 225.84,269.59 226.72,270.47 226.72,271.34 225.84,272.22 " stroke="red" stroke-width="0.71875" stroke-linejoin="round" />
<polyline points="224.09,269.59 223.22,268.72 223.22,267.84 224.09,266.97 225.84,266.97 226.72,267.84 226.72,268.72 225.84,269.59 " stroke="red" stroke-width="0.71875" stroke-linecap="round" stroke-linejoin="round" />
<polyline points="229.34,271.34 230.22,272.22 231.97,272.22 232.84,271.34 232.84,270.47 229.34,266.97 232.84,266.97 " stroke="red" stroke-width="0.71875" stroke-linecap="round" stroke-linejoin="round" />
<polygon points="236.34,272.22 235.47,271.34 235.47,267.84 236.34,266.97 238.09,266.97 238.97,267.84 238.97,271.34 238.09,272.22 " stroke="red" stroke-width="0.71875" stroke-linejoin="round" />
</g>
</svg>
