<?xml version="1.0" encoding="ISO-8859-1" standalone="no"?>
<!DOCTYPE svg PUBLIC "-//W3C//DTD SVG 1.1//EN" "http://www.w3.org/Graphics/SVG/1.1/DTD/svg11.dtd">
<svg version="1.1" baseProfile="full" id="body" width="900px" height="600px" viewBox="0 0.2 1 0.55" preserveAspectRatio="none" xmlns="http://www.w3.org/2000/svg" xmlns:xlink="http://www.w3.org/1999/xlink" xmlns:ev="http://www.w3.org/2001/xml-events">
<title>SVG drawing</title>
<desc>This was produced by version 4.2 of GNU libplot, a free library for exporting 2-D vector graphics.</desc>
<rect id="background" x="0" y="0" width="1" height="1" stroke="none" fill="none"/>
<g id="content" transform="translate(-0.03125,1.1875) scale(1,-1) scale(0.0017361) " xml:space="preserve" stroke="black" stroke-linecap="butt" stroke-linejoin="miter" stroke-miterlimit="10.433" stroke-dasharray="none" stroke-dashoffset="0" stroke-opacity="1" fill="none" fill-rule="even-odd" fill-opacity="1" font-style="normal" font-variant="normal" font-weight="normal" font-stretch="normal" font-size-adjust="none" letter-spacing="normal" word-spacing="normal" text-anchor="start">
<polyline points="20.625,568.66 20.625,568.62 20.406,561.84 20.344,555.12 19.031,548.47 18.938,547.94 " stroke="red" stroke-width="0.96875" stroke-linecap="round" stroke-linejoin="round" />
<polyline points="19.781,544.94 20.656,545.81 22.406,545.81 23.281,544.94 23.281,544.06 19.781,540.56 23.281,540.56 " stroke="red" stroke-width="0.71875" stroke-linecap="round" stroke-linejoin="round" />
<polygon points="26.781,545.81 25.906,544.94 25.906,541.44 26.781,540.56 28.531,540.56 29.406,541.44 29.406,544.94 28.531,545.81 " stroke="red" stroke-width="0.71875" stroke-linejoin="round" />
<polyline points="331.12,568.66 331.09,568.62 330.69,567 329.62,561.84 330.41,555.12 330.69,554.16 332.84,548.47 334.81,546.06 335.34,545.62 " stroke="red" stroke-width="0.96875" stroke-linecap="round" stroke-linejoin="round" />
<polyline points="360.62,544.16 363.62,545.34 367.72,547.12 370.53,548.47 371.84,549.19 375.97,551.94 380.06,554.81 380.44,555.12 384.19,559.34 386.28,561.84 388.31,565.38 390.09,568.62 390.09,568.66 " stroke="red" stroke-width="0.96875" stroke-linecap="round" stroke-linejoin="round" />
<polyline points="336.66,539.16 337.53,538.28 339.28,538.28 340.16,539.16 340.16,540.91 339.28,541.78 336.66,541.78 336.66,543.53 340.16,543.53 " stroke="red" stroke-width="0.71875" stroke-linecap="round" stroke-linejoin="round" />
<polyline points="342.78,542.66 343.66,543.53 345.41,543.53 346.28,542.66 346.28,541.78 342.78,538.28 346.28,538.28 " stroke="red" stroke-width="0.71875" stroke-linecap="round" stroke-linejoin="round" />
<polyline points="348.91,542.66 349.78,543.53 351.53,543.53 352.41,542.66 352.41,541.78 348.91,538.28 352.41,538.28 " stroke="red" stroke-width="0.71875" stroke-linecap="round" stroke-linejoin="round" />
<polygon points="355.91,543.53 355.03,542.66 355.03,539.16 355.91,538.28 357.66,538.28 358.53,539.16 358.53,542.66 357.66,543.53 " stroke="red" stroke-width="0.71875" stroke-linejoin="round" />
<polyline points="47.531,568.66 47.531,568.62 46.906,561.84 46.844,561.62 44.594,555.12 42.719,551.62 41.406,548.47 38.594,542.66 38.281,541.91 37.438,540.12 " stroke="red" stroke-width="0.96875" stroke-linecap="round" stroke-linejoin="round" />
<polyline points="32.906,530.66 32.125,528.97 30.375,525.62 28.938,522.59 26.25,517.5 25.531,516.28 22.156,511.41 21.25,510.06 18.031,505.53 " stroke="red" stroke-width="0.96875" stroke-linecap="round" stroke-linejoin="round" />
<polyline points="24.688,533.62 25.562,532.75 27.312,532.75 28.188,533.62 28.188,535.38 27.312,536.25 24.688,536.25 24.688,538 28.188,538 " stroke="red" stroke-width="0.71875" stroke-linecap="round" stroke-linejoin="round" />
<polyline points="30.812,537.12 31.688,538 33.438,538 34.312,537.12 34.312,536.25 30.812,532.75 34.312,532.75 " stroke="red" stroke-width="0.71875" stroke-linecap="round" stroke-linejoin="round" />
<polygon points="37.812,538 36.938,537.12 36.938,536.25 37.812,535.38 39.562,535.38 40.438,536.25 40.438,537.12 39.562,538 " stroke="red" stroke-width="0.71875" stroke-linejoin="round" />
<polyline points="37.812,535.38 36.938,534.5 36.938,533.62 37.812,532.75 39.562,532.75 40.438,533.62 40.438,534.5 39.562,535.38 " stroke="red" stroke-width="0.71875" stroke-linecap="round" stroke-linejoin="round" />
<polygon points="43.938,538 43.062,537.12 43.062,533.62 43.938,532.75 45.688,532.75 46.562,533.62 46.562,537.12 45.688,538 " stroke="red" stroke-width="0.71875" stroke-linejoin="round" />
<polyline points="302.47,568.66 302.47,568.62 302.28,561.84 302.88,555.12 304.28,548.47 306.03,543.5 306.69,541.91 310.12,536.06 310.56,535.38 314.25,531.03 316.19,528.97 318.34,527.44 322.47,525.06 326.59,523.19 328.25,522.59 330.69,521.84 334.81,520.94 338.94,520.38 343.03,520.22 343.97,520.28 " stroke="red" stroke-width="0.96875" stroke-linecap="round" stroke-linejoin="round" />
<polyline points="368.12,527.31 371.34,528.97 371.84,529.25 375.97,531.75 380.06,534.31 381.69,535.38 384.19,537.19 388.31,540.28 390.19,541.91 392.41,543.94 396.53,547.78 397.25,548.47 400.62,551.97 403.66,555.12 404.75,556.62 408.22,561.84 408.88,562.97 412.12,568.62 412.16,568.66 " stroke="red" stroke-width="0.96875" stroke-linecap="round" stroke-linejoin="round" />
<polyline points="346.94,520.84 347.81,519.97 349.56,519.97 350.44,520.84 350.44,522.59 349.56,523.47 346.94,523.47 346.94,525.22 350.44,525.22 " stroke="red" stroke-width="0.71875" stroke-linecap="round" stroke-linejoin="round" />
<polyline points="353.06,524.34 353.94,525.22 355.69,525.22 356.56,524.34 356.56,523.47 353.06,519.97 356.56,519.97 " stroke="red" stroke-width="0.71875" stroke-linecap="round" stroke-linejoin="round" />
<polygon points="360.06,525.22 359.19,524.34 359.19,523.47 360.06,522.59 361.81,522.59 362.69,523.47 362.69,524.34 361.81,525.22 " stroke="red" stroke-width="0.71875" stroke-linejoin="round" />
<polyline points="360.06,522.59 359.19,521.72 359.19,520.84 360.06,519.97 361.81,519.97 362.69,520.84 362.69,521.72 361.81,522.59 " stroke="red" stroke-width="0.71875" stroke-linecap="round" stroke-linejoin="round" />
<polygon points="366.19,525.22 365.31,524.34 365.31,520.84 366.19,519.97 367.94,519.97 368.81,520.84 368.81,524.34 367.94,525.22 " stroke="red" stroke-width="0.71875" stroke-linejoin="round" />
<polyline points="71,568.66 71,568.62 69.844,561.84 68.375,555.12 67.406,552.03 66.062,548.47 63.281,544.06 61.5,541.91 59.188,539.81 55.062,535.75 54.75,535.38 50.938,531.25 50.438,530.62 " stroke="red" stroke-width="0.96875" stroke-linecap="round" stroke-linejoin="round" />
<polyline points="43.406,521.16 42.719,520.28 39.844,516.28 38.594,514.66 35.375,510.06 34.5,508.88 30.906,503.88 30.375,503.31 26.25,499.06 24.688,497.75 22.156,495.84 18.031,492.72 " stroke="red" stroke-width="0.96875" stroke-linecap="round" stroke-linejoin="round" />
<polyline points="36.344,524.16 37.219,523.28 38.969,523.28 39.844,524.16 39.844,525.91 38.969,526.78 36.344,526.78 36.344,528.53 39.844,528.53 " stroke="red" stroke-width="0.71875" stroke-linecap="round" stroke-linejoin="round" />
<polyline points="42.469,527.66 43.344,528.53 45.094,528.53 45.969,527.66 45.969,526.78 45.094,525.91 44.219,525.91 45.094,525.91 45.969,525.03 45.969,524.16 45.094,523.28 43.344,523.28 42.469,524.16 " stroke="red" stroke-width="0.71875" stroke-linecap="round" stroke-linejoin="round" />
<polyline points="50.344,528.53 48.594,525.91 52.094,525.91 52.094,528.53 52.094,523.28 " stroke="red" stroke-width="0.71875" stroke-linecap="round" stroke-linejoin="round" />
<polygon points="55.594,528.53 54.719,527.66 54.719,524.16 55.594,523.28 57.344,523.28 58.219,524.16 58.219,527.66 57.344,528.53 " stroke="red" stroke-width="0.71875" stroke-linejoin="round" />
<polyline points="280.34,568.66 280.34,568.62 281.34,565.34 282.22,561.84 284.34,555.12 285.44,552.19 286.62,548.47 289.09,541.91 289.56,540.91 291.69,535.38 293.69,531.59 295.12,528.97 297.78,525.72 300.69,522.59 301.91,521.5 306.03,518.25 309,516.28 310.12,515.62 314.25,513.5 318.34,511.78 322.47,510.41 323.78,510.06 326.59,509.34 330.69,508.53 334.81,508 338.94,507.72 341.91,507.69 " stroke="red" stroke-width="0.96875" stroke-linecap="round" stroke-linejoin="round" />
<polyline points="367.25,513.88 367.72,514.09 371.84,516.19 372.03,516.28 375.97,518.44 380.06,520.78 383.12,522.59 384.19,523.25 388.31,525.94 392.31,528.97 392.41,529.03 396.53,532.59 399.72,535.38 400.62,536.22 404.75,540.03 406.75,541.91 408.88,544 412.97,548.28 413.16,548.47 417.09,553.03 418.84,555.12 421.22,558.5 423.69,561.84 425.31,564.28 428.31,568.62 428.34,568.66 " stroke="red" stroke-width="0.96875" stroke-linecap="round" stroke-linejoin="round" />
<polyline points="344.88,507.41 345.75,506.53 347.5,506.53 348.38,507.41 348.38,509.16 347.5,510.03 344.88,510.03 344.88,511.78 348.38,511.78 " stroke="red" stroke-width="0.71875" stroke-linecap="round" stroke-linejoin="round" />
<polyline points="351,510.91 351.88,511.78 353.62,511.78 354.5,510.91 354.5,510.03 353.62,509.16 352.75,509.16 353.62,509.16 354.5,508.28 354.5,507.41 353.62,506.53 351.88,506.53 351,507.41 " stroke="red" stroke-width="0.71875" stroke-linecap="round" stroke-linejoin="round" />
<polyline points="358.88,511.78 357.12,509.16 360.62,509.16 360.62,511.78 360.62,506.53 " stroke="red" stroke-width="0.71875" stroke-linecap="round" stroke-linejoin="round" />
<polygon points="364.12,511.78 363.25,510.91 363.25,507.41 364.12,506.53 365.88,506.53 366.75,507.41 366.75,510.91 365.88,511.78 " stroke="red" stroke-width="0.71875" stroke-linejoin="round" />
<polyline points="105,568.66 104.97,568.62 104.44,568 100.31,563.16 99.219,561.84 96.188,558.19 93.969,555.12 92.094,550.59 91.406,548.47 89.406,541.91 87.969,537.69 87.219,535.38 84.031,528.97 83.844,528.81 81.344,526.91 " stroke="red" stroke-width="0.96875" stroke-linecap="round" stroke-linejoin="round" />
<polyline points="58.625,517.47 57.344,516.28 55.062,514.28 50.938,510.22 50.781,510.06 46.844,506.12 44.656,503.88 42.719,502.06 38.594,497.78 38.594,497.75 34.5,493.88 32.031,491.69 30.375,490.31 26.25,487.09 24.219,485.69 22.156,484.25 18.031,481.12 " stroke="red" stroke-width="0.96875" stroke-linecap="round" stroke-linejoin="round" />
<polyline points="61,520.44 61.875,519.56 63.625,519.56 64.5,520.44 64.5,522.19 63.625,523.06 61,523.06 61,524.81 64.5,524.81 " stroke="red" stroke-width="0.71875" stroke-linecap="round" stroke-linejoin="round" />
<polyline points="68.875,524.81 67.125,522.19 70.625,522.19 70.625,524.81 70.625,519.56 " stroke="red" stroke-width="0.71875" stroke-linecap="round" stroke-linejoin="round" />
<polygon points="74.125,524.81 73.25,523.94 73.25,520.44 74.125,519.56 75.875,519.56 76.75,520.44 76.75,523.94 75.875,524.81 " stroke="red" stroke-width="0.71875" stroke-linejoin="round" />
<polygon points="80.25,524.81 79.375,523.94 79.375,520.44 80.25,519.56 82,519.56 82.875,520.44 82.875,523.94 82,524.81 " stroke="red" stroke-width="0.71875" stroke-linejoin="round" />
<polyline points="242.62,568.66 242.66,568.62 244.31,567.19 248.41,563.03 249.41,561.84 252.53,558.16 254.66,555.12 256.66,552.28 258.72,548.47 260.75,545.12 262.72,541.91 264.88,538.81 267.28,535.38 269,533.25 272.34,528.97 273.09,528 277.03,522.59 277.22,522.34 281.34,517.56 282.53,516.28 285.44,513.59 289.56,510.31 289.88,510.06 293.69,507.38 297.78,504.91 299.78,503.88 301.91,502.53 306.03,500.34 310.12,498.62 312.75,497.75 314.25,497.28 318.34,496.25 322.47,495.53 325.47,495.25 " stroke="red" stroke-width="0.96875" stroke-linecap="round" stroke-linejoin="round" />
<polyline points="352.41,496.97 355.38,497.59 355.88,497.75 359.5,498.91 363.62,500.47 367.72,502.31 370.78,503.88 371.84,504.38 375.97,506.56 380.06,508.84 382.09,510.06 384.19,511.25 388.31,513.72 392.28,516.28 392.41,516.38 396.53,519.25 400.62,522.44 400.81,522.59 404.75,525.94 408.19,528.97 408.88,529.53 412.97,533.06 415.59,535.38 417.09,536.81 421.22,540.72 422.47,541.91 425.31,544.62 429.22,548.47 429.44,548.69 433.56,553 435.53,555.12 437.66,557.75 441.31,561.84 441.78,562.38 445.91,567.06 447.34,568.62 447.38,568.66 " stroke="red" stroke-width="0.96875" stroke-linecap="round" stroke-linejoin="round" />
<polyline points="328.44,493.5 329.31,492.62 331.06,492.62 331.94,493.5 331.94,495.25 331.06,496.12 328.44,496.12 328.44,497.88 331.94,497.88 " stroke="red" stroke-width="0.71875" stroke-linecap="round" stroke-linejoin="round" />
<polyline points="336.31,497.88 334.56,495.25 338.06,495.25 338.06,497.88 338.06,492.62 " stroke="red" stroke-width="0.71875" stroke-linecap="round" stroke-linejoin="round" />
<polygon points="341.56,497.88 340.69,497 340.69,493.5 341.56,492.62 343.31,492.62 344.19,493.5 344.19,497 343.31,497.88 " stroke="red" stroke-width="0.71875" stroke-linejoin="round" />
<polygon points="347.69,497.88 346.81,497 346.81,493.5 347.69,492.62 349.44,492.62 350.31,493.5 350.31,497 349.44,497.88 " stroke="red" stroke-width="0.71875" stroke-linejoin="round" />
<polyline points="475.19,568.66 475.12,568.62 474.69,568.38 470.56,565.78 466.47,562.53 465.66,561.84 462.34,558.84 458.56,555.12 458.25,554.81 454.12,550.62 451.72,548.47 450,547.03 445.91,543.62 443.75,541.91 441.78,540.38 437.66,537.22 435.44,535.38 433.56,533.91 429.44,530.62 427.31,528.97 425.31,527.22 421.22,523.62 420.03,522.59 417.09,520.06 412.97,516.81 412.31,516.28 408.88,513.75 404.75,510.97 403.38,510.06 400.62,508.25 396.53,505.75 393.12,503.88 392.41,503.41 388.31,500.72 384.19,498.12 383.53,497.75 380.06,495.72 375.97,493.66 371.84,491.88 371.41,491.69 367.72,490.12 363.62,488.56 359.5,487.19 355.38,485.97 354.19,485.69 351.28,484.94 347.16,483.97 343.03,483.03 338.94,482.19 334.81,481.38 330.69,480.59 326.59,479.94 325,479.75 322.47,479.44 318.34,479.22 314.25,479.19 310.12,479.28 306.03,479.53 303.19,479.75 301.91,479.88 297.78,480.5 293.69,481.44 289.56,482.75 285.44,484.53 283.09,485.69 281.34,486.72 277.22,489.28 273.47,491.69 273.09,491.97 269,494.94 265.28,497.75 264.88,498.09 260.75,501.62 258.56,503.47 " stroke="red" stroke-width="0.96875" stroke-linecap="round" stroke-linejoin="round" />
<polyline points="246.91,512.94 244.31,515.31 243.28,516.28 240.19,519.56 237.25,522.59 236.06,523.75 231.97,527.25 229.62,528.97 227.84,530.31 223.72,533.5 221.81,535.38 219.62,537.56 215.5,541.25 214.72,541.91 211.41,544.47 207.28,547.16 205.12,548.47 203.16,549.69 199.06,552.06 194.94,554.28 193.28,555.12 190.81,556.41 186.72,558.19 182.59,559.69 178.47,560.97 174.88,561.84 174.38,561.94 170.25,562.47 166.12,562.62 162.03,562.44 157.91,561.88 157.72,561.84 153.78,560.81 149.69,559.38 145.56,557.56 141.44,555.31 141.09,555.12 137.34,552.91 133.22,549.97 131.44,548.47 129.12,546.5 125,542.53 124.34,541.91 120.88,538.88 116.78,535.41 116.75,535.38 112.66,531.97 109.38,528.97 108.53,528.03 104.97,522.59 104.44,521.91 100.31,517.22 99.344,516.28 96.188,513.91 92.094,511.41 89.219,510.06 87.969,509.53 83.844,507.97 79.75,506.59 75.625,505.28 71.5,504 71.156,503.88 67.406,502.31 63.281,500.25 59.188,497.78 59.125,497.75 55.062,495.09 50.938,492.28 50.125,491.69 46.844,489.47 42.719,486.66 41.469,485.69 38.594,483.62 34.5,480.81 32.906,479.75 30.375,477.84 26.25,474.81 24.844,473.84 22.156,472.06 18.031,469.31 " stroke="red" stroke-width="0.96875" stroke-linecap="round" stroke-linejoin="round" />
<polyline points="242.03,506.47 242.91,505.59 244.66,505.59 245.53,506.47 245.53,508.22 244.66,509.09 242.03,509.09 242.03,510.84 245.53,510.84 " stroke="red" stroke-width="0.71875" stroke-linecap="round" stroke-linejoin="round" />
<polyline points="249.91,510.84 248.16,508.22 251.66,508.22 251.66,510.84 251.66,505.59 " stroke="red" stroke-width="0.71875" stroke-linecap="round" stroke-linejoin="round" />
<polyline points="257.78,509.97 256.91,510.84 255.16,510.84 254.28,509.97 254.28,506.47 255.16,505.59 256.91,505.59 257.78,506.47 257.78,507.34 256.91,508.22 254.28,508.22 " stroke="red" stroke-width="0.71875" stroke-linecap="round" stroke-linejoin="round" />
<polygon points="261.28,510.84 260.41,509.97 260.41,506.47 261.28,505.59 263.03,505.59 263.91,506.47 263.91,509.97 263.03,510.84 " stroke="red" stroke-width="0.71875" stroke-linejoin="round" />
<polyline points="532.19,568.66 532.06,568.62 528.19,567.41 524.06,566 519.94,564.47 515.84,563 512.69,561.84 511.72,561.47 507.59,559.88 503.5,558.16 499.38,556.28 497.03,555.12 495.25,554.22 491.16,551.97 487.03,549.69 484.28,548.47 482.91,547.88 478.81,546 474.69,543.97 470.94,541.91 470.56,541.69 466.47,538.28 463.22,535.38 462.34,534.62 458.25,530.97 455.88,528.97 454.12,527.53 450,524.69 447.03,522.59 445.91,521.78 441.78,518.66 438.78,516.28 437.66,515.38 433.56,512.12 430.84,510.06 429.44,508.97 425.31,506 422.19,503.88 421.22,503.25 417.09,500.66 412.97,498.09 412.41,497.75 408.88,495.5 404.75,492.91 402.84,491.69 400.62,490.25 396.53,487.69 393,485.69 392.41,485.34 388.31,483.16 384.19,481.5 380.06,480.16 378.62,479.75 375.97,478.91 371.84,477.66 367.72,476.22 363.62,474.91 360.06,473.84 359.5,473.66 355.38,472.41 351.28,471.19 347.16,470.06 343.03,469.03 338.94,468.09 338.44,468 334.81,467.31 330.69,466.69 326.59,466.19 322.47,465.84 318.34,465.53 314.25,465.34 311.25,465.28 " stroke="red" stroke-width="0.96875" stroke-linecap="round" stroke-linejoin="round" />
<polyline points="284.31,467.91 283.94,468 281.34,468.62 277.22,469.78 273.09,471.09 269,472.38 264.88,473.78 264.69,473.84 260.75,475.47 256.66,477.47 253.41,479.75 252.53,480.5 248.41,484.09 246.44,485.69 244.31,487.41 240.19,490.44 238.31,491.69 236.06,493.31 231.97,496.38 230.16,497.75 227.84,499.69 223.72,503.19 222.75,503.88 219.62,506.09 215.5,508.84 213.62,510.06 211.41,511.59 207.28,514.38 204.19,516.28 203.16,516.94 199.06,519.28 194.94,521.31 191.78,522.59 190.81,522.97 186.72,524 182.59,524.59 178.47,524.84 174.38,524.78 170.25,524.53 166.12,523.97 162.03,523.16 159.91,522.59 157.91,522.06 153.78,521.19 149.69,520.09 145.56,518.66 141.44,516.84 140.75,516.28 137.34,513.69 133.22,510.19 133.06,510.06 129.12,506.81 125.41,503.88 125,503.62 120.88,501.56 116.78,499.56 112.94,497.75 112.66,497.62 108.53,495.88 104.44,494.22 100.31,492.5 98.281,491.69 96.188,490.84 92.094,489.28 87.969,488.44 83.844,487.75 79.75,487.06 75.625,486.25 74.094,485.69 71.5,484.69 67.406,482.81 63.281,480.75 61.406,479.75 59.188,478.47 55.062,476.44 50.938,474.41 49.875,473.84 46.844,472.28 42.719,470.06 39.25,468 38.594,467.59 34.5,465.03 30.375,462.5 29.906,462.19 26.25,459.91 22.156,457.56 20.219,456.47 18.031,455.25 " stroke="red" stroke-width="0.96875" stroke-linecap="round" stroke-linejoin="round" />
<polyline points="287.28,464.03 288.16,463.16 289.91,463.16 290.78,464.03 290.78,465.78 289.91,466.66 287.28,466.66 287.28,468.41 290.78,468.41 " stroke="red" stroke-width="0.71875" stroke-linecap="round" stroke-linejoin="round" />
<polyline points="293.41,464.03 294.28,463.16 296.03,463.16 296.91,464.03 296.91,465.78 296.03,466.66 293.41,466.66 293.41,468.41 296.91,468.41 " stroke="red" stroke-width="0.71875" stroke-linecap="round" stroke-linejoin="round" />
<polyline points="299.53,467.53 300.41,468.41 302.16,468.41 303.03,467.53 303.03,466.66 299.53,463.16 303.03,463.16 " stroke="red" stroke-width="0.71875" stroke-linecap="round" stroke-linejoin="round" />
<polygon points="306.53,468.41 305.66,467.53 305.66,464.03 306.53,463.16 308.28,463.16 309.16,464.03 309.16,467.53 308.28,468.41 " stroke="red" stroke-width="0.71875" stroke-linejoin="round" />
<polyline points="594,546.66 589.88,547.22 585.78,547.88 581.66,548.06 577.53,548.19 573.44,548.28 569.31,548.25 565.19,548.22 561.09,548.12 556.97,547.91 552.88,547.56 548.75,547.06 544.62,546.47 540.53,545.72 536.41,544.81 532.28,543.72 528.19,542.5 526.28,541.91 524.06,541.16 519.94,539.75 515.84,538.28 511.72,536.72 508.59,535.38 507.59,534.97 503.5,532.97 499.38,530.62 496.53,528.97 495.25,528.22 491.16,525.84 487.03,523.62 484.53,522.59 482.91,521.91 478.81,520.09 474.69,518.06 471.53,516.28 470.56,515.72 466.47,512.97 462.34,510.28 462,510.06 458.25,507.66 454.12,505.06 452.5,503.88 450,501.94 445.91,498.72 444.66,497.75 441.78,495.53 437.66,492.44 436.5,491.69 433.56,489.75 429.44,487.16 427.09,485.69 425.31,484.56 421.22,481.94 417.78,479.75 417.09,479.31 412.97,476.78 408.88,474.44 407.81,473.84 404.75,472.19 400.62,470.03 396.53,468.03 396.47,468 392.41,466.09 388.31,464.28 384.19,462.66 382.97,462.19 380.06,461.06 375.97,459.5 371.84,458.03 367.72,456.94 365.47,456.47 363.62,456.06 359.5,455.25 355.38,454.47 351.28,453.44 347.16,452.5 343.03,451.69 338.94,451.03 335.34,450.75 334.81,450.72 330.69,450.5 326.59,450.38 322.47,450.31 319.5,450.19 " stroke="red" stroke-width="0.96875" stroke-linecap="round" stroke-linejoin="round" />
<polyline points="292.53,451.25 289.56,451.69 285.44,452.5 281.34,453.44 277.22,454.5 273.09,455.69 270.66,456.47 269,456.88 264.88,458.03 260.75,459.28 256.66,460.69 253.19,462.19 252.53,462.5 248.41,464.62 244.31,467.09 242.88,468 240.19,469.78 236.06,471.97 232.31,473.84 231.97,474.03 227.84,475.94 223.72,477.78 220,479.75 219.62,479.94 215.5,482.03 211.41,483.94 207.28,485.59 206.91,485.69 203.16,486.59 199.06,487.41 194.94,488.03 190.81,488.59 186.72,489.62 182.59,490.53 178.47,491.16 174.38,491.41 170.25,490.69 166.12,489.66 162.03,488.53 157.91,487.38 153.78,486.66 149.69,485.91 148.38,485.69 145.56,485.22 141.44,484.56 137.34,484.22 133.22,483.88 129.12,483.41 125,482.78 120.88,481.59 116.78,480.19 115.56,479.75 112.66,478.47 108.53,476.62 104.44,474.59 102.78,473.84 100.31,472.69 96.188,470.94 92.094,469.34 87.969,468.38 86.406,468 83.844,467.34 79.75,466.22 75.625,464.84 71.5,463 69.812,462.19 67.406,461.06 63.281,459.09 59.188,457.25 57.125,456.47 55.062,455.66 50.938,454.06 46.844,452.38 43.125,450.75 42.719,450.56 38.594,448.41 34.5,446.22 32.469,445.12 30.375,443.97 26.25,441.69 22.156,439.78 21.562,439.5 18.031,437.62 " stroke="red" stroke-width="0.96875" stroke-linecap="round" stroke-linejoin="round" />
<polyline points="295.53,448.19 296.41,447.31 298.16,447.31 299.03,448.19 299.03,449.94 298.16,450.81 295.53,450.81 295.53,452.56 299.03,452.56 " stroke="red" stroke-width="0.71875" stroke-linecap="round" stroke-linejoin="round" />
<polyline points="301.66,448.19 302.53,447.31 304.28,447.31 305.16,448.19 305.16,449.94 304.28,450.81 301.66,450.81 301.66,452.56 305.16,452.56 " stroke="red" stroke-width="0.71875" stroke-linecap="round" stroke-linejoin="round" />
<polygon points="308.66,452.56 307.78,451.69 307.78,450.81 308.66,449.94 310.41,449.94 311.28,450.81 311.28,451.69 310.41,452.56 " stroke="red" stroke-width="0.71875" stroke-linejoin="round" />
<polyline points="308.66,449.94 307.78,449.06 307.78,448.19 308.66,447.31 310.41,447.31 311.28,448.19 311.28,449.06 310.41,449.94 " stroke="red" stroke-width="0.71875" stroke-linecap="round" stroke-linejoin="round" />
<polygon points="314.78,452.56 313.91,451.69 313.91,448.19 314.78,447.31 316.53,447.31 317.41,448.19 317.41,451.69 316.53,452.56 " stroke="red" stroke-width="0.71875" stroke-linejoin="round" />
<polyline points="594,508.5 590.59,510.06 589.88,510.38 585.78,512.81 581.66,514.19 577.53,515.38 573.75,516.28 573.44,516.34 569.31,517 565.19,517.12 561.09,517.06 556.97,516.88 552.88,516.59 548.75,516.41 546.91,516.28 544.62,516.12 540.53,515.72 536.41,515.12 532.28,514.25 528.19,513.22 524.06,511.97 519.94,510.59 518.38,510.06 515.84,509.12 511.72,507.56 507.59,506 503.5,504.41 502.12,503.88 499.38,502.78 495.25,501.09 491.16,499.31 487.78,497.75 487.03,497.38 482.91,495.12 478.81,492.78 476.94,491.69 474.69,490.38 470.56,488 466.47,486.09 465.59,485.69 462.34,484.16 458.25,482.16 454.12,480.03 453.69,479.75 450,477.34 445.91,474.69 444.53,473.84 441.78,472.09 437.66,469.62 434.94,468 433.56,467.19 429.44,464.72 425.31,462.34 425.06,462.19 421.22,459.97 417.09,457.84 414.28,456.47 412.97,455.81 408.88,453.78 404.75,451.88 402.5,450.75 400.62,449.84 396.53,447.84 392.41,445.91 390.72,445.12 388.31,443.97 384.19,442 380.06,440.12 378.66,439.5 375.97,438.25 371.84,436.44 367.72,434.72 365.78,433.97 363.62,433.03 359.5,431.5 355.38,430.12 351.28,429.09 348.16,428.44 347.16,428.22 343.03,427.5 338.94,426.97 334.81,426.66 330.69,426.47 327.72,426.47 " stroke="red" stroke-width="0.96875" stroke-linecap="round" stroke-linejoin="round" />
<polyline points="300.78,428.09 298.09,428.44 297.78,428.47 293.69,429.03 289.56,429.66 285.44,430.47 281.34,431.41 277.22,432.56 273.09,433.91 272.97,433.97 269,435.31 264.88,436.84 260.75,438.41 257.88,439.5 256.66,439.94 252.53,441.28 248.41,442.69 244.31,444.22 241.94,445.12 240.19,445.78 236.06,447.28 231.97,448.88 227.84,450.44 226.97,450.75 223.72,451.88 219.62,453.06 215.5,454.12 211.41,455.03 207.28,455.88 205.03,456.47 203.16,456.97 199.06,458.03 194.94,458.94 190.81,459.69 186.72,460.16 182.59,460.53 178.47,460.81 174.38,461.06 170.25,461.28 166.12,461.41 162.03,461.47 157.91,461.47 153.78,461.28 149.69,461.09 145.56,460.88 141.44,460.66 137.34,460.78 133.22,460.88 129.12,460.78 125,460.5 120.88,459.5 116.78,458.31 112.66,456.97 111.22,456.47 108.53,455.47 104.44,454 100.31,452.44 96.188,450.81 96.062,450.75 92.094,449 87.969,447.03 84.094,445.12 83.844,445 79.75,442.94 75.625,440.97 71.812,439.5 71.5,439.41 67.406,437.97 63.281,436.59 59.188,435.22 55.812,433.97 55.062,433.66 50.938,432 46.844,430.22 42.938,428.44 42.719,428.34 38.594,426.22 34.5,424.06 32.438,422.97 30.375,421.84 26.25,419.59 22.156,417.59 22,417.53 18.031,415.44 " stroke="red" stroke-width="0.96875" stroke-linecap="round" stroke-linejoin="round" />
<polyline points="303.75,425.06 304.62,424.19 306.38,424.19 307.25,425.06 307.25,426.81 306.38,427.69 303.75,427.69 303.75,429.44 307.25,429.44 " stroke="red" stroke-width="0.71875" stroke-linecap="round" stroke-linejoin="round" />
<polyline points="313.38,428.56 312.5,429.44 310.75,429.44 309.88,428.56 309.88,425.06 310.75,424.19 312.5,424.19 313.38,425.06 313.38,425.94 312.5,426.81 309.88,426.81 " stroke="red" stroke-width="0.71875" stroke-linecap="round" stroke-linejoin="round" />
<polyline points="317.75,429.44 316,426.81 319.5,426.81 319.5,429.44 319.5,424.19 " stroke="red" stroke-width="0.71875" stroke-linecap="round" stroke-linejoin="round" />
<polygon points="323,429.44 322.12,428.56 322.12,425.06 323,424.19 324.75,424.19 325.62,425.06 325.62,428.56 324.75,429.44 " stroke="red" stroke-width="0.71875" stroke-linejoin="round" />
<polyline points="594,404.41 593.41,406.78 592.28,412.16 590.81,417.53 589.88,421.25 589.44,422.97 588.06,428.44 586.59,433.97 585.78,436.25 584.41,439.5 581.78,445.12 581.66,445.34 578.5,450.75 577.53,452.25 574.44,456.47 573.44,457.69 569.31,462.06 569.19,462.19 565.19,465.56 561.91,468 561.09,468.56 556.97,470.97 552.88,472.94 550,473.84 548.75,474.19 544.62,474.88 540.53,475.19 536.41,475.16 532.28,474.72 528.19,474.12 526.44,473.84 524.06,473.47 519.94,472.78 515.84,472.44 511.72,472.06 507.59,471.53 503.5,470.81 499.38,469.69 495.25,468.38 494.22,468 491.16,466.84 487.03,465.22 482.91,463.5 479.84,462.19 478.81,461.75 474.69,459.94 470.56,458.09 467.09,456.47 466.47,456.16 462.34,454.03 458.25,452.06 455.31,450.75 454.12,450.22 450,448.62 445.91,447.09 441.78,445.53 440.75,445.12 437.66,443.81 433.56,441.66 429.62,439.5 429.44,439.41 425.31,437.09 421.22,434.88 419.12,433.97 417.09,433.06 412.97,431.28 408.88,429.53 406.34,428.44 404.75,427.72 400.62,425.72 396.53,423.72 395,422.97 392.41,421.62 388.31,419.5 384.78,417.53 384.19,417.19 380.06,414.81 375.97,412.47 375.34,412.16 371.84,410.28 367.72,408.44 363.75,406.78 363.62,406.75 359.5,405.12 355.38,403.59 351.28,402.03 349.81,401.47 347.16,400.44 343.03,398.84 342.03,398.44 " stroke="red" stroke-width="0.96875" stroke-linecap="round" stroke-linejoin="round" />
<polyline points="320.34,389 318.34,388.09 314.25,386.16 313.41,385.78 310.12,384.09 306.03,382 303.03,380.59 301.91,380.03 297.78,378.38 293.69,377.09 289.56,376.41 285.44,376.97 281.34,378.44 277.47,380.59 277.22,380.75 273.09,384 271.34,385.78 269,388.19 266.72,390.97 264.88,393.12 262.34,396.22 260.75,397.84 257.16,401.47 256.66,401.91 252.53,404.41 248.41,406.72 248.25,406.78 244.31,408.66 240.19,410.66 238,412.16 236.06,413.19 231.97,415.44 227.97,417.53 227.84,417.59 223.72,419.44 219.62,421 215.5,422.69 214.91,422.97 211.41,424.44 207.28,426.28 203.16,428.19 202.56,428.44 199.06,429.72 194.94,431 190.81,432.03 186.72,432.81 182.59,433.47 179.28,433.97 178.47,434.06 174.38,434.59 170.25,435.19 166.12,435.78 162.03,436.38 157.91,436.91 153.78,437.47 149.69,437.91 145.56,438.25 141.44,438.44 137.34,438.41 133.22,438.19 129.12,437.72 125,437 120.88,435.84 116.78,434.47 115.44,433.97 112.66,432.84 108.53,431.12 104.44,429.25 102.81,428.44 100.31,427.12 96.188,424.88 92.594,422.97 92.094,422.69 87.969,421.28 83.844,420.16 79.75,419.22 75.625,418.31 73.25,417.53 71.5,416.94 67.406,415.41 63.281,413.69 59.875,412.16 59.188,411.81 55.062,410.06 50.938,408.28 47.594,406.78 46.844,406.44 42.719,404.53 38.594,402.41 36.812,401.47 34.5,400.25 30.375,398 27,396.22 26.25,395.81 22.156,393.69 18.031,391.53 " stroke="red" stroke-width="0.96875" stroke-linecap="round" stroke-linejoin="round" />
<polyline points="320.19,391.97 321.06,391.09 322.81,391.09 323.69,391.97 323.69,393.72 322.81,394.59 320.19,394.59 320.19,396.34 323.69,396.34 " stroke="red" stroke-width="0.71875" stroke-linecap="round" stroke-linejoin="round" />
<polyline points="326.31,396.34 329.81,396.34 328.06,391.09 " stroke="red" stroke-width="0.71875" stroke-linecap="round" stroke-linejoin="round" />
<polygon points="333.31,396.34 332.44,395.47 332.44,391.97 333.31,391.09 335.06,391.09 335.94,391.97 335.94,395.47 335.06,396.34 " stroke="red" stroke-width="0.71875" stroke-linejoin="round" />
<polygon points="339.44,396.34 338.56,395.47 338.56,391.97 339.44,391.09 341.19,391.09 342.06,391.97 342.06,395.47 341.19,396.34 " stroke="red" stroke-width="0.71875" stroke-linejoin="round" />
<polyline points="594,336.22 590.09,340.41 589.88,340.59 585.78,345.16 585.66,345.31 582.16,350.28 581.66,351 579.06,355.25 577.53,357.97 576.34,360.25 573.88,365.28 573.44,366.22 571.44,370.38 569.31,375.38 569.28,375.47 566.81,380.59 565.19,383.91 564.25,385.78 561.5,390.97 561.09,391.69 558.34,396.22 556.97,398.34 554.81,401.47 552.88,404.12 551,406.78 548.75,409.84 546.97,412.16 544.62,415.03 542.44,417.53 540.53,419.56 536.88,422.97 536.41,423.38 532.28,426.25 528.19,428.41 528.12,428.44 524.06,429.84 519.94,430.69 515.84,430.81 511.72,430.56 507.59,429.91 503.5,429 501.62,428.44 499.38,427.75 495.25,426.38 491.16,424.88 487.03,423.34 486.03,422.97 482.91,421.78 478.81,420.22 474.69,418.72 471.22,417.53 470.56,417.31 466.47,416.25 462.34,415.28 458.25,414.31 454.12,413.31 450.03,412.16 450,412.16 445.91,410.91 441.78,409.66 437.66,408.34 433.56,407.06 432.72,406.78 429.44,405.69 425.31,404.19 421.22,402.59 418.97,401.47 417.09,400.53 412.97,398.31 409.03,396.22 408.88,396.12 404.75,393.97 400.62,392.47 396.53,391.06 396.25,390.97 392.41,389.53 388.31,387.81 384.69,385.78 384.19,385.47 380.06,383 375.97,380.69 375.78,380.59 371.84,378.41 367.72,376.41 365.78,375.47 363.62,374.34 359.5,372.19 356,370.38 355.38,370 351.28,367.59 347.31,365.28 347.16,365.19 343.03,362.66 339.09,360.25 338.94,360.16 334.81,357.69 331.34,355.78 " stroke="red" stroke-width="0.96875" stroke-linecap="round" stroke-linejoin="round" />
<polyline points="315.41,346.34 314.25,345.59 313.81,345.31 310.12,343.19 306.03,341.19 304.06,340.41 301.91,339.53 297.78,338.12 293.69,336.97 289.56,336.06 286.12,335.5 285.44,335.41 281.34,334.97 277.22,334.75 273.09,334.75 269,334.97 264.88,335.41 264.31,335.5 260.75,336.16 256.66,337.22 252.53,338.59 248.41,340.25 248.12,340.41 244.31,342.38 240.19,344.91 239.69,345.31 236.06,348.81 234.75,350.28 231.97,354.38 231.38,355.25 228.19,360.25 227.84,360.78 224.84,365.28 223.72,366.84 221.19,370.38 219.62,372.41 217.12,375.47 215.5,377.31 212.38,380.59 211.41,381.56 207.28,385.31 206.75,385.78 203.16,388.91 200.81,390.97 199.06,392.5 194.94,395.97 194.59,396.22 190.81,399 186.72,400.97 185.38,401.47 182.59,402.44 178.47,403.53 174.38,404.38 170.25,405.28 166.12,406.09 162.09,406.78 162.03,406.81 157.91,407.38 153.78,407.66 149.69,407.78 145.56,407.72 141.44,407.56 137.34,407.38 133.22,407.06 130.78,406.78 129.12,406.59 125,405.94 120.88,404.91 116.78,403.56 112.66,401.88 111.75,401.47 108.53,400 104.44,398.47 100.31,397.31 96.188,396.41 95.25,396.22 92.094,395.59 87.969,394.5 83.844,393.25 79.75,391.81 77.531,390.97 75.625,390.28 71.5,389.09 67.406,387.91 63.281,386.62 60.719,385.78 59.188,385.22 55.062,383.31 50.938,381.16 49.938,380.59 46.844,378.78 42.719,376.31 41.125,375.47 38.594,374.12 34.5,372.12 30.562,370.38 30.375,370.28 26.25,368.47 22.156,366.62 19.156,365.28 18.031,364.78 " stroke="red" stroke-width="0.96875" stroke-linecap="round" stroke-linejoin="round" />
<polyline points="311.97,349.31 312.84,348.44 314.59,348.44 315.47,349.31 315.47,351.06 314.59,351.94 311.97,351.94 311.97,353.69 315.47,353.69 " stroke="red" stroke-width="0.71875" stroke-linecap="round" stroke-linejoin="round" />
<polyline points="318.09,353.69 321.59,353.69 319.84,348.44 " stroke="red" stroke-width="0.71875" stroke-linecap="round" stroke-linejoin="round" />
<polyline points="327.72,352.81 326.84,353.69 325.09,353.69 324.22,352.81 324.22,349.31 325.09,348.44 326.84,348.44 327.72,349.31 327.72,350.19 326.84,351.06 324.22,351.06 " stroke="red" stroke-width="0.71875" stroke-linecap="round" stroke-linejoin="round" />
<polygon points="331.22,353.69 330.34,352.81 330.34,349.31 331.22,348.44 332.97,348.44 333.84,349.31 333.84,352.81 332.97,353.69 " stroke="red" stroke-width="0.71875" stroke-linejoin="round" />
<polyline points="556.09,247 556.03,247.03 552.88,249.25 549.91,251.5 548.75,252.5 544.91,256 544.62,256.25 540.53,259.94 539.88,260.5 536.41,263.59 534.78,265.03 532.28,267.34 529.84,269.59 528.19,271.28 525.28,274.16 524.06,275.91 522.03,278.75 519.94,282.28 519.34,283.34 517.34,287.97 515.88,292.62 515.84,293.06 515.34,297.31 515.47,302 515.84,303.62 516.66,306.72 519.28,311.44 519.94,312.22 521.78,316.22 523.47,321 524.06,323.62 524.44,325.81 524.72,330.66 524.06,334.72 523.94,335.5 522.66,340.41 521.09,345.31 519.94,348.41 519.16,350.28 516.97,355.25 515.84,357.41 513.97,360.25 511.72,362.97 509,365.28 507.59,366.25 503.5,367.94 499.38,368.09 495.25,367.53 491.16,366.47 487.66,365.28 487.03,365.06 482.91,363.38 478.81,361.66 475.34,360.25 474.69,359.97 470.56,358.22 466.47,357.19 462.34,356.25 458.25,355.31 458,355.25 454.12,354.16 450,352.34 445.91,350.44 445.5,350.28 441.78,348.69 437.66,347.16 433.56,346.03 430.41,345.31 429.44,345.09 425.31,344.28 421.22,343.59 417.09,343.5 412.97,343.31 408.88,342.88 404.75,342 401.5,340.41 400.62,339.94 396.53,337.38 393.62,335.5 392.41,334.72 388.31,332 385.94,330.66 384.19,329.69 380.06,327.59 376.12,325.81 375.97,325.72 371.84,323.84 367.72,321.66 366.5,321 363.62,319.38 359.5,317.06 358,316.22 355.38,314.66 351.28,312.25 349.84,311.44 347.16,309.66 343.72,307.53 " stroke="red" stroke-width="0.96875" stroke-linecap="round" stroke-linejoin="round" />
<polyline points="321.66,298.06 318.88,297.31 318.34,297.16 314.25,296.22 310.12,295.59 306.03,295.19 301.91,295 297.78,295 293.69,295.16 289.56,295.56 285.44,296.19 281.34,297.06 280.5,297.31 277.22,298.12 273.09,299.44 269,301.41 267.94,302 264.88,303.47 260.75,305.59 258.56,306.72 256.66,307.5 252.53,308.34 248.41,309.12 244.31,310.03 240.19,311.19 239.78,311.44 236.06,313.56 232.38,316.22 231.97,316.5 227.84,319.84 226.56,321 223.72,323.53 221.34,325.81 219.62,327.47 216.62,330.66 215.5,331.88 212.25,335.5 211.41,336.5 207.94,340.41 207.28,341.16 203.16,345.22 203.03,345.31 199.06,348.88 197.34,350.28 194.94,352.19 190.81,355.12 190.62,355.25 186.72,357.91 183.16,360.25 182.59,360.62 178.47,363.09 174.5,365.28 174.38,365.38 170.25,366.69 166.12,367.66 162.03,368.34 157.91,368.84 153.78,369.5 149.69,370.06 146.97,370.38 145.56,370.47 141.44,370.72 137.34,370.88 133.22,370.88 129.12,370.75 125,370.44 124.47,370.38 120.88,369.84 116.78,369.09 112.66,368.25 108.53,367.34 104.44,366.28 100.81,365.28 100.31,365.16 96.188,363.94 92.094,362.78 87.969,361.81 83.844,360.81 81.688,360.25 79.75,359.72 75.625,358.47 71.5,357 67.406,355.41 67,355.25 63.281,353.69 59.188,351.91 55.281,350.28 55.062,350.19 50.938,348.44 46.844,346.66 43.875,345.31 42.719,344.78 38.594,342.56 34.562,340.41 34.5,340.38 30.375,338.16 26.25,336.06 25,335.5 22.156,334.22 18.031,332.5 " stroke="red" stroke-width="0.96875" stroke-linecap="round" stroke-linejoin="round" />
<polyline points="324.31,301.06 325.19,300.19 326.94,300.19 327.81,301.06 327.81,302.81 326.94,303.69 324.31,303.69 324.31,305.44 327.81,305.44 " stroke="red" stroke-width="0.71875" stroke-linecap="round" stroke-linejoin="round" />
<polygon points="331.31,305.44 330.44,304.56 330.44,303.69 331.31,302.81 333.06,302.81 333.94,303.69 333.94,304.56 333.06,305.44 " stroke="red" stroke-width="0.71875" stroke-linejoin="round" />
<polyline points="331.31,302.81 330.44,301.94 330.44,301.06 331.31,300.19 333.06,300.19 333.94,301.06 333.94,301.94 333.06,302.81 " stroke="red" stroke-width="0.71875" stroke-linecap="round" stroke-linejoin="round" />
<polyline points="336.56,304.56 337.44,305.44 339.19,305.44 340.06,304.56 340.06,303.69 336.56,300.19 340.06,300.19 " stroke="red" stroke-width="0.71875" stroke-linecap="round" stroke-linejoin="round" />
<polygon points="343.56,305.44 342.69,304.56 342.69,301.06 343.56,300.19 345.31,300.19 346.19,301.06 346.19,304.56 345.31,305.44 " stroke="red" stroke-width="0.71875" stroke-linejoin="round" />
<polyline points="92.094,297.28 92.094,297.31 96.188,298.75 100.31,299.84 104.44,300.75 108.53,301.53 110,302 112.66,302.69 116.78,303.81 120.88,304.84 125,305.69 129.12,305.91 133.22,305.75 137.34,305.19 141.44,304.28 145.56,303.03 148.44,302 149.69,301.47 153.78,299.59 157.91,297.69 158.72,297.31 162.03,295.41 166.12,292.94 166.62,292.62 170.25,288.47 170.62,287.97 172.81,283.34 173.59,278.75 172.53,274.16 172.34,273.97 " stroke="red" stroke-width="0.96875" stroke-linecap="round" stroke-linejoin="round" />
<polyline points="152.66,267.16 149.69,267 145.56,266.81 141.44,266.59 137.34,265.97 133.22,265.28 131.84,265.03 129.12,264.56 125,263.88 120.88,263.66 116.78,263.62 112.66,263.75 108.53,264.12 104.44,264.59 101.66,265.03 100.31,265.28 96.188,266.16 92.094,267.25 87.969,268.59 85.969,269.59 83.844,271.59 82.188,274.16 81.5,278.75 82.312,283.34 83.844,287.41 84.031,287.97 86.688,292.62 87.969,293.88 92.094,297.28 " stroke="red" stroke-width="0.96875" stroke-linecap="round" stroke-linejoin="round" />
<polyline points="155.62,267.5 156.5,266.62 158.25,266.62 159.12,267.5 159.12,269.25 158.25,270.12 155.62,270.12 155.62,271.88 159.12,271.88 " stroke="red" stroke-width="0.71875" stroke-linecap="round" stroke-linejoin="round" />
<polygon points="162.62,271.88 161.75,271 161.75,270.12 162.62,269.25 164.38,269.25 165.25,270.12 165.25,271 164.38,271.88 " stroke="red" stroke-width="0.71875" stroke-linejoin="round" />
<polyline points="162.62,269.25 161.75,268.38 161.75,267.5 162.62,266.62 164.38,266.62 165.25,267.5 165.25,268.38 164.38,269.25 " stroke="red" stroke-width="0.71875" stroke-linecap="round" stroke-linejoin="round" />
<polygon points="168.75,271.88 167.88,271 167.88,270.12 168.75,269.25 170.5,269.25 171.38,270.12 171.38,271 170.5,271.88 " stroke="red" stroke-width="0.71875" stroke-linejoin="round" />
<polyline points="168.75,269.25 167.88,268.38 167.88,267.5 168.75,266.62 170.5,266.62 171.38,267.5 171.38,268.38 170.5,269.25 " stroke="red" stroke-width="0.71875" stroke-linecap="round" stroke-linejoin="round" />
<polygon points="174.88,271.88 174,271 174,267.5 174.88,266.62 176.62,266.62 177.5,267.5 177.5,271 176.62,271.88 " stroke="red" stroke-width="0.71875" stroke-linejoin="round" />
</g>
</svg>
