<?xml version="1.0" encoding="ISO-8859-1" standalone="no"?>
<!DOCTYPE svg PUBLIC "-//W3C//DTD SVG 1.1//EN" "http://www.w3.org/Graphics/SVG/1.1/DTD/svg11.dtd">
<svg version="1.1" baseProfile="full" id="body" width="900px" height="600px" viewBox="0 0.2 1 0.55" preserveAspectRatio="none" xmlns="http://www.w3.org/2000/svg" xmlns:xlink="http://www.w3.org/1999/xlink" xmlns:ev="http://www.w3.org/2001/xml-events">
<title>SVG drawing</title>
<desc>This was produced by version 4.2 of GNU libplot, a free library for exporting 2-D vector graphics.</desc>
<rect id="background" x="0" y="0" width="1" height="1" stroke="none" fill="none"/>
<g id="content" transform="translate(-0.03125,1.1875) scale(1,-1) scale(0.0017361) " xml:space="preserve" stroke="black" stroke-linecap="butt" stroke-linejoin="miter" stroke-miterlimit="10.433" stroke-dasharray="none" stroke-dashoffset="0" stroke-opacity="1" fill="none" fill-rule="even-odd" fill-opacity="1" font-style="normal" font-variant="normal" font-weight="normal" font-stretch="normal" font-size-adjust="none" letter-spacing="normal" word-spacing="normal" text-anchor="start">
<polyline points="41.969,568.66 41.969,568.62 39.562,561.84 38.594,559.88 36.969,556.75 " stroke="red" stroke-width="0.96875" stroke-linecap="round" stroke-linejoin="round" />
<polyline points="30.969,547.31 30.375,546.75 26.25,543.66 22.156,542.75 19.094,541.91 18.031,541.62 " stroke="red" stroke-width="0.96875" stroke-linecap="round" stroke-linejoin="round" />
<polyline points="24,550.28 24.875,549.41 26.625,549.41 27.5,550.28 27.5,552.03 26.625,552.91 24,552.91 24,554.66 27.5,554.66 " stroke="red" stroke-width="0.71875" stroke-linecap="round" stroke-linejoin="round" />
<polyline points="30.125,553.78 31,554.66 32.75,554.66 33.625,553.78 33.625,552.91 30.125,549.41 33.625,549.41 " stroke="red" stroke-width="0.71875" stroke-linecap="round" stroke-linejoin="round" />
<polyline points="36.25,553.78 37.125,554.66 38.875,554.66 39.75,553.78 39.75,552.91 36.25,549.41 39.75,549.41 " stroke="red" stroke-width="0.71875" stroke-linecap="round" stroke-linejoin="round" />
<polygon points="43.25,554.66 42.375,553.78 42.375,550.28 43.25,549.41 45,549.41 45.875,550.28 45.875,553.78 45,554.66 " stroke="red" stroke-width="0.71875" stroke-linejoin="round" />
<polyline points="85.281,568.66 85.25,568.62 83.844,567.22 79.75,562.09 79.562,561.84 75.625,555.19 75.594,555.12 73.344,548.47 71.5,544.66 70.75,543.16 " stroke="red" stroke-width="0.96875" stroke-linecap="round" stroke-linejoin="round" />
<polyline points="62.844,533.72 59.188,530.66 57.469,528.97 55.062,527.28 50.938,524.28 48.625,522.59 46.844,521.47 42.719,519.06 38.594,517.16 36.531,516.28 34.5,515.53 30.375,514.16 26.25,512.88 22.156,512.22 18.031,511.56 " stroke="red" stroke-width="0.96875" stroke-linecap="round" stroke-linejoin="round" />
<polyline points="56.906,536.69 57.781,535.81 59.531,535.81 60.406,536.69 60.406,538.44 59.531,539.31 56.906,539.31 56.906,541.06 60.406,541.06 " stroke="red" stroke-width="0.71875" stroke-linecap="round" stroke-linejoin="round" />
<polyline points="63.031,540.19 63.906,541.06 65.656,541.06 66.531,540.19 66.531,539.31 63.031,535.81 66.531,535.81 " stroke="red" stroke-width="0.71875" stroke-linecap="round" stroke-linejoin="round" />
<polygon points="70.031,541.06 69.156,540.19 69.156,539.31 70.031,538.44 71.781,538.44 72.656,539.31 72.656,540.19 71.781,541.06 " stroke="red" stroke-width="0.71875" stroke-linejoin="round" />
<polyline points="70.031,538.44 69.156,537.56 69.156,536.69 70.031,535.81 71.781,535.81 72.656,536.69 72.656,537.56 71.781,538.44 " stroke="red" stroke-width="0.71875" stroke-linecap="round" stroke-linejoin="round" />
<polygon points="76.156,541.06 75.281,540.19 75.281,536.69 76.156,535.81 77.906,535.81 78.781,536.69 78.781,540.19 77.906,541.06 " stroke="red" stroke-width="0.71875" stroke-linejoin="round" />
<polyline points="410.72,568.66 410.72,568.62 410.97,561.84 411.75,555.12 412.84,548.47 412.97,547.91 414.69,541.91 417.09,536.25 417.53,535.38 421.22,530.19 422.47,528.97 425.31,527.06 429.44,525.31 433.56,524.5 437.66,524.53 438.97,524.88 " stroke="red" stroke-width="0.96875" stroke-linecap="round" stroke-linejoin="round" />
<polyline points="456.28,534.31 457.62,535.38 458.25,535.91 462.34,539.59 464.78,541.91 466.47,543.5 470.56,547.66 471.31,548.47 474.69,552.31 477.12,555.12 478.81,557.03 482.91,561.72 483.03,561.84 487.03,566.34 489.12,568.62 489.16,568.66 " stroke="red" stroke-width="0.96875" stroke-linecap="round" stroke-linejoin="round" />
<polyline points="439.5,527.84 440.38,526.97 442.12,526.97 443,527.84 443,529.59 442.12,530.47 439.5,530.47 439.5,532.22 443,532.22 " stroke="red" stroke-width="0.71875" stroke-linecap="round" stroke-linejoin="round" />
<polyline points="445.62,531.34 446.5,532.22 448.25,532.22 449.12,531.34 449.12,530.47 445.62,526.97 449.12,526.97 " stroke="red" stroke-width="0.71875" stroke-linecap="round" stroke-linejoin="round" />
<polygon points="452.62,532.22 451.75,531.34 451.75,530.47 452.62,529.59 454.38,529.59 455.25,530.47 455.25,531.34 454.38,532.22 " stroke="red" stroke-width="0.71875" stroke-linejoin="round" />
<polyline points="452.62,529.59 451.75,528.72 451.75,527.84 452.62,526.97 454.38,526.97 455.25,527.84 455.25,528.72 454.38,529.59 " stroke="red" stroke-width="0.71875" stroke-linecap="round" stroke-linejoin="round" />
<polygon points="458.75,532.22 457.88,531.34 457.88,527.84 458.75,526.97 460.5,526.97 461.38,527.84 461.38,531.34 460.5,532.22 " stroke="red" stroke-width="0.71875" stroke-linejoin="round" />
<polyline points="140.25,568.66 140.22,568.62 137.34,566.31 133.22,562.53 132.53,561.84 129.12,558.59 125.34,555.12 125,554.84 120.88,552.84 116.78,551.19 112.66,549.69 109.59,548.47 108.53,548.06 104.44,545.38 101.16,541.91 100.31,540.88 97.062,535.38 96.188,533.88 96.094,533.69 " stroke="red" stroke-width="0.96875" stroke-linecap="round" stroke-linejoin="round" />
<polyline points="87,524.22 83.844,522.78 83.344,522.59 79.75,521.44 75.625,520.22 71.5,518.41 67.406,516.44 67.062,516.28 63.281,514.5 59.188,512.41 55.094,510.06 55.062,510.03 50.938,507.88 46.844,505.78 42.969,503.88 42.719,503.78 38.594,502.34 34.5,501.09 30.375,499.97 26.25,499 22.156,498.44 18.031,497.97 " stroke="red" stroke-width="0.96875" stroke-linecap="round" stroke-linejoin="round" />
<polyline points="83.219,527.22 84.094,526.34 85.844,526.34 86.719,527.22 86.719,528.97 85.844,529.84 83.219,529.84 83.219,531.59 86.719,531.59 " stroke="red" stroke-width="0.71875" stroke-linecap="round" stroke-linejoin="round" />
<polyline points="89.344,530.72 90.219,531.59 91.969,531.59 92.844,530.72 92.844,529.84 91.969,528.97 91.094,528.97 91.969,528.97 92.844,528.09 92.844,527.22 91.969,526.34 90.219,526.34 89.344,527.22 " stroke="red" stroke-width="0.71875" stroke-linecap="round" stroke-linejoin="round" />
<polyline points="97.219,531.59 95.469,528.97 98.969,528.97 98.969,531.59 98.969,526.34 " stroke="red" stroke-width="0.71875" stroke-linecap="round" stroke-linejoin="round" />
<polygon points="102.47,531.59 101.59,530.72 101.59,527.22 102.47,526.34 104.22,526.34 105.09,527.22 105.09,530.72 104.22,531.59 " stroke="red" stroke-width="0.71875" stroke-linejoin="round" />
<polyline points="382.06,568.66 382.06,568.62 383.03,561.84 384.03,555.12 384.19,554 384.91,548.47 386.09,541.91 387.88,535.38 388.31,534.28 390.19,528.97 392.41,524.81 393.66,522.59 396.53,518.69 398.47,516.28 400.62,514.06 404.75,510.34 405.06,510.06 408.88,507.06 412.97,504.34 413.84,503.88 417.09,502.25 421.22,500.75 425.31,500 429.44,499.75 433.44,499.94 " stroke="red" stroke-width="0.96875" stroke-linecap="round" stroke-linejoin="round" />
<polyline points="454.44,508.59 456.19,510.06 458.25,511.81 462.34,515.62 463.03,516.28 466.47,519.66 469.38,522.59 470.56,523.81 474.69,528.28 475.28,528.97 478.81,533.06 480.75,535.38 482.91,537.97 486.22,541.91 487.03,542.84 491.16,547.47 492.03,548.47 495.25,552.03 498.16,555.12 499.38,556.44 503.5,560.78 504.62,561.84 507.59,564.66 511.72,568.56 511.78,568.62 511.81,568.66 " stroke="red" stroke-width="0.96875" stroke-linecap="round" stroke-linejoin="round" />
<polyline points="436.41,502.12 437.28,501.25 439.03,501.25 439.91,502.12 439.91,503.88 439.03,504.75 436.41,504.75 436.41,506.5 439.91,506.5 " stroke="red" stroke-width="0.71875" stroke-linecap="round" stroke-linejoin="round" />
<polyline points="442.53,505.62 443.41,506.5 445.16,506.5 446.03,505.62 446.03,504.75 445.16,503.88 444.28,503.88 445.16,503.88 446.03,503 446.03,502.12 445.16,501.25 443.41,501.25 442.53,502.12 " stroke="red" stroke-width="0.71875" stroke-linecap="round" stroke-linejoin="round" />
<polyline points="450.41,506.5 448.66,503.88 452.16,503.88 452.16,506.5 452.16,501.25 " stroke="red" stroke-width="0.71875" stroke-linecap="round" stroke-linejoin="round" />
<polygon points="455.66,506.5 454.78,505.62 454.78,502.12 455.66,501.25 457.41,501.25 458.28,502.12 458.28,505.62 457.41,506.5 " stroke="red" stroke-width="0.71875" stroke-linejoin="round" />
<polyline points="171.56,568.66 171.53,568.62 170.25,567.66 166.12,564.53 162.5,561.84 162.03,561.47 157.91,558.53 153.78,555.97 152.47,555.12 149.69,553.22 145.56,549.94 143.94,548.47 141.44,546.09 137.34,542.44 136.62,541.91 133.22,539.62 129.12,537.47 125,535.75 123.94,535.38 120.88,534.47 118.5,533.69 " stroke="red" stroke-width="0.96875" stroke-linecap="round" stroke-linejoin="round" />
<polyline points="103.88,524.22 102.47,522.59 100.31,520.28 96.531,516.28 96.188,515.97 92.094,512.34 87.969,510.5 86.75,510.06 83.844,509.03 79.75,507.81 75.625,506.59 71.5,504.84 69.312,503.88 67.406,503.06 63.281,501.34 59.188,499.66 55.062,497.91 54.688,497.75 50.938,496.28 46.844,494.72 42.719,493.28 38.594,492.06 37.188,491.69 34.5,491 30.375,490.03 26.25,489.19 22.156,488.66 18.031,488.16 " stroke="red" stroke-width="0.96875" stroke-linecap="round" stroke-linejoin="round" />
<polyline points="97.906,527.22 98.781,526.34 100.53,526.34 101.41,527.22 101.41,528.97 100.53,529.84 97.906,529.84 97.906,531.59 101.41,531.59 " stroke="red" stroke-width="0.71875" stroke-linecap="round" stroke-linejoin="round" />
<polyline points="105.78,531.59 104.03,528.97 107.53,528.97 107.53,531.59 107.53,526.34 " stroke="red" stroke-width="0.71875" stroke-linecap="round" stroke-linejoin="round" />
<polygon points="111.03,531.59 110.16,530.72 110.16,527.22 111.03,526.34 112.78,526.34 113.66,527.22 113.66,530.72 112.78,531.59 " stroke="red" stroke-width="0.71875" stroke-linejoin="round" />
<polygon points="117.16,531.59 116.28,530.72 116.28,527.22 117.16,526.34 118.91,526.34 119.78,527.22 119.78,530.72 118.91,531.59 " stroke="red" stroke-width="0.71875" stroke-linejoin="round" />
<polyline points="335.88,568.66 335.91,568.62 338.94,565.53 342.06,561.84 343.03,560.56 346.72,555.12 347.16,554.16 349.44,548.47 351.28,542.91 351.56,541.91 353.44,535.38 355.38,528.97 357.78,522.59 359.5,518.56 360.47,516.28 363.59,510.06 363.62,510 367.56,503.88 367.72,503.69 371.84,499.72 374.56,497.75 375.97,496.81 380.06,494.25 384.03,491.69 384.19,491.59 388.31,489.09 392.41,486.69 394.31,485.69 396.53,484.62 400.62,483 404.75,481.66 408.88,480.59 412.97,479.84 414.19,479.75 415.97,479.56 " stroke="red" stroke-width="0.96875" stroke-linecap="round" stroke-linejoin="round" />
<polyline points="442.91,483.66 445.91,484.81 447.75,485.69 450,486.78 454.12,489.16 457.34,491.69 458.25,492.41 462.34,496.12 464.06,497.75 466.47,500.09 470.22,503.88 470.56,504.22 474.69,508.22 476.53,510.06 478.81,512.38 482.47,516.28 482.91,516.78 487.03,521.44 488.09,522.59 491.16,526 493.81,528.97 495.25,530.56 499.38,535 499.75,535.38 503.5,539.28 506.22,541.91 507.59,543.19 511.72,546.84 513.62,548.47 515.84,550.34 519.94,553.84 521.22,555.12 524.06,558.16 527.47,561.84 528.19,562.62 532.28,566.94 534,568.62 534.03,568.66 " stroke="red" stroke-width="0.96875" stroke-linecap="round" stroke-linejoin="round" />
<polyline points="418.94,478.34 419.81,477.47 421.56,477.47 422.44,478.34 422.44,480.09 421.56,480.97 418.94,480.97 418.94,482.72 422.44,482.72 " stroke="red" stroke-width="0.71875" stroke-linecap="round" stroke-linejoin="round" />
<polyline points="426.81,482.72 425.06,480.09 428.56,480.09 428.56,482.72 428.56,477.47 " stroke="red" stroke-width="0.71875" stroke-linecap="round" stroke-linejoin="round" />
<polygon points="432.06,482.72 431.19,481.84 431.19,478.34 432.06,477.47 433.81,477.47 434.69,478.34 434.69,481.84 433.81,482.72 " stroke="red" stroke-width="0.71875" stroke-linejoin="round" />
<polygon points="438.19,482.72 437.31,481.84 437.31,478.34 438.19,477.47 439.94,477.47 440.81,478.34 440.81,481.84 439.94,482.72 " stroke="red" stroke-width="0.71875" stroke-linejoin="round" />
<polyline points="561.88,568.66 561.84,568.62 561.09,568.06 556.97,565.09 552.88,562.06 552.53,561.84 548.75,559.09 544.62,556.03 543.47,555.12 540.53,552.72 536.41,549.22 535.66,548.47 532.28,545.22 528.72,541.91 528.19,541.41 524.06,537.72 521.34,535.38 519.94,534.19 515.84,530.66 513.94,528.97 511.72,526.78 507.59,522.59 503.5,518.22 501.66,516.28 499.38,513.88 495.69,510.06 495.25,509.59 491.16,505.44 489.56,503.88 487.03,501.53 483.03,497.75 482.91,497.66 478.81,493.84 476.5,491.69 474.69,490.03 470.56,486.28 469.97,485.69 466.47,482.47 463.38,479.75 462.34,478.91 458.25,475.84 455.31,473.84 454.12,473.06 450,470.41 446.41,468 445.91,467.66 441.78,464.91 437.66,462.22 437.59,462.19 433.56,460.88 429.44,460.03 425.31,459.62 421.22,459.59 417.09,459.62 412.97,459.88 408.88,460.31 404.75,460.94 400.62,461.53 397.12,462.19 396.53,462.31 392.41,463.41 388.31,464.78 384.19,466.62 381.62,468 380.06,468.97 375.97,471.84 373.34,473.84 371.84,475.06 367.72,478.09 365.31,479.75 363.62,480.88 359.5,483.84 357.19,485.69 355.38,487.34 351.28,491.69 347.16,496.56 346.16,497.75 343.03,501.62 341.19,503.88 338.94,507.03 336.81,510.06 334.81,513.06 332.53,516.28 330.69,518.88 327.81,522.59 326.59,524.16 326.53,524.22 " stroke="red" stroke-width="0.96875" stroke-linecap="round" stroke-linejoin="round" />
<polyline points="318.97,533.69 318.34,534.5 317.66,535.38 314.25,539.72 312.41,541.91 310.12,544.5 306.31,548.47 306.03,548.78 301.91,552.62 299.06,555.12 297.78,556.22 293.69,559.56 290.56,561.84 289.56,562.56 285.44,564.88 281.34,566.81 277.22,568.44 276.59,568.62 276.5,568.66 " stroke="red" stroke-width="0.96875" stroke-linecap="round" stroke-linejoin="round" />
<polyline points="219.5,568.66 219.34,568.62 215.5,567.69 211.41,566.5 207.28,565.19 203.16,564.03 199.06,562.78 196.22,561.84 194.94,561.41 190.81,559.84 186.72,557.78 182.59,555.53 181.88,555.12 178.47,553.16 174.38,550.72 170.62,548.47 170.25,548.25 166.12,545.78 162.03,543.28 159.88,541.91 157.91,540.62 153.78,537.09 152.03,535.38 149.69,533 145.81,528.97 145.56,528.75 141.44,525.66 137.34,523.97 133.34,522.59 133.22,522.53 129.12,521.28 125,520.03 120.88,518.97 116.78,517.69 113.25,516.28 112.66,516.06 108.53,513.94 104.44,510.09 104.38,510.06 100.31,506.25 97.5,503.88 96.188,502.72 92.094,499.62 87.969,497.94 87.375,497.75 83.844,496.56 79.75,495.34 75.625,494.19 71.5,492.81 68.188,491.69 67.406,491.44 63.281,490.09 59.188,488.78 55.062,487.34 50.938,485.94 50.125,485.69 46.844,484.59 42.719,483.31 38.594,482.25 34.5,481.28 30.375,480.44 26.781,479.75 26.25,479.59 22.156,478.69 18.031,477.84 " stroke="red" stroke-width="0.96875" stroke-linecap="round" stroke-linejoin="round" />
<polyline points="311.97,527.22 312.84,526.34 314.59,526.34 315.47,527.22 315.47,528.97 314.59,529.84 311.97,529.84 311.97,531.59 315.47,531.59 " stroke="red" stroke-width="0.71875" stroke-linecap="round" stroke-linejoin="round" />
<polyline points="319.84,531.59 318.09,528.97 321.59,528.97 321.59,531.59 321.59,526.34 " stroke="red" stroke-width="0.71875" stroke-linecap="round" stroke-linejoin="round" />
<polyline points="327.72,530.72 326.84,531.59 325.09,531.59 324.22,530.72 324.22,527.22 325.09,526.34 326.84,526.34 327.72,527.22 327.72,528.09 326.84,528.97 324.22,528.97 " stroke="red" stroke-width="0.71875" stroke-linecap="round" stroke-linejoin="round" />
<polygon points="331.22,531.59 330.34,530.72 330.34,527.22 331.22,526.34 332.97,526.34 333.84,527.22 333.84,530.72 332.97,531.59 " stroke="red" stroke-width="0.71875" stroke-linejoin="round" />
<polyline points="594,565.38 589.88,563.25 587,561.84 585.78,561.22 581.66,558.78 577.53,556.34 575.47,555.12 573.44,553.84 569.31,551.19 565.31,548.47 565.19,548.38 561.09,545.41 556.97,542.44 556.25,541.91 552.88,539.34 548.75,536.28 547.56,535.38 544.62,533.09 540.53,529.88 539.34,528.97 536.41,526.72 532.28,523.59 531,522.59 528.19,520.38 524.06,517 523.22,516.28 519.94,513.38 516.47,510.06 515.84,509.44 511.72,505.31 510.28,503.88 507.59,501.25 503.84,497.75 503.5,497.44 499.38,493.81 496.94,491.69 495.25,490.28 491.16,486.88 489.72,485.69 487.03,483.5 482.91,479.97 482.66,479.75 478.81,476.47 475.66,473.84 474.69,473.06 470.56,469.72 468.31,468 466.47,466.66 462.34,463.84 459.81,462.19 458.25,461.22 454.12,458.69 451.12,456.47 450,455.69 445.91,453.03 441.78,450.78 441.75,450.75 437.66,449 433.56,447.78 429.44,446.75 425.31,445.84 421.38,445.12 421.22,445.09 417.09,444.53 412.97,444.25 408.88,444.28 404.75,444.69 402.91,445.12 400.62,445.66 396.53,446.84 392.41,448.09 388.31,449.31 384.19,450.44 383.06,450.75 380.06,451.69 375.97,453.19 371.84,454.94 369.38,456.47 367.72,457.78 363.62,461.19 362.38,462.19 359.5,464.53 355.38,467.62 354.84,468 351.28,470.62 347.16,473.75 347.03,473.84 343.03,477.19 340.16,479.75 338.94,480.97 334.81,485 334.09,485.69 330.88,489.12 " stroke="red" stroke-width="0.96875" stroke-linecap="round" stroke-linejoin="round" />
<polyline points="322.44,498.56 318.34,503.06 317.59,503.88 314.25,507.41 311.59,510.06 310.12,511.56 306.03,515.53 305.06,516.28 301.91,518.88 297.78,521.94 296.81,522.59 293.69,524.75 289.56,527.25 286.03,528.97 285.44,529.25 281.34,531 277.22,532.56 273.09,533.94 269.34,535.38 269,535.53 264.88,536.94 260.75,538.16 256.66,539.16 252.53,539.88 248.41,540.44 244.31,540.91 240.19,541.28 236.06,541.84 235.72,541.91 231.97,542.31 227.84,542.59 223.72,542.66 219.62,542.16 218.03,541.91 215.5,541.47 211.41,540.69 207.28,539.88 203.16,539.56 199.06,539.22 194.94,538.72 190.81,537.97 186.72,536.59 183.66,535.38 182.59,534.97 178.47,533.19 174.38,531.28 170.25,529.44 169.28,528.97 166.12,527.16 162.03,524.41 159.66,522.59 157.91,521.19 153.78,517.62 151.91,516.28 149.69,514.84 145.56,512.72 141.44,511.06 138.56,510.06 137.34,509.59 133.22,508.09 129.12,506.53 125,504.91 121.38,503.88 120.88,503.72 116.78,502.16 112.66,500.28 108.53,497.91 108.34,497.75 104.44,494.31 101.09,491.69 100.31,491.09 96.188,488.41 92.094,486.28 90.312,485.69 87.969,484.88 83.844,483.66 79.75,482.53 75.625,481.5 71.5,480.5 68.25,479.75 67.406,479.5 63.281,478.31 59.188,477.12 55.062,475.69 50.938,474.28 49.625,473.84 46.844,472.84 42.719,471.47 38.594,470.25 34.5,469.09 30.5,468 30.375,467.97 26.25,466.75 22.156,465.91 18.031,465 " stroke="red" stroke-width="0.96875" stroke-linecap="round" stroke-linejoin="round" />
<polyline points="316.09,492.09 316.97,491.22 318.72,491.22 319.59,492.09 319.59,493.84 318.72,494.72 316.09,494.72 316.09,496.47 319.59,496.47 " stroke="red" stroke-width="0.71875" stroke-linecap="round" stroke-linejoin="round" />
<polyline points="322.22,492.09 323.09,491.22 324.84,491.22 325.72,492.09 325.72,493.84 324.84,494.72 322.22,494.72 322.22,496.47 325.72,496.47 " stroke="red" stroke-width="0.71875" stroke-linecap="round" stroke-linejoin="round" />
<polyline points="328.34,495.59 329.22,496.47 330.97,496.47 331.84,495.59 331.84,494.72 328.34,491.22 331.84,491.22 " stroke="red" stroke-width="0.71875" stroke-linecap="round" stroke-linejoin="round" />
<polygon points="335.34,496.47 334.47,495.59 334.47,492.09 335.34,491.22 337.09,491.22 337.97,492.09 337.97,495.59 337.09,496.47 " stroke="red" stroke-width="0.71875" stroke-linejoin="round" />
<polyline points="594,538.38 589.88,536.38 587.69,535.38 585.78,534.47 581.66,532.06 577.53,529.62 576.47,528.97 573.44,527.03 569.31,524.38 566.59,522.59 565.19,521.66 561.09,518.78 557.44,516.28 556.97,515.97 552.88,513.09 548.75,510.62 547.78,510.06 544.62,508.19 540.53,505.81 537.25,503.88 536.41,503.34 532.28,500.19 529.31,497.75 528.19,496.81 524.06,493.25 522.28,491.69 519.94,489.66 515.84,486.22 515.16,485.69 511.72,482.97 507.59,479.91 507.38,479.75 503.5,476.81 499.38,473.88 499.34,473.84 495.25,471 491.16,468.25 490.78,468 487.03,465.5 482.91,462.44 482.62,462.19 478.81,459.31 474.88,456.47 474.69,456.31 470.56,453.38 466.47,451 466.03,450.75 462.34,448.78 458.25,446.69 454.91,445.12 454.12,444.75 450,442.69 445.91,440.94 442.03,439.5 441.78,439.44 437.66,438.06 433.56,436.62 429.44,435.16 425.91,433.97 425.31,433.72 421.22,432.44 417.09,431.62 412.97,431.12 408.88,430.97 404.75,431.16 400.62,432.19 396.53,433.62 395.69,433.97 392.41,435.31 388.31,436.97 384.19,438.22 380.06,439.47 379.91,439.5 375.97,440.66 371.84,441.97 367.72,443.59 364.53,445.12 363.62,445.59 359.5,447.94 355.38,450.75 355.34,450.75 351.28,453.34 347.16,456.06 346.53,456.47 343.03,458.56 338.94,461.09 337.09,462.19 334.81,463.62 333.75,464.31 " stroke="red" stroke-width="0.96875" stroke-linecap="round" stroke-linejoin="round" />
<polyline points="319.84,473.75 319.72,473.84 318.34,474.84 314.25,477.84 311.62,479.75 310.12,480.88 306.03,483.94 303.44,485.69 301.91,486.72 297.78,489.31 293.78,491.69 293.69,491.75 289.56,493.97 285.44,496.19 282.28,497.75 281.34,498.22 277.22,500.09 273.09,501.91 269.41,503.88 269,504.09 264.88,506.12 260.75,508.03 256.66,509.75 255.62,510.06 252.53,510.91 248.41,511.81 244.31,512.59 240.19,513.22 236.06,514 231.97,514.69 227.84,515.19 223.72,515.44 219.62,515.09 215.5,514.56 211.41,513.94 207.28,513.38 203.16,513.31 199.06,513.28 194.94,513.19 190.81,512.94 186.72,512.53 182.59,511.88 178.47,510.94 175.75,510.06 174.38,509.59 170.25,506.91 166.25,503.88 166.12,503.78 162.03,500.72 157.91,498.06 156.97,497.75 153.78,496.66 149.69,495.38 145.56,494.16 141.44,492.88 138.03,491.69 137.34,491.44 133.22,489.97 129.12,488.59 125,487.16 121.5,485.69 120.88,485.41 116.78,483.25 112.66,480.84 110.84,479.75 108.53,478.41 104.44,476.22 100.31,474.25 99.406,473.84 96.188,472.38 92.094,470.69 87.969,469.19 84.531,468 83.844,467.75 79.75,466.28 75.625,464.94 71.5,463.84 67.406,462.88 64.438,462.19 63.281,461.94 59.188,460.94 55.062,459.75 50.938,458.59 46.844,457.44 43.312,456.47 42.719,456.25 38.594,454.75 34.5,453.31 30.375,451.94 26.625,450.75 26.25,450.66 22.156,449.62 18.031,448.59 " stroke="red" stroke-width="0.96875" stroke-linecap="round" stroke-linejoin="round" />
<polyline points="316.09,467.28 316.97,466.41 318.72,466.41 319.59,467.28 319.59,469.03 318.72,469.91 316.09,469.91 316.09,471.66 319.59,471.66 " stroke="red" stroke-width="0.71875" stroke-linecap="round" stroke-linejoin="round" />
<polyline points="322.22,467.28 323.09,466.41 324.84,466.41 325.72,467.28 325.72,469.03 324.84,469.91 322.22,469.91 322.22,471.66 325.72,471.66 " stroke="red" stroke-width="0.71875" stroke-linecap="round" stroke-linejoin="round" />
<polygon points="329.22,471.66 328.34,470.78 328.34,469.91 329.22,469.03 330.97,469.03 331.84,469.91 331.84,470.78 330.97,471.66 " stroke="red" stroke-width="0.71875" stroke-linejoin="round" />
<polyline points="329.22,469.03 328.34,468.16 328.34,467.28 329.22,466.41 330.97,466.41 331.84,467.28 331.84,468.16 330.97,469.03 " stroke="red" stroke-width="0.71875" stroke-linecap="round" stroke-linejoin="round" />
<polygon points="335.34,471.66 334.47,470.78 334.47,467.28 335.34,466.41 337.09,466.41 337.97,467.28 337.97,470.78 337.09,471.66 " stroke="red" stroke-width="0.71875" stroke-linejoin="round" />
<polyline points="594,503.47 589.88,501.19 585.78,499.59 581.97,497.75 581.66,497.59 577.53,495.47 573.44,493.38 570.06,491.69 569.31,491.31 565.19,489.28 561.09,487.41 557.19,485.69 556.97,485.59 552.88,483.69 548.75,481.62 545.25,479.75 544.62,479.38 540.53,476.84 536.41,474.25 535.78,473.84 532.28,471.53 528.19,468.84 526.88,468 524.06,466.19 519.94,463.56 517.78,462.19 515.84,460.97 511.72,458.41 508.5,456.47 507.59,455.94 503.5,453.56 499.38,451.53 497.84,450.75 495.25,449.41 491.16,447.16 487.62,445.12 487.03,444.78 482.91,442.12 478.81,439.72 478.44,439.5 474.69,437.5 470.56,435.53 466.72,433.97 466.47,433.84 462.34,432.12 458.25,430.5 454.12,429 452.25,428.44 450,427.75 445.91,426.56 441.78,425.47 437.66,424.41 433.56,423.06 433.22,422.97 429.44,421.78 425.31,420.75 421.22,419.97 417.09,419.53 412.97,419.28 408.88,419.22 404.75,419.31 400.62,419.78 396.53,420.44 392.41,421.38 388.31,422.56 386.72,422.97 384.19,423.59 380.06,424.69 375.97,425.81 371.84,426.97 367.72,428.09 366.47,428.44 363.62,429.16 359.5,430.25 355.38,431.44 351.28,432.84 348.28,433.97 347.16,434.38 343.03,435.97 338.94,437.69 334.81,439.38 334.5,439.5 330.69,441.06 329.59,441.53 " stroke="red" stroke-width="0.96875" stroke-linecap="round" stroke-linejoin="round" />
<polyline points="307,450.97 306.03,451.38 301.91,453.19 297.78,455 294.56,456.47 293.69,456.88 289.56,458.91 285.44,461.22 283.72,462.19 281.34,463.59 277.22,466 273.78,468 273.09,468.38 269,470.62 264.88,472.81 262.91,473.84 260.75,474.94 256.66,476.94 252.53,478.81 250.22,479.75 248.41,480.44 244.31,481.84 240.19,483 236.06,483.84 231.97,484.53 227.84,485.03 223.72,485.41 219.62,485.53 215.5,485.56 211.41,485.47 207.28,485.28 203.16,485.09 199.06,484.84 194.94,484.5 190.81,484.12 186.72,483.81 182.59,483.38 178.47,482.69 174.38,481.69 170.25,480.16 169.16,479.75 166.12,478.62 162.03,477.12 157.91,475.62 153.78,473.97 153.47,473.84 149.69,472.28 145.56,470.69 141.44,469.25 137.34,468.5 134.28,468 133.22,467.81 129.12,467 125,465.97 120.88,464.16 116.78,462.28 116.62,462.19 112.66,460.28 108.53,458.34 104.44,456.5 104.31,456.47 100.31,454.5 96.188,452.59 92.156,450.75 92.094,450.72 87.969,448.56 83.844,446.34 81.469,445.12 79.75,444.16 75.625,442.12 71.5,441.19 67.406,440.53 63.281,440 59.688,439.5 59.188,439.44 55.062,438.09 50.938,436.5 46.844,434.75 44.969,433.97 42.719,432.97 38.594,431.59 34.5,430.31 30.375,429.06 28.125,428.44 26.25,427.88 22.156,426.78 18.031,425.69 " stroke="red" stroke-width="0.96875" stroke-linecap="round" stroke-linejoin="round" />
<polyline points="307.84,444.5 308.72,443.62 310.47,443.62 311.34,444.5 311.34,446.25 310.47,447.12 307.84,447.12 307.84,448.88 311.34,448.88 " stroke="red" stroke-width="0.71875" stroke-linecap="round" stroke-linejoin="round" />
<polyline points="317.47,448 316.59,448.88 314.84,448.88 313.97,448 313.97,444.5 314.84,443.62 316.59,443.62 317.47,444.5 317.47,445.38 316.59,446.25 313.97,446.25 " stroke="red" stroke-width="0.71875" stroke-linecap="round" stroke-linejoin="round" />
<polyline points="321.84,448.88 320.09,446.25 323.59,446.25 323.59,448.88 323.59,443.62 " stroke="red" stroke-width="0.71875" stroke-linecap="round" stroke-linejoin="round" />
<polygon points="327.09,448.88 326.22,448 326.22,444.5 327.09,443.62 328.84,443.62 329.72,444.5 329.72,448 328.84,448.88 " stroke="red" stroke-width="0.71875" stroke-linejoin="round" />
<polyline points="594,446.84 589.88,448.31 585.78,449.59 581.66,449.28 577.53,448.75 573.44,448.06 569.31,447.31 565.19,446.59 561.09,445.78 557.88,445.12 556.97,444.91 552.88,443.97 548.75,443.22 544.62,442.38 540.53,441.44 536.41,440.31 534.41,439.5 532.28,438.62 528.19,436.78 524.06,434.94 521.84,433.97 519.94,433.16 515.84,431.81 511.72,430.5 507.59,429.19 505.44,428.44 503.5,427.75 499.38,425.88 495.25,423.97 493.09,422.97 491.16,422.06 487.03,420.22 482.91,418.62 480,417.53 478.81,417.09 474.69,415.56 470.56,414.03 466.47,412.31 466.03,412.16 462.34,410.62 458.25,409.06 454.12,407.69 450.53,406.78 450,406.66 445.91,405.69 441.78,404.81 437.66,404 433.56,403.19 429.44,402.5 425.31,401.97 421.22,401.56 417.09,401.56 412.97,401.66 408.88,401.81 404.75,401.97 400.62,401.81 396.53,401.62 393.62,401.47 392.41,401.41 388.31,401.22 384.19,401.19 380.06,401.25 375.97,401.44 375.5,401.47 371.84,401.75 367.72,402.34 363.62,403.03 359.5,403.84 355.38,404.72 351.28,405.59 347.16,406.5 346,406.78 343.03,407.47 338.94,408.44 334.81,409.47 330.69,410.56 326.59,411.78 325.38,412.16 322.47,413.03 318.34,414.38 314.25,415.84 312.75,416.44 " stroke="red" stroke-width="0.96875" stroke-linecap="round" stroke-linejoin="round" />
<polyline points="292.62,425.88 289.56,427.47 287.69,428.44 285.44,429.56 281.34,431.69 277.22,433.88 277.09,433.97 273.09,436 269,438.09 266.22,439.5 264.88,440.16 260.75,442.19 256.66,444.19 254.91,445.12 252.53,446.38 248.41,448.66 244.56,450.75 244.31,450.91 240.19,452.81 236.06,453.66 231.97,454.06 227.84,454.25 223.72,454.34 219.62,454.75 215.5,455.16 211.41,455.47 207.28,455.72 203.16,455.78 199.06,455.72 194.94,455.53 190.81,455.16 186.72,454.59 182.59,453.97 178.47,453.28 174.38,452.59 170.25,451.97 166.12,451.31 163.22,450.75 162.03,450.53 157.91,449.66 153.78,448.56 149.69,447.47 145.56,446.41 141.44,445.38 140.34,445.12 137.34,444.38 133.22,443.25 129.12,442 125,440.59 122.38,439.5 120.88,438.88 116.78,437.03 112.66,435.12 110.16,433.97 108.53,433.19 104.44,431.25 100.31,429.16 99,428.44 96.188,426.81 92.094,424.44 89.219,422.97 87.969,422.41 83.844,420.84 79.75,419.69 75.625,418.78 71.5,418.16 67.625,417.53 67.406,417.5 63.281,416.66 59.188,415.5 55.062,413.44 52.812,412.16 50.938,411.03 46.844,408.59 43.719,406.78 42.719,406.25 38.594,404.38 34.5,402.66 31.406,401.47 30.375,401.09 26.25,399.62 22.156,398.38 18.031,397.19 " stroke="red" stroke-width="0.96875" stroke-linecap="round" stroke-linejoin="round" />
<polyline points="291.41,419.41 292.28,418.53 294.03,418.53 294.91,419.41 294.91,421.16 294.03,422.03 291.41,422.03 291.41,423.78 294.91,423.78 " stroke="red" stroke-width="0.71875" stroke-linecap="round" stroke-linejoin="round" />
<polyline points="297.53,423.78 301.03,423.78 299.28,418.53 " stroke="red" stroke-width="0.71875" stroke-linecap="round" stroke-linejoin="round" />
<polygon points="304.53,423.78 303.66,422.91 303.66,419.41 304.53,418.53 306.28,418.53 307.16,419.41 307.16,422.91 306.28,423.78 " stroke="red" stroke-width="0.71875" stroke-linejoin="round" />
<polygon points="310.66,423.78 309.78,422.91 309.78,419.41 310.66,418.53 312.41,418.53 313.28,419.41 313.28,422.91 312.41,423.78 " stroke="red" stroke-width="0.71875" stroke-linejoin="round" />
<polyline points="594,349.38 593.62,350.28 592.12,355.25 590.56,360.25 589.88,362.31 588.88,365.28 587,370.38 585.78,372.88 584.31,375.47 581.66,379.47 580.78,380.59 577.53,384.25 575.88,385.78 573.44,387.78 569.31,390.44 568.09,390.97 565.19,392.16 561.09,393.34 556.97,394.12 552.88,394.56 548.75,394.88 544.62,394.97 540.53,394.94 536.41,394.78 532.28,394.59 528.19,394.31 524.06,393.97 519.94,393.56 515.84,393.22 511.72,392.84 507.59,392.41 503.5,391.88 499.38,391.19 498.19,390.97 495.25,390.34 491.16,389.41 487.03,388.34 482.91,387.34 478.81,386.28 476.81,385.78 474.69,385.16 470.56,383.94 466.47,382.62 462.34,381.34 459.81,380.59 458.25,380.09 454.12,378.84 450,377.59 445.91,376.47 441.78,375.47 441.69,375.47 437.66,374.5 433.56,373.66 429.44,372.88 425.31,372.09 421.22,371.31 417.09,370.41 416.88,370.38 412.97,369.12 408.88,367.66 404.75,366 403.31,365.28 400.62,363.94 396.53,362.03 392.41,360.44 391.91,360.25 388.31,359 384.19,357.97 380.06,356.94 375.97,355.75 374.44,355.25 371.84,354.19 367.72,352.41 363.62,350.66 362.66,350.28 359.5,348.5 355.38,345.78 354.94,345.31 351.53,340.41 351.28,339.94 349.19,335.5 347.16,330.84 347.09,330.66 343.53,325.81 343.03,325.25 338.94,321.44 337.94,321 334.81,319.94 330.69,319.56 326.59,320.22 324.78,321 323.66,321.56 " stroke="red" stroke-width="0.96875" stroke-linecap="round" stroke-linejoin="round" />
<polyline points="315.69,331 314.72,335.5 314.31,340.41 314.31,345.31 314.44,350.28 314.5,355.25 314.25,360.25 314.25,360.28 313.41,365.28 311.34,370.38 310.12,371.84 307.09,375.47 306.03,376.47 301.91,380.59 297.78,384.03 295.69,385.78 293.69,387.22 289.56,390.06 288.09,390.97 285.44,392.38 281.34,394.59 278.28,396.22 277.22,396.75 273.09,398.84 269,401.12 268.28,401.47 264.88,403.19 260.75,405.12 256.97,406.78 256.66,406.94 252.53,408.41 248.41,409.94 244.31,411.56 242.94,412.16 240.19,413.34 236.06,415.81 233.12,417.53 231.97,418.19 227.84,420.25 223.72,421.94 219.62,422.5 215.5,422.69 211.41,422.56 207.28,422.25 203.16,422.38 199.06,422.44 194.94,422.44 190.81,422.34 186.72,422.12 182.59,421.78 178.47,421.38 174.38,420.84 170.25,420.31 166.12,419.75 162.03,419.16 157.91,418.47 153.78,417.59 153.53,417.53 149.69,416.56 145.56,415.41 141.44,414.16 137.34,413.19 133.22,412.25 132.72,412.16 129.12,411.34 125,410.38 120.88,409.16 116.78,407.78 114.12,406.78 112.66,406.25 108.53,404.59 104.44,402.81 100.91,401.47 100.31,401.28 96.188,400 92.094,398.94 87.969,398.16 83.844,397.34 79.75,396.44 78.781,396.22 75.625,395.38 71.5,394.09 67.406,392.66 63.281,391.06 63.062,390.97 59.188,389.41 55.062,387.56 51.031,385.78 50.938,385.72 46.844,383.94 42.719,382.22 38.656,380.59 38.594,380.59 34.5,378.97 30.375,377.44 26.25,375.94 24.906,375.47 22.156,374.53 18.031,373.16 " stroke="red" stroke-width="0.96875" stroke-linecap="round" stroke-linejoin="round" />
<polyline points="307.84,324.53 308.72,323.66 310.47,323.66 311.34,324.53 311.34,326.28 310.47,327.16 307.84,327.16 307.84,328.91 311.34,328.91 " stroke="red" stroke-width="0.71875" stroke-linecap="round" stroke-linejoin="round" />
<polyline points="313.97,328.91 317.47,328.91 315.72,323.66 " stroke="red" stroke-width="0.71875" stroke-linecap="round" stroke-linejoin="round" />
<polyline points="323.59,328.03 322.72,328.91 320.97,328.91 320.09,328.03 320.09,324.53 320.97,323.66 322.72,323.66 323.59,324.53 323.59,325.41 322.72,326.28 320.09,326.28 " stroke="red" stroke-width="0.71875" stroke-linecap="round" stroke-linejoin="round" />
<polygon points="327.09,328.91 326.22,328.03 326.22,324.53 327.09,323.66 328.84,323.66 329.72,324.53 329.72,328.03 328.84,328.91 " stroke="red" stroke-width="0.71875" stroke-linejoin="round" />
<polyline points="525.88,247 525.84,247.03 524.06,248.72 521.41,251.5 519.94,253.34 517.94,256 515.84,258.84 514.69,260.5 511.94,265.03 511.72,265.47 509.56,269.59 507.59,273.81 507.44,274.16 505.34,278.75 503.5,282.38 503,283.34 500.88,287.97 499.38,291.31 498.75,292.62 497.69,297.31 496.38,302 495.25,304.41 493.69,306.72 491.16,308.78 487.03,310.53 482.91,310.91 478.81,311 474.69,310.94 470.56,310.84 466.47,311.22 462.72,311.44 462.34,311.47 458.25,311.53 455.72,311.44 454.12,311.38 450,310.5 445.91,309.41 441.78,308.09 437.91,306.72 437.66,306.62 433.56,304.72 429.44,302.78 427.72,302 425.31,300.78 421.22,298.72 417.78,297.31 417.09,296.94 412.97,294.56 410.16,292.62 408.88,291.72 404.75,288.94 402.5,287.97 400.62,287.22 396.53,285.56 392.41,283.97 390.94,283.34 388.31,282.31 384.19,280.12 380.72,278.75 380.06,278.53 375.97,277.22 371.84,276.16 367.72,275.09 364.03,274.16 363.62,274.03 359.5,272.97 355.38,272.19 351.28,271.75 347.16,271.53 343.03,271.5 338.94,271.66 334.81,271.88 330.69,272.28 326.59,272.94 322.47,273.88 321.78,274.16 318.34,275.44 314.25,277.31 311.59,278.75 310.12,279.5 306.03,282.12 304.5,283.34 301.91,285.62 299.66,287.97 297.78,290.22 296.09,292.56 " stroke="red" stroke-width="0.96875" stroke-linecap="round" stroke-linejoin="round" />
<polyline points="290.66,302.03 289.56,304.19 288.16,306.72 285.62,311.44 285.44,311.81 283.31,316.22 281.34,320.59 281.12,321 278.84,325.81 277.22,329.09 276.38,330.66 273.44,335.5 273.09,336.03 269.66,340.41 269,341.16 264.88,345.16 264.69,345.31 260.75,348.34 257.84,350.28 256.66,351.09 252.53,353.47 249.09,355.25 248.41,355.59 244.31,357.44 240.19,359.16 237.59,360.25 236.06,360.84 231.97,362.28 227.84,363.5 223.72,364.62 221.34,365.28 219.62,365.81 215.5,367.16 211.41,368.75 207.72,370.38 207.28,370.56 203.16,372.41 199.06,374.19 195.97,375.47 194.94,375.88 190.81,377.44 186.72,379.16 183.09,380.59 182.59,380.81 178.47,382.25 174.38,383.38 170.25,383.31 166.12,382.88 162.03,382.22 157.91,381.47 153.78,380.84 152.25,380.59 149.69,380.19 145.56,379.53 141.44,378.88 137.34,378.34 133.22,377.78 129.12,377.19 125,376.53 120.88,375.84 118.69,375.47 116.78,375.16 112.66,374.47 108.53,373.81 104.44,373.09 100.31,372.28 96.188,371.41 92.094,370.41 91.812,370.38 87.969,369.5 83.844,368.56 79.75,367.59 75.625,366.62 71.5,365.62 70.219,365.28 67.406,364.53 63.281,363.41 59.188,362.25 55.062,361 52.688,360.25 50.938,359.69 46.844,358.34 42.719,357.03 38.594,355.81 36.719,355.25 34.5,354.56 30.375,353.28 26.25,352 22.156,350.62 21.156,350.28 18.031,349.06 " stroke="red" stroke-width="0.96875" stroke-linecap="round" stroke-linejoin="round" />
<polyline points="282.72,295.56 283.59,294.69 285.34,294.69 286.22,295.56 286.22,297.31 285.34,298.19 282.72,298.19 282.72,299.94 286.22,299.94 " stroke="red" stroke-width="0.71875" stroke-linecap="round" stroke-linejoin="round" />
<polygon points="289.72,299.94 288.84,299.06 288.84,298.19 289.72,297.31 291.47,297.31 292.34,298.19 292.34,299.06 291.47,299.94 " stroke="red" stroke-width="0.71875" stroke-linejoin="round" />
<polyline points="289.72,297.31 288.84,296.44 288.84,295.56 289.72,294.69 291.47,294.69 292.34,295.56 292.34,296.44 291.47,297.31 " stroke="red" stroke-width="0.71875" stroke-linecap="round" stroke-linejoin="round" />
<polyline points="294.97,299.06 295.84,299.94 297.59,299.94 298.47,299.06 298.47,298.19 294.97,294.69 298.47,294.69 " stroke="red" stroke-width="0.71875" stroke-linecap="round" stroke-linejoin="round" />
<polygon points="301.97,299.94 301.09,299.06 301.09,295.56 301.97,294.69 303.72,294.69 304.59,295.56 304.59,299.06 303.72,299.94 " stroke="red" stroke-width="0.71875" stroke-linejoin="round" />
<polyline points="248.88,247 248.84,247.03 248.41,247.59 245.44,251.5 244.31,253.25 242.72,256 241.81,260.5 241.44,265.03 241.19,269.59 240.84,274.16 240.19,277.31 239.91,278.75 238.53,283.34 236.62,287.97 236.06,289 234,292.62 231.97,295.12 230.09,297.31 227.84,299.53 225.22,302 223.72,303.19 219.62,306.12 218.72,306.72 215.5,308.62 211.41,311 210.62,311.44 207.28,313.34 203.16,315.91 202.62,316.22 199.06,318.25 194.94,320.56 194.16,321 190.81,322.81 186.72,325.38 186.06,325.81 182.59,327.94 178.47,330.5 178.22,330.66 175.53,331.91 " stroke="red" stroke-width="0.96875" stroke-linecap="round" stroke-linejoin="round" />
<polyline points="148.56,337.09 145.56,337.31 141.44,337.47 137.34,337.47 133.22,337.34 129.12,337.06 125,336.69 120.88,336.28 116.78,335.78 114.84,335.5 112.66,335.16 108.53,334.38 104.44,333.25 100.31,332.06 96.188,330.81 95.625,330.66 92.094,329.25 87.969,327.75 83.844,326.41 81.906,325.81 79.75,325.12 75.625,323.91 71.5,322.66 67.406,321.47 65.75,321 63.281,320.25 59.188,319.09 55.062,318.22 50.938,317.38 46.844,316.53 45.25,316.22 42.719,315.59 38.594,314.44 34.5,313.28 30.375,312.25 26.656,311.44 26.25,311.34 22.156,310.72 18.031,310.25 " stroke="red" stroke-width="0.96875" stroke-linecap="round" stroke-linejoin="round" />
<polyline points="151.56,333.75 152.44,332.88 154.19,332.88 155.06,333.75 155.06,335.5 154.19,336.38 151.56,336.38 151.56,338.12 155.06,338.12 " stroke="red" stroke-width="0.71875" stroke-linecap="round" stroke-linejoin="round" />
<polygon points="158.56,338.12 157.69,337.25 157.69,336.38 158.56,335.5 160.31,335.5 161.19,336.38 161.19,337.25 160.31,338.12 " stroke="red" stroke-width="0.71875" stroke-linejoin="round" />
<polyline points="158.56,335.5 157.69,334.62 157.69,333.75 158.56,332.88 160.31,332.88 161.19,333.75 161.19,334.62 160.31,335.5 " stroke="red" stroke-width="0.71875" stroke-linecap="round" stroke-linejoin="round" />
<polygon points="164.69,338.12 163.81,337.25 163.81,336.38 164.69,335.5 166.44,335.5 167.31,336.38 167.31,337.25 166.44,338.12 " stroke="red" stroke-width="0.71875" stroke-linejoin="round" />
<polyline points="164.69,335.5 163.81,334.62 163.81,333.75 164.69,332.88 166.44,332.88 167.31,333.75 167.31,334.62 166.44,335.5 " stroke="red" stroke-width="0.71875" stroke-linecap="round" stroke-linejoin="round" />
<polygon points="170.81,338.12 169.94,337.25 169.94,333.75 170.81,332.88 172.56,332.88 173.44,333.75 173.44,337.25 172.56,338.12 " stroke="red" stroke-width="0.71875" stroke-linejoin="round" />
</g>
</svg>
