<?xml version="1.0" encoding="ISO-8859-1" standalone="no"?>
<!DOCTYPE svg PUBLIC "-//W3C//DTD SVG 1.1//EN" "http://www.w3.org/Graphics/SVG/1.1/DTD/svg11.dtd">
<svg version="1.1" baseProfile="full" id="body" width="900px" height="600px" viewBox="0 0.2 1 0.55" preserveAspectRatio="none" xmlns="http://www.w3.org/2000/svg" xmlns:xlink="http://www.w3.org/1999/xlink" xmlns:ev="http://www.w3.org/2001/xml-events">
<title>SVG drawing</title>
<desc>This was produced by version 4.2 of GNU libplot, a free library for exporting 2-D vector graphics.</desc>
<rect id="background" x="0" y="0" width="1" height="1" stroke="none" fill="none"/>
<g id="content" transform="translate(-0.03125,1.1875) scale(1,-1) scale(0.0017361) " xml:space="preserve" stroke="black" stroke-linecap="butt" stroke-linejoin="miter" stroke-miterlimit="10.433" stroke-dasharray="none" stroke-dashoffset="0" stroke-opacity="1" fill="none" fill-rule="even-odd" fill-opacity="1" font-style="normal" font-variant="normal" font-weight="normal" font-stretch="normal" font-size-adjust="none" letter-spacing="normal" word-spacing="normal" text-anchor="start">
<polyline points="239.78,568.66 239.81,568.62 240.19,568.41 244.31,566.5 248.41,565.09 252.53,564.16 256.66,563.66 260.75,563.97 264.88,564.59 269,565.41 273.09,566.31 276.09,566.81 " stroke="red" stroke-width="0.96875" stroke-linecap="round" stroke-linejoin="round" />
<polyline points="306.56,568.66 306.84,568.62 310.12,568.28 314.25,567.91 318.34,567.66 322.47,567.72 326.44,568.62 326.53,568.66 " stroke="red" stroke-width="0.96875" stroke-linecap="round" stroke-linejoin="round" />
<polyline points="279.06,567.12 279.94,566.25 281.69,566.25 282.56,567.12 282.56,568.66 " stroke="red" stroke-width="0.71875" stroke-linecap="round" stroke-linejoin="round" />
<polyline points="287.59,568.66 285.19,566.25 288.69,566.25 " stroke="red" stroke-width="0.71875" stroke-linecap="round" stroke-linejoin="round" />
<polyline points="293.72,568.66 291.31,566.25 294.81,566.25 " stroke="red" stroke-width="0.71875" stroke-linecap="round" stroke-linejoin="round" />
<polyline points="297.44,568.66 297.44,567.12 298.31,566.25 300.06,566.25 300.94,567.12 300.94,568.66 " stroke="red" stroke-width="0.71875" stroke-linecap="round" stroke-linejoin="round" />
<polyline points="200.53,568.66 200.56,568.62 203.16,565.84 207,561.84 207.28,561.62 211.41,558.59 215.5,555.88 216.72,555.12 219.62,553.78 223.72,552 227.84,550.22 231.97,548.62 232.44,548.47 236.06,547.38 240.19,546.31 244.31,545.56 248.41,544.97 252.53,544.56 256.66,544.31 260.75,544.28 264.88,544.41 269,544.62 271.97,544.84 " stroke="red" stroke-width="0.96875" stroke-linecap="round" stroke-linejoin="round" />
<polyline points="298.91,546.22 301.91,546.22 306.03,546.25 310.12,546.19 314.25,546.25 318.34,546.44 322.47,546.84 326.59,547.69 329.5,548.47 330.69,548.81 334.81,550.25 338.94,551.97 343.03,554.16 344.62,555.12 347.16,556.84 351.28,559.69 354.41,561.84 355.38,562.5 359.5,565.03 363.62,567.66 365.09,568.62 365.16,568.66 " stroke="red" stroke-width="0.96875" stroke-linecap="round" stroke-linejoin="round" />
<polyline points="274.94,544.09 275.81,543.22 277.56,543.22 278.44,544.09 278.44,545.84 277.56,546.72 274.94,546.72 274.94,548.47 278.44,548.47 " stroke="red" stroke-width="0.71875" stroke-linecap="round" stroke-linejoin="round" />
<polyline points="281.06,547.59 281.94,548.47 283.69,548.47 284.56,547.59 284.56,546.72 281.06,543.22 284.56,543.22 " stroke="red" stroke-width="0.71875" stroke-linecap="round" stroke-linejoin="round" />
<polygon points="288.06,548.47 287.19,547.59 287.19,546.72 288.06,545.84 289.81,545.84 290.69,546.72 290.69,547.59 289.81,548.47 " stroke="red" stroke-width="0.71875" stroke-linejoin="round" />
<polyline points="288.06,545.84 287.19,544.97 287.19,544.09 288.06,543.22 289.81,543.22 290.69,544.09 290.69,544.97 289.81,545.84 " stroke="red" stroke-width="0.71875" stroke-linecap="round" stroke-linejoin="round" />
<polygon points="294.19,548.47 293.31,547.59 293.31,544.09 294.19,543.22 295.94,543.22 296.81,544.09 296.81,547.59 295.94,548.47 " stroke="red" stroke-width="0.71875" stroke-linejoin="round" />
<polyline points="562.94,568.66 562.94,568.62 564.94,561.84 565.19,560.91 567.09,555.12 569.19,548.47 569.31,548.09 570.03,546.62 " stroke="red" stroke-width="0.96875" stroke-linecap="round" stroke-linejoin="round" />
<polyline points="576.03,537.16 577.53,535.5 577.75,535.38 581.66,533.41 585.78,532.78 589.88,533.28 594,535.03 " stroke="red" stroke-width="0.96875" stroke-linecap="round" stroke-linejoin="round" />
<polyline points="561.78,540.16 562.66,539.28 564.41,539.28 565.28,540.16 565.28,541.91 564.41,542.78 561.78,542.78 561.78,544.53 565.28,544.53 " stroke="red" stroke-width="0.71875" stroke-linecap="round" stroke-linejoin="round" />
<polyline points="567.91,543.66 568.78,544.53 570.53,544.53 571.41,543.66 571.41,542.78 567.91,539.28 571.41,539.28 " stroke="red" stroke-width="0.71875" stroke-linecap="round" stroke-linejoin="round" />
<polygon points="574.91,544.53 574.03,543.66 574.03,542.78 574.91,541.91 576.66,541.91 577.53,542.78 577.53,543.66 576.66,544.53 " stroke="red" stroke-width="0.71875" stroke-linejoin="round" />
<polyline points="574.91,541.91 574.03,541.03 574.03,540.16 574.91,539.28 576.66,539.28 577.53,540.16 577.53,541.03 576.66,541.91 " stroke="red" stroke-width="0.71875" stroke-linecap="round" stroke-linejoin="round" />
<polygon points="581.03,544.53 580.16,543.66 580.16,540.16 581.03,539.28 582.78,539.28 583.66,540.16 583.66,543.66 582.78,544.53 " stroke="red" stroke-width="0.71875" stroke-linejoin="round" />
<polyline points="394.97,568.66 394.91,568.62 392.41,567.12 388.31,564.69 384.19,562.19 383.59,561.84 380.06,559.72 375.97,557.31 372.19,555.12 371.84,554.91 367.72,552.44 363.62,550.06 360.75,548.47 359.5,547.75 355.38,545.5 351.28,543.19 348.78,541.91 347.16,541.09 343.03,539.22 338.94,537.59 334.81,536.25 331.88,535.38 330.69,535.03 326.59,533.97 322.47,533 318.34,532.16 314.25,531.38 310.12,530.62 306.03,529.91 301.91,529.22 300.28,528.97 297.78,528.59 293.69,528.06 289.56,527.66 285.44,527.41 281.34,527.25 277.22,527.25 273.09,527.31 269,527.56 264.88,527.88 260.75,528.28 256.66,528.69 253.59,528.97 252.53,529.03 248.41,529.38 244.31,529.75 240.19,530.19 236.06,530.72 231.97,531.38 228.97,531.91 " stroke="red" stroke-width="0.96875" stroke-linecap="round" stroke-linejoin="round" />
<polyline points="202.03,538.97 199.06,540.06 194.94,541.62 194.22,541.91 190.81,543.34 186.72,544.97 182.59,546.62 178.47,548.31 178.12,548.47 174.38,550.16 170.25,552.12 166.12,554.09 163.88,555.12 162.03,555.97 157.91,557.66 153.78,558.84 149.69,559.84 145.56,560.72 141.44,561.53 140.34,561.84 137.34,562.59 133.22,563.66 129.12,564.62 125,565.47 120.88,565.53 116.78,565.34 112.66,565 108.53,564.62 104.44,565 100.31,565.41 96.188,565.69 92.094,565.72 87.969,565.03 83.844,563.97 79.75,562.62 77.844,561.84 75.625,560.84 71.5,558.44 67.406,555.72 66.562,555.12 63.281,552.69 59.188,549.81 57.25,548.47 55.062,547.03 50.938,544.38 46.844,541.91 46.812,541.91 42.719,539.78 38.594,538.5 34.5,537.56 30.375,536.84 26.25,536.34 22.156,535.75 18.719,535.38 18.031,535.31 " stroke="red" stroke-width="0.96875" stroke-linecap="round" stroke-linejoin="round" />
<polyline points="205,533.12 205.88,532.25 207.62,532.25 208.5,533.12 208.5,534.88 207.62,535.75 205,535.75 205,537.5 208.5,537.5 " stroke="red" stroke-width="0.71875" stroke-linecap="round" stroke-linejoin="round" />
<polyline points="211.12,536.62 212,537.5 213.75,537.5 214.62,536.62 214.62,535.75 213.75,534.88 212.88,534.88 213.75,534.88 214.62,534 214.62,533.12 213.75,532.25 212,532.25 211.12,533.12 " stroke="red" stroke-width="0.71875" stroke-linecap="round" stroke-linejoin="round" />
<polyline points="219,537.5 217.25,534.88 220.75,534.88 220.75,537.5 220.75,532.25 " stroke="red" stroke-width="0.71875" stroke-linecap="round" stroke-linejoin="round" />
<polygon points="224.25,537.5 223.38,536.62 223.38,533.12 224.25,532.25 226,532.25 226.88,533.12 226.88,536.62 226,537.5 " stroke="red" stroke-width="0.71875" stroke-linejoin="round" />
<polyline points="532.09,568.66 532.12,568.62 532.28,568.22 534.97,561.84 536.41,557.75 537.38,555.12 539.19,548.47 540.53,543.25 540.88,541.91 542.62,535.38 544.5,528.97 544.62,528.66 547.28,522.59 548.75,519.31 550.16,516.28 550.88,514.78 " stroke="red" stroke-width="0.96875" stroke-linecap="round" stroke-linejoin="round" />
<polyline points="555.47,505.31 556.19,503.88 556.97,502 558.97,497.75 561.09,493.53 562.22,491.69 565.19,487.19 566.5,485.69 569.31,482.69 573.44,480.38 575.94,479.75 577.53,479.34 581.66,479.47 582.69,479.75 585.78,480.47 589.88,481.97 594,484.03 " stroke="red" stroke-width="0.96875" stroke-linecap="round" stroke-linejoin="round" />
<polyline points="542.62,508.31 543.5,507.44 545.25,507.44 546.12,508.31 546.12,510.06 545.25,510.94 542.62,510.94 542.62,512.69 546.12,512.69 " stroke="red" stroke-width="0.71875" stroke-linecap="round" stroke-linejoin="round" />
<polyline points="548.75,511.81 549.62,512.69 551.38,512.69 552.25,511.81 552.25,510.94 551.38,510.06 550.5,510.06 551.38,510.06 552.25,509.19 552.25,508.31 551.38,507.44 549.62,507.44 548.75,508.31 " stroke="red" stroke-width="0.71875" stroke-linecap="round" stroke-linejoin="round" />
<polyline points="556.62,512.69 554.88,510.06 558.38,510.06 558.38,512.69 558.38,507.44 " stroke="red" stroke-width="0.71875" stroke-linecap="round" stroke-linejoin="round" />
<polygon points="561.88,512.69 561,511.81 561,508.31 561.88,507.44 563.62,507.44 564.5,508.31 564.5,511.81 563.62,512.69 " stroke="red" stroke-width="0.71875" stroke-linejoin="round" />
<polyline points="594,453.84 589.88,451.88 586.84,450.75 585.78,450.41 581.66,449.56 577.53,449.34 573.44,449.78 569.72,450.75 569.31,450.88 565.19,453.34 561.09,456.47 556.97,460.81 555.72,462.19 552.88,465.69 550.84,468 548.75,470.62 546.25,473.84 544.62,476.16 542.25,479.75 540.53,483.41 539.53,485.69 537.28,491.69 536.41,494.34 535.41,497.75 533.56,503.88 532.28,506.88 530.94,510.06 528.22,516.28 528.19,516.41 525.47,522.59 524.06,525.94 522.72,528.97 520.31,535.38 519.94,536.34 517.47,541.91 515.84,545.19 513.94,548.47 511.72,551.84 509.09,555.12 507.59,556.81 503.5,560.62 501.88,561.84 499.38,563.62 495.25,565.97 491.16,567.78 488.34,568.62 488.25,568.66 " stroke="red" stroke-width="0.96875" stroke-linecap="round" stroke-linejoin="round" />
<polyline points="465.44,568.66 465.19,568.62 462.34,568.31 458.25,567.75 454.12,567.03 450,566.19 445.91,565.19 441.78,564.06 437.66,562.75 435.12,561.84 433.56,561.25 429.44,559.66 425.31,558 421.22,556.31 418.03,555.12 417.09,554.75 412.97,553.16 408.88,551.53 404.75,549.88 401.22,548.47 400.62,548.25 396.53,546.56 392.41,544.91 388.31,543.19 385.56,541.91 384.19,541.22 380.06,539.16 375.97,537.03 372.72,535.38 371.84,534.94 367.72,533.03 363.84,531.41 " stroke="red" stroke-width="0.96875" stroke-linecap="round" stroke-linejoin="round" />
<polyline points="337.78,522.25 334.81,521.31 330.69,520.09 326.59,518.94 322.47,517.84 318.34,516.91 315.5,516.28 314.25,516 310.12,515.19 306.03,514.47 301.91,513.75 297.78,513.12 293.69,512.59 289.56,512.12 285.44,511.84 281.34,511.66 277.22,511.56 273.09,511.53 269,511.56 264.88,511.62 260.75,511.78 256.66,511.97 252.53,512.19 248.41,512.44 244.31,512.72 240.19,513.03 236.06,513.34 231.97,513.62 227.84,513.97 223.72,514.34 219.62,514.75 215.5,515.22 211.41,515.72 207.28,516.25 206.97,516.28 203.16,516.84 199.06,517.47 194.94,518.06 190.81,518.59 186.72,518.97 182.59,519.25 178.47,519.41 174.38,519.5 170.25,519.5 166.12,519.38 162.03,519.16 157.91,518.75 153.78,518.06 149.69,517.25 145.56,516.34 145.38,516.28 141.44,515.38 137.34,514.22 133.22,513.03 129.12,511.88 125,510.88 120.88,510.91 116.78,511.19 112.66,511.5 108.53,511.62 104.44,510.38 103.47,510.06 100.31,509.03 96.188,507.69 92.094,506.34 87.969,504.97 84.844,503.88 83.844,503.5 79.75,501.81 75.625,500.12 71.5,498.94 67.406,498 66.281,497.75 63.281,497.19 59.188,496.47 55.062,495.28 50.938,494.03 46.844,492.72 43.719,491.69 42.719,491.38 38.594,490.25 34.5,489.25 30.375,488.5 26.25,488.16 22.156,488.53 18.031,489.44 " stroke="red" stroke-width="0.96875" stroke-linecap="round" stroke-linejoin="round" />
<polyline points="340.78,524.94 341.66,524.06 343.41,524.06 344.28,524.94 344.28,526.69 343.41,527.56 340.78,527.56 340.78,529.31 344.28,529.31 " stroke="red" stroke-width="0.71875" stroke-linecap="round" stroke-linejoin="round" />
<polyline points="348.66,529.31 346.91,526.69 350.41,526.69 350.41,529.31 350.41,524.06 " stroke="red" stroke-width="0.71875" stroke-linecap="round" stroke-linejoin="round" />
<polygon points="353.91,529.31 353.03,528.44 353.03,524.94 353.91,524.06 355.66,524.06 356.53,524.94 356.53,528.44 355.66,529.31 " stroke="red" stroke-width="0.71875" stroke-linejoin="round" />
<polygon points="360.03,529.31 359.16,528.44 359.16,524.94 360.03,524.06 361.78,524.06 362.66,524.94 362.66,528.44 361.78,529.31 " stroke="red" stroke-width="0.71875" stroke-linejoin="round" />
<polyline points="594,437.59 589.88,435.62 585.78,434.22 584.09,433.97 581.66,433.62 577.53,433.59 573.84,433.97 573.44,434 569.31,435.03 565.19,436.69 561.09,438.81 559.97,439.5 556.97,441.53 552.88,444.72 552.38,445.12 548.75,448.19 545.91,450.75 544.62,452 540.53,456.12 540.22,456.47 536.41,460.84 535.31,462.19 532.28,466.56 531.34,468 528.19,473.62 528.06,473.84 525.22,479.75 524.06,482.62 522.75,485.69 520.22,491.69 519.94,492.31 516.88,497.75 515.84,499.53 512.91,503.88 511.72,505.72 508.69,510.06 507.59,511.69 504.31,516.28 503.5,517.47 499.38,522.22 499,522.59 495.25,525.84 491.16,528.5 490.22,528.97 487.03,530.5 482.91,532.19 478.81,533.5 474.69,534.47 470.56,535.22 469.69,535.38 466.47,536.03 462.34,536.62 458.25,537 454.12,537.12 450,536.81 445.91,536.25 441.78,535.53 441.22,535.38 437.66,534.59 433.56,533.56 429.44,532.44 425.31,531.25 421.22,530.03 417.66,528.97 417.09,528.78 412.97,527.53 408.88,526.31 404.75,525.06 400.62,523.88 396.53,522.59 396.5,522.59 392.41,521.12 388.31,519.44 384.19,517.34 382.12,516.28 380.06,515.22 375.97,513.16 371.84,511.31 367.72,510.12 367.38,510.06 363.62,509.16 359.5,508.31 356.53,507.75 " stroke="red" stroke-width="0.96875" stroke-linecap="round" stroke-linejoin="round" />
<polyline points="329.56,501.69 326.59,501.09 322.47,500.34 318.34,499.69 314.25,499.06 310.12,498.47 306.03,497.88 305.22,497.75 301.91,497.19 297.78,496.5 293.69,495.91 289.56,495.38 285.44,495.16 281.34,495 277.22,494.88 273.09,494.78 269,494.56 264.88,494.31 260.75,494.09 256.66,493.94 252.53,493.94 248.41,494 244.31,494.09 240.19,494.22 236.06,494.28 231.97,494.34 227.84,494.41 223.72,494.44 219.62,494.38 215.5,494.28 211.41,494.19 207.28,494.06 199.06,494.06 194.94,494.03 190.81,493.94 186.72,493.72 182.59,493.41 178.47,492.97 174.38,492.38 171.25,491.69 170.25,491.47 166.12,490.41 162.03,489.22 157.91,487.97 153.78,486.91 149.69,485.84 149.03,485.69 145.56,484.84 141.44,483.84 137.34,482.81 133.22,481.78 129.12,480.72 125.41,479.75 125,479.62 120.88,478.31 116.78,476.97 112.66,475.69 108.53,474.53 104.44,474.03 102.44,473.84 100.31,473.66 96.188,473.31 92.094,472.84 87.969,471.59 83.844,470.16 79.75,468.66 77.844,468 75.625,467.28 71.5,466.62 67.406,466.09 63.281,465.69 59.188,465.41 55.062,464.91 50.938,464.59 46.844,464.44 42.719,464.5 38.594,464.78 34.5,465.22 30.375,465.78 26.25,466.47 22.156,467.28 19.219,468 18.031,468.31 " stroke="red" stroke-width="0.96875" stroke-linecap="round" stroke-linejoin="round" />
<polyline points="332.53,502.91 333.41,502.03 335.16,502.03 336.03,502.91 336.03,504.66 335.16,505.53 332.53,505.53 332.53,507.28 336.03,507.28 " stroke="red" stroke-width="0.71875" stroke-linecap="round" stroke-linejoin="round" />
<polyline points="340.41,507.28 338.66,504.66 342.16,504.66 342.16,507.28 342.16,502.03 " stroke="red" stroke-width="0.71875" stroke-linecap="round" stroke-linejoin="round" />
<polyline points="348.28,506.41 347.41,507.28 345.66,507.28 344.78,506.41 344.78,502.91 345.66,502.03 347.41,502.03 348.28,502.91 348.28,503.78 347.41,504.66 344.78,504.66 " stroke="red" stroke-width="0.71875" stroke-linecap="round" stroke-linejoin="round" />
<polygon points="351.78,507.28 350.91,506.41 350.91,502.91 351.78,502.03 353.53,502.03 354.41,502.91 354.41,506.41 353.53,507.28 " stroke="red" stroke-width="0.71875" stroke-linejoin="round" />
<polyline points="594,425.09 589.88,423.72 586.62,422.97 585.78,422.78 581.66,422.25 577.53,422.06 573.44,422.22 569.31,422.75 568.44,422.97 565.19,423.78 561.09,425.19 556.97,426.97 554.09,428.44 552.88,429.12 548.75,431.5 545.03,433.97 544.62,434.25 540.53,437.44 537.97,439.5 536.41,440.88 532.28,444.53 531.66,445.12 528.19,448.56 526.06,450.75 524.06,453.06 521.19,456.47 519.94,458.22 516.84,462.19 515.84,463.69 512.69,468 511.72,469.44 508.56,473.84 507.59,475.22 504.16,479.75 503.5,480.53 499.38,484.94 498.62,485.69 495.25,488.94 492.16,491.69 491.16,492.59 487.03,495.84 484.16,497.75 482.91,498.56 478.81,500.78 474.69,502.59 471.06,503.88 470.56,504.03 466.47,505.09 462.34,505.94 458.25,506.53 454.12,506.91 450,507.12 445.91,507.12 441.78,506.97 437.66,506.62 433.56,506.03 429.44,505.34 425.31,504.56 422,503.88 421.22,503.72 417.09,503 412.97,502.22 408.88,501.31 404.75,500.28 400.62,498.84 397.66,497.75 396.53,497.31 392.41,495.72 388.31,494.16 384.19,492.62 381.47,491.69 380.06,491.22 375.97,489.88 371.84,488.66 367.72,487.47 363.62,486.28 361.47,485.69 359.5,485.09 355.38,483.97 351.28,483.03 348.28,482.47 " stroke="red" stroke-width="0.96875" stroke-linecap="round" stroke-linejoin="round" />
<polyline points="321.34,479.81 320.75,479.75 318.34,479.41 314.25,478.78 310.12,478.09 306.03,477.38 301.91,476.66 297.78,476 293.69,475.44 289.56,475 285.44,474.91 277.22,474.91 273.09,474.88 269,474.53 264.88,474.16 261.66,473.84 260.75,473.75 256.66,473.34 252.53,473.06 248.41,472.78 244.31,472.56 240.19,472.38 236.06,472.28 231.97,472.22 227.84,472.12 223.72,472.03 219.62,471.78 215.5,471.47 211.41,471.12 207.28,470.69 203.16,470.12 199.06,469.47 194.94,468.78 190.81,468.16 187.22,468 186.72,467.97 182.59,467.88 178.47,467.75 174.38,467.56 170.25,467.03 166.12,466.41 162.03,465.72 157.91,464.97 153.78,464.09 149.69,463.19 145.59,462.19 145.56,462.19 141.44,461.16 137.34,460.28 133.22,459.38 129.12,458.5 125,457.62 120.88,456.69 119.78,456.47 116.78,455.88 112.66,455.16 108.53,454.56 104.44,454.38 100.31,454.25 96.188,454.03 92.094,453.66 87.969,452.62 83.844,451.5 81.031,450.75 79.75,450.44 75.625,449.56 71.5,449.12 67.406,448.84 63.281,448.72 59.188,448.69 55.062,448.72 50.938,448.88 46.844,449.12 42.719,449.5 38.594,450.06 34.562,450.75 34.5,450.78 30.375,451.62 26.25,452.59 22.156,453.59 18.031,454.72 " stroke="red" stroke-width="0.96875" stroke-linecap="round" stroke-linejoin="round" />
<polyline points="324.31,479.03 325.19,478.16 326.94,478.16 327.81,479.03 327.81,480.78 326.94,481.66 324.31,481.66 324.31,483.41 327.81,483.41 " stroke="red" stroke-width="0.71875" stroke-linecap="round" stroke-linejoin="round" />
<polyline points="330.44,479.03 331.31,478.16 333.06,478.16 333.94,479.03 333.94,480.78 333.06,481.66 330.44,481.66 330.44,483.41 333.94,483.41 " stroke="red" stroke-width="0.71875" stroke-linecap="round" stroke-linejoin="round" />
<polyline points="336.56,482.53 337.44,483.41 339.19,483.41 340.06,482.53 340.06,481.66 336.56,478.16 340.06,478.16 " stroke="red" stroke-width="0.71875" stroke-linecap="round" stroke-linejoin="round" />
<polygon points="343.56,483.41 342.69,482.53 342.69,479.03 343.56,478.16 345.31,478.16 346.19,479.03 346.19,482.53 345.31,483.41 " stroke="red" stroke-width="0.71875" stroke-linejoin="round" />
<polyline points="594,413.06 590.06,412.16 589.88,412.09 585.78,411.22 581.66,410.56 577.53,410.19 573.44,410.09 569.31,410.31 565.19,411.09 561.25,412.16 561.09,412.19 556.97,413.38 552.88,414.81 548.75,416.31 545.81,417.53 544.62,418.03 540.53,420.03 536.41,422.34 535.38,422.97 532.28,424.88 528.19,427.69 527.12,428.44 524.06,430.72 520,433.97 519.94,434 515.84,437.38 513.22,439.5 511.72,440.78 507.59,444.12 506.34,445.12 503.5,447.47 499.41,450.75 499.38,450.78 495.25,454.41 493.03,456.47 491.16,458.25 487.03,461.78 486.44,462.19 482.91,464.59 478.81,467.03 476.97,468 474.69,469.16 470.56,470.94 466.47,472.5 462.34,473.75 461.97,473.84 458.25,474.72 454.12,475.5 450,476.28 445.91,476.88 441.78,477.31 437.66,477.59 433.56,477.53 429.44,477.34 425.31,477 421.22,476.53 417.09,476.03 412.97,475.44 408.88,474.72 404.75,473.94 404.38,473.84 400.62,473 396.53,472.03 392.41,471.06 388.31,470.09 384.19,469.12 380.06,468.16 379.44,468 375.97,467.09 371.84,466 367.72,464.84 363.62,463.72 359.5,462.69 357.34,462.19 355.38,461.75 351.28,461 347.16,460.31 344.19,459.84 " stroke="red" stroke-width="0.96875" stroke-linecap="round" stroke-linejoin="round" />
<polyline points="317.22,454.38 314.25,453.69 310.12,452.81 306.03,452.03 301.91,451.47 297.78,450.97 295.94,450.75 293.69,450.5 289.56,450.09 285.44,449.72 281.34,449.41 277.22,449.16 273.09,448.91 269,448.69 264.88,448.47 260.75,448.28 256.66,448.03 252.53,447.75 248.41,447.44 244.31,447.12 240.19,446.81 236.06,446.44 231.97,446.06 227.84,445.72 223.72,445.41 215.5,445.41 211.41,445.34 207.53,445.12 207.28,445.09 203.16,444.16 199.06,443.12 194.94,442.12 190.81,441.22 186.72,440.88 182.59,440.69 178.47,440.56 174.38,440.5 170.25,440.38 166.12,440.25 162.03,440.12 157.91,440 153.78,439.81 149.69,439.66 147.09,439.5 145.56,439.44 141.44,439.19 137.34,438.88 133.22,438.53 129.12,438.19 125,437.84 120.88,437.5 116.78,437.19 112.66,436.91 108.53,436.72 104.44,436.75 100.31,436.81 96.188,436.84 92.094,436.84 87.969,436.41 83.844,436 79.75,435.69 75.625,435.47 71.5,435.62 67.406,435.88 63.281,436.19 59.188,436.53 55.062,436.75 50.938,437 46.844,437.28 42.719,437.62 38.594,438.09 34.5,438.66 30.375,439.28 29.031,439.5 26.25,439.97 22.156,440.62 18.031,441.38 " stroke="red" stroke-width="0.96875" stroke-linecap="round" stroke-linejoin="round" />
<polyline points="320.19,455.69 321.06,454.81 322.81,454.81 323.69,455.69 323.69,457.44 322.81,458.31 320.19,458.31 320.19,460.06 323.69,460.06 " stroke="red" stroke-width="0.71875" stroke-linecap="round" stroke-linejoin="round" />
<polyline points="326.31,455.69 327.19,454.81 328.94,454.81 329.81,455.69 329.81,457.44 328.94,458.31 326.31,458.31 326.31,460.06 329.81,460.06 " stroke="red" stroke-width="0.71875" stroke-linecap="round" stroke-linejoin="round" />
<polygon points="333.31,460.06 332.44,459.19 332.44,458.31 333.31,457.44 335.06,457.44 335.94,458.31 335.94,459.19 335.06,460.06 " stroke="red" stroke-width="0.71875" stroke-linejoin="round" />
<polyline points="333.31,457.44 332.44,456.56 332.44,455.69 333.31,454.81 335.06,454.81 335.94,455.69 335.94,456.56 335.06,457.44 " stroke="red" stroke-width="0.71875" stroke-linecap="round" stroke-linejoin="round" />
<polygon points="339.44,460.06 338.56,459.19 338.56,455.69 339.44,454.81 341.19,454.81 342.06,455.69 342.06,459.19 341.19,460.06 " stroke="red" stroke-width="0.71875" stroke-linejoin="round" />
<polyline points="594,395.94 589.88,395.06 585.78,394.41 581.66,393.91 577.53,393.59 573.44,393.44 569.31,393.5 565.19,393.88 561.09,394.47 556.97,395.25 553.16,396.22 552.88,396.28 548.75,397.31 544.62,398.47 540.53,399.81 536.41,401.31 535.97,401.47 532.28,402.91 528.19,404.66 524.06,406.66 523.75,406.78 519.94,408.72 515.84,410.88 513.5,412.16 511.72,413.12 507.59,415.5 504.12,417.53 503.5,417.94 499.38,420.06 495.25,421.94 492.75,422.97 491.16,423.59 487.03,425.12 482.91,427.03 479.97,428.44 478.81,429.03 474.69,431.06 470.56,433.09 468.31,433.97 466.47,434.69 462.34,436.12 458.25,437.34 454.12,438.41 450,439.34 449.19,439.5 445.91,440.12 441.78,440.72 437.66,441.19 433.56,441.59 429.44,441.84 425.31,441.97 421.22,441.91 417.09,441.5 412.97,441 408.88,440.47 404.75,439.94 400.62,439.75 396.53,439.62 394.16,439.5 392.41,439.44 388.31,439.16 384.19,438.59 380.06,438 375.97,437.34 371.84,436.69 367.72,436.09 363.62,435.5 359.5,434.84 355.38,434.19 354.25,433.97 351.28,433.34 347.16,432.41 343.03,431.44 338.94,430.47 334.81,429.5 331.84,428.81 " stroke="red" stroke-width="0.96875" stroke-linecap="round" stroke-linejoin="round" />
<polyline points="304.88,421.84 301.91,421.06 297.78,420.03 293.69,419.12 289.56,418.31 285.44,417.69 284.34,417.53 281.34,417.12 277.22,416.62 273.09,416.16 269,415.66 264.88,415.19 260.75,414.75 256.66,414.31 252.53,413.81 248.41,413.31 244.31,412.84 240.19,412.41 236.06,412.31 231.97,412.25 229.84,412.16 227.84,412.06 223.72,411.62 219.62,410.38 215.5,409.12 211.41,408 207.28,407.03 205.69,406.78 203.16,406.41 199.06,405.91 194.94,405.47 190.81,405.22 186.72,405.34 182.59,405.62 178.47,405.94 174.38,406.28 170.25,406.53 166.22,406.78 166.12,406.81 162.03,407.09 157.91,407.44 153.78,407.53 149.69,407.69 145.56,407.88 141.44,408.19 137.34,408.88 133.22,409.66 129.12,410.5 125,411.38 121.16,412.16 120.88,412.19 116.78,412.91 112.66,413.53 108.53,414.06 104.44,414.28 100.31,414.5 96.188,414.75 92.094,415.09 87.969,415.84 83.844,416.59 79.75,417.31 78.438,417.53 75.625,417.94 71.5,418.38 67.406,418.78 63.281,419.22 59.188,419.69 55.062,420.16 50.938,420.66 46.844,421.19 42.719,421.75 38.594,422.47 35.688,422.97 34.5,423.16 30.375,423.84 26.25,424.5 22.156,425.09 18.031,425.69 " stroke="red" stroke-width="0.96875" stroke-linecap="round" stroke-linejoin="round" />
<polyline points="307.84,423.69 308.72,422.81 310.47,422.81 311.34,423.69 311.34,425.44 310.47,426.31 307.84,426.31 307.84,428.06 311.34,428.06 " stroke="red" stroke-width="0.71875" stroke-linecap="round" stroke-linejoin="round" />
<polyline points="317.47,427.19 316.59,428.06 314.84,428.06 313.97,427.19 313.97,423.69 314.84,422.81 316.59,422.81 317.47,423.69 317.47,424.56 316.59,425.44 313.97,425.44 " stroke="red" stroke-width="0.71875" stroke-linecap="round" stroke-linejoin="round" />
<polyline points="321.84,428.06 320.09,425.44 323.59,425.44 323.59,428.06 323.59,422.81 " stroke="red" stroke-width="0.71875" stroke-linecap="round" stroke-linejoin="round" />
<polygon points="327.09,428.06 326.22,427.19 326.22,423.69 327.09,422.81 328.84,422.81 329.72,423.69 329.72,427.19 328.84,428.06 " stroke="red" stroke-width="0.71875" stroke-linejoin="round" />
<polyline points="594,368.28 589.88,368.66 585.78,368.91 581.66,368.94 577.53,368.91 573.44,368.81 569.31,368.69 565.19,368.53 561.09,368.41 556.97,368.41 552.88,368.47 548.75,368.94 544.62,369.5 540.53,370.22 539.84,370.38 536.41,371.06 532.28,371.84 528.19,372.66 524.06,373.56 519.94,374.56 516.75,375.47 515.84,375.72 511.72,376.97 507.59,378.34 503.5,379.88 501.59,380.59 499.38,381.44 495.25,382.97 491.16,384.41 487.03,385.69 486.56,385.78 482.91,386.47 478.81,387.03 474.69,387.41 470.56,387.56 466.47,387.66 462.34,387.56 458.25,387.38 454.12,387.06 450,386.69 445.91,386.19 443.22,385.78 441.78,385.53 437.66,384.72 433.56,383.69 429.44,382.59 425.31,381.47 421.91,380.59 421.22,380.41 417.09,379.56 412.97,378.94 408.88,378.5 404.75,378.34 400.62,378.25 396.53,378.53 392.41,379.34 388.84,380.59 388.31,380.81 384.19,383.69 381.28,385.78 380.06,386.56 375.97,389.03 372,390.97 371.84,391.03 367.72,392.16 363.62,392.88 359.5,393.19 355.38,393.25 351.28,392.94 347.16,392.44 343.03,391.78 338.94,391.06 338.47,390.97 334.81,390.28 330.69,389.44 326.59,388.59 323.59,388 " stroke="red" stroke-width="0.96875" stroke-linecap="round" stroke-linejoin="round" />
<polyline points="296.66,384.38 293.69,384.25 289.56,384.06 285.44,383.66 281.34,383.22 277.22,382.75 273.09,382.28 269,381.97 264.88,381.59 260.75,381.16 256.66,380.66 256.41,380.59 252.53,379.72 248.41,378.78 244.31,378 240.19,377.44 236.06,377.75 231.97,378.12 227.84,378.47 223.72,378.69 219.62,378.47 215.5,378.06 211.41,377.5 207.28,376.78 203.16,376.03 200.09,375.47 199.06,375.28 194.94,374.59 190.81,374 186.72,373.66 182.59,373.31 178.47,372.97 174.38,372.56 170.25,371.91 166.12,371.19 162.03,370.47 161.38,370.38 157.91,369.88 153.78,369.22 149.69,368.69 145.56,368.25 141.44,368 137.34,368.06 133.22,368.31 129.12,368.78 125,369.44 121.16,370.38 120.88,370.47 116.78,372.12 112.66,373.84 108.72,375.47 108.53,375.53 104.44,376.88 100.31,378.22 96.188,379.66 93.75,380.59 92.094,381.22 87.969,383.09 83.844,385.06 82.375,385.78 79.75,386.91 75.625,388.62 71.5,390.12 69.062,390.97 67.406,391.5 63.281,392.75 59.188,393.91 55.062,395.09 51.094,396.22 50.938,396.25 46.844,397.28 42.719,398.34 38.594,399.41 34.5,400.53 30.938,401.47 30.375,401.62 26.25,402.66 22.156,403.56 18.031,404.47 " stroke="red" stroke-width="0.96875" stroke-linecap="round" stroke-linejoin="round" />
<polyline points="299.62,383.75 300.5,382.88 302.25,382.88 303.12,383.75 303.12,385.5 302.25,386.38 299.62,386.38 299.62,388.12 303.12,388.12 " stroke="red" stroke-width="0.71875" stroke-linecap="round" stroke-linejoin="round" />
<polyline points="305.75,388.12 309.25,388.12 307.5,382.88 " stroke="red" stroke-width="0.71875" stroke-linecap="round" stroke-linejoin="round" />
<polygon points="312.75,388.12 311.88,387.25 311.88,383.75 312.75,382.88 314.5,382.88 315.38,383.75 315.38,387.25 314.5,388.12 " stroke="red" stroke-width="0.71875" stroke-linejoin="round" />
<polygon points="318.88,388.12 318,387.25 318,383.75 318.88,382.88 320.62,382.88 321.5,383.75 321.5,387.25 320.62,388.12 " stroke="red" stroke-width="0.71875" stroke-linejoin="round" />
<polyline points="594,322.5 589.88,323.09 585.78,323.47 581.66,323.91 577.53,324.22 573.44,324.41 569.31,324.53 565.19,324.69 561.09,324.81 556.97,324.97 552.88,325.12 548.75,325.47 544.78,325.81 544.62,325.81 540.53,326.16 536.41,326.41 532.28,326.47 528.19,326.44 524.06,326.28 519.94,325.97 518.53,325.81 515.84,325.47 511.72,324.81 507.59,323.94 503.5,322.81 499.38,321.41 498.47,321 495.25,319.41 491.16,316.75 490.44,316.22 487.03,313.28 485.09,311.44 482.91,308.91 481.12,306.72 478.81,303.84 477.28,302 474.69,299.12 472.91,297.31 470.56,295.28 466.47,292.84 466.03,292.62 462.34,291.34 458.25,289.84 454.12,288.09 453.97,287.97 450,285.09 448.09,283.34 445.91,281.38 443.22,278.75 441.78,277.44 437.91,274.16 437.66,274.03 433.56,272.38 429.44,271.22 425.31,270.53 421.22,270.34 417.09,271.12 412.97,272.41 408.88,274.12 408.81,274.16 404.75,276.59 400.78,278.75 400.62,278.81 396.53,281.34 393.38,283.34 392.41,284 388.31,286.97 387.06,287.97 384.19,290.62 382.06,292.62 380.06,294.91 377.84,297.31 375.97,299.41 373.34,302 371.84,303.41 367.72,306.62 367.59,306.72 363.62,309.44 360.41,311.44 359.5,312.03 355.38,314.44 352.28,316.22 351.28,316.81 347.16,319.06 344.19,320.59 " stroke="red" stroke-width="0.96875" stroke-linecap="round" stroke-linejoin="round" />
<polyline points="317.59,329.81 316.09,330.66 314.25,331.56 310.12,333.69 306.5,335.5 306.03,335.72 301.91,337.66 297.78,339.53 295.78,340.41 293.69,341.25 289.56,342.81 285.44,344.25 282.12,345.31 281.34,345.56 277.22,346.59 273.09,347.44 269,347.84 264.88,348.09 260.75,348.25 256.66,348.41 252.53,348.72 248.41,349.06 244.31,349.47 240.19,349.84 237.69,350.28 236.06,350.5 231.97,351.06 227.84,351.47 223.72,351.66 219.62,350.75 217.78,350.28 215.5,349.69 211.41,348.56 207.28,347.56 203.16,347.09 199.06,346.78 194.94,346.59 190.81,346.47 186.72,346.53 182.59,346.59 178.47,346.59 174.38,346.5 170.25,345.91 166.5,345.31 166.12,345.25 162.03,344.62 157.91,344.09 153.78,344 149.69,343.97 145.56,343.97 141.44,343.94 137.34,343.66 133.22,343.31 129.12,342.94 125,342.56 120.88,342.25 116.78,342 112.66,341.75 108.53,341.56 104.44,341.28 100.31,341.06 96.188,340.91 92.094,340.84 87.969,340.97 83.844,341.22 79.75,341.59 75.625,342.06 71.5,342.59 67.406,343.22 63.281,344 59.188,344.91 57.438,345.31 55.062,346 50.938,347.34 46.844,348.91 43.719,350.28 42.719,350.88 38.594,353.62 36.375,355.25 34.5,356.75 30.375,360.19 30.312,360.25 26.25,363.59 24.094,365.28 22.156,366.66 18.031,369.72 " stroke="red" stroke-width="0.96875" stroke-linecap="round" stroke-linejoin="round" />
<polyline points="320.19,323.34 321.06,322.47 322.81,322.47 323.69,323.34 323.69,325.09 322.81,325.97 320.19,325.97 320.19,327.72 323.69,327.72 " stroke="red" stroke-width="0.71875" stroke-linecap="round" stroke-linejoin="round" />
<polyline points="326.31,327.72 329.81,327.72 328.06,322.47 " stroke="red" stroke-width="0.71875" stroke-linecap="round" stroke-linejoin="round" />
<polyline points="335.94,326.84 335.06,327.72 333.31,327.72 332.44,326.84 332.44,323.34 333.31,322.47 335.06,322.47 335.94,323.34 335.94,324.22 335.06,325.09 332.44,325.09 " stroke="red" stroke-width="0.71875" stroke-linecap="round" stroke-linejoin="round" />
<polygon points="339.44,327.72 338.56,326.84 338.56,323.34 339.44,322.47 341.19,322.47 342.06,323.34 342.06,326.84 341.19,327.72 " stroke="red" stroke-width="0.71875" stroke-linejoin="round" />
<polyline points="342.88,247 342.81,247.03 338.94,248.59 334.81,250.09 331,251.5 330.69,251.62 326.59,253.28 322.47,255.16 321.12,256 318.34,257.75 314.47,260.5 314.25,260.69 310.12,263.91 308.78,265.03 306.03,267.38 303.34,269.59 301.91,270.81 297.97,274.16 297.78,274.31 293.69,277.78 292.5,278.75 289.56,281.09 286.75,283.34 285.44,284.41 281.34,287.62 280.88,287.97 277.22,290.66 274.41,292.62 273.09,293.47 269,295.88 266.31,297.31 264.88,298.03 260.75,299.88 256.66,301.44 253.97,302 252.53,302.28 248.41,302.84 244.31,303.31 240.19,303.75 236.06,304.59 231.97,305.53 228.97,306.25 " stroke="red" stroke-width="0.96875" stroke-linecap="round" stroke-linejoin="round" />
<polyline points="202.03,309.56 199.06,309.72 194.94,309.91 190.81,310.06 186.72,310.16 182.59,310.22 178.47,310.19 174.38,310.12 170.25,310 166.12,309.81 162.03,309.56 157.91,309.28 153.78,308.94 149.69,308.56 145.56,308.19 141.44,307.84 137.34,307.5 133.22,307.19 129.12,306.88 126.28,306.72 125,306.62 120.88,306.38 116.78,306.16 112.66,306 108.53,305.94 104.44,306.03 100.31,306.28 96.188,306.62 95.375,306.72 92.094,307.03 87.969,307.47 83.844,308 79.75,308.59 75.625,309.28 71.5,310.09 67.406,310.97 65.312,311.44 63.281,311.75 59.188,312.38 55.062,312.94 50.938,313.47 46.844,314 42.719,314.53 38.594,315.03 34.5,315.56 30.375,316.12 29.812,316.22 26.25,316.69 22.156,317.25 18.031,317.91 " stroke="red" stroke-width="0.96875" stroke-linecap="round" stroke-linejoin="round" />
<polyline points="205,306.84 205.88,305.97 207.62,305.97 208.5,306.84 208.5,308.59 207.62,309.47 205,309.47 205,311.22 208.5,311.22 " stroke="red" stroke-width="0.71875" stroke-linecap="round" stroke-linejoin="round" />
<polygon points="212,311.22 211.12,310.34 211.12,309.47 212,308.59 213.75,308.59 214.62,309.47 214.62,310.34 213.75,311.22 " stroke="red" stroke-width="0.71875" stroke-linejoin="round" />
<polyline points="212,308.59 211.12,307.72 211.12,306.84 212,305.97 213.75,305.97 214.62,306.84 214.62,307.72 213.75,308.59 " stroke="red" stroke-width="0.71875" stroke-linecap="round" stroke-linejoin="round" />
<polyline points="217.25,310.34 218.12,311.22 219.88,311.22 220.75,310.34 220.75,309.47 217.25,305.97 220.75,305.97 " stroke="red" stroke-width="0.71875" stroke-linecap="round" stroke-linejoin="round" />
<polygon points="224.25,311.22 223.38,310.34 223.38,306.84 224.25,305.97 226,305.97 226.88,306.84 226.88,310.34 226,311.22 " stroke="red" stroke-width="0.71875" stroke-linejoin="round" />
<polyline points="528.66,247 528.53,247.12 525.91,247.12 525.91,248.88 529.41,248.88 " stroke="red" stroke-width="0.71875" stroke-linecap="round" stroke-linejoin="round" />
<polyline points="532.91,248.88 532.03,248 532.03,247.12 532.16,247 " stroke="red" stroke-width="0.71875" stroke-linecap="round" stroke-linejoin="round" />
<polyline points="535.41,247 535.53,247.12 535.53,248 534.66,248.88 532.91,248.88 " stroke="red" stroke-width="0.71875" stroke-linecap="round" stroke-linejoin="round" />
<polyline points="538.16,248 539.03,248.88 540.78,248.88 541.66,248 541.66,247.12 541.53,247 " stroke="red" stroke-width="0.71875" stroke-linecap="round" stroke-linejoin="round" />
<polyline points="545.16,248.88 544.28,248 544.28,247 " stroke="red" stroke-width="0.71875" stroke-linecap="round" stroke-linejoin="round" />
<polyline points="547.78,247 547.78,248 546.91,248.88 545.16,248.88 " stroke="red" stroke-width="0.71875" stroke-linecap="round" stroke-linejoin="round" />
</g>
</svg>
