<?xml version="1.0" encoding="ISO-8859-1" standalone="no"?>
<!DOCTYPE svg PUBLIC "-//W3C//DTD SVG 1.1//EN" "http://www.w3.org/Graphics/SVG/1.1/DTD/svg11.dtd">
<svg version="1.1" baseProfile="full" id="body" width="900px" height="600px" viewBox="0 0.2 1 0.55" preserveAspectRatio="none" xmlns="http://www.w3.org/2000/svg" xmlns:xlink="http://www.w3.org/1999/xlink" xmlns:ev="http://www.w3.org/2001/xml-events">
<title>SVG drawing</title>
<desc>This was produced by version 4.2 of GNU libplot, a free library for exporting 2-D vector graphics.</desc>
<rect id="background" x="0" y="0" width="1" height="1" stroke="none" fill="none"/>
<g id="content" transform="translate(-0.03125,1.1875) scale(1,-1) scale(0.0017361) " xml:space="preserve" stroke="black" stroke-linecap="butt" stroke-linejoin="miter" stroke-miterlimit="10.433" stroke-dasharray="none" stroke-dashoffset="0" stroke-opacity="1" fill="none" fill-rule="even-odd" fill-opacity="1" font-style="normal" font-variant="normal" font-weight="normal" font-stretch="normal" font-size-adjust="none" letter-spacing="normal" word-spacing="normal" text-anchor="start">
<polyline points="45.188,568.66 45.156,568.62 42.719,566.38 38.594,562.53 37.906,561.84 34.5,558.12 32.312,555.12 32.125,554.59 " stroke="red" stroke-width="0.96875" stroke-linecap="round" stroke-linejoin="round" />
<polyline points="29.219,545.12 28.469,541.91 27.062,535.38 26.25,532.59 25.188,528.97 22.156,523.84 21.281,522.59 18.031,518.88 " stroke="red" stroke-width="0.96875" stroke-linecap="round" stroke-linejoin="round" />
<polyline points="19.875,548.12 20.75,547.25 22.5,547.25 23.375,548.12 23.375,549.88 22.5,550.75 19.875,550.75 19.875,552.5 23.375,552.5 " stroke="red" stroke-width="0.71875" stroke-linecap="round" stroke-linejoin="round" />
<polyline points="26,551.62 26.875,552.5 28.625,552.5 29.5,551.62 29.5,550.75 26,547.25 29.5,547.25 " stroke="red" stroke-width="0.71875" stroke-linecap="round" stroke-linejoin="round" />
<polyline points="32.125,551.62 33,552.5 34.75,552.5 35.625,551.62 35.625,550.75 32.125,547.25 35.625,547.25 " stroke="red" stroke-width="0.71875" stroke-linecap="round" stroke-linejoin="round" />
<polygon points="39.125,552.5 38.25,551.62 38.25,548.12 39.125,547.25 40.875,547.25 41.75,548.12 41.75,551.62 40.875,552.5 " stroke="red" stroke-width="0.71875" stroke-linejoin="round" />
<polyline points="418.94,568.38 419.81,567.5 421.56,567.5 422.44,568.38 422.44,568.66 " stroke="red" stroke-width="0.71875" stroke-linecap="round" stroke-linejoin="round" />
<polyline points="426.22,568.66 425.06,567.5 428.56,567.5 " stroke="red" stroke-width="0.71875" stroke-linecap="round" stroke-linejoin="round" />
<polyline points="432.34,568.66 431.19,567.5 434.69,567.5 " stroke="red" stroke-width="0.71875" stroke-linecap="round" stroke-linejoin="round" />
<polyline points="437.31,568.66 437.31,568.38 438.19,567.5 439.94,567.5 440.81,568.38 440.81,568.66 " stroke="red" stroke-width="0.71875" stroke-linecap="round" stroke-linejoin="round" />
<polyline points="79.719,568.66 79.688,568.62 76.594,561.84 75.625,559.84 73.281,555.12 71.5,551.41 69.969,548.47 67.406,544.88 64.875,541.91 63.281,540.44 61.844,539.28 " stroke="red" stroke-width="0.96875" stroke-linecap="round" stroke-linejoin="round" />
<polyline points="48.375,529.84 47.281,528.97 46.844,528.53 42.719,523.5 42.219,522.59 38.594,516.88 38.25,516.28 34.5,511.31 33.469,510.06 30.375,507 26.906,503.88 26.25,503.5 22.156,501.34 18.031,499.44 " stroke="red" stroke-width="0.96875" stroke-linecap="round" stroke-linejoin="round" />
<polyline points="44.562,532.81 45.438,531.94 47.188,531.94 48.062,532.81 48.062,534.56 47.188,535.44 44.562,535.44 44.562,537.19 48.062,537.19 " stroke="red" stroke-width="0.71875" stroke-linecap="round" stroke-linejoin="round" />
<polyline points="50.688,536.31 51.562,537.19 53.312,537.19 54.188,536.31 54.188,535.44 50.688,531.94 54.188,531.94 " stroke="red" stroke-width="0.71875" stroke-linecap="round" stroke-linejoin="round" />
<polygon points="57.688,537.19 56.812,536.31 56.812,535.44 57.688,534.56 59.438,534.56 60.312,535.44 60.312,536.31 59.438,537.19 " stroke="red" stroke-width="0.71875" stroke-linejoin="round" />
<polyline points="57.688,534.56 56.812,533.69 56.812,532.81 57.688,531.94 59.438,531.94 60.312,532.81 60.312,533.69 59.438,534.56 " stroke="red" stroke-width="0.71875" stroke-linecap="round" stroke-linejoin="round" />
<polygon points="63.812,537.19 62.938,536.31 62.938,532.81 63.812,531.94 65.562,531.94 66.438,532.81 66.438,536.31 65.562,537.19 " stroke="red" stroke-width="0.71875" stroke-linejoin="round" />
<polyline points="379.97,568.66 379.97,568.62 379.81,561.84 380.06,559.09 380.44,555.12 381.81,548.47 384.09,541.91 384.19,541.69 387.81,535.38 388.31,534.75 392.41,531.62 396.53,529.84 400.62,529.16 404.75,529.34 408.88,530.16 409.59,530.38 " stroke="red" stroke-width="0.96875" stroke-linecap="round" stroke-linejoin="round" />
<polyline points="429.69,539.81 433.19,541.91 433.56,542.09 437.66,544.84 441.78,548.16 442.16,548.47 445.91,551.72 449.72,555.12 450,555.38 454.12,559.41 456.41,561.84 458.25,563.78 462.34,568.28 462.66,568.62 462.69,568.66 " stroke="red" stroke-width="0.96875" stroke-linecap="round" stroke-linejoin="round" />
<polyline points="410.72,533.34 411.59,532.47 413.34,532.47 414.22,533.34 414.22,535.09 413.34,535.97 410.72,535.97 410.72,537.72 414.22,537.72 " stroke="red" stroke-width="0.71875" stroke-linecap="round" stroke-linejoin="round" />
<polyline points="416.84,536.84 417.72,537.72 419.47,537.72 420.34,536.84 420.34,535.97 416.84,532.47 420.34,532.47 " stroke="red" stroke-width="0.71875" stroke-linecap="round" stroke-linejoin="round" />
<polygon points="423.84,537.72 422.97,536.84 422.97,535.97 423.84,535.09 425.59,535.09 426.47,535.97 426.47,536.84 425.59,537.72 " stroke="red" stroke-width="0.71875" stroke-linejoin="round" />
<polyline points="423.84,535.09 422.97,534.22 422.97,533.34 423.84,532.47 425.59,532.47 426.47,533.34 426.47,534.22 425.59,535.09 " stroke="red" stroke-width="0.71875" stroke-linecap="round" stroke-linejoin="round" />
<polygon points="429.97,537.72 429.09,536.84 429.09,533.34 429.97,532.47 431.72,532.47 432.59,533.34 432.59,536.84 431.72,537.72 " stroke="red" stroke-width="0.71875" stroke-linejoin="round" />
<polyline points="122.34,568.66 122.34,568.62 120.88,566.88 116.78,564 112.66,562.66 108.53,561.91 108.41,561.84 104.44,559.94 100.31,557.31 97.781,555.12 96.188,553.53 92.812,548.47 92.094,547.25 89.219,541.91 87.969,539.81 85.25,535.38 83.844,533.62 81.812,531.31 " stroke="red" stroke-width="0.96875" stroke-linecap="round" stroke-linejoin="round" />
<polyline points="67.312,521.88 63.281,519.44 59.188,516.47 58.969,516.28 55.062,513.19 51.781,510.06 50.938,509.28 46.844,505.19 45.594,503.88 42.719,501.84 38.594,499.12 36.469,497.75 34.5,496.59 30.375,494.28 26.25,492.03 25.469,491.69 22.156,490.34 18.031,488.66 " stroke="red" stroke-width="0.96875" stroke-linecap="round" stroke-linejoin="round" />
<polyline points="65.125,524.84 66,523.97 67.75,523.97 68.625,524.84 68.625,526.59 67.75,527.47 65.125,527.47 65.125,529.22 68.625,529.22 " stroke="red" stroke-width="0.71875" stroke-linecap="round" stroke-linejoin="round" />
<polyline points="71.25,528.34 72.125,529.22 73.875,529.22 74.75,528.34 74.75,527.47 73.875,526.59 73,526.59 73.875,526.59 74.75,525.72 74.75,524.84 73.875,523.97 72.125,523.97 71.25,524.84 " stroke="red" stroke-width="0.71875" stroke-linecap="round" stroke-linejoin="round" />
<polyline points="79.125,529.22 77.375,526.59 80.875,526.59 80.875,529.22 80.875,523.97 " stroke="red" stroke-width="0.71875" stroke-linecap="round" stroke-linejoin="round" />
<polygon points="84.375,529.22 83.5,528.34 83.5,524.84 84.375,523.97 86.125,523.97 87,524.84 87,528.34 86.125,529.22 " stroke="red" stroke-width="0.71875" stroke-linejoin="round" />
<polyline points="345.53,568.66 345.53,568.62 345.72,561.84 346.5,555.12 347.16,551.72 347.78,548.47 349.72,541.91 351.28,538.09 352.41,535.38 355.38,529.97 356,528.97 359.5,524.16 360.69,522.59 363.62,519.41 366.66,516.28 367.72,515.38 371.84,512.16 374.38,510.06 375.97,508.94 380.06,506.56 384.19,504.81 387.88,503.88 388.31,503.78 392.41,503.75 393.62,503.88 395.41,504.06 " stroke="red" stroke-width="0.96875" stroke-linecap="round" stroke-linejoin="round" />
<polyline points="419.38,512.25 421.22,513.28 425.31,516.16 425.5,516.28 429.44,519.22 433.56,522.28 433.94,522.59 437.66,525.47 441.78,528.94 441.81,528.97 445.91,532.72 448.78,535.38 450,536.56 454.12,540.44 455.69,541.91 458.25,544.28 462.34,548.38 462.44,548.47 466.47,552.75 468.59,555.12 470.56,557.31 474.69,561.59 474.91,561.84 478.81,566 481.19,568.62 481.22,568.66 " stroke="red" stroke-width="0.96875" stroke-linecap="round" stroke-linejoin="round" />
<polyline points="398.38,505.78 399.25,504.91 401,504.91 401.88,505.78 401.88,507.53 401,508.41 398.38,508.41 398.38,510.16 401.88,510.16 " stroke="red" stroke-width="0.71875" stroke-linecap="round" stroke-linejoin="round" />
<polyline points="404.5,509.28 405.38,510.16 407.12,510.16 408,509.28 408,508.41 407.12,507.53 406.25,507.53 407.12,507.53 408,506.66 408,505.78 407.12,504.91 405.38,504.91 404.5,505.78 " stroke="red" stroke-width="0.71875" stroke-linecap="round" stroke-linejoin="round" />
<polyline points="412.38,510.16 410.62,507.53 414.12,507.53 414.12,510.16 414.12,504.91 " stroke="red" stroke-width="0.71875" stroke-linecap="round" stroke-linejoin="round" />
<polygon points="417.62,510.16 416.75,509.28 416.75,505.78 417.62,504.91 419.38,504.91 420.25,505.78 420.25,509.28 419.38,510.16 " stroke="red" stroke-width="0.71875" stroke-linejoin="round" />
<polyline points="136.88,568.66 136.84,568.62 133.88,561.84 133.22,560.16 131.28,555.12 129.12,550.62 127.72,548.47 125,545.31 120.88,544.03 116.78,543.31 112.66,542.69 109.25,541.91 108.53,541.72 104.44,538.16 102.16,535.38 100.31,532.97 97.75,528.97 96.188,526.81 95.906,526.41 " stroke="red" stroke-width="0.96875" stroke-linecap="round" stroke-linejoin="round" />
<polyline points="84.594,516.97 83.844,516.56 83.281,516.28 79.75,514.72 75.625,512.94 71.5,510.59 70.625,510.06 67.406,507.97 63.281,504.94 62,503.88 59.188,501.72 55.062,498.72 53.719,497.75 50.938,495.91 46.844,493.31 44.156,491.69 42.719,490.88 38.594,488.59 34.5,486.34 33.281,485.69 30.375,484.12 26.25,482.03 22.156,480.22 21.062,479.75 18.031,478.5 " stroke="red" stroke-width="0.96875" stroke-linecap="round" stroke-linejoin="round" />
<polyline points="81.594,519.94 82.469,519.06 84.219,519.06 85.094,519.94 85.094,521.69 84.219,522.56 81.594,522.56 81.594,524.31 85.094,524.31 " stroke="red" stroke-width="0.71875" stroke-linecap="round" stroke-linejoin="round" />
<polyline points="89.469,524.31 87.719,521.69 91.219,521.69 91.219,524.31 91.219,519.06 " stroke="red" stroke-width="0.71875" stroke-linecap="round" stroke-linejoin="round" />
<polygon points="94.719,524.31 93.844,523.44 93.844,519.94 94.719,519.06 96.469,519.06 97.344,519.94 97.344,523.44 96.469,524.31 " stroke="red" stroke-width="0.71875" stroke-linejoin="round" />
<polygon points="100.84,524.31 99.969,523.44 99.969,519.94 100.84,519.06 102.59,519.06 103.47,519.94 103.47,523.44 102.59,524.31 " stroke="red" stroke-width="0.71875" stroke-linejoin="round" />
<polyline points="305.72,568.66 305.75,568.62 306.03,568.25 309.72,561.84 310.12,561.12 313.19,555.12 314.25,553 316.22,548.47 318.34,543.59 319.03,541.91 321.88,535.38 322.47,534.16 325.03,528.97 326.59,526.69 329.53,522.59 330.69,521.19 334.81,516.5 335,516.28 338.94,512.25 340.78,510.06 343.03,507.5 346.19,503.88 347.16,502.81 351.28,498.84 352.56,497.75 355.38,495.66 359.5,493.25 362.56,491.69 363.62,491.19 367.72,489.41 371.84,487.88 375.97,486.41 378.59,485.69 380.06,485.28 384.19,484.53 387.16,484.28 " stroke="red" stroke-width="0.96875" stroke-linecap="round" stroke-linejoin="round" />
<polyline points="411.19,490.66 412.97,491.62 413.06,491.69 417.09,494 421.22,496.41 423.16,497.75 425.31,499.25 429.44,502.38 431.28,503.88 433.56,505.69 437.66,509 439.12,510.06 441.78,512 445.91,515.19 447.22,516.28 450,518.69 454.12,522.47 454.25,522.59 458.25,526.12 461.44,528.97 462.34,529.75 466.47,533.41 468.59,535.38 470.56,537.31 474.69,541.25 475.34,541.91 478.81,545.25 482.12,548.47 482.91,549.22 487.03,553.22 489,555.12 491.16,557.28 495.25,561.31 495.81,561.84 499.38,565.28 503,568.62 503.03,568.66 " stroke="red" stroke-width="0.96875" stroke-linecap="round" stroke-linejoin="round" />
<polyline points="390.12,484.19 391,483.31 392.75,483.31 393.62,484.19 393.62,485.94 392.75,486.81 390.12,486.81 390.12,488.56 393.62,488.56 " stroke="red" stroke-width="0.71875" stroke-linecap="round" stroke-linejoin="round" />
<polyline points="398,488.56 396.25,485.94 399.75,485.94 399.75,488.56 399.75,483.31 " stroke="red" stroke-width="0.71875" stroke-linecap="round" stroke-linejoin="round" />
<polygon points="403.25,488.56 402.38,487.69 402.38,484.19 403.25,483.31 405,483.31 405.88,484.19 405.88,487.69 405,488.56 " stroke="red" stroke-width="0.71875" stroke-linejoin="round" />
<polygon points="409.38,488.56 408.5,487.69 408.5,484.19 409.38,483.31 411.12,483.31 412,484.19 412,487.69 411.12,488.56 " stroke="red" stroke-width="0.71875" stroke-linejoin="round" />
<polyline points="529.66,568.66 529.62,568.62 528.19,567.38 524.06,563.56 522.28,561.84 519.94,559.62 515.84,556.41 514.12,555.12 511.72,553.44 507.59,550.66 504.47,548.47 503.5,547.81 499.38,544.41 496.56,541.91 495.25,540.72 491.16,536.81 489.69,535.38 487.03,532.78 482.91,528.97 478.81,525.25 475.75,522.59 474.69,521.69 470.56,518.22 468.31,516.28 466.47,514.69 462.34,511.12 461.12,510.06 458.25,507.5 454.12,503.97 453.97,503.88 450,501 445.91,498.16 445.31,497.75 441.78,495.31 437.66,492.47 436.62,491.69 433.56,489.41 429.44,486.5 428.19,485.69 425.31,483.84 421.22,481.31 418.78,479.75 417.09,478.59 412.97,475.94 409.38,473.84 408.88,473.53 404.75,471.41 400.62,469.5 397.28,468 396.53,467.62 392.41,465.91 388.31,464.41 384.19,464 380.06,464.12 375.97,464.78 371.84,465.81 367.72,466.97 364.78,468 363.62,468.44 359.5,470.25 355.38,472.25 351.88,473.84 351.28,474.12 347.16,476.34 343.03,478.91 341.81,479.75 338.94,481.56 334.81,484.25 332.75,485.69 330.69,487.22 326.59,490.5 325.19,491.69 322.47,494.12 318.81,497.75 318.34,498.22 314.25,502.28 312.59,503.88 310.12,506.5 307,510.06 306.03,511.31 302.41,516.28 301.91,517 297.78,522.25 297.5,522.59 296.06,524.22 " stroke="red" stroke-width="0.96875" stroke-linecap="round" stroke-linejoin="round" />
<polyline points="288.06,533.69 286.84,535.38 285.44,537.41 282.06,541.91 281.34,542.84 277.22,547.66 276.44,548.47 273.09,551.88 269.72,555.12 269,555.84 264.88,559.72 262.44,561.84 260.75,563.28 256.66,566.44 252.84,568.62 252.78,568.66 " stroke="red" stroke-width="0.96875" stroke-linecap="round" stroke-linejoin="round" />
<polyline points="187.56,568.66 187.41,568.62 186.72,568.5 182.59,567.62 178.47,566.72 174.38,565.78 170.25,565.19 166.12,564.5 162.03,563.66 157.91,562.62 154.38,561.84 153.78,561.69 149.69,560.03 145.56,557.31 143.41,555.12 141.44,551.34 140.62,548.47 138.53,541.91 137.34,539.22 134.88,535.38 133.22,533.72 129.12,531.12 125,529.62 121.41,528.97 120.88,528.84 116.78,527.69 112.66,526 108.53,523.41 107.91,522.59 104.44,518.31 102.81,516.28 100.31,513.5 96.781,510.06 96.188,509.56 92.094,506.5 87.969,504.84 85.188,503.88 83.844,503.34 79.75,501.69 75.625,499.81 72.438,497.75 71.5,497.16 67.406,494.44 63.281,491.84 63.031,491.69 59.188,489.44 55.062,487.09 52.438,485.69 50.938,484.91 46.844,482.78 42.719,480.75 40.781,479.75 38.594,478.41 34.5,476 30.5,473.84 30.375,473.78 26.25,471.69 22.156,470.28 18.031,469 " stroke="red" stroke-width="0.96875" stroke-linecap="round" stroke-linejoin="round" />
<polyline points="281.34,527.22 282.22,526.34 283.97,526.34 284.84,527.22 284.84,528.97 283.97,529.84 281.34,529.84 281.34,531.59 284.84,531.59 " stroke="red" stroke-width="0.71875" stroke-linecap="round" stroke-linejoin="round" />
<polyline points="289.22,531.59 287.47,528.97 290.97,528.97 290.97,531.59 290.97,526.34 " stroke="red" stroke-width="0.71875" stroke-linecap="round" stroke-linejoin="round" />
<polyline points="297.09,530.72 296.22,531.59 294.47,531.59 293.59,530.72 293.59,527.22 294.47,526.34 296.22,526.34 297.09,527.22 297.09,528.09 296.22,528.97 293.59,528.97 " stroke="red" stroke-width="0.71875" stroke-linecap="round" stroke-linejoin="round" />
<polygon points="300.59,531.59 299.72,530.72 299.72,527.22 300.59,526.34 302.34,526.34 303.22,527.22 303.22,530.72 302.34,531.59 " stroke="red" stroke-width="0.71875" stroke-linejoin="round" />
<polyline points="568.28,568.66 568.22,568.62 565.19,567.25 561.09,565.38 556.97,563.44 553.59,561.84 552.88,561.47 548.75,559.44 544.62,557.28 540.81,555.12 540.53,554.94 536.41,552.19 532.28,548.72 532,548.47 528.19,545.16 524.19,541.91 524.06,541.78 519.94,538.62 515.84,536.12 514.59,535.38 511.72,533.62 507.59,531 504.66,528.97 503.5,528 499.38,524.06 497.88,522.59 495.25,520.06 491.25,516.28 491.16,516.19 487.03,512.56 483.94,510.06 482.91,509.22 478.81,505.97 476.09,503.88 474.69,502.75 470.56,499.38 468.66,497.75 466.47,495.91 462.34,492.59 461.19,491.69 458.25,489.47 454.12,486.53 452.88,485.69 450,483.75 445.91,480.97 444.06,479.75 441.78,478.16 437.66,475.28 435.47,473.84 433.56,472.59 429.44,470.03 425.94,468 425.31,467.62 421.22,465.31 417.09,463 415.62,462.19 412.97,460.84 408.88,458.81 404.75,456.91 403.97,456.47 400.62,454.59 396.53,452.56 392.41,450.81 392.25,450.75 388.31,449.5 384.19,448.84 380.06,448.44 375.97,448.31 371.84,448.44 367.72,448.84 363.62,449.5 359.5,450.38 357.94,450.75 355.38,451.44 351.28,452.5 347.16,453.66 343.03,454.94 338.94,456.47 334.81,459.53 331.38,462.19 330.69,462.75 326.59,466.09 324.19,468 322.47,469.38 319.59,471.84 " stroke="red" stroke-width="0.96875" stroke-linecap="round" stroke-linejoin="round" />
<polyline points="309.16,481.28 306.03,484.34 304.66,485.69 301.91,488.53 298.84,491.69 297.78,492.84 293.69,497.25 293.19,497.75 289.56,501.66 287.28,503.88 285.44,505.78 281.34,510 281.28,510.06 277.22,514.31 275.25,516.28 273.09,518.56 269,521.78 267.81,522.59 264.88,524.59 260.75,527.03 257.06,528.97 256.66,529.19 252.53,531.25 248.41,533.09 244.31,534.69 242.16,535.38 240.19,536.03 236.06,537.09 231.97,537.91 227.84,538.56 223.72,539.09 219.62,539.78 215.5,540.31 211.41,540.75 207.28,541.06 203.16,541.25 199.06,541.31 194.94,541.28 190.81,541.09 186.72,540.56 182.59,539.97 178.47,539.31 174.38,538.72 170.25,539.12 166.12,539.31 162.03,538.97 157.91,537.75 155.69,535.38 153.78,532.88 151.62,528.97 149.69,526.19 146.91,522.59 145.56,521.19 141.44,517.69 138.31,516.28 137.34,515.88 133.22,514.31 129.12,512.81 125,511.16 122.28,510.06 120.88,509.41 116.78,507.25 112.66,504.69 111.5,503.88 108.53,502 104.44,498.91 102.78,497.75 100.31,496.12 96.188,493.69 92.344,491.69 92.094,491.56 87.969,489.81 83.844,488.03 79.75,486.12 78.844,485.69 75.625,484.03 71.5,482 67.406,480.19 66.312,479.75 63.281,478.38 59.188,476.5 55.062,474.47 53.781,473.84 50.938,472.38 46.844,470.25 42.719,468.19 42.312,468 38.594,465.94 34.5,463.91 30.656,462.19 30.375,462.06 26.25,460.38 22.156,459.12 18.031,458 " stroke="red" stroke-width="0.96875" stroke-linecap="round" stroke-linejoin="round" />
<polyline points="303.75,474.81 304.62,473.94 306.38,473.94 307.25,474.81 307.25,476.56 306.38,477.44 303.75,477.44 303.75,479.19 307.25,479.19 " stroke="red" stroke-width="0.71875" stroke-linecap="round" stroke-linejoin="round" />
<polyline points="309.88,474.81 310.75,473.94 312.5,473.94 313.38,474.81 313.38,476.56 312.5,477.44 309.88,477.44 309.88,479.19 313.38,479.19 " stroke="red" stroke-width="0.71875" stroke-linecap="round" stroke-linejoin="round" />
<polyline points="316,478.31 316.88,479.19 318.62,479.19 319.5,478.31 319.5,477.44 316,473.94 319.5,473.94 " stroke="red" stroke-width="0.71875" stroke-linecap="round" stroke-linejoin="round" />
<polygon points="323,479.19 322.12,478.31 322.12,474.81 323,473.94 324.75,473.94 325.62,474.81 325.62,478.31 324.75,479.19 " stroke="red" stroke-width="0.71875" stroke-linejoin="round" />
<polyline points="594,553.59 589.88,552.19 585.78,550.94 581.66,549.56 578.5,548.47 577.53,548.12 573.44,546.53 569.31,544.88 565.19,543.03 562.78,541.91 561.09,541.03 556.97,538.84 552.88,536.59 550.44,535.38 548.75,534.53 544.62,532.31 540.53,530.06 538.62,528.97 536.41,527.66 532.28,524.97 528.56,522.59 528.19,522.34 524.06,519.72 519.94,517.12 518.66,516.28 515.84,514.31 511.72,511.19 510.34,510.06 507.59,507.72 503.5,504.06 503.25,503.88 499.38,500.88 495.25,497.88 495.09,497.75 491.16,494.94 487.03,492.09 486.5,491.69 482.91,489.03 478.81,485.91 478.53,485.69 474.69,482.66 470.97,479.75 470.56,479.44 466.47,476.59 462.34,473.94 462.19,473.84 458.25,471.44 454.12,469 452.62,468 450,466.22 445.91,463.31 444.38,462.19 441.78,460.34 437.66,457.44 435.97,456.47 433.56,455.12 429.44,452.97 425.31,450.97 424.91,450.75 421.22,449 417.09,447.16 412.97,445.41 412.31,445.12 408.88,443.69 404.75,442.12 400.62,440.59 397.06,439.5 396.53,439.34 392.41,438.31 388.31,437.44 384.19,436.59 380.06,435.88 375.97,435.31 371.84,434.94 367.72,435.16 363.62,435.66 359.5,436.44 355.38,437.47 351.28,438.75 349.06,439.5 347.16,440.16 343.03,441.62 338.94,443.12 334.81,444.88 334.31,445.12 330.69,446.91 326.59,449.22 324.12,450.75 322.47,451.88 320.5,453.28 " stroke="red" stroke-width="0.96875" stroke-linecap="round" stroke-linejoin="round" />
<polyline points="308.25,462.75 306.03,464.5 301.91,467.5 301.22,468 297.78,470.56 293.69,473.81 293.66,473.84 289.56,477.16 285.72,479.75 285.44,479.91 281.34,482.38 277.22,484.75 275.47,485.69 273.09,487 269,489.06 264.88,490.94 263.03,491.69 260.75,492.66 256.66,494.16 252.53,495.5 248.41,496.69 244.44,497.75 244.31,497.78 240.19,498.88 236.06,500.25 231.97,501.66 227.84,503.03 225.47,503.88 223.72,504.5 219.62,506.44 215.5,508.31 211.47,510.06 211.41,510.09 207.28,511.56 203.16,512.31 199.06,512.78 194.94,513.06 190.81,513.22 186.72,513.62 182.59,513.84 178.47,513.81 174.38,513.5 170.25,512.62 166.12,511.09 164.22,510.06 162.03,508.75 157.91,505.75 154.69,503.88 153.78,503.44 149.69,501.53 145.56,499.66 141.44,497.88 141.19,497.75 137.34,496.09 133.22,494.44 129.12,492.88 126,491.69 125,491.31 120.88,489.31 116.78,487.22 113.91,485.69 112.66,485.03 108.53,482.78 104.44,480.78 102.16,479.75 100.31,478.81 96.188,476.75 92.094,474.69 90.5,473.84 87.969,472.44 83.844,470.22 79.75,468.12 79.469,468 75.625,466.12 71.5,464.47 67.406,462.94 65.406,462.19 63.281,461.38 59.188,459.75 55.062,457.97 51.531,456.47 50.938,456.19 46.844,454.22 42.719,452.31 39.5,450.75 38.594,450.31 34.5,448.25 30.375,446.38 27.281,445.12 26.25,444.66 22.156,443.44 18.031,442.19 " stroke="red" stroke-width="0.96875" stroke-linecap="round" stroke-linejoin="round" />
<polyline points="303.75,456.25 304.62,455.38 306.38,455.38 307.25,456.25 307.25,458 306.38,458.88 303.75,458.88 303.75,460.62 307.25,460.62 " stroke="red" stroke-width="0.71875" stroke-linecap="round" stroke-linejoin="round" />
<polyline points="309.88,456.25 310.75,455.38 312.5,455.38 313.38,456.25 313.38,458 312.5,458.88 309.88,458.88 309.88,460.62 313.38,460.62 " stroke="red" stroke-width="0.71875" stroke-linecap="round" stroke-linejoin="round" />
<polygon points="316.88,460.62 316,459.75 316,458.88 316.88,458 318.62,458 319.5,458.88 319.5,459.75 318.62,460.62 " stroke="red" stroke-width="0.71875" stroke-linejoin="round" />
<polyline points="316.88,458 316,457.12 316,456.25 316.88,455.38 318.62,455.38 319.5,456.25 319.5,457.12 318.62,458 " stroke="red" stroke-width="0.71875" stroke-linecap="round" stroke-linejoin="round" />
<polygon points="323,460.62 322.12,459.75 322.12,456.25 323,455.38 324.75,455.38 325.62,456.25 325.62,459.75 324.75,460.62 " stroke="red" stroke-width="0.71875" stroke-linejoin="round" />
<polyline points="594,523.56 590.06,522.59 589.88,522.56 585.78,522 581.66,520.38 577.53,518.69 573.44,516.97 571.81,516.28 569.31,515.16 565.19,513.31 561.09,511.5 557.81,510.06 556.97,509.69 552.88,507.78 548.75,505.75 545.09,503.88 544.62,503.62 540.53,501.34 536.41,499.09 533.41,497.75 532.28,497.25 528.19,495.28 524.06,493.19 521.31,491.69 519.94,490.91 515.84,488.03 512.38,485.69 511.72,485.25 507.59,482.53 503.5,480 503.03,479.75 499.38,477.66 495.25,475.41 492.47,473.84 491.16,473.09 487.03,470.69 483.25,468 482.91,467.75 478.81,464.62 475.56,462.19 474.69,461.53 470.56,458.56 466.56,456.47 466.47,456.41 462.34,454.41 458.25,452.44 454.84,450.75 454.12,450.41 450,447.75 445.91,445.16 445.84,445.12 441.78,442.59 437.66,440.25 436.25,439.5 433.56,438.12 429.44,436.09 425.31,434.16 424.88,433.97 421.22,432.28 417.09,430.59 412.97,429.09 411,428.44 408.88,427.72 404.75,426.5 400.62,425.5 396.53,424.62 392.41,423.88 388.31,423.22 386.88,422.97 384.19,422.5 380.06,421.94 375.97,421.59 371.84,421.44 367.72,421.59 363.62,421.94 359.5,422.53 357.28,422.97 355.38,423.31 351.28,424.47 347.16,425.88 343.03,427.53 340.94,428.44 338.94,429.25 334.81,430.78 330.69,432.38 326.69,433.97 326.59,433.97 324.28,434.78 " stroke="red" stroke-width="0.96875" stroke-linecap="round" stroke-linejoin="round" />
<polyline points="302.78,444.25 301.91,444.66 300.91,445.12 297.78,446.56 293.69,448.38 289.56,450.12 287.84,450.75 285.44,451.69 281.34,453.09 277.22,454.44 273.09,455.72 271.12,456.47 269,457.25 264.88,458.81 260.75,460.38 256.66,461.94 255.97,462.19 252.53,463.59 248.41,465.22 244.31,466.81 241.12,468 240.19,468.34 236.06,470 231.97,471.69 227.84,473.38 226.66,473.84 223.72,475.03 219.62,476.5 215.5,477.88 211.41,479.16 209.47,479.75 207.28,480.44 203.16,481.72 199.06,482.81 194.94,483.72 190.81,484.41 186.72,484.97 182.59,485.31 178.47,485.31 174.38,484.88 170.25,483.66 166.12,482.25 162.03,480.78 159.25,479.75 157.91,479.22 153.78,477.19 149.69,475.19 146.72,473.84 145.56,473.34 141.44,471.72 137.34,470.97 133.22,470.28 129.12,469.56 125,468.69 123.16,468 120.88,467.16 116.78,465.47 112.66,463.75 109.09,462.19 108.53,461.97 104.44,459.81 100.31,457.53 98.469,456.47 96.188,455.12 92.094,452.78 88.062,450.75 87.969,450.72 83.844,448.66 79.75,446.69 76.312,445.12 75.625,444.78 71.5,443.06 67.406,441.41 63.281,439.75 62.688,439.5 59.188,438.03 55.062,436.06 50.938,434.06 50.719,433.97 46.844,432.12 42.719,430.16 39.25,428.44 38.594,428.09 34.5,425.97 30.375,423.81 28.75,422.97 26.25,421.62 22.156,419.91 18.031,418.09 " stroke="red" stroke-width="0.96875" stroke-linecap="round" stroke-linejoin="round" />
<polyline points="301.88,437.75 302.75,436.88 304.5,436.88 305.38,437.75 305.38,439.5 304.5,440.38 301.88,440.38 301.88,442.12 305.38,442.12 " stroke="red" stroke-width="0.71875" stroke-linecap="round" stroke-linejoin="round" />
<polyline points="311.5,441.25 310.62,442.12 308.88,442.12 308,441.25 308,437.75 308.88,436.88 310.62,436.88 311.5,437.75 311.5,438.62 310.62,439.5 308,439.5 " stroke="red" stroke-width="0.71875" stroke-linecap="round" stroke-linejoin="round" />
<polyline points="315.88,442.12 314.12,439.5 317.62,439.5 317.62,442.12 317.62,436.88 " stroke="red" stroke-width="0.71875" stroke-linecap="round" stroke-linejoin="round" />
<polygon points="321.12,442.12 320.25,441.25 320.25,437.75 321.12,436.88 322.88,436.88 323.75,437.75 323.75,441.25 322.88,442.12 " stroke="red" stroke-width="0.71875" stroke-linejoin="round" />
<polyline points="594,470.38 589.88,471.53 585.78,473.06 581.66,473.19 577.53,473.25 573.44,473.22 569.31,473 565.19,472.41 561.09,471.62 556.97,470.62 552.88,469.44 548.75,468 544.62,466.38 540.53,464.75 536.41,463.12 533.84,462.19 532.28,461.62 528.19,460.12 524.06,458.62 519.94,457.16 517.84,456.47 515.84,455.78 511.72,454.41 507.59,452.97 503.5,451.47 501.69,450.75 499.38,449.81 495.25,447.94 491.16,445.84 489.81,445.12 487.03,443.53 482.91,441 480.25,439.5 478.81,438.75 474.69,436.75 470.56,435 467.62,433.97 466.47,433.53 462.34,431.91 458.25,430.25 454.12,428.5 454.03,428.44 450,426.34 445.91,424.28 443.16,422.97 441.78,422.31 437.66,420.34 433.56,418.5 431.31,417.53 429.44,416.72 425.31,414.97 421.22,413.41 417.53,412.16 417.09,411.97 412.97,410.5 408.88,409.16 404.75,407.94 400.72,406.78 400.62,406.78 396.53,405.66 392.41,404.69 388.31,403.91 384.19,403.44 380.06,403.09 375.97,402.88 371.84,402.78 367.72,402.69 363.62,402.72 359.5,402.91 355.38,403.25 351.28,403.91 347.16,404.81 343.03,405.91 340.34,406.78 338.94,407.19 334.81,408.44 330.69,409.84 326.59,411.25 324,412.16 322.47,412.56 318.34,413.47 315.38,414.06 " stroke="red" stroke-width="0.96875" stroke-linecap="round" stroke-linejoin="round" />
<polyline points="288.44,421.22 285.44,422.09 282.59,422.97 281.34,423.34 277.22,424.66 273.09,426.09 269,427.78 267.41,428.44 264.88,429.47 260.75,431.19 256.66,432.94 254.56,433.97 252.53,435 248.41,437.19 244.31,439.41 244.12,439.5 240.19,441.5 236.06,443.22 231.97,444.84 231.19,445.12 227.84,446.28 223.72,447.62 219.62,448.88 215.5,450.03 212.59,450.75 211.41,451.06 207.28,451.97 203.16,452.72 199.06,453.31 194.94,453.75 190.81,454 186.72,454 182.59,453.84 178.47,453.56 174.38,453.16 170.25,452.78 166.12,452.31 162.03,451.78 157.91,451.12 156.25,450.75 153.78,450.25 149.69,449.31 145.56,448.38 141.44,447.41 137.34,446.53 133.22,445.56 131.5,445.12 129.12,444.47 125,443.22 120.88,441.75 116.78,440.12 115.41,439.5 112.66,438.25 108.53,436.19 104.44,434.09 104.16,433.97 100.31,432 96.188,429.84 93.5,428.44 92.094,427.69 87.969,425.56 83.844,423.59 82.438,422.97 79.75,421.78 75.625,420.09 71.5,418.53 68.844,417.53 67.406,417 63.281,415.38 59.188,413.75 55.406,412.16 55.062,412 50.938,410.16 46.844,408.25 43.719,406.78 42.719,406.31 38.594,404.19 34.5,402.09 33.281,401.47 30.375,400.03 26.25,398 22.281,396.22 22.156,396.16 18.031,394.09 " stroke="red" stroke-width="0.96875" stroke-linecap="round" stroke-linejoin="round" />
<polyline points="291.41,415.53 292.28,414.66 294.03,414.66 294.91,415.53 294.91,417.28 294.03,418.16 291.41,418.16 291.41,419.91 294.91,419.91 " stroke="red" stroke-width="0.71875" stroke-linecap="round" stroke-linejoin="round" />
<polyline points="297.53,419.91 301.03,419.91 299.28,414.66 " stroke="red" stroke-width="0.71875" stroke-linecap="round" stroke-linejoin="round" />
<polygon points="304.53,419.91 303.66,419.03 303.66,415.53 304.53,414.66 306.28,414.66 307.16,415.53 307.16,419.03 306.28,419.91 " stroke="red" stroke-width="0.71875" stroke-linejoin="round" />
<polygon points="310.66,419.91 309.78,419.03 309.78,415.53 310.66,414.66 312.41,414.66 313.28,415.53 313.28,419.03 312.41,419.91 " stroke="red" stroke-width="0.71875" stroke-linejoin="round" />
<polyline points="594,363.72 593.47,365.28 591.84,370.38 590.53,375.47 589.88,378.12 589.28,380.59 588.09,385.78 586.81,390.97 585.78,394.03 584.91,396.22 582.34,401.47 581.66,402.66 578.72,406.78 577.53,408.19 573.44,412.06 573.31,412.16 569.31,414.97 565.19,416.91 563.25,417.53 561.09,418.19 556.97,418.97 552.88,419.34 548.75,419.44 544.62,419.31 540.53,418.97 536.41,418.44 532.28,417.75 531.16,417.53 528.19,416.97 524.06,416.09 519.94,415.22 515.84,414.59 511.72,413.94 507.59,413.28 503.5,412.62 500.72,412.16 499.38,411.91 495.25,411.09 491.16,410.19 487.03,409.19 482.91,408 478.81,406.81 478.78,406.78 474.69,405.5 470.56,404.19 466.47,402.88 462.34,401.5 462.34,401.47 458.25,399.97 454.12,398.41 450,396.94 448,396.22 445.91,395.41 441.78,393.81 437.66,392.22 434.72,390.97 433.56,390.47 429.44,388.75 425.31,387.03 422.28,385.78 421.22,385.28 417.09,383.47 412.97,381.59 410.75,380.59 408.88,379.66 404.75,377.59 400.62,375.56 400.44,375.47 396.53,373.31 392.41,371 391.25,370.38 388.31,368.84 384.19,366.84 381.03,365.28 380.06,364.81 375.97,362.78 371.84,360.88 369.62,360.25 367.72,359.75 363.62,358.81 359.5,357.94 355.38,356.94 352.38,355.25 351.28,354.53 347.16,351.38 345.91,350.28 343.03,347.66 340.38,345.31 338.94,344.03 334.81,340.75 334.44,340.41 330.69,336.88 329.38,335.5 328.19,334.31 " stroke="red" stroke-width="0.96875" stroke-linecap="round" stroke-linejoin="round" />
<polyline points="309,329.16 306.03,330.22 305.38,330.66 301.91,333.62 300.41,335.5 297.78,340.06 297.62,340.41 295.94,345.31 294.69,350.28 294.09,355.25 293.69,359.09 293.53,360.25 292.75,365.28 291.41,370.38 289.56,374.03 288.75,375.47 285.44,379.91 284.91,380.59 281.34,384.22 279.75,385.78 277.22,387.78 273.09,390.88 272.97,390.97 269,393.19 264.88,395.53 263.72,396.22 260.75,397.81 256.66,400.03 253.19,401.47 252.53,401.72 248.41,403.12 244.31,404.47 240.19,405.91 238.84,406.78 236.06,408.72 231.97,412 231.75,412.16 227.84,414.91 223.72,417.16 219.62,417.44 215.5,417.28 211.41,416.81 207.28,416.31 203.16,417.25 202.16,417.53 199.06,418.34 194.94,419.38 190.81,420.28 186.72,420.38 182.59,420.28 178.47,420.06 174.38,419.81 170.25,419.88 166.12,419.88 162.03,419.84 157.91,419.69 153.78,419.28 149.69,418.72 145.56,418 143.44,417.53 141.44,417.09 137.34,416.09 133.22,415 129.12,413.78 125,412.47 124.09,412.16 120.88,411 116.78,409.25 112.66,407.25 111.78,406.78 108.53,405 104.44,402.97 100.88,401.47 100.31,401.25 96.188,399.78 92.094,398.5 87.969,397.06 85.594,396.22 83.844,395.56 79.75,394 75.625,392.41 71.5,391 71.438,390.97 67.406,389.62 63.281,388.28 59.188,386.94 55.562,385.78 55.062,385.59 50.938,384.22 46.844,382.78 42.719,381.31 40.938,380.59 38.594,379.66 34.5,377.88 30.375,376.03 29.156,375.47 26.25,374.06 22.156,372.06 18.75,370.38 18.031,370.03 " stroke="red" stroke-width="0.96875" stroke-linecap="round" stroke-linejoin="round" />
<polyline points="311.97,327.84 312.84,326.97 314.59,326.97 315.47,327.84 315.47,329.59 314.59,330.47 311.97,330.47 311.97,332.22 315.47,332.22 " stroke="red" stroke-width="0.71875" stroke-linecap="round" stroke-linejoin="round" />
<polyline points="318.09,332.22 321.59,332.22 319.84,326.97 " stroke="red" stroke-width="0.71875" stroke-linecap="round" stroke-linejoin="round" />
<polyline points="327.72,331.34 326.84,332.22 325.09,332.22 324.22,331.34 324.22,327.84 325.09,326.97 326.84,326.97 327.72,327.84 327.72,328.72 326.84,329.59 324.22,329.59 " stroke="red" stroke-width="0.71875" stroke-linecap="round" stroke-linejoin="round" />
<polygon points="331.22,332.22 330.34,331.34 330.34,327.84 331.22,326.97 332.97,326.97 333.84,327.84 333.84,331.34 332.97,332.22 " stroke="red" stroke-width="0.71875" stroke-linejoin="round" />
<polyline points="562.31,247 562.25,247.03 561.09,247.69 556.97,250.12 554.75,251.5 552.88,253 549.19,256 548.75,256.5 545.28,260.5 544.62,261.53 542.41,265.03 540.53,269.41 540.44,269.59 539.19,274.16 538.75,278.75 538.88,283.34 539.44,287.97 540.25,292.62 540.53,293.69 541.28,297.31 542.22,302 542.94,306.72 543.44,311.44 543.34,316.22 543.06,321 542.62,325.81 542.12,330.66 541.94,335.5 541.59,340.41 541,345.31 540.53,347.97 540.03,350.28 538.06,355.25 536.41,357.81 533.38,360.25 532.28,360.88 528.19,362.22 524.06,362.75 519.94,362.69 515.84,362.19 511.72,361.38 507.59,360.34 507.28,360.25 503.5,359 499.38,357.47 495.25,355.69 494.31,355.25 491.16,353.53 487.03,351.19 485.03,350.28 482.91,349.28 478.81,347.5 474.69,345.84 473.34,345.31 470.56,344.22 466.47,342.25 462.34,340.47 462.16,340.41 458.25,338.88 454.12,337.59 450,337.12 445.91,336.78 441.78,336.53 437.66,336.19 433.56,335.59 433.12,335.5 429.44,334.75 425.31,333.62 421.22,332.22 417.81,330.66 417.09,330.28 412.97,328.03 408.88,325.88 408.75,325.81 404.75,323.62 400.62,321.56 399.53,321 396.53,319.44 392.41,317.31 390.28,316.22 388.31,315.06 384.19,312.28 383.03,311.44 380.06,308.81 377.56,306.72 375.97,305.28 371.84,302 371.81,302 367.72,298.75 365.72,297.31 363.62,295.72 359.5,292.97 358.94,292.62 355.38,290 352.34,287.97 351.28,287.25 348.28,285.62 " stroke="red" stroke-width="0.96875" stroke-linecap="round" stroke-linejoin="round" />
<polyline points="321.34,283.81 318.34,284 314.25,284.31 310.12,284.72 306.03,285.25 301.91,286 297.78,286.94 294.25,287.97 293.69,288.16 289.56,289.69 285.44,292.44 285.22,292.62 281.34,296.38 280.53,297.31 277.22,301.66 277,302 274.09,306.72 273.09,308.53 271.41,311.44 269.03,316.22 269,316.31 266.66,321 264.88,324.59 264.25,325.81 261.62,330.66 260.75,332.19 258.75,335.5 256.66,338.84 255.59,340.41 252.53,344.84 252.16,345.31 248.41,350.25 248.38,350.28 244.31,354.69 243.66,355.25 240.19,358.03 236.12,360.25 236.06,360.28 231.97,361.97 227.84,363.38 223.72,364.56 221.22,365.28 219.62,365.75 215.5,366.84 211.41,367.91 207.28,368.94 203.16,370.06 202.03,370.38 199.06,371.03 194.94,371.94 190.81,372.88 186.72,373.81 182.59,374.78 179.94,375.47 178.47,375.81 174.38,376.84 170.25,377.81 166.12,378.62 162.03,379.25 157.91,379.75 153.78,380.22 149.69,380.56 148.22,380.59 145.56,380.69 141.94,380.59 141.44,380.59 137.34,380.16 133.22,379.44 129.12,378.41 125,377.06 121.78,375.47 120.88,375.03 116.78,372.97 112.66,371.06 111.03,370.38 108.53,369.41 104.44,368.25 100.31,367.22 96.188,366.22 92.125,365.28 92.094,365.28 87.969,364.38 83.844,363.44 79.75,362.47 75.625,361.44 71.531,360.25 71.5,360.25 67.406,358.97 63.281,357.66 59.188,356.34 55.469,355.25 55.062,355.12 50.938,353.81 46.844,352.47 42.719,351.12 40.219,350.28 38.594,349.69 34.5,348.22 30.375,346.75 26.312,345.31 26.25,345.31 22.156,343.72 18.031,342.16 " stroke="red" stroke-width="0.96875" stroke-linecap="round" stroke-linejoin="round" />
<polyline points="324.31,280.66 325.19,279.78 326.94,279.78 327.81,280.66 327.81,282.41 326.94,283.28 324.31,283.28 324.31,285.03 327.81,285.03 " stroke="red" stroke-width="0.71875" stroke-linecap="round" stroke-linejoin="round" />
<polygon points="331.31,285.03 330.44,284.16 330.44,283.28 331.31,282.41 333.06,282.41 333.94,283.28 333.94,284.16 333.06,285.03 " stroke="red" stroke-width="0.71875" stroke-linejoin="round" />
<polyline points="331.31,282.41 330.44,281.53 330.44,280.66 331.31,279.78 333.06,279.78 333.94,280.66 333.94,281.53 333.06,282.41 " stroke="red" stroke-width="0.71875" stroke-linecap="round" stroke-linejoin="round" />
<polyline points="336.56,284.16 337.44,285.03 339.19,285.03 340.06,284.16 340.06,283.28 336.56,279.78 340.06,279.78 " stroke="red" stroke-width="0.71875" stroke-linecap="round" stroke-linejoin="round" />
<polygon points="343.56,285.03 342.69,284.16 342.69,280.66 343.56,279.78 345.31,279.78 346.19,280.66 346.19,284.16 345.31,285.03 " stroke="red" stroke-width="0.71875" stroke-linejoin="round" />
<polyline points="70.688,247 70.625,247.03 67.406,248.78 63.281,250.84 61.781,251.5 59.188,252.56 55.062,253.53 50.938,254.38 46.844,255.22 43.469,256 42.719,256.22 38.594,258.59 36.094,260.5 34.5,262.56 32.781,265.03 31.406,269.59 31.344,274.16 32.219,278.75 34.5,283.16 34.594,283.34 38.594,287.47 39.156,287.97 42.719,290.22 46.844,292.53 47.031,292.62 50.938,295.66 52.562,297.31 55.062,299.81 56.875,302 59.188,304.38 62.531,306.72 63.281,307.09 67.406,308.72 71.5,310 75.625,311.03 76.781,311.44 79.75,312.5 82.719,313.56 " stroke="red" stroke-width="0.96875" stroke-linecap="round" stroke-linejoin="round" />
<polyline points="109.69,319.81 112.66,320.59 114.12,321 116.78,321.69 120.88,322.72 125,323.62 129.12,324.28 133.22,324.66 137.34,324.72 141.44,324.53 145.56,323.72 149.69,322.53 153.72,321 153.78,320.97 157.91,318.94 162.03,317.34 165.03,316.22 166.12,315.75 170.25,314.09 174.38,312.44 176.38,311.44 178.47,310.34 182.59,308.09 185.09,306.72 186.72,305.69 190.81,303.03 192.66,302 194.94,300.44 199.06,297.38 199.16,297.31 203.16,293.34 203.81,292.62 207.28,288.72 207.91,287.97 210.97,283.34 211.41,282.44 212.97,278.75 213.97,274.16 213.12,269.59 211.59,265.03 211.41,264.62 209.69,260.5 207.62,256 207.28,254.94 206.28,251.5 204.75,247.03 204.75,247 " stroke="red" stroke-width="0.96875" stroke-linecap="round" stroke-linejoin="round" />
<polyline points="85.688,315.72 86.562,314.84 88.312,314.84 89.188,315.72 89.188,317.47 88.312,318.34 85.688,318.34 85.688,320.09 89.188,320.09 " stroke="red" stroke-width="0.71875" stroke-linecap="round" stroke-linejoin="round" />
<polygon points="92.688,320.09 91.812,319.22 91.812,318.34 92.688,317.47 94.438,317.47 95.312,318.34 95.312,319.22 94.438,320.09 " stroke="red" stroke-width="0.71875" stroke-linejoin="round" />
<polyline points="92.688,317.47 91.812,316.59 91.812,315.72 92.688,314.84 94.438,314.84 95.312,315.72 95.312,316.59 94.438,317.47 " stroke="red" stroke-width="0.71875" stroke-linecap="round" stroke-linejoin="round" />
<polygon points="98.812,320.09 97.938,319.22 97.938,318.34 98.812,317.47 100.56,317.47 101.44,318.34 101.44,319.22 100.56,320.09 " stroke="red" stroke-width="0.71875" stroke-linejoin="round" />
<polyline points="98.812,317.47 97.938,316.59 97.938,315.72 98.812,314.84 100.56,314.84 101.44,315.72 101.44,316.59 100.56,317.47 " stroke="red" stroke-width="0.71875" stroke-linecap="round" stroke-linejoin="round" />
<polygon points="104.94,320.09 104.06,319.22 104.06,315.72 104.94,314.84 106.69,314.84 107.56,315.72 107.56,319.22 106.69,320.09 " stroke="red" stroke-width="0.71875" stroke-linejoin="round" />
</g>
</svg>
