<?xml version="1.0" encoding="ISO-8859-1" standalone="no"?>
<!DOCTYPE svg PUBLIC "-//W3C//DTD SVG 1.1//EN" "http://www.w3.org/Graphics/SVG/1.1/DTD/svg11.dtd">
<svg version="1.1" baseProfile="full" id="body" width="900px" height="600px" viewBox="0 0.2 1 0.55" preserveAspectRatio="none" xmlns="http://www.w3.org/2000/svg" xmlns:xlink="http://www.w3.org/1999/xlink" xmlns:ev="http://www.w3.org/2001/xml-events">
<title>SVG drawing</title>
<desc>This was produced by version 4.2 of GNU libplot, a free library for exporting 2-D vector graphics.</desc>
<rect id="background" x="0" y="0" width="1" height="1" stroke="none" fill="none"/>
<g id="content" transform="translate(-0.03125,1.1875) scale(1,-1) scale(0.0017361) " xml:space="preserve" stroke="black" stroke-linecap="butt" stroke-linejoin="miter" stroke-miterlimit="10.433" stroke-dasharray="none" stroke-dashoffset="0" stroke-opacity="1" fill="none" fill-rule="even-odd" fill-opacity="1" font-style="normal" font-variant="normal" font-weight="normal" font-stretch="normal" font-size-adjust="none" letter-spacing="normal" word-spacing="normal" text-anchor="start">
<polyline points="321.47,568.66 321.53,568.62 322.47,568.12 326.59,566.06 330.69,564.22 334.81,562.56 336.78,561.84 338.94,561.06 343.03,559.78 347.16,558.69 351.28,557.78 355.38,557.06 358.38,556.72 " stroke="red" stroke-width="0.96875" stroke-linecap="round" stroke-linejoin="round" />
<polyline points="385.31,556.69 388.31,557.03 392.41,557.75 396.53,558.66 400.62,559.75 404.75,560.97 407.31,561.84 408.88,562.41 412.97,563.97 417.09,565.59 421.22,567.25 424.66,568.62 424.72,568.66 " stroke="red" stroke-width="0.96875" stroke-linecap="round" stroke-linejoin="round" />
<polyline points="361.34,554.31 362.22,553.44 363.97,553.44 364.84,554.31 364.84,556.06 363.97,556.94 361.34,556.94 361.34,558.69 364.84,558.69 " stroke="red" stroke-width="0.71875" stroke-linecap="round" stroke-linejoin="round" />
<polyline points="367.47,557.81 368.34,558.69 370.09,558.69 370.97,557.81 370.97,556.94 367.47,553.44 370.97,553.44 " stroke="red" stroke-width="0.71875" stroke-linecap="round" stroke-linejoin="round" />
<polyline points="373.59,557.81 374.47,558.69 376.22,558.69 377.09,557.81 377.09,556.94 373.59,553.44 377.09,553.44 " stroke="red" stroke-width="0.71875" stroke-linecap="round" stroke-linejoin="round" />
<polygon points="380.59,558.69 379.72,557.81 379.72,554.31 380.59,553.44 382.34,553.44 383.22,554.31 383.22,557.81 382.34,558.69 " stroke="red" stroke-width="0.71875" stroke-linejoin="round" />
<polyline points="47.625,568.66 47.594,568.62 46.844,567.84 42.812,561.84 42.719,561.66 40.844,555.12 40.344,548.47 40.25,546.62 " stroke="red" stroke-width="0.96875" stroke-linecap="round" stroke-linejoin="round" />
<polyline points="39.5,537.16 39.344,535.38 38.594,530.84 38.312,528.97 36.281,522.59 34.5,519.59 31.531,516.28 30.375,515.5 26.25,513.91 22.156,514.03 18.031,514.75 " stroke="red" stroke-width="0.96875" stroke-linecap="round" stroke-linejoin="round" />
<polyline points="29.438,540.16 30.312,539.28 32.062,539.28 32.938,540.16 32.938,541.91 32.062,542.78 29.438,542.78 29.438,544.53 32.938,544.53 " stroke="red" stroke-width="0.71875" stroke-linecap="round" stroke-linejoin="round" />
<polyline points="35.562,543.66 36.438,544.53 38.188,544.53 39.062,543.66 39.062,542.78 35.562,539.28 39.062,539.28 " stroke="red" stroke-width="0.71875" stroke-linecap="round" stroke-linejoin="round" />
<polygon points="42.562,544.53 41.688,543.66 41.688,542.78 42.562,541.91 44.312,541.91 45.188,542.78 45.188,543.66 44.312,544.53 " stroke="red" stroke-width="0.71875" stroke-linejoin="round" />
<polyline points="42.562,541.91 41.688,541.03 41.688,540.16 42.562,539.28 44.312,539.28 45.188,540.16 45.188,541.03 44.312,541.91 " stroke="red" stroke-width="0.71875" stroke-linecap="round" stroke-linejoin="round" />
<polygon points="48.688,544.53 47.812,543.66 47.812,540.16 48.688,539.28 50.438,539.28 51.312,540.16 51.312,543.66 50.438,544.53 " stroke="red" stroke-width="0.71875" stroke-linejoin="round" />
<polyline points="277.69,568.66 277.72,568.62 281.34,565.91 285.44,563.09 287.41,561.84 289.56,560.53 293.69,558.19 297.78,556.06 299.75,555.12 301.91,554 306.03,552.03 310.12,550.09 314,548.47 314.25,548.38 318.34,546.78 322.47,545.38 326.59,544.12 330.69,543.06 334.81,542.12 336.03,541.91 338.94,541.34 343.03,540.75 347.16,540.25 351.28,539.91 354.25,539.72 " stroke="red" stroke-width="0.96875" stroke-linecap="round" stroke-linejoin="round" />
<polyline points="381.19,540.06 384.19,540.34 388.31,540.84 392.41,541.59 393.72,541.91 396.53,542.5 400.62,543.53 404.75,544.62 408.88,545.78 412.97,547.06 417.09,548.44 417.16,548.47 421.22,549.97 425.31,551.53 429.44,553.16 433.56,554.88 434.09,555.12 437.66,556.75 441.78,558.78 445.91,560.91 447.59,561.84 450,563.12 454.12,565.44 458.25,567.78 459.66,568.62 459.72,568.66 " stroke="red" stroke-width="0.96875" stroke-linecap="round" stroke-linejoin="round" />
<polyline points="357.22,537.72 358.09,536.84 359.84,536.84 360.72,537.72 360.72,539.47 359.84,540.34 357.22,540.34 357.22,542.09 360.72,542.09 " stroke="red" stroke-width="0.71875" stroke-linecap="round" stroke-linejoin="round" />
<polyline points="363.34,541.22 364.22,542.09 365.97,542.09 366.84,541.22 366.84,540.34 363.34,536.84 366.84,536.84 " stroke="red" stroke-width="0.71875" stroke-linecap="round" stroke-linejoin="round" />
<polygon points="370.34,542.09 369.47,541.22 369.47,540.34 370.34,539.47 372.09,539.47 372.97,540.34 372.97,541.22 372.09,542.09 " stroke="red" stroke-width="0.71875" stroke-linejoin="round" />
<polyline points="370.34,539.47 369.47,538.59 369.47,537.72 370.34,536.84 372.09,536.84 372.97,537.72 372.97,538.59 372.09,539.47 " stroke="red" stroke-width="0.71875" stroke-linecap="round" stroke-linejoin="round" />
<polygon points="376.47,542.09 375.59,541.22 375.59,537.72 376.47,536.84 378.22,536.84 379.09,537.72 379.09,541.22 378.22,542.09 " stroke="red" stroke-width="0.71875" stroke-linejoin="round" />
<polyline points="492.84,568.66 492.78,568.62 491.16,567.62 487.03,565.09 482.91,562.75 481.25,561.84 478.81,560.5 474.69,558.28 470.56,556.12 468.72,555.12 466.47,553.91 462.34,551.75 458.25,549.69 455.78,548.47 454.12,547.66 450,545.66 445.91,543.75 441.78,541.97 441.62,541.91 437.66,540.22 433.56,538.66 429.44,537.16 425.31,535.75 424.19,535.38 421.22,534.44 417.09,533.22 412.97,532.09 408.88,531 404.75,529.97 401,528.97 400.62,528.84 396.53,527.69 392.41,526.62 388.31,525.69 384.19,525.03 380.06,524.47 375.97,524 371.84,523.56 367.72,523.12 363.62,522.72 362.22,522.59 359.5,522.34 355.38,522.06 351.28,522 347.16,522.03 343.03,522.09 338.94,522.25 334.81,522.34 330.69,522.44 326.75,522.59 326.59,522.59 322.47,522.81 318.34,523.09 314.25,523.44 310.12,523.84 306.03,524.28 301.91,524.81 297.78,525.41 293.69,525.97 289.56,526.53 285.44,527 281.34,527.44 277.22,527.84 276.28,527.91 " stroke="red" stroke-width="0.96875" stroke-linecap="round" stroke-linejoin="round" />
<polyline points="249.34,529.16 248.41,529.12 245.44,528.97 244.31,528.91 240.19,528.62 236.06,528.22 231.97,527.78 227.84,527.31 223.72,526.88 219.62,526.59 215.5,526.31 211.41,526.03 207.28,525.78 203.16,525.44 199.06,525.12 194.94,524.84 190.81,524.69 186.72,525 182.59,525.44 178.47,526 174.38,526.59 170.25,527.34 166.12,528.09 162.03,528.81 160.97,528.97 157.91,529.5 153.78,529.94 149.69,530.22 145.56,530.28 141.44,530.06 137.34,528.97 133.22,527.84 129.12,526.72 125,525.78 120.88,527.09 116.78,528.72 116.12,528.97 112.66,530.03 108.53,530.69 104.72,528.97 104.44,528.81 100.31,525.94 96.188,522.94 95.719,522.59 92.094,520.28 87.969,518.59 83.844,517.12 81.125,516.28 79.75,515.91 75.625,514.84 71.5,514.78 67.406,514.41 63.281,513.47 59.188,511.62 57.969,510.06 55.062,506.53 53.125,503.88 50.938,501.53 46.844,497.97 46.469,497.75 42.719,495.91 38.594,495.25 34.5,495.06 30.375,495.28 26.25,495.81 22.156,496.72 18.5,497.75 18.031,497.88 " stroke="red" stroke-width="0.96875" stroke-linecap="round" stroke-linejoin="round" />
<polyline points="252.31,527.22 253.19,526.34 254.94,526.34 255.81,527.22 255.81,528.97 254.94,529.84 252.31,529.84 252.31,531.59 255.81,531.59 " stroke="red" stroke-width="0.71875" stroke-linecap="round" stroke-linejoin="round" />
<polyline points="258.44,530.72 259.31,531.59 261.06,531.59 261.94,530.72 261.94,529.84 261.06,528.97 260.19,528.97 261.06,528.97 261.94,528.09 261.94,527.22 261.06,526.34 259.31,526.34 258.44,527.22 " stroke="red" stroke-width="0.71875" stroke-linecap="round" stroke-linejoin="round" />
<polyline points="266.31,531.59 264.56,528.97 268.06,528.97 268.06,531.59 268.06,526.34 " stroke="red" stroke-width="0.71875" stroke-linecap="round" stroke-linejoin="round" />
<polygon points="271.56,531.59 270.69,530.72 270.69,527.22 271.56,526.34 273.31,526.34 274.19,527.22 274.19,530.72 273.31,531.59 " stroke="red" stroke-width="0.71875" stroke-linejoin="round" />
<polyline points="541.16,568.66 541.06,568.62 540.53,568.44 536.41,566.94 532.28,565.31 528.19,563.66 524.06,561.97 523.75,561.84 519.94,560.16 515.84,558.34 511.72,556.5 508.66,555.12 507.59,554.62 503.5,552.69 499.38,550.5 495.59,548.47 495.25,548.28 491.16,546.06 487.03,543.91 482.91,542 482.66,541.91 478.81,540.16 474.69,538.38 470.56,536.59 467.84,535.38 466.47,534.78 462.34,532.97 458.25,531.22 454.12,529.56 452.62,528.97 450,527.88 445.91,526.28 441.78,524.75 437.66,523.34 435.34,522.59 433.56,522 429.44,520.69 425.31,519.47 421.22,518.31 417.09,517.19 413.66,516.28 412.97,516.09 408.88,515 404.75,513.94 400.62,512.91 396.53,511.94 392.41,511.03 388.31,510.19 387.47,510.06 384.19,509.41 380.06,508.62 375.97,507.84 371.84,507.06 367.72,506.12 363.62,505.19 359.5,504.34 356.72,503.88 355.38,503.62 351.28,503.41 347.16,503.34 343.03,503.34 338.94,503.38 334.81,503.12 330.69,502.84 326.59,502.53 322.47,502.25 318.34,502.12 315.38,502.06 " stroke="red" stroke-width="0.96875" stroke-linecap="round" stroke-linejoin="round" />
<polyline points="288.44,501.09 285.44,500.69 281.34,500.06 277.22,499.34 273.09,498.66 269,498.16 265.44,497.75 264.88,497.69 260.75,497.16 256.66,496.53 252.53,495.62 248.41,494.59 244.31,493.44 240.19,492.19 238.59,491.69 236.06,490.84 231.97,489.38 227.84,487.72 223.72,485.91 223.28,485.69 219.62,483.88 215.5,481.88 211.41,480 210.62,479.75 207.28,478.53 203.16,477.78 199.06,477.28 194.94,477.09 190.81,477.22 186.72,477.34 182.59,477.66 178.47,478.09 174.38,478.66 170.25,479.53 169.38,479.75 166.12,480.41 162.03,481.28 157.91,482.06 153.78,482.53 149.69,482.84 145.56,482.94 141.44,482.84 137.34,482.5 133.22,482.03 129.12,481.47 125,480.81 120.88,479.78 120.75,479.75 116.78,478.59 112.66,477.56 108.53,476.75 104.44,476.5 100.31,476.41 96.188,476.44 92.094,476.53 87.969,476.53 83.844,476.56 79.75,476.69 75.625,476.91 71.5,477.38 67.406,477.84 63.281,478.34 59.188,478.75 55.062,478.81 50.938,478.94 46.844,479.12 42.719,479.44 40.906,479.75 38.594,480.09 34.5,480.88 30.375,481.75 26.25,482.75 22.156,483.88 18.031,485.12 " stroke="red" stroke-width="0.96875" stroke-linecap="round" stroke-linejoin="round" />
<polyline points="291.41,500.06 292.28,499.19 294.03,499.19 294.91,500.06 294.91,501.81 294.03,502.69 291.41,502.69 291.41,504.44 294.91,504.44 " stroke="red" stroke-width="0.71875" stroke-linecap="round" stroke-linejoin="round" />
<polyline points="299.28,504.44 297.53,501.81 301.03,501.81 301.03,504.44 301.03,499.19 " stroke="red" stroke-width="0.71875" stroke-linecap="round" stroke-linejoin="round" />
<polygon points="304.53,504.44 303.66,503.56 303.66,500.06 304.53,499.19 306.28,499.19 307.16,500.06 307.16,503.56 306.28,504.44 " stroke="red" stroke-width="0.71875" stroke-linejoin="round" />
<polygon points="310.66,504.44 309.78,503.56 309.78,500.06 310.66,499.19 312.41,499.19 313.28,500.06 313.28,503.56 312.41,504.44 " stroke="red" stroke-width="0.71875" stroke-linejoin="round" />
<polyline points="594,535.31 593.91,535.38 589.88,538.81 585.78,541.28 583.38,541.91 581.66,542.28 577.53,542.69 573.44,542.69 569.31,542.44 565.19,542.19 561.97,541.91 561.09,541.81 556.97,541.28 552.88,540.66 548.75,539.94 544.62,539.12 540.53,538.25 536.41,537.31 532.28,536.28 528.84,535.38 528.19,535.22 524.06,534.12 519.94,533 515.84,532 511.72,530.97 507.59,529.88 504.5,528.97 503.5,528.66 499.38,527 495.25,525.25 491.16,523.5 488.97,522.59 487.03,521.75 482.91,520.12 478.81,518.5 474.69,516.91 473.09,516.28 470.56,515.31 466.47,513.72 462.34,512.22 458.25,510.78 456,510.06 454.12,509.41 450,508.12 445.91,506.91 441.78,505.75 437.66,504.69 434.5,503.88 433.56,503.62 429.44,502.53 425.31,501.47 421.22,500.44 417.09,499.31 412.97,498.22 411.09,497.75 408.88,497.16 404.75,496.09 400.62,495.19 396.53,494.34 392.41,493.47 388.31,492.62 384.41,491.69 384.19,491.62 380.06,490.53 375.97,489.47 371.84,488.44 367.72,487.56 363.62,486.81 359.5,486.16 356.25,485.69 355.38,485.56 351.28,484.97 347.16,484.41 343.03,483.84 338.94,483.28 334.81,482.75 330.69,482.25 326.59,481.78 323.59,481.47 " stroke="red" stroke-width="0.96875" stroke-linecap="round" stroke-linejoin="round" />
<polyline points="296.66,477.44 293.69,476.78 289.56,475.75 285.44,474.75 281.75,473.84 281.34,473.75 277.22,472.66 273.09,471.5 269,470.16 264.88,468.69 263.06,468 260.75,467.09 256.66,465.41 252.53,463.5 249.84,462.19 248.41,461.53 244.31,459.59 240.19,457.66 237.28,456.47 236.06,456.06 231.97,454.69 227.84,453.25 223.72,451.78 220.97,450.75 219.62,450.31 215.5,448.97 211.41,447.69 207.28,446.53 203.16,445.28 202.59,445.12 199.06,444.22 194.94,443.34 190.81,442.69 186.72,442.41 182.59,442.34 178.47,442.56 174.38,443.06 170.25,444.22 167.38,445.12 166.12,445.53 162.03,446.88 157.91,447.97 153.78,448.28 149.69,448.41 145.56,448.44 141.44,448.41 137.34,448.59 133.22,448.84 129.12,449.16 125,449.53 120.88,450 116.78,450.53 115.16,450.75 112.66,451.16 108.53,451.84 104.44,452.75 100.31,453.66 96.188,454.5 92.094,455.25 87.969,455.62 83.844,455.97 79.75,456.34 78.812,456.47 75.625,456.88 71.5,457.88 67.406,458.97 63.281,460.09 59.188,461.22 55.062,462.16 54.844,462.19 50.938,463.09 46.844,464.03 42.719,464.97 38.594,466.09 34.5,467.28 32.188,468 30.375,468.53 26.25,469.84 22.156,471.22 18.031,472.66 " stroke="red" stroke-width="0.96875" stroke-linecap="round" stroke-linejoin="round" />
<polyline points="299.62,478.12 300.5,477.25 302.25,477.25 303.12,478.12 303.12,479.88 302.25,480.75 299.62,480.75 299.62,482.5 303.12,482.5 " stroke="red" stroke-width="0.71875" stroke-linecap="round" stroke-linejoin="round" />
<polyline points="307.5,482.5 305.75,479.88 309.25,479.88 309.25,482.5 309.25,477.25 " stroke="red" stroke-width="0.71875" stroke-linecap="round" stroke-linejoin="round" />
<polyline points="315.38,481.62 314.5,482.5 312.75,482.5 311.88,481.62 311.88,478.12 312.75,477.25 314.5,477.25 315.38,478.12 315.38,479 314.5,479.88 311.88,479.88 " stroke="red" stroke-width="0.71875" stroke-linecap="round" stroke-linejoin="round" />
<polygon points="318.88,482.5 318,481.62 318,478.12 318.88,477.25 320.62,477.25 321.5,478.12 321.5,481.62 320.62,482.5 " stroke="red" stroke-width="0.71875" stroke-linejoin="round" />
<polyline points="594,478.78 593.41,479.75 589.88,485.03 589.41,485.69 585.78,490.72 584.81,491.69 581.66,494.81 577.91,497.75 577.53,498.03 573.44,500.62 569.31,502.72 566.75,503.88 565.19,504.53 561.09,505.97 556.97,507.12 552.88,507.97 548.75,508.69 544.62,509.19 540.53,509.44 536.41,509.41 532.28,508.91 528.19,508.19 524.06,507.34 519.94,506.44 515.84,505.66 511.72,504.81 507.59,503.91 507.47,503.88 503.5,502.94 499.38,501.88 495.25,500.78 491.16,499.62 487.03,498.44 485,497.75 482.91,497.03 478.81,495.56 474.69,494.06 470.56,492.56 468,491.69 466.47,491.16 462.34,489.78 458.25,488.47 454.12,487.25 450,486.19 448,485.69 445.91,485.16 441.78,484.16 437.66,483.19 433.56,482.16 429.44,481.16 425.31,480.12 423.81,479.75 421.22,479 417.09,477.88 412.97,476.78 408.88,475.72 404.75,474.75 400.66,473.84 400.62,473.84 396.53,472.88 392.41,471.91 388.31,470.91 384.19,469.78 380.06,468.66 377.44,468 375.97,467.59 371.84,466.53 367.72,465.69 363.62,464.88 359.5,464.06 355.38,463.22 351.28,462.31 350.72,462.19 347.16,461.34 343.03,460.41 338.94,459.47 334.81,458.56 331.84,457.91 " stroke="red" stroke-width="0.96875" stroke-linecap="round" stroke-linejoin="round" />
<polyline points="304.88,451.03 304.06,450.75 301.91,450.03 297.78,448.72 293.69,447.53 289.56,446.47 285.44,445.62 282.94,445.12 281.34,444.78 277.22,443.88 273.09,442.94 269,441.84 264.88,440.75 260.75,439.72 259.97,439.5 256.66,438.72 252.53,437.94 248.41,437.25 244.31,436.5 240.19,435.72 236.06,434.53 234.28,433.97 231.97,433.22 227.84,431.97 223.72,430.84 219.62,429.72 215.5,428.56 215.09,428.44 211.41,427.34 207.28,426.19 203.16,425.72 199.06,425.47 194.94,425.34 190.81,425.25 186.72,424.84 182.59,424.47 178.47,424.19 174.38,424.09 170.25,424.66 166.12,425.44 162.03,426.41 157.91,427.44 153.78,428.09 151.34,428.44 149.69,428.69 145.56,429.19 141.44,429.62 137.34,430.06 133.22,430.5 129.12,430.94 125,431.47 120.88,432.16 116.78,432.94 112.66,433.81 112.06,433.97 108.53,434.75 104.44,435.88 100.31,437 96.188,438.12 92.094,439.16 89.938,439.5 87.969,439.84 83.844,440.41 79.75,441 75.625,441.59 71.5,442.44 67.406,443.41 63.281,444.5 61.25,445.12 59.188,445.72 55.062,447.03 50.938,448.34 46.844,449.66 43.312,450.75 42.719,450.94 38.594,452.22 34.5,453.53 30.375,454.91 26.25,456.38 26.062,456.47 22.156,457.84 18.031,459.34 " stroke="red" stroke-width="0.96875" stroke-linecap="round" stroke-linejoin="round" />
<polyline points="307.84,452.97 308.72,452.09 310.47,452.09 311.34,452.97 311.34,454.72 310.47,455.59 307.84,455.59 307.84,457.34 311.34,457.34 " stroke="red" stroke-width="0.71875" stroke-linecap="round" stroke-linejoin="round" />
<polyline points="313.97,452.97 314.84,452.09 316.59,452.09 317.47,452.97 317.47,454.72 316.59,455.59 313.97,455.59 313.97,457.34 317.47,457.34 " stroke="red" stroke-width="0.71875" stroke-linecap="round" stroke-linejoin="round" />
<polyline points="320.09,456.47 320.97,457.34 322.72,457.34 323.59,456.47 323.59,455.59 320.09,452.09 323.59,452.09 " stroke="red" stroke-width="0.71875" stroke-linecap="round" stroke-linejoin="round" />
<polygon points="327.09,457.34 326.22,456.47 326.22,452.97 327.09,452.09 328.84,452.09 329.72,452.97 329.72,456.47 328.84,457.34 " stroke="red" stroke-width="0.71875" stroke-linejoin="round" />
<polyline points="594,443.38 592.28,445.12 589.88,447.69 586.84,450.75 585.78,451.94 581.66,455.75 580.81,456.47 577.53,459.38 573.97,462.19 573.44,462.62 569.31,465.47 565.31,468 565.19,468.06 561.09,470.28 556.97,472.22 552.88,473.84 552.84,473.84 548.75,475.16 544.62,476.25 540.53,477.12 536.41,477.78 532.28,478.25 528.19,478.53 524.06,478.62 519.94,478.59 515.84,478.41 511.72,478.09 507.59,477.66 503.5,477.06 499.38,476.41 495.25,475.59 491.16,474.69 487.91,473.84 487.03,473.59 482.91,472.25 478.81,470.88 474.69,469.56 470.56,468.31 469.62,468 466.47,466.97 462.34,465.62 458.25,464.28 454.12,462.94 451.78,462.19 450,461.62 445.91,460.22 441.78,458.78 437.66,457.28 435.59,456.47 433.56,455.62 429.44,454 425.31,452.47 421.22,451 420.44,450.75 417.09,449.78 412.97,448.59 408.88,447.41 404.75,446.19 401.69,445.12 400.62,444.72 396.53,443.12 392.41,441.5 388.31,439.84 387.34,439.5 384.19,438.41 380.06,437 375.97,435.66 371.84,434.28 370.94,433.97 367.72,432.84 363.62,431.34 359.5,429.84 355.72,428.44 355.38,428.31 351.28,426.88 347.16,425.34 343.03,423.69 341.34,422.97 338.94,421.94 336.12,420.53 " stroke="red" stroke-width="0.96875" stroke-linecap="round" stroke-linejoin="round" />
<polyline points="313.12,413.19 310.12,413.09 306.03,413 301.91,412.44 300.03,412.16 297.78,411.78 293.69,411.06 289.56,410.28 285.44,409.56 281.34,408.94 277.22,408.44 273.09,408.06 269,407.88 264.88,407.81 260.75,407.84 256.66,407.97 252.53,408.19 248.41,408.44 244.31,408.75 240.19,409.06 236.06,409.75 231.97,410.34 227.84,410.59 223.72,410.38 219.62,408.34 216.44,406.78 215.5,406.31 211.41,404.56 207.28,403.41 203.16,403.81 199.06,404.59 194.94,405.59 190.81,406.59 186.72,406.75 182.59,406.78 178.47,406.72 174.38,406.69 170.56,406.78 170.25,406.81 166.12,406.97 162.03,407.25 157.91,407.62 153.78,408.22 149.69,408.94 145.56,409.72 141.44,410.53 137.34,411.28 133.22,412.03 132.69,412.16 129.12,412.69 125,413.38 120.88,414.16 116.78,415 112.66,415.94 108.53,416.94 106.34,417.53 104.44,418.03 100.31,419.12 96.188,420.34 92.094,421.59 87.969,422.78 87.344,422.97 83.844,423.84 79.75,424.84 75.625,425.75 71.5,426.56 67.406,427.41 63.281,428.41 63.125,428.44 59.188,429.47 55.062,431 50.938,432.69 47.969,433.97 46.844,434.38 42.719,435.91 38.594,437.22 34.5,438.56 31.594,439.5 30.375,439.88 26.25,441.22 22.156,442.66 18.031,444.19 " stroke="red" stroke-width="0.96875" stroke-linecap="round" stroke-linejoin="round" />
<polyline points="316.09,414.06 316.97,413.19 318.72,413.19 319.59,414.06 319.59,415.81 318.72,416.69 316.09,416.69 316.09,418.44 319.59,418.44 " stroke="red" stroke-width="0.71875" stroke-linecap="round" stroke-linejoin="round" />
<polyline points="322.22,414.06 323.09,413.19 324.84,413.19 325.72,414.06 325.72,415.81 324.84,416.69 322.22,416.69 322.22,418.44 325.72,418.44 " stroke="red" stroke-width="0.71875" stroke-linecap="round" stroke-linejoin="round" />
<polygon points="329.22,418.44 328.34,417.56 328.34,416.69 329.22,415.81 330.97,415.81 331.84,416.69 331.84,417.56 330.97,418.44 " stroke="red" stroke-width="0.71875" stroke-linejoin="round" />
<polyline points="329.22,415.81 328.34,414.94 328.34,414.06 329.22,413.19 330.97,413.19 331.84,414.06 331.84,414.94 330.97,415.81 " stroke="red" stroke-width="0.71875" stroke-linecap="round" stroke-linejoin="round" />
<polygon points="335.34,418.44 334.47,417.56 334.47,414.06 335.34,413.19 337.09,413.19 337.97,414.06 337.97,417.56 337.09,418.44 " stroke="red" stroke-width="0.71875" stroke-linejoin="round" />
<polyline points="594,413.91 589.88,416.97 589.06,417.53 585.78,419.84 581.66,422.5 580.84,422.97 577.53,424.91 573.44,427.16 570.97,428.44 569.31,429.28 565.19,431.44 561.09,433.53 560.19,433.97 556.97,435.5 552.88,437.34 548.75,439.03 547.38,439.5 544.62,440.44 540.53,441.62 536.41,442.56 532.28,443.25 528.19,443.75 524.06,444.03 519.94,444.09 515.84,444.06 511.72,443.84 507.59,443.47 503.5,442.94 499.38,442.09 495.25,441.16 491.16,440.16 488.59,439.5 487.03,439.09 482.91,438.28 478.81,437.47 474.69,436.62 470.56,435.75 466.47,434.84 462.5,433.97 462.34,433.94 458.25,432.88 454.12,431.75 450,430.41 445.91,429.03 444.16,428.44 441.78,427.62 437.66,426.16 433.56,424.72 429.44,423.25 428.72,422.97 425.31,421.69 421.22,420.16 417.09,418.69 413.94,417.53 412.97,417.19 408.88,415.62 404.75,414.09 400.62,412.5 399.75,412.16 396.53,410.84 392.41,409.25 388.31,407.72 385.72,406.78 384.19,406.25 380.06,404.88 375.97,403.53 371.84,402.25 369.28,401.47 367.72,401.03 363.62,399.81 359.5,398.62 355.38,397.44 351.41,396.22 351.28,396.16 347.16,394.88 343.03,393.62 338.94,392.38 334.81,391.22 333.84,390.97 330.69,390.06 329.22,389.62 " stroke="red" stroke-width="0.96875" stroke-linecap="round" stroke-linejoin="round" />
<polyline points="302.28,381.88 301.91,381.78 297.78,380.62 297.69,380.59 293.69,379.56 289.56,378.53 285.44,377.62 281.34,376.72 277.22,375.84 275.5,375.47 273.09,374.97 269,374.03 264.88,373.19 260.75,372.44 256.66,371.84 252.53,371.59 248.41,371.66 244.31,371.97 240.19,372.56 236.06,373.59 231.97,374.69 228.72,375.47 227.84,375.66 223.72,376.5 219.62,376.88 215.5,377.12 211.41,377.31 207.28,377.5 203.16,377.69 199.06,377.94 194.94,378.31 190.81,378.84 186.72,379.94 184.47,380.59 182.59,381.12 178.47,382.25 174.38,383.22 170.25,383.31 166.12,383.22 162.03,383.06 157.91,382.94 153.78,383.25 149.69,383.62 145.56,384.09 141.44,384.59 137.34,385.09 133.22,385.69 132.59,385.78 129.12,386.28 125,386.94 120.88,387.5 116.78,388.09 112.66,388.75 108.53,389.56 104.44,390.75 103.78,390.97 100.31,392.34 96.188,394.16 92.094,396.03 91.75,396.22 87.969,397.94 83.844,399.97 80.875,401.47 79.75,402 75.625,403.94 71.5,405.41 67.406,406.75 67.219,406.78 63.281,407.91 59.188,409.09 55.062,410.75 51.906,412.16 50.938,412.53 46.844,414.28 42.719,416.16 39.125,417.53 38.594,417.72 34.5,419.19 30.375,420.66 26.25,422.19 24.188,422.97 22.156,423.72 18.031,425.25 " stroke="red" stroke-width="0.96875" stroke-linecap="round" stroke-linejoin="round" />
<polyline points="305.25,384.03 306.12,383.16 307.88,383.16 308.75,384.03 308.75,385.78 307.88,386.66 305.25,386.66 305.25,388.41 308.75,388.41 " stroke="red" stroke-width="0.71875" stroke-linecap="round" stroke-linejoin="round" />
<polyline points="314.88,387.53 314,388.41 312.25,388.41 311.38,387.53 311.38,384.03 312.25,383.16 314,383.16 314.88,384.03 314.88,384.91 314,385.78 311.38,385.78 " stroke="red" stroke-width="0.71875" stroke-linecap="round" stroke-linejoin="round" />
<polyline points="319.25,388.41 317.5,385.78 321,385.78 321,388.41 321,383.16 " stroke="red" stroke-width="0.71875" stroke-linecap="round" stroke-linejoin="round" />
<polygon points="324.5,388.41 323.62,387.53 323.62,384.03 324.5,383.16 326.25,383.16 327.12,384.03 327.12,387.53 326.25,388.41 " stroke="red" stroke-width="0.71875" stroke-linejoin="round" />
<polyline points="594,372.06 589.88,374.12 587.06,375.47 585.78,376.03 581.66,377.88 577.53,379.56 574.62,380.59 573.44,381 569.31,382.25 565.19,383.66 561.09,385.09 559.16,385.78 556.97,386.5 552.88,387.84 548.75,389 544.62,390.09 541.06,390.97 540.53,391.09 536.41,391.81 532.28,392.38 528.19,392.75 524.06,392.91 519.94,392.84 515.84,392.38 511.72,391.75 507.59,391 507.44,390.97 503.5,390.22 499.38,389.66 495.25,389 491.16,388.28 487.03,387.38 482.91,386.16 481.78,385.78 478.81,384.66 474.69,383.09 470.56,381.53 467.69,380.59 466.47,380.19 462.34,379 458.25,378.03 454.12,377.28 450,376.66 445.91,376.22 441.78,376.03 437.66,376.06 433.56,376.91 429.44,377.75 425.31,378.38 421.22,378.69 417.09,378 412.97,377.16 408.88,376.22 405.5,375.47 404.75,375.28 400.62,374.5 396.53,373.75 392.41,373.03 388.31,372.34 384.19,371.72 380.06,371.09 375.97,370.5 375.06,370.38 371.84,369.84 367.72,369.22 363.62,368.56 359.5,367.88 355.38,367.19 351.28,366.44 347.16,365.69 345.12,365.28 343.03,364.91 338.94,364.09 334.81,363.28 330.69,362.5 326.59,361.66 322.47,360.84 319.62,360.25 318.34,359.97 315.38,359.34 " stroke="red" stroke-width="0.96875" stroke-linecap="round" stroke-linejoin="round" />
<polyline points="288.44,353.94 285.44,353.47 281.34,352.88 277.22,352.31 273.09,351.75 269,351.06 264.88,350.38 264.34,350.28 260.75,349.59 256.66,348.88 252.53,348.31 248.41,347.84 244.31,347.44 240.19,347.16 236.06,347.25 231.97,347.38 227.84,347.44 223.72,347.34 219.62,346.38 215.59,345.31 215.5,345.31 211.41,344.31 207.28,343.5 203.16,343.44 199.06,343.62 194.94,344.03 190.81,344.62 186.72,345.19 185.88,345.31 182.59,345.84 178.47,346.56 174.38,347.34 170.25,348.09 166.12,348.94 162.03,349.88 160.5,350.28 157.91,350.88 153.78,351.94 149.69,352.97 145.56,354.06 141.44,355.09 140.78,355.25 137.34,355.88 133.22,356.62 129.12,357.41 125,358.22 120.88,359.31 117.59,360.25 116.78,360.47 112.66,361.62 108.53,362.78 104.44,363.75 100.31,364.72 97.969,365.28 96.188,365.72 92.094,366.75 87.969,368.09 83.844,369.59 81.938,370.38 79.75,371.34 75.625,373.28 71.5,375.47 67.406,377.66 63.281,379.88 61.938,380.59 59.188,382 55.062,383.88 50.938,385.69 50.75,385.78 46.844,387.41 42.719,389.16 38.781,390.97 38.594,391.06 34.5,393.22 30.375,395.38 28.781,396.22 26.25,397.47 22.156,399.47 18.094,401.47 18.031,401.5 " stroke="red" stroke-width="0.96875" stroke-linecap="round" stroke-linejoin="round" />
<polyline points="291.41,354.72 292.28,353.84 294.03,353.84 294.91,354.72 294.91,356.47 294.03,357.34 291.41,357.34 291.41,359.09 294.91,359.09 " stroke="red" stroke-width="0.71875" stroke-linecap="round" stroke-linejoin="round" />
<polyline points="297.53,359.09 301.03,359.09 299.28,353.84 " stroke="red" stroke-width="0.71875" stroke-linecap="round" stroke-linejoin="round" />
<polygon points="304.53,359.09 303.66,358.22 303.66,354.72 304.53,353.84 306.28,353.84 307.16,354.72 307.16,358.22 306.28,359.09 " stroke="red" stroke-width="0.71875" stroke-linejoin="round" />
<polygon points="310.66,359.09 309.78,358.22 309.78,354.72 310.66,353.84 312.41,353.84 313.28,354.72 313.28,358.22 312.41,359.09 " stroke="red" stroke-width="0.71875" stroke-linejoin="round" />
<polyline points="594,303.41 589.88,303.28 585.78,302.81 581.66,302.44 578.72,302 577.53,301.81 573.44,300.84 569.31,299.5 565.28,297.31 565.19,297.25 561.09,294.59 558.34,292.62 556.97,291.69 552.88,288.91 550.72,287.97 548.75,287.25 544.62,285.94 540.53,284.84 536.41,283.81 535.09,283.34 532.28,282.44 528.19,281.16 524.06,279.91 520.25,278.75 519.94,278.66 515.84,277.28 511.72,275.84 507.59,274.34 507.09,274.16 503.5,273.03 499.38,272.25 495.25,271.56 491.16,270.91 487.03,270.22 484.75,269.59 482.91,269.09 478.81,268 474.69,267.06 470.56,266.41 466.47,266.56 462.34,266.97 458.25,267.56 454.12,268.25 450,268.78 445.91,269.47 445.31,269.59 441.78,270.41 437.66,271.72 433.56,273.84 433.03,274.16 429.44,276.25 425.44,278.75 425.31,278.81 421.22,281.5 418.47,283.34 417.09,284.31 412.97,287.5 412.41,287.97 408.88,291.09 407.19,292.62 404.75,295.09 402.12,297.31 400.62,298.56 396.53,301.62 396,302 392.41,304.31 388.31,306.69 388.28,306.72 384.19,309.03 380.06,311.25 379.66,311.44 375.97,313.12 371.84,314.72 367.72,315.88 366.5,316.22 363.62,316.91 359.5,317.84 355.38,318.81 351.28,320.03 347.72,321 347.16,321.12 343.03,322.03 338.94,322.75 334.81,323.16 330.69,323.41 326.59,323.56 323.59,323.62 " stroke="red" stroke-width="0.96875" stroke-linecap="round" stroke-linejoin="round" />
<polyline points="296.66,322.38 293.69,322.03 289.56,321.62 285.44,321.31 281.34,321.09 279.69,321 277.22,320.88 273.09,320.69 269,320.62 264.88,320.53 260.75,320.41 256.66,320.22 252.53,319.81 248.41,319.34 244.31,318.84 240.19,318.34 236.06,317.94 231.97,317.5 227.84,317.03 223.72,316.53 221.22,316.22 219.62,316 215.5,315.47 211.41,314.97 207.28,314.44 203.16,313.84 199.06,313.25 194.94,312.66 190.81,312.06 186.72,311.47 186.47,311.44 182.59,310.84 178.47,310.22 174.38,309.62 170.25,309.12 166.12,308.62 162.03,308.19 157.91,307.75 153.78,307.38 149.69,306.94 147.59,306.72 145.56,306.44 141.44,305.84 137.34,304.81 133.22,303.91 129.12,303.12 125,302.56 120.88,302.28 116.78,302.16 112.66,302.28 108.53,302.66 104.44,303.72 100.31,305.56 98.625,306.72 96.188,309.16 94.531,311.44 92.188,316.22 92.094,316.38 89.5,321 87.969,323.47 86.5,325.81 83.844,329.38 82.906,330.66 79.75,334.56 78.969,335.5 75.625,338.72 73.75,340.41 71.5,342.09 67.406,345.31 67.406,345.34 63.281,348.16 60.375,350.28 59.188,350.91 55.062,353.03 51.125,355.25 50.938,355.34 46.844,357.5 42.719,359.78 41.844,360.25 38.594,361.91 34.5,364.03 32.125,365.28 30.375,366.16 26.25,368.19 22.156,370.34 22.094,370.38 18.031,372.12 " stroke="red" stroke-width="0.96875" stroke-linecap="round" stroke-linejoin="round" />
<polyline points="299.62,321.78 300.5,320.91 302.25,320.91 303.12,321.78 303.12,323.53 302.25,324.41 299.62,324.41 299.62,326.16 303.12,326.16 " stroke="red" stroke-width="0.71875" stroke-linecap="round" stroke-linejoin="round" />
<polyline points="305.75,326.16 309.25,326.16 307.5,320.91 " stroke="red" stroke-width="0.71875" stroke-linecap="round" stroke-linejoin="round" />
<polyline points="315.38,325.28 314.5,326.16 312.75,326.16 311.88,325.28 311.88,321.78 312.75,320.91 314.5,320.91 315.38,321.78 315.38,322.66 314.5,323.53 311.88,323.53 " stroke="red" stroke-width="0.71875" stroke-linecap="round" stroke-linejoin="round" />
<polygon points="318.88,326.16 318,325.28 318,321.78 318.88,320.91 320.62,320.91 321.5,321.78 321.5,325.28 320.62,326.16 " stroke="red" stroke-width="0.71875" stroke-linejoin="round" />
<polyline points="67.531,247 67.5,247.03 67.406,247.16 63.656,251.5 63.281,251.88 59.188,255.88 59,256 55.062,259.06 53.406,260.31 " stroke="red" stroke-width="0.96875" stroke-linecap="round" stroke-linejoin="round" />
<polyline points="39.406,269.78 38.594,270.31 34.5,273.22 33.281,274.16 30.375,275.84 26.25,278.56 26,278.75 22.156,281.41 19.75,283.34 18.031,284.84 " stroke="red" stroke-width="0.96875" stroke-linecap="round" stroke-linejoin="round" />
<polyline points="35.938,263.28 36.812,262.41 38.562,262.41 39.438,263.28 39.438,265.03 38.562,265.91 35.938,265.91 35.938,267.66 39.438,267.66 " stroke="red" stroke-width="0.71875" stroke-linecap="round" stroke-linejoin="round" />
<polygon points="42.938,267.66 42.062,266.78 42.062,265.91 42.938,265.03 44.688,265.03 45.562,265.91 45.562,266.78 44.688,267.66 " stroke="red" stroke-width="0.71875" stroke-linejoin="round" />
<polyline points="42.938,265.03 42.062,264.16 42.062,263.28 42.938,262.41 44.688,262.41 45.562,263.28 45.562,264.16 44.688,265.03 " stroke="red" stroke-width="0.71875" stroke-linecap="round" stroke-linejoin="round" />
<polyline points="48.188,266.78 49.062,267.66 50.812,267.66 51.688,266.78 51.688,265.91 48.188,262.41 51.688,262.41 " stroke="red" stroke-width="0.71875" stroke-linecap="round" stroke-linejoin="round" />
<polygon points="55.188,267.66 54.312,266.78 54.312,263.28 55.188,262.41 56.938,262.41 57.812,263.28 57.812,266.78 56.938,267.66 " stroke="red" stroke-width="0.71875" stroke-linejoin="round" />
<polyline points="239.41,247 239.47,247.03 240.19,247.41 244.31,248.97 247.28,249.84 " stroke="red" stroke-width="0.96875" stroke-linecap="round" stroke-linejoin="round" />
<polyline points="274.25,247.53 275.38,247.03 275.44,247 " stroke="red" stroke-width="0.96875" stroke-linecap="round" stroke-linejoin="round" />
<polyline points="250.25,249.19 251.12,248.31 252.88,248.31 253.75,249.19 253.75,250.94 252.88,251.81 250.25,251.81 250.25,253.56 253.75,253.56 " stroke="red" stroke-width="0.71875" stroke-linecap="round" stroke-linejoin="round" />
<polygon points="257.25,253.56 256.38,252.69 256.38,251.81 257.25,250.94 259,250.94 259.88,251.81 259.88,252.69 259,253.56 " stroke="red" stroke-width="0.71875" stroke-linejoin="round" />
<polyline points="257.25,250.94 256.38,250.06 256.38,249.19 257.25,248.31 259,248.31 259.88,249.19 259.88,250.06 259,250.94 " stroke="red" stroke-width="0.71875" stroke-linecap="round" stroke-linejoin="round" />
<polyline points="262.5,252.69 263.38,253.56 265.12,253.56 266,252.69 266,251.81 262.5,248.31 266,248.31 " stroke="red" stroke-width="0.71875" stroke-linecap="round" stroke-linejoin="round" />
<polygon points="269.5,253.56 268.62,252.69 268.62,249.19 269.5,248.31 271.25,248.31 272.12,249.19 272.12,252.69 271.25,253.56 " stroke="red" stroke-width="0.71875" stroke-linejoin="round" />
</g>
</svg>
