<?xml version="1.0" encoding="ISO-8859-1" standalone="no"?>
<!DOCTYPE svg PUBLIC "-//W3C//DTD SVG 1.1//EN" "http://www.w3.org/Graphics/SVG/1.1/DTD/svg11.dtd">
<svg version="1.1" baseProfile="full" id="body" width="900px" height="600px" viewBox="0 0.2 1 0.55" preserveAspectRatio="none" xmlns="http://www.w3.org/2000/svg" xmlns:xlink="http://www.w3.org/1999/xlink" xmlns:ev="http://www.w3.org/2001/xml-events">
<title>SVG drawing</title>
<desc>This was produced by version 4.2 of GNU libplot, a free library for exporting 2-D vector graphics.</desc>
<rect id="background" x="0" y="0" width="1" height="1" stroke="none" fill="none"/>
<g id="content" transform="translate(-0.03125,1.1875) scale(1,-1) scale(0.0017361) " xml:space="preserve" stroke="black" stroke-linecap="butt" stroke-linejoin="miter" stroke-miterlimit="10.433" stroke-dasharray="none" stroke-dashoffset="0" stroke-opacity="1" fill="none" fill-rule="even-odd" fill-opacity="1" font-style="normal" font-variant="normal" font-weight="normal" font-stretch="normal" font-size-adjust="none" letter-spacing="normal" word-spacing="normal" text-anchor="start">
<line x1="20.312" y1="567.81" x2="18.031" y2="565.72" stroke="red" stroke-width="0.96875" stroke-linecap="round" />
<polyline points="262.03,568.66 262.06,568.62 264.72,561.84 263.41,556.59 " stroke="red" stroke-width="0.96875" stroke-linecap="round" stroke-linejoin="round" />
<polyline points="246.5,556.59 245.66,561.84 248.41,566.94 249.78,568.62 249.84,568.66 " stroke="red" stroke-width="0.96875" stroke-linecap="round" stroke-linejoin="round" />
<polyline points="242.03,550.12 242.91,549.25 244.66,549.25 245.53,550.12 245.53,551.88 244.66,552.75 242.03,552.75 242.03,554.5 245.53,554.5 " stroke="red" stroke-width="0.71875" stroke-linecap="round" stroke-linejoin="round" />
<polyline points="248.16,553.62 249.03,554.5 250.78,554.5 251.66,553.62 251.66,552.75 248.16,549.25 251.66,549.25 " stroke="red" stroke-width="0.71875" stroke-linecap="round" stroke-linejoin="round" />
<polygon points="255.16,554.5 254.28,553.62 254.28,552.75 255.16,551.88 256.91,551.88 257.78,552.75 257.78,553.62 256.91,554.5 " stroke="red" stroke-width="0.71875" stroke-linejoin="round" />
<polyline points="255.16,551.88 254.28,551 254.28,550.12 255.16,549.25 256.91,549.25 257.78,550.12 257.78,551 256.91,551.88 " stroke="red" stroke-width="0.71875" stroke-linecap="round" stroke-linejoin="round" />
<polygon points="261.28,554.5 260.41,553.62 260.41,550.12 261.28,549.25 263.03,549.25 263.91,550.12 263.91,553.62 263.03,554.5 " stroke="red" stroke-width="0.71875" stroke-linejoin="round" />
<polyline points="77.125,568.66 77,568.62 75.625,568.28 71.5,567.59 67.406,566.81 63.281,565.72 62.312,565.34 " stroke="red" stroke-width="0.96875" stroke-linecap="round" stroke-linejoin="round" />
<polyline points="50.062,555.88 49.281,555.12 46.844,553.12 42.719,550.06 39.031,548.47 38.594,548.28 34.5,546.56 30.375,544.56 26.25,542.09 25.938,541.91 22.156,539.41 18.031,536.16 " stroke="red" stroke-width="0.96875" stroke-linecap="round" stroke-linejoin="round" />
<polyline points="44.562,558.84 45.438,557.97 47.188,557.97 48.062,558.84 48.062,560.59 47.188,561.47 44.562,561.47 44.562,563.22 48.062,563.22 " stroke="red" stroke-width="0.71875" stroke-linecap="round" stroke-linejoin="round" />
<polyline points="50.688,562.34 51.562,563.22 53.312,563.22 54.188,562.34 54.188,561.47 53.312,560.59 52.438,560.59 53.312,560.59 54.188,559.72 54.188,558.84 53.312,557.97 51.562,557.97 50.688,558.84 " stroke="red" stroke-width="0.71875" stroke-linecap="round" stroke-linejoin="round" />
<polyline points="58.562,563.22 56.812,560.59 60.312,560.59 60.312,563.22 60.312,557.97 " stroke="red" stroke-width="0.71875" stroke-linecap="round" stroke-linejoin="round" />
<polygon points="63.812,563.22 62.938,562.34 62.938,558.84 63.812,557.97 65.562,557.97 66.438,558.84 66.438,562.34 65.562,563.22 " stroke="red" stroke-width="0.71875" stroke-linejoin="round" />
<polyline points="209.47,568.66 209.47,568.62 211.09,561.84 211.41,561.03 213.38,555.12 215.5,550.47 216.38,548.47 219.62,542.88 220.19,541.91 223.72,537.34 225.38,535.38 227.84,533.09 231.97,529.78 233.16,528.97 236.06,527.41 237.81,526.59 " stroke="red" stroke-width="0.96875" stroke-linecap="round" stroke-linejoin="round" />
<polyline points="264.75,521.34 264.88,521.34 269,521.81 271.56,522.59 273.09,523.16 277.22,527.44 278.31,528.97 281.34,534.44 281.81,535.38 284.41,541.91 285.44,545.06 286.56,548.47 288.41,555.12 289.56,560.16 290.03,561.84 291.62,568.62 291.62,568.66 " stroke="red" stroke-width="0.96875" stroke-linecap="round" stroke-linejoin="round" />
<polyline points="240.78,520.84 241.66,519.97 243.41,519.97 244.28,520.84 244.28,522.59 243.41,523.47 240.78,523.47 240.78,525.22 244.28,525.22 " stroke="red" stroke-width="0.71875" stroke-linecap="round" stroke-linejoin="round" />
<polyline points="246.91,524.34 247.78,525.22 249.53,525.22 250.41,524.34 250.41,523.47 249.53,522.59 248.66,522.59 249.53,522.59 250.41,521.72 250.41,520.84 249.53,519.97 247.78,519.97 246.91,520.84 " stroke="red" stroke-width="0.71875" stroke-linecap="round" stroke-linejoin="round" />
<polyline points="254.78,525.22 253.03,522.59 256.53,522.59 256.53,525.22 256.53,519.97 " stroke="red" stroke-width="0.71875" stroke-linecap="round" stroke-linejoin="round" />
<polygon points="260.03,525.22 259.16,524.34 259.16,520.84 260.03,519.97 261.78,519.97 262.66,520.84 262.66,524.34 261.78,525.22 " stroke="red" stroke-width="0.71875" stroke-linejoin="round" />
<polyline points="324.91,568.66 324.88,568.62 322.47,565.75 319.16,561.84 318.34,560.94 314.25,555.75 313.81,555.12 310.12,549.31 309.69,548.47 306.09,541.91 306.03,541.75 302.91,535.38 301.91,533.59 299.41,528.97 297.78,526.34 295.5,522.59 293.69,519.97 291,516.28 289.56,514.56 285.91,510.06 285.44,509.59 281.34,506.09 277.56,503.88 277.22,503.69 273.09,502.12 269,501.88 264.88,502.16 260.75,502.78 256.66,503.62 255.03,503.88 252.53,504.25 248.41,505 244.31,505.97 240.19,507.12 236.06,508.91 233.66,510.06 231.97,510.88 227.84,512.94 223.72,515 220.88,516.28 219.62,516.91 215.5,519 211.41,521.38 209.5,522.59 207.28,524.22 203.16,527.53 201.44,528.97 199.62,530.66 " stroke="red" stroke-width="0.96875" stroke-linecap="round" stroke-linejoin="round" />
<polyline points="187.69,540.12 186.72,540.75 184.69,541.91 182.59,543.22 178.47,545.53 174.38,547.62 172.47,548.47 170.25,549.47 166.12,550.84 162.03,551.72 157.91,552.16 153.78,552.06 149.69,551.59 145.56,550.69 141.44,549.34 139.03,548.47 137.34,547.91 133.22,546.34 129.12,544.72 125,543.03 122.69,541.91 120.88,541.12 116.78,539.41 112.66,537.81 108.53,536.44 104.44,535.53 103.69,535.38 100.31,534.84 96.188,534.31 92.094,533.91 87.969,533.62 83.844,533.44 79.75,533.31 75.625,533.22 71.5,533.47 67.406,533.59 63.281,533.47 59.188,532.97 55.062,531.56 50.938,529.94 48.688,528.97 46.844,528.06 42.719,525.78 38.594,523.25 37.594,522.59 34.5,520.53 30.375,517.72 28.281,516.28 26.25,514.94 22.156,512.66 18.031,510.16 " stroke="red" stroke-width="0.96875" stroke-linecap="round" stroke-linejoin="round" />
<polyline points="183.59,533.62 184.47,532.75 186.22,532.75 187.09,533.62 187.09,535.38 186.22,536.25 183.59,536.25 183.59,538 187.09,538 " stroke="red" stroke-width="0.71875" stroke-linecap="round" stroke-linejoin="round" />
<polyline points="191.47,538 189.72,535.38 193.22,535.38 193.22,538 193.22,532.75 " stroke="red" stroke-width="0.71875" stroke-linecap="round" stroke-linejoin="round" />
<polygon points="196.72,538 195.84,537.12 195.84,533.62 196.72,532.75 198.47,532.75 199.34,533.62 199.34,537.12 198.47,538 " stroke="red" stroke-width="0.71875" stroke-linejoin="round" />
<polygon points="202.84,538 201.97,537.12 201.97,533.62 202.84,532.75 204.59,532.75 205.47,533.62 205.47,537.12 204.59,538 " stroke="red" stroke-width="0.71875" stroke-linejoin="round" />
<polyline points="594,544.81 589.88,543.59 585.78,542.88 581.66,542.28 577.53,542.34 573.44,543.41 569.31,545.81 565.56,548.47 565.19,548.62 561.09,550.28 556.97,551.44 552.88,552.28 548.75,552.88 544.62,553.47 540.53,554.09 536.41,554.81 535.19,555.12 532.28,555.72 528.19,556.62 524.06,557.53 519.94,558.47 515.84,559.34 511.72,560.19 507.59,561.03 503.56,561.84 503.5,561.84 499.38,562.62 495.25,563.38 491.16,564.06 487.03,564.72 482.91,565.22 478.81,565.69 474.69,566.12 470.56,566.53 466.47,567 462.34,567.44 458.25,567.91 454.12,568.38 452.25,568.62 452.03,568.66 " stroke="red" stroke-width="0.96875" stroke-linecap="round" stroke-linejoin="round" />
<polyline points="398.69,568.66 398.53,568.62 396.53,568.22 392.41,567.25 388.31,566.19 384.19,565.19 380.06,564.03 375.97,562.75 373.38,561.84 371.84,561.28 367.72,559.53 363.62,557.56 359.5,555.31 359.12,555.12 355.38,553.09 351.28,550.78 347.53,548.47 347.16,548.25 343.03,545.5 338.94,542.31 338.5,541.91 334.81,538.44 332,535.38 330.69,534 326.59,529.12 326.44,528.97 322.47,524.5 320.84,522.59 318.34,519.69 315.69,516.28 314.25,514.41 313.59,513.53 " stroke="red" stroke-width="0.96875" stroke-linecap="round" stroke-linejoin="round" />
<polyline points="306.66,504.06 306.5,503.88 306.03,503.28 301.91,498.91 300.72,497.75 297.78,495.12 293.69,491.81 293.5,491.69 289.56,489.06 285.44,486.66 283.41,485.69 281.34,484.78 277.22,483.44 273.09,482.66 269,482.91 264.88,483.56 260.75,484.53 256.66,485.66 256.56,485.69 252.53,486.53 248.41,487.47 244.31,488.44 240.19,489.53 236.06,490.88 233.91,491.69 231.97,492.44 227.84,494.19 223.72,496.06 219.62,497.44 218.66,497.75 215.5,498.72 211.41,499.91 207.28,501.12 203.16,502.69 200.06,503.88 199.06,504.28 194.94,505.97 190.81,507.69 186.72,509.34 184.75,510.06 182.59,510.84 178.47,512.06 174.38,512.97 170.25,513.41 166.12,513.59 162.03,513.62 157.91,513.53 153.78,513.69 149.69,513.72 145.56,513.69 141.44,513.53 137.34,513 133.22,512.41 129.12,511.81 125,511.38 120.88,511.75 116.78,512.12 112.66,512.34 108.53,512.34 104.44,511.16 101.31,510.06 100.31,509.69 96.188,508.06 92.094,506.53 87.969,506.53 83.844,506.84 79.75,507.31 75.625,507.75 71.5,507.75 67.406,507.5 63.281,506.97 59.188,506.06 55.062,504.34 54.125,503.88 50.938,502.19 46.844,499.97 42.719,497.81 42.594,497.75 38.594,495.91 34.5,494 30.375,492.06 29.594,491.69 26.25,490.09 22.156,488.38 18.031,486.47 " stroke="red" stroke-width="0.96875" stroke-linecap="round" stroke-linejoin="round" />
<polyline points="299.62,507.03 300.5,506.16 302.25,506.16 303.12,507.03 303.12,508.78 302.25,509.66 299.62,509.66 299.62,511.41 303.12,511.41 " stroke="red" stroke-width="0.71875" stroke-linecap="round" stroke-linejoin="round" />
<polyline points="307.5,511.41 305.75,508.78 309.25,508.78 309.25,511.41 309.25,506.16 " stroke="red" stroke-width="0.71875" stroke-linecap="round" stroke-linejoin="round" />
<polyline points="315.38,510.53 314.5,511.41 312.75,511.41 311.88,510.53 311.88,507.03 312.75,506.16 314.5,506.16 315.38,507.03 315.38,507.91 314.5,508.78 311.88,508.78 " stroke="red" stroke-width="0.71875" stroke-linecap="round" stroke-linejoin="round" />
<polygon points="318.88,511.41 318,510.53 318,507.03 318.88,506.16 320.62,506.16 321.5,507.03 321.5,510.53 320.62,511.41 " stroke="red" stroke-width="0.71875" stroke-linejoin="round" />
<polyline points="594,506.72 590.66,503.88 589.88,503.09 585.78,499.31 584.25,497.75 581.66,495.09 577.97,491.69 577.53,491.31 573.44,488.16 569.41,485.69 569.31,485.62 565.19,484 561.09,483.06 556.97,482.97 552.88,483.84 550.28,485.69 548.75,487 544.88,491.69 544.62,492.06 541.28,497.75 540.53,499.22 538.12,503.88 536.41,507.34 534.75,510.06 532.28,513.56 530.25,516.28 528.19,518.66 524.44,522.59 524.06,522.94 519.94,526.47 516.5,528.97 515.84,529.34 511.72,531.62 507.59,533.62 503.5,535.38 503.5,535.41 499.38,536.78 495.25,538.03 491.16,539.16 487.03,540.16 482.91,541 478.81,541.78 478.06,541.91 474.69,542.41 470.56,543 466.47,543.66 462.34,544.25 458.25,544.81 454.12,545.28 450,545.62 445.91,545.91 441.78,546.16 437.66,546.38 433.56,546.78 429.44,547.09 425.31,547.31 421.22,547.38 417.09,547.06 412.97,546.56 408.88,545.91 404.75,545.09 400.62,544.16 396.53,543.09 392.41,541.94 392.31,541.91 388.31,540.66 384.19,539.34 380.06,537.88 375.97,536.25 374.03,535.38 371.84,534.41 367.72,532.38 363.62,530.22 361.38,528.97 359.5,527.88 355.38,525.5 351.28,523.12 350.41,522.59 347.16,520.59 343.03,517.84 340.94,516.28 338.94,514.78 334.81,511.03 333.81,510.06 330.69,506.91 327.84,503.88 326.66,502.47 " stroke="red" stroke-width="0.96875" stroke-linecap="round" stroke-linejoin="round" />
<polyline points="318.88,493.03 318.34,492.41 317.78,491.69 314.25,487.62 312.47,485.69 310.12,483.31 306.22,479.75 306.03,479.56 301.91,476.44 298.06,473.84 297.78,473.66 293.69,471.22 289.56,469.12 287.09,468 285.44,467.25 281.34,465.72 277.22,464.56 273.09,463.78 269,463.84 264.88,464.34 260.75,465.19 256.66,466.34 252.53,467.75 251.81,468 248.41,469.09 244.31,470.38 240.19,471.5 236.06,472.16 231.97,472.72 227.84,473.34 224.72,473.84 223.72,474 219.62,475 215.5,476.09 211.41,477.25 207.28,478.53 204.16,479.75 203.16,480.12 199.06,481.72 194.94,483.25 190.81,484.66 186.72,485.56 186.09,485.69 182.59,486.28 178.47,486.81 174.38,487.16 170.25,487 166.12,486.75 162.03,486.47 157.91,486.31 153.78,486.66 149.69,487.16 145.56,487.75 141.44,488.41 137.34,489 133.22,489.47 129.12,489.78 125,489.97 120.88,489.91 116.78,489.69 112.66,489.25 108.53,488.56 104.44,487.75 100.31,486.97 96.188,486.31 92.094,485.75 91.5,485.69 87.969,485.25 83.844,484.62 79.75,483.88 75.625,482.88 71.5,481.5 67.406,479.91 67,479.75 63.281,478.28 59.188,476.78 55.062,475.84 50.938,475 46.844,474.16 45.344,473.84 42.719,473.28 38.594,471.97 34.5,470.47 30.375,468.88 28.219,468 26.25,467.19 22.156,465.75 18.031,464.09 " stroke="red" stroke-width="0.96875" stroke-linecap="round" stroke-linejoin="round" />
<polyline points="312.19,496 313.06,495.12 314.81,495.12 315.69,496 315.69,497.75 314.81,498.62 312.19,498.62 312.19,500.38 315.69,500.38 " stroke="red" stroke-width="0.71875" stroke-linecap="round" stroke-linejoin="round" />
<polyline points="318.31,496 319.19,495.12 320.94,495.12 321.81,496 321.81,497.75 320.94,498.62 318.31,498.62 318.31,500.38 321.81,500.38 " stroke="red" stroke-width="0.71875" stroke-linecap="round" stroke-linejoin="round" />
<polyline points="324.44,499.5 325.31,500.38 327.06,500.38 327.94,499.5 327.94,498.62 324.44,495.12 327.94,495.12 " stroke="red" stroke-width="0.71875" stroke-linecap="round" stroke-linejoin="round" />
<polygon points="331.44,500.38 330.56,499.5 330.56,496 331.44,495.12 333.19,495.12 334.06,496 334.06,499.5 333.19,500.38 " stroke="red" stroke-width="0.71875" stroke-linejoin="round" />
<polyline points="594,468.47 593.38,468 589.88,465.69 585.78,463.38 584.16,462.19 581.66,460.47 577.53,457.81 575.19,456.47 573.44,455.41 569.31,453.31 565.19,452.25 561.09,451.69 556.97,451.62 552.88,452.06 548.75,452.91 544.62,454.25 540.53,456.16 540.03,456.47 536.41,458.84 532.97,462.19 532.28,462.94 528.34,468 528.19,468.25 524.59,473.84 524.06,474.69 521.03,479.75 519.94,481.38 516.84,485.69 515.84,487 511.94,491.69 511.72,491.91 507.59,496.16 505.88,497.75 503.5,499.84 499.38,503.12 498.38,503.88 495.25,506.06 491.16,508.53 488.09,510.06 487.03,510.53 482.91,511.88 478.81,513.03 474.69,514.06 470.56,515.06 466.47,516.28 466.44,516.28 462.34,517.38 458.25,518.38 454.12,519.25 450,519.81 445.91,520.19 441.78,520.47 437.66,520.72 433.56,521.16 429.44,521.53 425.31,521.81 421.22,521.94 417.09,521.84 412.97,521.59 408.88,521.16 404.75,520.56 400.62,519.78 396.53,518.78 392.41,517.53 388.88,516.28 388.31,516.06 384.19,514 380.06,511.66 377.47,510.06 375.97,509.06 371.84,506.38 367.72,504.41 366.53,503.88 363.62,502.53 359.5,500.53 355.38,498.28 354.56,497.75 351.28,495.41 347.16,492.12 346.66,491.69 343.03,488.31 340.38,485.69 338.94,484.25 334.81,480.19 334.34,479.75 333.06,478.56 " stroke="red" stroke-width="0.96875" stroke-linecap="round" stroke-linejoin="round" />
<polyline points="321.97,469.12 320.66,468 318.34,466.16 314.25,463.16 312.81,462.19 310.12,460.5 306.03,458.09 303.09,456.47 301.91,455.75 297.78,453.5 293.69,451.59 291.62,450.75 289.56,449.94 285.44,448.38 281.34,447.03 277.22,445.94 273.09,445.12 273.03,445.12 269,444.78 264.88,444.75 260.75,444.94 259.28,445.12 256.66,445.41 252.53,446.28 248.41,447.47 244.31,448.84 240.19,450.34 237.31,450.75 236.06,450.94 231.97,451.31 227.84,451.59 223.72,451.88 219.62,452.72 215.5,453.62 211.41,454.59 207.28,455.47 203.16,455.84 199.06,456.09 194.94,456.28 191.84,456.47 190.81,456.53 186.72,457.19 182.59,457.91 178.47,458.66 174.38,459.41 170.25,460.09 166.12,460.69 162.03,461.25 157.91,461.72 153.78,462.16 153.34,462.19 149.69,462.53 145.56,462.88 141.44,463.22 137.34,463.59 133.22,463.97 129.12,464.31 125,464.56 120.88,464.44 116.78,464.19 112.66,463.91 108.53,463.66 104.44,463.66 100.31,463.56 96.188,463.34 92.094,462.88 89.625,462.19 87.969,461.75 83.844,460.38 79.75,458.94 75.625,457.5 72.375,456.47 71.5,456.22 67.406,455.12 63.281,454.12 59.188,453.22 55.062,452.59 50.938,451.97 46.844,451.25 44.5,450.75 42.719,450.38 38.594,449.19 34.5,447.88 30.375,446.47 26.406,445.12 26.25,445.06 22.156,443.84 18.031,442.5 " stroke="red" stroke-width="0.96875" stroke-linecap="round" stroke-linejoin="round" />
<polyline points="317.25,472.09 318.12,471.22 319.88,471.22 320.75,472.09 320.75,473.84 319.88,474.72 317.25,474.72 317.25,476.47 320.75,476.47 " stroke="red" stroke-width="0.71875" stroke-linecap="round" stroke-linejoin="round" />
<polyline points="323.38,472.09 324.25,471.22 326,471.22 326.88,472.09 326.88,473.84 326,474.72 323.38,474.72 323.38,476.47 326.88,476.47 " stroke="red" stroke-width="0.71875" stroke-linecap="round" stroke-linejoin="round" />
<polygon points="330.38,476.47 329.5,475.59 329.5,474.72 330.38,473.84 332.12,473.84 333,474.72 333,475.59 332.12,476.47 " stroke="red" stroke-width="0.71875" stroke-linejoin="round" />
<polyline points="330.38,473.84 329.5,472.97 329.5,472.09 330.38,471.22 332.12,471.22 333,472.09 333,472.97 332.12,473.84 " stroke="red" stroke-width="0.71875" stroke-linecap="round" stroke-linejoin="round" />
<polygon points="336.5,476.47 335.62,475.59 335.62,472.09 336.5,471.22 338.25,471.22 339.12,472.09 339.12,475.59 338.25,476.47 " stroke="red" stroke-width="0.71875" stroke-linejoin="round" />
<polyline points="594,432.97 589.88,431.47 585.78,430.06 582.25,428.44 581.66,428.19 577.53,426.38 573.44,424.69 569.31,423.16 568.69,422.97 565.19,421.91 561.09,420.97 556.97,420.41 552.88,420.38 548.75,421.44 544.69,422.97 544.62,423 540.53,425.03 536.41,427.34 534.75,428.44 532.28,430.12 528.19,433.22 527.28,433.97 524.06,436.62 520.72,439.5 519.94,440.25 515.84,443.81 514.47,445.12 511.72,448.03 509.34,450.75 507.59,453 505.03,456.47 503.5,458.56 500.53,462.19 499.38,463.53 495.25,467.69 494.88,468 491.16,470.97 487.03,473.59 486.53,473.84 482.91,475.5 478.81,477.09 474.69,478.5 470.94,479.75 470.56,479.88 466.47,481.84 462.34,483.72 458.25,485.5 457.72,485.69 454.12,487.06 450,488.31 445.91,489.44 441.78,490.44 437.66,491.34 436.09,491.69 433.56,492.22 429.44,493 425.31,493.59 421.22,494.03 417.09,494.28 412.97,494.31 408.88,494.06 404.75,493.5 400.62,492.5 398.06,491.69 396.53,491.19 392.41,489.5 388.31,487.56 384.75,485.69 384.19,485.38 380.06,483.06 375.97,480.75 374.25,479.75 371.84,478.16 367.72,475 366.34,473.84 363.62,471.41 360.03,468 359.5,467.47 355.38,463.31 354.19,462.19 351.28,459.5 347.88,456.47 347.16,455.81 343.03,452.44 341.56,451.28 " stroke="red" stroke-width="0.96875" stroke-linecap="round" stroke-linejoin="round" />
<polyline points="326.62,441.84 326.59,441.81 322.47,439.69 322.19,439.5 318.34,437.44 314.25,435.34 311.31,433.97 310.12,433.44 306.03,431.81 301.91,430.59 297.78,429.5 293.69,428.47 293.59,428.44 289.56,427.34 285.44,425.78 281.34,424.22 277.78,422.97 277.22,422.75 273.09,421.38 269,420.59 264.88,420.09 260.75,419.84 256.66,419.72 252.53,419.72 248.41,419.81 244.31,419.97 240.19,420.22 236.06,420.5 231.97,420.88 227.84,421.34 223.72,421.88 219.62,422.06 215.5,422.38 211.41,422.91 211.06,422.97 207.28,423.72 203.16,425.69 199.06,427.47 196.31,428.44 194.94,428.88 190.81,429.81 186.72,429.78 182.59,429.53 178.47,429.12 174.38,428.69 170.25,428.75 166.12,428.94 162.03,429.12 157.91,429.38 153.78,429.47 149.69,429.62 145.56,429.81 141.44,430.03 137.34,430.44 133.22,430.88 129.12,431.25 125,431.59 120.88,431.66 116.78,431.72 112.66,431.81 108.53,431.97 104.44,432.47 100.31,433.03 96.188,433.59 93.406,433.97 92.094,434.16 87.969,434.72 83.844,435.09 79.75,435.34 75.625,435.38 71.5,435.09 67.406,434.66 63.281,434.03 62.844,433.97 59.188,433.16 55.062,431.97 50.938,430.69 46.844,429.31 44.188,428.44 42.719,427.94 38.594,426.78 34.5,425.66 30.375,424.59 26.25,423.56 23.312,422.97 22.156,422.72 18.031,421.84 " stroke="red" stroke-width="0.96875" stroke-linecap="round" stroke-linejoin="round" />
<polyline points="324.31,444.81 325.19,443.94 326.94,443.94 327.81,444.81 327.81,446.56 326.94,447.44 324.31,447.44 324.31,449.19 327.81,449.19 " stroke="red" stroke-width="0.71875" stroke-linecap="round" stroke-linejoin="round" />
<polyline points="333.94,448.31 333.06,449.19 331.31,449.19 330.44,448.31 330.44,444.81 331.31,443.94 333.06,443.94 333.94,444.81 333.94,445.69 333.06,446.56 330.44,446.56 " stroke="red" stroke-width="0.71875" stroke-linecap="round" stroke-linejoin="round" />
<polyline points="338.31,449.19 336.56,446.56 340.06,446.56 340.06,449.19 340.06,443.94 " stroke="red" stroke-width="0.71875" stroke-linecap="round" stroke-linejoin="round" />
<polygon points="343.56,449.19 342.69,448.31 342.69,444.81 343.56,443.94 345.31,443.94 346.19,444.81 346.19,448.31 345.31,449.19 " stroke="red" stroke-width="0.71875" stroke-linejoin="round" />
<polyline points="594,396.72 589.88,396.88 585.78,396.97 581.66,396.41 580.16,396.22 577.53,395.88 573.44,395.56 569.31,395.5 565.19,396.16 564.97,396.22 561.09,396.84 556.97,397.59 552.88,398.34 548.75,399.19 544.62,400.22 540.53,401.47 540.44,401.47 536.41,402.88 532.28,404.5 528.19,406.34 527.28,406.78 524.06,408.44 519.94,410.75 517.44,412.16 515.84,413.12 511.72,415.66 508.78,417.53 507.59,418.28 503.5,421 500.94,422.97 499.38,424.16 495.25,427.34 493.84,428.44 491.16,430.62 487.03,433.91 487,433.97 482.91,438.56 482.03,439.5 478.81,442.81 476.12,445.12 474.69,446.25 470.56,448.97 467.19,450.75 466.47,451.12 462.34,452.97 458.25,454.59 454.12,456.06 452.75,456.47 450,457.25 445.91,458.22 441.78,459 437.66,459.66 433.56,460.16 429.44,460.5 425.31,460.69 421.22,460.69 417.09,460.59 412.97,460.28 408.88,459.75 404.75,459 400.62,458.12 396.53,457 394.88,456.47 392.41,455.59 388.31,453.84 384.19,451.53 382.97,450.75 380.06,448.81 375.97,445.78 375.12,445.12 371.84,442.44 368.59,439.5 367.72,438.72 363.62,434.97 362.47,433.97 359.5,431.38 355.84,428.44 355.38,428.09 351.28,425.19 347.84,422.97 347.16,422.53 343.03,420.12 338.94,417.97 337.97,417.53 336.5,416.88 " stroke="red" stroke-width="0.96875" stroke-linecap="round" stroke-linejoin="round" />
<polyline points="313.78,407.44 312.31,406.78 310.12,405.81 306.03,403.97 301.91,402.09 300.5,401.47 297.78,400.19 293.69,398.25 289.56,396.38 289.19,396.22 285.44,394.5 281.34,392.81 277.22,391.22 276.47,390.97 273.09,389.66 269,388.16 264.88,386.78 261.47,385.78 260.75,385.56 256.66,384.53 252.53,383.88 248.41,383.31 244.31,382.78 240.19,382.25 236.06,381.38 231.97,380.72 230.88,380.59 227.84,380.31 223.72,380.12 219.62,380.19 215.5,380.5 214.75,380.59 211.41,381.12 207.28,382.16 203.16,384.09 200.25,385.78 199.06,386.5 194.94,389.22 192.25,390.97 190.81,391.97 186.72,393.44 182.59,394.44 178.47,395.09 174.38,395.62 171.84,396.22 170.25,396.56 166.12,397.47 162.03,398.34 157.91,399.16 153.78,399.44 149.69,399.66 145.56,399.88 141.44,400.19 137.34,401.06 135.53,401.47 133.22,402.03 129.12,403.09 125,404.06 120.88,404.56 116.78,404.97 112.66,405.38 108.53,405.81 104.44,406.75 104.25,406.78 100.31,407.75 96.188,408.78 92.094,409.75 87.969,410.56 83.844,411.25 79.75,411.75 75.625,411.97 71.5,411.53 67.406,410.84 63.281,410.06 59.188,409.19 55.062,408.41 50.938,407.59 47.125,406.78 46.844,406.72 42.719,405.84 38.594,404.97 34.5,404.06 30.375,403.19 26.25,402.28 22.156,401.56 21.719,401.47 18.031,400.81 " stroke="red" stroke-width="0.96875" stroke-linecap="round" stroke-linejoin="round" />
<polyline points="314.59,410.41 315.47,409.53 317.22,409.53 318.09,410.41 318.09,412.16 317.22,413.03 314.59,413.03 314.59,414.78 318.09,414.78 " stroke="red" stroke-width="0.71875" stroke-linecap="round" stroke-linejoin="round" />
<polyline points="320.72,414.78 324.22,414.78 322.47,409.53 " stroke="red" stroke-width="0.71875" stroke-linecap="round" stroke-linejoin="round" />
<polygon points="327.72,414.78 326.84,413.91 326.84,410.41 327.72,409.53 329.47,409.53 330.34,410.41 330.34,413.91 329.47,414.78 " stroke="red" stroke-width="0.71875" stroke-linejoin="round" />
<polygon points="333.84,414.78 332.97,413.91 332.97,410.41 333.84,409.53 335.59,409.53 336.47,410.41 336.47,413.91 335.59,414.78 " stroke="red" stroke-width="0.71875" stroke-linejoin="round" />
<polyline points="594,271.81 589.88,272.41 586.06,274.16 585.78,274.34 582.06,278.75 581.66,279.41 579.84,283.34 578.44,287.97 577.59,292.62 577.88,297.31 578.59,302 579.66,306.72 580.94,311.44 581.66,313.97 582.44,316.22 583.75,321 584.47,325.81 584.09,330.66 581.66,334.44 580.94,335.5 577.53,338.78 575.75,340.41 573.44,341.97 569.31,344.53 567.91,345.31 565.19,346.56 561.09,348.44 557.06,350.28 556.97,350.31 552.88,352.03 548.75,354.31 547.34,355.25 544.62,357.12 541,360.25 540.53,360.69 536.41,364.94 536.03,365.28 532.28,368.44 530.09,370.38 528.19,371.75 524.06,374.78 523.16,375.47 519.94,377.56 516.03,380.59 515.84,380.72 511.72,383.5 508.56,385.78 507.59,386.34 503.5,389.06 500.94,390.97 499.38,392 495.25,395.03 493.81,396.22 491.16,398.34 487.56,401.47 487.03,401.94 482.91,404.97 480.34,406.78 478.81,407.84 474.69,410.44 471.88,412.16 470.56,412.88 466.47,415.31 462.38,417.53 462.34,417.56 458.25,419.25 454.12,420.53 450,421.16 445.91,421.38 441.78,421.25 437.66,420.88 433.56,420.69 429.44,420.28 425.31,419.66 421.22,418.72 418.31,417.53 417.09,417.03 412.97,415.22 408.88,413.59 404.75,412.25 403.41,412.16 400.62,411.97 396.53,411.75 392.41,411.38 388.31,410.66 384.19,408.84 380.06,406.81 380.06,406.78 375.97,404.56 371.84,402.25 370.56,401.47 367.72,399.75 363.62,397.16 362.03,396.22 360.78,395.44 " stroke="red" stroke-width="0.96875" stroke-linecap="round" stroke-linejoin="round" />
<polyline points="337.78,386.12 336.81,385.78 334.81,385 330.69,383.44 326.59,381.78 323.88,380.59 322.47,379.97 318.34,377.25 315.91,375.47 314.25,374.19 310.12,370.94 309.38,370.38 306.03,368.12 301.91,366.22 299.69,365.28 297.78,364.47 293.69,362.75 289.56,361.09 287.38,360.25 285.44,359.53 281.34,358.22 277.22,357.19 273.09,356.34 269,355.75 264.88,355.28 264.41,355.25 260.75,354.88 256.66,354.47 252.53,353.94 248.41,353.41 244.31,352.91 240.19,352.41 236.06,351.81 231.97,351.22 227.84,350.66 224.97,350.28 223.72,350.12 219.62,349.72 215.5,349.41 211.41,349.28 207.28,349.31 203.16,349.69 199.66,350.28 199.06,350.38 194.94,351.53 190.81,353.03 186.72,355.16 186.56,355.25 182.59,357.5 178.47,359.84 177.72,360.25 174.38,362.06 170.25,363.94 167.31,365.28 166.12,365.81 162.03,367.59 157.91,369.34 155.31,370.38 153.78,370.88 149.69,372.09 145.56,373.09 141.44,373.97 137.34,374.72 133.22,375.44 133.03,375.47 129.12,376.09 125,376.81 120.88,377.59 116.78,378.41 112.66,379.25 108.53,380.12 106.59,380.59 104.44,381.09 100.31,382.03 96.188,382.94 92.094,383.72 87.969,384.16 83.844,384.47 79.75,384.66 75.625,384.78 71.5,385.06 67.406,385.25 63.281,385.34 59.188,385.25 55.062,384.81 50.938,384.22 46.844,383.47 42.719,382.62 38.594,381.66 34.5,380.62 34.375,380.59 30.375,379.5 26.25,378.34 22.156,377.25 18.031,376.12 " stroke="red" stroke-width="0.96875" stroke-linecap="round" stroke-linejoin="round" />
<polyline points="340.78,388.97 341.66,388.09 343.41,388.09 344.28,388.97 344.28,390.72 343.41,391.59 340.78,391.59 340.78,393.34 344.28,393.34 " stroke="red" stroke-width="0.71875" stroke-linecap="round" stroke-linejoin="round" />
<polyline points="346.91,393.34 350.41,393.34 348.66,388.09 " stroke="red" stroke-width="0.71875" stroke-linecap="round" stroke-linejoin="round" />
<polyline points="356.53,392.47 355.66,393.34 353.91,393.34 353.03,392.47 353.03,388.97 353.91,388.09 355.66,388.09 356.53,388.97 356.53,389.84 355.66,390.72 353.03,390.72 " stroke="red" stroke-width="0.71875" stroke-linecap="round" stroke-linejoin="round" />
<polygon points="360.03,393.34 359.16,392.47 359.16,388.97 360.03,388.09 361.78,388.09 362.66,388.97 362.66,392.47 361.78,393.34 " stroke="red" stroke-width="0.71875" stroke-linejoin="round" />
<polyline points="499.97,247 500,247.03 502.53,251.5 503.5,253.75 504.31,256 505.53,260.5 506.5,265.03 507.31,269.59 507.59,271.34 508.03,274.16 509.5,278.75 510.53,283.34 510.91,287.97 510.38,292.62 507.59,297.12 507.5,297.31 503.53,302 503.5,302.03 499.38,305.84 498.41,306.72 495.25,309.28 492.59,311.44 491.16,312.69 487.03,316.22 482.91,319.25 480.59,321 478.81,322.28 474.69,325.34 474.06,325.81 470.56,328.38 467.81,330.66 466.47,331.53 462.34,334.34 460.62,335.5 458.25,337.06 454.12,339.59 452.66,340.41 450,341.75 445.91,343.59 441.78,345.25 441.56,345.31 437.66,346.72 433.56,348.53 429.56,350.28 429.44,350.31 425.31,352.09 421.22,353.66 417.09,354.22 412.97,354.53 408.88,354.62 404.75,354.69 400.62,355.25 396.53,355.81 392.41,356.31 388.31,356.69 384.19,357.03 380.06,357.06 375.97,356.78 371.84,356.16 369.06,355.25 367.72,354.81 363.62,353.16 359.5,351.41 357.09,350.28 355.38,349.41 351.28,346.97 348.44,345.31 347.16,344.59 343.03,342.31 339.06,340.41 338.94,340.34 334.81,338.72 330.69,337.12 326.81,335.5 326.59,335.41 322.47,333.47 319.5,332.31 " stroke="red" stroke-width="0.96875" stroke-linecap="round" stroke-linejoin="round" />
<polyline points="292.53,324.25 289.56,323.5 285.44,322.38 281.34,321.31 280.12,321 277.22,320.19 273.09,319.06 269,317.69 264.88,316.34 264.44,316.22 260.75,315.03 256.66,313.88 252.53,313.09 248.41,312.53 244.31,312.09 240.19,311.78 236.06,311.56 232.41,311.44 230.56,311.44 227.84,311.47 223.72,311.84 219.62,312.5 215.5,313.31 211.41,314.22 207.28,315.19 204.16,316.22 203.16,316.5 199.06,317.66 194.94,318.78 190.81,319.88 186.72,321 186.69,321 182.59,322.22 178.47,323.66 174.38,325.34 173.16,325.81 170.25,326.91 166.12,328.44 162.03,330 160.28,330.66 157.91,331.47 153.78,333.06 149.69,334.84 148.25,335.5 145.56,336.81 141.44,338.94 138.31,340.41 137.34,340.84 133.22,342.47 129.12,343.94 125.06,345.31 125,345.34 120.88,346.94 116.78,348.53 112.66,350.06 112.06,350.28 108.53,351.31 104.44,352.22 100.31,353 96.188,353.66 92.094,354.19 87.969,354.56 83.844,354.78 79.75,354.91 75.625,354.88 71.5,354.66 67.406,354.34 63.281,353.91 59.188,353.47 55.062,353.06 50.938,352.66 46.844,352.19 42.719,351.72 38.594,351.28 34.5,350.78 30.938,350.28 30.375,350.19 26.25,349.38 22.156,348.22 18.031,346.81 " stroke="red" stroke-width="0.96875" stroke-linecap="round" stroke-linejoin="round" />
<polyline points="295.53,326.06 296.41,325.19 298.16,325.19 299.03,326.06 299.03,327.81 298.16,328.69 295.53,328.69 295.53,330.44 299.03,330.44 " stroke="red" stroke-width="0.71875" stroke-linecap="round" stroke-linejoin="round" />
<polygon points="302.53,330.44 301.66,329.56 301.66,328.69 302.53,327.81 304.28,327.81 305.16,328.69 305.16,329.56 304.28,330.44 " stroke="red" stroke-width="0.71875" stroke-linejoin="round" />
<polyline points="302.53,327.81 301.66,326.94 301.66,326.06 302.53,325.19 304.28,325.19 305.16,326.06 305.16,326.94 304.28,327.81 " stroke="red" stroke-width="0.71875" stroke-linecap="round" stroke-linejoin="round" />
<polyline points="307.78,329.56 308.66,330.44 310.41,330.44 311.28,329.56 311.28,328.69 307.78,325.19 311.28,325.19 " stroke="red" stroke-width="0.71875" stroke-linecap="round" stroke-linejoin="round" />
<polygon points="314.78,330.44 313.91,329.56 313.91,326.06 314.78,325.19 316.53,325.19 317.41,326.06 317.41,329.56 316.53,330.44 " stroke="red" stroke-width="0.71875" stroke-linejoin="round" />
<polyline points="80.031,247 80,247.03 79.75,247.19 75.625,248.66 71.5,248.72 68.531,248.59 " stroke="red" stroke-width="0.96875" stroke-linecap="round" stroke-linejoin="round" />
<polyline points="48.062,247 48.062,247.66 47.188,248.53 44.562,248.53 44.562,250.28 48.062,250.28 " stroke="red" stroke-width="0.71875" stroke-linecap="round" stroke-linejoin="round" />
<polygon points="51.562,250.28 50.688,249.41 50.688,248.53 51.562,247.66 53.312,247.66 54.188,248.53 54.188,249.41 53.312,250.28 " stroke="red" stroke-width="0.71875" stroke-linejoin="round" />
<line x1="51.562" y1="247.66" x2="50.906" y2="247" stroke="red" stroke-width="0.71875" stroke-linecap="round" />
<line x1="53.969" y1="247" x2="53.312" y2="247.66" stroke="red" stroke-width="0.71875" stroke-linecap="round" />
<polygon points="57.688,250.28 56.812,249.41 56.812,248.53 57.688,247.66 59.438,247.66 60.312,248.53 60.312,249.41 59.438,250.28 " stroke="red" stroke-width="0.71875" stroke-linejoin="round" />
<line x1="57.688" y1="247.66" x2="57.031" y2="247" stroke="red" stroke-width="0.71875" stroke-linecap="round" />
<line x1="60.094" y1="247" x2="59.438" y2="247.66" stroke="red" stroke-width="0.71875" stroke-linecap="round" />
<polyline points="63.812,250.28 62.938,249.41 62.938,247 " stroke="red" stroke-width="0.71875" stroke-linecap="round" stroke-linejoin="round" />
<polyline points="66.438,247 66.438,249.41 65.562,250.28 63.812,250.28 " stroke="red" stroke-width="0.71875" stroke-linecap="round" stroke-linejoin="round" />
<polyline points="126,247 126,247.03 125,248.09 120.88,250.59 118.84,251.5 116.78,252.16 112.66,253.28 108.53,254.34 104.44,255.81 103.88,256 100.31,257.53 96.188,260.31 95.969,260.5 92.094,263.88 91.094,265.03 88.156,267.69 " stroke="red" stroke-width="0.96875" stroke-linecap="round" stroke-linejoin="round" />
<polyline points="66.281,273.09 63.281,273.12 59.188,273.44 57.281,274.16 55.062,274.97 50.938,277.12 48.562,278.75 46.844,279.78 42.719,282.5 41.25,283.34 38.594,284.53 34.5,285.91 30.375,286.78 26.25,287.22 22.156,286.16 18.031,284.97 " stroke="red" stroke-width="0.96875" stroke-linecap="round" stroke-linejoin="round" />
<polyline points="69.25,270.66 70.125,269.78 71.875,269.78 72.75,270.66 72.75,272.41 71.875,273.28 69.25,273.28 69.25,275.03 72.75,275.03 " stroke="red" stroke-width="0.71875" stroke-linecap="round" stroke-linejoin="round" />
<polygon points="76.25,275.03 75.375,274.16 75.375,273.28 76.25,272.41 78,272.41 78.875,273.28 78.875,274.16 78,275.03 " stroke="red" stroke-width="0.71875" stroke-linejoin="round" />
<polyline points="76.25,272.41 75.375,271.53 75.375,270.66 76.25,269.78 78,269.78 78.875,270.66 78.875,271.53 78,272.41 " stroke="red" stroke-width="0.71875" stroke-linecap="round" stroke-linejoin="round" />
<polygon points="82.375,275.03 81.5,274.16 81.5,273.28 82.375,272.41 84.125,272.41 85,273.28 85,274.16 84.125,275.03 " stroke="red" stroke-width="0.71875" stroke-linejoin="round" />
<polyline points="82.375,272.41 81.5,271.53 81.5,270.66 82.375,269.78 84.125,269.78 85,270.66 85,271.53 84.125,272.41 " stroke="red" stroke-width="0.71875" stroke-linecap="round" stroke-linejoin="round" />
<polygon points="88.5,275.03 87.625,274.16 87.625,270.66 88.5,269.78 90.25,269.78 91.125,270.66 91.125,274.16 90.25,275.03 " stroke="red" stroke-width="0.71875" stroke-linejoin="round" />
</g>
</svg>
