<?xml version="1.0" encoding="ISO-8859-1" standalone="no"?>
<!DOCTYPE svg PUBLIC "-//W3C//DTD SVG 1.1//EN" "http://www.w3.org/Graphics/SVG/1.1/DTD/svg11.dtd">
<svg version="1.1" baseProfile="full" id="body" width="900px" height="600px" viewBox="0 0.2 1 0.55" preserveAspectRatio="none" xmlns="http://www.w3.org/2000/svg" xmlns:xlink="http://www.w3.org/1999/xlink" xmlns:ev="http://www.w3.org/2001/xml-events">
<title>SVG drawing</title>
<desc>This was produced by version 4.2 of GNU libplot, a free library for exporting 2-D vector graphics.</desc>
<rect id="background" x="0" y="0" width="1" height="1" stroke="none" fill="none"/>
<g id="content" transform="translate(-0.03125,1.1875) scale(1,-1) scale(0.0017361) " xml:space="preserve" stroke="black" stroke-linecap="butt" stroke-linejoin="miter" stroke-miterlimit="10.433" stroke-dasharray="none" stroke-dashoffset="0" stroke-opacity="1" fill="none" fill-rule="even-odd" fill-opacity="1" font-style="normal" font-variant="normal" font-weight="normal" font-stretch="normal" font-size-adjust="none" letter-spacing="normal" word-spacing="normal" text-anchor="start">
<polyline points="279,568.66 279.03,568.62 281.34,562.56 281.53,561.84 281.34,560.03 280.56,555.12 279.25,553.47 " stroke="red" stroke-width="0.96875" stroke-linecap="round" stroke-linejoin="round" />
<polyline points="263.47,553.47 262.09,555.12 260.84,561.84 263.69,568.62 263.72,568.66 " stroke="red" stroke-width="0.96875" stroke-linecap="round" stroke-linejoin="round" />
<polyline points="262.59,547 263.47,546.12 265.22,546.12 266.09,547 266.09,548.75 265.22,549.62 262.59,549.62 262.59,551.38 266.09,551.38 " stroke="red" stroke-width="0.71875" stroke-linecap="round" stroke-linejoin="round" />
<polyline points="268.72,550.5 269.59,551.38 271.34,551.38 272.22,550.5 272.22,549.62 268.72,546.12 272.22,546.12 " stroke="red" stroke-width="0.71875" stroke-linecap="round" stroke-linejoin="round" />
<polygon points="275.72,551.38 274.84,550.5 274.84,549.62 275.72,548.75 277.47,548.75 278.34,549.62 278.34,550.5 277.47,551.38 " stroke="red" stroke-width="0.71875" stroke-linejoin="round" />
<polyline points="275.72,548.75 274.84,547.88 274.84,547 275.72,546.12 277.47,546.12 278.34,547 278.34,547.88 277.47,548.75 " stroke="red" stroke-width="0.71875" stroke-linecap="round" stroke-linejoin="round" />
<polygon points="281.84,551.38 280.97,550.5 280.97,547 281.84,546.12 283.59,546.12 284.47,547 284.47,550.5 283.59,551.38 " stroke="red" stroke-width="0.71875" stroke-linejoin="round" />
<polyline points="53.469,568.66 53.438,568.62 50.938,565.16 50.219,564.12 " stroke="red" stroke-width="0.96875" stroke-linecap="round" stroke-linejoin="round" />
<polyline points="43.062,554.69 42.719,554.28 38.594,551.41 34.5,548.66 34.188,548.47 30.375,545.91 26.25,542.72 25.344,541.91 22.156,539.12 18.562,535.38 18.031,534.84 " stroke="red" stroke-width="0.96875" stroke-linecap="round" stroke-linejoin="round" />
<polyline points="36.344,557.66 37.219,556.78 38.969,556.78 39.844,557.66 39.844,559.41 38.969,560.28 36.344,560.28 36.344,562.03 39.844,562.03 " stroke="red" stroke-width="0.71875" stroke-linecap="round" stroke-linejoin="round" />
<polyline points="42.469,561.16 43.344,562.03 45.094,562.03 45.969,561.16 45.969,560.28 45.094,559.41 44.219,559.41 45.094,559.41 45.969,558.53 45.969,557.66 45.094,556.78 43.344,556.78 42.469,557.66 " stroke="red" stroke-width="0.71875" stroke-linecap="round" stroke-linejoin="round" />
<polyline points="50.344,562.03 48.594,559.41 52.094,559.41 52.094,562.03 52.094,556.78 " stroke="red" stroke-width="0.71875" stroke-linecap="round" stroke-linejoin="round" />
<polygon points="55.594,562.03 54.719,561.16 54.719,557.66 55.594,556.78 57.344,556.78 58.219,557.66 58.219,561.16 57.344,562.03 " stroke="red" stroke-width="0.71875" stroke-linejoin="round" />
<polyline points="220.34,568.66 220.34,568.62 222.62,561.84 223.72,559.5 225.34,555.12 227.84,550.12 228.62,548.47 231.97,543 232.62,541.91 236.06,537.47 237.72,535.38 240.19,532.91 244.16,528.97 244.31,528.84 248.41,526 251.41,524.25 " stroke="red" stroke-width="0.96875" stroke-linecap="round" stroke-linejoin="round" />
<polyline points="278.34,519.28 281.34,519.38 285.44,519.81 289.56,520.66 293.69,522.22 294.41,522.59 297.78,524.75 301.91,528.28 302.56,528.97 306.03,534.75 306.41,535.38 309.41,541.91 310.12,543.84 311.97,548.47 314.19,555.12 314.25,555.25 316.53,561.84 318.31,568.62 318.31,568.66 " stroke="red" stroke-width="0.96875" stroke-linecap="round" stroke-linejoin="round" />
<polyline points="254.38,518.25 255.25,517.38 257,517.38 257.88,518.25 257.88,520 257,520.88 254.38,520.88 254.38,522.62 257.88,522.62 " stroke="red" stroke-width="0.71875" stroke-linecap="round" stroke-linejoin="round" />
<polyline points="260.5,521.75 261.38,522.62 263.12,522.62 264,521.75 264,520.88 263.12,520 262.25,520 263.12,520 264,519.12 264,518.25 263.12,517.38 261.38,517.38 260.5,518.25 " stroke="red" stroke-width="0.71875" stroke-linecap="round" stroke-linejoin="round" />
<polyline points="268.38,522.62 266.62,520 270.12,520 270.12,522.62 270.12,517.38 " stroke="red" stroke-width="0.71875" stroke-linecap="round" stroke-linejoin="round" />
<polygon points="273.62,522.62 272.75,521.75 272.75,518.25 273.62,517.38 275.38,517.38 276.25,518.25 276.25,521.75 275.38,522.62 " stroke="red" stroke-width="0.71875" stroke-linejoin="round" />
<polyline points="355.53,568.66 355.5,568.62 355.38,568.47 351.28,562.94 350.53,561.84 347.16,556.81 346.12,555.12 343.03,550.41 341.84,548.47 338.94,543.97 337.53,541.91 334.81,538.16 332.84,535.38 330.69,532.59 328,528.97 326.59,527.31 322.66,522.59 322.47,522.41 318.34,517.72 317.06,516.28 314.25,513.53 310.31,510.06 310.12,509.91 306.03,507.12 301.91,505.31 297.78,504.09 296.69,503.88 293.69,503.28 289.56,502.78 285.44,502.41 281.34,502.22 277.22,502.28 273.09,502.5 269,502.91 264.88,503.5 262.91,503.88 260.75,504.28 256.66,505.19 252.53,506.28 248.41,507.59 244.31,509.19 242.28,510.06 240.19,511.03 236.06,513.19 231.97,515.53 230.59,516.28 227.84,518 223.72,520.56 220.06,522.59 219.62,522.88 215.5,525.38 211.44,527.88 " stroke="red" stroke-width="0.96875" stroke-linecap="round" stroke-linejoin="round" />
<polyline points="192.22,537.34 190.81,537.94 186.72,539.91 182.81,541.91 182.59,542.03 178.47,544.5 174.38,547.03 172.03,548.47 170.25,549.59 166.12,551.72 162.03,553.25 157.91,554.19 153.78,554.19 149.69,553.56 145.56,552.31 141.44,550.5 138.25,548.47 137.34,547.97 133.22,545.97 129.12,544.69 125,544.38 120.88,546.31 116.78,548.06 115.75,548.47 112.66,549.62 108.53,550.84 104.44,551.41 100.31,551.78 96.188,551.97 92.094,552 87.969,551.91 83.844,551.53 79.75,550.66 75.625,549.19 74.031,548.47 71.5,547.31 67.406,545.16 63.281,542.88 61.719,541.91 59.188,540.47 55.062,536.84 53.469,535.38 50.938,533.28 46.844,529.84 45.75,528.97 42.719,526.53 38.594,523.78 36.875,522.59 34.5,520.97 30.375,518.03 28.062,516.28 26.25,514.94 22.156,512.12 19.406,510.06 18.031,509 " stroke="red" stroke-width="0.96875" stroke-linecap="round" stroke-linejoin="round" />
<polyline points="192.66,530.84 193.53,529.97 195.28,529.97 196.16,530.84 196.16,532.59 195.28,533.47 192.66,533.47 192.66,535.22 196.16,535.22 " stroke="red" stroke-width="0.71875" stroke-linecap="round" stroke-linejoin="round" />
<polyline points="200.53,535.22 198.78,532.59 202.28,532.59 202.28,535.22 202.28,529.97 " stroke="red" stroke-width="0.71875" stroke-linecap="round" stroke-linejoin="round" />
<polygon points="205.78,535.22 204.91,534.34 204.91,530.84 205.78,529.97 207.53,529.97 208.41,530.84 208.41,534.34 207.53,535.22 " stroke="red" stroke-width="0.71875" stroke-linejoin="round" />
<polygon points="211.91,535.22 211.03,534.34 211.03,530.84 211.91,529.97 213.66,529.97 214.53,530.84 214.53,534.34 213.66,535.22 " stroke="red" stroke-width="0.71875" stroke-linejoin="round" />
<polyline points="594,549.75 589.88,550.62 585.78,551.59 581.66,552.38 577.53,553.12 573.44,553.88 569.31,554.62 567.19,555.12 565.19,555.5 561.09,556.41 556.97,557.34 552.88,558.31 548.75,559.25 544.62,560.19 540.53,561.09 537.03,561.84 536.41,561.94 532.28,562.66 528.19,563.34 524.06,564.03 519.94,564.69 515.84,565.38 511.72,566.06 507.59,566.75 503.5,567.44 499.38,568.22 497.22,568.62 497.06,568.66 " stroke="red" stroke-width="0.96875" stroke-linecap="round" stroke-linejoin="round" />
<polyline points="409.16,568.66 409.09,568.62 408.88,568.53 404.75,566.69 400.62,564.91 396.53,563.03 394.03,561.84 392.41,561.12 388.31,559.16 384.19,557 381.03,555.12 380.06,554.59 375.97,552.03 371.84,548.91 371.31,548.47 367.72,545.53 363.75,541.91 363.62,541.78 359.5,537.84 357.12,535.38 355.38,533.62 351.47,528.97 351.28,528.72 347.16,523.88 346.09,522.59 343.03,519.12 340.5,516.28 338.94,514.59 334.81,510.41 334.47,510.06 330.69,506.41 328,503.88 326.59,502.66 322.47,499.28 320.56,497.75 318.34,496.06 317.41,495.41 " stroke="red" stroke-width="0.96875" stroke-linecap="round" stroke-linejoin="round" />
<polyline points="296.66,486.19 293.69,485.75 292.34,485.69 289.56,485.53 286.75,485.69 285.44,485.75 281.34,486.19 277.22,486.78 273.09,487.41 269,487.94 264.88,488.53 260.75,489.12 256.66,489.75 252.53,490.28 248.41,490.91 244.31,491.59 243.84,491.69 240.19,492.44 236.06,493.66 231.97,495.06 227.84,496.59 224.69,497.75 223.72,498.09 219.62,499 215.5,499.75 211.41,500.5 207.28,501.31 203.16,502.84 200.38,503.88 199.06,504.38 194.94,505.84 190.81,507.06 186.72,507.56 182.59,507.84 178.47,508 174.38,508.06 170.25,508.12 166.12,508.28 162.03,508.59 157.91,509.22 155.66,510.06 153.78,510.72 149.69,512.16 145.56,513.31 141.44,514.19 137.34,514.38 133.22,514.56 129.12,514.84 125,515.31 122.44,516.28 120.88,516.94 116.78,518.94 112.66,521.12 109.81,522.59 108.53,523.28 104.44,524.34 100.31,524.84 96.188,524.72 92.094,523.84 89.844,522.59 87.969,521.56 83.844,519 79.75,516.56 79.219,516.28 75.625,514.5 71.5,513.53 67.406,512.59 63.281,511.5 59.188,510.16 58.969,510.06 55.062,508.06 50.938,505.81 47.531,503.88 46.844,503.47 42.719,500.91 38.594,498.31 37.719,497.75 34.5,495.69 30.375,493.06 28.25,491.69 26.25,490.47 22.156,488.16 18.156,485.69 18.031,485.59 " stroke="red" stroke-width="0.96875" stroke-linecap="round" stroke-linejoin="round" />
<polyline points="299.62,488.94 300.5,488.06 302.25,488.06 303.12,488.94 303.12,490.69 302.25,491.56 299.62,491.56 299.62,493.31 303.12,493.31 " stroke="red" stroke-width="0.71875" stroke-linecap="round" stroke-linejoin="round" />
<polyline points="307.5,493.31 305.75,490.69 309.25,490.69 309.25,493.31 309.25,488.06 " stroke="red" stroke-width="0.71875" stroke-linecap="round" stroke-linejoin="round" />
<polyline points="315.38,492.44 314.5,493.31 312.75,493.31 311.88,492.44 311.88,488.94 312.75,488.06 314.5,488.06 315.38,488.94 315.38,489.81 314.5,490.69 311.88,490.69 " stroke="red" stroke-width="0.71875" stroke-linecap="round" stroke-linejoin="round" />
<polygon points="318.88,493.31 318,492.44 318,488.94 318.88,488.06 320.62,488.06 321.5,488.94 321.5,492.44 320.62,493.31 " stroke="red" stroke-width="0.71875" stroke-linejoin="round" />
<polyline points="594,506.19 590.31,503.88 589.88,503.47 585.78,500.59 581.75,497.75 581.66,497.69 577.53,495.31 573.44,494.38 569.31,496.72 568.84,497.75 566,503.88 565.19,505.12 562.69,510.06 561.09,512.53 558.81,516.28 556.97,518.66 553.84,522.59 552.88,523.53 548.75,527.66 547.34,528.97 544.62,530.72 540.53,533.12 536.41,535.19 535.75,535.38 532.28,536.44 528.19,537.5 524.06,538.53 519.94,539.5 515.84,540.75 511.91,541.91 511.72,541.94 507.59,543 503.5,544 499.38,544.78 495.25,545.47 491.16,546.16 487.03,546.81 482.91,547.53 478.81,548.25 477.44,548.47 474.69,548.88 470.56,549.44 466.47,549.88 462.34,550.19 458.25,550.41 454.12,550.56 450,550.62 445.91,550.56 441.78,550.38 437.66,550 433.56,549.38 429.44,548.59 428.94,548.47 425.31,547.59 421.22,546.47 417.09,545.22 412.97,543.94 408.88,542.66 406.47,541.91 404.75,541.38 400.62,540.16 396.53,538.81 392.41,537.25 388.31,535.38 384.19,532.56 380.06,529.28 379.72,528.97 375.97,525.06 373.44,522.59 371.84,521.09 367.72,517.66 366.12,516.28 363.62,514.19 359.5,510.69 358.78,510.06 355.38,507.06 352,503.88 351.28,503.19 347.16,499.41 345.28,497.75 343.03,495.84 338.94,492.47 337.97,491.69 334.81,489.19 333.03,487.81 " stroke="red" stroke-width="0.96875" stroke-linecap="round" stroke-linejoin="round" />
<polyline points="319.59,478.38 318.34,477.53 314.25,475 312.03,473.84 310.12,472.84 306.03,471.03 301.91,469.59 297.78,468.41 295.94,468 293.69,467.47 289.56,466.88 285.44,467.09 281.34,467.72 279.94,468 277.22,468.53 273.09,469.5 269,470.16 264.88,470.81 260.75,471.44 256.66,471.97 252.53,472.34 248.41,472.66 244.31,472.91 240.19,473.16 236.06,473.47 231.97,473.84 227.84,474.25 223.72,474.75 219.62,475.25 215.5,475.81 211.41,476.47 207.28,477.25 203.16,478.56 199.94,479.75 199.06,480.06 194.94,481.53 190.81,482.88 186.72,483.53 182.59,483.97 178.47,484.28 174.38,484.5 170.25,484.84 166.12,485.22 162.03,485.62 161.47,485.69 157.91,486.09 153.78,486.81 149.69,487.72 145.56,488.81 141.44,490.06 137.34,491.16 135.03,491.69 133.22,492.09 129.12,492.88 125,493.53 120.88,494.34 116.78,495.16 112.66,495.84 108.53,496.34 104.44,496.19 100.31,495.69 96.188,494.97 92.094,494.06 87.969,492.97 83.844,491.72 83.75,491.69 79.75,490.38 75.625,488.97 71.5,487.66 67.406,486.25 65.938,485.69 63.281,484.69 59.188,482.94 55.062,480.91 52.875,479.75 50.938,478.72 46.844,476.53 42.719,474.41 41.469,473.84 38.594,472.59 34.5,470.81 30.375,469.06 27.969,468 26.25,467.25 22.156,465.53 18.031,463.59 " stroke="red" stroke-width="0.96875" stroke-linecap="round" stroke-linejoin="round" />
<polyline points="316.09,481.34 316.97,480.47 318.72,480.47 319.59,481.34 319.59,483.09 318.72,483.97 316.09,483.97 316.09,485.72 319.59,485.72 " stroke="red" stroke-width="0.71875" stroke-linecap="round" stroke-linejoin="round" />
<polyline points="322.22,481.34 323.09,480.47 324.84,480.47 325.72,481.34 325.72,483.09 324.84,483.97 322.22,483.97 322.22,485.72 325.72,485.72 " stroke="red" stroke-width="0.71875" stroke-linecap="round" stroke-linejoin="round" />
<polyline points="328.34,484.84 329.22,485.72 330.97,485.72 331.84,484.84 331.84,483.97 328.34,480.47 331.84,480.47 " stroke="red" stroke-width="0.71875" stroke-linecap="round" stroke-linejoin="round" />
<polygon points="335.34,485.72 334.47,484.84 334.47,481.34 335.34,480.47 337.09,480.47 337.97,481.34 337.97,484.84 337.09,485.72 " stroke="red" stroke-width="0.71875" stroke-linejoin="round" />
<polyline points="594,462.06 589.88,459.53 585.78,457.44 584.09,456.47 581.66,454.97 577.53,453.09 573.44,452.06 569.31,451.81 565.19,453.19 561.09,455.56 559.97,456.47 556.97,458.91 553.81,462.19 552.88,463.34 548.91,468 548.75,468.22 544.78,473.84 544.62,474.09 541.22,479.75 540.53,481.06 538.09,485.69 536.41,488.84 534.94,491.69 532.28,496.38 531.44,497.75 528.19,502.28 526.81,503.88 524.06,506.47 519.94,509.47 518.69,510.06 515.84,511.28 511.72,512.81 507.59,514.16 503.5,515.41 500.5,516.28 499.38,516.59 495.25,517.62 491.16,518.56 487.03,519.41 482.91,520.34 478.81,521.25 474.69,522.06 471.81,522.59 470.56,522.81 466.47,523.34 462.34,523.78 458.25,524.09 454.12,524.28 450,524.34 445.91,524.25 441.78,524.06 437.66,523.69 433.56,523.09 430.66,522.59 429.44,522.38 425.31,521.53 421.22,520.66 417.09,519.88 412.97,518.97 408.88,517.81 404.81,516.28 404.75,516.28 400.62,513.62 396.53,510.16 396.41,510.06 392.41,505.97 390.44,503.88 388.31,502.19 384.19,499.94 380.12,497.75 380.06,497.72 375.97,495.44 371.84,492.94 370.03,491.69 367.72,490.06 363.62,487.09 361.72,485.69 359.5,484.06 355.38,481.06 353.56,479.75 351.28,478 347.16,474.84 345.88,473.84 343.03,471.59 341.12,470.12 " stroke="red" stroke-width="0.96875" stroke-linecap="round" stroke-linejoin="round" />
<polyline points="327.16,460.69 326.59,460.34 322.47,458.25 318.72,456.47 318.34,456.28 314.25,454.38 310.12,452.62 306.03,451.03 305.38,450.75 301.91,449.28 297.78,447.72 293.69,446.44 289.56,445.38 287.72,445.12 285.44,444.75 281.34,444.31 277.22,444.12 273.09,444.16 269,444.53 264.91,445.12 264.88,445.12 260.75,445.81 256.66,446.53 252.53,447.19 248.41,447.88 244.31,448.56 240.19,449.19 236.06,449.44 231.97,449.66 227.84,449.88 223.72,450.19 220.69,450.75 219.62,450.94 215.5,451.75 211.41,452.56 207.28,453.31 203.16,453.69 199.06,454.06 194.94,454.47 190.81,454.97 186.72,455.97 184.88,456.47 182.59,457.06 178.47,458.22 174.38,459.28 170.25,460.22 166.12,461.06 162.03,461.84 159.94,462.19 157.91,462.53 153.78,463 149.69,463.41 145.56,463.75 141.44,464.09 137.34,464.5 133.22,464.94 129.12,465.38 125,465.75 120.88,465.94 116.78,466.06 112.66,466.09 108.53,466.12 104.44,466.34 100.31,466.5 96.188,466.5 92.094,466.28 87.969,465.47 83.844,464.41 79.75,463.19 76.688,462.19 75.625,461.88 71.5,460.59 67.406,459.25 63.281,457.84 59.406,456.47 59.188,456.38 55.062,454.78 50.938,453.19 46.844,451.62 44.531,450.75 42.719,450.09 38.594,448.69 34.5,447.22 30.375,445.69 28.938,445.12 26.25,444.09 22.156,442.62 18.031,441 " stroke="red" stroke-width="0.96875" stroke-linecap="round" stroke-linejoin="round" />
<polyline points="324.31,463.66 325.19,462.78 326.94,462.78 327.81,463.66 327.81,465.41 326.94,466.28 324.31,466.28 324.31,468.03 327.81,468.03 " stroke="red" stroke-width="0.71875" stroke-linecap="round" stroke-linejoin="round" />
<polyline points="330.44,463.66 331.31,462.78 333.06,462.78 333.94,463.66 333.94,465.41 333.06,466.28 330.44,466.28 330.44,468.03 333.94,468.03 " stroke="red" stroke-width="0.71875" stroke-linecap="round" stroke-linejoin="round" />
<polygon points="337.44,468.03 336.56,467.16 336.56,466.28 337.44,465.41 339.19,465.41 340.06,466.28 340.06,467.16 339.19,468.03 " stroke="red" stroke-width="0.71875" stroke-linejoin="round" />
<polyline points="337.44,465.41 336.56,464.53 336.56,463.66 337.44,462.78 339.19,462.78 340.06,463.66 340.06,464.53 339.19,465.41 " stroke="red" stroke-width="0.71875" stroke-linecap="round" stroke-linejoin="round" />
<polygon points="343.56,468.03 342.69,467.16 342.69,463.66 343.56,462.78 345.31,462.78 346.19,463.66 346.19,467.16 345.31,468.03 " stroke="red" stroke-width="0.71875" stroke-linejoin="round" />
<polyline points="594,426.06 589.88,424.28 585.78,423.09 585.34,422.97 581.66,421.97 577.53,421.25 573.44,421 569.31,421.28 565.19,422.41 563.78,422.97 561.09,424 556.97,426 552.88,428.34 552.75,428.44 548.75,431.38 545.62,433.97 544.62,434.84 540.53,438.94 539.97,439.5 536.41,443.44 534.97,445.12 532.28,448.5 530.53,450.75 528.19,454 526.34,456.47 524.06,459.97 522.56,462.19 519.94,466.22 518.41,468 515.84,470.94 512.91,473.84 511.72,474.97 507.59,478.19 505.22,479.75 503.5,480.59 499.38,482.28 495.25,483.69 491.16,484.97 488.72,485.69 487.03,486.16 482.91,487.62 478.81,489 474.69,490.28 470.56,491.47 469.72,491.69 466.47,492.5 462.34,493.41 458.25,494.16 454.12,494.78 450,495.22 445.91,495.47 441.78,495.53 437.66,495.41 433.56,495.03 429.44,494.41 425.31,493.56 421.22,492.47 418.78,491.69 417.09,491.12 412.97,489.44 408.88,487.5 405.44,485.69 404.75,485.34 400.62,483.06 396.53,480.97 394.06,479.75 392.41,478.84 388.31,476.47 384.5,473.84 384.19,473.59 380.06,470.44 376.94,468 375.97,467.22 371.84,463.97 369.44,462.19 367.72,460.94 363.62,457.91 361.66,456.47 359.5,454.84 355.38,451.72 354.12,450.75 351.28,448.62 347.16,445.78 346.09,445.12 344.72,444.25 " stroke="red" stroke-width="0.96875" stroke-linecap="round" stroke-linejoin="round" />
<polyline points="328.34,434.78 326.88,433.97 326.59,433.78 322.47,431.62 318.34,429.72 315.38,428.44 314.25,427.94 310.12,426.25 306.03,424.62 301.91,423.09 301.56,422.97 297.78,421.56 293.69,420.12 289.56,418.72 286.41,417.53 285.44,417.16 281.34,415.69 277.22,414.38 273.09,413.31 269,412.75 264.88,412.47 260.75,412.5 256.66,412.88 252.53,413.81 248.41,414.88 244.31,415.94 240.19,416.91 236.41,417.53 236.06,417.59 231.97,418.12 227.84,418.59 223.72,418.94 219.62,418.78 215.5,418.53 211.41,418.34 207.28,418.41 203.16,419.81 199.06,421.28 194.94,422.59 193.44,422.97 190.81,423.56 186.72,423.97 182.59,424.25 178.47,424.56 174.38,424.94 170.25,425.69 166.12,426.56 162.03,427.47 157.91,428.38 157.59,428.44 153.78,429.19 149.69,430 145.56,430.78 141.44,431.53 137.34,432.06 133.22,432.53 129.12,432.94 125,433.31 120.88,433.78 119.47,433.97 116.78,434.28 112.66,434.78 108.53,435.28 104.44,435.91 100.31,436.44 96.188,436.81 92.094,437 87.969,436.72 83.844,436.25 79.75,435.59 75.625,434.84 71.5,434 71.312,433.97 67.406,433.12 63.281,432.22 59.188,431.28 55.062,430.31 50.938,429.25 47.906,428.44 46.844,428.16 42.719,427 38.594,425.94 34.5,424.88 30.375,423.84 26.844,422.97 26.25,422.81 22.156,421.81 18.031,420.66 " stroke="red" stroke-width="0.96875" stroke-linecap="round" stroke-linejoin="round" />
<polyline points="326.12,437.75 327,436.88 328.75,436.88 329.62,437.75 329.62,439.5 328.75,440.38 326.12,440.38 326.12,442.12 329.62,442.12 " stroke="red" stroke-width="0.71875" stroke-linecap="round" stroke-linejoin="round" />
<polyline points="335.75,441.25 334.88,442.12 333.12,442.12 332.25,441.25 332.25,437.75 333.12,436.88 334.88,436.88 335.75,437.75 335.75,438.62 334.88,439.5 332.25,439.5 " stroke="red" stroke-width="0.71875" stroke-linecap="round" stroke-linejoin="round" />
<polyline points="340.12,442.12 338.38,439.5 341.88,439.5 341.88,442.12 341.88,436.88 " stroke="red" stroke-width="0.71875" stroke-linecap="round" stroke-linejoin="round" />
<polygon points="345.38,442.12 344.5,441.25 344.5,437.75 345.38,436.88 347.12,436.88 348,437.75 348,441.25 347.12,442.12 " stroke="red" stroke-width="0.71875" stroke-linejoin="round" />
<polyline points="594,395.56 589.88,395.44 585.78,395.38 581.66,394.94 577.53,394.62 573.44,394.56 569.31,394.81 565.19,396.06 564.81,396.22 561.09,397.59 556.97,399.44 553,401.47 552.88,401.56 548.75,403.75 544.62,406.22 543.72,406.78 540.53,408.94 536.41,411.88 535.97,412.16 532.28,414.56 528.19,417.5 528.12,417.53 524.06,420.84 521.66,422.97 519.94,424.59 515.84,428.22 515.56,428.44 511.72,431.59 508.62,433.97 507.59,434.66 503.5,437.31 500.41,439.5 499.38,440.25 495.25,443.19 492.53,445.12 491.16,446.09 487.03,448.91 484.12,450.75 482.91,451.53 478.81,453.84 474.69,455.94 473.5,456.47 470.56,457.69 466.47,459.09 462.34,460.25 458.25,461.19 454.12,461.91 451.88,462.19 450,462.44 445.91,462.69 441.78,462.72 437.66,462.47 435.91,462.19 433.56,461.81 429.44,460.91 425.31,459.75 421.22,458.47 417.09,457.34 414.03,456.47 412.97,456.12 408.88,454.69 404.75,453.06 400.62,450.94 400.34,450.75 396.53,448.44 392.41,445.75 391.47,445.12 388.31,442.94 384.19,440.53 382.34,439.5 380.06,438.25 375.97,436.03 372.22,433.97 371.84,433.72 367.72,430.56 364.94,428.44 363.62,427.44 359.5,424.44 357.31,422.97 355.38,421.66 351.28,419.25 348.31,417.53 347.16,416.84 343.03,414.41 339.12,412.16 338.94,412.03 334.81,409.66 331,407.53 " stroke="red" stroke-width="0.96875" stroke-linecap="round" stroke-linejoin="round" />
<polyline points="313.5,398.09 310.12,396.38 309.78,396.22 306.03,394.31 301.91,392.47 298.41,390.97 297.78,390.69 293.69,388.97 289.56,387.31 286.41,385.78 285.44,385.28 281.34,383.22 277.22,381.19 276,380.59 273.09,379.22 269,377.56 264.88,376.06 263.06,375.47 260.75,374.72 256.66,373.53 252.53,372.31 248.41,371.19 244.81,370.38 244.31,370.25 240.19,369.72 236.06,370 233.84,370.38 231.97,370.75 227.84,372.06 223.72,373.66 219.62,375.19 218.88,375.47 215.5,376.62 211.41,377.88 207.28,379 203.16,380.28 202.22,380.59 199.06,381.66 194.94,383.09 190.81,384.56 186.72,385.69 186.47,385.78 182.59,386.78 178.47,387.84 174.38,388.91 170.25,390.09 167.38,390.97 166.12,391.38 162.03,392.75 157.91,394.09 153.78,395.34 150.72,396.22 149.69,396.5 145.56,397.66 141.44,398.78 137.34,400.09 133.22,401.41 133.03,401.47 129.12,402.75 125,404.06 120.88,405.22 116.78,406.31 114.84,406.78 112.66,407.34 108.53,408.28 104.44,409.06 100.31,409.72 96.188,410.22 92.094,410.59 87.969,410.84 83.844,411 79.75,411 75.625,410.91 71.5,410.72 67.406,410.41 63.281,409.94 59.188,409.31 55.062,408.28 50.938,407.16 49.688,406.78 46.844,405.94 42.719,404.75 38.594,403.94 34.5,403.09 30.375,402.19 27.75,401.47 26.25,401.06 22.156,399.59 18.031,397.78 " stroke="red" stroke-width="0.96875" stroke-linecap="round" stroke-linejoin="round" />
<polyline points="311.97,401.06 312.84,400.19 314.59,400.19 315.47,401.06 315.47,402.81 314.59,403.69 311.97,403.69 311.97,405.44 315.47,405.44 " stroke="red" stroke-width="0.71875" stroke-linecap="round" stroke-linejoin="round" />
<polyline points="318.09,405.44 321.59,405.44 319.84,400.19 " stroke="red" stroke-width="0.71875" stroke-linecap="round" stroke-linejoin="round" />
<polygon points="325.09,405.44 324.22,404.56 324.22,401.06 325.09,400.19 326.84,400.19 327.72,401.06 327.72,404.56 326.84,405.44 " stroke="red" stroke-width="0.71875" stroke-linejoin="round" />
<polygon points="331.22,405.44 330.34,404.56 330.34,401.06 331.22,400.19 332.97,400.19 333.84,401.06 333.84,404.56 332.97,405.44 " stroke="red" stroke-width="0.71875" stroke-linejoin="round" />
<polyline points="594,337.19 589.88,340.06 589.38,340.41 585.78,342.31 581.66,344.22 578.88,345.31 577.53,345.75 573.44,347.06 569.31,348.44 565.5,350.28 565.19,350.44 561.09,353.19 558.5,355.25 556.97,356.38 552.88,359.94 552.56,360.25 548.75,364.12 547.75,365.28 544.62,368.5 543,370.38 540.53,372.34 536.69,375.47 536.41,375.66 532.28,378.19 528.5,380.59 528.19,380.78 524.06,383.22 520.16,385.78 519.94,385.91 515.84,388.94 513.31,390.97 511.72,392.12 507.59,395.19 506.28,396.22 503.5,398.28 499.53,401.47 499.38,401.59 495.25,405.12 493.41,406.78 491.16,408.81 487.38,412.16 487.03,412.41 482.91,414.69 478.81,416.66 476.69,417.53 474.69,418.31 470.56,419.66 466.47,420.75 462.34,421.56 458.25,422.03 454.12,422.19 450,421.81 445.91,421.09 441.78,420.06 437.66,418.78 433.78,417.53 433.56,417.47 429.44,416.03 425.31,414.69 421.22,413.44 417.09,412.78 413.16,412.16 412.97,412.12 408.88,411.25 404.75,410.16 400.62,408.19 397.84,406.78 396.53,406.16 392.41,404.06 388.31,402.06 387.06,401.47 384.19,400.12 380.06,398.09 376.44,396.22 375.97,395.94 371.84,393.69 367.72,391.5 366.75,390.97 363.62,389.38 359.5,387.25 356.59,385.78 355.38,385.12 351.28,383.16 347.16,381.25 345.72,380.59 343.03,379.34 338.94,377.41 334.88,375.47 334.81,375.44 334.16,375.09 " stroke="red" stroke-width="0.96875" stroke-linecap="round" stroke-linejoin="round" />
<polyline points="317.69,365.62 317.19,365.28 314.25,363.31 310.12,360.81 309.16,360.25 306.03,358.53 301.91,356.78 298.34,355.25 297.78,355 293.69,353 289.56,350.88 288.41,350.28 285.44,348.88 281.34,347.12 277.22,345.66 276.12,345.31 273.09,344.41 269,343.69 264.88,343.12 260.75,342.62 256.66,342.12 252.53,341.06 249.72,340.41 248.41,340.09 244.31,339.22 240.19,338.62 236.06,338.75 231.97,339.09 227.84,339.66 223.84,340.41 223.72,340.41 219.62,341.16 215.5,342.06 211.41,343.12 207.28,344.34 204.44,345.31 203.16,345.78 199.06,347.38 194.94,349.19 192.66,350.28 190.81,351.09 186.72,352.91 182.59,354.72 181.38,355.25 178.47,356.44 174.38,358.09 170.25,359.75 169,360.25 166.12,361.38 162.03,363 157.91,364.59 156.12,365.28 153.78,366.12 149.69,367.59 145.56,369 141.47,370.38 141.44,370.38 137.34,371.56 133.22,372.75 129.12,373.97 125,375.22 124.16,375.47 120.88,376.41 116.78,377.56 112.66,378.62 108.53,379.66 105.09,380.59 104.44,380.78 100.31,381.84 96.188,382.91 92.094,383.88 87.969,384.72 83.844,385.34 80.188,385.78 79.75,385.81 75.625,386.03 71.5,385.97 68.312,385.78 67.406,385.69 63.281,385.16 59.188,384.38 55.062,383.34 50.938,382.19 46.844,380.97 45.625,380.59 42.719,379.69 38.594,378.47 34.5,377.16 30.375,375.75 29.562,375.47 26.25,374.22 22.156,372.59 18.031,370.88 " stroke="red" stroke-width="0.96875" stroke-linecap="round" stroke-linejoin="round" />
<polyline points="314.38,368.62 315.25,367.75 317,367.75 317.88,368.62 317.88,370.38 317,371.25 314.38,371.25 314.38,373 317.88,373 " stroke="red" stroke-width="0.71875" stroke-linecap="round" stroke-linejoin="round" />
<polyline points="320.5,373 324,373 322.25,367.75 " stroke="red" stroke-width="0.71875" stroke-linecap="round" stroke-linejoin="round" />
<polyline points="330.12,372.12 329.25,373 327.5,373 326.62,372.12 326.62,368.62 327.5,367.75 329.25,367.75 330.12,368.62 330.12,369.5 329.25,370.38 326.62,370.38 " stroke="red" stroke-width="0.71875" stroke-linecap="round" stroke-linejoin="round" />
<polygon points="333.62,373 332.75,372.12 332.75,368.62 333.62,367.75 335.38,367.75 336.25,368.62 336.25,372.12 335.38,373 " stroke="red" stroke-width="0.71875" stroke-linejoin="round" />
<polyline points="593.31,287.91 593.62,283.34 594,281.97 " stroke="red" stroke-width="0.96875" stroke-linecap="round" stroke-linejoin="round" />
<polyline points="583.09,290.88 583.97,290 585.72,290 586.59,290.88 586.59,292.62 585.72,293.5 583.09,293.5 583.09,295.25 586.59,295.25 " stroke="red" stroke-width="0.71875" stroke-linecap="round" stroke-linejoin="round" />
<polyline points="589.22,295.25 592.72,295.25 590.97,290 " stroke="red" stroke-width="0.71875" stroke-linecap="round" stroke-linejoin="round" />
<polyline points="507.62,247 507.66,247.03 509.84,251.5 511,256 511.47,260.5 511.25,265.03 510.5,269.59 509.28,274.16 507.88,278.75 507.59,279.38 506,283.34 503.72,287.97 503.5,288.31 500.94,292.62 499.38,294.34 496.56,297.31 495.25,298.53 491.38,302 491.16,302.19 487.03,305.47 485.22,306.72 482.91,308.28 478.81,311 478.09,311.44 474.69,314.62 473.03,316.22 470.56,318.75 468.34,321 466.47,322.81 463.06,325.81 462.34,326.41 458.25,329.38 456.31,330.66 454.12,331.91 450,334.69 448.75,335.5 445.91,337.19 441.78,339.34 439.41,340.41 437.66,341.09 433.56,342.38 429.44,343.34 425.31,344.03 421.22,344.44 417.09,344.38 412.97,344.19 408.88,343.97 404.75,343.75 400.62,344.06 396.53,344.38 392.41,344.62 388.31,344.72 384.19,344.38 380.06,343.69 375.97,342.66 371.84,341.28 369.28,340.41 367.72,339.81 363.62,338.06 359.5,336.28 357.88,335.5 355.38,334.25 351.28,331.38 350.22,330.66 347.16,327.88 344.88,325.81 343.03,323.91 340.16,321 338.94,319.62 335.28,316.22 334.81,315.78 330.97,312.66 " stroke="red" stroke-width="0.96875" stroke-linecap="round" stroke-linejoin="round" />
<polyline points="311.84,303.22 310.12,302.5 308.75,302 306.03,300.91 301.91,300.06 297.78,299.5 293.69,299.06 289.56,298.69 285.44,297.88 282.44,297.31 281.34,297.06 277.22,296.25 273.09,295.53 269,295.06 264.88,294.72 260.75,294.47 256.66,294.34 252.53,294.28 248.41,294.28 244.31,294.38 240.19,294.53 236.06,294.78 231.97,295.16 227.84,295.72 223.72,296.53 220.94,297.31 219.62,297.66 215.5,299 211.41,300.66 208.44,302 207.28,302.47 203.16,304.47 199.06,306.5 198.62,306.72 194.94,308.31 190.81,310.12 187.72,311.44 186.72,311.81 182.59,313.5 178.47,315.44 177,316.22 174.38,317.56 170.25,319.66 167.66,321 166.12,321.72 162.03,323.62 157.91,325.53 157.38,325.81 153.78,327.62 149.69,329.81 148.19,330.66 145.56,332 141.44,334.09 138.06,335.5 137.34,335.78 133.22,337.28 129.12,338.72 125,340.12 124.38,340.41 120.88,341.78 116.78,343.47 112.66,345.12 112.16,345.31 108.53,346.66 104.44,348.03 100.31,349.28 96.719,350.28 96.188,350.41 92.094,351.22 87.969,351.66 83.844,351.88 79.75,351.91 75.625,351.69 71.5,351.19 67.406,350.59 65.281,350.28 63.281,349.97 59.188,349.31 55.062,349.06 50.938,348.78 46.844,348.41 42.719,347.91 38.594,347 34.5,345.94 32.312,345.31 30.375,344.72 26.25,343.38 22.156,341.84 18.281,340.41 18.031,340.31 " stroke="red" stroke-width="0.96875" stroke-linecap="round" stroke-linejoin="round" />
<polyline points="311.97,306.19 312.84,305.31 314.59,305.31 315.47,306.19 315.47,307.94 314.59,308.81 311.97,308.81 311.97,310.56 315.47,310.56 " stroke="red" stroke-width="0.71875" stroke-linecap="round" stroke-linejoin="round" />
<polygon points="318.97,310.56 318.09,309.69 318.09,308.81 318.97,307.94 320.72,307.94 321.59,308.81 321.59,309.69 320.72,310.56 " stroke="red" stroke-width="0.71875" stroke-linejoin="round" />
<polyline points="318.97,307.94 318.09,307.06 318.09,306.19 318.97,305.31 320.72,305.31 321.59,306.19 321.59,307.06 320.72,307.94 " stroke="red" stroke-width="0.71875" stroke-linecap="round" stroke-linejoin="round" />
<polyline points="324.22,309.69 325.09,310.56 326.84,310.56 327.72,309.69 327.72,308.81 324.22,305.31 327.72,305.31 " stroke="red" stroke-width="0.71875" stroke-linecap="round" stroke-linejoin="round" />
<polygon points="331.22,310.56 330.34,309.69 330.34,306.19 331.22,305.31 332.97,305.31 333.84,306.19 333.84,309.69 332.97,310.56 " stroke="red" stroke-width="0.71875" stroke-linejoin="round" />
<line x1="18.25" y1="255.78" x2="18.031" y2="255.69" stroke="red" stroke-width="0.96875" stroke-linecap="round" />
<polyline points="18.031,261 18.406,261.38 18.406,262.25 18.031,262.62 " stroke="red" stroke-width="0.71875" stroke-linecap="round" stroke-linejoin="round" />
<polyline points="18.031,258.38 18.406,258.75 18.406,259.62 18.031,260 " stroke="red" stroke-width="0.71875" stroke-linecap="round" stroke-linejoin="round" />
<polygon points="21.906,263.12 21.031,262.25 21.031,261.38 21.906,260.5 23.656,260.5 24.531,261.38 24.531,262.25 23.656,263.12 " stroke="red" stroke-width="0.71875" stroke-linejoin="round" />
<polyline points="21.906,260.5 21.031,259.62 21.031,258.75 21.906,257.88 23.656,257.88 24.531,258.75 24.531,259.62 23.656,260.5 " stroke="red" stroke-width="0.71875" stroke-linecap="round" stroke-linejoin="round" />
<polygon points="28.031,263.12 27.156,262.25 27.156,258.75 28.031,257.88 29.781,257.88 30.656,258.75 30.656,262.25 29.781,263.12 " stroke="red" stroke-width="0.71875" stroke-linejoin="round" />
</g>
</svg>
