<?xml version="1.0" encoding="ISO-8859-1" standalone="no"?>
<!DOCTYPE svg PUBLIC "-//W3C//DTD SVG 1.1//EN" "http://www.w3.org/Graphics/SVG/1.1/DTD/svg11.dtd">
<svg version="1.1" baseProfile="full" id="body" width="900px" height="600px" viewBox="0 0.2 1 0.55" preserveAspectRatio="none" xmlns="http://www.w3.org/2000/svg" xmlns:xlink="http://www.w3.org/1999/xlink" xmlns:ev="http://www.w3.org/2001/xml-events">
<title>SVG drawing</title>
<desc>This was produced by version 4.2 of GNU libplot, a free library for exporting 2-D vector graphics.</desc>
<rect id="background" x="0" y="0" width="1" height="1" stroke="none" fill="none"/>
<g id="content" transform="translate(-0.03125,1.1875) scale(1,-1) scale(0.0017361) " xml:space="preserve" stroke="black" stroke-linecap="butt" stroke-linejoin="miter" stroke-miterlimit="10.433" stroke-dasharray="none" stroke-dashoffset="0" stroke-opacity="1" fill="none" fill-rule="even-odd" fill-opacity="1" font-style="normal" font-variant="normal" font-weight="normal" font-stretch="normal" font-size-adjust="none" letter-spacing="normal" word-spacing="normal" text-anchor="start">
<polyline points="527.66,568.66 527.66,568.62 528.19,567.69 531.94,562.41 " stroke="red" stroke-width="0.96875" stroke-linecap="round" stroke-linejoin="round" />
<polyline points="553.97,562.41 556.97,565.84 559,568.62 559.03,568.66 " stroke="red" stroke-width="0.96875" stroke-linecap="round" stroke-linejoin="round" />
<polyline points="530.03,555.91 530.91,555.03 532.66,555.03 533.53,555.91 533.53,557.66 532.66,558.53 530.03,558.53 530.03,560.28 533.53,560.28 " stroke="red" stroke-width="0.71875" stroke-linecap="round" stroke-linejoin="round" />
<polyline points="536.16,559.41 537.03,560.28 538.78,560.28 539.66,559.41 539.66,558.53 536.16,555.03 539.66,555.03 " stroke="red" stroke-width="0.71875" stroke-linecap="round" stroke-linejoin="round" />
<polyline points="542.28,559.41 543.16,560.28 544.91,560.28 545.78,559.41 545.78,558.53 542.28,555.03 545.78,555.03 " stroke="red" stroke-width="0.71875" stroke-linecap="round" stroke-linejoin="round" />
<polygon points="549.28,560.28 548.41,559.41 548.41,555.91 549.28,555.03 551.03,555.03 551.91,555.91 551.91,559.41 551.03,560.28 " stroke="red" stroke-width="0.71875" stroke-linejoin="round" />
<polyline points="180.22,568.66 180.22,568.62 182.59,564.22 183.84,561.84 186.72,558.75 190.81,555.5 194.94,555.72 199.06,556.97 199.41,557.09 " stroke="red" stroke-width="0.96875" stroke-linecap="round" stroke-linejoin="round" />
<polyline points="218.09,566.56 219.62,567.38 222.12,568.62 222.16,568.66 " stroke="red" stroke-width="0.96875" stroke-linecap="round" stroke-linejoin="round" />
<polyline points="199.31,560.09 200.19,559.22 201.94,559.22 202.81,560.09 202.81,561.84 201.94,562.72 199.31,562.72 199.31,564.47 202.81,564.47 " stroke="red" stroke-width="0.71875" stroke-linecap="round" stroke-linejoin="round" />
<polyline points="205.44,563.59 206.31,564.47 208.06,564.47 208.94,563.59 208.94,562.72 205.44,559.22 208.94,559.22 " stroke="red" stroke-width="0.71875" stroke-linecap="round" stroke-linejoin="round" />
<polygon points="212.44,564.47 211.56,563.59 211.56,562.72 212.44,561.84 214.19,561.84 215.06,562.72 215.06,563.59 214.19,564.47 " stroke="red" stroke-width="0.71875" stroke-linejoin="round" />
<polyline points="212.44,561.84 211.56,560.97 211.56,560.09 212.44,559.22 214.19,559.22 215.06,560.09 215.06,560.97 214.19,561.84 " stroke="red" stroke-width="0.71875" stroke-linecap="round" stroke-linejoin="round" />
<polygon points="218.56,564.47 217.69,563.59 217.69,560.09 218.56,559.22 220.31,559.22 221.19,560.09 221.19,563.59 220.31,564.47 " stroke="red" stroke-width="0.71875" stroke-linejoin="round" />
<polyline points="494.06,568.66 494.06,568.62 495.25,566.06 497.16,561.84 499.38,556.69 500.03,555.12 502.66,548.47 503.5,546.53 505.75,541.91 507.59,538.97 510.56,535.38 511.72,534.28 515.84,531.44 519.94,529.53 521.28,528.97 522.94,528.38 " stroke="red" stroke-width="0.96875" stroke-linecap="round" stroke-linejoin="round" />
<polyline points="549.88,527.97 552.66,528.97 552.88,529.03 556.97,532.25 560.47,535.38 561.09,535.97 565.19,540.31 566.62,541.91 569.31,545.09 572.19,548.47 573.44,550.09 577.03,555.12 577.53,555.91 581.41,561.84 581.66,562.25 585.78,568.56 585.81,568.62 585.84,568.66 " stroke="red" stroke-width="0.96875" stroke-linecap="round" stroke-linejoin="round" />
<polyline points="525.91,524.53 526.78,523.66 528.53,523.66 529.41,524.53 529.41,526.28 528.53,527.16 525.91,527.16 525.91,528.91 529.41,528.91 " stroke="red" stroke-width="0.71875" stroke-linecap="round" stroke-linejoin="round" />
<polyline points="532.03,528.03 532.91,528.91 534.66,528.91 535.53,528.03 535.53,527.16 532.03,523.66 535.53,523.66 " stroke="red" stroke-width="0.71875" stroke-linecap="round" stroke-linejoin="round" />
<polygon points="539.03,528.91 538.16,528.03 538.16,527.16 539.03,526.28 540.78,526.28 541.66,527.16 541.66,528.03 540.78,528.91 " stroke="red" stroke-width="0.71875" stroke-linejoin="round" />
<polyline points="539.03,526.28 538.16,525.41 538.16,524.53 539.03,523.66 540.78,523.66 541.66,524.53 541.66,525.41 540.78,526.28 " stroke="red" stroke-width="0.71875" stroke-linecap="round" stroke-linejoin="round" />
<polygon points="545.16,528.91 544.28,528.03 544.28,524.53 545.16,523.66 546.91,523.66 547.78,524.53 547.78,528.03 546.91,528.91 " stroke="red" stroke-width="0.71875" stroke-linejoin="round" />
<polyline points="271.38,568.66 271.28,568.62 269,567.78 264.88,566.28 260.75,564.69 256.66,562.97 254.69,561.84 252.53,560.59 248.41,558 244.31,555.22 244.16,555.12 240.19,552.88 236.06,550.97 231.97,549.22 230.16,548.47 227.84,547.62 223.72,546.19 219.62,544.72 215.5,543.28 211.41,541.91 211.31,541.91 207.28,540.72 203.16,539.62 199.06,538.69 194.94,537.91 190.81,537.28 186.72,536.81 182.59,536.47 178.47,536.34 174.38,536.47 171.38,537.09 " stroke="red" stroke-width="0.96875" stroke-linecap="round" stroke-linejoin="round" />
<polyline points="144.44,546.28 141.44,547 137.34,547.84 134.38,548.47 133.22,548.72 129.12,549.72 125,550.81 120.88,552.16 116.78,553.5 112.66,554.81 111.69,555.12 108.53,556.19 104.44,557.56 100.31,558.84 96.188,560.03 92.094,561.12 88.469,561.84 87.969,561.94 83.844,562.59 79.75,563 75.625,563.12 71.5,562.56 68.344,561.84 67.406,561.62 63.281,560.56 59.188,559.38 55.062,558.38 50.938,557.38 46.844,556.41 42.719,555.53 39.531,555.12 38.594,555 34.5,554.47 30.375,553.88 26.25,553.12 22.156,552.09 18.031,550.81 " stroke="red" stroke-width="0.96875" stroke-linecap="round" stroke-linejoin="round" />
<polyline points="147.41,539.97 148.28,539.09 150.03,539.09 150.91,539.97 150.91,541.72 150.03,542.59 147.41,542.59 147.41,544.34 150.91,544.34 " stroke="red" stroke-width="0.71875" stroke-linecap="round" stroke-linejoin="round" />
<polyline points="153.53,543.47 154.41,544.34 156.16,544.34 157.03,543.47 157.03,542.59 156.16,541.72 155.28,541.72 156.16,541.72 157.03,540.84 157.03,539.97 156.16,539.09 154.41,539.09 153.53,539.97 " stroke="red" stroke-width="0.71875" stroke-linecap="round" stroke-linejoin="round" />
<polyline points="161.41,544.34 159.66,541.72 163.16,541.72 163.16,544.34 163.16,539.09 " stroke="red" stroke-width="0.71875" stroke-linecap="round" stroke-linejoin="round" />
<polygon points="166.66,544.34 165.78,543.47 165.78,539.97 166.66,539.09 168.41,539.09 169.28,539.97 169.28,543.47 168.41,544.34 " stroke="red" stroke-width="0.71875" stroke-linejoin="round" />
<polyline points="452.59,568.66 452.62,568.62 454.12,567.09 458.25,562.81 459.12,561.84 462.34,558.16 464.88,555.12 466.47,553.16 469.97,548.47 470.56,547.62 474.22,541.91 474.69,541.06 477.84,535.38 478.81,533.47 481,528.97 482.91,523.69 483.31,522.59 485.69,516.28 487.03,513.09 488.81,510.06 491.16,507.12 495.25,503.88 495.28,503.88 498.25,502.78 " stroke="red" stroke-width="0.96875" stroke-linecap="round" stroke-linejoin="round" />
<polyline points="525.19,501.5 528.19,502.41 532.28,503.88 536.41,505.16 540.53,506.16 544.62,507.25 548.75,508.53 552.81,510.06 552.88,510.06 556.97,512.44 561.09,515.28 562.38,516.28 565.19,518.66 569.31,522.44 569.5,522.59 573.44,526.19 576.47,528.97 577.53,530.06 581.66,534.5 582.44,535.38 585.78,539.56 587.59,541.91 589.88,544.94 592.53,548.47 594,550.47 " stroke="red" stroke-width="0.96875" stroke-linecap="round" stroke-linejoin="round" />
<polyline points="501.22,498.34 502.09,497.47 503.84,497.47 504.72,498.34 504.72,500.09 503.84,500.97 501.22,500.97 501.22,502.72 504.72,502.72 " stroke="red" stroke-width="0.71875" stroke-linecap="round" stroke-linejoin="round" />
<polyline points="507.34,501.84 508.22,502.72 509.97,502.72 510.84,501.84 510.84,500.97 509.97,500.09 509.09,500.09 509.97,500.09 510.84,499.22 510.84,498.34 509.97,497.47 508.22,497.47 507.34,498.34 " stroke="red" stroke-width="0.71875" stroke-linecap="round" stroke-linejoin="round" />
<polyline points="515.22,502.72 513.47,500.09 516.97,500.09 516.97,502.72 516.97,497.47 " stroke="red" stroke-width="0.71875" stroke-linecap="round" stroke-linejoin="round" />
<polygon points="520.47,502.72 519.59,501.84 519.59,498.34 520.47,497.47 522.22,497.47 523.09,498.34 523.09,501.84 522.22,502.72 " stroke="red" stroke-width="0.71875" stroke-linejoin="round" />
<polyline points="594,527.78 589.88,523.06 589.44,522.59 585.78,519.06 582.84,516.28 581.66,515.19 577.53,511.41 576.06,510.06 573.44,507.69 569.31,504.06 569.06,503.88 565.19,500.94 561.09,498.06 560.59,497.75 556.97,495.38 552.88,492.78 551.09,491.69 548.75,490.12 544.62,487.34 542.28,485.69 540.53,484.38 536.41,481.41 533.56,479.75 532.28,479.06 528.19,477.19 524.06,475.44 520.19,473.84 519.94,473.75 515.84,472.28 511.72,470.91 507.59,469.81 503.5,469.16 499.38,469.44 495.25,470.38 491.16,471.78 487.03,473.56 486.56,473.84 482.91,476.09 478.81,479.47 478.53,479.75 474.69,483.75 473.16,485.69 470.56,489.41 469.03,491.69 466.47,495.78 465.25,497.75 462.34,502.78 461.72,503.88 458.25,510.03 458.22,510.06 454.44,516.28 454.12,516.78 450.25,522.59 450,522.94 445.91,528.56 445.59,528.97 441.78,533.88 440.59,535.38 437.66,539.06 435.66,541.91 433.56,544.78 430.78,548.47 429.44,550.22 425.38,555.12 425.31,555.19 421.22,559.53 418.34,561.84 417.09,562.81 412.97,565.66 408.88,568.22 408.12,568.62 408.06,568.66 " stroke="red" stroke-width="0.96875" stroke-linecap="round" stroke-linejoin="round" />
<polyline points="317.97,568.66 317.88,568.62 314.25,567.22 310.12,565.62 306.03,564.06 301.91,562.5 300.12,561.84 297.78,560.94 293.69,559.34 289.56,557.75 285.44,556.16 282.81,555.12 281.34,554.53 277.22,552.91 273.09,551.31 269,549.97 264.88,548.59 264.47,548.47 260.75,547.16 256.66,545.59 252.53,543.53 249.41,541.91 248.41,541.41 244.31,539.34 240.19,537.41 236.06,535.91 234.62,535.38 231.97,534.5 227.84,533.16 223.72,531.91 219.62,530.56 215.5,529.25 214.59,528.97 211.41,527.91 207.28,526.72 203.16,525.78 199.06,524.97 194.94,524.22 190.81,523.5 187.16,522.59 186.72,522.47 182.59,521.59 178.47,520.88 174.38,520.38 170.25,520.53 166.12,520.91 162.03,521.44 157.91,522.06 153.78,522.53 153.41,522.59 149.69,523.12 145.56,523.75 141.44,524.44 137.34,524.88 133.22,525.28 129.12,525.72 125,526.22 120.88,527.25 116.78,528.34 114.44,528.97 112.66,529.47 108.53,530.5 104.44,530.81 100.31,530.94 96.188,530.88 92.094,530.75 87.969,530.78 83.844,530.84 79.75,530.94 75.625,531.09 71.5,531.62 67.406,532.09 63.281,532.41 59.188,532.47 55.062,531.81 50.938,530.91 46.844,529.78 44.188,528.97 42.719,528.44 38.594,527.25 34.5,526 30.375,524.62 26.25,523.12 24.781,522.59 22.156,521.69 18.031,520.12 " stroke="red" stroke-width="0.96875" stroke-linecap="round" stroke-linejoin="round" />
<polyline points="594,509.22 589.88,505.56 587.91,503.88 585.78,501.94 581.66,498.16 581.19,497.75 577.53,494.5 574.19,491.69 573.44,491.06 569.31,487.75 566.5,485.69 565.19,484.72 561.09,481.72 558.34,479.75 556.97,478.69 552.88,475.62 550.59,473.84 548.75,472.41 544.62,469.31 542.81,468 540.53,466.38 536.41,463.59 534.28,462.19 532.28,460.88 528.19,458.09 525.81,456.47 524.06,455.34 519.94,452.88 516.25,450.75 515.84,450.53 511.72,448.53 507.59,446.75 503.5,445.25 502.88,445.12 499.38,444.41 495.25,443.91 491.16,443.84 487.03,444.34 484.5,445.12 482.91,445.66 478.81,447.62 474.69,449.91 473.31,450.75 470.56,452.56 466.47,455.44 465.06,456.47 462.34,458.97 459.25,462.19 458.25,463.44 454.94,468 454.12,469.28 451.62,473.84 450,476.97 448.56,479.75 445.91,484.16 444.97,485.69 441.78,490.72 441.16,491.69 437.66,496.88 437.03,497.75 433.56,502.72 432.69,503.88 429.44,508.38 428.19,510.06 425.31,513.91 423.47,516.28 421.22,519.22 418.12,522.59 417.09,523.69 412.97,527.62 411.41,528.97 408.88,530.97 404.75,533.81 402.22,535.38 400.62,536.34 396.53,538.62 392.41,540.66 389.66,541.91 388.31,542.5 384.19,544.12 380.06,545.53 375.97,546.75 371.84,547.78 368.5,548.47 367.72,548.62 364.75,549.06 " stroke="red" stroke-width="0.96875" stroke-linecap="round" stroke-linejoin="round" />
<polyline points="337.78,549.75 334.81,549.38 330.69,548.69 329.5,548.47 326.59,547.91 322.47,547 318.34,546.03 314.25,544.94 310.12,543.78 306.03,542.56 303.66,541.91 301.91,541.38 297.78,540.16 293.69,538.97 289.56,537.75 285.44,536.5 281.72,535.38 281.34,535.28 277.22,534.03 273.09,532.84 269,531.91 264.88,530.94 260.75,529.94 257.22,528.97 256.66,528.78 252.53,527.03 248.41,525.31 244.31,523.72 241.22,522.59 240.19,522.22 236.06,520.84 231.97,519.5 227.84,518.22 223.72,516.97 221.38,516.28 219.62,515.75 215.5,514.59 211.41,513.56 207.28,512.62 203.16,511.94 199.06,511.31 194.94,510.72 190.81,510.19 189.97,510.06 186.72,509.47 182.59,508.88 178.47,508.41 174.38,508.09 170.25,508.34 166.12,508.72 162.03,509.12 157.91,509.47 153.78,509.22 149.69,508.88 145.56,508.41 141.44,507.97 137.34,507.88 133.22,507.91 129.12,508.09 125,508.34 120.88,508.91 116.78,509.53 113.09,510.06 112.66,510.12 108.53,510.59 104.44,510.47 100.31,510.16 99.25,510.06 96.188,509.72 92.094,509.16 87.969,508.59 83.844,508 79.75,507.41 75.625,506.84 71.5,506.66 67.406,506.53 63.281,506.31 59.188,506 55.062,505.16 50.938,504.19 49.781,503.88 46.844,503.19 42.719,502.16 38.594,501.19 34.5,500.16 30.375,499.06 26.25,497.91 25.719,497.75 22.156,496.84 18.031,495.66 " stroke="red" stroke-width="0.96875" stroke-linecap="round" stroke-linejoin="round" />
<polyline points="340.78,548.41 341.66,547.53 343.41,547.53 344.28,548.41 344.28,550.16 343.41,551.03 340.78,551.03 340.78,552.78 344.28,552.78 " stroke="red" stroke-width="0.71875" stroke-linecap="round" stroke-linejoin="round" />
<polyline points="348.66,552.78 346.91,550.16 350.41,550.16 350.41,552.78 350.41,547.53 " stroke="red" stroke-width="0.71875" stroke-linecap="round" stroke-linejoin="round" />
<polyline points="356.53,551.91 355.66,552.78 353.91,552.78 353.03,551.91 353.03,548.41 353.91,547.53 355.66,547.53 356.53,548.41 356.53,549.28 355.66,550.16 353.03,550.16 " stroke="red" stroke-width="0.71875" stroke-linecap="round" stroke-linejoin="round" />
<polygon points="360.03,552.78 359.16,551.91 359.16,548.41 360.03,547.53 361.78,547.53 362.66,548.41 362.66,551.91 361.78,552.78 " stroke="red" stroke-width="0.71875" stroke-linejoin="round" />
<polyline points="594,489.66 589.88,486.62 588.59,485.69 585.78,483.62 581.66,480.31 580.94,479.75 577.53,476.78 574,473.84 573.44,473.34 569.31,470 566.66,468 565.19,466.88 561.09,463.88 558.72,462.19 556.97,460.97 552.88,458.12 550.41,456.47 548.75,455.31 544.62,452.59 541.72,450.75 540.53,450.03 536.41,447.53 532.59,445.12 532.28,444.94 528.19,442.44 524.06,440.06 523.03,439.5 519.94,437.88 515.84,435.81 511.81,433.97 511.72,433.91 507.59,432.25 503.5,430.88 499.38,429.72 495.25,428.81 492.5,428.44 491.16,428.28 487.03,428.09 484.03,428.44 482.91,428.59 478.81,429.53 474.69,430.88 470.56,432.62 467.94,433.97 466.47,434.91 462.34,437.66 459.69,439.5 458.25,440.59 454.12,443.69 452.41,445.12 450,447.25 446.34,450.75 445.91,451.25 441.78,455.84 441.25,456.47 437.66,461.66 437.25,462.19 433.56,467.44 433.12,468 429.44,472.97 428.72,473.84 425.31,478.03 423.81,479.75 421.22,482.72 418.22,485.69 417.09,486.81 412.97,490.69 411.81,491.69 408.88,494.28 404.75,497.69 404.66,497.75 400.62,500.94 396.66,503.88 396.53,503.97 392.41,506.69 388.31,509.16 386.62,510.06 384.19,511.31 380.06,513.22 375.97,514.88 372,516.28 371.84,516.34 367.72,517.62 363.62,518.81 360.62,519.59 " stroke="red" stroke-width="0.96875" stroke-linecap="round" stroke-linejoin="round" />
<polyline points="333.69,522.91 330.69,522.84 326.59,522.59 326.47,522.59 322.47,522.16 318.34,521.34 314.25,520.44 310.12,519.47 306.03,518.53 301.91,517.75 297.78,517 294.03,516.28 293.69,516.22 289.56,515.38 285.44,514.38 281.34,513.34 277.22,512.28 273.09,511.22 269,510.25 268.12,510.06 264.88,509.22 260.75,508.19 256.66,507.19 252.53,506.38 248.41,505.66 244.31,504.94 240.19,504.22 238.84,503.88 236.06,503.03 231.97,501.78 227.84,500.59 223.72,499.53 219.62,498.69 215.5,497.91 214.5,497.75 211.41,497.22 207.28,496.59 203.16,496.12 199.06,495.75 194.94,495.38 190.81,495.03 186.72,494.47 182.59,493.91 178.47,493.38 174.38,492.88 170.25,492.72 166.12,492.56 162.03,492.38 157.91,492.09 155.94,491.69 153.78,491.22 149.69,490.34 145.56,489.59 141.44,489.03 137.34,489 133.22,489.06 129.12,489.16 125,489.22 120.88,488.91 116.78,488.5 112.66,488 108.53,487.53 104.44,487.56 100.31,487.59 96.188,487.62 92.094,487.5 87.969,486.78 83.844,485.97 82.531,485.69 79.75,485.06 75.625,484.12 71.5,483.5 67.406,482.94 63.281,482.41 59.188,481.91 55.062,481.47 50.938,481.06 46.844,480.59 42.719,480.09 40.719,479.75 38.594,479.34 34.5,478.53 30.375,477.66 26.25,476.72 22.156,475.88 18.031,475 " stroke="red" stroke-width="0.96875" stroke-linecap="round" stroke-linejoin="round" />
<polyline points="336.66,520.47 337.53,519.59 339.28,519.59 340.16,520.47 340.16,522.22 339.28,523.09 336.66,523.09 336.66,524.84 340.16,524.84 " stroke="red" stroke-width="0.71875" stroke-linecap="round" stroke-linejoin="round" />
<polyline points="342.78,520.47 343.66,519.59 345.41,519.59 346.28,520.47 346.28,522.22 345.41,523.09 342.78,523.09 342.78,524.84 346.28,524.84 " stroke="red" stroke-width="0.71875" stroke-linecap="round" stroke-linejoin="round" />
<polyline points="348.91,523.97 349.78,524.84 351.53,524.84 352.41,523.97 352.41,523.09 348.91,519.59 352.41,519.59 " stroke="red" stroke-width="0.71875" stroke-linecap="round" stroke-linejoin="round" />
<polygon points="355.91,524.84 355.03,523.97 355.03,520.47 355.91,519.59 357.66,519.59 358.53,520.47 358.53,523.97 357.66,524.84 " stroke="red" stroke-width="0.71875" stroke-linejoin="round" />
<polyline points="594,465.88 589.88,463.06 588.62,462.19 585.78,460.19 581.66,457.16 580.72,456.47 577.53,454.28 573.44,451.56 572.19,450.75 569.31,448.91 565.19,446.31 563.25,445.12 561.09,443.78 556.97,441.34 553.72,439.5 552.88,439.03 548.75,436.84 544.62,434.81 542.88,433.97 540.53,432.75 536.41,430.69 532.28,428.56 532.03,428.44 528.19,426.53 524.06,424.69 519.94,423.09 519.62,422.97 515.84,421.56 511.72,420.28 507.59,419.19 503.5,418.31 499.38,417.62 498.81,417.53 495.25,417.09 491.16,416.75 487.03,416.66 482.91,416.91 478.81,417.44 478.25,417.53 474.69,418.19 470.56,419.22 466.47,420.62 462.34,422.38 461.12,422.97 458.25,424.41 454.12,426.72 451.19,428.44 450,429.16 445.91,431.91 443.03,433.97 441.78,434.91 437.66,438.09 435.75,439.5 433.56,441.28 429.44,444.72 428.97,445.12 425.31,448.47 422.91,450.75 421.22,452.5 417.09,456.19 416.75,456.47 412.97,459.47 409.25,462.19 408.88,462.5 404.75,465.28 400.81,468 400.62,468.12 396.53,470.78 392.41,473.28 391.44,473.84 388.31,475.66 384.19,477.78 380.28,479.75 380.06,479.84 375.97,481.78 371.84,483.59 367.72,485.28 366.62,485.69 363.62,486.72 359.5,487.94 355.84,488.88 " stroke="red" stroke-width="0.96875" stroke-linecap="round" stroke-linejoin="round" />
<polyline points="328.91,493.03 326.59,493.09 322.47,493.03 318.34,492.72 314.25,492.25 310.41,491.69 310.12,491.66 306.03,490.94 301.91,490.16 297.78,489.31 293.69,488.44 289.56,487.59 285.44,486.97 281.34,486.41 277.22,485.88 276.03,485.69 273.09,485.25 269,484.28 264.88,483.25 260.75,482.16 256.66,481.06 252.53,479.88 252.03,479.75 248.41,478.72 244.31,477.62 240.19,476.69 236.06,476.03 231.97,475.5 227.84,475.03 223.72,474.66 219.62,474.38 215.5,474.16 211.41,474.03 207.28,473.94 203.16,474.06 199.06,474.16 194.94,474.16 190.81,474.03 189.47,473.84 186.72,473.41 182.59,472.59 178.47,471.72 174.38,470.88 170.25,470.22 166.12,469.59 162.03,469.06 157.91,468.56 154.59,468 153.78,467.84 149.69,467.09 145.56,466.34 141.44,465.66 137.34,465.53 133.22,465.5 129.12,465.53 125,465.47 120.88,464.91 116.78,464.28 112.66,463.69 108.53,463.12 104.44,462.72 100.31,462.28 99.688,462.19 96.188,461.75 92.094,461.09 87.969,460.22 83.844,459.31 79.75,458.44 75.625,457.69 71.5,457.16 67.406,456.75 63.469,456.47 63.281,456.44 59.188,456.22 55.062,456.16 50.938,456.12 46.844,456.09 42.719,456.06 38.594,455.84 34.5,455.59 30.375,455.31 26.25,455 22.156,454.75 18.031,454.47 " stroke="red" stroke-width="0.96875" stroke-linecap="round" stroke-linejoin="round" />
<polyline points="331.88,489.94 332.75,489.06 334.5,489.06 335.38,489.94 335.38,491.69 334.5,492.56 331.88,492.56 331.88,494.31 335.38,494.31 " stroke="red" stroke-width="0.71875" stroke-linecap="round" stroke-linejoin="round" />
<polyline points="338,489.94 338.88,489.06 340.62,489.06 341.5,489.94 341.5,491.69 340.62,492.56 338,492.56 338,494.31 341.5,494.31 " stroke="red" stroke-width="0.71875" stroke-linecap="round" stroke-linejoin="round" />
<polygon points="345,494.31 344.12,493.44 344.12,492.56 345,491.69 346.75,491.69 347.62,492.56 347.62,493.44 346.75,494.31 " stroke="red" stroke-width="0.71875" stroke-linejoin="round" />
<polyline points="345,491.69 344.12,490.81 344.12,489.94 345,489.06 346.75,489.06 347.62,489.94 347.62,490.81 346.75,491.69 " stroke="red" stroke-width="0.71875" stroke-linecap="round" stroke-linejoin="round" />
<polygon points="351.12,494.31 350.25,493.44 350.25,489.94 351.12,489.06 352.88,489.06 353.75,489.94 353.75,493.44 352.88,494.31 " stroke="red" stroke-width="0.71875" stroke-linejoin="round" />
<polyline points="594,436.91 589.88,434.81 588.19,433.97 585.78,432.66 581.66,430.53 577.53,428.5 577.41,428.44 573.44,426.47 569.31,424.5 566.03,422.97 565.19,422.56 561.09,420.62 556.97,418.75 554.19,417.53 552.88,416.94 548.75,415.19 544.62,413.5 541.09,412.16 540.53,411.94 536.41,410.5 532.28,409.25 528.19,408.19 524.06,407.22 522,406.78 519.94,406.34 515.84,405.44 511.72,404.62 507.59,403.91 503.5,403.31 499.38,402.84 495.25,402.5 491.16,402.28 487.03,402.22 482.91,402.34 478.81,402.59 474.69,403.03 470.56,403.66 466.47,404.56 462.34,405.75 459.38,406.78 458.25,407.19 454.12,408.72 450,410.31 445.91,412.12 445.81,412.16 441.78,413.72 437.66,415.5 433.56,417.34 433.12,417.53 429.44,419.16 425.31,421.09 421.56,422.97 421.22,423.16 417.09,425.53 412.97,428.09 412.41,428.44 408.88,430.66 404.75,433.22 403.41,433.97 400.62,435.5 396.53,437.62 392.69,439.5 392.41,439.66 388.31,441.44 384.19,442.94 380.06,444.31 377.41,445.12 375.97,445.53 371.84,446.69 367.72,448.06 363.62,449.47 359.84,450.75 359.5,450.88 355.38,452.22 351.28,453.44 347.16,454.53 344.19,455.22 " stroke="red" stroke-width="0.96875" stroke-linecap="round" stroke-linejoin="round" />
<polyline points="317.22,457.31 314.25,457.28 310.12,457.16 306.03,456.91 301.91,456.53 301.22,456.47 297.78,456.09 293.69,455.66 289.56,455.19 285.44,454.91 281.34,454.59 277.22,454.22 273.09,453.78 269,453.12 264.88,452.41 260.75,451.66 256.66,450.91 255.94,450.75 252.53,450.09 248.41,449.28 244.31,448.47 240.19,447.69 236.06,447.06 231.97,446.5 227.84,446.06 223.72,445.66 219.62,445.19 219.09,445.12 215.5,444.69 211.41,444.19 207.28,443.72 203.16,443.56 199.06,443.47 194.94,443.34 190.81,443.22 186.72,442.69 182.59,442.09 178.47,441.47 174.38,440.88 170.25,440.69 166.12,440.56 162.03,440.38 157.91,440.12 154.25,439.5 153.78,439.44 149.69,438.72 145.56,438.03 141.44,437.44 137.34,437.03 133.22,436.69 129.12,436.38 125,436.06 120.88,435.75 116.78,435.47 112.66,435.12 108.53,434.78 104.44,434.38 100.31,433.97 100.28,433.97 96.188,433.38 92.094,432.69 87.969,431.91 83.844,431.22 79.75,430.62 75.625,430.12 71.5,429.56 67.406,429.03 63.281,428.56 61.781,428.44 59.188,428.19 55.062,428.09 50.938,428.06 46.844,428.16 42.719,428.34 41.094,428.44 38.594,428.59 34.5,428.91 30.375,429.22 26.25,429.56 22.156,429.91 18.031,430.16 " stroke="red" stroke-width="0.96875" stroke-linecap="round" stroke-linejoin="round" />
<polyline points="320.19,455.25 321.06,454.38 322.81,454.38 323.69,455.25 323.69,457 322.81,457.88 320.19,457.88 320.19,459.62 323.69,459.62 " stroke="red" stroke-width="0.71875" stroke-linecap="round" stroke-linejoin="round" />
<polyline points="329.81,458.75 328.94,459.62 327.19,459.62 326.31,458.75 326.31,455.25 327.19,454.38 328.94,454.38 329.81,455.25 329.81,456.12 328.94,457 326.31,457 " stroke="red" stroke-width="0.71875" stroke-linecap="round" stroke-linejoin="round" />
<polyline points="334.19,459.62 332.44,457 335.94,457 335.94,459.62 335.94,454.38 " stroke="red" stroke-width="0.71875" stroke-linecap="round" stroke-linejoin="round" />
<polygon points="339.44,459.62 338.56,458.75 338.56,455.25 339.44,454.38 341.19,454.38 342.06,455.25 342.06,458.75 341.19,459.62 " stroke="red" stroke-width="0.71875" stroke-linejoin="round" />
<polyline points="594,395.84 589.88,396.09 585.78,396 581.66,395.22 577.53,394.25 573.44,393.19 569.31,392.16 565.19,391.53 561.22,390.97 561.09,390.94 556.97,390.34 552.88,389.66 548.75,388.69 544.62,387.66 540.53,386.69 536.41,385.78 536.31,385.78 532.28,385.06 528.19,384.47 524.06,383.91 519.94,383.41 515.84,382.81 511.72,382.28 507.59,381.75 503.5,381.28 499.38,380.88 496.44,380.59 495.25,380.47 491.16,380.09 487.03,379.75 482.91,379.53 478.81,379.38 474.69,379.25 470.56,379.16 466.47,379.06 462.34,379.03 458.25,379.06 454.12,379.22 450,379.56 445.91,380.03 441.78,380.56 441.5,380.59 437.66,381.12 433.56,381.78 429.44,382.44 425.31,383.03 421.22,383.56 417.09,383.62 412.97,383.59 408.88,383.5 404.75,383.41 400.62,383.72 396.53,384.19 392.41,384.78 388.31,385.53 386.81,385.78 384.19,386.19 380.06,386.94 375.97,387.81 371.84,388.81 367.72,389.97 364.53,390.97 363.62,391.25 359.5,392.66 355.38,394.22 351.34,396.22 351.28,396.25 347.16,398.59 343.03,401.31 342.81,401.47 338.94,404.28 335.59,406.78 334.81,407.34 330.69,410.12 327.44,412.16 326.59,412.59 323.59,414.06 " stroke="red" stroke-width="0.96875" stroke-linecap="round" stroke-linejoin="round" />
<polyline points="296.66,420 293.69,420.09 289.56,420.06 285.44,419.75 281.34,419.34 277.22,418.84 273.09,418.28 269,417.69 267.91,417.53 264.88,417.09 260.75,416.56 256.66,416.19 252.53,416.31 248.41,416.53 244.31,416.78 240.19,417.03 236.06,417.38 232.78,417.53 231.97,417.56 227.84,417.59 226.78,417.53 223.72,417.34 219.62,415.94 215.5,414.41 211.41,412.94 208.69,412.16 207.28,411.75 203.16,412.06 202.41,412.16 199.06,412.59 194.94,413.16 190.81,413.56 186.72,412.88 183.34,412.16 182.59,412 178.47,411.09 174.38,410.28 170.25,409.97 166.12,409.69 162.03,409.41 157.91,409.03 153.78,408.28 149.69,407.47 146.25,406.78 145.56,406.66 141.44,405.91 137.34,405.69 133.22,405.53 129.12,405.31 125,404.94 120.88,403.78 116.78,402.44 114.03,401.47 112.66,401 108.53,399.72 104.44,399.22 100.31,398.91 96.188,398.69 92.094,398.47 87.969,397.81 83.844,396.97 80.906,396.22 79.75,395.88 75.625,394.66 71.5,393.78 67.406,393.09 63.281,392.62 59.188,392.38 55.062,392.38 50.938,392.56 46.844,392.97 42.719,393.56 38.594,394.31 34.5,395.19 30.375,396.09 29.812,396.22 26.25,396.94 22.156,397.78 18.031,398.59 " stroke="red" stroke-width="0.96875" stroke-linecap="round" stroke-linejoin="round" />
<polyline points="299.62,416.66 300.5,415.78 302.25,415.78 303.12,416.66 303.12,418.41 302.25,419.28 299.62,419.28 299.62,421.03 303.12,421.03 " stroke="red" stroke-width="0.71875" stroke-linecap="round" stroke-linejoin="round" />
<polyline points="305.75,421.03 309.25,421.03 307.5,415.78 " stroke="red" stroke-width="0.71875" stroke-linecap="round" stroke-linejoin="round" />
<polygon points="312.75,421.03 311.88,420.16 311.88,416.66 312.75,415.78 314.5,415.78 315.38,416.66 315.38,420.16 314.5,421.03 " stroke="red" stroke-width="0.71875" stroke-linejoin="round" />
<polygon points="318.88,421.03 318,420.16 318,416.66 318.88,415.78 320.62,415.78 321.5,416.66 321.5,420.16 320.62,421.03 " stroke="red" stroke-width="0.71875" stroke-linejoin="round" />
<polyline points="594,343.06 590.34,345.31 589.88,345.59 585.78,347.44 581.66,348.78 577.53,349.72 573.44,350.22 571.97,350.28 569.31,350.34 567.59,350.28 565.19,350.12 561.09,349.69 556.97,349.12 552.88,348.5 548.75,347.88 544.62,347.22 540.53,346.56 536.41,345.91 532.28,345.31 528.19,344.72 524.06,344.12 519.94,343.59 515.84,343.19 511.72,342.84 507.59,342.56 503.5,342.34 499.38,342.22 495.25,342.09 491.16,342 487.03,341.84 482.91,341.59 478.81,341.31 474.69,340.94 470.56,340.5 469.72,340.41 466.47,339.94 462.34,339.25 458.25,338.38 454.12,337.31 450,335.69 449.59,335.5 445.91,333.41 441.81,330.66 441.78,330.62 437.66,326.97 436.25,325.81 433.56,323.12 431.66,321 429.44,317.94 428.34,316.22 425.84,311.44 425.31,310.19 424.06,306.72 422.25,302 421.22,299.78 420.09,297.31 417.19,292.62 417.09,292.56 412.97,288.97 411.75,287.97 408.88,286.06 404.75,283.56 404.41,283.34 400.62,281.25 396.53,279.25 395.38,278.75 392.41,277.56 388.31,276.22 384.19,275.09 380.06,274.41 375.97,274.19 371.84,274.41 367.72,275.5 363.62,276.97 359.69,278.75 359.5,278.84 355.38,281.25 352.94,283.34 351.28,285.06 348.91,287.97 347.16,290.78 346.09,292.62 344.56,297.31 343.22,302 343.03,302.69 341.84,306.72 340.31,311.44 338.94,315.56 338.66,316.22 338.62,316.28 " stroke="red" stroke-width="0.96875" stroke-linecap="round" stroke-linejoin="round" />
<polyline points="334.22,325.72 334.16,325.81 330.88,330.66 330.69,330.84 326.59,335.47 326.56,335.5 322.47,339.62 321.62,340.41 318.34,343.41 316.03,345.31 314.25,346.75 310.12,349.53 308.75,350.28 306.03,351.56 301.91,352.66 297.78,353.34 293.69,353.69 289.56,353.81 285.44,353.28 281.34,352.88 277.22,352.94 273.09,353.62 270.47,355.25 269,356.12 264.88,358.78 262.53,360.25 260.75,361.25 256.66,363.53 253.41,365.28 252.53,365.72 248.41,367.81 244.31,369.81 243.16,370.38 240.19,371.81 236.06,373.78 231.97,375.44 231.94,375.47 227.84,376.81 223.72,377.84 219.62,378.28 215.5,378.53 211.41,378.66 203.16,378.66 199.06,378.62 194.94,378.62 190.81,378.69 186.72,379.12 182.59,379.59 178.47,380 174.38,380.22 170.25,379.78 166.12,379.19 162.03,378.53 157.91,377.88 153.78,377.44 149.69,377.06 145.56,376.66 141.44,376.19 137.34,375.62 136.44,375.47 133.22,374.91 129.12,374.09 125,373.16 120.88,371.91 116.78,370.66 115.81,370.38 112.66,369.53 108.53,368.59 104.44,368.19 100.31,367.91 96.188,367.69 92.094,367.5 87.969,367.12 83.844,366.72 79.75,366.28 75.625,365.81 71.562,365.28 71.5,365.28 67.406,364.75 63.281,364.25 59.188,363.78 55.062,363.34 50.938,362.94 46.844,362.56 42.719,362.19 38.594,361.81 34.5,361.47 30.375,361.19 26.25,360.94 22.156,360.78 18.031,360.72 " stroke="red" stroke-width="0.96875" stroke-linecap="round" stroke-linejoin="round" />
<polyline points="326.12,319.25 327,318.38 328.75,318.38 329.62,319.25 329.62,321 328.75,321.88 326.12,321.88 326.12,323.62 329.62,323.62 " stroke="red" stroke-width="0.71875" stroke-linecap="round" stroke-linejoin="round" />
<polyline points="332.25,323.62 335.75,323.62 334,318.38 " stroke="red" stroke-width="0.71875" stroke-linecap="round" stroke-linejoin="round" />
<polyline points="341.88,322.75 341,323.62 339.25,323.62 338.38,322.75 338.38,319.25 339.25,318.38 341,318.38 341.88,319.25 341.88,320.12 341,321 338.38,321 " stroke="red" stroke-width="0.71875" stroke-linecap="round" stroke-linejoin="round" />
<polygon points="345.38,323.62 344.5,322.75 344.5,319.25 345.38,318.38 347.12,318.38 348,319.25 348,322.75 347.12,323.62 " stroke="red" stroke-width="0.71875" stroke-linejoin="round" />
<polyline points="336.91,247 336.88,247.03 334.81,248.62 331.34,251.5 330.69,252.03 326.59,255.56 326.09,256 322.47,258.97 320.75,260.5 318.34,262.62 315.69,265.03 314.25,266.34 310.56,269.59 310.12,269.97 306.03,273.38 305,274.16 301.91,276.47 298.75,278.75 297.78,279.44 293.69,282.22 291.97,283.34 289.56,284.91 285.44,287.59 284.88,287.97 281.34,290.25 277.75,292.62 277.22,292.97 273.09,295.66 271,297.31 269,298.81 265.19,302 264.88,302.25 260.75,305.84 259.81,306.72 256.66,309.53 254.22,311.44 252.53,312.69 248.41,315.62 247.56,316.22 244.31,318.47 240.72,321 240.19,321.38 236.06,324.19 233.62,325.81 231.97,326.88 228.09,329.16 " stroke="red" stroke-width="0.96875" stroke-linecap="round" stroke-linejoin="round" />
<polyline points="202.03,336.47 199.06,337.03 194.94,337.81 190.81,338.66 186.72,339.53 182.59,340.34 182.34,340.41 178.47,341.09 174.38,341.72 170.25,342.12 166.12,342.44 162.03,342.62 157.91,342.78 153.78,342.97 149.69,343.12 145.56,343.22 141.44,343.25 137.34,343.12 133.22,342.94 129.12,342.66 125,342.31 120.88,341.88 116.78,341.41 112.66,340.94 108.53,340.47 107.91,340.41 104.44,340 100.31,339.53 96.188,339.06 92.094,338.62 87.969,338.16 83.844,337.69 79.75,337.28 75.625,336.88 71.5,336.59 67.406,336.31 63.281,336.09 59.188,335.88 55.062,335.72 50.938,335.59 47.469,335.5 46.844,335.5 42.719,335.38 38.594,335.25 34.5,335.12 30.375,335 26.25,334.88 22.156,334.75 18.031,334.66 " stroke="red" stroke-width="0.96875" stroke-linecap="round" stroke-linejoin="round" />
<polyline points="205,332.12 205.88,331.25 207.62,331.25 208.5,332.12 208.5,333.88 207.62,334.75 205,334.75 205,336.5 208.5,336.5 " stroke="red" stroke-width="0.71875" stroke-linecap="round" stroke-linejoin="round" />
<polygon points="212,336.5 211.12,335.62 211.12,334.75 212,333.88 213.75,333.88 214.62,334.75 214.62,335.62 213.75,336.5 " stroke="red" stroke-width="0.71875" stroke-linejoin="round" />
<polyline points="212,333.88 211.12,333 211.12,332.12 212,331.25 213.75,331.25 214.62,332.12 214.62,333 213.75,333.88 " stroke="red" stroke-width="0.71875" stroke-linecap="round" stroke-linejoin="round" />
<polyline points="217.25,335.62 218.12,336.5 219.88,336.5 220.75,335.62 220.75,334.75 217.25,331.25 220.75,331.25 " stroke="red" stroke-width="0.71875" stroke-linecap="round" stroke-linejoin="round" />
<polygon points="224.25,336.5 223.38,335.62 223.38,332.12 224.25,331.25 226,331.25 226.88,332.12 226.88,335.62 226,336.5 " stroke="red" stroke-width="0.71875" stroke-linejoin="round" />
</g>
</svg>
