<?xml version="1.0" encoding="ISO-8859-1" standalone="no"?>
<!DOCTYPE svg PUBLIC "-//W3C//DTD SVG 1.1//EN" "http://www.w3.org/Graphics/SVG/1.1/DTD/svg11.dtd">
<svg version="1.1" baseProfile="full" id="body" width="900px" height="600px" viewBox="0 0.2 1 0.55" preserveAspectRatio="none" xmlns="http://www.w3.org/2000/svg" xmlns:xlink="http://www.w3.org/1999/xlink" xmlns:ev="http://www.w3.org/2001/xml-events">
<title>SVG drawing</title>
<desc>This was produced by version 4.2 of GNU libplot, a free library for exporting 2-D vector graphics.</desc>
<rect id="background" x="0" y="0" width="1" height="1" stroke="none" fill="none"/>
<g id="content" transform="translate(-0.03125,1.1875) scale(1,-1) scale(0.0017361) " xml:space="preserve" stroke="black" stroke-linecap="butt" stroke-linejoin="miter" stroke-miterlimit="10.433" stroke-dasharray="none" stroke-dashoffset="0" stroke-opacity="1" fill="none" fill-rule="even-odd" fill-opacity="1" font-style="normal" font-variant="normal" font-weight="normal" font-stretch="normal" font-size-adjust="none" letter-spacing="normal" word-spacing="normal" text-anchor="start">
<polyline points="358.66,568.66 358.72,568.62 359.5,568.31 363.62,566.81 367.72,565.44 371.84,564.28 375.97,563.31 380.06,562.5 383.06,562.09 " stroke="red" stroke-width="0.96875" stroke-linecap="round" stroke-linejoin="round" />
<polyline points="410,562.16 412.97,562.53 417.09,563.19 421.22,563.94 425.31,564.75 429.44,565.69 433.56,566.81 437.66,568.09 439.06,568.62 439.16,568.66 " stroke="red" stroke-width="0.96875" stroke-linecap="round" stroke-linejoin="round" />
<polyline points="386.03,559.5 386.91,558.62 388.66,558.62 389.53,559.5 389.53,561.25 388.66,562.12 386.03,562.12 386.03,563.88 389.53,563.88 " stroke="red" stroke-width="0.71875" stroke-linecap="round" stroke-linejoin="round" />
<polyline points="392.16,563 393.03,563.88 394.78,563.88 395.66,563 395.66,562.12 392.16,558.62 395.66,558.62 " stroke="red" stroke-width="0.71875" stroke-linecap="round" stroke-linejoin="round" />
<polyline points="398.28,563 399.16,563.88 400.91,563.88 401.78,563 401.78,562.12 398.28,558.62 401.78,558.62 " stroke="red" stroke-width="0.71875" stroke-linecap="round" stroke-linejoin="round" />
<polygon points="405.28,563.88 404.41,563 404.41,559.5 405.28,558.62 407.03,558.62 407.91,559.5 407.91,563 407.03,563.88 " stroke="red" stroke-width="0.71875" stroke-linejoin="round" />
<polyline points="61.875,568.66 61.875,568.62 60.906,561.84 60.375,555.12 60.344,548.47 60.312,541.91 60.188,535.38 59.844,528.97 60.875,522.59 60.875,521 " stroke="red" stroke-width="0.96875" stroke-linecap="round" stroke-linejoin="round" />
<polyline points="59.031,511.56 57.219,510.06 55.062,509.47 50.938,509.62 48.844,510.06 46.844,510.47 42.719,511.66 38.594,512.88 34.5,514.22 30.375,515.66 28.812,516.28 26.25,517.34 22.156,519.41 18.031,521.47 " stroke="red" stroke-width="0.96875" stroke-linecap="round" stroke-linejoin="round" />
<polyline points="50.344,514.53 51.219,513.66 52.969,513.66 53.844,514.53 53.844,516.28 52.969,517.16 50.344,517.16 50.344,518.91 53.844,518.91 " stroke="red" stroke-width="0.71875" stroke-linecap="round" stroke-linejoin="round" />
<polyline points="56.469,518.03 57.344,518.91 59.094,518.91 59.969,518.03 59.969,517.16 56.469,513.66 59.969,513.66 " stroke="red" stroke-width="0.71875" stroke-linecap="round" stroke-linejoin="round" />
<polygon points="63.469,518.91 62.594,518.03 62.594,517.16 63.469,516.28 65.219,516.28 66.094,517.16 66.094,518.03 65.219,518.91 " stroke="red" stroke-width="0.71875" stroke-linejoin="round" />
<polyline points="63.469,516.28 62.594,515.41 62.594,514.53 63.469,513.66 65.219,513.66 66.094,514.53 66.094,515.41 65.219,516.28 " stroke="red" stroke-width="0.71875" stroke-linecap="round" stroke-linejoin="round" />
<polygon points="69.594,518.91 68.719,518.03 68.719,514.53 69.594,513.66 71.344,513.66 72.219,514.53 72.219,518.03 71.344,518.91 " stroke="red" stroke-width="0.71875" stroke-linejoin="round" />
<polyline points="313.31,568.66 313.38,568.62 314.25,568.12 318.34,565.84 322.47,563.69 326.16,561.84 326.59,561.62 330.69,559.62 334.81,557.78 338.94,556.03 341,555.12 343.03,554.16 347.16,552.31 351.28,550.62 355.38,549.16 357.75,548.47 359.5,547.97 363.62,547 367.72,546.19 371.84,545.59 375.97,545.16 380.06,544.88 383.06,544.78 " stroke="red" stroke-width="0.96875" stroke-linecap="round" stroke-linejoin="round" />
<polyline points="410,546.59 412.97,547.03 417.09,547.69 421.22,548.44 421.44,548.47 425.31,549.19 429.44,550.06 433.56,551 437.66,552.06 441.78,553.34 445.91,554.72 446.91,555.12 450,556.28 454.12,557.97 458.25,559.75 462.34,561.56 462.94,561.84 466.47,563.44 470.56,565.34 474.69,567.25 477.66,568.62 477.72,568.66 " stroke="red" stroke-width="0.96875" stroke-linecap="round" stroke-linejoin="round" />
<polyline points="386.03,543.41 386.91,542.53 388.66,542.53 389.53,543.41 389.53,545.16 388.66,546.03 386.03,546.03 386.03,547.78 389.53,547.78 " stroke="red" stroke-width="0.71875" stroke-linecap="round" stroke-linejoin="round" />
<polyline points="392.16,546.91 393.03,547.78 394.78,547.78 395.66,546.91 395.66,546.03 392.16,542.53 395.66,542.53 " stroke="red" stroke-width="0.71875" stroke-linecap="round" stroke-linejoin="round" />
<polygon points="399.16,547.78 398.28,546.91 398.28,546.03 399.16,545.16 400.91,545.16 401.78,546.03 401.78,546.91 400.91,547.78 " stroke="red" stroke-width="0.71875" stroke-linejoin="round" />
<polyline points="399.16,545.16 398.28,544.28 398.28,543.41 399.16,542.53 400.91,542.53 401.78,543.41 401.78,544.28 400.91,545.16 " stroke="red" stroke-width="0.71875" stroke-linecap="round" stroke-linejoin="round" />
<polygon points="405.28,547.78 404.41,546.91 404.41,543.41 405.28,542.53 407.03,542.53 407.91,543.41 407.91,546.91 407.03,547.78 " stroke="red" stroke-width="0.71875" stroke-linejoin="round" />
<polyline points="513.69,568.66 513.62,568.62 511.72,567.59 507.59,565.5 503.5,563.47 500.34,561.84 499.38,561.31 495.25,559.16 491.16,557 487.38,555.12 487.03,554.94 482.91,553.12 478.81,551.38 474.69,549.69 471.59,548.47 470.56,548.06 466.47,546.38 462.34,544.72 458.25,543.12 454.91,541.91 454.12,541.59 450,540.19 445.91,538.84 441.78,537.59 437.66,536.44 433.56,535.41 433.47,535.38 429.44,534.44 425.31,533.53 421.22,532.72 417.09,532.03 412.97,531.41 408.88,530.84 404.75,530.31 400.62,529.72 396.53,529.16 394.97,528.97 392.41,528.66 388.31,528.22 384.19,528 380.06,527.88 375.97,527.81 367.72,527.81 363.62,527.88 359.5,527.97 355.38,528.12 351.28,528.41 347.16,528.75 345.12,528.97 343.03,529.19 338.94,529.69 334.81,530.09 330.69,530.5 326.59,530.88 322.47,531.19 318.34,531.41 314.25,531.56 310.12,531.66 306.03,531.69 301.91,531.66 297.78,531.56 293.69,531.38 289.56,531.16 286.56,530.94 " stroke="red" stroke-width="0.96875" stroke-linecap="round" stroke-linejoin="round" />
<polyline points="259.62,526.56 256.66,525.94 252.53,525.09 248.41,524.25 244.31,523.47 240.19,522.69 239.59,522.59 236.06,521.94 231.97,521.16 227.84,520.38 223.72,519.66 219.62,519.22 215.5,519 211.41,519 207.28,519.19 203.16,519.78 199.06,520.47 194.94,521.12 190.81,521.66 186.72,521.75 182.59,521.69 178.47,521.5 174.38,521.25 170.25,520.81 166.12,520.38 162.03,520 157.91,519.69 153.78,520.12 149.69,520.59 145.56,520.97 141.44,521.03 137.34,519.56 133.22,517.59 130.81,516.28 129.12,515.41 125,513.38 120.88,512.5 116.78,511.91 112.66,511.47 108.53,511.06 104.44,511.25 100.31,510.94 97.031,510.06 96.188,509.84 92.094,507.56 89.656,503.88 87.969,501.47 85.625,497.75 83.844,495.5 80.594,491.69 79.75,490.94 75.625,488.06 71.5,486.84 67.406,486.41 63.281,486.44 59.188,486.88 55.062,487.88 50.938,489.12 46.844,490.66 44.312,491.69 42.719,492.41 38.594,494.16 34.5,496.03 30.875,497.75 30.375,498 26.25,500.16 22.156,502.34 19.25,503.88 18.031,504.53 " stroke="red" stroke-width="0.96875" stroke-linecap="round" stroke-linejoin="round" />
<polyline points="262.59,527.66 263.47,526.78 265.22,526.78 266.09,527.66 266.09,529.41 265.22,530.28 262.59,530.28 262.59,532.03 266.09,532.03 " stroke="red" stroke-width="0.71875" stroke-linecap="round" stroke-linejoin="round" />
<polyline points="268.72,531.16 269.59,532.03 271.34,532.03 272.22,531.16 272.22,530.28 271.34,529.41 270.47,529.41 271.34,529.41 272.22,528.53 272.22,527.66 271.34,526.78 269.59,526.78 268.72,527.66 " stroke="red" stroke-width="0.71875" stroke-linecap="round" stroke-linejoin="round" />
<polyline points="276.59,532.03 274.84,529.41 278.34,529.41 278.34,532.03 278.34,526.78 " stroke="red" stroke-width="0.71875" stroke-linecap="round" stroke-linejoin="round" />
<polygon points="281.84,532.03 280.97,531.16 280.97,527.66 281.84,526.78 283.59,526.78 284.47,527.66 284.47,531.16 283.59,532.03 " stroke="red" stroke-width="0.71875" stroke-linejoin="round" />
<polyline points="552.5,568.66 552.44,568.62 548.75,566.81 544.62,564.72 540.53,562.53 539.22,561.84 536.41,560.28 532.28,557.75 528.19,555.28 527.91,555.12 524.06,552.91 519.94,550.75 515.84,549.06 514.28,548.47 511.72,547.47 507.59,545.88 503.5,544.25 499.38,542.44 498.19,541.91 495.25,540.56 491.16,538.75 487.03,537.03 482.91,535.53 482.5,535.38 478.81,534.06 474.69,532.62 470.56,531.22 466.47,529.72 464.34,528.97 462.34,528.22 458.25,526.75 454.12,525.34 450,524.06 445.91,522.84 444.94,522.59 441.78,521.69 437.66,520.59 433.56,519.62 429.44,518.75 425.31,517.94 421.22,517.19 417.09,516.47 416,516.28 412.97,515.75 408.88,515.03 404.75,514.34 400.62,513.66 396.53,513.03 392.41,512.47 388.31,512.03 384.19,511.81 380.06,511.69 375.97,511.56 371.84,511.44 367.72,511.12 363.62,510.75 359.5,510.34 356.88,510.06 355.38,509.88 351.28,509.34 347.16,508.78 343.03,508.22 338.94,507.72 334.81,507.47 330.69,507.31 326.59,507.12 322.47,506.88 318.34,506.28 314.25,505.56 311.25,504.97 " stroke="red" stroke-width="0.96875" stroke-linecap="round" stroke-linejoin="round" />
<polyline points="285.88,496.88 285.44,496.66 281.34,494 278.31,491.69 277.22,490.81 273.09,487.22 271.25,485.69 269,483.97 264.88,480.75 263.56,479.75 260.75,478.28 256.66,475.97 252.53,474.19 251.53,473.84 248.41,472.84 244.31,471.75 240.19,470.84 236.06,469.53 231.97,468.5 228.66,468 227.84,467.91 223.72,467.81 222.59,468 219.62,468.53 215.5,469.5 211.41,470.5 207.28,471.56 203.16,472.84 200.41,473.84 199.06,474.41 194.94,476.25 190.81,478.12 186.72,479.03 182.59,479.34 178.47,479.16 174.38,478.53 170.25,477.12 166.12,475.5 162.12,473.84 162.03,473.81 157.91,472.31 153.78,471.41 149.69,470.75 145.56,470.28 141.44,470 137.34,470.06 133.22,470.22 129.12,470.44 125,470.66 120.88,470.78 116.78,470.81 112.66,470.75 108.53,470.59 104.44,470.16 100.31,469.62 96.188,469.09 92.094,468.62 87.969,468.22 83.844,468.09 79.75,468.22 75.625,468.56 71.5,469.41 67.406,470.38 63.281,471.47 59.188,472.66 55.125,473.84 55.062,473.84 50.938,475.19 46.844,476.62 42.719,478.19 38.656,479.75 38.594,479.75 34.5,481.5 30.375,483.34 26.25,485.31 25.531,485.69 22.156,487.5 18.031,489.81 " stroke="red" stroke-width="0.96875" stroke-linecap="round" stroke-linejoin="round" />
<polyline points="287.28,499.88 288.16,499 289.91,499 290.78,499.88 290.78,501.62 289.91,502.5 287.28,502.5 287.28,504.25 290.78,504.25 " stroke="red" stroke-width="0.71875" stroke-linecap="round" stroke-linejoin="round" />
<polyline points="295.16,504.25 293.41,501.62 296.91,501.62 296.91,504.25 296.91,499 " stroke="red" stroke-width="0.71875" stroke-linecap="round" stroke-linejoin="round" />
<polygon points="300.41,504.25 299.53,503.38 299.53,499.88 300.41,499 302.16,499 303.03,499.88 303.03,503.38 302.16,504.25 " stroke="red" stroke-width="0.71875" stroke-linejoin="round" />
<polygon points="306.53,504.25 305.66,503.38 305.66,499.88 306.53,499 308.28,499 309.16,499.88 309.16,503.38 308.28,504.25 " stroke="red" stroke-width="0.71875" stroke-linejoin="round" />
<polyline points="594,545.66 589.88,545.94 585.78,546.19 581.66,546.22 577.53,546.12 573.44,545.84 569.31,545.38 565.19,544.53 561.09,543.47 556.97,542.22 556.06,541.91 552.88,540.78 548.75,539.28 544.62,537.72 540.53,536.16 538.56,535.38 536.41,534.59 532.28,533.09 528.19,531.69 524.06,530.38 519.94,529.09 519.5,528.97 515.84,527.72 511.72,526.31 507.59,524.88 503.5,523.44 501.03,522.59 499.38,522.03 495.25,520.66 491.16,519.38 487.03,518.19 482.91,517 480.44,516.28 478.81,515.81 474.69,514.56 470.56,513.31 466.47,512.03 462.34,510.75 460.06,510.06 458.25,509.47 454.12,508.19 450,506.97 445.91,505.81 441.78,504.72 438.34,503.88 437.66,503.69 433.56,502.78 429.44,501.91 425.31,501.03 421.22,500.16 417.09,499.22 412.97,498.34 410.06,497.75 408.88,497.5 404.75,496.66 400.62,495.94 396.53,495.25 392.41,494.62 388.31,494.09 384.19,493.66 380.06,493.22 375.97,492.75 371.84,492.22 368.81,491.69 367.72,491.47 363.62,490.56 359.5,489.62 355.38,488.66 351.28,487.66 347.16,486.69 343.03,485.72 342.88,485.69 338.94,484.69 334.81,483.62 330.69,482.47 326.59,481.16 322.72,479.75 322.47,479.66 319.75,478.56 " stroke="red" stroke-width="0.96875" stroke-linecap="round" stroke-linejoin="round" />
<polyline points="298.31,469.12 297.78,468.88 295.97,468 293.69,466.94 289.56,465.03 285.44,463.38 282.38,462.19 281.34,461.81 277.22,460.28 273.09,458.56 269.94,456.47 269,455.84 264.88,453.12 260.91,450.75 260.75,450.69 256.66,448.69 252.53,447.22 248.41,445.94 245.38,445.12 244.31,444.84 240.19,443.97 236.06,443.59 231.97,443.41 227.84,443.34 223.72,443.31 219.62,443 215.5,442.62 211.41,442.19 207.28,441.72 203.16,441.5 199.06,441.38 194.94,441.31 190.81,441.28 186.72,441.22 182.59,441.19 178.47,441.19 174.38,441.25 170.25,441.47 166.12,441.66 162.03,441.88 157.91,442.06 153.78,442.09 149.69,442.12 145.56,442.22 141.44,442.38 137.34,442.72 133.22,443.12 129.12,443.66 125,444.28 120.94,445.12 120.88,445.12 116.78,446.06 112.66,446.97 108.53,447.75 104.44,448.19 100.31,448.53 96.188,448.91 92.094,449.31 87.969,449.97 84.094,450.75 83.844,450.81 79.75,451.88 75.625,453.09 71.5,454.56 67.406,456.22 66.812,456.47 63.281,457.75 59.188,459.28 55.062,460.69 50.938,462.16 50.781,462.19 46.844,463.59 42.719,465.06 38.594,466.62 35.188,468 34.5,468.28 30.375,469.97 26.25,471.72 22.156,473.66 21.781,473.84 18.031,475.66 " stroke="red" stroke-width="0.96875" stroke-linecap="round" stroke-linejoin="round" />
<polyline points="298.19,472.09 299.06,471.22 300.81,471.22 301.69,472.09 301.69,473.84 300.81,474.72 298.19,474.72 298.19,476.47 301.69,476.47 " stroke="red" stroke-width="0.71875" stroke-linecap="round" stroke-linejoin="round" />
<polyline points="306.06,476.47 304.31,473.84 307.81,473.84 307.81,476.47 307.81,471.22 " stroke="red" stroke-width="0.71875" stroke-linecap="round" stroke-linejoin="round" />
<polyline points="313.94,475.59 313.06,476.47 311.31,476.47 310.44,475.59 310.44,472.09 311.31,471.22 313.06,471.22 313.94,472.09 313.94,472.97 313.06,473.84 310.44,473.84 " stroke="red" stroke-width="0.71875" stroke-linecap="round" stroke-linejoin="round" />
<polygon points="317.44,476.47 316.56,475.59 316.56,472.09 317.44,471.22 319.19,471.22 320.06,472.09 320.06,475.59 319.19,476.47 " stroke="red" stroke-width="0.71875" stroke-linejoin="round" />
<polyline points="594,504.44 589.88,506.5 585.78,508.62 582.72,510.06 581.66,510.53 577.53,512.09 573.44,513.34 569.31,514.16 565.19,514.31 561.09,514.12 556.97,513.72 552.88,513.12 548.75,512.41 544.62,511.56 540.53,510.62 538.31,510.06 536.41,509.56 532.28,508.41 528.19,507.16 524.06,505.84 519.94,504.53 517.88,503.88 515.84,503.25 511.72,502.09 507.59,501 503.5,499.97 499.38,499.19 495.25,498.44 491.62,497.75 491.16,497.66 487.03,496.78 482.91,495.66 478.81,494.47 474.69,493.25 470.56,492.03 469.34,491.69 466.47,490.88 462.34,489.72 458.25,488.62 454.12,487.59 450,486.56 446.38,485.69 445.91,485.56 441.78,484.47 437.66,483.34 433.56,482 429.44,480.62 426.78,479.75 425.31,479.19 421.22,477.78 417.09,476.81 412.97,475.97 408.88,475.22 404.75,474.47 401.59,473.84 400.62,473.62 396.53,472.69 392.41,471.69 388.31,470.66 384.19,469.62 380.06,468.53 377.97,468 375.97,467.41 371.84,466.25 367.72,465 363.62,463.75 359.5,462.47 358.66,462.19 355.38,461.06 351.28,459.66 347.16,458.22 343.03,456.84 341.88,456.47 338.94,455.47 334.81,454.28 330.69,453.12 326.59,451.91 323.59,450.97 " stroke="red" stroke-width="0.96875" stroke-linecap="round" stroke-linejoin="round" />
<polyline points="296.66,442.38 293.69,441.53 289.56,440.38 285.88,439.5 285.44,439.41 281.34,438.38 277.22,437.25 273.09,436.12 269,434.94 265.28,433.97 264.88,433.84 260.75,432.69 256.66,431.53 252.53,430.06 248.41,428.69 247.56,428.44 244.31,427.44 240.19,426.5 236.06,426.59 231.97,426.88 227.84,427.06 223.72,427.09 219.62,425.88 215.5,424.38 211.94,422.97 211.41,422.75 207.28,421.22 203.16,421.28 199.06,421.66 194.94,422.16 190.81,422.62 186.72,422.44 182.59,422.19 178.47,421.94 174.38,421.81 170.25,422.19 166.12,422.69 164.19,422.97 162.03,423.25 157.91,423.81 153.78,424.09 149.69,424.31 145.56,424.56 141.44,424.84 137.34,425.28 133.22,425.81 129.12,426.38 125,427.03 120.88,427.84 118.12,428.44 116.78,428.75 112.66,429.75 108.53,430.81 104.44,432 100.31,433.19 97.562,433.97 96.188,434.28 92.094,435.16 87.969,435.72 83.844,436.28 79.75,436.88 75.625,437.62 71.5,438.66 68.844,439.5 67.406,439.97 63.281,441.53 59.188,443.31 55.656,445.12 55.062,445.41 50.938,447.41 46.844,449.38 43.812,450.75 42.719,451.25 38.594,452.94 34.5,454.69 30.469,456.47 30.375,456.5 26.25,458.16 22.156,459.88 18.031,461.72 " stroke="red" stroke-width="0.96875" stroke-linecap="round" stroke-linejoin="round" />
<polyline points="299.62,444.84 300.5,443.97 302.25,443.97 303.12,444.84 303.12,446.59 302.25,447.47 299.62,447.47 299.62,449.22 303.12,449.22 " stroke="red" stroke-width="0.71875" stroke-linecap="round" stroke-linejoin="round" />
<polyline points="305.75,444.84 306.62,443.97 308.38,443.97 309.25,444.84 309.25,446.59 308.38,447.47 305.75,447.47 305.75,449.22 309.25,449.22 " stroke="red" stroke-width="0.71875" stroke-linecap="round" stroke-linejoin="round" />
<polyline points="311.88,448.34 312.75,449.22 314.5,449.22 315.38,448.34 315.38,447.47 311.88,443.97 315.38,443.97 " stroke="red" stroke-width="0.71875" stroke-linecap="round" stroke-linejoin="round" />
<polygon points="318.88,449.22 318,448.34 318,444.84 318.88,443.97 320.62,443.97 321.5,444.84 321.5,448.34 320.62,449.22 " stroke="red" stroke-width="0.71875" stroke-linejoin="round" />
<polyline points="594,466.41 591.94,468 589.88,469.69 585.78,472.97 584.47,473.84 581.66,475.75 577.53,478.28 574.88,479.75 573.44,480.47 569.31,482.19 565.19,483.19 561.09,483.81 556.97,484.12 552.88,484.22 548.75,484.31 544.62,484.28 540.53,484.03 536.41,483.66 532.28,482.97 528.19,482.19 524.06,481.34 519.94,480.44 516.75,479.75 515.84,479.53 511.72,478.5 507.59,477.44 503.5,476.34 499.38,475.28 495.25,474.22 493.81,473.84 491.16,473.12 487.03,471.97 482.91,470.72 478.81,469.44 474.69,468.12 474.31,468 470.56,466.72 466.47,465.44 462.34,464.06 458.25,462.66 457.03,462.19 454.12,461.09 450,459.31 445.91,457.47 443.66,456.47 441.78,455.72 437.66,454.22 433.56,453.03 429.44,451.91 425.31,450.84 425.09,450.75 421.22,449.72 417.09,448.41 412.97,447 408.88,445.47 408.03,445.12 404.75,443.72 400.62,441.84 396.53,439.84 395.84,439.5 392.41,437.81 388.31,435.72 384.91,433.97 384.19,433.62 380.06,431.88 375.97,430.25 371.84,428.75 370.97,428.44 367.72,427.41 363.62,426.16 359.5,425.03 355.38,424 351.28,423.28 349.22,422.97 347.16,422.66 343.03,422.03 338.94,421.38 334.81,420.41 330.69,419.44 327.72,418.75 " stroke="red" stroke-width="0.96875" stroke-linecap="round" stroke-linejoin="round" />
<polyline points="300.78,414.38 297.78,414.09 293.69,413.72 289.56,413.34 285.44,412.84 281.34,412.34 279.75,412.16 277.22,411.81 273.09,411.25 269,410.66 264.88,410.03 260.75,409.38 256.66,408.69 252.53,407.81 248.41,407.06 246.62,406.78 244.31,406.44 240.19,406 236.06,406.38 232.47,406.78 231.97,406.84 227.84,407.19 223.72,407.12 223.09,406.78 219.62,404.88 215.5,402.59 213.12,401.47 211.41,400.69 207.28,399.38 203.16,399.59 199.06,400.25 194.94,401.25 194.12,401.47 190.81,402.38 186.72,402.88 182.59,403.28 178.47,403.56 174.38,403.84 170.25,404.19 166.12,404.59 162.03,405.03 157.91,405.56 153.78,406 149.69,406.47 147.28,406.78 145.56,407 141.44,407.59 137.34,408.41 133.22,409.25 129.12,410.09 125,410.97 120.88,411.69 118.44,412.16 116.78,412.41 112.66,413.12 108.53,413.91 104.44,414.91 100.31,416 96.188,417.19 95.031,417.53 92.094,418.38 87.969,419.5 83.844,420.53 79.75,421.47 75.625,422.38 72.406,422.97 71.5,423.12 67.406,423.94 63.281,424.91 59.188,426.09 55.062,427.88 53.969,428.44 50.938,429.97 46.844,432.28 44,433.97 42.719,434.66 38.594,436.53 34.5,438.34 31.875,439.5 30.375,440.12 26.25,441.88 22.156,443.75 19.25,445.12 18.031,445.66 " stroke="red" stroke-width="0.96875" stroke-linecap="round" stroke-linejoin="round" />
<polyline points="303.75,414.44 304.62,413.56 306.38,413.56 307.25,414.44 307.25,416.19 306.38,417.06 303.75,417.06 303.75,418.81 307.25,418.81 " stroke="red" stroke-width="0.71875" stroke-linecap="round" stroke-linejoin="round" />
<polyline points="309.88,414.44 310.75,413.56 312.5,413.56 313.38,414.44 313.38,416.19 312.5,417.06 309.88,417.06 309.88,418.81 313.38,418.81 " stroke="red" stroke-width="0.71875" stroke-linecap="round" stroke-linejoin="round" />
<polygon points="316.88,418.81 316,417.94 316,417.06 316.88,416.19 318.62,416.19 319.5,417.06 319.5,417.94 318.62,418.81 " stroke="red" stroke-width="0.71875" stroke-linejoin="round" />
<polyline points="316.88,416.19 316,415.31 316,414.44 316.88,413.56 318.62,413.56 319.5,414.44 319.5,415.31 318.62,416.19 " stroke="red" stroke-width="0.71875" stroke-linecap="round" stroke-linejoin="round" />
<polygon points="323,418.81 322.12,417.94 322.12,414.44 323,413.56 324.75,413.56 325.62,414.44 325.62,417.94 324.75,418.81 " stroke="red" stroke-width="0.71875" stroke-linejoin="round" />
<polyline points="594,432.91 592.53,433.97 589.88,435.72 585.78,438.34 583.66,439.5 581.66,440.62 577.53,442.66 573.44,444.44 571.66,445.12 569.31,446 565.19,447.25 561.09,448.28 556.97,449.12 552.88,449.81 548.75,450.47 546.12,450.75 544.62,450.94 540.53,451.25 536.41,451.41 532.28,451.44 528.19,451.28 524.06,451 521.69,450.75 519.94,450.56 515.84,449.88 511.72,449.03 507.59,448.16 503.5,447.22 499.38,446.34 495.25,445.44 494,445.12 491.16,444.34 487.03,443.19 482.91,442 478.81,440.78 474.69,439.56 474.53,439.5 470.56,438.22 466.47,436.5 462.34,434.78 460.41,433.97 458.25,433.06 454.12,431.47 450,430.19 445.91,428.97 444.16,428.44 441.78,427.69 437.66,426.34 433.56,424.94 429.44,423.53 427.81,422.97 425.31,422.06 421.22,420.53 417.09,418.75 414.38,417.53 412.97,416.91 408.88,415.06 404.75,413.28 402.03,412.16 400.62,411.62 396.53,410.09 392.41,408.72 388.31,407.38 386.34,406.78 384.19,406.16 380.06,404.94 375.97,403.66 371.84,402.38 369.19,401.47 367.72,401 363.62,399.66 359.5,398.34 355.38,397.12 352,396.22 351.28,396.03 347.16,394.97 343.03,393.91 338.94,392.78 334.81,391.44 333.47,390.97 331.84,390.44 " stroke="red" stroke-width="0.96875" stroke-linecap="round" stroke-linejoin="round" />
<polyline points="304.88,383.25 301.91,382.75 297.78,382.16 293.69,381.62 289.56,381.16 285.44,380.91 281.34,380.75 277.22,380.69 273.09,380.66 271.84,380.59 269,380.5 264.88,380.38 260.75,380.25 256.66,380.12 252.53,380.09 248.41,380.06 244.31,379.97 240.19,379.84 236.06,379.62 231.97,379.38 227.84,379.09 223.72,378.78 219.62,378.22 215.5,377.69 211.41,377.19 207.28,376.75 203.16,376.47 199.06,376.31 194.94,376.28 190.81,376.38 186.72,376.94 182.59,377.69 178.47,378.5 174.38,379.34 170.25,379.41 166.12,379.34 162.03,379.25 157.91,379.19 153.78,379.53 149.69,380.03 145.88,380.59 145.56,380.62 141.44,381.34 137.34,382.28 133.22,383.47 129.12,384.91 126.91,385.78 125,386.47 120.88,387.62 116.78,388.69 112.66,389.72 108.53,390.75 107.97,390.97 104.44,392.22 100.31,393.75 96.188,395.34 93.906,396.22 92.094,396.84 87.969,398.12 83.844,399.5 79.75,400.97 78.312,401.47 75.625,402.41 71.5,403.59 67.406,404.75 63.281,405.88 60.125,406.78 59.188,407.03 55.062,408.41 50.938,409.97 46.844,411.75 46.031,412.16 42.719,413.69 38.594,415.78 35.312,417.53 34.5,417.97 30.375,420.06 26.25,422.19 24.781,422.97 22.156,424.28 18.031,426.34 " stroke="red" stroke-width="0.96875" stroke-linecap="round" stroke-linejoin="round" />
<polyline points="307.84,384.59 308.72,383.72 310.47,383.72 311.34,384.59 311.34,386.34 310.47,387.22 307.84,387.22 307.84,388.97 311.34,388.97 " stroke="red" stroke-width="0.71875" stroke-linecap="round" stroke-linejoin="round" />
<polyline points="317.47,388.09 316.59,388.97 314.84,388.97 313.97,388.09 313.97,384.59 314.84,383.72 316.59,383.72 317.47,384.59 317.47,385.47 316.59,386.34 313.97,386.34 " stroke="red" stroke-width="0.71875" stroke-linecap="round" stroke-linejoin="round" />
<polyline points="321.84,388.97 320.09,386.34 323.59,386.34 323.59,388.97 323.59,383.72 " stroke="red" stroke-width="0.71875" stroke-linecap="round" stroke-linejoin="round" />
<polygon points="327.09,388.97 326.22,388.09 326.22,384.59 327.09,383.72 328.84,383.72 329.72,384.59 329.72,388.09 328.84,388.97 " stroke="red" stroke-width="0.71875" stroke-linejoin="round" />
<polyline points="594,393.94 589.88,395.88 589.22,396.22 585.78,397.81 581.66,399.69 577.56,401.47 577.53,401.5 573.44,403.09 569.31,404.56 565.19,406.03 562.78,406.78 561.09,407.31 556.97,408.38 552.88,409.25 548.75,409.88 544.62,410.28 540.53,410.53 536.41,410.53 532.28,410.28 528.19,409.84 524.06,409.25 519.94,408.59 515.84,407.84 511.72,407.09 510.12,406.78 507.59,406.31 503.5,405.53 499.38,404.75 495.25,403.97 491.16,403.12 487.03,402.25 483.94,401.47 482.91,401.22 478.81,400.12 474.69,399.06 470.56,398.09 466.47,397.72 462.34,397.41 458.25,397.03 454.12,396.53 452.88,396.22 450,395.41 445.91,394.16 441.78,392.94 437.66,391.78 434.44,390.97 433.56,390.75 429.44,389.75 425.31,388.78 421.22,387.84 417.09,387 412.97,386.16 411.06,385.78 408.88,385.31 404.75,384.44 400.62,383.59 396.53,382.72 392.41,381.81 388.31,380.84 387.47,380.59 384.19,379.69 380.06,378.53 375.97,377.41 371.84,376.31 368.62,375.47 367.72,375.22 363.62,374.09 359.5,372.97 355.38,371.84 351.28,370.78 349.59,370.38 347.16,369.66 343.03,368.5 338.94,367.34 334.81,366.25 331.19,365.28 330.69,365.16 326.59,364.09 322.47,363.09 319.5,362.34 " stroke="red" stroke-width="0.96875" stroke-linecap="round" stroke-linejoin="round" />
<polyline points="292.53,356.12 289.56,355.59 287.5,355.25 285.44,354.91 281.34,354.22 277.22,353.5 273.09,352.81 269,352.06 264.88,351.31 260.75,350.56 259.09,350.28 256.66,349.88 252.53,349.41 248.41,349 244.31,348.66 240.19,348.34 236.06,348.06 231.97,347.78 227.84,347.5 223.72,347.25 219.62,346.91 215.5,346.53 211.41,346.16 207.28,345.75 203.53,345.31 203.16,345.28 199.06,344.84 194.94,344.47 190.81,344.19 186.72,344.41 182.59,344.81 178.78,345.31 178.47,345.38 174.38,345.94 170.25,346.19 166.12,346.47 162.03,346.81 157.91,347.22 153.78,348 149.69,348.84 145.56,349.75 143.22,350.28 141.44,350.59 137.34,351.28 133.22,351.94 129.12,352.59 125,353.31 120.88,354.16 116.78,355.19 116.59,355.25 112.66,356.41 108.53,357.84 104.44,359.25 101.66,360.25 100.31,360.72 96.188,362.22 92.094,363.78 88.656,365.28 87.969,365.59 83.844,367.5 79.75,369.44 77.812,370.38 75.625,371.47 71.5,373.56 67.812,375.47 67.406,375.66 63.281,377.75 59.188,379.84 57.656,380.59 55.062,381.81 50.938,383.75 46.844,385.72 46.719,385.78 42.719,387.69 38.594,390.03 37.062,390.97 34.5,392.59 30.375,395.25 28.938,396.22 26.25,397.91 22.156,400.38 20.375,401.47 18.031,402.88 " stroke="red" stroke-width="0.96875" stroke-linecap="round" stroke-linejoin="round" />
<polyline points="295.53,357.25 296.41,356.38 298.16,356.38 299.03,357.25 299.03,359 298.16,359.88 295.53,359.88 295.53,361.62 299.03,361.62 " stroke="red" stroke-width="0.71875" stroke-linecap="round" stroke-linejoin="round" />
<polyline points="301.66,361.62 305.16,361.62 303.41,356.38 " stroke="red" stroke-width="0.71875" stroke-linecap="round" stroke-linejoin="round" />
<polygon points="308.66,361.62 307.78,360.75 307.78,357.25 308.66,356.38 310.41,356.38 311.28,357.25 311.28,360.75 310.41,361.62 " stroke="red" stroke-width="0.71875" stroke-linejoin="round" />
<polygon points="314.78,361.62 313.91,360.75 313.91,357.25 314.78,356.38 316.53,356.38 317.41,357.25 317.41,360.75 316.53,361.62 " stroke="red" stroke-width="0.71875" stroke-linejoin="round" />
<polyline points="594,326.84 589.88,327.5 585.78,328.16 581.66,329.06 577.53,329.97 573.97,330.66 573.44,330.75 569.31,331.47 565.19,331.75 561.09,331.78 556.97,331.47 552.88,330.69 552.72,330.66 548.75,329.62 544.62,328.34 540.53,326.84 537.97,325.81 536.41,325.19 532.28,322.84 529.47,321 528.19,320.12 524.06,317.34 522.38,316.22 519.94,314.69 515.84,313.22 511.72,311.97 509.75,311.44 507.59,310.97 503.5,310.03 499.38,308.22 496.41,306.72 495.25,306.16 491.16,304.16 487.03,302.31 483.78,302 482.91,301.91 481.91,302 478.81,302.28 474.69,303.38 470.56,305.12 467.81,306.72 466.47,307.53 462.34,310.56 461.28,311.44 458.25,314.56 456.91,316.22 454.12,320.03 453.38,321 450,324.62 448.75,325.81 445.91,327.97 441.78,330.5 441.5,330.66 437.66,332.66 433.56,335.03 432.56,335.5 429.44,336.84 425.31,338.19 421.22,339.22 417.09,339.84 412.97,340.34 412.22,340.41 408.88,340.69 404.75,340.97 400.62,341.22 396.53,341.44 392.41,341.59 388.31,341.66 384.19,341.72 380.06,341.69 375.97,341.59 371.84,341.41 367.72,341.06 363.62,340.66 361.41,340.41 359.5,340.16 355.38,339.59 351.28,338.91 347.16,338.19 343.03,337.5 338.94,336.78 334.81,336.03 332.06,335.5 330.69,335.25 326.59,334.41 322.47,333.56 319.5,333.09 " stroke="red" stroke-width="0.96875" stroke-linecap="round" stroke-linejoin="round" />
<polyline points="292.53,328.91 289.56,328.47 285.44,327.84 281.34,327.25 277.22,326.62 273.09,326 272.06,325.81 269,325.25 264.88,324.5 260.75,323.78 256.66,323.06 252.53,322.47 248.41,321.94 244.31,321.44 240.72,321 240.19,320.94 236.06,320.44 231.97,319.84 227.84,319.19 223.72,318.34 219.62,317.38 215.5,316.38 214.88,316.22 211.41,315.34 207.28,314.34 203.16,313.25 199.06,312.22 195.81,311.44 194.94,311.22 190.81,310.25 186.72,309.5 182.59,308.81 178.47,308.22 174.38,307.59 170.25,306.97 168.81,306.72 166.12,306.22 162.03,305.34 157.91,304.38 153.78,303.06 150.12,302 149.69,301.84 145.56,300.81 141.44,299.97 137.34,299.38 133.22,298.94 129.12,298.66 125,298.69 120.88,299.12 116.78,300.31 113.62,302 112.66,302.69 108.97,306.72 108.53,307.28 106.12,311.44 104.44,314.03 102.94,316.22 100.31,319.12 98.531,321 96.188,322.84 92.219,325.81 92.094,325.88 87.969,328.59 85.031,330.66 83.844,331.31 79.75,333.78 77.094,335.5 75.625,336.38 71.5,338.88 69.156,340.41 67.406,341.44 63.281,343.97 61.156,345.31 59.188,346.5 55.062,348.84 52.656,350.28 50.938,351.16 46.844,353.34 43.438,355.25 42.719,355.62 38.594,357.84 34.5,360.22 34.406,360.25 30.375,362.44 26.25,364.72 25.094,365.28 22.156,366.59 18.031,368.34 " stroke="red" stroke-width="0.96875" stroke-linecap="round" stroke-linejoin="round" />
<polyline points="295.53,329.31 296.41,328.44 298.16,328.44 299.03,329.31 299.03,331.06 298.16,331.94 295.53,331.94 295.53,333.69 299.03,333.69 " stroke="red" stroke-width="0.71875" stroke-linecap="round" stroke-linejoin="round" />
<polyline points="301.66,333.69 305.16,333.69 303.41,328.44 " stroke="red" stroke-width="0.71875" stroke-linecap="round" stroke-linejoin="round" />
<polyline points="311.28,332.81 310.41,333.69 308.66,333.69 307.78,332.81 307.78,329.31 308.66,328.44 310.41,328.44 311.28,329.31 311.28,330.19 310.41,331.06 307.78,331.06 " stroke="red" stroke-width="0.71875" stroke-linecap="round" stroke-linejoin="round" />
<polygon points="314.78,333.69 313.91,332.81 313.91,329.31 314.78,328.44 316.53,328.44 317.41,329.31 317.41,332.81 316.53,333.69 " stroke="red" stroke-width="0.71875" stroke-linejoin="round" />
<polyline points="594,252.75 589.88,252.09 586.78,251.5 585.78,251.31 581.66,250.41 578.69,249.69 " stroke="red" stroke-width="0.96875" stroke-linecap="round" stroke-linejoin="round" />
<polyline points="554.69,247 554.69,248.38 558.19,248.38 " stroke="red" stroke-width="0.71875" stroke-linecap="round" stroke-linejoin="round" />
<polyline points="561.69,248.38 560.81,247.5 560.81,247 " stroke="red" stroke-width="0.71875" stroke-linecap="round" stroke-linejoin="round" />
<polyline points="564.31,247 564.31,247.5 563.44,248.38 561.69,248.38 " stroke="red" stroke-width="0.71875" stroke-linecap="round" stroke-linejoin="round" />
<polyline points="566.94,247.5 567.81,248.38 569.56,248.38 570.44,247.5 570.44,247 " stroke="red" stroke-width="0.71875" stroke-linecap="round" stroke-linejoin="round" />
<polyline points="573.94,248.38 573.06,247.5 573.06,247 " stroke="red" stroke-width="0.71875" stroke-linecap="round" stroke-linejoin="round" />
<polyline points="576.56,247 576.56,247.5 575.69,248.38 573.94,248.38 " stroke="red" stroke-width="0.71875" stroke-linecap="round" stroke-linejoin="round" />
<polyline points="48.781,247 48.75,247.03 46.844,248.34 43.094,251.44 " stroke="red" stroke-width="0.96875" stroke-linecap="round" stroke-linejoin="round" />
<polyline points="33.594,260.88 30.375,263.81 29.062,265.03 26.25,267.47 23.531,269.59 22.156,270.69 18.125,274.16 18.031,274.22 " stroke="red" stroke-width="0.96875" stroke-linecap="round" stroke-linejoin="round" />
<polyline points="28.094,254.41 28.969,253.53 30.719,253.53 31.594,254.41 31.594,256.16 30.719,257.03 28.094,257.03 28.094,258.78 31.594,258.78 " stroke="red" stroke-width="0.71875" stroke-linecap="round" stroke-linejoin="round" />
<polygon points="35.094,258.78 34.219,257.91 34.219,257.03 35.094,256.16 36.844,256.16 37.719,257.03 37.719,257.91 36.844,258.78 " stroke="red" stroke-width="0.71875" stroke-linejoin="round" />
<polyline points="35.094,256.16 34.219,255.28 34.219,254.41 35.094,253.53 36.844,253.53 37.719,254.41 37.719,255.28 36.844,256.16 " stroke="red" stroke-width="0.71875" stroke-linecap="round" stroke-linejoin="round" />
<polyline points="40.344,257.91 41.219,258.78 42.969,258.78 43.844,257.91 43.844,257.03 40.344,253.53 43.844,253.53 " stroke="red" stroke-width="0.71875" stroke-linecap="round" stroke-linejoin="round" />
<polygon points="47.344,258.78 46.469,257.91 46.469,254.41 47.344,253.53 49.094,253.53 49.969,254.41 49.969,257.91 49.094,258.78 " stroke="red" stroke-width="0.71875" stroke-linejoin="round" />
<polyline points="189.28,247 189.34,247.03 190.81,247.75 194.94,248.91 199.06,249.97 203.16,251.16 204.16,251.5 207.28,252.69 211.41,255.53 212.03,256 215.5,258.62 218.06,260.5 219.62,261.56 223.72,264.19 225.25,265.03 227.84,266.41 231.97,268.41 234.59,269.59 236.06,270.22 240.19,271.69 244.31,272.5 248.41,273.06 252.53,273.44 256.66,273.72 260.75,274.12 260.97,274.16 264.88,274.62 269,275.16 273.09,275.69 277.22,276.22 281.34,276.72 285.44,277.19 289.56,277.66 292.53,278.16 " stroke="red" stroke-width="0.96875" stroke-linecap="round" stroke-linejoin="round" />
<polyline points="319.5,280.56 322.47,280.31 326.59,279.75 330.69,279.03 332,278.75 334.81,278.06 338.94,276.88 343.03,275.47 346.5,274.16 347.16,273.88 351.28,271.91 355.38,269.72 355.62,269.59 359.5,267.16 362.78,265.03 363.62,264.5 367.72,261.81 369.75,260.5 371.84,259.22 375.97,256.72 377.19,256 380.06,254.41 384.19,252.19 385.44,251.5 388.31,250.03 392.41,247.97 394.44,247.03 394.5,247 " stroke="red" stroke-width="0.96875" stroke-linecap="round" stroke-linejoin="round" />
<polyline points="295.53,278.75 296.41,277.88 298.16,277.88 299.03,278.75 299.03,280.5 298.16,281.38 295.53,281.38 295.53,283.12 299.03,283.12 " stroke="red" stroke-width="0.71875" stroke-linecap="round" stroke-linejoin="round" />
<polygon points="302.53,283.12 301.66,282.25 301.66,281.38 302.53,280.5 304.28,280.5 305.16,281.38 305.16,282.25 304.28,283.12 " stroke="red" stroke-width="0.71875" stroke-linejoin="round" />
<polyline points="302.53,280.5 301.66,279.62 301.66,278.75 302.53,277.88 304.28,277.88 305.16,278.75 305.16,279.62 304.28,280.5 " stroke="red" stroke-width="0.71875" stroke-linecap="round" stroke-linejoin="round" />
<polyline points="307.78,282.25 308.66,283.12 310.41,283.12 311.28,282.25 311.28,281.38 307.78,277.88 311.28,277.88 " stroke="red" stroke-width="0.71875" stroke-linecap="round" stroke-linejoin="round" />
<polygon points="314.78,283.12 313.91,282.25 313.91,278.75 314.78,277.88 316.53,277.88 317.41,278.75 317.41,282.25 316.53,283.12 " stroke="red" stroke-width="0.71875" stroke-linejoin="round" />
</g>
</svg>
