<?xml version="1.0" encoding="ISO-8859-1" standalone="no"?>
<!DOCTYPE svg PUBLIC "-//W3C//DTD SVG 1.1//EN" "http://www.w3.org/Graphics/SVG/1.1/DTD/svg11.dtd">
<svg version="1.1" baseProfile="full" id="body" width="900px" height="600px" viewBox="0 0.2 1 0.55" preserveAspectRatio="none" xmlns="http://www.w3.org/2000/svg" xmlns:xlink="http://www.w3.org/1999/xlink" xmlns:ev="http://www.w3.org/2001/xml-events">
<title>SVG drawing</title>
<desc>This was produced by version 4.2 of GNU libplot, a free library for exporting 2-D vector graphics.</desc>
<rect id="background" x="0" y="0" width="1" height="1" stroke="none" fill="none"/>
<g id="content" transform="translate(-0.03125,1.1875) scale(1,-1) scale(0.0017361) " xml:space="preserve" stroke="black" stroke-linecap="butt" stroke-linejoin="miter" stroke-miterlimit="10.433" stroke-dasharray="none" stroke-dashoffset="0" stroke-opacity="1" fill="none" fill-rule="even-odd" fill-opacity="1" font-style="normal" font-variant="normal" font-weight="normal" font-stretch="normal" font-size-adjust="none" letter-spacing="normal" word-spacing="normal" text-anchor="start">
<polyline points="460.06,567.5 460.94,566.62 462.69,566.62 463.56,567.5 463.56,568.66 " stroke="red" stroke-width="0.71875" stroke-linecap="round" stroke-linejoin="round" />
<polyline points="468.22,568.66 466.19,566.62 469.69,566.62 " stroke="red" stroke-width="0.71875" stroke-linecap="round" stroke-linejoin="round" />
<polyline points="474.34,568.66 472.31,566.62 475.81,566.62 " stroke="red" stroke-width="0.71875" stroke-linecap="round" stroke-linejoin="round" />
<polyline points="478.44,568.66 478.44,567.5 479.31,566.62 481.06,566.62 481.94,567.5 481.94,568.66 " stroke="red" stroke-width="0.71875" stroke-linecap="round" stroke-linejoin="round" />
<polyline points="92.531,568.66 92.469,568.62 92.094,568.38 87.969,564.91 85.031,561.84 83.844,560.38 80.344,555.12 80.031,548.47 79.75,546.84 78.781,541.91 78.219,540.84 " stroke="red" stroke-width="0.96875" stroke-linecap="round" stroke-linejoin="round" />
<polyline points="62.156,531.75 59.188,531.41 55.062,530.16 51.656,528.97 50.938,528.78 46.844,527.72 42.719,526.75 38.594,526.28 34.5,525.91 30.375,525.69 26.25,525.5 22.156,525.47 18.031,525.38 " stroke="red" stroke-width="0.96875" stroke-linecap="round" stroke-linejoin="round" />
<polyline points="65.125,534.38 66,533.5 67.75,533.5 68.625,534.38 68.625,536.12 67.75,537 65.125,537 65.125,538.75 68.625,538.75 " stroke="red" stroke-width="0.71875" stroke-linecap="round" stroke-linejoin="round" />
<polyline points="71.25,537.88 72.125,538.75 73.875,538.75 74.75,537.88 74.75,537 71.25,533.5 74.75,533.5 " stroke="red" stroke-width="0.71875" stroke-linecap="round" stroke-linejoin="round" />
<polygon points="78.25,538.75 77.375,537.88 77.375,537 78.25,536.12 80,536.12 80.875,537 80.875,537.88 80,538.75 " stroke="red" stroke-width="0.71875" stroke-linejoin="round" />
<polyline points="78.25,536.12 77.375,535.25 77.375,534.38 78.25,533.5 80,533.5 80.875,534.38 80.875,535.25 80,536.12 " stroke="red" stroke-width="0.71875" stroke-linecap="round" stroke-linejoin="round" />
<polygon points="84.375,538.75 83.5,537.88 83.5,534.38 84.375,533.5 86.125,533.5 87,534.38 87,537.88 86.125,538.75 " stroke="red" stroke-width="0.71875" stroke-linejoin="round" />
<polyline points="425.53,568.66 425.53,568.62 426.5,561.84 427.69,555.12 428.94,548.47 429.44,546.47 430.69,541.91 433.19,535.38 433.56,534.62 436.91,528.97 437.66,527.97 441.78,524.34 445.19,522.59 445.91,522.31 448.88,521.78 " stroke="red" stroke-width="0.96875" stroke-linecap="round" stroke-linejoin="round" />
<polyline points="470.28,528.91 470.34,528.97 470.56,529.12 474.69,532.66 477.59,535.38 478.81,536.56 482.91,540.88 483.81,541.91 487.03,545.56 489.38,548.47 491.16,550.66 494.69,555.12 495.25,555.84 499.38,561.09 499.97,561.84 503.5,566.22 505.5,568.62 505.53,568.66 " stroke="red" stroke-width="0.96875" stroke-linecap="round" stroke-linejoin="round" />
<polyline points="451.84,522.44 452.72,521.56 454.47,521.56 455.34,522.44 455.34,524.19 454.47,525.06 451.84,525.06 451.84,526.81 455.34,526.81 " stroke="red" stroke-width="0.71875" stroke-linecap="round" stroke-linejoin="round" />
<polyline points="457.97,525.94 458.84,526.81 460.59,526.81 461.47,525.94 461.47,525.06 457.97,521.56 461.47,521.56 " stroke="red" stroke-width="0.71875" stroke-linecap="round" stroke-linejoin="round" />
<polygon points="464.97,526.81 464.09,525.94 464.09,525.06 464.97,524.19 466.72,524.19 467.59,525.06 467.59,525.94 466.72,526.81 " stroke="red" stroke-width="0.71875" stroke-linejoin="round" />
<polyline points="464.97,524.19 464.09,523.31 464.09,522.44 464.97,521.56 466.72,521.56 467.59,522.44 467.59,523.31 466.72,524.19 " stroke="red" stroke-width="0.71875" stroke-linecap="round" stroke-linejoin="round" />
<polygon points="471.09,526.81 470.22,525.94 470.22,522.44 471.09,521.56 472.84,521.56 473.72,522.44 473.72,525.94 472.84,526.81 " stroke="red" stroke-width="0.71875" stroke-linejoin="round" />
<polyline points="156.84,568.66 156.78,568.62 153.78,567.25 149.69,565.22 145.56,562.88 143.91,561.84 141.44,560.25 137.34,557.16 134.69,555.12 133.22,553.97 129.12,551.12 125,548.78 124,548.47 120.88,547.62 116.78,546.69 112.66,545.62 108.53,544.12 106.09,541.91 104.44,540.34 104.25,540.12 " stroke="red" stroke-width="0.96875" stroke-linecap="round" stroke-linejoin="round" />
<polyline points="97.531,530.66 96.438,528.97 96.188,528.72 92.094,524.69 88.594,522.59 87.969,522.28 83.844,520.75 79.75,519.66 75.625,518.81 71.5,517.84 67.406,516.78 65.531,516.28 63.281,515.69 59.188,514.47 55.062,513.28 50.938,512.19 46.844,511.19 42.719,510.31 41.188,510.06 38.594,509.62 34.5,509.06 30.375,508.59 26.25,508.22 22.156,508.06 18.031,507.97 " stroke="red" stroke-width="0.96875" stroke-linecap="round" stroke-linejoin="round" />
<polyline points="90.156,533.62 91.031,532.75 92.781,532.75 93.656,533.62 93.656,535.38 92.781,536.25 90.156,536.25 90.156,538 93.656,538 " stroke="red" stroke-width="0.71875" stroke-linecap="round" stroke-linejoin="round" />
<polyline points="96.281,537.12 97.156,538 98.906,538 99.781,537.12 99.781,536.25 98.906,535.38 98.031,535.38 98.906,535.38 99.781,534.5 99.781,533.62 98.906,532.75 97.156,532.75 96.281,533.62 " stroke="red" stroke-width="0.71875" stroke-linecap="round" stroke-linejoin="round" />
<polyline points="104.16,538 102.41,535.38 105.91,535.38 105.91,538 105.91,532.75 " stroke="red" stroke-width="0.71875" stroke-linecap="round" stroke-linejoin="round" />
<polygon points="109.41,538 108.53,537.12 108.53,533.62 109.41,532.75 111.16,532.75 112.03,533.62 112.03,537.12 111.16,538 " stroke="red" stroke-width="0.71875" stroke-linejoin="round" />
<polyline points="396.22,568.66 396.22,568.62 396.53,567.62 398.19,561.84 399.97,555.12 400.62,552 401.34,548.47 402.78,541.91 404.47,535.38 404.75,534.56 406.69,528.97 408.88,525.16 410.44,522.59 412.97,519.22 415.31,516.28 417.09,514.38 421.22,510.09 421.25,510.06 425.31,505.69 427.16,503.88 429.44,502 433.56,499.38 437.19,497.75 437.66,497.56 441.78,497.16 444.75,497.19 " stroke="red" stroke-width="0.96875" stroke-linecap="round" stroke-linejoin="round" />
<polyline points="468.94,504.09 470.56,505.09 474.69,508.25 476.81,510.06 478.81,511.78 482.91,515.69 483.53,516.28 487.03,519.94 489.41,522.59 491.16,524.62 494.72,528.97 495.25,529.59 499.38,534.78 499.88,535.38 503.5,540 505.06,541.91 507.59,544.97 510.56,548.47 511.72,549.81 515.84,554.66 516.22,555.12 519.94,559.5 521.94,561.84 524.06,564.31 527.91,568.62 527.94,568.66 " stroke="red" stroke-width="0.96875" stroke-linecap="round" stroke-linejoin="round" />
<polyline points="447.75,497.62 448.62,496.75 450.38,496.75 451.25,497.62 451.25,499.38 450.38,500.25 447.75,500.25 447.75,502 451.25,502 " stroke="red" stroke-width="0.71875" stroke-linecap="round" stroke-linejoin="round" />
<polyline points="453.88,501.12 454.75,502 456.5,502 457.38,501.12 457.38,500.25 456.5,499.38 455.62,499.38 456.5,499.38 457.38,498.5 457.38,497.62 456.5,496.75 454.75,496.75 453.88,497.62 " stroke="red" stroke-width="0.71875" stroke-linecap="round" stroke-linejoin="round" />
<polyline points="461.75,502 460,499.38 463.5,499.38 463.5,502 463.5,496.75 " stroke="red" stroke-width="0.71875" stroke-linecap="round" stroke-linejoin="round" />
<polygon points="467,502 466.12,501.12 466.12,497.62 467,496.75 468.75,496.75 469.62,497.62 469.62,501.12 468.75,502 " stroke="red" stroke-width="0.71875" stroke-linejoin="round" />
<polyline points="192.38,568.66 192.34,568.62 190.81,567.56 186.72,565.16 182.59,562.81 180.81,561.84 178.47,560.56 174.38,558.34 170.25,556.09 168.41,555.12 166.12,554.09 162.03,552.28 157.91,550.41 154.84,548.47 153.78,547.75 149.69,544.38 147.22,541.91 145.56,540.12 141.5,535.38 141.44,535.31 137.34,532.59 134.34,531.12 " stroke="red" stroke-width="0.96875" stroke-linecap="round" stroke-linejoin="round" />
<polyline points="107.41,523.16 106.75,522.59 104.44,520.66 100.31,517.03 99.469,516.28 96.188,513.75 92.094,511.06 88.312,510.06 87.969,509.97 83.844,509.28 79.75,508.75 75.625,508.25 71.5,506.91 67.406,505.31 64.062,503.88 63.281,503.5 59.188,501.72 55.062,500.56 50.938,499.56 46.844,498.72 42.719,497.94 41.562,497.75 38.594,497.25 34.5,496.66 30.375,496.16 26.25,495.75 22.156,495.62 18.031,495.5 " stroke="red" stroke-width="0.96875" stroke-linecap="round" stroke-linejoin="round" />
<polyline points="110.38,525.81 111.25,524.94 113,524.94 113.88,525.81 113.88,527.56 113,528.44 110.38,528.44 110.38,530.19 113.88,530.19 " stroke="red" stroke-width="0.71875" stroke-linecap="round" stroke-linejoin="round" />
<polyline points="118.25,530.19 116.5,527.56 120,527.56 120,530.19 120,524.94 " stroke="red" stroke-width="0.71875" stroke-linecap="round" stroke-linejoin="round" />
<polygon points="123.5,530.19 122.62,529.31 122.62,525.81 123.5,524.94 125.25,524.94 126.12,525.81 126.12,529.31 125.25,530.19 " stroke="red" stroke-width="0.71875" stroke-linejoin="round" />
<polygon points="129.62,530.19 128.75,529.31 128.75,525.81 129.62,524.94 131.38,524.94 132.25,525.81 132.25,529.31 131.38,530.19 " stroke="red" stroke-width="0.71875" stroke-linejoin="round" />
<polyline points="349.41,568.66 349.44,568.62 351.28,566.97 355.38,563 356.44,561.84 359.5,558.19 361.84,555.12 363.62,552.53 366.12,548.47 367.72,545.56 369.56,541.91 371.84,536.72 372.38,535.38 374.81,528.97 375.97,524.28 376.34,522.59 377.97,516.28 380,510.06 380.06,509.88 382.84,503.88 384.19,502.16 388.06,497.75 388.31,497.56 392.41,494.69 396.53,491.91 396.88,491.69 400.62,489.44 404.75,487 407.34,485.69 408.88,485.03 412.97,483.53 417.09,482.38 421.22,481.5 425.31,480.44 428.91,479.75 429.44,479.62 432.41,479.19 " stroke="red" stroke-width="0.96875" stroke-linecap="round" stroke-linejoin="round" />
<polyline points="459.38,480.72 462.34,481.28 466.47,482.56 470.56,484.41 472.25,485.69 474.69,487.66 478.81,491.31 479.19,491.69 482.91,495.31 485.41,497.75 487.03,499.34 491.16,503.34 491.69,503.88 495.25,507.62 497.47,510.06 499.38,512.22 502.81,516.28 503.5,517.09 507.59,522.09 508,522.59 511.72,526.97 513.47,528.97 515.84,531.66 519.16,535.38 519.94,536.28 524.06,540.94 524.91,541.91 528.19,545.56 530.78,548.47 532.28,550.12 536.41,554.59 536.88,555.12 540.53,559 543.25,561.84 544.62,563.22 548.75,567.16 550.38,568.62 550.41,568.66 " stroke="red" stroke-width="0.96875" stroke-linecap="round" stroke-linejoin="round" />
<polyline points="435.41,477.06 436.28,476.19 438.03,476.19 438.91,477.06 438.91,478.81 438.03,479.69 435.41,479.69 435.41,481.44 438.91,481.44 " stroke="red" stroke-width="0.71875" stroke-linecap="round" stroke-linejoin="round" />
<polyline points="443.28,481.44 441.53,478.81 445.03,478.81 445.03,481.44 445.03,476.19 " stroke="red" stroke-width="0.71875" stroke-linecap="round" stroke-linejoin="round" />
<polygon points="448.53,481.44 447.66,480.56 447.66,477.06 448.53,476.19 450.28,476.19 451.16,477.06 451.16,480.56 450.28,481.44 " stroke="red" stroke-width="0.71875" stroke-linejoin="round" />
<polygon points="454.66,481.44 453.78,480.56 453.78,477.06 454.66,476.19 456.41,476.19 457.28,477.06 457.28,480.56 456.41,481.44 " stroke="red" stroke-width="0.71875" stroke-linejoin="round" />
<polyline points="578.44,568.66 578.41,568.62 577.53,568.06 573.44,565.22 569.31,562.34 568.59,561.84 565.19,559.25 561.09,556.03 559.94,555.12 556.97,552.56 552.88,548.91 552.41,548.47 548.75,544.84 545.81,541.91 544.62,540.69 540.53,536.53 539.38,535.38 536.41,532.41 533.06,528.97 532.28,528.19 528.19,524.06 526.75,522.59 524.06,519.91 520.5,516.28 519.94,515.72 515.84,511.22 514.81,510.06 511.72,506.53 509.44,503.88 507.59,501.88 503.75,497.75 503.5,497.5 499.38,493.44 497.56,491.69 495.25,489.5 491.22,485.69 491.16,485.62 487.03,481.88 484.84,479.75 482.91,478.06 478.81,474.56 477.91,473.84 474.69,471.31 470.56,468.25 470.16,468 466.47,465.88 462.34,463.59 459.72,462.19 458.25,461.44 454.12,459.59 450,458.59 445.91,458.06 441.78,457.94 437.66,458.16 433.56,458.38 429.44,458.81 425.31,459.38 421.22,460.03 417.09,460.47 412.97,461 408.88,461.72 406.78,462.19 404.75,462.72 400.62,464.31 396.53,466.25 393.28,468 392.41,468.5 388.31,471.16 384.19,473.81 384.16,473.84 380.06,476.69 375.97,479.56 375.72,479.75 371.84,483.22 369.47,485.69 367.72,487.69 364.19,491.69 363.62,492.38 359.5,497.09 358.91,497.75 355.38,501.91 353.75,503.88 351.28,508.19 350.12,510.06 347.16,515.12 346.41,516.28 343.03,521.41 342.19,522.59 338.94,526.91 337.56,528.97 336.41,530.66 " stroke="red" stroke-width="0.96875" stroke-linecap="round" stroke-linejoin="round" />
<polyline points="329.69,540.12 328.31,541.91 326.59,544.03 322.59,548.47 322.47,548.59 318.34,552.91 316.12,555.12 314.25,556.94 310.12,560.62 308.62,561.84 306.03,563.84 301.91,566.06 297.78,567.88 295.62,568.62 295.53,568.66 " stroke="red" stroke-width="0.96875" stroke-linecap="round" stroke-linejoin="round" />
<polyline points="239.22,568.66 239.06,568.62 236.06,568.03 231.97,567.09 227.84,565.97 223.72,564.75 219.62,563.69 215.5,562.53 213.38,561.84 211.41,561.19 207.28,559.59 203.16,557.12 200.03,555.12 199.06,554.53 194.94,552.06 190.81,549.78 188.16,548.47 186.72,547.75 182.59,545.69 178.47,543.66 174.88,541.91 174.38,541.66 170.25,540.28 166.12,538.94 162.03,537.47 157.91,535.66 157.59,535.38 153.78,531.78 151.25,528.97 149.69,527.12 145.56,523 145.06,522.59 141.44,520.03 137.34,518.44 133.22,517.12 130.25,516.28 129.12,515.97 125,514.84 120.88,513.84 116.78,512.69 112.66,511.19 110.12,510.06 108.53,509.31 104.44,506.31 100.91,503.88 100.31,503.44 96.188,500.84 92.094,498.75 87.969,498 85.812,497.75 83.844,497.5 79.75,497.03 75.625,496.44 71.5,494.81 67.406,493.22 63.281,491.75 63.094,491.69 59.188,490.41 55.062,489.38 50.938,488.44 46.844,487.59 42.719,486.78 38.594,486.09 35.688,485.69 34.5,485.5 30.375,484.94 26.25,484.47 22.156,484.16 18.031,483.84 " stroke="red" stroke-width="0.96875" stroke-linecap="round" stroke-linejoin="round" />
<polyline points="322.69,533.62 323.56,532.75 325.31,532.75 326.19,533.62 326.19,535.38 325.31,536.25 322.69,536.25 322.69,538 326.19,538 " stroke="red" stroke-width="0.71875" stroke-linecap="round" stroke-linejoin="round" />
<polyline points="330.56,538 328.81,535.38 332.31,535.38 332.31,538 332.31,532.75 " stroke="red" stroke-width="0.71875" stroke-linecap="round" stroke-linejoin="round" />
<polyline points="338.44,537.12 337.56,538 335.81,538 334.94,537.12 334.94,533.62 335.81,532.75 337.56,532.75 338.44,533.62 338.44,534.5 337.56,535.38 334.94,535.38 " stroke="red" stroke-width="0.71875" stroke-linecap="round" stroke-linejoin="round" />
<polygon points="341.94,538 341.06,537.12 341.06,533.62 341.94,532.75 343.69,532.75 344.56,533.62 344.56,537.12 343.69,538 " stroke="red" stroke-width="0.71875" stroke-linejoin="round" />
<polyline points="594,554.72 589.88,551.78 585.78,549.12 584.72,548.47 581.66,546.44 577.53,543.72 574.88,541.91 573.44,540.88 569.31,537.84 566.12,535.38 565.19,534.66 561.09,531.25 558.41,528.97 556.97,527.72 552.88,524.06 551.16,522.59 548.75,520.53 544.62,517.12 543.62,516.28 540.53,513.78 536.41,510.5 535.88,510.06 532.28,506.94 528.75,503.88 528.19,503.34 524.06,499.56 522.12,497.75 519.94,495.75 515.88,491.69 515.84,491.66 511.72,487.66 509.62,485.69 507.59,483.84 503.5,480.16 503,479.75 499.38,476.5 496.16,473.84 495.25,473.16 491.16,470.03 488.31,468 487.03,467.09 482.91,463.78 480.94,462.19 478.81,460.5 474.69,457.41 473.38,456.47 470.56,454.62 466.47,452.28 463.44,450.75 462.34,450.22 458.25,448.47 454.12,446.97 450,445.97 445.91,445.16 445.69,445.12 441.78,444.53 437.66,444.06 433.56,443.78 429.44,443.75 425.31,443.88 421.22,444.25 417.09,444.81 415.44,445.12 412.97,445.56 408.88,446.44 404.75,447.44 400.62,448.62 396.53,450 394.44,450.75 392.41,451.56 388.31,453.41 384.19,455.69 382.94,456.47 380.06,458.41 375.97,461.28 374.62,462.19 371.84,464.19 367.72,467.19 366.69,468 363.62,470.53 359.88,473.84 359.5,474.22 355.38,478.28 353.88,479.75 351.28,482.28 347.78,485.69 347.16,486.34 343.03,490.47 341.81,491.69 338.94,494.75 336,497.75 334.91,498.97 " stroke="red" stroke-width="0.96875" stroke-linecap="round" stroke-linejoin="round" />
<polyline points="326.88,508.44 326.59,508.78 325.53,510.06 322.47,513.72 319.84,516.28 318.34,517.78 314.25,521.47 312.84,522.59 310.12,524.84 306.03,527.94 304.41,528.97 301.91,530.56 297.78,532.75 293.69,534.56 291.41,535.38 289.56,536.03 285.44,537.25 281.34,538.22 277.22,539.06 273.09,539.81 269,540.78 264.88,541.66 263.5,541.91 260.75,542.38 256.66,542.91 252.53,543.09 248.41,543.09 244.31,542.94 240.19,542.62 236.06,542.22 233.38,541.91 231.97,541.72 227.84,541.12 223.72,540.5 219.62,540 215.5,539.38 211.41,538.59 207.28,537.66 203.16,536.59 199.06,535.5 198.72,535.38 194.94,534.28 190.81,533 186.72,531.19 182.59,529.28 181.94,528.97 178.47,527.06 174.38,525 170.25,523.69 167.47,522.59 166.12,521.97 162.03,519.59 157.91,516.56 157.62,516.28 153.78,512.91 149.69,510.31 149.12,510.06 145.56,508.5 141.44,507.12 137.34,505.91 133.22,504.72 130.47,503.88 129.12,503.34 125,501.69 120.88,500.09 116.78,498.41 115.38,497.75 112.66,496.47 108.53,494.38 104.44,491.81 104.19,491.69 100.31,489.44 96.188,487.38 92.125,485.69 92.094,485.66 87.969,484.62 83.844,483.69 79.75,482.81 75.625,481.94 71.5,480.97 67.406,480.16 65.156,479.75 63.281,479.34 59.188,478.47 55.062,477.44 50.938,476.38 46.844,475.41 42.719,474.47 39.5,473.84 38.594,473.66 34.5,472.84 30.375,472.06 26.25,471.34 22.156,470.88 18.031,470.38 " stroke="red" stroke-width="0.96875" stroke-linecap="round" stroke-linejoin="round" />
<polyline points="320.19,501.97 321.06,501.09 322.81,501.09 323.69,501.97 323.69,503.72 322.81,504.59 320.19,504.59 320.19,506.34 323.69,506.34 " stroke="red" stroke-width="0.71875" stroke-linecap="round" stroke-linejoin="round" />
<polyline points="326.31,501.97 327.19,501.09 328.94,501.09 329.81,501.97 329.81,503.72 328.94,504.59 326.31,504.59 326.31,506.34 329.81,506.34 " stroke="red" stroke-width="0.71875" stroke-linecap="round" stroke-linejoin="round" />
<polyline points="332.44,505.47 333.31,506.34 335.06,506.34 335.94,505.47 335.94,504.59 332.44,501.09 335.94,501.09 " stroke="red" stroke-width="0.71875" stroke-linecap="round" stroke-linejoin="round" />
<polygon points="339.44,506.34 338.56,505.47 338.56,501.97 339.44,501.09 341.19,501.09 342.06,501.97 342.06,505.47 341.19,506.34 " stroke="red" stroke-width="0.71875" stroke-linejoin="round" />
<polyline points="594,526.69 589.88,523.75 587.84,522.59 585.78,521.5 581.66,518.88 577.53,516.38 577.44,516.28 573.44,513.75 569.31,511.09 567.97,510.06 565.19,507.84 561.09,504.47 560.41,503.88 556.97,501.09 552.88,498 552.5,497.75 548.75,495.22 544.62,492.38 543.72,491.69 540.53,489.28 536.41,486 535.97,485.69 532.28,482.97 528.19,480.06 527.72,479.75 524.06,477.16 519.94,474.19 519.5,473.84 515.84,470.88 512.16,468 511.72,467.66 507.59,464.53 504.31,462.19 503.5,461.66 499.38,459.12 495.25,456.78 494.69,456.47 491.16,454.22 487.03,451.56 485.94,450.75 482.91,448.66 478.81,446.19 476.72,445.12 474.69,444.12 470.56,442.38 466.47,440.59 463.81,439.5 462.34,438.91 458.25,437.34 454.12,435.94 450,434.69 447.38,433.97 445.91,433.47 441.78,432.34 437.66,431.44 433.56,430.91 429.44,430.62 425.31,430.56 421.22,430.75 417.09,431.31 412.97,432.06 408.88,433.06 405.75,433.97 404.75,434.22 400.62,435.38 396.53,436.62 392.41,437.97 388.31,439.41 388.03,439.5 384.19,440.97 380.06,442.75 375.97,444.78 375.31,445.12 371.84,447.03 367.72,449.31 365.28,450.75 363.62,451.78 359.5,454.47 356.66,456.47 355.38,457.34 351.28,460.25 348.66,462.19 347.16,463.38 343.03,466.66 341.38,468 338.94,470 334.81,473.09 333.75,473.84 333.03,474.38 " stroke="red" stroke-width="0.96875" stroke-linecap="round" stroke-linejoin="round" />
<polyline points="320.12,483.81 318.34,485.12 317.56,485.69 314.25,488.06 310.12,490.94 309.03,491.69 306.03,493.72 301.91,496.62 300.22,497.75 297.78,499.34 293.69,501.91 290.16,503.88 289.56,504.19 285.44,506.19 281.34,507.94 277.22,509.44 275.25,510.06 273.09,510.69 269,511.81 264.88,512.78 260.75,513.66 256.66,514.34 252.53,514.78 248.41,515 244.31,515.12 240.19,515.09 236.06,515.09 231.97,514.97 227.84,514.81 223.72,514.56 219.62,514.28 215.5,513.97 211.41,513.53 207.28,513 203.16,512.31 199.06,511.47 194.94,510.41 193.69,510.06 190.81,509.19 186.72,508.22 182.59,507.22 178.47,506.09 174.38,504.72 173.06,503.88 170.25,501.81 166.12,498.75 164.75,497.75 162.03,495.91 157.91,493.53 153.78,492.19 151.97,491.69 149.69,491.03 145.56,489.91 141.44,488.78 137.34,487.75 133.22,486.75 129.12,485.78 128.75,485.69 125,484.66 120.88,483.12 116.78,481.44 112.84,479.75 112.66,479.66 108.53,477.62 104.44,475.5 101.03,473.84 100.31,473.47 96.188,471.47 92.094,469.69 87.969,468.31 86.875,468 83.844,467.03 79.75,465.88 75.625,464.84 71.5,464.03 67.406,463.28 63.281,462.56 61.25,462.19 59.188,461.81 55.062,460.94 50.938,460.09 46.844,459.25 42.719,458.41 38.594,457.5 34.5,456.53 34.156,456.47 30.375,455.47 26.25,454.44 22.156,453.56 18.031,452.72 " stroke="red" stroke-width="0.96875" stroke-linecap="round" stroke-linejoin="round" />
<polyline points="316.09,477.34 316.97,476.47 318.72,476.47 319.59,477.34 319.59,479.09 318.72,479.97 316.09,479.97 316.09,481.72 319.59,481.72 " stroke="red" stroke-width="0.71875" stroke-linecap="round" stroke-linejoin="round" />
<polyline points="322.22,477.34 323.09,476.47 324.84,476.47 325.72,477.34 325.72,479.09 324.84,479.97 322.22,479.97 322.22,481.72 325.72,481.72 " stroke="red" stroke-width="0.71875" stroke-linecap="round" stroke-linejoin="round" />
<polygon points="329.22,481.72 328.34,480.84 328.34,479.97 329.22,479.09 330.97,479.09 331.84,479.97 331.84,480.84 330.97,481.72 " stroke="red" stroke-width="0.71875" stroke-linejoin="round" />
<polyline points="329.22,479.09 328.34,478.22 328.34,477.34 329.22,476.47 330.97,476.47 331.84,477.34 331.84,478.22 330.97,479.09 " stroke="red" stroke-width="0.71875" stroke-linecap="round" stroke-linejoin="round" />
<polygon points="335.34,481.72 334.47,480.84 334.47,477.34 335.34,476.47 337.09,476.47 337.97,477.34 337.97,480.84 337.09,481.72 " stroke="red" stroke-width="0.71875" stroke-linejoin="round" />
<polyline points="594,489.16 589.88,487.84 585.78,486.69 583.72,485.69 581.66,484.66 577.53,482.44 573.44,480.19 572.66,479.75 569.31,477.88 565.19,475.94 561.09,474.03 560.69,473.84 556.97,471.97 552.88,469.78 550.22,468 548.75,467 544.62,464.16 541.69,462.19 540.53,461.44 536.41,458.81 532.28,456.53 532.16,456.47 528.19,454.16 524.06,451.81 522.28,450.75 519.94,449.41 515.84,447.19 511.72,445.12 511.69,445.12 507.59,443.12 503.5,441.19 500.5,439.5 499.38,438.88 495.25,436.38 491.16,433.97 491.12,433.97 487.03,431.88 482.91,430.69 478.81,429.66 474.69,428.72 473.5,428.44 470.56,427.66 466.47,426.09 462.34,424.59 458.25,423.25 457.31,422.97 454.12,421.94 450,420.72 445.91,419.69 441.78,418.84 437.66,418.19 433.56,417.84 429.44,417.69 425.31,417.66 421.22,417.72 417.09,417.97 412.97,418.31 408.88,418.78 404.75,419.41 400.62,420.16 396.53,421.06 392.41,422.06 389.09,422.97 388.31,423.19 384.19,424.19 380.06,425.28 375.97,426.44 371.84,427.62 369.03,428.44 367.72,428.81 363.62,429.97 359.5,431.25 355.38,432.66 352.09,433.97 351.28,434.31 347.16,436.19 343.03,438.25 340.69,439.5 338.94,440.47 334.81,442.53 330.69,444.69 329.84,445.12 326.59,446.81 322.47,449.06 321.53,449.66 " stroke="red" stroke-width="0.96875" stroke-linecap="round" stroke-linejoin="round" />
<polyline points="306.69,459.09 306.03,459.53 301.91,461.78 301.12,462.19 297.78,464 293.69,466.31 290.78,468 289.56,468.72 285.44,471.44 281.94,473.84 281.34,474.25 277.22,476.88 273.09,479.31 272.12,479.75 269,480.88 264.88,482.09 260.75,483.03 256.66,483.75 252.53,484.31 248.41,484.72 244.31,485.06 240.19,485.34 237.06,485.69 236.06,485.78 231.97,486.16 227.84,486.38 223.72,486.41 219.62,485.94 218.03,485.69 215.5,485.25 211.41,484.47 207.28,483.66 203.16,483.47 199.06,483.28 194.94,483.06 190.81,482.66 186.72,481.66 182.59,480.31 181.12,479.75 178.47,478.72 174.38,477.09 170.25,475.59 166.12,474.16 165.19,473.84 162.03,472.75 157.91,471.38 153.78,469.94 149.69,468.59 147.66,468 145.56,467.38 141.44,466.25 137.34,465.59 133.22,464.97 129.12,464.22 125,463.25 122.16,462.19 120.88,461.69 116.78,459.88 112.66,457.97 109.5,456.47 108.53,455.97 104.44,453.75 100.31,451.62 98.531,450.75 96.188,449.56 92.094,447.62 87.969,445.91 85.906,445.12 83.844,444.28 79.75,442.75 75.625,441.47 71.5,440.69 67.406,440.09 63.281,439.62 62.125,439.5 59.188,439.19 55.062,438.5 50.938,437.75 46.844,436.91 42.719,436 38.594,435.03 34.5,434.03 34.219,433.97 30.375,432.88 26.25,431.72 22.156,430.69 18.031,429.66 " stroke="red" stroke-width="0.96875" stroke-linecap="round" stroke-linejoin="round" />
<polyline points="303.75,452.62 304.62,451.75 306.38,451.75 307.25,452.62 307.25,454.38 306.38,455.25 303.75,455.25 303.75,457 307.25,457 " stroke="red" stroke-width="0.71875" stroke-linecap="round" stroke-linejoin="round" />
<polyline points="313.38,456.12 312.5,457 310.75,457 309.88,456.12 309.88,452.62 310.75,451.75 312.5,451.75 313.38,452.62 313.38,453.5 312.5,454.38 309.88,454.38 " stroke="red" stroke-width="0.71875" stroke-linecap="round" stroke-linejoin="round" />
<polyline points="317.75,457 316,454.38 319.5,454.38 319.5,457 319.5,451.75 " stroke="red" stroke-width="0.71875" stroke-linecap="round" stroke-linejoin="round" />
<polygon points="323,457 322.12,456.12 322.12,452.62 323,451.75 324.75,451.75 325.62,452.62 325.62,456.12 324.75,457 " stroke="red" stroke-width="0.71875" stroke-linejoin="round" />
<polyline points="594,434.69 589.88,435.31 585.78,435.62 581.66,435.22 577.53,434.59 573.69,433.97 573.44,433.91 569.31,433.22 565.19,433.16 561.09,433.09 556.97,432.88 552.88,432.47 548.75,431.56 544.62,430.5 540.53,429.31 537.75,428.44 536.41,428 532.28,426.41 528.19,424.78 524.06,423.25 523.34,422.97 519.94,421.69 515.84,420.34 511.72,418.97 507.69,417.53 507.59,417.5 503.5,415.88 499.38,414.06 495.25,412.44 494.47,412.16 491.16,410.88 487.03,409.44 482.91,408.16 478.81,406.88 478.5,406.78 474.69,405.59 470.56,404.38 466.47,403.44 462.34,402.59 458.25,401.84 456.16,401.47 454.12,401.09 450,400.19 445.91,399.38 441.78,398.66 437.66,398.06 433.56,397.66 429.44,397.38 425.31,397.12 421.22,396.97 417.09,396.78 412.97,396.66 408.88,396.59 404.75,396.66 400.62,396.91 396.53,397.25 392.41,397.69 388.31,398.16 384.19,398.66 380.06,399.16 375.97,399.75 371.84,400.44 367.72,401.19 366.28,401.47 363.62,401.97 359.5,402.75 355.38,403.56 351.28,404.34 347.16,405.19 343.03,406.09 340.31,406.78 338.94,407.12 334.81,408.34 330.69,409.75 326.59,411.28 324.44,412.16 322.47,412.97 318.34,414.91 314.25,417 313.22,417.53 311.91,418.25 " stroke="red" stroke-width="0.96875" stroke-linecap="round" stroke-linejoin="round" />
<polyline points="295.84,427.69 294.66,428.44 293.69,429.06 289.56,431.62 285.59,433.97 285.44,434.03 281.34,436.19 277.22,438.25 274.59,439.5 273.09,440.22 269,442.19 264.88,444.09 262.56,445.12 260.75,445.91 256.66,447.66 252.53,449.41 249.12,450.75 248.41,451.03 244.31,452.47 240.19,453.59 236.06,454.06 231.97,454.25 227.84,454.25 223.72,454.16 219.62,454.16 215.5,454.09 211.41,453.94 207.28,453.72 203.16,453.34 199.06,452.81 194.94,452.12 190.81,451.28 187.34,450.75 186.72,450.66 182.59,450.06 178.47,449.47 174.38,448.88 170.25,448.03 166.12,447.16 162.03,446.28 157.91,445.34 156.75,445.12 153.78,444.47 149.69,443.53 145.56,442.53 141.44,441.44 137.34,440.22 135.28,439.5 133.22,438.78 129.12,437.16 125,435.34 122,433.97 120.88,433.47 116.78,431.69 112.66,429.88 109.5,428.44 108.53,428 104.44,425.69 100.31,423.16 100,422.97 96.188,420.59 92.094,418.25 88.562,417.53 87.969,417.44 83.844,417.06 79.75,416.88 75.625,416.69 71.5,415.81 67.406,414.75 63.281,413.5 59.5,412.16 59.188,412.03 55.062,410.69 50.938,409.31 46.844,407.88 43.688,406.78 42.719,406.47 38.594,405.28 34.5,404.12 30.375,403 26.25,401.88 24.688,401.47 22.156,400.81 18.031,399.66 " stroke="red" stroke-width="0.96875" stroke-linecap="round" stroke-linejoin="round" />
<polyline points="293.09,421.22 293.97,420.34 295.72,420.34 296.59,421.22 296.59,422.97 295.72,423.84 293.09,423.84 293.09,425.59 296.59,425.59 " stroke="red" stroke-width="0.71875" stroke-linecap="round" stroke-linejoin="round" />
<polyline points="299.22,425.59 302.72,425.59 300.97,420.34 " stroke="red" stroke-width="0.71875" stroke-linecap="round" stroke-linejoin="round" />
<polygon points="306.22,425.59 305.34,424.72 305.34,421.22 306.22,420.34 307.97,420.34 308.84,421.22 308.84,424.72 307.97,425.59 " stroke="red" stroke-width="0.71875" stroke-linejoin="round" />
<polygon points="312.34,425.59 311.47,424.72 311.47,421.22 312.34,420.34 314.09,420.34 314.97,421.22 314.97,424.72 314.09,425.59 " stroke="red" stroke-width="0.71875" stroke-linejoin="round" />
<polyline points="594,340.75 591.66,345.31 589.88,348.75 589.09,350.28 586.94,355.25 585.78,357.66 584.47,360.25 581.66,365.12 581.56,365.28 577.62,370.38 577.53,370.44 573.44,373.97 571.28,375.47 569.31,376.66 565.19,378.56 561.09,380.03 559.03,380.59 556.97,381.12 552.88,381.88 548.75,382.41 544.62,382.75 540.53,382.91 536.41,382.97 532.28,382.97 528.19,382.88 524.06,382.62 519.94,382.22 515.84,381.53 511.72,380.69 511.28,380.59 507.59,379.66 503.5,378.56 499.38,377.56 495.25,376.56 491.16,375.62 490.31,375.47 487.03,374.72 482.91,374.03 478.81,373.41 474.69,372.84 470.56,372.22 466.47,371.25 462.91,370.38 462.34,370.19 458.25,369 454.12,367.91 450,367.06 445.91,366.31 441.78,365.59 439.91,365.28 437.66,364.91 433.56,364.38 429.44,363.81 425.31,363.16 421.22,362.38 417.09,361.12 414.41,360.25 412.97,359.78 408.88,358.38 404.75,357.03 400.62,355.69 399.38,355.25 396.53,354.12 392.41,352.38 388.31,350.53 386.97,350.28 384.19,349.72 380.06,348.97 375.97,348.09 371.84,346.69 370.34,345.31 367.72,341.97 366.78,340.41 364.56,335.5 363.62,333.06 362.72,330.66 359.88,325.81 359.5,325.28 356.03,321 355.38,320.34 351.28,316.47 350.97,316.22 347.16,313.5 343.34,311.44 343.03,311.31 338.94,310.25 334.81,310.09 330.69,310.72 328.84,311.44 326.59,312.5 322.47,315.59 322.03,316.22 319.25,321 318.34,323 317.31,325.81 316.09,330.66 316.09,330.78 " stroke="red" stroke-width="0.96875" stroke-linecap="round" stroke-linejoin="round" />
<polyline points="316.62,340.25 316.62,340.41 317.44,345.31 318.34,350.28 318.34,350.38 318.59,355.25 318.34,358.22 318.19,360.25 316.84,365.28 314.25,369.91 313.97,370.38 310.12,373.72 307.97,375.47 306.03,376.75 301.91,379.56 300.53,380.59 297.78,382.59 294,385.78 293.69,386.03 289.56,389.5 287.47,390.97 285.44,392.06 281.34,394.28 277.78,396.22 277.22,396.53 273.09,398.75 269,401.31 268.72,401.47 264.88,403.66 260.75,405.84 258.72,406.78 256.66,407.72 252.53,408.91 248.41,410 244.31,411.09 240.88,412.16 240.19,412.34 236.06,414.88 231.97,417.5 231.88,417.53 227.84,419.62 223.72,421.22 219.62,420.72 215.5,419.47 211.41,417.66 211.09,417.53 207.28,415.75 203.16,416.34 199.06,417 195,417.53 194.94,417.53 190.81,417.88 186.72,417.62 185.56,417.53 182.59,417.25 178.47,416.72 174.38,416.06 170.25,415.44 166.12,414.75 162.03,414.03 157.91,413.25 153.78,412.56 151.47,412.16 149.69,411.84 145.56,411.09 141.44,410.28 137.34,409.5 133.22,408.66 129.12,407.75 125.28,406.78 125,406.72 120.88,405.38 116.78,403.81 112.66,402.09 111.22,401.47 108.53,400.34 104.44,398.88 100.31,397.72 96.188,396.81 92.906,396.22 92.094,396.06 87.969,395.19 83.844,394.19 79.75,393.03 75.625,391.72 72.688,390.97 71.5,390.69 67.406,389.66 63.281,388.59 59.188,387.44 55.062,385.91 54.688,385.78 50.938,384.31 46.844,382.69 42.719,381.09 41.312,380.59 38.594,379.62 34.5,378.19 30.375,376.75 26.625,375.47 26.25,375.34 22.156,374 18.031,372.75 " stroke="red" stroke-width="0.96875" stroke-linecap="round" stroke-linejoin="round" />
<polyline points="305.66,333.75 306.53,332.88 308.28,332.88 309.16,333.75 309.16,335.5 308.28,336.38 305.66,336.38 305.66,338.12 309.16,338.12 " stroke="red" stroke-width="0.71875" stroke-linecap="round" stroke-linejoin="round" />
<polyline points="311.78,338.12 315.28,338.12 313.53,332.88 " stroke="red" stroke-width="0.71875" stroke-linecap="round" stroke-linejoin="round" />
<polyline points="321.41,337.25 320.53,338.12 318.78,338.12 317.91,337.25 317.91,333.75 318.78,332.88 320.53,332.88 321.41,333.75 321.41,334.62 320.53,335.5 317.91,335.5 " stroke="red" stroke-width="0.71875" stroke-linecap="round" stroke-linejoin="round" />
<polygon points="324.91,338.12 324.03,337.25 324.03,333.75 324.91,332.88 326.66,332.88 327.53,333.75 327.53,337.25 326.66,338.12 " stroke="red" stroke-width="0.71875" stroke-linejoin="round" />
<polyline points="504.16,247 504.12,247.03 503.5,247.72 500,251.5 499.38,252.31 496.62,256 495.25,257.94 493.44,260.5 491.16,263.97 490.41,265.03 487.34,269.59 487.03,270.09 484.44,274.16 482.91,276.62 481.25,278.75 478.81,281.03 474.72,283.34 474.69,283.38 470.56,284.41 466.47,285.06 462.34,285.19 458.25,284.69 454.12,283.44 454,283.34 450,280.25 448.44,278.75 445.91,275.88 444.47,274.16 442,269.59 441.78,269.16 439.34,265.03 437.66,262.88 434.97,260.5 433.56,259.56 429.44,257.53 425.31,256.09 425,256 421.22,255.06 417.09,254.31 412.97,253.66 408.88,253.09 404.75,252.53 400.62,251.69 399.75,251.5 396.53,250.94 392.41,250.28 388.31,249.84 384.19,249.88 380.06,250.06 375.97,250.34 371.84,250.66 367.72,250.69 363.62,250.84 359.5,251.12 356.72,251.5 355.38,251.69 351.28,252.75 347.16,253.97 343.03,255.34 341.22,256 338.94,256.78 334.81,258.06 330.69,259.44 327.84,260.5 326.59,260.94 322.47,262.62 318.62,265.03 318.34,265.22 314.25,268.41 313.03,269.59 310.12,272.53 308.75,274.16 306.03,277.72 305.25,278.75 302.03,283.34 301.91,283.53 299.12,287.97 297.78,290.28 296.47,292.62 293.88,297.31 293.69,297.72 291.41,301.97 " stroke="red" stroke-width="0.96875" stroke-linecap="round" stroke-linejoin="round" />
<polyline points="286.44,311.44 285.44,313.5 284.03,316.22 281.44,321 281.34,321.16 278.28,325.81 277.22,327.31 274.44,330.66 273.09,332.06 269.38,335.5 269,335.84 264.88,338.72 261.97,340.41 260.75,341.06 256.66,343.03 252.53,344.84 251.41,345.31 248.41,346.53 244.31,348.12 240.19,349.69 238.91,350.28 236.06,351.47 231.97,353.25 227.84,355.06 227.44,355.25 223.72,356.94 219.62,359 217.34,360.25 215.5,361.28 211.41,363.72 208.81,365.28 207.28,366.19 203.16,368.31 199.06,370.19 198.62,370.38 194.94,371.78 190.81,373.16 186.72,374.41 182.69,375.47 182.59,375.5 178.47,376.38 174.38,377.03 170.25,377.16 166.12,377.06 162.03,376.84 157.91,376.56 153.78,376.47 149.69,376.38 145.56,376.19 141.44,375.91 138.22,375.47 137.34,375.34 133.22,374.62 129.12,373.81 125,372.91 120.88,372.25 116.78,371.69 112.66,371.16 108.53,370.66 106.88,370.38 104.44,369.91 100.31,369.06 96.188,368.22 92.094,367.38 87.969,366.72 83.844,366.06 79.75,365.38 79.281,365.28 75.625,364.56 71.5,363.47 67.406,362.28 63.281,361.06 60.562,360.25 59.188,359.81 55.062,358.62 50.938,357.47 46.844,356.34 42.719,355.25 42.656,355.25 38.594,354.12 34.5,353 30.375,351.91 26.25,350.84 23.969,350.28 22.156,349.75 18.031,348.56 " stroke="red" stroke-width="0.96875" stroke-linecap="round" stroke-linejoin="round" />
<polyline points="278.5,304.97 279.38,304.09 281.12,304.09 282,304.97 282,306.72 281.12,307.59 278.5,307.59 278.5,309.34 282,309.34 " stroke="red" stroke-width="0.71875" stroke-linecap="round" stroke-linejoin="round" />
<polygon points="285.5,309.34 284.62,308.47 284.62,307.59 285.5,306.72 287.25,306.72 288.12,307.59 288.12,308.47 287.25,309.34 " stroke="red" stroke-width="0.71875" stroke-linejoin="round" />
<polyline points="285.5,306.72 284.62,305.84 284.62,304.97 285.5,304.09 287.25,304.09 288.12,304.97 288.12,305.84 287.25,306.72 " stroke="red" stroke-width="0.71875" stroke-linecap="round" stroke-linejoin="round" />
<polyline points="290.75,308.47 291.62,309.34 293.38,309.34 294.25,308.47 294.25,307.59 290.75,304.09 294.25,304.09 " stroke="red" stroke-width="0.71875" stroke-linecap="round" stroke-linejoin="round" />
<polygon points="297.75,309.34 296.88,308.47 296.88,304.97 297.75,304.09 299.5,304.09 300.38,304.97 300.38,308.47 299.5,309.34 " stroke="red" stroke-width="0.71875" stroke-linejoin="round" />
<polyline points="228.47,247 228.5,247.03 230.72,251.5 231.97,255.03 232.25,256 233.97,260.5 235.03,265.03 235.47,269.59 235.25,274.16 233.53,278.75 231.97,281.47 230.78,283.34 227.84,286.81 226.75,287.97 223.72,290.66 221.22,292.62 219.62,293.91 215.5,297.28 215.5,297.31 211.41,300.62 209.78,302 207.28,304.03 204.41,306.72 203.16,307.78 199.06,311.41 199,311.44 194.94,314.5 192.53,316.22 190.81,317.34 186.72,319.47 183.59,321 182.59,321.47 178.47,323.22 174.91,324.72 " stroke="red" stroke-width="0.96875" stroke-linecap="round" stroke-linejoin="round" />
<polyline points="148.56,330.5 145.56,330.31 141.44,329.88 137.34,329.22 133.22,328.5 129.12,327.72 125,327.03 120.88,326.75 116.78,326.56 112.66,326.38 108.53,326.19 105.16,325.81 104.44,325.72 100.31,325.12 96.188,324.5 92.094,323.78 87.969,323.06 83.844,322.31 79.75,321.53 77,321 75.625,320.72 71.5,319.75 67.406,318.81 63.281,317.88 59.188,316.97 55.531,316.22 55.062,316.09 50.938,315.12 46.844,314.19 42.719,313.28 38.594,312.47 34.5,311.72 32.906,311.44 30.375,310.94 26.25,310.16 22.156,309.19 18.031,308.25 " stroke="red" stroke-width="0.96875" stroke-linecap="round" stroke-linejoin="round" />
<polyline points="151.53,327.69 152.41,326.81 154.16,326.81 155.03,327.69 155.03,329.44 154.16,330.31 151.53,330.31 151.53,332.06 155.03,332.06 " stroke="red" stroke-width="0.71875" stroke-linecap="round" stroke-linejoin="round" />
<polygon points="158.53,332.06 157.66,331.19 157.66,330.31 158.53,329.44 160.28,329.44 161.16,330.31 161.16,331.19 160.28,332.06 " stroke="red" stroke-width="0.71875" stroke-linejoin="round" />
<polyline points="158.53,329.44 157.66,328.56 157.66,327.69 158.53,326.81 160.28,326.81 161.16,327.69 161.16,328.56 160.28,329.44 " stroke="red" stroke-width="0.71875" stroke-linecap="round" stroke-linejoin="round" />
<polygon points="164.66,332.06 163.78,331.19 163.78,330.31 164.66,329.44 166.41,329.44 167.28,330.31 167.28,331.19 166.41,332.06 " stroke="red" stroke-width="0.71875" stroke-linejoin="round" />
<polyline points="164.66,329.44 163.78,328.56 163.78,327.69 164.66,326.81 166.41,326.81 167.28,327.69 167.28,328.56 166.41,329.44 " stroke="red" stroke-width="0.71875" stroke-linecap="round" stroke-linejoin="round" />
<polygon points="170.78,332.06 169.91,331.19 169.91,327.69 170.78,326.81 172.53,326.81 173.41,327.69 173.41,331.19 172.53,332.06 " stroke="red" stroke-width="0.71875" stroke-linejoin="round" />
</g>
</svg>
