<?xml version="1.0" encoding="ISO-8859-1" standalone="no"?>
<!DOCTYPE svg PUBLIC "-//W3C//DTD SVG 1.1//EN" "http://www.w3.org/Graphics/SVG/1.1/DTD/svg11.dtd">
<svg version="1.1" baseProfile="full" id="body" width="900px" height="600px" viewBox="0 0.2 1 0.55" preserveAspectRatio="none" xmlns="http://www.w3.org/2000/svg" xmlns:xlink="http://www.w3.org/1999/xlink" xmlns:ev="http://www.w3.org/2001/xml-events">
<title>SVG drawing</title>
<desc>This was produced by version 4.2 of GNU libplot, a free library for exporting 2-D vector graphics.</desc>
<rect id="background" x="0" y="0" width="1" height="1" stroke="none" fill="none"/>
<g id="content" transform="translate(-0.03125,1.1875) scale(1,-1) scale(0.0017361) " xml:space="preserve" stroke="black" stroke-linecap="butt" stroke-linejoin="miter" stroke-miterlimit="10.433" stroke-dasharray="none" stroke-dashoffset="0" stroke-opacity="1" fill="none" fill-rule="even-odd" fill-opacity="1" font-style="normal" font-variant="normal" font-weight="normal" font-stretch="normal" font-size-adjust="none" letter-spacing="normal" word-spacing="normal" text-anchor="start">
<polyline points="21.75,562.22 21.188,561.84 18.031,559.62 " stroke="red" stroke-width="0.96875" stroke-linecap="round" stroke-linejoin="round" />
<polyline points="24,565.19 24.875,564.31 26.625,564.31 27.5,565.19 27.5,566.94 26.625,567.81 24,567.81 24,568.66 " stroke="red" stroke-width="0.71875" stroke-linecap="round" stroke-linejoin="round" />
<polyline points="33.625,568.66 33.625,567.81 30.125,564.31 33.625,564.31 " stroke="red" stroke-width="0.71875" stroke-linecap="round" stroke-linejoin="round" />
<polyline points="36.25,568.66 36.25,567.81 37.125,566.94 38.875,566.94 39.75,567.81 39.75,568.66 " stroke="red" stroke-width="0.71875" stroke-linecap="round" stroke-linejoin="round" />
<polyline points="37.125,566.94 36.25,566.06 36.25,565.19 37.125,564.31 38.875,564.31 39.75,565.19 39.75,566.06 38.875,566.94 " stroke="red" stroke-width="0.71875" stroke-linecap="round" stroke-linejoin="round" />
<polyline points="42.375,568.66 42.375,565.19 43.25,564.31 45,564.31 45.875,565.19 45.875,568.66 " stroke="red" stroke-width="0.71875" stroke-linecap="round" stroke-linejoin="round" />
<polyline points="89.719,568.66 89.688,568.62 87.969,567 83.844,562.5 83.312,561.84 79.75,556.78 78.625,555.12 76.188,548.47 75.625,547.38 74.906,546.62 " stroke="red" stroke-width="0.96875" stroke-linecap="round" stroke-linejoin="round" />
<polyline points="55.094,539.91 55.062,539.88 50.938,539.16 46.844,538.41 42.719,537.69 38.594,537.47 34.5,537.19 30.375,536.66 26.25,535.75 25.156,535.38 22.156,534.38 18.031,532.25 " stroke="red" stroke-width="0.96875" stroke-linecap="round" stroke-linejoin="round" />
<polyline points="58.062,540.16 58.938,539.28 60.688,539.28 61.562,540.16 61.562,541.91 60.688,542.78 58.062,542.78 58.062,544.53 61.562,544.53 " stroke="red" stroke-width="0.71875" stroke-linecap="round" stroke-linejoin="round" />
<polyline points="64.188,543.66 65.062,544.53 66.812,544.53 67.688,543.66 67.688,542.78 66.812,541.91 65.938,541.91 66.812,541.91 67.688,541.03 67.688,540.16 66.812,539.28 65.062,539.28 64.188,540.16 " stroke="red" stroke-width="0.71875" stroke-linecap="round" stroke-linejoin="round" />
<polyline points="72.062,544.53 70.312,541.91 73.812,541.91 73.812,544.53 73.812,539.28 " stroke="red" stroke-width="0.71875" stroke-linecap="round" stroke-linejoin="round" />
<polygon points="77.312,544.53 76.438,543.66 76.438,540.16 77.312,539.28 79.062,539.28 79.938,540.16 79.938,543.66 79.062,544.53 " stroke="red" stroke-width="0.71875" stroke-linejoin="round" />
<polyline points="192.44,568.66 192.44,568.62 194.78,561.84 194.94,561.47 197.44,555.12 199.06,552.31 201.22,548.47 203.16,545.84 206.19,541.91 207.28,540.75 211.41,536.41 212.47,535.38 215.5,532.94 217.66,531.44 " stroke="red" stroke-width="0.96875" stroke-linecap="round" stroke-linejoin="round" />
<polyline points="241.31,525.41 244.31,525.81 248.41,527.06 252.19,528.97 252.53,529.22 256.66,533.91 257.44,535.38 260,541.91 260.75,544.59 261.78,548.47 263.19,555.12 264.88,561.53 264.97,561.84 266.81,568.62 266.81,568.66 " stroke="red" stroke-width="0.96875" stroke-linecap="round" stroke-linejoin="round" />
<polyline points="217.34,524.97 218.22,524.09 219.97,524.09 220.84,524.97 220.84,526.72 219.97,527.59 217.34,527.59 217.34,529.34 220.84,529.34 " stroke="red" stroke-width="0.71875" stroke-linecap="round" stroke-linejoin="round" />
<polyline points="223.47,528.47 224.34,529.34 226.09,529.34 226.97,528.47 226.97,527.59 226.09,526.72 225.22,526.72 226.09,526.72 226.97,525.84 226.97,524.97 226.09,524.09 224.34,524.09 223.47,524.97 " stroke="red" stroke-width="0.71875" stroke-linecap="round" stroke-linejoin="round" />
<polyline points="231.34,529.34 229.59,526.72 233.09,526.72 233.09,529.34 233.09,524.09 " stroke="red" stroke-width="0.71875" stroke-linecap="round" stroke-linejoin="round" />
<polygon points="236.59,529.34 235.72,528.47 235.72,524.97 236.59,524.09 238.34,524.09 239.22,524.97 239.22,528.47 238.34,529.34 " stroke="red" stroke-width="0.71875" stroke-linejoin="round" />
<polyline points="307.16,568.66 307.09,568.62 306.03,567.94 301.91,564.88 298.34,561.84 297.78,561.31 293.69,556.97 292.16,555.12 289.56,551.53 287.69,548.47 285.44,544.53 284.12,541.91 281.34,536.41 280.88,535.38 277.56,528.97 277.22,528.44 273.19,522.59 273.09,522.5 269,517.09 268.31,516.28 264.88,512.75 261.81,510.06 260.75,509.22 256.66,506.53 252.53,504.91 248.62,503.88 248.41,503.81 244.31,503.28 240.19,503.28 237.97,503.88 236.06,504.34 231.97,505.72 227.84,507.22 223.72,508.75 219.62,509.78 218.56,510.06 215.5,510.91 211.41,512.25 207.28,513.91 203.16,516.09 202.78,516.28 200.19,517.88 " stroke="red" stroke-width="0.96875" stroke-linecap="round" stroke-linejoin="round" />
<polyline points="184.22,527.31 182.59,528.09 180.59,528.97 178.47,530 174.38,531.81 170.25,534 167.25,535.38 166.12,535.94 162.03,537.5 157.91,538.5 153.78,538.09 149.69,537.12 145.56,535.78 144.53,535.38 141.44,534.34 137.34,533.81 133.22,533.41 129.12,533.12 125,532.97 120.88,533.44 116.78,533.66 112.66,533.38 108.53,532.34 105.06,528.97 104.44,528.34 100.31,523.59 99.469,522.59 96.188,519.31 92.438,516.28 92.094,516.03 87.969,515.53 83.844,515.53 79.75,515.75 75.625,516.06 71.5,516 67.406,515.91 63.281,515.75 59.188,515.53 55.062,515.41 50.938,515.19 46.844,514.94 42.719,514.59 38.594,514.12 34.5,513.47 30.375,512.59 26.25,511.44 22.156,510.28 21.5,510.06 18.031,508.66 " stroke="red" stroke-width="0.96875" stroke-linecap="round" stroke-linejoin="round" />
<polyline points="182.12,520.84 183,519.97 184.75,519.97 185.62,520.84 185.62,522.59 184.75,523.47 182.12,523.47 182.12,525.22 185.62,525.22 " stroke="red" stroke-width="0.71875" stroke-linecap="round" stroke-linejoin="round" />
<polyline points="190,525.22 188.25,522.59 191.75,522.59 191.75,525.22 191.75,519.97 " stroke="red" stroke-width="0.71875" stroke-linecap="round" stroke-linejoin="round" />
<polygon points="195.25,525.22 194.38,524.34 194.38,520.84 195.25,519.97 197,519.97 197.88,520.84 197.88,524.34 197,525.22 " stroke="red" stroke-width="0.71875" stroke-linejoin="round" />
<polygon points="201.38,525.22 200.5,524.34 200.5,520.84 201.38,519.97 203.12,519.97 204,520.84 204,524.34 203.12,525.22 " stroke="red" stroke-width="0.71875" stroke-linejoin="round" />
<polyline points="594,544.03 591.5,541.91 589.88,540.59 585.78,538.06 581.66,535.84 580.53,535.38 577.53,534.19 573.44,533.03 569.31,532.69 565.19,533.56 562.78,535.38 561.09,537.06 557.59,541.91 556.97,542.47 552.88,546 548.75,548.34 548.47,548.47 544.62,549.41 540.53,550.06 536.41,550.5 532.28,550.69 528.19,550.88 524.06,551.09 519.94,551.47 515.84,552.19 511.72,553.03 507.59,554 503.5,555 503.06,555.12 499.38,555.94 495.25,556.81 491.16,557.72 487.03,558.53 482.91,559.28 478.81,559.97 474.69,560.62 470.56,561.28 466.97,561.84 466.47,561.91 462.34,562.5 458.25,563.09 454.12,563.72 450,564.41 445.91,565.12 441.78,565.84 437.66,566.56 433.56,567.31 429.44,568.06 426.03,568.62 425.84,568.66 " stroke="red" stroke-width="0.96875" stroke-linecap="round" stroke-linejoin="round" />
<polyline points="389.69,568.66 389.38,568.62 388.31,568.5 384.19,567.5 380.06,566.28 375.97,564.84 371.84,563.22 368.53,561.84 367.72,561.5 363.62,559.62 359.5,557.62 355.38,555.62 354.19,555.12 351.28,553.94 347.16,552.31 343.03,550.66 338.94,548.94 337.97,548.47 334.81,546.91 330.69,544.62 326.59,541.97 326.47,541.91 322.47,539 318.34,535.91 317.72,535.38 315.53,533.62 " stroke="red" stroke-width="0.96875" stroke-linecap="round" stroke-linejoin="round" />
<polyline points="304.66,524.16 303.03,522.59 301.91,521.44 297.78,516.62 297.5,516.28 293.69,511.19 292.84,510.06 289.56,505.62 287.75,503.88 285.44,501.97 281.34,499.19 278.84,497.75 277.22,496.91 273.09,494.91 269,492.16 268.25,491.69 264.88,489.69 260.75,487.56 256.66,485.81 256.19,485.69 252.53,484.78 248.41,484.09 244.31,483.75 240.19,483.69 236.06,484.03 231.97,484.69 227.84,485.62 227.66,485.69 223.72,486.75 219.62,487.53 215.5,488.38 211.41,489.31 207.28,490.38 204.34,491.69 203.16,492.19 199.06,494.09 194.94,496 190.88,497.75 190.81,497.78 186.72,499.25 182.59,500.66 178.47,501.94 174.38,503.06 170.25,503.47 166.12,503.66 157.91,503.66 156.81,503.88 153.78,504.41 149.69,505 145.56,505.41 141.44,505.56 137.34,504.97 133.22,504.19 131.88,503.88 129.12,503.25 125,502.34 120.88,502.03 116.78,501.59 112.66,501 108.53,500.12 104.44,498.16 103.47,497.75 100.31,496.53 96.188,495.34 92.094,494.53 87.969,494.97 83.844,495.69 79.75,496.59 75.625,497.41 71.5,496.44 67.406,495.25 63.281,494.06 59.188,493.06 55.062,492.81 50.938,492.66 46.844,492.47 42.719,492.16 40.344,491.69 38.594,491.31 34.5,490.25 30.375,488.94 26.25,487.47 22.156,486.19 20.875,485.69 18.031,484.53 " stroke="red" stroke-width="0.96875" stroke-linecap="round" stroke-linejoin="round" />
<polyline points="299.62,527.16 300.5,526.28 302.25,526.28 303.12,527.16 303.12,528.91 302.25,529.78 299.62,529.78 299.62,531.53 303.12,531.53 " stroke="red" stroke-width="0.71875" stroke-linecap="round" stroke-linejoin="round" />
<polyline points="307.5,531.53 305.75,528.91 309.25,528.91 309.25,531.53 309.25,526.28 " stroke="red" stroke-width="0.71875" stroke-linecap="round" stroke-linejoin="round" />
<polyline points="315.38,530.66 314.5,531.53 312.75,531.53 311.88,530.66 311.88,527.16 312.75,526.28 314.5,526.28 315.38,527.16 315.38,528.03 314.5,528.91 311.88,528.91 " stroke="red" stroke-width="0.71875" stroke-linecap="round" stroke-linejoin="round" />
<polygon points="318.88,531.53 318,530.66 318,527.16 318.88,526.28 320.62,526.28 321.5,527.16 321.5,530.66 320.62,531.53 " stroke="red" stroke-width="0.71875" stroke-linejoin="round" />
<polyline points="594,509 589.88,506.38 586.16,503.88 585.78,503.56 581.66,500.28 578.56,497.75 577.53,496.88 573.44,493.38 571.44,491.69 569.31,489.88 565.19,486.28 564.47,485.69 561.09,483.03 556.97,480.16 556.25,479.75 552.88,478 548.75,476.31 544.62,475.28 540.53,475.03 536.41,475.62 532.28,478.44 530.94,479.75 528.19,483.72 527.03,485.69 524.22,491.69 524.06,492.06 521.78,497.75 519.94,502.31 519.12,503.88 515.84,509.38 515.34,510.06 511.72,514.22 509.53,516.28 507.59,517.84 503.5,520.72 500.69,522.59 499.38,523.38 495.25,525.78 491.16,528.06 489.41,528.97 487.03,530.09 482.91,531.81 478.81,533.34 474.69,534.66 472.16,535.38 470.56,535.81 466.47,536.72 462.34,537.53 458.25,538.25 454.12,538.94 450,539.62 445.91,540.31 441.78,541 437.66,541.66 436.19,541.91 433.56,542.31 429.44,542.94 425.31,543.5 421.22,544 417.09,544.41 412.97,544.72 408.88,544.88 404.75,544.88 400.62,544.62 396.53,544.16 392.41,543.47 388.31,542.47 386.34,541.91 384.19,541.22 380.06,539.81 375.97,538.31 371.84,536.69 369,535.38 367.72,534.81 363.62,532.84 359.5,530.88 355.47,528.97 355.38,528.91 351.28,527.25 347.16,525.5 343.03,523.59 341.03,522.59 338.94,521.5 334.81,519.03 333.84,518.44 " stroke="red" stroke-width="0.96875" stroke-linecap="round" stroke-linejoin="round" />
<polyline points="320.03,508.97 318.34,507.69 314.25,504.25 313.81,503.88 310.12,500.19 307.78,497.75 306.03,495.94 302.56,491.69 301.91,490.91 297.78,485.97 297.53,485.69 293.69,481.56 291.75,479.75 289.56,477.91 285.44,475.97 281.34,474.34 279.88,473.84 277.22,472.91 273.09,471.5 269,469.31 266.41,468 264.88,467.19 260.75,465.19 256.66,463.44 252.53,462.56 249.78,462.19 248.41,462 244.31,461.69 240.19,461.53 236.06,461.09 231.97,460.84 227.84,460.81 223.72,461.12 219.72,462.19 219.62,462.22 215.5,463.59 211.41,465.16 207.28,466.78 204.59,468 203.16,468.66 199.06,470.56 194.94,472.5 191.75,473.84 190.81,474.22 186.72,474.94 182.59,475.31 178.47,475.41 174.38,475.31 170.25,475.22 166.12,475.09 162.03,474.97 157.91,474.88 153.78,475.09 149.69,475.38 145.56,475.81 141.44,476.34 137.34,477.06 133.22,477.69 129.12,478.12 125,478.31 120.88,477.75 116.78,477.06 112.66,476.38 108.53,475.78 104.44,475.75 100.31,475.75 96.188,475.72 92.094,475.56 87.969,474.84 83.844,473.97 83.312,473.84 79.75,472.97 75.625,472 71.5,471.47 67.406,471.03 63.281,470.66 59.188,470.28 55.062,469.94 50.938,469.56 46.844,469.09 42.719,468.5 40.5,468 38.594,467.56 34.5,466.5 30.375,465.28 26.25,463.97 22.156,462.88 20.031,462.19 18.031,461.53 " stroke="red" stroke-width="0.96875" stroke-linecap="round" stroke-linejoin="round" />
<polyline points="316.09,511.94 316.97,511.06 318.72,511.06 319.59,511.94 319.59,513.69 318.72,514.56 316.09,514.56 316.09,516.31 319.59,516.31 " stroke="red" stroke-width="0.71875" stroke-linecap="round" stroke-linejoin="round" />
<polyline points="322.22,511.94 323.09,511.06 324.84,511.06 325.72,511.94 325.72,513.69 324.84,514.56 322.22,514.56 322.22,516.31 325.72,516.31 " stroke="red" stroke-width="0.71875" stroke-linecap="round" stroke-linejoin="round" />
<polyline points="328.34,515.44 329.22,516.31 330.97,516.31 331.84,515.44 331.84,514.56 328.34,511.06 331.84,511.06 " stroke="red" stroke-width="0.71875" stroke-linecap="round" stroke-linejoin="round" />
<polygon points="335.34,516.31 334.47,515.44 334.47,511.94 335.34,511.06 337.09,511.06 337.97,511.94 337.97,515.44 337.09,516.31 " stroke="red" stroke-width="0.71875" stroke-linejoin="round" />
<polyline points="594,480.53 593,479.75 589.88,476.41 587.03,473.84 585.78,472.81 581.66,469.12 580.34,468 577.53,465.69 573.44,462.62 572.84,462.19 569.31,459.84 565.19,457.38 563.44,456.47 561.09,455.16 556.97,453.16 552.88,451.59 548.75,450.78 548.34,450.75 544.62,450.5 540.53,450.69 540.12,450.75 536.41,451.34 532.28,452.38 528.19,454.03 524.06,456.47 519.94,459.56 517.38,462.19 515.84,463.84 512.06,468 511.72,468.41 507.59,472.81 506.59,473.84 503.5,476.97 500.62,479.75 499.38,481.31 495.62,485.69 495.25,486.12 491.16,490.53 489.91,491.69 487.03,494.31 482.91,497.56 482.62,497.75 478.81,500.38 474.69,502.88 472.84,503.88 470.56,504.97 466.47,506.53 462.34,507.88 458.25,509.03 454.19,510.06 454.12,510.06 450,511.06 445.91,511.97 441.78,512.81 437.66,513.59 433.56,514.44 429.44,515.22 425.31,515.94 422.97,516.28 421.22,516.53 417.09,517.03 412.97,517.38 408.88,517.59 404.75,517.59 400.62,517.31 396.53,516.84 392.81,516.28 392.41,516.22 388.31,515.44 384.19,514.41 380.06,513.16 375.97,511.78 371.84,510.25 371.25,510.06 367.72,508.88 363.62,507.5 359.5,506.09 355.38,504.62 353.72,503.88 351.28,502.59 347.16,500.19 343.41,497.75 343.03,497.5 338.94,494.44 335.19,491.69 334.81,491.41 333.59,490.41 " stroke="red" stroke-width="0.96875" stroke-linecap="round" stroke-linejoin="round" />
<polyline points="322.31,480.97 320.81,479.75 318.34,477.91 314.25,474.94 312.69,473.84 310.12,472.06 306.03,469.19 304.69,468 301.91,465.53 297.81,462.19 297.78,462.19 293.69,459.12 289.56,456.47 289.5,456.47 285.44,454.41 281.34,452.53 277.31,450.75 277.22,450.72 273.09,448.88 269,446.88 265.09,445.12 264.88,445 260.75,443.22 256.66,441.59 252.53,440.03 251.09,439.5 248.41,438.47 244.31,437.03 240.19,435.84 236.06,435.5 231.97,435.53 227.84,435.88 223.72,436.44 219.62,437.12 215.5,438.06 211.41,439.25 210.56,439.5 207.28,440.66 203.16,442.25 199.06,443.88 195.72,445.12 194.94,445.41 190.81,446.72 186.72,447.41 182.59,447.91 178.47,448.25 174.38,448.47 170.25,448.97 166.12,449.34 162.03,449.59 157.91,449.62 153.78,448.91 149.69,448.09 145.56,447.34 141.44,446.72 137.34,446.75 133.22,446.97 129.12,447.41 125,448 120.88,448.69 116.78,449.38 112.66,450.03 108.53,450.56 106.44,450.75 104.44,450.94 100.31,451.16 96.188,451.16 92.094,450.94 91.031,450.75 87.969,450.22 83.844,449.41 79.75,448.53 75.625,447.69 71.5,446.75 67.406,445.84 63.906,445.12 63.281,445 59.188,444.25 55.062,444.16 50.938,444.16 46.844,444.12 42.719,444.03 38.594,443.47 34.5,442.75 30.375,441.88 26.25,440.88 22.156,439.94 20.719,439.5 18.031,438.72 " stroke="red" stroke-width="0.96875" stroke-linecap="round" stroke-linejoin="round" />
<polyline points="317.34,483.94 318.22,483.06 319.97,483.06 320.84,483.94 320.84,485.69 319.97,486.56 317.34,486.56 317.34,488.31 320.84,488.31 " stroke="red" stroke-width="0.71875" stroke-linecap="round" stroke-linejoin="round" />
<polyline points="323.47,483.94 324.34,483.06 326.09,483.06 326.97,483.94 326.97,485.69 326.09,486.56 323.47,486.56 323.47,488.31 326.97,488.31 " stroke="red" stroke-width="0.71875" stroke-linecap="round" stroke-linejoin="round" />
<polygon points="330.47,488.31 329.59,487.44 329.59,486.56 330.47,485.69 332.22,485.69 333.09,486.56 333.09,487.44 332.22,488.31 " stroke="red" stroke-width="0.71875" stroke-linejoin="round" />
<polyline points="330.47,485.69 329.59,484.81 329.59,483.94 330.47,483.06 332.22,483.06 333.09,483.94 333.09,484.81 332.22,485.69 " stroke="red" stroke-width="0.71875" stroke-linecap="round" stroke-linejoin="round" />
<polygon points="336.59,488.31 335.72,487.44 335.72,483.94 336.59,483.06 338.34,483.06 339.22,483.94 339.22,487.44 338.34,488.31 " stroke="red" stroke-width="0.71875" stroke-linejoin="round" />
<polyline points="594,442.06 589.88,440.34 587.75,439.5 585.78,438.75 581.66,436.78 577.53,434.91 575.41,433.97 573.44,433.19 569.31,431.62 565.19,429.88 561.41,428.44 561.09,428.31 556.97,427 552.88,425.97 548.75,425.47 544.62,425.22 540.53,425.28 536.41,425.66 532.28,426.41 528.19,427.47 525.16,428.44 524.06,428.81 519.94,430.5 515.84,432.84 514.19,433.97 511.72,436.09 508.28,439.5 507.59,440.28 503.59,445.12 503.5,445.22 499.38,449.75 498.41,450.75 495.25,454.06 492.78,456.47 491.16,457.72 487.03,460.72 484.5,462.19 482.91,463.12 478.81,465.34 474.69,467.44 473.53,468 470.56,469.5 466.47,471.81 462.62,473.84 462.34,474 458.25,476 454.12,477.81 450,479.47 449.31,479.75 445.91,481.03 441.78,482.47 437.66,483.75 433.56,484.91 430.56,485.69 429.44,485.97 425.31,486.84 421.22,487.56 417.09,487.97 412.97,488.22 408.88,488.31 404.75,488.28 400.62,488.31 396.53,488.16 392.41,487.81 388.31,487.25 384.19,486.16 382.69,485.69 380.06,484.84 375.97,483.41 371.84,481.84 367.72,480.28 366.47,479.75 363.62,478.44 359.5,476.34 355.38,474 355.16,473.84 351.28,471.09 347.16,468 343.03,464.62 340.09,462.19 338.94,461.19 " stroke="red" stroke-width="0.96875" stroke-linecap="round" stroke-linejoin="round" />
<polyline points="327.72,451.72 326.59,450.81 326.53,450.75 322.47,447.72 318.5,445.12 318.34,445.03 314.25,442.28 310.12,439.59 310,439.5 306.03,436.97 301.91,434.88 299.72,433.97 297.78,433.09 293.69,431.22 289.56,429.31 287.91,428.44 285.44,427.03 281.34,424.72 277.94,422.97 277.22,422.59 273.09,420.56 269,418.56 266.69,417.53 264.88,416.72 260.75,415.06 256.66,413.75 252.53,413 248.41,412.62 244.31,412.47 240.19,412.5 236.06,412.75 231.97,413.06 227.84,413.38 223.72,413.72 219.62,413.56 215.5,413.38 211.41,413.25 207.28,413.28 203.16,414.22 199.06,415.31 194.94,416.38 190.81,417.28 186.72,417.16 182.59,416.81 178.47,416.31 174.38,415.84 170.25,415.97 166.12,416.19 162.03,416.44 157.91,416.69 153.78,416.59 149.69,416.47 145.56,416.41 141.44,416.38 137.34,416.66 133.22,417 129.12,417.38 127.47,417.53 125,417.78 120.88,418.16 116.78,418.53 112.66,418.97 108.53,419.44 104.44,419.91 100.31,420.38 96.188,420.78 92.094,421.19 87.969,421.66 83.844,422.06 79.75,422.31 75.625,422.41 71.5,421.88 67.406,421.25 63.281,420.62 59.188,420.03 55.062,420.09 50.938,420.25 46.844,420.38 42.719,420.44 38.594,420.09 34.5,419.59 30.375,419 26.25,418.25 22.156,417.59 21.812,417.53 18.031,416.78 " stroke="red" stroke-width="0.96875" stroke-linecap="round" stroke-linejoin="round" />
<polyline points="322.69,454.72 323.56,453.84 325.31,453.84 326.19,454.72 326.19,456.47 325.31,457.34 322.69,457.34 322.69,459.09 326.19,459.09 " stroke="red" stroke-width="0.71875" stroke-linecap="round" stroke-linejoin="round" />
<polyline points="332.31,458.22 331.44,459.09 329.69,459.09 328.81,458.22 328.81,454.72 329.69,453.84 331.44,453.84 332.31,454.72 332.31,455.59 331.44,456.47 328.81,456.47 " stroke="red" stroke-width="0.71875" stroke-linecap="round" stroke-linejoin="round" />
<polyline points="336.69,459.09 334.94,456.47 338.44,456.47 338.44,459.09 338.44,453.84 " stroke="red" stroke-width="0.71875" stroke-linecap="round" stroke-linejoin="round" />
<polygon points="341.94,459.09 341.06,458.22 341.06,454.72 341.94,453.84 343.69,453.84 344.56,454.72 344.56,458.22 343.69,459.09 " stroke="red" stroke-width="0.71875" stroke-linejoin="round" />
<polyline points="594,403.62 589.88,403.84 585.78,404.16 581.66,404.28 577.53,404.34 573.44,404.38 569.31,404.34 565.19,404.03 561.09,403.72 556.97,403.47 552.88,403.31 548.75,403.31 544.62,403.47 540.53,403.75 536.41,404.19 532.28,405 528.19,406.06 525.91,406.78 524.06,407.38 519.94,408.88 515.84,410.44 511.97,412.16 511.72,412.25 507.59,414.22 503.5,416.47 501.69,417.53 499.38,418.91 495.25,421.5 493,422.97 491.16,424.22 487.03,427 485.09,428.44 482.91,430.12 478.81,433.38 478.06,433.97 474.69,436.62 470.56,439.47 470.5,439.5 466.47,441.72 462.34,443.84 459.78,445.12 458.25,445.88 454.12,447.84 450,449.78 447.72,450.75 445.91,451.53 441.78,453.03 437.66,454.34 433.56,455.41 429.44,456.28 428.44,456.47 425.31,457 421.22,457.56 417.09,457.94 412.97,458.12 408.88,458.12 404.75,457.91 400.62,457.44 396.53,456.75 395.22,456.47 392.41,455.75 388.31,454.53 384.19,453.31 380.06,452.03 376.25,450.75 375.97,450.66 371.84,449.12 367.72,447.12 364.22,445.12 363.62,444.75 359.5,441.88 356.59,439.5 355.38,438.47 351.28,433.97 351.28,433.94 347.16,429.12 346.56,428.44 343.03,424.41 341.69,422.97 338.94,420.22 334.84,417.53 334.81,417.5 330.69,415.28 327.97,413.97 " stroke="red" stroke-width="0.96875" stroke-linecap="round" stroke-linejoin="round" />
<polyline points="309.25,404.5 306.03,402.84 303.53,401.47 301.91,400.59 297.78,398.34 293.81,396.22 293.69,396.12 289.56,393.91 285.44,391.75 283.97,390.97 281.34,389.5 277.22,387.34 274.06,385.78 273.09,385.31 269,383.16 264.88,381.28 263,380.59 260.75,379.81 256.66,378.78 252.53,379.09 248.41,379.66 244.31,380.25 240.72,380.59 240.19,380.66 239.94,380.59 236.06,379.78 231.97,378.62 227.84,377.28 223.72,375.84 222,375.47 219.62,374.94 215.5,374.22 211.41,373.72 207.28,373.47 203.16,373.5 199.06,373.88 194.94,374.72 192.72,375.47 190.81,376.22 186.72,378.81 183.97,380.59 182.59,381.44 178.47,383.72 174.38,385.5 173.09,385.78 170.25,386.31 166.12,386.84 162.03,387.19 157.91,387.38 153.78,387.53 149.69,387.62 145.56,387.72 141.44,387.88 137.34,388.19 133.22,388.56 129.12,389 125,389.53 120.88,390.12 116.78,390.81 115.94,390.97 112.66,391.59 108.53,392.44 104.44,393.5 100.31,394.53 96.188,395.56 93.281,396.22 92.094,396.47 87.969,397.16 83.844,397.72 79.75,398.12 75.625,398.38 71.5,398.22 67.406,397.97 63.281,397.69 59.188,397.44 55.062,397.47 50.938,397.56 46.844,397.66 42.719,397.72 38.594,397.75 34.5,397.69 30.375,397.5 26.25,397.25 22.156,396.84 18.031,396.25 " stroke="red" stroke-width="0.96875" stroke-linecap="round" stroke-linejoin="round" />
<polyline points="307.84,407.47 308.72,406.59 310.47,406.59 311.34,407.47 311.34,409.22 310.47,410.09 307.84,410.09 307.84,411.84 311.34,411.84 " stroke="red" stroke-width="0.71875" stroke-linecap="round" stroke-linejoin="round" />
<polyline points="313.97,411.84 317.47,411.84 315.72,406.59 " stroke="red" stroke-width="0.71875" stroke-linecap="round" stroke-linejoin="round" />
<polygon points="320.97,411.84 320.09,410.97 320.09,407.47 320.97,406.59 322.72,406.59 323.59,407.47 323.59,410.97 322.72,411.84 " stroke="red" stroke-width="0.71875" stroke-linejoin="round" />
<polygon points="327.09,411.84 326.22,410.97 326.22,407.47 327.09,406.59 328.84,406.59 329.72,407.47 329.72,410.97 328.84,411.84 " stroke="red" stroke-width="0.71875" stroke-linejoin="round" />
<polyline points="594,348.62 590.94,350.28 589.88,350.84 585.78,353.12 582.03,355.25 581.66,355.44 577.53,357.47 573.44,359.34 571.31,360.25 569.31,360.97 565.19,362.19 561.09,363.28 556.97,364.31 553.06,365.28 552.88,365.34 548.75,366.53 544.62,367.81 540.53,369.16 536.97,370.38 536.41,370.59 532.28,372.03 528.19,373.59 524.06,375.25 523.62,375.47 519.94,376.91 515.84,379.12 513.25,380.59 511.72,381.34 507.59,383.47 503.5,385.66 503.28,385.78 499.38,387.66 495.25,389.84 493.38,390.97 491.16,392.09 487.03,394.44 484.28,396.22 482.91,397.03 478.81,399.56 475.69,401.47 474.69,402.06 470.56,404.34 466.47,406.31 465.31,406.78 462.34,408 458.25,409.47 454.12,410.84 450.47,412.16 450,412.31 445.91,413.75 441.78,415.16 437.66,416.41 433.56,417.06 429.44,417.31 425.31,417.19 421.22,416.78 417.09,416.22 412.97,415.47 408.88,414.66 404.75,413.81 400.62,413.06 396.53,412.41 394.97,412.16 392.41,411.75 388.31,411.09 384.19,410.75 380.06,410.16 375.97,409.12 371.84,407.5 370.78,406.78 367.72,404.69 363.62,401.53 363.56,401.47 359.5,398.28 356.69,396.22 355.38,395.31 351.28,392.72 347.94,390.97 347.16,390.56 343.03,388.53 338.94,386.59 336.97,385.78 334.81,384.81 334,384.5 " stroke="red" stroke-width="0.96875" stroke-linecap="round" stroke-linejoin="round" />
<polyline points="314.16,375.03 310.12,372.38 307.12,370.38 306.03,369.66 301.91,367.38 298,365.28 297.78,365.19 293.69,363.06 289.56,361.06 287.94,360.25 285.44,359 281.34,357.03 277.22,355.28 277.16,355.25 273.09,353.78 269,353.16 264.88,352.81 260.75,352.62 256.66,352.44 252.53,351.66 248.41,350.72 246.81,350.28 244.31,349.47 240.19,348.25 236.06,348 231.97,347.94 227.84,347.94 223.72,347.88 219.62,347.31 215.5,346.66 211.41,345.91 208.5,345.31 207.28,345.06 203.16,344.06 199.06,343.25 194.94,342.69 190.81,342.41 186.72,342.91 182.59,343.78 178.47,345 177.53,345.31 174.38,346.5 170.25,347.75 166.12,349.06 162.34,350.28 162.03,350.38 157.91,351.81 153.78,353.34 149.69,354.88 148.75,355.25 145.56,356.44 141.44,357.94 137.34,359.44 134.97,360.25 133.22,360.81 129.12,362.03 125,363.19 120.88,364.28 116.88,365.28 116.78,365.31 112.66,366.22 108.53,367.06 104.44,367.81 100.31,368.56 96.188,369.28 92.094,370.03 90.156,370.38 87.969,370.78 83.844,371.47 79.75,372.12 75.625,372.72 71.5,373.12 67.406,373.47 63.281,373.72 59.188,373.94 55.062,374.22 50.938,374.47 46.844,374.62 42.719,374.72 38.594,374.75 34.5,374.66 30.375,374.44 26.25,374 22.156,373.25 18.031,372.28 " stroke="red" stroke-width="0.96875" stroke-linecap="round" stroke-linejoin="round" />
<polyline points="311.97,378 312.84,377.12 314.59,377.12 315.47,378 315.47,379.75 314.59,380.62 311.97,380.62 311.97,382.38 315.47,382.38 " stroke="red" stroke-width="0.71875" stroke-linecap="round" stroke-linejoin="round" />
<polyline points="318.09,382.38 321.59,382.38 319.84,377.12 " stroke="red" stroke-width="0.71875" stroke-linecap="round" stroke-linejoin="round" />
<polyline points="327.72,381.5 326.84,382.38 325.09,382.38 324.22,381.5 324.22,378 325.09,377.12 326.84,377.12 327.72,378 327.72,378.88 326.84,379.75 324.22,379.75 " stroke="red" stroke-width="0.71875" stroke-linecap="round" stroke-linejoin="round" />
<polygon points="331.22,382.38 330.34,381.5 330.34,378 331.22,377.12 332.97,377.12 333.84,378 333.84,381.5 332.97,382.38 " stroke="red" stroke-width="0.71875" stroke-linejoin="round" />
<polyline points="523.53,247 523.53,247.03 522.53,251.5 521.97,256 521.84,260.5 521.94,265.03 522.22,269.59 522.66,274.16 523.62,278.75 524.06,281.44 524.34,283.34 524.66,287.97 524.5,292.62 524.06,294.34 523.25,297.31 521.22,302 519.94,304.16 518.16,306.72 515.84,309.25 513.62,311.44 511.72,313.03 507.72,316.22 507.59,316.28 503.5,319.22 501.25,321 499.38,322.41 495.25,325.62 495.06,325.81 491.16,328.69 488.5,330.66 487.03,331.5 482.91,333.44 478.81,335.28 478.28,335.5 474.69,336.97 470.56,338.59 466.47,340.09 465.56,340.41 462.34,341.53 458.25,343 454.12,344.5 451.59,345.31 450,345.81 445.91,346.94 441.78,347.97 437.66,348.97 433.81,350.28 433.56,350.34 429.44,351.47 425.31,352.5 421.22,353.34 417.09,353.69 412.97,353.84 408.88,353.78 404.75,353.56 400.62,353.22 396.53,352.81 392.41,352.38 388.31,351.97 384.19,352.06 380.06,352.16 375.97,352.12 371.84,351.88 367.72,351.09 364.31,350.28 363.62,350.09 359.5,348.81 355.38,347.38 351.28,345.91 349.69,345.31 347.16,344.31 343.03,342.72 338.94,341.12 337.28,340.41 334.81,339.25 330.69,337.25 327.03,335.5 326.59,335.28 322.47,333.28 319.5,332.28 " stroke="red" stroke-width="0.96875" stroke-linecap="round" stroke-linejoin="round" />
<polyline points="295.84,323.06 293.69,322.06 291.12,321 289.56,320.28 285.44,318.62 281.34,317.12 278.59,316.22 277.22,315.72 273.09,314.28 269,312.72 265.16,311.44 264.88,311.34 260.75,310.12 256.66,309.09 252.53,308.41 248.41,307.75 244.31,307.12 241.88,306.72 240.19,306.41 236.06,305.16 231.97,304.06 227.84,303.16 223.72,302.5 219.62,302.34 215.5,302.44 211.41,302.78 207.28,303.41 203.16,304.28 199.06,305.25 194.94,306.22 192.75,306.72 190.81,307.06 186.72,307.47 182.59,307.84 178.47,308.22 174.38,308.72 170.25,309.69 166.12,310.91 164.56,311.44 162.03,312.19 157.91,313.5 153.78,314.66 149.69,315.88 148.56,316.22 145.56,317.06 141.44,318.28 137.34,319.53 133.22,320.88 132.88,321 129.12,322.22 125,323.66 120.88,325.16 119.16,325.81 116.78,326.66 112.66,328.16 108.53,329.69 106.31,330.66 104.44,331.47 100.31,333.12 96.188,334.59 93.125,335.5 92.094,335.78 87.969,336.47 83.844,337.06 79.75,337.59 75.625,338.16 71.5,339.09 67.406,340 65.438,340.41 63.281,340.78 59.188,341.41 55.062,341.72 50.938,341.84 46.844,341.78 42.719,341.56 38.594,341.12 34.5,340.5 33.875,340.41 30.375,339.69 26.25,338.72 22.156,337.56 18.031,336.31 " stroke="red" stroke-width="0.96875" stroke-linecap="round" stroke-linejoin="round" />
<polyline points="295.53,326.03 296.41,325.16 298.16,325.16 299.03,326.03 299.03,327.78 298.16,328.66 295.53,328.66 295.53,330.41 299.03,330.41 " stroke="red" stroke-width="0.71875" stroke-linecap="round" stroke-linejoin="round" />
<polygon points="302.53,330.41 301.66,329.53 301.66,328.66 302.53,327.78 304.28,327.78 305.16,328.66 305.16,329.53 304.28,330.41 " stroke="red" stroke-width="0.71875" stroke-linejoin="round" />
<polyline points="302.53,327.78 301.66,326.91 301.66,326.03 302.53,325.16 304.28,325.16 305.16,326.03 305.16,326.91 304.28,327.78 " stroke="red" stroke-width="0.71875" stroke-linecap="round" stroke-linejoin="round" />
<polyline points="307.78,329.53 308.66,330.41 310.41,330.41 311.28,329.53 311.28,328.66 307.78,325.16 311.28,325.16 " stroke="red" stroke-width="0.71875" stroke-linecap="round" stroke-linejoin="round" />
<polygon points="314.78,330.41 313.91,329.53 313.91,326.03 314.78,325.16 316.53,325.16 317.41,326.03 317.41,329.53 316.53,330.41 " stroke="red" stroke-width="0.71875" stroke-linejoin="round" />
</g>
</svg>
