<?xml version="1.0" encoding="ISO-8859-1" standalone="no"?>
<!DOCTYPE svg PUBLIC "-//W3C//DTD SVG 1.1//EN" "http://www.w3.org/Graphics/SVG/1.1/DTD/svg11.dtd">
<svg version="1.1" baseProfile="full" id="body" width="900px" height="600px" viewBox="0 0.2 1 0.55" preserveAspectRatio="none" xmlns="http://www.w3.org/2000/svg" xmlns:xlink="http://www.w3.org/1999/xlink" xmlns:ev="http://www.w3.org/2001/xml-events">
<title>SVG drawing</title>
<desc>This was produced by version 4.2 of GNU libplot, a free library for exporting 2-D vector graphics.</desc>
<rect id="background" x="0" y="0" width="1" height="1" stroke="none" fill="none"/>
<g id="content" transform="translate(-0.03125,1.1875) scale(1,-1) scale(0.0017361) " xml:space="preserve" stroke="black" stroke-linecap="butt" stroke-linejoin="miter" stroke-miterlimit="10.433" stroke-dasharray="none" stroke-dashoffset="0" stroke-opacity="1" fill="none" fill-rule="even-odd" fill-opacity="1" font-style="normal" font-variant="normal" font-weight="normal" font-stretch="normal" font-size-adjust="none" letter-spacing="normal" word-spacing="normal" text-anchor="start">
<polyline points="183.84,568.66 183.91,568.62 186.72,567.12 190.81,565.19 194.94,563.91 199.06,562.94 203.16,562.22 206.88,561.84 207.28,561.78 208.25,561.84 211.41,561.97 215.5,562.28 219.62,562.62 223.72,562.81 227.84,562.25 229.97,561.84 231.97,561.44 234.94,560.72 " stroke="red" stroke-width="0.96875" stroke-linecap="round" stroke-linejoin="round" />
<polyline points="261.91,552.06 264.88,551.34 269,550.72 273.09,550.44 277.22,550.56 281.34,550.97 285.44,551.69 289.56,552.75 293.69,554.56 294.72,555.12 297.78,557.34 301.91,560.38 303.94,561.84 306.03,563.41 310.12,565.94 314.25,568.25 314.94,568.62 315,568.66 " stroke="red" stroke-width="0.96875" stroke-linecap="round" stroke-linejoin="round" />
<polyline points="237.91,554.72 238.78,553.84 240.53,553.84 241.41,554.72 241.41,556.47 240.53,557.34 237.91,557.34 237.91,559.09 241.41,559.09 " stroke="red" stroke-width="0.71875" stroke-linecap="round" stroke-linejoin="round" />
<polyline points="244.03,558.22 244.91,559.09 246.66,559.09 247.53,558.22 247.53,557.34 244.03,553.84 247.53,553.84 " stroke="red" stroke-width="0.71875" stroke-linecap="round" stroke-linejoin="round" />
<polygon points="251.03,559.09 250.16,558.22 250.16,557.34 251.03,556.47 252.78,556.47 253.66,557.34 253.66,558.22 252.78,559.09 " stroke="red" stroke-width="0.71875" stroke-linejoin="round" />
<polyline points="251.03,556.47 250.16,555.59 250.16,554.72 251.03,553.84 252.78,553.84 253.66,554.72 253.66,555.59 252.78,556.47 " stroke="red" stroke-width="0.71875" stroke-linecap="round" stroke-linejoin="round" />
<polygon points="257.16,559.09 256.28,558.22 256.28,554.72 257.16,553.84 258.91,553.84 259.78,554.72 259.78,558.22 258.91,559.09 " stroke="red" stroke-width="0.71875" stroke-linejoin="round" />
<polyline points="529.06,568.66 529.06,568.62 532.12,561.84 532.28,561.5 535.47,555.12 536.41,553.5 539.34,548.47 540.53,546.44 543.28,541.91 544.62,539.62 547.38,535.38 548.75,533.28 549.06,532.91 " stroke="red" stroke-width="0.96875" stroke-linecap="round" stroke-linejoin="round" />
<polyline points="566.34,528.12 568.06,528.97 569.31,529.47 573.44,531.75 577.53,534.5 578.66,535.38 581.66,537.66 585.78,541.12 586.66,541.91 589.88,544.59 594,548.47 " stroke="red" stroke-width="0.96875" stroke-linecap="round" stroke-linejoin="round" />
<polyline points="542.38,526.44 543.25,525.56 545,525.56 545.88,526.44 545.88,528.19 545,529.06 542.38,529.06 542.38,530.81 545.88,530.81 " stroke="red" stroke-width="0.71875" stroke-linecap="round" stroke-linejoin="round" />
<polyline points="548.5,529.94 549.38,530.81 551.12,530.81 552,529.94 552,529.06 548.5,525.56 552,525.56 " stroke="red" stroke-width="0.71875" stroke-linecap="round" stroke-linejoin="round" />
<polygon points="555.5,530.81 554.62,529.94 554.62,529.06 555.5,528.19 557.25,528.19 558.12,529.06 558.12,529.94 557.25,530.81 " stroke="red" stroke-width="0.71875" stroke-linejoin="round" />
<polyline points="555.5,528.19 554.62,527.31 554.62,526.44 555.5,525.56 557.25,525.56 558.12,526.44 558.12,527.31 557.25,528.19 " stroke="red" stroke-width="0.71875" stroke-linecap="round" stroke-linejoin="round" />
<polygon points="561.62,530.81 560.75,529.94 560.75,526.44 561.62,525.56 563.38,525.56 564.25,526.44 564.25,529.94 563.38,530.81 " stroke="red" stroke-width="0.71875" stroke-linejoin="round" />
<polyline points="345.94,568.66 345.88,568.62 343.03,567.28 338.94,565.19 334.81,562.69 333.44,561.84 330.69,560.16 326.59,557.66 322.47,555.19 322.34,555.12 318.34,552.78 314.25,550.41 310.91,548.47 310.12,548.03 306.03,545.78 301.91,543.59 298.31,541.91 297.78,541.66 293.69,540 289.56,538.59 285.44,537.44 281.34,536.41 277.22,535.47 276.91,535.38 273.09,534.59 269,533.91 264.88,533.28 260.75,532.75 256.66,532.34 252.53,532.09 248.41,532.06 244.31,532.22 240.19,532.59 236.06,533.25 231.97,534.03 227.84,534.97 225.97,535.38 223.72,535.97 219.62,536.81 215.5,537.59 211.41,538.31 207.41,539 " stroke="red" stroke-width="0.96875" stroke-linecap="round" stroke-linejoin="round" />
<polyline points="180.47,545.91 178.47,546.59 174.38,548.09 173.28,548.47 170.25,549.59 166.12,551.12 162.03,552.72 157.91,554.31 155.78,555.12 153.78,555.97 149.69,557.69 145.56,559.41 141.44,561.06 139.28,561.84 137.34,562.59 133.22,564.06 129.12,565.47 125,566.81 120.88,568.12 119.19,568.62 119.09,568.66 " stroke="red" stroke-width="0.96875" stroke-linecap="round" stroke-linejoin="round" />
<polyline points="64.5,568.66 64.438,568.62 63.281,567.91 59.188,564.88 55.062,562.12 54.625,561.84 50.938,559.56 46.844,557.06 43.562,555.12 42.719,554.62 38.594,552.09 34.5,549.5 32.844,548.47 30.375,547 26.25,544.5 22.156,542.09 21.781,541.91 18.031,539.72 " stroke="red" stroke-width="0.96875" stroke-linecap="round" stroke-linejoin="round" />
<polyline points="183.44,540.16 184.31,539.28 186.06,539.28 186.94,540.16 186.94,541.91 186.06,542.78 183.44,542.78 183.44,544.53 186.94,544.53 " stroke="red" stroke-width="0.71875" stroke-linecap="round" stroke-linejoin="round" />
<polyline points="189.56,543.66 190.44,544.53 192.19,544.53 193.06,543.66 193.06,542.78 192.19,541.91 191.31,541.91 192.19,541.91 193.06,541.03 193.06,540.16 192.19,539.28 190.44,539.28 189.56,540.16 " stroke="red" stroke-width="0.71875" stroke-linecap="round" stroke-linejoin="round" />
<polyline points="197.44,544.53 195.69,541.91 199.19,541.91 199.19,544.53 199.19,539.28 " stroke="red" stroke-width="0.71875" stroke-linecap="round" stroke-linejoin="round" />
<polygon points="202.69,544.53 201.81,543.66 201.81,540.16 202.69,539.28 204.44,539.28 205.31,540.16 205.31,543.66 204.44,544.53 " stroke="red" stroke-width="0.71875" stroke-linejoin="round" />
<polyline points="492.28,568.66 492.31,568.62 495.25,563.94 496.5,561.84 499.38,556.59 500.16,555.12 503.34,548.47 503.5,548.19 507.09,541.91 507.59,541 511.16,535.38 511.72,534.53 515.44,528.97 515.84,528.28 518.94,522.59 519.94,520.44 521.91,516.28 524.06,511.78 524.94,510.06 528.19,503.97 528.25,503.88 529.09,502.47 " stroke="red" stroke-width="0.96875" stroke-linecap="round" stroke-linejoin="round" />
<polyline points="534.94,493.03 535.75,491.69 536.41,490.72 540.53,486.41 541.66,485.69 544.62,484.22 548.75,483.22 552.88,482.97 556.97,482.34 561.09,482.38 565.19,483.31 569.31,485.53 569.44,485.69 573.44,490.06 574.75,491.69 577.53,494.97 579.81,497.75 581.66,499.94 584.81,503.88 585.78,505.09 589.34,510.06 589.88,510.75 593.78,516.28 594,516.59 " stroke="red" stroke-width="0.96875" stroke-linecap="round" stroke-linejoin="round" />
<polyline points="521.47,496 522.34,495.12 524.09,495.12 524.97,496 524.97,497.75 524.09,498.62 521.47,498.62 521.47,500.38 524.97,500.38 " stroke="red" stroke-width="0.71875" stroke-linecap="round" stroke-linejoin="round" />
<polyline points="527.59,499.5 528.47,500.38 530.22,500.38 531.09,499.5 531.09,498.62 530.22,497.75 529.34,497.75 530.22,497.75 531.09,496.88 531.09,496 530.22,495.12 528.47,495.12 527.59,496 " stroke="red" stroke-width="0.71875" stroke-linecap="round" stroke-linejoin="round" />
<polyline points="535.47,500.38 533.72,497.75 537.22,497.75 537.22,500.38 537.22,495.12 " stroke="red" stroke-width="0.71875" stroke-linecap="round" stroke-linejoin="round" />
<polygon points="540.72,500.38 539.84,499.5 539.84,496 540.72,495.12 542.47,495.12 543.34,496 543.34,499.5 542.47,500.38 " stroke="red" stroke-width="0.71875" stroke-linejoin="round" />
<polyline points="594,487.81 592.47,485.69 589.88,482.34 587.81,479.75 585.78,477.31 583.09,473.84 581.66,472 578.47,468 577.53,466.84 573.53,462.19 573.44,462.06 569.31,458.09 566.12,456.47 565.19,456.03 561.09,454.72 556.97,453.81 552.88,453.34 548.75,452.56 544.62,452.31 540.53,452.69 536.41,453.72 532.28,455.72 531.12,456.47 528.19,458.88 525.09,462.19 524.06,463.56 521.22,468 519.94,470.25 517.94,473.84 515.84,477.44 514.38,479.75 511.72,483.81 510.53,485.69 507.59,490.91 507.19,491.69 504.31,497.75 503.5,499.56 501.53,503.88 499.38,507.56 497.91,510.06 495.25,514.41 494.12,516.28 491.16,521.28 490.38,522.59 487.03,528.38 486.69,528.97 483.12,535.38 482.91,535.78 479.22,541.91 478.81,542.56 474.69,548.41 474.62,548.47 470.56,553.28 468.56,555.12 466.47,556.94 462.34,559.91 459.12,561.84 458.25,562.34 454.12,564.25 450,565.66 445.91,566.69 441.78,567.38 437.66,567.81 433.56,568.16 429.44,568.34 425.31,568.34 421.22,568.19 417.09,567.84 412.97,567.34 408.88,566.72 404.75,565.91 400.62,564.97 396.53,563.88 392.41,562.72 389.5,561.84 388.31,561.47 384.19,560.19 380.06,558.91 375.97,557.62 371.84,556.38 367.72,555.22 367.41,555.12 363.62,554 359.5,552.69 356.25,551.59 " stroke="red" stroke-width="0.96875" stroke-linecap="round" stroke-linejoin="round" />
<polyline points="331.94,542.16 331.38,541.91 330.69,541.59 326.59,539.75 322.47,537.91 318.34,535.97 317.09,535.38 314.25,534.06 310.12,532.22 306.03,530.53 301.91,529.12 301.38,528.97 297.78,527.62 293.69,526.19 289.56,524.81 285.44,523.5 282.34,522.59 281.34,522.28 277.22,521.16 273.09,520.16 269,519.28 264.88,518.47 260.75,517.78 256.66,517.22 252.53,516.81 248.41,516.56 244.31,516.41 240.19,516.38 236.06,516.56 231.97,516.84 227.84,517.25 223.72,517.75 219.62,518.25 215.5,518.84 211.41,519.5 207.28,520.22 203.16,521 199.06,521.78 195.03,522.59 194.94,522.59 190.81,523.41 186.72,524.12 182.59,524.81 178.47,525.53 174.38,526.25 170.25,527 166.12,527.72 162.03,528.38 158.03,528.97 157.91,528.97 153.78,529.28 149.69,529.53 145.56,529.78 141.44,530.03 137.34,530.62 133.22,531.25 129.12,531.84 125,532.34 120.88,532.53 116.78,532.53 112.66,532.34 108.53,531.94 104.44,531.19 100.31,530.12 96.938,528.97 96.188,528.72 92.094,527.16 87.969,525.34 83.844,523.47 81.844,522.59 79.75,521.75 75.625,520.19 71.5,519.25 67.406,518.38 63.281,517.41 59.469,516.28 59.188,516.19 55.062,514.47 50.938,512.59 46.844,510.66 45.562,510.06 42.719,508.78 38.594,506.69 34.5,504.53 33.219,503.88 30.375,502.53 26.25,500.78 22.156,499.41 18.031,498.22 " stroke="red" stroke-width="0.96875" stroke-linecap="round" stroke-linejoin="round" />
<polyline points="332.53,545.12 333.41,544.25 335.16,544.25 336.03,545.12 336.03,546.88 335.16,547.75 332.53,547.75 332.53,549.5 336.03,549.5 " stroke="red" stroke-width="0.71875" stroke-linecap="round" stroke-linejoin="round" />
<polyline points="340.41,549.5 338.66,546.88 342.16,546.88 342.16,549.5 342.16,544.25 " stroke="red" stroke-width="0.71875" stroke-linecap="round" stroke-linejoin="round" />
<polygon points="345.66,549.5 344.78,548.62 344.78,545.12 345.66,544.25 347.41,544.25 348.28,545.12 348.28,548.62 347.41,549.5 " stroke="red" stroke-width="0.71875" stroke-linejoin="round" />
<polygon points="351.78,549.5 350.91,548.62 350.91,545.12 351.78,544.25 353.53,544.25 354.41,545.12 354.41,548.62 353.53,549.5 " stroke="red" stroke-width="0.71875" stroke-linejoin="round" />
<polyline points="594,466.03 590.47,462.19 589.88,461.59 585.78,457.34 585.03,456.47 581.66,452.78 579.72,450.75 577.53,448.59 573.72,445.12 573.44,444.88 569.31,441.66 565.75,439.5 565.19,439.19 561.09,437.06 556.97,435.19 553.69,433.97 552.88,433.72 548.75,433.19 544.62,433.09 540.53,433.44 537.78,433.97 536.41,434.28 532.28,435.88 528.19,437.91 525.44,439.5 524.06,440.41 519.94,443.5 518.25,445.12 515.84,447.72 513.34,450.75 511.72,453 509.31,456.47 507.59,459.03 505.34,462.19 503.5,464.72 500.72,468 499.38,469.66 495.94,473.84 495.25,474.72 491.41,479.75 491.16,480.19 487.78,485.69 487.03,487 483.97,491.69 482.91,493.38 480.06,497.75 478.81,499.72 476.03,503.88 474.69,505.75 471.44,510.06 470.56,511.22 466.47,515.84 466.03,516.28 462.34,519.88 459.09,522.59 458.25,523.28 454.12,526.16 450,528.59 449.25,528.97 445.91,530.53 441.78,532.16 437.66,533.56 433.56,534.97 432.09,535.38 429.44,536.12 425.31,537.06 421.22,537.72 417.09,538 412.97,538.06 408.88,537.94 404.75,537.66 400.62,537.22 396.53,536.69 392.41,536.06 388.31,535.38 384.19,534.81 380.06,534.19 375.97,533.47 371.84,532.62 367.72,531.47 363.62,530.22 360.62,529.22 " stroke="red" stroke-width="0.96875" stroke-linecap="round" stroke-linejoin="round" />
<polyline points="333.69,521.06 330.69,520.16 326.59,518.84 322.47,517.56 318.75,516.28 318.34,516.16 314.25,514.72 310.12,513.34 306.03,512.06 301.91,510.75 299.66,510.06 297.78,509.44 293.69,508.16 289.56,507.03 285.44,506.31 281.34,505.75 277.22,505.31 273.09,504.91 269,504.38 264.88,503.88 264.81,503.88 260.75,503.31 256.66,502.81 252.53,502.41 248.41,502.09 244.31,501.88 240.19,501.72 236.06,501.69 231.97,501.75 227.84,501.84 223.72,501.97 219.62,502.03 215.5,502.06 211.41,502.16 207.28,502.31 203.16,502.66 199.06,503.06 194.94,503.47 190.81,503.84 190.16,503.88 186.72,504 182.59,504.12 178.47,504.22 174.38,504.31 170.25,504.44 166.12,504.56 162.03,504.69 157.91,504.75 153.78,504.75 149.69,504.69 145.56,504.53 141.44,504.25 138.38,503.88 137.34,503.72 133.22,503.09 129.12,502.41 125,501.69 120.88,501 116.78,500.25 112.66,499.41 108.53,498.47 105.25,497.75 104.44,497.56 100.31,496.66 96.188,495.72 92.094,494.66 87.969,493.34 83.844,491.94 83.156,491.69 79.75,490.56 75.625,489.25 71.5,488.22 67.406,487.25 63.281,486.28 60.969,485.69 59.188,485.28 55.062,483.97 50.938,482.59 46.844,481.19 42.719,479.81 42.375,479.75 38.594,478.97 34.5,478.19 30.375,477.47 26.25,476.75 22.156,476.03 18.031,475.34 " stroke="red" stroke-width="0.96875" stroke-linecap="round" stroke-linejoin="round" />
<polyline points="336.66,523.31 337.53,522.44 339.28,522.44 340.16,523.31 340.16,525.06 339.28,525.94 336.66,525.94 336.66,527.69 340.16,527.69 " stroke="red" stroke-width="0.71875" stroke-linecap="round" stroke-linejoin="round" />
<polyline points="344.53,527.69 342.78,525.06 346.28,525.06 346.28,527.69 346.28,522.44 " stroke="red" stroke-width="0.71875" stroke-linecap="round" stroke-linejoin="round" />
<polyline points="352.41,526.81 351.53,527.69 349.78,527.69 348.91,526.81 348.91,523.31 349.78,522.44 351.53,522.44 352.41,523.31 352.41,524.19 351.53,525.06 348.91,525.06 " stroke="red" stroke-width="0.71875" stroke-linecap="round" stroke-linejoin="round" />
<polygon points="355.91,527.69 355.03,526.81 355.03,523.31 355.91,522.44 357.66,522.44 358.53,523.31 358.53,526.81 357.66,527.69 " stroke="red" stroke-width="0.71875" stroke-linejoin="round" />
<polyline points="594,447.41 591.31,445.12 589.88,443.97 585.78,440.72 584.47,439.5 581.66,437.06 577.91,433.97 577.53,433.69 573.44,430.72 569.72,428.44 569.31,428.22 565.19,426.16 561.09,424.41 556.97,423 556.84,422.97 552.88,421.94 548.75,421.41 544.62,421.22 540.53,421.31 536.41,421.75 532.28,422.62 531.06,422.97 528.19,423.84 524.06,425.41 519.94,427.34 517.97,428.44 515.84,429.72 511.72,432.56 509.88,433.97 507.59,436.09 504.28,439.5 503.5,440.44 499.38,444.72 498.97,445.12 495.25,449.25 493.88,450.75 491.16,453.91 488.88,456.47 487.03,458.28 482.94,462.19 482.91,462.22 478.81,466 476.53,468 474.69,469.66 470.56,473.25 469.91,473.84 466.47,477.03 463.47,479.75 462.34,480.88 458.25,484.81 457.19,485.69 454.12,488.34 450,491.38 449.5,491.69 445.91,494.03 441.78,496.41 439.19,497.75 437.66,498.53 433.56,500.59 429.44,502.47 426.03,503.88 425.31,504.16 421.22,505.62 417.09,506.81 412.97,507.75 408.88,508.44 404.75,508.91 400.62,509.16 396.53,509.22 392.41,509.06 388.31,508.72 384.19,508.06 380.06,507.25 375.97,506.28 371.84,505.19 367.72,504.25 366.16,503.88 363.62,503.31 359.5,502.34 356.53,501.62 " stroke="red" stroke-width="0.96875" stroke-linecap="round" stroke-linejoin="round" />
<polyline points="329.56,493.62 326.59,492.72 323.19,491.69 322.47,491.47 318.34,490.25 314.25,489.09 310.12,488 306.03,487 301.91,486.09 299.53,485.69 297.78,485.38 293.69,484.84 289.56,484.5 285.44,484.56 281.34,484.72 277.22,484.88 273.09,484.97 269,484.62 264.88,484.25 260.75,483.81 256.66,483.41 252.53,483.19 248.41,483 244.31,482.84 240.19,482.72 236.06,482.62 231.97,482.5 227.84,482.38 223.72,482.19 219.62,481.78 215.5,481.38 211.41,480.97 207.28,480.59 203.16,480.5 199.06,480.47 194.94,480.53 190.81,480.66 186.72,480.91 182.59,481.16 178.47,481.31 174.38,481.34 170.25,480.94 166.12,480.38 162.03,479.75 161.94,479.75 157.91,479.16 153.78,478.81 149.69,478.53 145.56,478.28 141.44,478.09 137.34,478.06 133.22,478 129.12,477.81 125,477.47 120.88,476.59 116.78,475.59 112.66,474.59 109.5,473.84 108.53,473.62 104.44,473.03 100.31,472.47 96.188,471.91 92.094,471.31 87.969,470.41 83.844,469.47 79.75,468.53 77.219,468 75.625,467.66 71.5,467.03 67.406,466.47 63.281,465.91 59.188,465.31 55.062,464.62 50.938,463.94 46.844,463.28 42.719,462.66 39.781,462.19 38.594,462.03 34.5,461.41 30.375,460.81 26.25,460.25 22.156,459.78 18.031,459.38 " stroke="red" stroke-width="0.96875" stroke-linecap="round" stroke-linejoin="round" />
<polyline points="332.53,495.97 333.41,495.09 335.16,495.09 336.03,495.97 336.03,497.72 335.16,498.59 332.53,498.59 332.53,500.34 336.03,500.34 " stroke="red" stroke-width="0.71875" stroke-linecap="round" stroke-linejoin="round" />
<polyline points="338.66,495.97 339.53,495.09 341.28,495.09 342.16,495.97 342.16,497.72 341.28,498.59 338.66,498.59 338.66,500.34 342.16,500.34 " stroke="red" stroke-width="0.71875" stroke-linecap="round" stroke-linejoin="round" />
<polyline points="344.78,499.47 345.66,500.34 347.41,500.34 348.28,499.47 348.28,498.59 344.78,495.09 348.28,495.09 " stroke="red" stroke-width="0.71875" stroke-linecap="round" stroke-linejoin="round" />
<polygon points="351.78,500.34 350.91,499.47 350.91,495.97 351.78,495.09 353.53,495.09 354.41,495.97 354.41,499.47 353.53,500.34 " stroke="red" stroke-width="0.71875" stroke-linejoin="round" />
<polyline points="594,428.62 593.72,428.44 589.88,426.22 585.78,423.94 584.22,422.97 581.66,421.41 577.53,419.12 574.25,417.53 573.44,417.16 569.31,415.38 565.19,413.78 561.09,412.47 559.97,412.16 556.97,411.12 552.88,410.03 548.75,409.41 544.62,409.06 540.53,408.97 536.41,409.16 532.28,409.72 528.19,410.56 524.06,411.69 522.72,412.16 519.94,413 515.84,414.47 511.72,416.28 509.16,417.53 507.59,418.31 503.5,420.59 499.38,422.88 499.22,422.97 495.25,425.25 491.16,427.75 490.06,428.44 487.03,430.44 482.91,433.5 482.34,433.97 478.81,437.19 476.22,439.5 474.69,440.94 470.56,444.5 469.78,445.12 466.47,447.69 462.34,450.66 462.22,450.75 458.25,453.44 454.12,456.06 453.47,456.47 450,458.59 445.91,460.97 443.59,462.19 441.78,463.19 437.66,465.22 433.56,467.06 431.25,468 429.44,468.75 425.31,470.28 421.22,471.66 417.09,472.91 413.72,473.84 412.97,474.03 408.88,475.03 404.75,475.91 400.62,476.81 396.53,477.56 392.41,478.12 388.31,478.47 384.19,478.38 380.06,478.06 375.97,477.56 371.84,476.94 367.72,476.28 363.62,475.53 359.5,474.69 355.72,473.84 355.38,473.75 351.28,472.72 348.28,471.94 " stroke="red" stroke-width="0.96875" stroke-linecap="round" stroke-linejoin="round" />
<polyline points="321.34,464.19 318.34,463.44 314.25,462.47 313.06,462.19 310.12,461.56 306.03,460.72 301.91,459.97 297.78,459.25 293.69,458.59 289.56,457.94 285.44,457.31 281.34,456.72 279.44,456.47 277.22,456.22 273.09,455.88 269,455.75 264.88,455.75 260.75,455.78 256.66,455.91 252.53,456.06 248.41,456.22 244.31,456.31 240.19,456.34 236.06,456 231.97,455.56 227.84,455.09 223.72,454.72 219.62,454.84 215.5,455.03 211.41,455.16 207.28,455.19 203.16,454.53 199.06,453.84 194.94,453.22 190.81,452.72 186.72,452.91 182.59,453.25 178.47,453.72 174.38,454.25 170.25,454.59 166.12,454.81 162.03,454.88 157.91,454.75 153.78,454.16 149.69,453.47 145.56,452.75 141.44,452.09 137.34,451.84 133.22,451.69 129.12,451.56 125,451.47 120.88,451.28 116.78,451.09 112.66,450.91 109.34,450.75 108.53,450.72 104.44,450.69 100.31,450.62 96.188,450.53 92.094,450.34 87.969,449.88 83.844,449.38 79.75,448.88 75.625,448.41 71.5,448.16 67.406,447.94 63.281,447.78 59.188,447.62 55.062,447.47 50.938,447.31 46.844,447.16 42.719,446.97 38.594,446.66 34.5,446.34 30.375,446.09 26.25,445.84 22.156,445.75 18.031,445.69 " stroke="red" stroke-width="0.96875" stroke-linecap="round" stroke-linejoin="round" />
<polyline points="324.31,466.34 325.19,465.47 326.94,465.47 327.81,466.34 327.81,468.09 326.94,468.97 324.31,468.97 324.31,470.72 327.81,470.72 " stroke="red" stroke-width="0.71875" stroke-linecap="round" stroke-linejoin="round" />
<polyline points="330.44,466.34 331.31,465.47 333.06,465.47 333.94,466.34 333.94,468.09 333.06,468.97 330.44,468.97 330.44,470.72 333.94,470.72 " stroke="red" stroke-width="0.71875" stroke-linecap="round" stroke-linejoin="round" />
<polygon points="337.44,470.72 336.56,469.84 336.56,468.97 337.44,468.09 339.19,468.09 340.06,468.97 340.06,469.84 339.19,470.72 " stroke="red" stroke-width="0.71875" stroke-linejoin="round" />
<polyline points="337.44,468.09 336.56,467.22 336.56,466.34 337.44,465.47 339.19,465.47 340.06,466.34 340.06,467.22 339.19,468.09 " stroke="red" stroke-width="0.71875" stroke-linecap="round" stroke-linejoin="round" />
<polygon points="343.56,470.72 342.69,469.84 342.69,466.34 343.56,465.47 345.31,465.47 346.19,466.34 346.19,469.84 345.31,470.72 " stroke="red" stroke-width="0.71875" stroke-linejoin="round" />
<polyline points="594,405.22 589.88,404 585.78,402.78 581.66,401.5 581.59,401.47 577.53,400.19 573.44,398.94 569.31,397.81 565.19,396.53 564.03,396.22 561.09,395.31 556.97,394.25 552.88,393.38 548.75,392.88 544.62,392.56 540.53,392.41 536.41,392.44 532.28,392.66 528.19,393.06 524.06,393.66 519.94,394.44 515.84,395.41 513,396.22 511.72,396.56 507.59,397.81 503.5,399.25 499.38,400.75 497.53,401.47 495.25,402.38 491.16,404.06 487.03,405.94 485.12,406.78 482.91,407.75 478.81,409.56 474.69,411.5 473.31,412.16 470.56,413.34 466.47,415.34 462.34,417.47 462.22,417.53 458.25,419.56 454.12,421.72 451.69,422.97 450,423.81 445.91,425.81 441.78,427.75 440.22,428.44 437.66,429.53 433.56,431.28 429.44,432.94 426.72,433.97 425.31,434.41 421.22,435.59 417.09,436.53 412.97,437.28 408.88,437.84 404.75,438.28 400.62,438.5 396.53,438.62 392.41,438.72 388.31,438.78 384.19,439.06 380.06,439.38 377.91,439.5 375.97,439.62 371.84,439.81 367.72,439.88 363.62,439.84 359.5,439.75 355.38,439.56 354.66,439.5 351.28,439.25 347.16,438.88 343.03,438.47 338.94,438.03 335.94,437.78 " stroke="red" stroke-width="0.96875" stroke-linecap="round" stroke-linejoin="round" />
<polyline points="309,434.06 308.31,433.97 306.03,433.53 301.91,432.94 297.78,432.41 293.69,431.94 289.56,431.5 285.44,431.16 281.34,430.81 277.22,430.44 273.09,430.03 269,429.44 264.88,428.78 262.78,428.44 260.75,428.06 256.66,427.28 252.53,426.41 248.41,425.53 244.31,424.72 240.19,424.03 236.06,423.94 231.97,423.94 227.84,424 223.72,424 219.62,423.56 215.5,423.03 215.09,422.97 211.41,422.41 207.28,421.78 203.16,422.03 199.06,422.44 194.94,422.84 192.97,422.97 190.81,423.09 189.94,422.97 186.72,422.5 182.59,421.78 178.47,421.09 174.38,420.5 170.25,420.66 166.12,420.97 162.03,421.38 157.91,421.78 153.78,421.53 149.69,421.22 145.56,420.88 141.44,420.59 137.34,420.59 133.22,420.72 129.12,420.94 125,421.22 120.88,421.69 116.78,422.19 112.66,422.66 109.62,422.97 108.53,423.06 104.44,423.22 100.31,423.38 96.188,423.59 92.094,423.91 87.969,424.66 83.844,425.38 79.75,426 75.625,426.53 71.5,426.75 67.406,426.97 63.281,427.19 59.188,427.44 55.062,427.94 51.031,428.44 50.938,428.44 46.844,428.88 42.719,429.28 38.594,429.53 34.5,429.78 30.375,430 26.25,430.22 22.156,430.53 18.031,430.84 " stroke="red" stroke-width="0.96875" stroke-linecap="round" stroke-linejoin="round" />
<polyline points="311.97,434.69 312.84,433.81 314.59,433.81 315.47,434.69 315.47,436.44 314.59,437.31 311.97,437.31 311.97,439.06 315.47,439.06 " stroke="red" stroke-width="0.71875" stroke-linecap="round" stroke-linejoin="round" />
<polyline points="321.59,438.19 320.72,439.06 318.97,439.06 318.09,438.19 318.09,434.69 318.97,433.81 320.72,433.81 321.59,434.69 321.59,435.56 320.72,436.44 318.09,436.44 " stroke="red" stroke-width="0.71875" stroke-linecap="round" stroke-linejoin="round" />
<polyline points="325.97,439.06 324.22,436.44 327.72,436.44 327.72,439.06 327.72,433.81 " stroke="red" stroke-width="0.71875" stroke-linecap="round" stroke-linejoin="round" />
<polygon points="331.22,439.06 330.34,438.19 330.34,434.69 331.22,433.81 332.97,433.81 333.84,434.69 333.84,438.19 332.97,439.06 " stroke="red" stroke-width="0.71875" stroke-linejoin="round" />
<polyline points="594,367.97 589.88,368.19 585.78,368.28 581.66,368.28 577.53,368.19 573.44,368.09 569.31,367.94 565.19,367.97 561.09,367.97 556.97,367.91 552.88,367.78 548.75,367.38 544.62,366.94 540.53,366.53 536.41,366.16 532.28,365.97 528.19,365.88 524.06,365.84 519.94,365.88 515.84,366.03 511.72,366.25 507.59,366.53 503.5,366.88 499.38,367.28 495.25,367.75 491.16,368.25 487.03,368.81 482.91,369.44 478.81,370.06 476.78,370.38 474.69,370.66 470.56,371.19 466.47,371.38 462.34,371.44 458.25,371.41 454.12,371.31 450,371.41 445.91,371.41 441.78,371.31 437.66,371.06 433.78,370.38 433.56,370.31 429.44,369.09 425.31,367.66 421.22,366.22 417.19,365.28 417.09,365.28 412.97,364.59 408.88,364.25 404.75,364.12 400.62,364.06 396.53,364.22 392.41,364.75 390,365.28 388.31,365.66 384.19,366.91 380.06,368.38 375.97,370.06 375.34,370.38 371.84,372.06 367.72,375.34 367.59,375.47 363.62,379.38 362.44,380.59 359.5,383.75 357.53,385.78 355.38,387.78 351.28,390.03 348.88,390.97 347.16,391.5 343.03,392.34 338.94,392.88 334.81,393.28 330.69,393.53 326.59,393.59 323.59,393.59 " stroke="red" stroke-width="0.96875" stroke-linecap="round" stroke-linejoin="round" />
<polyline points="296.66,392.44 293.69,392.22 289.56,391.94 285.44,391.81 281.34,391.78 277.22,391.81 273.09,391.88 269,392.16 264.88,392.41 260.75,392.62 256.66,392.75 252.53,392.5 248.41,392.25 244.31,391.97 240.19,391.72 236.06,391.84 231.97,391.94 227.84,391.94 223.72,391.75 220.5,390.97 219.62,390.78 215.5,389.88 211.41,389 207.28,388.22 203.16,387.69 199.06,387.22 194.94,386.84 190.81,386.62 186.72,386.88 182.59,387.25 178.47,387.62 174.38,387.88 170.25,387.59 166.12,387.12 162.03,386.53 157.91,385.81 157.62,385.78 153.78,385.09 149.69,384.41 145.56,383.78 141.44,383.22 137.34,382.84 133.22,382.53 129.12,382.25 125,381.94 120.88,381.31 116.78,380.72 115.47,380.59 112.66,380.31 108.53,380.16 106,380.59 104.44,380.94 100.31,382.31 96.188,384.31 93.719,385.78 92.094,386.78 87.969,388.84 83.844,390.81 83.5,390.97 79.75,392.34 75.625,393.91 71.5,395.22 67.781,396.22 67.406,396.28 63.281,397.12 59.188,397.91 55.062,399 50.938,400.16 46.844,401.41 46.562,401.47 42.719,402.59 38.594,403.53 34.5,404.47 30.375,405.38 26.25,406.25 23.812,406.78 22.156,407.12 18.031,407.94 " stroke="red" stroke-width="0.96875" stroke-linecap="round" stroke-linejoin="round" />
<polyline points="299.62,391.62 300.5,390.75 302.25,390.75 303.12,391.62 303.12,393.38 302.25,394.25 299.62,394.25 299.62,396 303.12,396 " stroke="red" stroke-width="0.71875" stroke-linecap="round" stroke-linejoin="round" />
<polyline points="305.75,396 309.25,396 307.5,390.75 " stroke="red" stroke-width="0.71875" stroke-linecap="round" stroke-linejoin="round" />
<polygon points="312.75,396 311.88,395.12 311.88,391.62 312.75,390.75 314.5,390.75 315.38,391.62 315.38,395.12 314.5,396 " stroke="red" stroke-width="0.71875" stroke-linejoin="round" />
<polygon points="318.88,396 318,395.12 318,391.62 318.88,390.75 320.62,390.75 321.5,391.62 321.5,395.12 320.62,396 " stroke="red" stroke-width="0.71875" stroke-linejoin="round" />
<polyline points="594,304.84 589.88,304.78 585.78,304.56 581.66,304.81 577.53,305.25 573.44,305.91 570.28,306.72 569.31,306.94 565.19,308.81 561.09,310.56 558.62,311.44 556.97,312 552.88,312.97 548.75,313.34 544.62,313.47 540.53,313.41 536.41,313.19 532.28,312.84 528.19,312.38 524.06,311.75 522.34,311.44 519.94,311.03 515.84,310.34 511.72,309.59 507.59,308.69 503.5,307.62 499.75,306.72 499.38,306.62 495.25,305.25 491.16,303.41 488.75,302 487.03,300.91 483.56,297.31 482.91,296.59 479.5,292.62 478.81,291.91 474.75,287.97 474.69,287.94 470.56,284.69 467.44,283.34 466.47,282.97 462.34,281.53 458.25,280.19 454.19,278.75 454.12,278.72 450,276.59 445.91,274.41 445.47,274.16 441.78,271.78 438.41,269.59 437.66,269.12 433.56,266.44 431.16,265.03 429.44,264.16 425.31,262.34 421.22,261 418.97,260.5 417.09,260.16 412.97,259.69 408.88,259.44 404.75,259.44 400.62,259.47 396.53,259.75 392.41,260.31 391.59,260.5 388.31,261.31 384.19,263.38 381.62,265.03 380.06,266.19 376.22,269.59 375.97,269.84 371.94,274.16 371.84,274.28 367.72,278.41 367.38,278.75 363.62,282.91 363.19,283.34 359.5,287.91 359.44,287.97 355.84,292.62 355.38,293.28 351.44,297.31 351.28,297.47 347.16,300.94 345.66,302 343.03,303.84 341.12,304.97 " stroke="red" stroke-width="0.96875" stroke-linecap="round" stroke-linejoin="round" />
<polyline points="318.22,314.44 314.25,315.88 313.47,316.22 310.12,317.53 306.03,319.41 303.91,321 301.91,322.44 297.78,325.66 297.59,325.81 293.69,328.97 291.62,330.66 289.56,332.34 285.84,335.5 285.44,335.84 281.34,339.06 279.5,340.41 277.22,341.94 273.09,344.56 271.75,345.31 269,346.78 264.88,348.84 261.84,350.28 260.75,350.72 256.66,352.31 252.53,353.56 248.41,354.62 245.66,355.25 244.31,355.53 240.19,356.28 236.06,357 231.97,357.59 227.84,358.09 223.72,358.47 219.62,358.66 215.5,358.75 211.41,358.75 207.28,358.72 203.16,358.66 199.06,358.56 194.94,358.47 190.81,358.44 186.72,358.53 182.59,358.62 178.47,358.69 174.38,358.66 170.25,358.28 166.12,357.88 162.03,357.47 157.91,357.06 153.78,356.94 149.69,356.88 145.56,356.81 141.44,356.75 137.34,356.62 133.22,356.47 129.12,356.25 125,355.94 120.88,355.25 120.81,355.25 116.78,354.53 112.66,353.81 108.53,353.16 104.44,352.84 100.31,352.66 96.188,352.56 92.094,352.56 87.969,352.75 83.844,353 79.75,353.31 75.625,353.72 71.5,354.03 67.406,354.38 63.281,354.78 59.375,355.25 59.188,355.28 55.062,355.97 50.938,356.81 46.844,357.75 42.719,358.84 38.594,359.97 37.656,360.25 34.5,361.31 30.375,362.78 26.25,364.41 23.938,365.28 22.156,366.03 18.031,367.97 " stroke="red" stroke-width="0.96875" stroke-linecap="round" stroke-linejoin="round" />
<polyline points="320.19,307.94 321.06,307.06 322.81,307.06 323.69,307.94 323.69,309.69 322.81,310.56 320.19,310.56 320.19,312.31 323.69,312.31 " stroke="red" stroke-width="0.71875" stroke-linecap="round" stroke-linejoin="round" />
<polyline points="326.31,312.31 329.81,312.31 328.06,307.06 " stroke="red" stroke-width="0.71875" stroke-linecap="round" stroke-linejoin="round" />
<polyline points="335.94,311.44 335.06,312.31 333.31,312.31 332.44,311.44 332.44,307.94 333.31,307.06 335.06,307.06 335.94,307.94 335.94,308.81 335.06,309.69 332.44,309.69 " stroke="red" stroke-width="0.71875" stroke-linecap="round" stroke-linejoin="round" />
<polygon points="339.44,312.31 338.56,311.44 338.56,307.94 339.44,307.06 341.19,307.06 342.06,307.94 342.06,311.44 341.19,312.31 " stroke="red" stroke-width="0.71875" stroke-linejoin="round" />
<polyline points="311.03,247 311,247.03 310.12,247.75 306.03,251.19 305.66,251.5 301.91,254.47 300,256 297.78,257.69 294.28,260.5 293.69,261 289.56,264.56 289.03,265.03 285.44,268.38 284.22,269.59 281.34,272.5 279.75,274.16 277.22,276.5 274.75,278.75 273.09,280.19 269,283.25 268.84,283.34 264.88,286.16 262.28,287.97 260.75,289.06 256.66,292 255.78,292.62 252.53,294.94 249.28,297.31 248.41,297.91 244.31,300.81 242.62,302 240.19,303.59 236.06,306 234.66,306.72 231.97,307.97 227.84,309.66 223.72,311.09 222.56,311.44 219.62,312.47 215.5,313.75 212.53,314.53 " stroke="red" stroke-width="0.96875" stroke-linecap="round" stroke-linejoin="round" />
<polyline points="185.56,320.03 182.59,320.38 178.47,320.78 176.31,321 174.38,321.19 170.25,321.66 166.12,322.12 162.03,322.59 157.91,323.03 153.78,323.5 149.69,323.91 145.56,324.25 141.44,324.47 137.34,324.34 133.22,324.16 129.12,323.91 125,323.69 120.88,323.59 116.78,323.56 112.66,323.53 108.53,323.53 104.44,323.5 92.094,323.5 87.969,323.44 83.844,323.44 79.75,323.47 75.625,323.56 71.5,323.88 67.406,324.22 63.281,324.66 59.188,325.06 55.062,325.44 51.031,325.81 50.938,325.81 46.844,326.19 42.719,326.56 38.594,327 34.5,327.47 30.375,327.97 26.25,328.5 22.156,329.03 18.031,329.62 " stroke="red" stroke-width="0.96875" stroke-linecap="round" stroke-linejoin="round" />
<polyline points="188.56,316.03 189.44,315.16 191.19,315.16 192.06,316.03 192.06,317.78 191.19,318.66 188.56,318.66 188.56,320.41 192.06,320.41 " stroke="red" stroke-width="0.71875" stroke-linecap="round" stroke-linejoin="round" />
<polygon points="195.56,320.41 194.69,319.53 194.69,318.66 195.56,317.78 197.31,317.78 198.19,318.66 198.19,319.53 197.31,320.41 " stroke="red" stroke-width="0.71875" stroke-linejoin="round" />
<polyline points="195.56,317.78 194.69,316.91 194.69,316.03 195.56,315.16 197.31,315.16 198.19,316.03 198.19,316.91 197.31,317.78 " stroke="red" stroke-width="0.71875" stroke-linecap="round" stroke-linejoin="round" />
<polyline points="200.81,319.53 201.69,320.41 203.44,320.41 204.31,319.53 204.31,318.66 200.81,315.16 204.31,315.16 " stroke="red" stroke-width="0.71875" stroke-linecap="round" stroke-linejoin="round" />
<polygon points="207.81,320.41 206.94,319.53 206.94,316.03 207.81,315.16 209.56,315.16 210.44,316.03 210.44,319.53 209.56,320.41 " stroke="red" stroke-width="0.71875" stroke-linejoin="round" />
</g>
</svg>
