<?xml version="1.0" encoding="ISO-8859-1" standalone="no"?>
<!DOCTYPE svg PUBLIC "-//W3C//DTD SVG 1.1//EN" "http://www.w3.org/Graphics/SVG/1.1/DTD/svg11.dtd">
<svg version="1.1" baseProfile="full" id="body" width="900px" height="600px" viewBox="0 0.2 1 0.55" preserveAspectRatio="none" xmlns="http://www.w3.org/2000/svg" xmlns:xlink="http://www.w3.org/1999/xlink" xmlns:ev="http://www.w3.org/2001/xml-events">
<title>SVG drawing</title>
<desc>This was produced by version 4.2 of GNU libplot, a free library for exporting 2-D vector graphics.</desc>
<rect id="background" x="0" y="0" width="1" height="1" stroke="none" fill="none"/>
<g id="content" transform="translate(-0.03125,1.1875) scale(1,-1) scale(0.0017361) " xml:space="preserve" stroke="black" stroke-linecap="butt" stroke-linejoin="miter" stroke-miterlimit="10.433" stroke-dasharray="none" stroke-dashoffset="0" stroke-opacity="1" fill="none" fill-rule="even-odd" fill-opacity="1" font-style="normal" font-variant="normal" font-weight="normal" font-stretch="normal" font-size-adjust="none" letter-spacing="normal" word-spacing="normal" text-anchor="start">
<polyline points="499.28,568.66 499.28,568.62 499.38,568.41 502.25,564 " stroke="red" stroke-width="0.96875" stroke-linecap="round" stroke-linejoin="round" />
<polyline points="521.03,564 524.06,567.47 524.94,568.62 524.97,568.66 " stroke="red" stroke-width="0.96875" stroke-linecap="round" stroke-linejoin="round" />
<polyline points="501.22,557.5 502.09,556.62 503.84,556.62 504.72,557.5 504.72,559.25 503.84,560.12 501.22,560.12 501.22,561.88 504.72,561.88 " stroke="red" stroke-width="0.71875" stroke-linecap="round" stroke-linejoin="round" />
<polyline points="507.34,561 508.22,561.88 509.97,561.88 510.84,561 510.84,560.12 507.34,556.62 510.84,556.62 " stroke="red" stroke-width="0.71875" stroke-linecap="round" stroke-linejoin="round" />
<polyline points="513.47,561 514.34,561.88 516.09,561.88 516.97,561 516.97,560.12 513.47,556.62 516.97,556.62 " stroke="red" stroke-width="0.71875" stroke-linecap="round" stroke-linejoin="round" />
<polygon points="520.47,561.88 519.59,561 519.59,557.5 520.47,556.62 522.22,556.62 523.09,557.5 523.09,561 522.22,561.88 " stroke="red" stroke-width="0.71875" stroke-linejoin="round" />
<polyline points="166.19,568.66 166.16,568.62 166.12,568.59 162.03,563.44 160.78,561.84 157.91,559.66 153.78,559.59 149.69,560.59 146.91,561.84 145.56,562.84 141.44,566.25 137.34,568.16 136.38,568.62 136.34,568.66 " stroke="red" stroke-width="0.96875" stroke-linecap="round" stroke-linejoin="round" />
<polyline points="465.06,568.66 465.06,568.62 466.28,561.84 466.47,561.03 467.88,555.12 469.97,548.47 470.56,546.97 472.97,541.91 474.69,539.03 477.12,535.38 478.81,533.31 482.78,528.97 482.91,528.81 487.03,525.44 490.72,522.59 491.16,522.31 495.25,520.03 498.25,518.91 " stroke="red" stroke-width="0.96875" stroke-linecap="round" stroke-linejoin="round" />
<polyline points="520.38,525.12 524.06,527.97 525.16,528.97 528.19,532.06 531.22,535.38 532.28,536.62 536.41,541.41 536.94,541.91 540.53,545.38 543.38,548.47 544.62,549.94 548.5,555.12 548.75,555.44 552.88,561.06 553.34,561.84 556.97,567.16 557.97,568.62 558,568.66 " stroke="red" stroke-width="0.96875" stroke-linecap="round" stroke-linejoin="round" />
<polyline points="501.22,518.66 502.09,517.78 503.84,517.78 504.72,518.66 504.72,520.41 503.84,521.28 501.22,521.28 501.22,523.03 504.72,523.03 " stroke="red" stroke-width="0.71875" stroke-linecap="round" stroke-linejoin="round" />
<polyline points="507.34,522.16 508.22,523.03 509.97,523.03 510.84,522.16 510.84,521.28 507.34,517.78 510.84,517.78 " stroke="red" stroke-width="0.71875" stroke-linecap="round" stroke-linejoin="round" />
<polygon points="514.34,523.03 513.47,522.16 513.47,521.28 514.34,520.41 516.09,520.41 516.97,521.28 516.97,522.16 516.09,523.03 " stroke="red" stroke-width="0.71875" stroke-linejoin="round" />
<polyline points="514.34,520.41 513.47,519.53 513.47,518.66 514.34,517.78 516.09,517.78 516.97,518.66 516.97,519.53 516.09,520.41 " stroke="red" stroke-width="0.71875" stroke-linecap="round" stroke-linejoin="round" />
<polygon points="520.47,523.03 519.59,522.16 519.59,518.66 520.47,517.78 522.22,517.78 523.09,518.66 523.09,522.16 522.22,523.03 " stroke="red" stroke-width="0.71875" stroke-linejoin="round" />
<polyline points="220.09,568.66 220.03,568.62 219.62,568.41 215.5,566.38 211.41,564.19 207.28,561.88 207.19,561.84 203.16,559.94 199.06,558.03 194.94,556.09 192.81,555.12 190.81,554.41 186.72,552.94 182.59,551.31 178.47,549.47 176.53,548.47 174.38,547.44 170.25,545.12 166.12,542.94 164,541.91 162.03,541.03 157.91,539.38 153.78,537.81 152.62,537.31 " stroke="red" stroke-width="0.96875" stroke-linecap="round" stroke-linejoin="round" />
<polyline points="127.97,529.62 125,529.66 120.88,531.09 116.78,532.81 112.66,534.56 110.5,535.38 108.53,536.31 104.44,537.25 100.31,538.03 96.188,538.72 92.094,539.34 87.969,539.97 83.844,540.56 79.75,541.09 75.625,541.59 71.781,541.91 71.5,541.91 67.406,542.12 63.281,542.25 59.188,542.31 55.062,542.38 50.938,542.44 38.594,542.44 34.5,542.41 30.375,542.34 26.25,542.22 22.156,542.34 18.031,542.28 " stroke="red" stroke-width="0.96875" stroke-linecap="round" stroke-linejoin="round" />
<polyline points="130.94,530.84 131.81,529.97 133.56,529.97 134.44,530.84 134.44,532.59 133.56,533.47 130.94,533.47 130.94,535.22 134.44,535.22 " stroke="red" stroke-width="0.71875" stroke-linecap="round" stroke-linejoin="round" />
<polyline points="137.06,534.34 137.94,535.22 139.69,535.22 140.56,534.34 140.56,533.47 139.69,532.59 138.81,532.59 139.69,532.59 140.56,531.72 140.56,530.84 139.69,529.97 137.94,529.97 137.06,530.84 " stroke="red" stroke-width="0.71875" stroke-linecap="round" stroke-linejoin="round" />
<polyline points="144.94,535.22 143.19,532.59 146.69,532.59 146.69,535.22 146.69,529.97 " stroke="red" stroke-width="0.71875" stroke-linecap="round" stroke-linejoin="round" />
<polygon points="150.19,535.22 149.31,534.34 149.31,530.84 150.19,529.97 151.94,529.97 152.81,530.84 152.81,534.34 151.94,535.22 " stroke="red" stroke-width="0.71875" stroke-linejoin="round" />
<polyline points="431.22,568.66 431.25,568.62 433.56,564.94 435.28,561.84 437.66,557.28 438.66,555.12 441.31,548.47 441.78,547.22 443.69,541.91 445.91,535.94 446.09,535.38 448.72,528.97 450,526.62 452.41,522.59 454.12,520.09 457.38,516.28 458.25,515.44 462.34,511.81 464.69,510.06 466.47,508.84 470.56,506.34 474.34,503.88 474.69,503.66 478.81,501.44 482.91,499.59 485.91,498.5 " stroke="red" stroke-width="0.96875" stroke-linecap="round" stroke-linejoin="round" />
<polyline points="512.84,499.62 515.84,501.25 519.94,503.78 520.09,503.88 524.06,505.84 528.19,508.22 530.91,510.06 532.28,511.09 536.41,514.62 538.19,516.28 540.53,518.41 544.62,521.94 545.38,522.59 548.75,525.47 552.69,528.97 552.88,529.12 556.75,535.38 556.97,535.78 560.53,541.91 561.09,542.84 564.59,548.47 565.19,549.38 569.25,555.12 569.31,555.19 573.44,560.78 574.22,561.84 577.53,566.5 579.06,568.62 579.09,568.66 " stroke="red" stroke-width="0.96875" stroke-linecap="round" stroke-linejoin="round" />
<polyline points="488.88,494.19 489.75,493.31 491.5,493.31 492.38,494.19 492.38,495.94 491.5,496.81 488.88,496.81 488.88,498.56 492.38,498.56 " stroke="red" stroke-width="0.71875" stroke-linecap="round" stroke-linejoin="round" />
<polyline points="495,497.69 495.88,498.56 497.62,498.56 498.5,497.69 498.5,496.81 497.62,495.94 496.75,495.94 497.62,495.94 498.5,495.06 498.5,494.19 497.62,493.31 495.88,493.31 495,494.19 " stroke="red" stroke-width="0.71875" stroke-linecap="round" stroke-linejoin="round" />
<polyline points="502.88,498.56 501.12,495.94 504.62,495.94 504.62,498.56 504.62,493.31 " stroke="red" stroke-width="0.71875" stroke-linecap="round" stroke-linejoin="round" />
<polygon points="508.12,498.56 507.25,497.69 507.25,494.19 508.12,493.31 509.88,493.31 510.75,494.19 510.75,497.69 509.88,498.56 " stroke="red" stroke-width="0.71875" stroke-linejoin="round" />
<polyline points="259.12,568.66 259.03,568.62 256.66,567.69 252.53,565.66 248.41,563.66 244.59,561.84 244.31,561.69 240.19,559.75 236.06,557.97 231.97,556.12 229.72,555.12 227.84,554.31 223.72,552.56 219.62,550.59 215.5,548.56 215.31,548.47 211.41,546.59 207.28,544.72 203.16,543.25 199.06,541.91 199.03,541.91 194.94,540.66 190.81,539.34 186.72,537.66 182.59,535.75 181.88,535.38 180.38,534.66 " stroke="red" stroke-width="0.96875" stroke-linecap="round" stroke-linejoin="round" />
<polyline points="159,525.22 157.91,524.72 153.78,522.78 153.34,522.59 149.69,521.19 145.56,519.94 141.44,519 137.34,518.16 133.22,517.53 129.12,517.06 125,516.88 120.88,517.47 116.78,518.25 112.66,519.09 108.53,519.91 104.44,519.84 100.31,519.59 96.188,519.19 92.094,518.75 87.969,518.62 83.844,518.59 79.75,518.66 75.625,518.84 71.5,519.31 67.406,519.84 63.281,520.41 59.188,520.94 55.062,521 50.938,520.97 46.844,520.91 42.719,520.88 38.594,521.16 34.5,521.47 30.375,521.81 26.25,522.09 22.156,522.41 18.031,522.53 " stroke="red" stroke-width="0.96875" stroke-linecap="round" stroke-linejoin="round" />
<polyline points="159.75,528.19 160.62,527.31 162.38,527.31 163.25,528.19 163.25,529.94 162.38,530.81 159.75,530.81 159.75,532.56 163.25,532.56 " stroke="red" stroke-width="0.71875" stroke-linecap="round" stroke-linejoin="round" />
<polyline points="167.62,532.56 165.88,529.94 169.38,529.94 169.38,532.56 169.38,527.31 " stroke="red" stroke-width="0.71875" stroke-linecap="round" stroke-linejoin="round" />
<polygon points="172.88,532.56 172,531.69 172,528.19 172.88,527.31 174.62,527.31 175.5,528.19 175.5,531.69 174.62,532.56 " stroke="red" stroke-width="0.71875" stroke-linejoin="round" />
<polygon points="179,532.56 178.12,531.69 178.12,528.19 179,527.31 180.75,527.31 181.62,528.19 181.62,531.69 180.75,532.56 " stroke="red" stroke-width="0.71875" stroke-linejoin="round" />
<polyline points="383,568.66 383.03,568.62 384.19,567.53 388.31,563.41 389.94,561.84 392.41,559.31 396.41,555.12 396.53,554.97 400.62,550.22 402.12,548.47 404.75,545.28 407.53,541.91 408.88,540.22 412.56,535.38 412.97,534.81 417.09,529.06 417.16,528.97 421.22,523 421.47,522.59 425.31,516.59 425.53,516.28 429.44,510.16 429.5,510.06 433.56,503.88 437.53,497.75 437.66,497.56 441.78,492.38 442.44,491.69 445.91,488.44 449.75,485.69 450,485.53 454.12,483.38 458.25,481.84 461.22,481.03 " stroke="red" stroke-width="0.96875" stroke-linecap="round" stroke-linejoin="round" />
<polyline points="488.16,477.94 491.16,478.28 495.25,478.88 499.38,479.59 499.97,479.75 503.5,480.38 507.59,481.28 511.72,482.41 515.84,483.84 519.94,485.62 520.09,485.69 524.06,487.59 528.19,489.75 531.53,491.69 532.28,492.12 536.41,494.91 539.5,497.75 540.53,498.72 544.62,502.84 545.62,503.88 548.75,507 551.91,510.06 552.88,510.94 556.97,515.25 557.91,516.28 561.09,520.22 562.88,522.59 565.19,525.97 567.19,528.97 569.31,532.22 571.91,535.38 573.44,537.28 577.41,541.91 577.53,542.06 581.66,546.78 583.16,548.47 585.78,551.53 588.88,555.12 589.88,556.38 594,561.19 " stroke="red" stroke-width="0.96875" stroke-linecap="round" stroke-linejoin="round" />
<polyline points="464.19,476.66 465.06,475.78 466.81,475.78 467.69,476.66 467.69,478.41 466.81,479.28 464.19,479.28 464.19,481.03 467.69,481.03 " stroke="red" stroke-width="0.71875" stroke-linecap="round" stroke-linejoin="round" />
<polyline points="472.06,481.03 470.31,478.41 473.81,478.41 473.81,481.03 473.81,475.78 " stroke="red" stroke-width="0.71875" stroke-linecap="round" stroke-linejoin="round" />
<polygon points="477.31,481.03 476.44,480.16 476.44,476.66 477.31,475.78 479.06,475.78 479.94,476.66 479.94,480.16 479.06,481.03 " stroke="red" stroke-width="0.71875" stroke-linejoin="round" />
<polygon points="483.44,481.03 482.56,480.16 482.56,476.66 483.44,475.78 485.19,475.78 486.06,476.66 486.06,480.16 485.19,481.03 " stroke="red" stroke-width="0.71875" stroke-linejoin="round" />
<polyline points="594,537.28 592.12,535.38 589.88,533.22 585.78,529.09 585.62,528.97 581.66,524.72 579.75,522.59 577.53,520.16 574.16,516.28 573.44,515.47 569.31,510.72 568.75,510.06 565.19,506.06 563.06,503.88 561.09,501.94 556.97,498.06 556.62,497.75 552.88,494.31 550.25,491.69 548.75,490.19 544.62,486.16 544.12,485.69 540.53,482.44 537.22,479.75 536.41,479.12 532.28,476.66 528.19,474.47 526.88,473.84 524.06,472.47 519.94,470.62 515.84,469.03 513,468 511.72,467.53 507.59,466.03 503.5,464.56 499.38,462.81 497.97,462.19 495.25,461 491.16,459.19 487.03,457.41 484.38,456.47 482.91,456.06 478.81,455.09 474.69,454.28 470.56,453.59 466.47,452.81 462.34,452.16 458.25,451.72 454.12,451.56 450,451.91 445.91,452.66 441.78,453.78 437.66,455.31 435.47,456.47 433.56,458.12 429.44,462.16 429.41,462.19 425.31,467.47 424.91,468 421.22,473.53 421,473.84 417.09,479.56 416.97,479.75 412.97,485.34 412.75,485.69 408.88,491.34 408.62,491.69 404.75,497.59 404.66,497.75 401.03,503.88 400.62,504.47 396.88,510.06 396.53,510.53 392.41,516.03 392.22,516.28 388.31,521.06 387,522.59 384.19,525.97 381.62,528.97 380.06,530.91 376.28,535.38 375.97,535.78 371.84,540.16 369.75,541.91 367.72,543.47 363.62,546.19 360.59,547.81 " stroke="red" stroke-width="0.96875" stroke-linecap="round" stroke-linejoin="round" />
<polyline points="333.69,554.75 330.69,555.09 330.53,555.12 326.59,555.5 322.47,555.84 318.34,556.25 314.25,556.53 310.12,556.75 306.03,556.84 301.91,556.88 297.78,556.75 293.69,556.47 289.56,556.03 285.44,555.28 284.69,555.12 281.34,554.38 277.22,553.41 273.09,552.34 269,551.38 264.88,550.34 260.75,549.25 258,548.47 256.66,548.09 252.53,546.72 248.41,545.28 244.31,543.84 240.19,542.44 238.53,541.91 236.06,541.09 231.97,539.75 227.84,538.41 223.72,537 220.03,535.38 219.62,535.22 215.5,533.34 211.41,531.53 207.28,529.84 203.81,528.97 203.16,528.78 199.06,527.69 194.94,526.62 190.81,525.44 186.72,523.62 184.53,522.59 182.59,521.69 178.47,519.72 174.38,517.78 171.28,516.28 170.25,515.78 166.12,513.62 162.03,511.44 159.16,510.06 157.91,509.44 153.78,508.53 149.69,508.06 145.56,507.81 141.44,507.66 137.34,507.09 133.22,506.59 129.12,506.16 125,505.84 120.88,506.12 116.78,506.5 112.66,506.88 108.53,507.16 104.44,506.59 100.31,505.81 96.188,504.97 92.094,504.12 87.969,503.88 87.219,503.88 83.844,503.78 79.75,503.81 76.281,503.88 62.688,503.88 59.188,503.84 55.062,503.75 50.938,503.66 46.844,503.53 42.719,503.41 38.594,503.38 34.5,503.34 30.375,503.28 26.25,503.19 22.156,502.97 18.031,502.72 " stroke="red" stroke-width="0.96875" stroke-linecap="round" stroke-linejoin="round" />
<polyline points="336.66,550.78 337.53,549.91 339.28,549.91 340.16,550.78 340.16,552.53 339.28,553.41 336.66,553.41 336.66,555.16 340.16,555.16 " stroke="red" stroke-width="0.71875" stroke-linecap="round" stroke-linejoin="round" />
<polyline points="344.53,555.16 342.78,552.53 346.28,552.53 346.28,555.16 346.28,549.91 " stroke="red" stroke-width="0.71875" stroke-linecap="round" stroke-linejoin="round" />
<polyline points="352.41,554.28 351.53,555.16 349.78,555.16 348.91,554.28 348.91,550.78 349.78,549.91 351.53,549.91 352.41,550.78 352.41,551.66 351.53,552.53 348.91,552.53 " stroke="red" stroke-width="0.71875" stroke-linecap="round" stroke-linejoin="round" />
<polygon points="355.91,555.16 355.03,554.28 355.03,550.78 355.91,549.91 357.66,549.91 358.53,550.78 358.53,554.28 357.66,555.16 " stroke="red" stroke-width="0.71875" stroke-linejoin="round" />
<polyline points="594,512.34 591.25,510.06 589.88,508.94 585.78,505.34 584.25,503.88 581.66,501.38 577.84,497.75 577.53,497.47 573.44,493.72 571.09,491.69 569.31,490.19 565.19,486.84 563.75,485.69 561.09,483.59 556.97,480.38 556.19,479.75 552.88,477.03 549.19,473.84 548.75,473.47 544.62,470.28 541.25,468 540.53,467.5 536.41,465.06 532.28,462.84 531,462.19 528.19,460.72 524.06,458.62 519.94,456.62 519.56,456.47 515.84,454.69 511.72,452.84 507.59,451.06 506.84,450.75 503.5,449.38 499.38,447.62 495.25,446 492.81,445.12 491.16,444.53 487.03,443.25 482.91,442.31 478.81,441.5 474.69,440.84 470.56,440.25 466.47,439.56 466.16,439.5 462.34,438.97 458.25,438.56 454.12,438.31 450,438.41 445.91,438.75 441.78,439.38 441.19,439.5 437.66,440.31 433.56,441.78 429.44,443.59 426.47,445.12 425.31,445.75 421.22,448.31 417.69,450.75 417.09,451.22 412.97,454.66 411,456.47 408.88,458.88 405.84,462.19 404.75,463.5 400.84,468 400.62,468.25 396.53,473.28 396.06,473.84 392.41,478.53 391.44,479.75 388.31,484.19 387.09,485.69 384.19,489.41 382.25,491.69 380.06,494.22 376.72,497.75 375.97,498.56 371.84,502.56 370.5,503.88 367.72,506.56 363.84,510.06 363.62,510.25 359.5,513.5 356.47,515.53 " stroke="red" stroke-width="0.96875" stroke-linecap="round" stroke-linejoin="round" />
<polyline points="333.69,524.47 330.69,525.19 326.59,526.03 322.47,526.75 318.34,527.44 314.25,528.06 310.12,528.62 307.44,528.97 306.03,529.12 301.91,529.72 297.78,530.22 293.69,530.56 289.56,530.75 285.44,530.59 281.34,530.31 277.22,529.91 273.09,529.44 269,529.09 267.78,528.97 264.88,528.62 260.75,528.06 256.66,527.38 252.53,526.41 248.41,525.41 244.31,524.31 240.19,523.25 237.12,522.59 236.06,522.34 231.97,521.34 227.84,520.22 223.72,518.97 219.62,517.25 217.31,516.28 215.5,515.5 211.41,513.88 207.28,512.47 203.16,511.78 199.06,511.19 194.94,510.53 192.41,510.06 190.81,509.72 186.72,508.34 182.59,506.84 178.47,505.25 175.09,503.88 174.38,503.53 170.25,500.75 166.12,498.19 165.38,497.75 162.03,495.91 157.91,494.12 153.78,493.59 149.69,493.44 145.56,493.44 141.44,493.53 137.34,493.25 133.22,492.97 129.12,492.69 125,492.44 120.88,492.22 116.78,491.97 112.88,491.69 112.66,491.66 108.53,491.22 104.44,490.66 100.31,490.09 96.188,489.56 92.094,489.06 87.969,488.47 83.844,487.81 79.75,487.16 75.625,486.5 71.5,486.19 67.406,485.97 63.281,485.81 59.844,485.69 59.188,485.66 55.062,485.31 50.938,484.91 46.844,484.47 42.719,484.03 38.594,483.62 34.5,483.19 30.375,482.72 26.25,482.25 22.156,481.81 18.031,481.31 " stroke="red" stroke-width="0.96875" stroke-linecap="round" stroke-linejoin="round" />
<polyline points="336.66,518.5 337.53,517.62 339.28,517.62 340.16,518.5 340.16,520.25 339.28,521.12 336.66,521.12 336.66,522.88 340.16,522.88 " stroke="red" stroke-width="0.71875" stroke-linecap="round" stroke-linejoin="round" />
<polyline points="342.78,518.5 343.66,517.62 345.41,517.62 346.28,518.5 346.28,520.25 345.41,521.12 342.78,521.12 342.78,522.88 346.28,522.88 " stroke="red" stroke-width="0.71875" stroke-linecap="round" stroke-linejoin="round" />
<polyline points="348.91,522 349.78,522.88 351.53,522.88 352.41,522 352.41,521.12 348.91,517.62 352.41,517.62 " stroke="red" stroke-width="0.71875" stroke-linecap="round" stroke-linejoin="round" />
<polygon points="355.91,522.88 355.03,522 355.03,518.5 355.91,517.62 357.66,517.62 358.53,518.5 358.53,522 357.66,522.88 " stroke="red" stroke-width="0.71875" stroke-linejoin="round" />
<polyline points="594,485.19 589.88,482.25 586.47,479.75 585.78,479.22 581.66,476.38 577.78,473.84 577.53,473.69 573.44,471 569.31,468.38 568.75,468 565.19,465.62 561.09,462.91 560,462.19 556.97,460.22 552.88,457.69 550.69,456.47 548.75,455.34 544.62,453.03 540.53,450.84 540.34,450.75 536.41,448.56 532.28,446.28 530.06,445.12 528.19,444.09 524.06,442.06 519.94,440.22 518.19,439.5 515.84,438.53 511.72,436.94 507.59,435.47 503.5,434.12 502.97,433.97 499.38,432.66 495.25,431.31 491.16,430.09 487.03,429 484.19,428.44 482.91,428.19 478.81,427.47 474.69,426.84 470.56,426.31 466.47,425.78 462.34,425.34 458.25,425.03 454.12,424.91 450,424.97 445.91,425.22 441.78,425.62 437.66,426.28 433.56,427.38 430.38,428.44 429.44,428.75 425.31,430.41 421.22,432.38 418.19,433.97 417.09,434.47 412.97,436.62 408.88,439.12 408.25,439.5 404.75,441.94 400.62,445.03 400.53,445.12 396.53,448.38 393.69,450.75 392.41,451.91 388.31,455.62 387.34,456.47 384.19,459.5 381.31,462.19 380.06,463.41 375.97,467.28 375.16,468 371.84,471 368.22,473.84 367.72,474.25 363.62,477.25 359.97,479.75 359.5,480.09 355.38,482.91 351.28,485.66 351.22,485.69 348.19,487.53 " stroke="red" stroke-width="0.96875" stroke-linecap="round" stroke-linejoin="round" />
<polyline points="325.47,496.59 322.47,497.28 319.88,497.75 318.34,498 314.25,498.59 310.12,499.12 306.03,499.56 301.91,500.16 297.78,500.69 293.69,501.12 289.56,501.5 285.44,501.66 281.34,501.69 277.22,501.66 273.09,501.53 269,501.47 264.88,501.31 260.75,501.12 256.66,500.84 252.53,500.5 248.41,500.09 244.31,499.62 240.19,499.12 236.06,498.47 231.97,497.78 231.81,497.75 227.84,496.97 223.72,496.06 219.62,495.09 215.5,494.12 211.41,493.22 207.28,492.34 203.69,491.69 203.16,491.59 199.06,490.69 194.94,489.62 190.81,488.44 186.72,487.28 182.59,486.06 181.38,485.69 178.47,484.75 174.38,483.34 170.25,481.5 166.12,479.91 165.66,479.75 162.03,478.38 157.91,477.12 153.78,476.31 149.69,475.66 145.56,475.19 141.44,474.88 137.34,475.03 133.22,475.22 129.12,475.34 125,475.34 120.88,474.53 117.91,473.84 116.78,473.56 112.66,472.53 108.53,471.62 104.44,471.5 100.31,471.44 96.188,471.34 92.094,471.09 87.969,469.97 83.844,468.66 81.781,468 79.75,467.28 75.625,465.97 71.5,465.25 67.406,464.66 63.281,464.12 59.188,463.59 55.062,462.91 51.125,462.19 50.938,462.16 46.844,461.41 42.719,460.62 38.594,459.88 34.5,459.12 30.375,458.41 26.25,457.72 22.156,457.19 18.031,456.66 " stroke="red" stroke-width="0.96875" stroke-linecap="round" stroke-linejoin="round" />
<polyline points="328.44,490.5 329.31,489.62 331.06,489.62 331.94,490.5 331.94,492.25 331.06,493.12 328.44,493.12 328.44,494.88 331.94,494.88 " stroke="red" stroke-width="0.71875" stroke-linecap="round" stroke-linejoin="round" />
<polyline points="334.56,490.5 335.44,489.62 337.19,489.62 338.06,490.5 338.06,492.25 337.19,493.12 334.56,493.12 334.56,494.88 338.06,494.88 " stroke="red" stroke-width="0.71875" stroke-linecap="round" stroke-linejoin="round" />
<polygon points="341.56,494.88 340.69,494 340.69,493.12 341.56,492.25 343.31,492.25 344.19,493.12 344.19,494 343.31,494.88 " stroke="red" stroke-width="0.71875" stroke-linejoin="round" />
<polyline points="341.56,492.25 340.69,491.38 340.69,490.5 341.56,489.62 343.31,489.62 344.19,490.5 344.19,491.38 343.31,492.25 " stroke="red" stroke-width="0.71875" stroke-linecap="round" stroke-linejoin="round" />
<polygon points="347.69,494.88 346.81,494 346.81,490.5 347.69,489.62 349.44,489.62 350.31,490.5 350.31,494 349.44,494.88 " stroke="red" stroke-width="0.71875" stroke-linejoin="round" />
<polyline points="594,453.44 589.88,451.5 588.12,450.75 585.78,449.84 581.66,448 577.53,446.19 575.16,445.12 573.44,444.34 569.31,442.41 565.19,440.34 563.59,439.5 561.09,438.22 556.97,436.09 552.88,434.03 552.69,433.97 548.75,432 544.62,430.09 540.94,428.44 540.53,428.25 536.41,426.44 532.28,424.78 528.19,423.19 527.59,422.97 524.06,421.56 519.94,420.03 515.84,418.72 511.84,417.53 511.72,417.5 507.59,416.31 503.5,415.22 499.38,414.06 495.25,412.97 491.75,412.16 491.16,412 487.03,411.06 482.91,410.38 478.81,409.78 474.69,409.34 470.56,409 466.47,408.81 462.34,408.75 458.25,408.75 454.12,408.84 450,408.97 445.91,409.19 441.78,409.47 437.66,409.91 433.56,410.47 429.44,411.19 425.31,412.12 425.22,412.16 421.22,413.12 417.09,414.47 412.97,416.06 409.56,417.53 408.88,417.84 404.75,419.72 400.62,421.75 398.38,422.97 396.53,424 392.41,426.47 389.47,428.44 388.31,429.22 384.19,431.81 380.84,433.97 380.06,434.41 375.97,436.78 371.84,439.31 371.5,439.5 367.72,441.78 363.62,444.31 362.22,445.12 359.5,446.69 355.38,448.97 352.06,450.75 351.28,451.19 347.16,453.19 343.03,455.12 340.03,456.47 338.94,456.91 338.66,457.03 " stroke="red" stroke-width="0.96875" stroke-linecap="round" stroke-linejoin="round" />
<polyline points="313.12,465.38 310.12,465.97 306.03,466.69 301.91,467.47 298.78,468 297.78,468.16 293.69,468.78 289.56,469.38 285.44,469.91 281.34,470.41 277.22,470.81 273.09,471.12 269,471.25 264.88,471.28 260.75,471.31 256.66,471.31 252.53,471.56 248.41,471.78 244.31,471.88 240.19,471.81 236.06,471.22 231.97,470.5 227.84,469.66 223.72,468.81 219.62,468.44 215.5,468.06 214.94,468 211.41,467.53 207.28,466.75 203.16,465 199.06,463 197.5,462.19 194.94,460.88 190.81,458.88 186.72,457.84 182.59,457.03 178.78,456.47 178.47,456.41 174.38,455.97 170.25,455.38 166.12,454.78 162.03,454.22 157.91,453.66 153.78,453.16 149.69,452.66 145.56,452.22 141.44,451.84 137.34,451.59 133.22,451.34 129.12,451.06 125.69,450.75 125,450.69 120.88,450.06 116.78,449.34 112.66,448.66 108.53,447.94 104.44,447.44 100.31,446.94 96.188,446.34 92.094,445.62 90.188,445.12 87.969,444.5 83.844,443.31 79.75,442.19 75.625,441.16 71.5,440.41 67.406,439.69 66.344,439.5 63.281,438.97 59.188,438.25 55.062,437.41 50.938,436.53 46.844,435.66 42.719,434.81 38.656,433.97 38.594,433.94 34.5,433.06 30.375,432.28 26.25,431.56 22.156,431.03 18.031,430.56 " stroke="red" stroke-width="0.96875" stroke-linecap="round" stroke-linejoin="round" />
<polyline points="316.09,460 316.97,459.12 318.72,459.12 319.59,460 319.59,461.75 318.72,462.62 316.09,462.62 316.09,464.38 319.59,464.38 " stroke="red" stroke-width="0.71875" stroke-linecap="round" stroke-linejoin="round" />
<polyline points="325.72,463.5 324.84,464.38 323.09,464.38 322.22,463.5 322.22,460 323.09,459.12 324.84,459.12 325.72,460 325.72,460.88 324.84,461.75 322.22,461.75 " stroke="red" stroke-width="0.71875" stroke-linecap="round" stroke-linejoin="round" />
<polyline points="330.09,464.38 328.34,461.75 331.84,461.75 331.84,464.38 331.84,459.12 " stroke="red" stroke-width="0.71875" stroke-linecap="round" stroke-linejoin="round" />
<polygon points="335.34,464.38 334.47,463.5 334.47,460 335.34,459.12 337.09,459.12 337.97,460 337.97,463.5 337.09,464.38 " stroke="red" stroke-width="0.71875" stroke-linejoin="round" />
<polyline points="594,403.47 589.88,404.88 585.78,405.97 581.66,406.56 578.53,406.78 577.53,406.84 573.44,406.88 571.78,406.78 569.31,406.69 565.19,406.28 561.09,405.72 556.97,405 552.88,404.12 548.75,402.94 544.62,401.66 544.16,401.47 540.53,400.22 536.41,398.81 532.28,397.59 528.19,396.5 526.97,396.22 524.06,395.47 519.94,394.5 515.84,393.66 511.72,392.81 507.59,392.03 503.5,391.25 502.12,390.97 499.38,390.41 495.25,389.59 491.16,388.88 487.03,388.19 482.91,387.56 478.81,386.94 474.69,386.34 470.56,385.81 470.16,385.78 466.47,385.31 462.34,384.88 458.25,384.47 454.12,384.16 450,384 445.91,383.91 441.78,383.94 437.66,384.06 433.56,384.22 429.44,384.44 425.31,384.72 421.22,385.09 417.09,385.59 415.91,385.78 412.97,386.12 408.88,386.72 404.75,387.31 400.62,387.84 396.53,388.41 392.41,389.03 388.31,389.69 384.19,390.28 380.06,390.94 379.97,390.97 375.97,391.72 371.84,392.69 367.72,394 363.62,395.56 362.12,396.22 359.5,397.31 355.38,399.25 351.28,401.34 350.97,401.47 347.16,403.47 343.03,405.66 341,406.78 338.94,407.94 334.81,410.31 331.75,412.16 330.69,412.81 326.59,415.5 323.44,417.53 322.47,418.16 322.31,418.25 " stroke="red" stroke-width="0.96875" stroke-linecap="round" stroke-linejoin="round" />
<polyline points="304.38,427.69 302.53,428.44 301.91,428.69 297.78,430.12 293.69,431.5 289.56,432.75 285.44,433.94 285.41,433.97 281.34,435.06 277.22,436.09 273.09,437.03 269,438.03 264.88,438.88 260.84,439.5 260.75,439.53 256.66,439.94 252.53,439.78 249,439.5 248.41,439.47 244.31,439 240.19,438.53 236.06,438.59 231.97,438.66 227.84,438.69 223.72,438.59 219.62,438.19 215.5,437.56 211.41,436.72 207.28,435.66 203.16,434.19 202.53,433.97 199.06,432.78 194.94,431.69 190.81,430.84 186.72,430.56 182.59,430.38 178.47,430.25 174.38,430.09 170.25,429.59 166.12,429.06 162.03,428.53 161.47,428.44 157.91,427.97 153.78,427.38 149.69,426.78 145.56,426.09 141.44,425.38 137.34,424.78 133.22,424.22 129.12,423.69 125,423.12 124.12,422.97 120.88,422.44 116.78,421.66 112.66,420.81 108.53,419.78 104.44,418.41 102.12,417.53 100.31,416.81 96.188,415.22 92.094,413.72 87.969,413 83.844,412.47 80.875,412.16 79.75,412.03 75.625,411.53 71.5,410.38 67.406,409.12 63.281,407.88 59.625,406.78 59.188,406.66 55.062,405.72 50.938,404.81 46.844,403.97 42.719,403.12 38.594,402.28 34.5,401.5 34.375,401.47 30.375,400.78 26.25,400.16 22.156,399.78 18.031,399.53 " stroke="red" stroke-width="0.96875" stroke-linecap="round" stroke-linejoin="round" />
<polyline points="304,421.22 304.88,420.34 306.62,420.34 307.5,421.22 307.5,422.97 306.62,423.84 304,423.84 304,425.59 307.5,425.59 " stroke="red" stroke-width="0.71875" stroke-linecap="round" stroke-linejoin="round" />
<polyline points="310.12,425.59 313.62,425.59 311.88,420.34 " stroke="red" stroke-width="0.71875" stroke-linecap="round" stroke-linejoin="round" />
<polygon points="317.12,425.59 316.25,424.72 316.25,421.22 317.12,420.34 318.88,420.34 319.75,421.22 319.75,424.72 318.88,425.59 " stroke="red" stroke-width="0.71875" stroke-linejoin="round" />
<polygon points="323.25,425.59 322.38,424.72 322.38,421.22 323.25,420.34 325,420.34 325.88,421.22 325.88,424.72 325,425.59 " stroke="red" stroke-width="0.71875" stroke-linejoin="round" />
<polyline points="594,336.75 590.22,340.41 589.88,340.72 585.78,344.06 584.25,345.31 581.66,347.34 577.53,350.19 577.41,350.28 573.44,352.31 569.31,354 565.25,355.25 565.19,355.25 561.09,356.06 556.97,356.59 552.88,356.84 548.75,356.78 544.62,356.56 540.53,356.22 536.41,355.78 532.28,355.34 531.59,355.25 528.19,354.81 524.06,354.31 519.94,353.81 515.84,353.44 511.72,353.09 507.59,352.75 503.5,352.38 499.38,351.97 495.25,351.56 491.16,351.16 487.03,350.78 482.91,350.59 478.81,350.44 475.59,350.28 474.69,350.22 470.56,349.91 466.47,349.22 462.34,348.44 458.25,347.66 454.12,346.88 450,346.25 445.91,345.59 444.25,345.31 441.78,344.84 437.66,343.97 433.56,342.88 429.44,341.72 425.31,340.53 424.94,340.41 421.22,339.06 417.09,337.16 414.25,335.5 412.97,334.59 408.88,330.97 408.56,330.66 404.75,326.25 404.34,325.81 400.62,321.38 400.34,321 397.12,316.22 396.53,315.22 394.44,311.44 392.41,307.66 391.91,306.72 388.91,302 388.31,301.25 384.19,297.94 383.09,297.31 380.06,295.94 375.97,294.56 371.84,293.5 369.88,292.62 367.72,291.88 363.62,290.81 359.5,290.38 355.38,290.53 351.28,291.88 349.72,292.62 347.16,294.09 343.03,297.19 342.94,297.31 338.94,301.78 338.81,302 336.56,306.72 334.91,311.44 334.81,314.22 334.75,316.22 334.81,317.56 335.06,321 335.84,325.81 336.94,330.66 336.94,335.5 336.91,335.69 " stroke="red" stroke-width="0.96875" stroke-linecap="round" stroke-linejoin="round" />
<polyline points="334.97,345.12 334.91,345.31 334.81,345.5 332.34,350.28 330.69,352.16 327.84,355.25 326.59,356.41 322.47,360.03 322.19,360.25 318.34,363.22 315.59,365.28 314.25,366.28 310.12,369.28 308.66,370.38 306.03,372.31 302.03,375.47 301.91,375.56 297.78,378.5 294.53,380.59 293.69,381.12 289.56,383.41 285.44,385.25 284.22,385.78 281.34,386.94 277.22,388.5 273.09,389.97 269.75,390.97 269,391.19 264.88,392.31 260.75,393.38 256.66,394.44 252.53,395.41 248.56,396.22 248.41,396.22 244.31,396.91 240.19,397.5 236.06,398.44 231.97,399.41 227.84,400.31 223.72,401.03 219.62,400.66 215.5,400.25 211.41,399.94 207.28,399.81 203.16,400.41 199.06,401.12 197.16,401.47 194.94,401.88 190.81,402.59 186.72,402.84 182.59,403 178.47,403.03 174.38,402.97 170.25,403 166.12,402.94 162.03,402.69 157.91,402.25 154.78,401.47 153.78,401.22 149.69,400.06 145.56,398.91 141.44,397.84 137.34,397.22 133.22,396.59 131.03,396.22 129.12,395.88 125,394.97 120.88,393.34 116.78,391.53 115.41,390.97 112.66,389.97 108.53,388.72 104.44,388.5 100.31,388.47 96.188,388.41 92.094,388.22 87.969,387.03 84.125,385.78 83.844,385.69 79.75,384.28 75.625,382.97 71.5,381.84 67.406,380.72 66.938,380.59 63.281,379.59 59.188,378.5 55.062,377.56 50.938,376.69 46.844,375.88 44.75,375.47 42.719,375.06 38.594,374.16 34.5,373.25 30.375,372.38 26.25,371.53 22.156,370.81 19.281,370.38 18.031,370.16 " stroke="red" stroke-width="0.96875" stroke-linecap="round" stroke-linejoin="round" />
<polyline points="325.84,338.66 326.72,337.78 328.47,337.78 329.34,338.66 329.34,340.41 328.47,341.28 325.84,341.28 325.84,343.03 329.34,343.03 " stroke="red" stroke-width="0.71875" stroke-linecap="round" stroke-linejoin="round" />
<polyline points="331.97,343.03 335.47,343.03 333.72,337.78 " stroke="red" stroke-width="0.71875" stroke-linecap="round" stroke-linejoin="round" />
<polyline points="341.59,342.16 340.72,343.03 338.97,343.03 338.09,342.16 338.09,338.66 338.97,337.78 340.72,337.78 341.59,338.66 341.59,339.53 340.72,340.41 338.09,340.41 " stroke="red" stroke-width="0.71875" stroke-linecap="round" stroke-linejoin="round" />
<polygon points="345.09,343.03 344.22,342.16 344.22,338.66 345.09,337.78 346.84,337.78 347.72,338.66 347.72,342.16 346.84,343.03 " stroke="red" stroke-width="0.71875" stroke-linejoin="round" />
<polyline points="353.34,247 353.28,247.03 351.28,248.09 347.16,250.72 346.09,251.5 343.03,253.72 340.31,256 338.94,257.22 335.34,260.5 334.81,260.97 330.69,265 330.66,265.03 326.59,269.38 326.41,269.59 322.62,274.16 322.47,274.34 318.72,278.75 318.34,279.22 315.12,283.34 314.25,284.56 311.69,287.97 310.12,290.12 308.22,292.62 306.03,295.53 304.59,297.31 301.91,300.47 300.44,302 297.78,304.62 295.41,306.72 293.69,308.12 289.56,311.12 289.12,311.44 285.44,314.06 282.16,316.22 281.34,316.72 277.22,319.12 273.75,321 273.09,321.34 269,323.41 264.88,325.5 264.31,325.81 260.75,327.66 256.66,329.97 255.66,330.66 252.53,332.56 248.41,335.22 248,335.5 244.31,337.94 240.72,340.41 240.19,340.75 236.06,343.69 234.53,344.81 " stroke="red" stroke-width="0.96875" stroke-linecap="round" stroke-linejoin="round" />
<polyline points="220.22,354.25 219.62,354.56 218.19,355.25 215.5,356.56 211.41,358.5 207.56,360.25 207.28,360.38 203.16,362.16 199.06,363.66 194.94,364.84 192.97,365.28 190.81,365.75 186.72,366.5 182.59,367.09 178.47,367.62 174.38,368.06 170.25,368.41 166.12,368.66 162.03,368.84 157.91,368.97 153.78,369.19 149.69,369.28 145.56,369.28 141.44,369.06 137.34,368.44 133.22,367.69 129.12,366.84 125,365.94 121.94,365.28 120.88,365.06 116.78,364.16 112.66,363.25 108.53,362.38 104.44,361.47 100.31,360.53 99.125,360.25 96.188,359.56 92.094,358.69 87.969,358.06 83.844,357.47 79.75,356.91 75.625,356.28 71.5,355.47 70.5,355.25 67.406,354.59 63.281,353.75 59.188,353 55.062,352.34 50.938,351.72 46.844,351.09 42.719,350.5 41.25,350.28 38.594,349.81 34.5,349.16 30.375,348.53 26.25,347.94 22.156,347.28 18.031,346.69 " stroke="red" stroke-width="0.96875" stroke-linecap="round" stroke-linejoin="round" />
<polyline points="217.34,347.78 218.22,346.91 219.97,346.91 220.84,347.78 220.84,349.53 219.97,350.41 217.34,350.41 217.34,352.16 220.84,352.16 " stroke="red" stroke-width="0.71875" stroke-linecap="round" stroke-linejoin="round" />
<polygon points="224.34,352.16 223.47,351.28 223.47,350.41 224.34,349.53 226.09,349.53 226.97,350.41 226.97,351.28 226.09,352.16 " stroke="red" stroke-width="0.71875" stroke-linejoin="round" />
<polyline points="224.34,349.53 223.47,348.66 223.47,347.78 224.34,346.91 226.09,346.91 226.97,347.78 226.97,348.66 226.09,349.53 " stroke="red" stroke-width="0.71875" stroke-linecap="round" stroke-linejoin="round" />
<polyline points="229.59,351.28 230.47,352.16 232.22,352.16 233.09,351.28 233.09,350.41 229.59,346.91 233.09,346.91 " stroke="red" stroke-width="0.71875" stroke-linecap="round" stroke-linejoin="round" />
<polygon points="236.59,352.16 235.72,351.28 235.72,347.78 236.59,346.91 238.34,346.91 239.22,347.78 239.22,351.28 238.34,352.16 " stroke="red" stroke-width="0.71875" stroke-linejoin="round" />
<polyline points="488.16,248.91 491.16,248.62 495.25,247.81 498.09,247.03 498.22,247 " stroke="red" stroke-width="0.96875" stroke-linecap="round" stroke-linejoin="round" />
<polyline points="467.69,247 467.69,247.66 466.81,248.53 464.19,248.53 464.19,250.28 467.69,250.28 " stroke="red" stroke-width="0.71875" stroke-linecap="round" stroke-linejoin="round" />
<polygon points="471.19,250.28 470.31,249.41 470.31,248.53 471.19,247.66 472.94,247.66 473.81,248.53 473.81,249.41 472.94,250.28 " stroke="red" stroke-width="0.71875" stroke-linejoin="round" />
<line x1="471.19" y1="247.66" x2="470.53" y2="247" stroke="red" stroke-width="0.71875" stroke-linecap="round" />
<line x1="473.59" y1="247" x2="472.94" y2="247.66" stroke="red" stroke-width="0.71875" stroke-linecap="round" />
<polyline points="476.44,249.41 477.31,250.28 479.06,250.28 479.94,249.41 479.94,248.53 478.41,247 " stroke="red" stroke-width="0.71875" stroke-linecap="round" stroke-linejoin="round" />
<polyline points="483.44,250.28 482.56,249.41 482.56,247 " stroke="red" stroke-width="0.71875" stroke-linecap="round" stroke-linejoin="round" />
<polyline points="486.06,247 486.06,249.41 485.19,250.28 483.44,250.28 " stroke="red" stroke-width="0.71875" stroke-linecap="round" stroke-linejoin="round" />
<polyline points="259.25,247 259.25,247.03 258.5,251.5 256.88,256 256.66,256.41 254.47,260.5 252.53,263.34 251.31,265.03 248.41,268.34 247.28,269.59 244.31,272.41 242.47,274.16 240.19,275.88 236.72,278.75 236.06,279.22 231.97,282.34 230.69,283.34 227.84,285.41 224.28,287.97 223.72,288.34 219.62,290.78 216.34,292.62 215.5,293.22 211.41,296.28 210.16,297.31 207.28,299.75 205.06,302 203.16,303.75 199.69,306.72 199.06,307.16 194.94,309.81 191.91,311.44 190.81,311.97 186.72,313.91 182.59,315.72 181.41,316.22 179.62,316.88 " stroke="red" stroke-width="0.96875" stroke-linecap="round" stroke-linejoin="round" />
<polyline points="152.66,322.72 149.69,322.91 145.56,323.09 141.44,323.19 137.34,323.19 133.22,323.09 129.12,322.97 125,322.81 120.88,322.66 116.78,322.47 112.66,322.25 108.53,322.06 104.44,321.94 100.31,321.81 96.188,321.66 92.094,321.47 87.969,321.12 86.719,321 83.844,320.66 79.75,320.09 75.625,319.41 71.5,318.62 67.406,317.81 63.281,317.06 59.188,316.41 56.969,316.22 55.062,316.03 50.938,315.75 46.844,315.53 42.719,315.34 38.594,315.12 34.5,314.88 30.375,314.59 26.25,314.25 22.156,313.69 18.031,313.16 " stroke="red" stroke-width="0.96875" stroke-linecap="round" stroke-linejoin="round" />
<polyline points="155.62,319.22 156.5,318.34 158.25,318.34 159.12,319.22 159.12,320.97 158.25,321.84 155.62,321.84 155.62,323.59 159.12,323.59 " stroke="red" stroke-width="0.71875" stroke-linecap="round" stroke-linejoin="round" />
<polygon points="162.62,323.59 161.75,322.72 161.75,321.84 162.62,320.97 164.38,320.97 165.25,321.84 165.25,322.72 164.38,323.59 " stroke="red" stroke-width="0.71875" stroke-linejoin="round" />
<polyline points="162.62,320.97 161.75,320.09 161.75,319.22 162.62,318.34 164.38,318.34 165.25,319.22 165.25,320.09 164.38,320.97 " stroke="red" stroke-width="0.71875" stroke-linecap="round" stroke-linejoin="round" />
<polygon points="168.75,323.59 167.88,322.72 167.88,321.84 168.75,320.97 170.5,320.97 171.38,321.84 171.38,322.72 170.5,323.59 " stroke="red" stroke-width="0.71875" stroke-linejoin="round" />
<polyline points="168.75,320.97 167.88,320.09 167.88,319.22 168.75,318.34 170.5,318.34 171.38,319.22 171.38,320.09 170.5,320.97 " stroke="red" stroke-width="0.71875" stroke-linecap="round" stroke-linejoin="round" />
<polygon points="174.88,323.59 174,322.72 174,319.22 174.88,318.34 176.62,318.34 177.5,319.22 177.5,322.72 176.62,323.59 " stroke="red" stroke-width="0.71875" stroke-linejoin="round" />
</g>
</svg>
