<?xml version="1.0" encoding="ISO-8859-1" standalone="no"?>
<!DOCTYPE svg PUBLIC "-//W3C//DTD SVG 1.1//EN" "http://www.w3.org/Graphics/SVG/1.1/DTD/svg11.dtd">
<svg version="1.1" baseProfile="full" id="body" width="900px" height="600px" viewBox="0 0.2 1 0.55" preserveAspectRatio="none" xmlns="http://www.w3.org/2000/svg" xmlns:xlink="http://www.w3.org/1999/xlink" xmlns:ev="http://www.w3.org/2001/xml-events">
<title>SVG drawing</title>
<desc>This was produced by version 4.2 of GNU libplot, a free library for exporting 2-D vector graphics.</desc>
<rect id="background" x="0" y="0" width="1" height="1" stroke="none" fill="none"/>
<g id="content" transform="translate(-0.03125,1.1875) scale(1,-1) scale(0.0017361) " xml:space="preserve" stroke="black" stroke-linecap="butt" stroke-linejoin="miter" stroke-miterlimit="10.433" stroke-dasharray="none" stroke-dashoffset="0" stroke-opacity="1" fill="none" fill-rule="even-odd" fill-opacity="1" font-style="normal" font-variant="normal" font-weight="normal" font-stretch="normal" font-size-adjust="none" letter-spacing="normal" word-spacing="normal" text-anchor="start">
<polyline points="337.25,568.66 337.31,568.62 338.94,567.91 343.03,566.19 347.16,564.62 351.28,563.25 355.38,562 356.03,561.84 359.5,560.94 363.62,560.06 367.72,559.38 370.72,559 " stroke="red" stroke-width="0.96875" stroke-linecap="round" stroke-linejoin="round" />
<polyline points="397.66,559.59 400.62,560.06 404.75,560.84 408.88,561.72 409.34,561.84 412.97,562.75 417.09,563.88 421.22,565.16 425.31,566.41 429.44,567.72 432.09,568.62 432.19,568.66 " stroke="red" stroke-width="0.96875" stroke-linecap="round" stroke-linejoin="round" />
<polyline points="373.69,556.62 374.56,555.75 376.31,555.75 377.19,556.62 377.19,558.38 376.31,559.25 373.69,559.25 373.69,561 377.19,561 " stroke="red" stroke-width="0.71875" stroke-linecap="round" stroke-linejoin="round" />
<polyline points="379.81,560.12 380.69,561 382.44,561 383.31,560.12 383.31,559.25 379.81,555.75 383.31,555.75 " stroke="red" stroke-width="0.71875" stroke-linecap="round" stroke-linejoin="round" />
<polyline points="385.94,560.12 386.81,561 388.56,561 389.44,560.12 389.44,559.25 385.94,555.75 389.44,555.75 " stroke="red" stroke-width="0.71875" stroke-linecap="round" stroke-linejoin="round" />
<polygon points="392.94,561 392.06,560.12 392.06,556.62 392.94,555.75 394.69,555.75 395.56,556.62 395.56,560.12 394.69,561 " stroke="red" stroke-width="0.71875" stroke-linejoin="round" />
<line x1="19.156" y1="554.22" x2="18.031" y2="551.78" stroke="red" stroke-width="0.96875" stroke-linecap="round" />
<polyline points="19.781,560.72 20.656,561.59 22.406,561.59 23.281,560.72 23.281,559.84 19.781,556.34 23.281,556.34 " stroke="red" stroke-width="0.71875" stroke-linecap="round" stroke-linejoin="round" />
<polygon points="26.781,561.59 25.906,560.72 25.906,557.22 26.781,556.34 28.531,556.34 29.406,557.22 29.406,560.72 28.531,561.59 " stroke="red" stroke-width="0.71875" stroke-linejoin="round" />
<polyline points="58.531,568.66 58.5,568.62 55.188,561.84 55.062,561.47 53.281,555.12 52.406,548.47 51.688,541.91 51.5,540.16 " stroke="red" stroke-width="0.96875" stroke-linecap="round" stroke-linejoin="round" />
<polyline points="50.219,530.69 49.969,528.97 49.219,522.59 46.938,516.28 46.844,516.16 42.719,512.72 38.594,511.88 34.5,512.06 30.375,512.81 26.25,513.88 22.156,515.44 20.094,516.28 18.031,517.16 " stroke="red" stroke-width="0.96875" stroke-linecap="round" stroke-linejoin="round" />
<polyline points="40.438,533.66 41.312,532.78 43.062,532.78 43.938,533.66 43.938,535.41 43.062,536.28 40.438,536.28 40.438,538.03 43.938,538.03 " stroke="red" stroke-width="0.71875" stroke-linecap="round" stroke-linejoin="round" />
<polyline points="46.562,537.16 47.438,538.03 49.188,538.03 50.062,537.16 50.062,536.28 46.562,532.78 50.062,532.78 " stroke="red" stroke-width="0.71875" stroke-linecap="round" stroke-linejoin="round" />
<polygon points="53.562,538.03 52.688,537.16 52.688,536.28 53.562,535.41 55.312,535.41 56.188,536.28 56.188,537.16 55.312,538.03 " stroke="red" stroke-width="0.71875" stroke-linejoin="round" />
<polyline points="53.562,535.41 52.688,534.53 52.688,533.66 53.562,532.78 55.312,532.78 56.188,533.66 56.188,534.53 55.312,535.41 " stroke="red" stroke-width="0.71875" stroke-linecap="round" stroke-linejoin="round" />
<polygon points="59.688,538.03 58.812,537.16 58.812,533.66 59.688,532.78 61.438,532.78 62.312,533.66 62.312,537.16 61.438,538.03 " stroke="red" stroke-width="0.71875" stroke-linejoin="round" />
<polyline points="292.62,568.66 292.66,568.62 293.69,567.94 297.78,565.22 301.91,562.72 303.41,561.84 306.03,560.38 310.12,558.12 314.25,556.06 316.28,555.12 318.34,554.12 322.47,552.28 326.59,550.62 330.69,549.12 332.66,548.47 334.81,547.75 338.94,546.5 343.03,545.38 347.16,544.38 351.28,543.53 355.38,542.81 359.5,542.28 363.62,541.91 363.75,541.91 366.59,541.72 " stroke="red" stroke-width="0.96875" stroke-linecap="round" stroke-linejoin="round" />
<polyline points="393.53,542.94 396.53,543.47 400.62,544.25 404.75,545.09 408.88,545.84 412.97,546.62 417.09,547.47 421.22,548.41 421.53,548.47 425.31,549.38 429.44,550.47 433.56,551.66 437.66,553 441.78,554.62 442.94,555.12 445.91,556.44 450,558.41 454.12,560.44 457.03,561.84 458.25,562.41 462.34,564.5 466.47,566.66 470.09,568.62 470.16,568.66 " stroke="red" stroke-width="0.96875" stroke-linecap="round" stroke-linejoin="round" />
<polyline points="369.56,539.78 370.44,538.91 372.19,538.91 373.06,539.78 373.06,541.53 372.19,542.41 369.56,542.41 369.56,544.16 373.06,544.16 " stroke="red" stroke-width="0.71875" stroke-linecap="round" stroke-linejoin="round" />
<polyline points="375.69,543.28 376.56,544.16 378.31,544.16 379.19,543.28 379.19,542.41 375.69,538.91 379.19,538.91 " stroke="red" stroke-width="0.71875" stroke-linecap="round" stroke-linejoin="round" />
<polygon points="382.69,544.16 381.81,543.28 381.81,542.41 382.69,541.53 384.44,541.53 385.31,542.41 385.31,543.28 384.44,544.16 " stroke="red" stroke-width="0.71875" stroke-linejoin="round" />
<polyline points="382.69,541.53 381.81,540.66 381.81,539.78 382.69,538.91 384.44,538.91 385.31,539.78 385.31,540.66 384.44,541.53 " stroke="red" stroke-width="0.71875" stroke-linecap="round" stroke-linejoin="round" />
<polygon points="388.81,544.16 387.94,543.28 387.94,539.78 388.81,538.91 390.56,538.91 391.44,539.78 391.44,543.28 390.56,544.16 " stroke="red" stroke-width="0.71875" stroke-linejoin="round" />
<polyline points="501.66,568.66 501.59,568.62 499.38,567.28 495.25,564.78 491.16,562.34 490.28,561.84 487.03,559.88 482.91,557.47 478.81,555.12 478.78,555.12 474.69,552.88 470.56,550.75 466.47,548.81 465.69,548.47 462.34,546.97 458.25,545.19 454.12,543.47 450.34,541.91 450,541.75 445.91,540.12 441.78,538.59 437.66,537.19 433.56,536 431.31,535.38 429.44,534.88 425.31,533.84 421.22,532.88 417.09,532.03 412.97,531.25 408.88,530.5 404.75,529.72 401.59,528.97 400.62,528.72 396.53,527.75 392.41,526.81 388.31,526.03 384.19,525.5 380.06,525.09 375.97,524.78 371.84,524.56 367.72,524.28 363.62,524.06 359.5,523.91 355.38,523.84 351.28,524.03 347.16,524.28 343.03,524.62 338.94,525 334.81,525.28 330.69,525.56 326.59,525.84 322.47,526.16 318.34,526.47 314.25,526.78 310.12,527.06 306.03,527.28 301.91,527.41 297.78,527.47 293.69,527.47 289.56,527.38 285.44,527.22 281.34,527.03 278.34,526.88 " stroke="red" stroke-width="0.96875" stroke-linecap="round" stroke-linejoin="round" />
<polyline points="251.41,525.03 248.41,524.72 244.31,524.28 240.19,523.84 236.06,523.44 231.97,523 228,522.59 227.84,522.56 223.72,522.16 219.62,521.62 215.5,521.16 211.41,520.78 207.28,520.62 203.16,521.22 199.06,521.97 195.62,522.59 194.94,522.72 190.81,523.41 186.72,523.59 182.59,523.69 178.47,523.72 174.38,523.72 170.25,523.88 166.12,524 162.03,524.09 157.91,524.12 153.78,524.12 149.69,524 145.56,523.78 141.44,523.34 138.5,522.59 137.34,522.31 133.22,521.12 129.12,519.88 125,518.69 120.88,518.66 116.78,518.75 112.66,518.62 108.53,518 105.91,516.28 104.44,515.44 100.31,512.91 96.188,510.66 94.906,510.06 92.094,508.91 87.969,508.78 83.844,508.44 79.75,507.62 75.625,505.97 73.906,503.88 71.5,501.16 68.406,497.75 67.406,496.91 63.281,494 59.188,492 57.75,491.69 55.062,491.22 50.938,490.91 46.844,490.97 42.719,491.31 40.75,491.69 38.594,492.12 34.5,493.28 30.375,494.66 26.25,496.28 23.031,497.75 22.156,498.16 18.031,500.22 " stroke="red" stroke-width="0.96875" stroke-linecap="round" stroke-linejoin="round" />
<polyline points="254.38,524.34 255.25,523.47 257,523.47 257.88,524.34 257.88,526.09 257,526.97 254.38,526.97 254.38,528.72 257.88,528.72 " stroke="red" stroke-width="0.71875" stroke-linecap="round" stroke-linejoin="round" />
<polyline points="260.5,527.84 261.38,528.72 263.12,528.72 264,527.84 264,526.97 263.12,526.09 262.25,526.09 263.12,526.09 264,525.22 264,524.34 263.12,523.47 261.38,523.47 260.5,524.34 " stroke="red" stroke-width="0.71875" stroke-linecap="round" stroke-linejoin="round" />
<polyline points="268.38,528.72 266.62,526.09 270.12,526.09 270.12,528.72 270.12,523.47 " stroke="red" stroke-width="0.71875" stroke-linecap="round" stroke-linejoin="round" />
<polygon points="273.62,528.72 272.75,527.84 272.75,524.34 273.62,523.47 275.38,523.47 276.25,524.34 276.25,527.84 275.38,528.72 " stroke="red" stroke-width="0.71875" stroke-linejoin="round" />
<polyline points="542.38,568.66 542.31,568.62 540.53,567.88 536.41,566.03 532.28,563.84 528.69,561.84 528.19,561.53 524.06,559.12 519.94,556.75 516.66,555.12 515.84,554.72 511.72,552.69 507.59,550.75 503.5,548.81 502.84,548.47 499.38,546.62 495.25,544.47 491.16,542.38 490.19,541.91 487.03,540.31 482.91,538.31 478.81,536.44 476.38,535.38 474.69,534.66 470.56,532.94 466.47,531.31 462.34,529.72 460.31,528.97 458.25,528.16 454.12,526.62 450,525.16 445.91,523.75 442.22,522.59 441.78,522.44 437.66,521.19 433.56,520.06 429.44,519.03 425.31,518.09 421.22,517.19 417.09,516.28 412.97,515.38 408.88,514.47 404.75,513.56 400.62,512.62 396.53,511.75 392.41,510.91 388.31,510.16 387.59,510.06 384.19,509.47 380.06,508.81 375.97,508.16 371.84,507.5 367.72,506.72 363.62,505.94 359.5,505.19 355.38,504.59 351.28,504.41 347.16,504.34 343.03,504.34 338.94,504.38 334.81,504.09 332.19,503.88 330.69,503.75 326.59,503.38 322.47,503 318.34,502.75 314.25,502.47 311.25,502.22 " stroke="red" stroke-width="0.96875" stroke-linecap="round" stroke-linejoin="round" />
<polyline points="284.31,498.12 282.62,497.75 281.34,497.44 277.22,496.25 273.09,494.84 269,493.22 265.5,491.69 264.88,491.41 260.75,489.5 256.66,487.53 252.53,485.81 252.19,485.69 248.41,484.25 244.31,482.66 240.19,480.97 238.09,479.75 236.06,478.5 231.97,475.56 229.75,473.84 227.84,472.38 223.72,469.41 219.62,469.34 215.5,470.16 211.41,471.41 207.28,472.62 203.16,472.12 199.06,471.56 194.94,471.16 190.81,471.16 186.72,473.25 185.72,473.84 182.59,475.75 178.47,478.09 174.69,479.75 174.38,479.84 172.25,479.75 170.25,479.62 166.12,478.91 162.03,478 157.91,477.03 153.78,476.44 149.69,475.78 145.56,475.16 141.44,474.5 137.34,474.03 135.66,473.84 133.22,473.59 129.12,473.19 125,472.75 120.88,472.12 116.78,471.62 112.66,471.28 108.53,471.12 104.44,471.41 100.31,471.78 96.188,472.16 92.094,472.53 87.969,472.53 83.844,472.56 79.75,472.66 75.625,472.84 71.5,473.31 67.406,473.81 67.281,473.84 63.281,474.34 59.188,474.88 55.062,475.44 50.938,476.06 46.844,476.78 42.719,477.62 38.594,478.66 34.906,479.75 34.5,479.84 30.375,481.16 26.25,482.66 22.156,484.38 19.344,485.69 18.031,486.31 " stroke="red" stroke-width="0.96875" stroke-linecap="round" stroke-linejoin="round" />
<polyline points="287.28,498.84 288.16,497.97 289.91,497.97 290.78,498.84 290.78,500.59 289.91,501.47 287.28,501.47 287.28,503.22 290.78,503.22 " stroke="red" stroke-width="0.71875" stroke-linecap="round" stroke-linejoin="round" />
<polyline points="295.16,503.22 293.41,500.59 296.91,500.59 296.91,503.22 296.91,497.97 " stroke="red" stroke-width="0.71875" stroke-linecap="round" stroke-linejoin="round" />
<polygon points="300.41,503.22 299.53,502.34 299.53,498.84 300.41,497.97 302.16,497.97 303.03,498.84 303.03,502.34 302.16,503.22 " stroke="red" stroke-width="0.71875" stroke-linejoin="round" />
<polygon points="306.53,503.22 305.66,502.34 305.66,498.84 306.53,497.97 308.28,497.97 309.16,498.84 309.16,502.34 308.28,503.22 " stroke="red" stroke-width="0.71875" stroke-linejoin="round" />
<polyline points="594,547.62 589.88,548.16 585.78,548.31 581.66,547.56 577.53,546.66 573.44,545.69 569.31,544.72 565.19,544.22 561.09,543.72 556.97,543.19 552.88,542.62 548.75,542 548.16,541.91 544.62,541.25 540.53,540.34 536.41,539.22 532.28,537.56 528.19,535.78 527.28,535.38 524.06,533.97 519.94,532.16 515.84,530.62 511.72,529.06 511.41,528.97 507.59,527.47 503.5,525.84 499.38,524.16 495.47,522.59 495.25,522.5 491.16,520.88 487.03,519.31 482.91,517.91 478.81,516.59 477.88,516.28 474.69,515.28 470.56,514 466.47,512.59 462.34,511.19 458.97,510.06 458.25,509.78 454.12,508.38 450,507.12 445.91,505.91 441.78,504.81 438.06,503.88 437.66,503.75 433.56,502.78 429.44,501.81 425.31,500.88 421.22,499.91 417.09,498.88 412.97,497.88 412.5,497.75 408.88,496.81 404.75,495.81 400.62,494.94 396.53,494.06 392.41,493.22 388.31,492.41 385.03,491.69 384.19,491.5 380.06,490.53 375.97,489.56 371.84,488.59 367.72,487.66 363.62,486.75 359.5,485.91 358.25,485.69 355.38,485.12 351.28,484.5 347.16,483.94 343.03,483.34 338.94,482.78 334.81,482.22 330.69,481.62 326.59,480.97 322.47,480.22 320.81,479.75 319.31,479.25 " stroke="red" stroke-width="0.96875" stroke-linecap="round" stroke-linejoin="round" />
<polyline points="292.53,471.16 289.56,470.28 285.44,468.53 284.28,468 281.34,466.66 277.22,464.81 273.09,463 270.97,462.19 269,461.5 264.88,460.09 260.75,458.66 256.66,457.12 255.19,456.47 252.53,455.28 248.41,453.34 244.31,451.31 243.22,450.75 240.19,449.38 236.06,447.44 231.97,445.81 229.84,445.12 227.84,444.53 223.72,443.56 219.62,443.03 215.5,442.62 211.41,442.31 207.28,442.03 203.16,441.75 199.06,441.53 194.94,441.38 190.81,441.31 186.72,441.31 182.59,441.38 178.47,441.53 174.38,441.81 170.25,442.34 166.12,442.94 162.03,443.5 157.91,444 153.78,444.16 149.69,444.25 145.56,444.34 141.44,444.44 137.34,444.66 133.22,444.97 131.47,445.12 129.12,445.34 125,445.84 120.88,446.5 116.78,447.25 112.66,448.06 108.53,448.91 104.44,449.88 100.5,450.75 100.31,450.81 96.188,451.69 92.094,452.41 87.969,452.44 83.844,452.5 79.75,452.66 75.625,453.06 71.5,454.44 67.406,456.06 66.531,456.47 63.281,457.91 59.188,459.59 55.062,460.78 50.938,461.88 49.75,462.19 46.844,462.97 42.719,464.09 38.594,465.38 34.5,466.75 30.938,468 30.375,468.19 26.25,469.72 22.156,471.38 18.031,473.19 " stroke="red" stroke-width="0.96875" stroke-linecap="round" stroke-linejoin="round" />
<polyline points="295.53,472.78 296.41,471.91 298.16,471.91 299.03,472.78 299.03,474.53 298.16,475.41 295.53,475.41 295.53,477.16 299.03,477.16 " stroke="red" stroke-width="0.71875" stroke-linecap="round" stroke-linejoin="round" />
<polyline points="303.41,477.16 301.66,474.53 305.16,474.53 305.16,477.16 305.16,471.91 " stroke="red" stroke-width="0.71875" stroke-linecap="round" stroke-linejoin="round" />
<polyline points="311.28,476.28 310.41,477.16 308.66,477.16 307.78,476.28 307.78,472.78 308.66,471.91 310.41,471.91 311.28,472.78 311.28,473.66 310.41,474.53 307.78,474.53 " stroke="red" stroke-width="0.71875" stroke-linecap="round" stroke-linejoin="round" />
<polygon points="314.78,477.16 313.91,476.28 313.91,472.78 314.78,471.91 316.53,471.91 317.41,472.78 317.41,476.28 316.53,477.16 " stroke="red" stroke-width="0.71875" stroke-linejoin="round" />
<polyline points="594,497.44 593.72,497.75 589.88,501.69 587.19,503.88 585.78,504.84 581.66,507.31 577.53,509.16 574.91,510.06 573.44,510.5 569.31,511.41 565.19,511.94 561.09,512.22 556.97,512.38 552.88,512.38 548.75,512.44 544.62,512.34 540.53,512.09 536.41,511.62 532.28,510.72 529.75,510.06 528.19,509.66 524.06,508.44 519.94,507.16 515.84,505.81 511.72,504.41 510.16,503.88 507.59,503.03 503.5,501.72 499.38,500.5 495.25,499.31 491.16,498.16 489.72,497.75 487.03,496.97 482.91,495.91 478.81,494.78 474.69,493.62 470.56,492.44 468.22,491.69 466.47,491.09 462.34,489.75 458.25,488.47 454.12,487.25 450,486.25 447.59,485.69 445.91,485.28 441.78,484.31 437.66,483.34 433.56,482.19 429.44,481 425.31,479.81 425.03,479.75 421.22,478.53 417.09,477.41 412.97,476.34 408.88,475.28 404.75,474.25 403.16,473.84 400.62,473.12 396.53,471.94 392.41,470.75 388.31,469.59 384.19,468.47 382.34,468 380.06,467.34 375.97,466.25 371.84,465.16 367.72,464.06 363.62,462.94 360.91,462.19 359.5,461.78 355.38,460.56 351.28,459.38 347.16,458.22 343.03,457.06 340.91,456.47 338.94,455.81 334.81,454.56 330.69,453.28 326.59,452 323.59,451.03 " stroke="red" stroke-width="0.96875" stroke-linecap="round" stroke-linejoin="round" />
<polyline points="296.66,442.78 293.69,442 289.56,440.94 285.44,439.97 283.5,439.5 281.34,439.03 277.22,438.16 273.09,437.34 269,436.56 264.88,435.78 260.75,434.91 256.66,433.97 256.62,433.97 252.53,432.53 248.41,431.09 244.31,429.78 240.19,428.69 237.19,428.44 236.06,428.34 231.97,428.12 227.84,427.88 223.72,427.53 219.62,426.38 215.5,424.97 211.41,423.44 210.06,422.97 207.28,421.91 203.16,421.88 199.06,422.16 194.94,422.59 191.09,422.97 190.81,423 190.41,422.97 186.72,422.72 182.59,422.44 178.47,422.19 174.38,422.03 170.25,422.38 166.12,422.88 165.5,422.97 162.03,423.47 157.91,424.09 153.78,424.59 149.69,425.06 145.56,425.56 141.44,426.06 137.34,426.56 133.22,427.12 129.12,427.72 125,428.41 124.78,428.44 120.88,429.16 116.78,430.03 112.66,430.94 108.53,431.94 104.44,433.12 101.53,433.97 100.31,434.28 96.188,435.38 92.094,436.38 87.969,436.88 83.844,437.31 79.75,437.78 75.625,438.31 71.5,439.38 71.094,439.5 67.406,440.69 63.281,442.22 59.188,444 56.438,445.12 55.062,445.66 50.938,447.22 46.844,448.75 42.719,450.22 41.312,450.75 38.594,451.75 34.5,453.28 30.375,454.84 26.375,456.47 26.25,456.5 22.156,458.09 18.031,459.78 " stroke="red" stroke-width="0.96875" stroke-linecap="round" stroke-linejoin="round" />
<polyline points="299.62,444.75 300.5,443.88 302.25,443.88 303.12,444.75 303.12,446.5 302.25,447.38 299.62,447.38 299.62,449.12 303.12,449.12 " stroke="red" stroke-width="0.71875" stroke-linecap="round" stroke-linejoin="round" />
<polyline points="305.75,444.75 306.62,443.88 308.38,443.88 309.25,444.75 309.25,446.5 308.38,447.38 305.75,447.38 305.75,449.12 309.25,449.12 " stroke="red" stroke-width="0.71875" stroke-linecap="round" stroke-linejoin="round" />
<polyline points="311.88,448.25 312.75,449.12 314.5,449.12 315.38,448.25 315.38,447.38 311.88,443.88 315.38,443.88 " stroke="red" stroke-width="0.71875" stroke-linecap="round" stroke-linejoin="round" />
<polygon points="318.88,449.12 318,448.25 318,444.75 318.88,443.88 320.62,443.88 321.5,444.75 321.5,448.25 320.62,449.12 " stroke="red" stroke-width="0.71875" stroke-linejoin="round" />
<polyline points="594,457.75 589.88,461.12 588.53,462.19 585.78,464.59 581.66,467.75 581.28,468 577.53,470.72 573.44,473.47 572.81,473.84 569.31,475.91 565.19,477.84 561.09,479.41 559.97,479.75 556.97,480.59 552.88,481.47 548.75,482.12 544.62,482.59 540.53,482.84 536.41,482.91 532.28,482.84 528.19,482.59 524.06,482.22 519.94,481.69 515.84,481.03 511.72,480.28 509,479.75 507.59,479.41 503.5,478.34 499.38,477.16 495.25,475.94 491.16,474.69 488.41,473.84 487.03,473.41 482.91,472 478.81,470.62 474.69,469.25 470.91,468 470.56,467.88 466.47,466.47 462.34,465.06 458.25,463.62 454.22,462.19 454.12,462.16 450,460.66 445.91,459.12 441.78,457.56 438.84,456.47 437.66,456.03 433.56,454.66 429.44,453.34 425.31,451.97 421.72,450.75 421.22,450.59 417.09,448.97 412.97,447.28 408.88,445.53 407.91,445.12 404.75,443.72 400.62,442 396.53,440.34 394.44,439.5 392.41,438.72 388.31,437.12 384.19,435.44 380.59,433.97 380.06,433.75 375.97,432.12 371.84,430.5 367.72,428.75 367,428.44 363.62,427.03 359.5,425.34 355.38,423.66 353.72,422.97 351.28,422 347.16,420.38 343.03,418.78 339.59,417.53 338.94,417.31 334.81,416.38 331.84,415.81 " stroke="red" stroke-width="0.96875" stroke-linecap="round" stroke-linejoin="round" />
<polyline points="304.88,410.88 301.91,410.12 297.78,409.16 293.69,408.31 289.56,407.69 285.44,407.47 281.34,407.41 277.22,407.44 273.09,407.5 269,407.44 264.88,407.31 260.75,407.16 256.66,406.97 255.38,406.78 252.53,406.44 248.41,405.97 244.31,405.62 240.19,405.44 236.06,406.25 233.47,406.78 231.97,407.09 227.84,407.72 223.72,407.84 222,406.78 219.62,405.25 215.5,402.59 213.47,401.47 211.41,400.44 207.28,398.94 203.16,399.09 199.06,399.66 194.94,400.53 191.31,401.47 190.81,401.59 186.72,402.09 182.59,402.47 178.47,402.78 174.38,403 170.25,403.22 166.12,403.44 162.03,403.78 157.91,404.19 153.78,404.84 149.69,405.62 145.56,406.47 144.03,406.78 141.44,407.31 137.34,408.12 133.22,408.97 129.12,409.81 125,410.66 120.88,411.47 117.84,412.16 116.78,412.34 112.66,413.19 108.53,414.12 104.44,415.28 100.31,416.53 97.156,417.53 96.188,417.81 92.094,419.09 87.969,420.31 83.844,421.41 79.75,422.44 77.344,422.97 75.625,423.31 71.5,424.06 67.406,424.88 63.281,425.81 59.188,427.03 55.812,428.44 55.062,428.75 50.938,430.62 46.844,432.66 44.312,433.97 42.719,434.66 38.594,436.38 34.5,438.09 31.031,439.5 30.375,439.78 26.25,441.34 22.156,442.97 18.031,444.62 " stroke="red" stroke-width="0.96875" stroke-linecap="round" stroke-linejoin="round" />
<polyline points="307.84,411.88 308.72,411 310.47,411 311.34,411.88 311.34,413.62 310.47,414.5 307.84,414.5 307.84,416.25 311.34,416.25 " stroke="red" stroke-width="0.71875" stroke-linecap="round" stroke-linejoin="round" />
<polyline points="313.97,411.88 314.84,411 316.59,411 317.47,411.88 317.47,413.62 316.59,414.5 313.97,414.5 313.97,416.25 317.47,416.25 " stroke="red" stroke-width="0.71875" stroke-linecap="round" stroke-linejoin="round" />
<polygon points="320.97,416.25 320.09,415.38 320.09,414.5 320.97,413.62 322.72,413.62 323.59,414.5 323.59,415.38 322.72,416.25 " stroke="red" stroke-width="0.71875" stroke-linejoin="round" />
<polyline points="320.97,413.62 320.09,412.75 320.09,411.88 320.97,411 322.72,411 323.59,411.88 323.59,412.75 322.72,413.62 " stroke="red" stroke-width="0.71875" stroke-linecap="round" stroke-linejoin="round" />
<polygon points="327.09,416.25 326.22,415.38 326.22,411.88 327.09,411 328.84,411 329.72,411.88 329.72,415.38 328.84,416.25 " stroke="red" stroke-width="0.71875" stroke-linejoin="round" />
<polyline points="594,425.47 590.09,428.44 589.88,428.59 585.78,431.5 581.66,433.97 577.53,436.09 573.44,438.03 570.06,439.5 569.31,439.84 565.19,441.5 561.09,443.03 556.97,444.41 554.59,445.12 552.88,445.62 548.75,446.62 544.62,447.44 540.53,448.06 536.41,448.47 532.28,448.69 528.19,448.72 524.06,448.62 519.94,448.41 515.84,448.09 511.72,447.69 507.59,447.16 503.5,446.47 499.38,445.53 497.72,445.12 495.25,444.41 491.16,443.12 487.03,441.78 482.91,440.75 478.81,439.75 477.81,439.5 474.69,438.72 470.56,437.66 466.47,436.28 462.34,434.88 459.72,433.97 458.25,433.41 454.12,431.94 450,430.47 445.91,429 444.41,428.44 441.78,427.44 437.66,425.81 433.56,424.12 430.81,422.97 429.44,422.38 425.31,420.62 421.22,418.91 417.84,417.53 417.09,417.25 412.97,415.62 408.88,414.06 404.75,412.5 403.88,412.16 400.62,410.88 396.53,409.25 392.41,407.75 389.81,406.78 388.31,406.28 384.19,404.88 380.06,403.5 375.97,402.16 373.91,401.47 371.84,400.81 367.72,399.56 363.62,398.34 359.5,397.16 356.22,396.22 355.38,395.97 351.28,394.66 347.16,393.31 343.03,391.97 340,390.97 338.94,390.59 334.81,389.19 330.69,387.84 327.72,386.88 " stroke="red" stroke-width="0.96875" stroke-linecap="round" stroke-linejoin="round" />
<polyline points="300.78,379.09 297.78,378.25 293.69,377.12 289.56,376.06 286.41,375.47 285.44,375.28 281.34,374.66 277.22,374.16 273.09,373.75 269,373.41 264.88,373.16 260.75,373 256.66,372.94 252.53,372.91 248.41,373 244.31,373.19 240.19,373.53 236.06,374.22 231.97,374.84 227.84,375.34 226.25,375.47 223.72,375.62 221.59,375.47 219.62,375.31 215.5,374.84 211.41,374.34 207.28,373.88 203.16,373.69 199.06,373.62 194.94,373.69 190.81,373.94 186.72,374.62 182.59,375.47 178.47,376.34 174.38,377.19 170.25,377.28 166.12,377.25 162.03,377.22 157.91,377.22 153.78,377.66 149.69,378.25 145.56,378.91 141.44,379.66 137.34,380.38 136.28,380.59 133.22,381.22 129.12,382.16 125,383.19 120.88,384.06 116.78,384.97 113.5,385.78 112.66,385.97 108.53,387.06 104.44,388.78 100.31,390.78 99.938,390.97 96.188,392.69 92.094,394.69 88.75,396.22 87.969,396.53 83.844,398.41 79.75,400.34 77.375,401.47 75.625,402.22 71.5,403.44 67.406,404.5 63.281,405.47 59.188,406.44 58.125,406.78 55.062,407.78 50.938,409.28 46.844,410.97 44.219,412.16 42.719,412.81 38.594,414.62 34.5,416.62 32.656,417.53 30.375,418.66 26.25,420.75 22.156,422.94 22.062,422.97 18.031,424.94 " stroke="red" stroke-width="0.96875" stroke-linecap="round" stroke-linejoin="round" />
<polyline points="303.75,381.06 304.62,380.19 306.38,380.19 307.25,381.06 307.25,382.81 306.38,383.69 303.75,383.69 303.75,385.44 307.25,385.44 " stroke="red" stroke-width="0.71875" stroke-linecap="round" stroke-linejoin="round" />
<polyline points="313.38,384.56 312.5,385.44 310.75,385.44 309.88,384.56 309.88,381.06 310.75,380.19 312.5,380.19 313.38,381.06 313.38,381.94 312.5,382.81 309.88,382.81 " stroke="red" stroke-width="0.71875" stroke-linecap="round" stroke-linejoin="round" />
<polyline points="317.75,385.44 316,382.81 319.5,382.81 319.5,385.44 319.5,380.19 " stroke="red" stroke-width="0.71875" stroke-linecap="round" stroke-linejoin="round" />
<polygon points="323,385.44 322.12,384.56 322.12,381.06 323,380.19 324.75,380.19 325.62,381.06 325.62,384.56 324.75,385.44 " stroke="red" stroke-width="0.71875" stroke-linejoin="round" />
<polyline points="594,387.72 589.88,389.91 587.69,390.97 585.78,391.81 581.66,393.19 577.53,394.41 573.44,395.53 570.66,396.22 569.31,396.53 565.19,397.69 561.09,398.78 556.97,399.78 552.88,400.72 549.72,401.47 548.75,401.72 544.62,402.56 540.53,403.28 536.41,403.84 532.28,404.09 528.19,404.16 524.06,404 519.94,403.62 515.84,403.03 511.72,402.28 507.91,401.47 507.59,401.41 503.5,400.44 499.38,399.41 495.25,398.38 491.16,397.34 487.03,396.31 486.66,396.22 482.91,395.22 478.81,394.09 474.69,392.94 470.56,391.78 467.66,390.97 466.47,390.59 462.34,389.34 458.25,388.25 454.12,387.31 450,386.88 445.91,386.59 441.78,386.34 437.66,386.09 434.56,385.78 433.56,385.66 429.44,385.12 425.31,384.5 421.22,383.75 417.09,382.72 412.97,381.62 409.19,380.59 408.88,380.5 404.75,379.34 400.62,378.31 396.53,377.31 392.41,376.34 388.62,375.47 388.31,375.38 384.19,374.5 380.06,373.72 375.97,372.97 371.84,372.28 367.72,371.56 363.62,370.81 361.28,370.38 359.5,369.97 355.38,368.97 351.28,367.69 347.16,366.38 343.72,365.28 343.03,365.06 338.94,363.78 334.81,362.69 330.69,361.69 326.59,360.69 324.72,360.25 322.47,359.72 318.34,358.69 316.94,358.34 " stroke="red" stroke-width="0.96875" stroke-linecap="round" stroke-linejoin="round" />
<polyline points="289.97,352.44 289.56,352.38 285.44,351.62 281.34,350.88 278,350.28 277.22,350.12 273.09,349.28 269,348.44 264.88,347.62 260.75,346.91 256.66,346.25 252.53,345.78 248.41,345.38 247.75,345.31 244.31,345.03 240.19,344.75 236.06,344.59 231.97,344.44 227.84,344.28 223.72,344.03 219.62,343.34 215.5,342.56 211.41,341.75 207.28,340.97 203.16,340.53 201.16,340.41 199.06,340.25 194.94,340.06 190.81,340.06 186.72,340.34 186,340.41 182.59,340.75 178.47,341.25 174.38,341.78 170.25,342.03 166.12,342.34 162.03,342.72 157.91,343.22 153.78,344.06 149.69,345.19 149.25,345.31 145.56,346.41 141.44,347.78 137.34,349.09 133.59,350.28 133.22,350.34 129.12,351.25 125,352.16 120.88,353.22 116.78,354.28 113.34,355.25 112.66,355.44 108.53,356.53 104.44,357.66 100.31,358.84 96.188,360.06 95.562,360.25 92.094,361.31 87.969,362.66 83.844,364.12 80.875,365.28 79.75,365.75 75.625,367.59 71.5,369.69 70.312,370.38 67.406,372.28 63.281,375.03 62.625,375.47 59.188,377.69 55.062,380.09 54.156,380.59 50.938,382.28 46.844,384.38 44,385.78 42.719,386.38 38.594,388.5 34.5,390.72 34.031,390.97 30.375,392.97 26.25,395.28 24.594,396.22 22.156,397.53 18.031,399.84 " stroke="red" stroke-width="0.96875" stroke-linecap="round" stroke-linejoin="round" />
<polyline points="292.94,353.5 293.81,352.62 295.56,352.62 296.44,353.5 296.44,355.25 295.56,356.12 292.94,356.12 292.94,357.88 296.44,357.88 " stroke="red" stroke-width="0.71875" stroke-linecap="round" stroke-linejoin="round" />
<polyline points="299.06,357.88 302.56,357.88 300.81,352.62 " stroke="red" stroke-width="0.71875" stroke-linecap="round" stroke-linejoin="round" />
<polygon points="306.06,357.88 305.19,357 305.19,353.5 306.06,352.62 307.81,352.62 308.69,353.5 308.69,357 307.81,357.88 " stroke="red" stroke-width="0.71875" stroke-linejoin="round" />
<polygon points="312.19,357.88 311.31,357 311.31,353.5 312.19,352.62 313.94,352.62 314.81,353.5 314.81,357 313.94,357.88 " stroke="red" stroke-width="0.71875" stroke-linejoin="round" />
<polyline points="594,319.28 589.88,319.38 585.78,319.38 581.66,319.62 577.53,319.81 573.44,319.84 569.31,319.59 565.19,318.44 561.09,317 559.12,316.22 556.97,315.34 552.88,313.66 548.75,312.62 544.62,311.56 544.22,311.44 540.53,310.12 536.41,308.28 534.38,306.72 532.28,305.16 528.19,302.16 527.97,302 524.06,299.5 520.22,297.31 519.94,297.16 515.84,295.44 511.72,293.66 509.5,292.62 507.59,291.94 503.5,290.5 499.38,288.81 497.31,287.97 495.25,287.25 491.16,285.88 487.03,284.62 482.91,283.53 482.12,283.34 478.81,282.69 474.69,282.12 470.56,281.88 466.47,282.41 462.34,283.31 462.19,283.34 458.25,284.59 454.12,286.19 450,287.81 449.66,287.97 445.91,289.81 441.78,292.09 440.91,292.62 437.66,294.91 434.66,297.31 433.56,298.25 429.44,301.94 429.38,302 425.31,305.84 424.41,306.72 421.22,309.78 419.31,311.44 417.09,313.47 413.56,316.22 412.97,316.62 408.88,318.97 404.75,320.75 404.06,321 400.62,322.03 396.53,323.09 392.41,324.06 388.31,324.97 384.94,325.81 384.19,325.97 380.06,326.84 375.97,327.62 371.84,328.31 367.72,328.88 363.62,329.31 359.5,329.62 355.38,329.81 351.28,329.78 347.16,329.59 343.03,329.34 338.94,328.97 334.81,328.5 330.69,328 326.59,327.44 322.47,326.88 318.34,326.38 315.38,326 " stroke="red" stroke-width="0.96875" stroke-linecap="round" stroke-linejoin="round" />
<polyline points="288.44,322.56 285.44,322.03 281.34,321.31 279.47,321 277.22,320.59 273.09,319.91 269,319.38 264.88,318.91 260.75,318.5 256.66,318.06 252.53,317.66 248.41,317.25 244.31,316.78 240.19,316.28 239.69,316.22 236.06,315.56 231.97,314.66 227.84,313.5 223.72,312.19 221.22,311.44 219.62,311.03 215.5,310.06 211.41,309.16 207.28,308.28 203.16,307.31 200.66,306.72 199.06,306.28 194.94,305.19 190.81,304.09 186.72,303.38 182.59,302.81 178.47,302.28 176.22,302 174.38,301.75 170.25,300.91 166.12,300.06 162.03,299.16 157.91,298.25 153.78,297.5 152.81,297.31 149.69,296.69 145.56,295.88 141.44,295.03 137.34,294.09 133.22,293.25 129.69,292.62 129.12,292.5 125,291.78 120.88,291.03 116.78,290.47 112.66,290.09 108.53,290.03 104.44,290.72 100.31,291.91 98.562,292.62 96.188,294.88 94.281,297.31 92.094,301.75 91.969,302 90.156,306.72 88.312,311.44 87.969,311.94 85.188,316.22 83.844,318 81.75,321 79.75,323.5 77.969,325.81 75.625,328.34 73.281,330.66 71.5,332.03 67.406,335.38 67.219,335.5 63.281,338.34 60.625,340.41 59.188,341.41 55.062,344.66 54.25,345.31 50.938,347.62 47.281,350.28 46.844,350.53 42.719,352.97 38.812,355.25 38.594,355.38 34.5,357.56 30.375,359.81 29.531,360.25 26.25,361.91 22.156,363.81 19.094,365.28 18.031,365.78 " stroke="red" stroke-width="0.96875" stroke-linecap="round" stroke-linejoin="round" />
<polyline points="291.41,322.59 292.28,321.72 294.03,321.72 294.91,322.59 294.91,324.34 294.03,325.22 291.41,325.22 291.41,326.97 294.91,326.97 " stroke="red" stroke-width="0.71875" stroke-linecap="round" stroke-linejoin="round" />
<polyline points="297.53,326.97 301.03,326.97 299.28,321.72 " stroke="red" stroke-width="0.71875" stroke-linecap="round" stroke-linejoin="round" />
<polyline points="307.16,326.09 306.28,326.97 304.53,326.97 303.66,326.09 303.66,322.59 304.53,321.72 306.28,321.72 307.16,322.59 307.16,323.47 306.28,324.34 303.66,324.34 " stroke="red" stroke-width="0.71875" stroke-linecap="round" stroke-linejoin="round" />
<polygon points="310.66,326.97 309.78,326.09 309.78,322.59 310.66,321.72 312.41,321.72 313.28,322.59 313.28,326.09 312.41,326.97 " stroke="red" stroke-width="0.71875" stroke-linejoin="round" />
<polyline points="24.375,247 24.375,247.03 22.594,251.28 " stroke="red" stroke-width="0.96875" stroke-linecap="round" stroke-linejoin="round" />
<line x1="18.125" y1="260.72" x2="18.031" y2="260.91" stroke="red" stroke-width="0.96875" stroke-linecap="round" />
<polyline points="18.031,256 18.688,256 19.562,256.88 19.562,257.75 18.688,258.62 18.031,258.62 " stroke="red" stroke-width="0.71875" stroke-linecap="round" stroke-linejoin="round" />
<polyline points="18.031,253.38 18.688,253.38 19.562,254.25 19.562,255.12 18.688,256 " stroke="red" stroke-width="0.71875" stroke-linecap="round" stroke-linejoin="round" />
<polyline points="22.188,257.75 23.062,258.62 24.812,258.62 25.688,257.75 25.688,256.88 22.188,253.38 25.688,253.38 " stroke="red" stroke-width="0.71875" stroke-linecap="round" stroke-linejoin="round" />
<polygon points="29.188,258.62 28.312,257.75 28.312,254.25 29.188,253.38 30.938,253.38 31.812,254.25 31.812,257.75 30.938,258.62 " stroke="red" stroke-width="0.71875" stroke-linejoin="round" />
<polyline points="242.97,247 243,247.03 244.31,248.09 248.41,251.06 249.19,251.5 252.53,253.09 256.66,254.53 260.75,255.34 264.88,255.78 267.84,255.88 " stroke="red" stroke-width="0.96875" stroke-linecap="round" stroke-linejoin="round" />
<polyline points="294.81,252.97 297.78,252.75 301.91,252.25 305.81,251.5 306.03,251.47 310.12,249.69 314.25,247.75 315.72,247.03 315.78,247 " stroke="red" stroke-width="0.96875" stroke-linecap="round" stroke-linejoin="round" />
<polyline points="270.84,252.91 271.72,252.03 273.47,252.03 274.34,252.91 274.34,254.66 273.47,255.53 270.84,255.53 270.84,257.28 274.34,257.28 " stroke="red" stroke-width="0.71875" stroke-linecap="round" stroke-linejoin="round" />
<polygon points="277.84,257.28 276.97,256.41 276.97,255.53 277.84,254.66 279.59,254.66 280.47,255.53 280.47,256.41 279.59,257.28 " stroke="red" stroke-width="0.71875" stroke-linejoin="round" />
<polyline points="277.84,254.66 276.97,253.78 276.97,252.91 277.84,252.03 279.59,252.03 280.47,252.91 280.47,253.78 279.59,254.66 " stroke="red" stroke-width="0.71875" stroke-linecap="round" stroke-linejoin="round" />
<polyline points="283.09,256.41 283.97,257.28 285.72,257.28 286.59,256.41 286.59,255.53 283.09,252.03 286.59,252.03 " stroke="red" stroke-width="0.71875" stroke-linecap="round" stroke-linejoin="round" />
<polygon points="290.09,257.28 289.22,256.41 289.22,252.91 290.09,252.03 291.84,252.03 292.72,252.91 292.72,256.41 291.84,257.28 " stroke="red" stroke-width="0.71875" stroke-linejoin="round" />
</g>
</svg>
