<?xml version="1.0" encoding="ISO-8859-1" standalone="no"?>
<!DOCTYPE svg PUBLIC "-//W3C//DTD SVG 1.1//EN" "http://www.w3.org/Graphics/SVG/1.1/DTD/svg11.dtd">
<svg version="1.1" baseProfile="full" id="body" width="900px" height="600px" viewBox="0 0.2 1 0.55" preserveAspectRatio="none" xmlns="http://www.w3.org/2000/svg" xmlns:xlink="http://www.w3.org/1999/xlink" xmlns:ev="http://www.w3.org/2001/xml-events">
<title>SVG drawing</title>
<desc>This was produced by version 4.2 of GNU libplot, a free library for exporting 2-D vector graphics.</desc>
<rect id="background" x="0" y="0" width="1" height="1" stroke="none" fill="none"/>
<g id="content" transform="translate(-0.03125,1.1875) scale(1,-1) scale(0.0017361) " xml:space="preserve" stroke="black" stroke-linecap="butt" stroke-linejoin="miter" stroke-miterlimit="10.433" stroke-dasharray="none" stroke-dashoffset="0" stroke-opacity="1" fill="none" fill-rule="even-odd" fill-opacity="1" font-style="normal" font-variant="normal" font-weight="normal" font-stretch="normal" font-size-adjust="none" letter-spacing="normal" word-spacing="normal" text-anchor="start">
<polyline points="539.59,568.66 539.62,568.62 540.53,567.44 544.62,562.94 544.97,562.66 " stroke="red" stroke-width="0.96875" stroke-linecap="round" stroke-linejoin="round" />
<polyline points="570.44,561.62 570.75,561.84 573.44,564.03 577.53,568.16 577.94,568.62 577.97,568.66 " stroke="red" stroke-width="0.96875" stroke-linecap="round" stroke-linejoin="round" />
<polyline points="546.47,556.19 547.34,555.31 549.09,555.31 549.97,556.19 549.97,557.94 549.09,558.81 546.47,558.81 546.47,560.56 549.97,560.56 " stroke="red" stroke-width="0.71875" stroke-linecap="round" stroke-linejoin="round" />
<polyline points="552.59,559.69 553.47,560.56 555.22,560.56 556.09,559.69 556.09,558.81 552.59,555.31 556.09,555.31 " stroke="red" stroke-width="0.71875" stroke-linecap="round" stroke-linejoin="round" />
<polyline points="558.72,559.69 559.59,560.56 561.34,560.56 562.22,559.69 562.22,558.81 558.72,555.31 562.22,555.31 " stroke="red" stroke-width="0.71875" stroke-linecap="round" stroke-linejoin="round" />
<polygon points="565.72,560.56 564.84,559.69 564.84,556.19 565.72,555.31 567.47,555.31 568.34,556.19 568.34,559.69 567.47,560.56 " stroke="red" stroke-width="0.71875" stroke-linejoin="round" />
<polyline points="199.88,568.66 199.91,568.62 203.16,565.28 206.31,561.84 207.28,561.06 211.41,558.91 215.5,557.38 218.5,556.78 " stroke="red" stroke-width="0.96875" stroke-linecap="round" stroke-linejoin="round" />
<polyline points="245.44,562.91 248.41,564.22 252.53,566.09 256.66,567.94 258.06,568.62 258.12,568.66 " stroke="red" stroke-width="0.96875" stroke-linecap="round" stroke-linejoin="round" />
<polyline points="221.47,556.59 222.34,555.72 224.09,555.72 224.97,556.59 224.97,558.34 224.09,559.22 221.47,559.22 221.47,560.97 224.97,560.97 " stroke="red" stroke-width="0.71875" stroke-linecap="round" stroke-linejoin="round" />
<polyline points="227.59,560.09 228.47,560.97 230.22,560.97 231.09,560.09 231.09,559.22 227.59,555.72 231.09,555.72 " stroke="red" stroke-width="0.71875" stroke-linecap="round" stroke-linejoin="round" />
<polygon points="234.59,560.97 233.72,560.09 233.72,559.22 234.59,558.34 236.34,558.34 237.22,559.22 237.22,560.09 236.34,560.97 " stroke="red" stroke-width="0.71875" stroke-linejoin="round" />
<polyline points="234.59,558.34 233.72,557.47 233.72,556.59 234.59,555.72 236.34,555.72 237.22,556.59 237.22,557.47 236.34,558.34 " stroke="red" stroke-width="0.71875" stroke-linecap="round" stroke-linejoin="round" />
<polygon points="240.72,560.97 239.84,560.09 239.84,556.59 240.72,555.72 242.47,555.72 243.34,556.59 243.34,560.09 242.47,560.97 " stroke="red" stroke-width="0.71875" stroke-linejoin="round" />
<polyline points="504.16,568.66 504.19,568.62 507.59,562.09 507.72,561.84 511.09,555.12 511.72,553.84 514.53,548.47 515.84,546.16 518.47,541.91 519.94,539.72 523.22,535.38 524.06,534.41 528.19,530.75 531.16,529.03 " stroke="red" stroke-width="0.96875" stroke-linecap="round" stroke-linejoin="round" />
<polyline points="558.09,532.75 561.09,533.66 565.19,535.12 565.81,535.38 569.31,536.91 573.44,539.28 577.47,541.91 577.53,541.94 581.66,545.03 585.78,548.41 585.84,548.47 589.88,552.38 592.38,555.12 594,557.25 " stroke="red" stroke-width="0.96875" stroke-linecap="round" stroke-linejoin="round" />
<polyline points="534.12,527 535,526.12 536.75,526.12 537.62,527 537.62,528.75 536.75,529.62 534.12,529.62 534.12,531.38 537.62,531.38 " stroke="red" stroke-width="0.71875" stroke-linecap="round" stroke-linejoin="round" />
<polyline points="540.25,530.5 541.12,531.38 542.88,531.38 543.75,530.5 543.75,529.62 540.25,526.12 543.75,526.12 " stroke="red" stroke-width="0.71875" stroke-linecap="round" stroke-linejoin="round" />
<polygon points="547.25,531.38 546.38,530.5 546.38,529.62 547.25,528.75 549,528.75 549.88,529.62 549.88,530.5 549,531.38 " stroke="red" stroke-width="0.71875" stroke-linejoin="round" />
<polyline points="547.25,528.75 546.38,527.88 546.38,527 547.25,526.12 549,526.12 549.88,527 549.88,527.88 549,528.75 " stroke="red" stroke-width="0.71875" stroke-linecap="round" stroke-linejoin="round" />
<polygon points="553.38,531.38 552.5,530.5 552.5,527 553.38,526.12 555.12,526.12 556,527 556,530.5 555.12,531.38 " stroke="red" stroke-width="0.71875" stroke-linejoin="round" />
<polyline points="297.75,568.66 297.69,568.62 293.69,566.81 289.56,564.91 285.44,562.56 284.25,561.84 281.34,560.03 277.22,557.41 273.72,555.12 273.09,554.75 269,552.66 264.88,550.59 260.75,548.62 260.38,548.47 256.66,546.94 252.53,545.72 248.41,544.66 244.31,543.69 240.19,542.72 238.06,541.91 236.06,541.16 231.97,539.56 227.84,537.94 223.72,536.41 219.62,535.69 216.22,535.38 215.5,535.34 211.41,535.31 210,535.38 207.28,535.59 203.16,536.22 199.06,537.22 194.94,538.5 190.81,540.03 187.84,541.03 " stroke="red" stroke-width="0.96875" stroke-linecap="round" stroke-linejoin="round" />
<polyline points="160.88,547.28 157.91,547.69 155.53,548.47 153.78,549.06 149.69,550.56 145.56,552.03 141.44,553.47 137.34,554.88 136.69,555.12 133.22,556.53 129.12,558.22 125,559.88 120.88,561 117.38,561.84 116.78,562 112.66,562.97 108.53,563.84 104.44,565.06 100.31,566.19 96.188,567.19 92.094,568.03 87.969,568.56 87.156,568.62 86.812,568.66 " stroke="red" stroke-width="0.96875" stroke-linecap="round" stroke-linejoin="round" />
<polyline points="63.938,568.66 63.656,568.62 63.281,568.59 59.188,567.88 55.062,566.56 50.938,565.06 46.844,563.44 42.812,561.84 42.719,561.78 38.594,560.41 34.5,558.94 30.375,557.34 26.25,555.53 25.438,555.12 22.156,553.16 18.031,550.5 " stroke="red" stroke-width="0.96875" stroke-linecap="round" stroke-linejoin="round" />
<polyline points="163.88,543.94 164.75,543.06 166.5,543.06 167.38,543.94 167.38,545.69 166.5,546.56 163.88,546.56 163.88,548.31 167.38,548.31 " stroke="red" stroke-width="0.71875" stroke-linecap="round" stroke-linejoin="round" />
<polyline points="170,547.44 170.88,548.31 172.62,548.31 173.5,547.44 173.5,546.56 172.62,545.69 171.75,545.69 172.62,545.69 173.5,544.81 173.5,543.94 172.62,543.06 170.88,543.06 170,543.94 " stroke="red" stroke-width="0.71875" stroke-linecap="round" stroke-linejoin="round" />
<polyline points="177.88,548.31 176.12,545.69 179.62,545.69 179.62,548.31 179.62,543.06 " stroke="red" stroke-width="0.71875" stroke-linecap="round" stroke-linejoin="round" />
<polygon points="183.12,548.31 182.25,547.44 182.25,543.94 183.12,543.06 184.88,543.06 185.75,543.94 185.75,547.44 184.88,548.31 " stroke="red" stroke-width="0.71875" stroke-linejoin="round" />
<polyline points="460.75,568.66 460.78,568.62 462.34,566.75 466.31,561.84 466.47,561.66 470.56,556.5 471.94,555.12 474.69,552.44 478.81,548.56 478.91,548.47 482.91,544.53 485.31,541.91 487.03,539.88 489.72,535.38 491.16,532.78 493.06,528.97 495.25,523.91 495.84,522.59 498.66,516.28 499.38,514.72 501.78,510.06 503.5,507 505.41,503.88 506.91,501.75 " stroke="red" stroke-width="0.96875" stroke-linecap="round" stroke-linejoin="round" />
<polyline points="525.19,494.62 528.19,495.16 532.28,496.53 534.81,497.75 536.41,498.53 540.53,500.06 544.62,501.72 548.75,503.47 549.53,503.88 552.88,505.38 556.97,507.91 560.25,510.06 561.09,510.56 565.19,513.38 569.31,516.25 569.38,516.28 573.44,519.5 577.19,522.59 577.53,522.88 581.66,526.34 584.69,528.97 585.78,529.81 589.88,533 592.81,535.38 594,536.44 " stroke="red" stroke-width="0.96875" stroke-linecap="round" stroke-linejoin="round" />
<polyline points="501.22,495.28 502.09,494.41 503.84,494.41 504.72,495.28 504.72,497.03 503.84,497.91 501.22,497.91 501.22,499.66 504.72,499.66 " stroke="red" stroke-width="0.71875" stroke-linecap="round" stroke-linejoin="round" />
<polyline points="507.34,498.78 508.22,499.66 509.97,499.66 510.84,498.78 510.84,497.91 509.97,497.03 509.09,497.03 509.97,497.03 510.84,496.16 510.84,495.28 509.97,494.41 508.22,494.41 507.34,495.28 " stroke="red" stroke-width="0.71875" stroke-linecap="round" stroke-linejoin="round" />
<polyline points="515.22,499.66 513.47,497.03 516.97,497.03 516.97,499.66 516.97,494.41 " stroke="red" stroke-width="0.71875" stroke-linecap="round" stroke-linejoin="round" />
<polygon points="520.47,499.66 519.59,498.78 519.59,495.28 520.47,494.41 522.22,494.41 523.09,495.28 523.09,498.78 522.22,499.66 " stroke="red" stroke-width="0.71875" stroke-linejoin="round" />
<polyline points="594,517.66 592.47,516.28 589.88,514 585.78,510.44 585.34,510.06 581.66,506.53 578.78,503.88 577.53,502.72 573.44,499.03 571.94,497.75 569.31,495.47 565.19,491.88 564.97,491.69 561.09,488.25 558.22,485.69 556.97,484.56 552.88,480.88 551.56,479.75 548.75,477.38 544.69,473.84 544.62,473.78 540.53,470.25 537.88,468 536.41,466.75 532.28,464.47 528.19,462.5 527.31,462.19 524.06,461.19 519.94,460.5 515.84,460.75 511.72,461.69 510.31,462.19 507.59,463.19 503.5,465.03 499.38,467.19 498.16,468 495.25,470.09 491.19,473.84 491.16,473.88 487.03,479.19 486.66,479.75 483.47,485.69 482.91,486.84 480.66,491.69 478.81,495.69 477.84,497.75 474.81,503.88 474.69,504.06 471.09,510.06 470.56,510.81 466.88,516.28 466.47,516.88 462.34,522.5 462.28,522.59 458.25,527.97 457.47,528.97 454.12,533.47 452.72,535.38 450,539.12 447.94,541.91 445.91,544.59 442.78,548.47 441.78,549.69 437.66,554.25 436.69,555.12 433.56,557.78 429.44,560.84 427.91,561.84 425.31,563.47 421.22,565.72 417.09,567.53 414.16,568.62 414.06,568.66 " stroke="red" stroke-width="0.96875" stroke-linecap="round" stroke-linejoin="round" />
<polyline points="329.56,562.91 326.59,562.06 325.84,561.84 322.47,560.75 318.34,559.19 314.25,557.56 310.12,555.91 308.19,555.12 306.03,554.16 301.91,552.5 297.78,550.84 293.69,549.12 292.19,548.47 289.56,547.31 285.44,545.22 281.34,543.22 278.53,541.91 277.22,541.31 273.09,539.5 269,537.62 264.88,535.81 263.84,535.38 260.75,534.12 256.66,532.56 252.53,531.66 248.41,530.81 244.31,530 240.19,529.06 239.97,528.97 236.06,527.09 231.97,525.25 227.84,523.62 224.72,522.59 223.72,522.28 219.62,521.53 215.5,520.97 211.41,520.59 207.28,520.38 203.16,520.34 199.06,520.41 194.94,520.59 190.81,520.84 186.72,520.94 182.59,521.12 178.47,521.38 174.38,521.78 170.25,522.47 169.53,522.59 166.12,523.25 162.03,524.09 157.91,525 153.78,526.19 149.69,527.5 145.56,528.88 145.34,528.97 141.44,530.34 137.34,531.06 133.22,531.59 129.12,532.06 125,532.5 120.88,533.38 116.78,534.25 112.66,535.03 110.31,535.38 108.53,535.69 104.44,536.03 100.31,536.22 96.188,536.25 92.094,536.12 87.969,535.66 86.188,535.38 83.844,535.03 79.75,534.38 75.625,533.66 71.5,533.53 67.406,533.38 63.281,533.12 59.188,532.66 55.062,531.38 50.938,529.75 49.25,528.97 46.844,527.81 42.719,525.72 38.594,523.59 36.688,522.59 34.5,521.5 30.375,519.44 26.25,517.44 23.5,516.28 22.156,515.75 18.031,514.06 " stroke="red" stroke-width="0.96875" stroke-linecap="round" stroke-linejoin="round" />
<polyline points="332.53,564.72 333.41,563.84 335.16,563.84 336.03,564.72 336.03,566.47 335.16,567.34 332.53,567.34 332.53,568.66 " stroke="red" stroke-width="0.71875" stroke-linecap="round" stroke-linejoin="round" />
<polyline points="340.12,568.66 338.66,566.47 342.16,566.47 342.16,568.66 " stroke="red" stroke-width="0.71875" stroke-linecap="round" stroke-linejoin="round" />
<line x1="342.16" y1="568.66" x2="342.16" y2="563.84" stroke="red" stroke-width="0.71875" stroke-linecap="round" />
<polyline points="345.22,568.66 344.78,568.22 344.78,564.72 345.66,563.84 347.41,563.84 348.28,564.72 348.28,568.22 347.84,568.66 " stroke="red" stroke-width="0.71875" stroke-linecap="round" stroke-linejoin="round" />
<polyline points="351.34,568.66 350.91,568.22 350.91,564.72 351.78,563.84 353.53,563.84 354.41,564.72 354.41,568.22 353.97,568.66 " stroke="red" stroke-width="0.71875" stroke-linecap="round" stroke-linejoin="round" />
<polyline points="594,497.94 593.81,497.75 589.88,493.91 587.44,491.69 585.78,490.22 581.66,486.44 580.81,485.69 577.53,482.81 573.97,479.75 573.44,479.31 569.31,475.88 567,473.84 565.19,472.28 561.09,468.75 560.19,468 556.97,465.31 553.22,462.19 552.88,461.91 548.75,458.09 547,456.47 544.62,454.53 540.53,451.47 539.47,450.75 536.41,448.88 532.28,446.56 529.59,445.12 528.19,444.34 524.06,442.31 519.94,440.38 517.16,439.5 515.84,439.12 511.72,438.34 507.59,438.03 503.5,438.34 499.5,439.5 499.38,439.56 495.25,441.78 491.16,444.53 490.41,445.12 487.03,448 484.16,450.75 482.91,452 478.81,456.12 478.5,456.47 474.69,460.91 473.69,462.19 470.56,466.72 469.75,468 466.47,473.59 466.31,473.84 462.97,479.75 462.34,480.78 459.38,485.69 458.25,487.59 455.62,491.69 454.12,494.03 451.72,497.75 450,500.31 447.5,503.88 445.91,506.03 442.72,510.06 441.78,511.22 437.66,516.03 437.41,516.28 433.56,520.12 430.81,522.59 429.44,523.81 425.31,527.16 422.78,528.97 421.22,530.03 417.09,532.31 412.97,534.25 410.09,535.38 408.88,535.88 404.75,537.28 400.62,538.72 396.53,540.03 392.41,541.22 389.81,541.91 388.31,542.28 384.19,543.22 380.06,544 375.97,544.56 371.84,544.88 367.72,544.72 363.62,544.38 360.62,544.06 " stroke="red" stroke-width="0.96875" stroke-linecap="round" stroke-linejoin="round" />
<polyline points="333.69,540.5 330.69,539.94 326.59,539.09 322.47,538.09 318.34,536.84 314.25,535.53 313.84,535.38 310.12,534.12 306.03,532.75 301.91,531.59 297.78,530.5 293.69,529.44 291.84,528.97 289.56,528.34 285.44,527.16 281.34,525.97 277.22,524.72 273.09,523.44 270.91,522.59 269,521.81 264.88,520.22 260.75,518.78 256.66,517.47 252.53,516.41 252.09,516.28 248.41,515.25 244.31,514.06 240.19,512.88 236.06,511.75 231.97,510.78 228.06,510.06 227.84,510 223.72,509.31 219.62,508.62 215.5,507.97 211.41,507.41 207.28,506.94 203.16,506.81 199.06,506.78 194.94,506.78 190.81,506.81 186.72,506.5 182.59,506.19 178.47,506 174.38,506.03 170.25,506.81 166.12,507.78 162.03,508.78 157.91,509.72 155.25,510.06 153.78,510.22 149.69,510.59 145.56,510.91 141.44,511.09 137.34,511.09 133.22,511.03 129.12,510.97 125,510.91 120.88,511.28 116.78,511.69 112.66,512.09 108.53,512.38 104.44,512.19 100.31,511.81 96.188,511.22 92.094,510.44 90.594,510.06 87.969,509.34 83.844,508.12 79.75,506.84 75.625,505.59 71.5,504.66 67.969,503.88 67.406,503.75 63.281,502.91 59.188,501.97 55.062,500.81 50.938,499.56 46.844,498.25 45.281,497.75 42.719,496.94 38.594,495.78 34.5,494.66 30.375,493.56 26.25,492.47 23.156,491.69 22.156,491.47 18.031,490.38 " stroke="red" stroke-width="0.96875" stroke-linecap="round" stroke-linejoin="round" />
<polyline points="336.66,540.78 337.53,539.91 339.28,539.91 340.16,540.78 340.16,542.53 339.28,543.41 336.66,543.41 336.66,545.16 340.16,545.16 " stroke="red" stroke-width="0.71875" stroke-linecap="round" stroke-linejoin="round" />
<polyline points="344.53,545.16 342.78,542.53 346.28,542.53 346.28,545.16 346.28,539.91 " stroke="red" stroke-width="0.71875" stroke-linecap="round" stroke-linejoin="round" />
<polyline points="352.41,544.28 351.53,545.16 349.78,545.16 348.91,544.28 348.91,540.78 349.78,539.91 351.53,539.91 352.41,540.78 352.41,541.66 351.53,542.53 348.91,542.53 " stroke="red" stroke-width="0.71875" stroke-linecap="round" stroke-linejoin="round" />
<polygon points="355.91,545.16 355.03,544.28 355.03,540.78 355.91,539.91 357.66,539.91 358.53,540.78 358.53,544.28 357.66,545.16 " stroke="red" stroke-width="0.71875" stroke-linejoin="round" />
<polyline points="594,476.12 591.34,473.84 589.88,472.66 585.78,469.53 583.78,468 581.66,466.34 577.53,463.19 576.25,462.19 573.44,460.03 569.31,456.91 568.75,456.47 565.19,453.75 561.16,450.75 561.09,450.72 556.97,447.81 552.91,445.12 552.88,445.09 548.75,442.31 544.62,439.88 544,439.5 540.53,437.62 536.41,435.56 533.66,433.97 532.28,433.12 528.19,430.75 524.06,428.72 523.41,428.44 519.94,427.06 515.84,425.94 511.72,425.12 507.59,424.66 503.5,424.53 499.38,424.97 495.25,425.84 491.16,427.09 487.88,428.44 487.03,428.84 482.91,431.28 479.22,433.97 478.81,434.34 474.69,438.19 473.28,439.5 470.56,442.16 467.44,445.12 466.47,446.06 462.34,450.19 461.78,450.75 458.25,454.59 456.47,456.47 454.12,459.53 451.84,462.19 450,464.53 447.25,468 445.91,469.84 442.84,473.84 441.78,475.31 438.38,479.75 437.66,480.59 433.56,484.72 432.47,485.69 429.44,488.34 425.31,491.62 425.22,491.69 421.22,494.62 417.09,497.44 416.62,497.75 412.97,500.03 408.88,502.41 406.19,503.88 404.75,504.62 400.62,506.84 396.53,508.88 393.88,510.06 392.41,510.66 388.31,512.22 384.19,513.47 380.06,514.53 375.97,515.44 371.84,516.16 370.72,516.28 367.72,516.66 363.62,516.97 360.62,517.09 " stroke="red" stroke-width="0.96875" stroke-linecap="round" stroke-linejoin="round" />
<polyline points="333.69,515.09 330.69,514.81 326.59,514.34 322.47,513.78 318.34,512.91 314.25,511.94 310.12,510.91 306.75,510.06 306.03,509.84 301.91,508.78 297.78,507.69 293.69,506.56 289.56,505.5 285.44,504.59 282,503.88 281.34,503.72 277.22,502.81 273.09,501.97 269,501.19 264.88,500.44 260.75,499.66 256.66,498.81 252.84,497.75 252.53,497.66 248.41,496.47 244.31,495.47 240.19,494.62 236.06,494.09 231.97,493.66 227.84,493.22 223.72,492.75 219.62,492.09 217.06,491.69 215.5,491.44 211.41,490.81 207.28,490.34 203.16,490.22 199.06,490.19 194.94,490.19 190.81,490.22 186.72,489.97 182.59,489.72 178.47,489.53 174.38,489.44 170.25,489.72 166.12,490.09 162.03,490.56 157.91,491.03 153.78,491 149.69,490.88 145.56,490.62 141.44,490.34 137.34,490.09 133.22,489.88 129.12,489.59 125,489.34 120.88,489 116.78,488.66 112.66,488.25 108.53,487.84 104.44,487.56 100.31,487.25 96.188,486.84 92.094,486.38 88.625,485.69 87.969,485.56 83.844,484.62 79.75,483.66 75.625,482.66 71.5,481.75 67.406,480.81 63.281,479.81 62.969,479.75 59.188,478.78 55.062,477.62 50.938,476.5 46.844,475.44 42.719,474.47 38.844,473.84 38.594,473.81 34.5,473.19 30.375,472.59 26.25,472 22.156,471.44 18.031,470.78 " stroke="red" stroke-width="0.96875" stroke-linecap="round" stroke-linejoin="round" />
<polyline points="336.66,514.75 337.53,513.88 339.28,513.88 340.16,514.75 340.16,516.5 339.28,517.38 336.66,517.38 336.66,519.12 340.16,519.12 " stroke="red" stroke-width="0.71875" stroke-linecap="round" stroke-linejoin="round" />
<polyline points="342.78,514.75 343.66,513.88 345.41,513.88 346.28,514.75 346.28,516.5 345.41,517.38 342.78,517.38 342.78,519.12 346.28,519.12 " stroke="red" stroke-width="0.71875" stroke-linecap="round" stroke-linejoin="round" />
<polyline points="348.91,518.25 349.78,519.12 351.53,519.12 352.41,518.25 352.41,517.38 348.91,513.88 352.41,513.88 " stroke="red" stroke-width="0.71875" stroke-linecap="round" stroke-linejoin="round" />
<polygon points="355.91,519.12 355.03,518.25 355.03,514.75 355.91,513.88 357.66,513.88 358.53,514.75 358.53,518.25 357.66,519.12 " stroke="red" stroke-width="0.71875" stroke-linejoin="round" />
<polyline points="594,453 590.75,450.75 589.88,450.19 585.78,447.5 582.31,445.12 581.66,444.66 577.53,441.81 574.03,439.5 573.44,439.12 569.31,436.5 565.19,434.22 564.72,433.97 561.09,432 556.97,429.91 553.94,428.44 552.88,427.91 548.75,426.03 544.62,424.25 541.53,422.97 540.53,422.56 536.41,420.91 532.28,419.12 528.19,417.62 527.94,417.53 524.06,416.31 519.94,415.28 515.84,414.47 511.72,413.84 507.59,413.44 503.5,413.25 499.38,413.47 495.25,413.97 491.16,414.72 487.03,415.75 482.91,417.22 482.22,417.53 478.81,419.09 474.69,421.38 472.22,422.97 470.56,424.12 466.47,427.03 464.59,428.44 462.34,430.22 458.25,433.62 457.84,433.97 454.12,436.97 450.56,439.5 450,439.94 445.91,442.81 442.59,445.12 441.78,445.72 437.66,448.69 435,450.75 433.56,451.97 429.44,455.28 427.91,456.47 425.31,458.69 421.22,461.84 420.66,462.19 417.09,464.59 412.97,467.09 411.41,468 408.88,469.44 404.75,471.66 400.75,473.84 400.62,473.91 396.53,476.03 392.41,478 388.44,479.75 388.31,479.78 384.19,481.25 380.06,482.5 375.97,483.59 371.84,484.5 367.72,485.44 366.47,485.69 363.62,486.22 359.5,486.78 355.38,487.19 351.28,487.25 348.28,487.19 " stroke="red" stroke-width="0.96875" stroke-linecap="round" stroke-linejoin="round" />
<polyline points="321.34,485.09 318.34,484.75 314.25,484.22 310.12,483.59 306.03,482.88 301.91,481.81 297.78,480.62 294.78,479.75 293.69,479.41 289.56,478.12 285.44,476.91 281.34,475.72 277.22,474.59 274.28,473.84 273.09,473.53 269,472.53 264.88,471.59 260.75,470.72 256.66,469.91 252.53,469.41 248.41,468.97 244.31,468.59 240.19,468.28 237.25,468 236.06,467.88 231.97,467.59 227.84,467.41 223.72,467.38 219.62,467.62 215.5,467.94 214.69,468 211.41,468.22 207.28,468.47 203.16,468.56 199.06,468.59 194.94,468.59 190.81,468.56 186.72,468.56 182.59,468.5 178.47,468.44 174.38,468.38 170.25,468.34 166.12,468.28 162.03,468.16 158.81,468 157.91,467.94 153.78,467.41 149.69,466.75 145.56,466 141.44,465.22 137.34,464.81 133.22,464.44 129.12,464.12 125,463.78 120.88,463.25 116.78,462.72 112.69,462.19 112.66,462.19 108.53,461.72 104.44,461.34 100.31,460.97 96.188,460.59 92.094,460.19 87.969,459.66 83.844,459.09 79.75,458.56 75.625,458.06 71.5,457.75 67.406,457.44 63.281,457.16 59.188,456.84 55.531,456.47 55.062,456.41 50.938,455.91 46.844,455.41 42.719,454.94 38.594,454.44 34.5,453.97 30.375,453.5 26.25,453.06 22.156,452.72 18.031,452.41 " stroke="red" stroke-width="0.96875" stroke-linecap="round" stroke-linejoin="round" />
<polyline points="324.31,484.69 325.19,483.81 326.94,483.81 327.81,484.69 327.81,486.44 326.94,487.31 324.31,487.31 324.31,489.06 327.81,489.06 " stroke="red" stroke-width="0.71875" stroke-linecap="round" stroke-linejoin="round" />
<polyline points="330.44,484.69 331.31,483.81 333.06,483.81 333.94,484.69 333.94,486.44 333.06,487.31 330.44,487.31 330.44,489.06 333.94,489.06 " stroke="red" stroke-width="0.71875" stroke-linecap="round" stroke-linejoin="round" />
<polygon points="337.44,489.06 336.56,488.19 336.56,487.31 337.44,486.44 339.19,486.44 340.06,487.31 340.06,488.19 339.19,489.06 " stroke="red" stroke-width="0.71875" stroke-linejoin="round" />
<polyline points="337.44,486.44 336.56,485.56 336.56,484.69 337.44,483.81 339.19,483.81 340.06,484.69 340.06,485.56 339.19,486.44 " stroke="red" stroke-width="0.71875" stroke-linecap="round" stroke-linejoin="round" />
<polygon points="343.56,489.06 342.69,488.19 342.69,484.69 343.56,483.81 345.31,483.81 346.19,484.69 346.19,488.19 345.31,489.06 " stroke="red" stroke-width="0.71875" stroke-linejoin="round" />
<polyline points="594,425.44 589.88,423.5 588.75,422.97 585.78,421.62 581.66,419.59 577.53,417.69 577.25,417.53 573.44,415.78 569.31,414 565.19,412.38 564.62,412.16 561.09,410.75 556.97,409.25 552.88,407.84 549.25,406.78 548.75,406.66 544.62,405.47 540.53,404.38 536.41,403.38 532.28,402.41 528.19,401.53 527.84,401.47 524.06,400.72 519.94,400.03 515.84,399.38 511.72,398.91 507.59,398.56 503.5,398.38 499.38,398.5 495.25,398.78 491.16,399.25 487.03,399.88 482.91,400.72 479.91,401.47 478.81,401.75 474.69,403 470.56,404.59 466.47,406.53 465.94,406.78 462.34,408.62 458.25,410.97 456.31,412.16 454.12,413.38 450,415.5 446.19,417.53 445.91,417.69 441.78,419.78 437.66,421.88 435.72,422.97 433.56,424.16 429.44,426.47 425.94,428.44 425.31,428.78 421.22,430.97 417.09,432.97 414.88,433.97 412.97,434.78 408.88,436.47 404.75,438.09 401.53,439.5 400.62,439.88 396.53,441.56 392.41,443.19 388.31,444.69 386.84,445.12 384.19,445.88 380.06,446.88 375.97,447.78 371.84,448.56 367.72,449.31 363.62,450 359.5,450.59 358.34,450.75 355.38,451.16 351.28,451.88 348.28,452.34 " stroke="red" stroke-width="0.96875" stroke-linecap="round" stroke-linejoin="round" />
<polyline points="321.34,452.31 318.34,452.09 314.25,451.78 310.12,451.38 306.03,450.94 305,450.75 301.91,450.28 297.78,449.56 293.69,448.81 289.56,448.03 285.44,447.44 281.34,446.81 277.22,446.12 273.09,445.41 272.12,445.12 269,444.22 264.88,443 260.75,441.81 256.66,440.81 252.53,440.28 248.41,439.97 244.31,439.88 240.19,439.97 236.06,440.44 231.97,440.94 227.84,441.44 223.72,441.84 219.62,441.59 215.5,441.19 211.41,440.66 207.28,440.12 203.16,440.44 199.06,440.81 194.94,441.16 190.81,441.31 186.72,440.66 182.59,439.81 181.28,439.5 178.47,438.84 174.38,437.94 170.25,437.91 166.12,438.03 162.03,438.22 157.91,438.38 153.78,437.94 149.69,437.41 145.56,436.88 141.44,436.41 137.34,436 133.22,435.66 129.12,435.31 125,435 120.88,434.81 116.78,434.62 112.66,434.44 108.53,434.19 106.06,433.97 104.44,433.78 100.31,433.25 96.188,432.66 92.094,432.03 87.969,431.5 83.844,431.06 79.75,430.72 75.625,430.44 71.5,430.16 67.406,429.94 63.281,429.78 59.188,429.75 55.062,430.12 50.938,430.56 46.844,431.06 42.719,431.5 38.594,431.66 34.5,431.72 30.375,431.75 26.25,431.78 22.156,431.97 18.031,432.16 " stroke="red" stroke-width="0.96875" stroke-linecap="round" stroke-linejoin="round" />
<polyline points="324.31,451.62 325.19,450.75 326.94,450.75 327.81,451.62 327.81,453.38 326.94,454.25 324.31,454.25 324.31,456 327.81,456 " stroke="red" stroke-width="0.71875" stroke-linecap="round" stroke-linejoin="round" />
<polyline points="333.94,455.12 333.06,456 331.31,456 330.44,455.12 330.44,451.62 331.31,450.75 333.06,450.75 333.94,451.62 333.94,452.5 333.06,453.38 330.44,453.38 " stroke="red" stroke-width="0.71875" stroke-linecap="round" stroke-linejoin="round" />
<polyline points="338.31,456 336.56,453.38 340.06,453.38 340.06,456 340.06,450.75 " stroke="red" stroke-width="0.71875" stroke-linecap="round" stroke-linejoin="round" />
<polygon points="343.56,456 342.69,455.12 342.69,451.62 343.56,450.75 345.31,450.75 346.19,451.62 346.19,455.12 345.31,456 " stroke="red" stroke-width="0.71875" stroke-linejoin="round" />
<polyline points="594,386.44 589.88,386.12 585.78,385.81 585.41,385.78 581.66,385.38 577.53,384.91 573.44,384.38 569.31,383.81 565.19,383.25 561.09,382.69 556.97,382.12 552.88,381.56 548.75,380.97 546.09,380.59 544.62,380.38 540.53,379.78 536.41,379.22 532.28,378.81 528.19,378.44 524.06,378.09 519.94,377.75 515.84,377.38 511.72,376.97 507.59,376.59 503.5,376.25 499.38,376.03 495.25,375.88 491.16,375.78 487.03,375.78 482.91,375.94 478.81,376.16 474.69,376.44 470.56,376.81 466.47,377.31 462.34,377.88 458.25,378.53 454.12,379.22 450,379.84 445.91,380.47 445,380.59 441.78,381.09 437.66,381.72 433.56,382.38 429.44,383.03 425.31,383.62 421.22,384.16 417.09,384.44 412.97,384.62 408.88,384.75 404.75,384.84 400.62,384.97 396.53,385.09 392.41,385.25 388.31,385.44 384.19,385.44 380.06,385.59 378.03,385.78 375.97,385.94 371.84,386.62 367.72,388 363.62,389.69 360.97,390.97 359.5,391.88 355.38,394.72 353.69,396.22 351.28,398.28 347.62,401.47 347.16,401.88 343.03,405.12 340.72,406.78 338.94,407.94 334.81,410 330.69,411.72 329.44,412.16 326.59,412.97 323.59,413.69 " stroke="red" stroke-width="0.96875" stroke-linecap="round" stroke-linejoin="round" />
<polyline points="296.66,414.75 293.69,414.47 289.56,414.09 285.44,413.84 281.34,413.59 277.22,413.31 273.09,413.03 269,412.53 265.09,412.16 264.88,412.12 260.75,411.78 256.66,411.59 252.53,411.84 249.72,412.16 248.41,412.25 244.31,412.72 240.19,413.22 236.06,414.16 231.97,414.94 227.84,415.47 223.72,415.5 219.62,413.53 217.22,412.16 215.5,411.09 211.41,408.81 207.28,407.06 203.16,406.91 199.06,407.12 194.94,407.56 190.81,408.06 186.72,408 182.59,407.81 178.47,407.56 174.38,407.25 170.25,406.84 169.88,406.78 166.12,406.34 162.03,405.75 157.91,405.06 153.78,404.25 149.69,403.47 145.56,402.75 141.44,402.12 137.34,401.97 133.22,401.88 129.12,401.78 125,401.53 124.84,401.47 120.88,400.53 116.78,399.31 112.66,398.03 108.53,396.78 104.44,396.34 102.12,396.22 100.31,396.12 96.188,396.03 92.094,396 87.969,395.62 83.844,395.22 79.75,394.84 75.625,394.56 71.5,394.91 67.406,395.41 63.281,396.06 62.438,396.22 59.188,396.75 55.062,397.5 50.938,398.25 46.844,399.03 42.719,399.81 38.594,400.53 34.5,401.22 33.094,401.47 30.375,401.94 26.25,402.66 22.156,403.41 18.031,404.12 " stroke="red" stroke-width="0.96875" stroke-linecap="round" stroke-linejoin="round" />
<polyline points="299.62,413.5 300.5,412.62 302.25,412.62 303.12,413.5 303.12,415.25 302.25,416.12 299.62,416.12 299.62,417.88 303.12,417.88 " stroke="red" stroke-width="0.71875" stroke-linecap="round" stroke-linejoin="round" />
<polyline points="305.75,417.88 309.25,417.88 307.5,412.62 " stroke="red" stroke-width="0.71875" stroke-linecap="round" stroke-linejoin="round" />
<polygon points="312.75,417.88 311.88,417 311.88,413.5 312.75,412.62 314.5,412.62 315.38,413.5 315.38,417 314.5,417.88 " stroke="red" stroke-width="0.71875" stroke-linejoin="round" />
<polygon points="318.88,417.88 318,417 318,413.5 318.88,412.62 320.62,412.62 321.5,413.5 321.5,417 320.62,417.88 " stroke="red" stroke-width="0.71875" stroke-linejoin="round" />
<polyline points="594,336.22 589.88,337.84 585.78,339.12 581.66,340.25 580.88,340.41 577.53,341 573.44,341.53 569.31,341.81 565.19,341.84 561.09,341.66 556.97,341.31 552.88,340.84 550.19,340.41 548.75,340.16 544.62,339.38 540.53,338.66 536.41,338.06 532.28,337.84 528.19,337.75 524.06,337.72 519.94,337.75 507.59,337.75 503.5,337.78 499.38,337.75 495.25,337.72 491.16,337.62 487.03,337.5 482.91,337.31 478.81,337 474.69,336.53 470.56,335.91 468.69,335.5 466.47,335 462.34,333.84 458.25,332.47 454.12,330.88 453.69,330.66 450,328.12 447.16,325.81 445.91,324.62 442.47,321 441.78,320.22 438.44,316.22 437.66,315.28 433.88,311.44 433.56,311.16 429.44,307 429.19,306.72 425.31,302.5 424.94,302 421.22,297.69 420.97,297.31 417.19,292.62 417.09,292.53 412.97,288.5 412.44,287.97 408.88,285.16 406.34,283.34 404.75,282.34 400.62,279.66 399,278.75 396.53,277.56 392.41,276 388.31,274.94 384.19,274.34 380.06,274.22 375.97,274.69 371.84,275.81 367.72,278.69 367.66,278.75 363.62,283.12 363.44,283.34 360.5,287.97 359.5,289.94 358.19,292.62 356.5,297.31 355.38,300.53 354.75,302 352.91,306.72 351.28,310.72 350.94,311.44 348.97,316.22 347.16,320.16 346.72,321 343.97,325.81 343.91,325.91 " stroke="red" stroke-width="0.96875" stroke-linecap="round" stroke-linejoin="round" />
<polyline points="335.75,335.38 335.62,335.5 334.81,336.25 330.69,339.69 329.75,340.41 326.59,342.75 322.81,345.31 322.47,345.53 318.34,348.06 314.25,350.28 310.12,352.22 306.03,353.91 301.91,354.41 297.78,354.59 293.69,354.75 289.56,355.09 288.97,355.25 285.44,356.19 281.34,357.47 277.22,358.97 273.97,360.25 273.09,360.56 269,362.56 264.88,364.5 263.19,365.28 260.75,366.31 256.66,368.03 252.53,369.62 250.56,370.38 248.41,371.16 244.31,372.62 240.19,374 236.06,375.25 235.25,375.47 231.97,376.25 227.84,377.03 223.72,377.53 219.62,377.69 215.5,377.66 211.41,377.5 207.28,377.25 203.16,376.88 199.06,376.5 194.94,376.22 190.81,376 186.72,376.25 182.59,376.56 178.47,376.88 174.38,377.09 170.25,376.78 166.12,376.34 162.03,375.81 159.38,375.47 157.91,375.25 153.78,374.78 149.69,374.28 145.56,373.78 141.44,373.25 137.34,372.72 133.22,372.09 129.12,371.38 125,370.56 124.38,370.38 120.88,369.38 116.78,368.25 112.66,367.19 108.53,366.25 104.44,365.81 100.31,365.5 96.719,365.28 96.188,365.25 92.094,365.09 87.969,364.84 83.844,364.59 79.75,364.31 75.625,364.03 71.5,363.56 67.406,363.09 63.281,362.69 59.188,362.34 55.062,362.28 50.938,362.31 46.844,362.44 42.719,362.62 38.594,362.81 34.5,363.06 30.375,363.34 26.25,363.66 22.156,363.88 18.031,364.19 " stroke="red" stroke-width="0.96875" stroke-linecap="round" stroke-linejoin="round" />
<polyline points="329.94,328.91 330.81,328.03 332.56,328.03 333.44,328.91 333.44,330.66 332.56,331.53 329.94,331.53 329.94,333.28 333.44,333.28 " stroke="red" stroke-width="0.71875" stroke-linecap="round" stroke-linejoin="round" />
<polyline points="336.06,333.28 339.56,333.28 337.81,328.03 " stroke="red" stroke-width="0.71875" stroke-linecap="round" stroke-linejoin="round" />
<polyline points="345.69,332.41 344.81,333.28 343.06,333.28 342.19,332.41 342.19,328.91 343.06,328.03 344.81,328.03 345.69,328.91 345.69,329.78 344.81,330.66 342.19,330.66 " stroke="red" stroke-width="0.71875" stroke-linecap="round" stroke-linejoin="round" />
<polygon points="349.19,333.28 348.31,332.41 348.31,328.91 349.19,328.03 350.94,328.03 351.81,328.91 351.81,332.41 350.94,333.28 " stroke="red" stroke-width="0.71875" stroke-linejoin="round" />
<polyline points="355.53,247 355.47,247.03 355.38,247.09 351.28,249.81 349,251.5 347.16,252.75 343.03,255.78 342.75,256 338.94,258.59 336.19,260.5 334.81,261.47 330.69,264.34 329.69,265.03 326.59,267.19 323.03,269.59 322.47,270 318.34,272.94 316.66,274.16 314.25,275.94 310.38,278.75 310.12,278.94 306.03,281.84 303.62,283.34 301.91,284.41 297.78,286.84 295.88,287.97 293.69,289.22 289.56,291.66 288.25,292.62 285.44,294.5 281.56,297.31 281.34,297.47 277.22,300.53 275.38,302 273.09,303.75 269.53,306.72 269,307.16 264.88,310.59 263.84,311.44 260.75,313.97 258,316.22 256.66,317.31 252.53,320.16 251.25,321 248.41,322.91 244.31,325.62 244.03,325.81 240.19,328.25 240.06,328.31 " stroke="red" stroke-width="0.96875" stroke-linecap="round" stroke-linejoin="round" />
<polyline points="218.5,337.44 215.5,337.84 211.41,338.16 207.28,338.41 203.16,338.81 199.06,339.25 194.94,339.69 190.81,340.16 189.34,340.41 186.72,340.78 182.59,341.41 178.47,342 174.38,342.53 170.25,342.75 166.12,342.91 162.03,342.97 157.91,343.03 153.78,343.22 149.69,343.41 145.56,343.56 141.44,343.62 137.34,343.5 133.22,343.25 129.12,342.91 125,342.44 120.88,341.84 116.78,341.22 112.66,340.62 111.09,340.41 108.53,340.03 104.44,339.5 100.31,339 96.188,338.56 92.094,338.19 87.969,337.81 83.844,337.47 79.75,337.12 75.625,336.78 71.5,336.44 67.406,336.16 63.281,335.88 59.188,335.66 55.062,335.56 50.938,335.53 46.844,335.53 42.719,335.59 38.594,335.69 34.5,335.81 30.375,335.97 26.25,336.09 18.031,336.09 " stroke="red" stroke-width="0.96875" stroke-linecap="round" stroke-linejoin="round" />
<polyline points="221.47,331.31 222.34,330.44 224.09,330.44 224.97,331.31 224.97,333.06 224.09,333.94 221.47,333.94 221.47,335.69 224.97,335.69 " stroke="red" stroke-width="0.71875" stroke-linecap="round" stroke-linejoin="round" />
<polygon points="228.47,335.69 227.59,334.81 227.59,333.94 228.47,333.06 230.22,333.06 231.09,333.94 231.09,334.81 230.22,335.69 " stroke="red" stroke-width="0.71875" stroke-linejoin="round" />
<polyline points="228.47,333.06 227.59,332.19 227.59,331.31 228.47,330.44 230.22,330.44 231.09,331.31 231.09,332.19 230.22,333.06 " stroke="red" stroke-width="0.71875" stroke-linecap="round" stroke-linejoin="round" />
<polyline points="233.72,334.81 234.59,335.69 236.34,335.69 237.22,334.81 237.22,333.94 233.72,330.44 237.22,330.44 " stroke="red" stroke-width="0.71875" stroke-linecap="round" stroke-linejoin="round" />
<polygon points="240.72,335.69 239.84,334.81 239.84,331.31 240.72,330.44 242.47,330.44 243.34,331.31 243.34,334.81 242.47,335.69 " stroke="red" stroke-width="0.71875" stroke-linejoin="round" />
<polyline points="488.88,247 488.88,248.66 492.38,248.66 " stroke="red" stroke-width="0.71875" stroke-linecap="round" stroke-linejoin="round" />
<polyline points="495.88,248.66 495,247.78 495,247 " stroke="red" stroke-width="0.71875" stroke-linecap="round" stroke-linejoin="round" />
<polyline points="498.5,247 498.5,247.78 497.62,248.66 495.88,248.66 " stroke="red" stroke-width="0.71875" stroke-linecap="round" stroke-linejoin="round" />
<polyline points="501.12,247.78 502,248.66 503.75,248.66 504.62,247.78 504.62,247 " stroke="red" stroke-width="0.71875" stroke-linecap="round" stroke-linejoin="round" />
<polyline points="508.12,248.66 507.25,247.78 507.25,247 " stroke="red" stroke-width="0.71875" stroke-linecap="round" stroke-linejoin="round" />
<polyline points="510.75,247 510.75,247.78 509.88,248.66 508.12,248.66 " stroke="red" stroke-width="0.71875" stroke-linecap="round" stroke-linejoin="round" />
<polyline points="141.44,279.88 145.56,281 149.69,281.69 153.78,281.88 157.91,281.66 162.03,280.75 166.12,279.44 167.84,278.75 170.25,277.31 174.38,274.44 174.78,274.16 177.41,269.59 177.91,265.03 174.97,260.5 174.38,260.09 170.25,256.19 170.03,256 166.97,252.28 " stroke="red" stroke-width="0.96875" stroke-linecap="round" stroke-linejoin="round" />
<polyline points="146.62,252.28 145.56,252.84 141.44,255.16 139.19,256 137.34,256.75 133.22,258.72 129.97,260.5 129.12,261.25 125.56,265.03 125,266.75 124.5,269.59 125,271.62 126.31,274.16 129.12,275.78 133.22,277.62 136.16,278.75 137.34,279.03 141.44,279.91 141.44,279.88 " stroke="red" stroke-width="0.96875" stroke-linecap="round" stroke-linejoin="round" />
<polyline points="150.91,247 150.91,247.56 150.03,248.44 147.41,248.44 147.41,250.19 150.91,250.19 " stroke="red" stroke-width="0.71875" stroke-linecap="round" stroke-linejoin="round" />
<polygon points="154.41,250.19 153.53,249.31 153.53,248.44 154.41,247.56 156.16,247.56 157.03,248.44 157.03,249.31 156.16,250.19 " stroke="red" stroke-width="0.71875" stroke-linejoin="round" />
<line x1="154.41" y1="247.56" x2="153.84" y2="247" stroke="red" stroke-width="0.71875" stroke-linecap="round" />
<line x1="156.72" y1="247" x2="156.16" y2="247.56" stroke="red" stroke-width="0.71875" stroke-linecap="round" />
<polygon points="160.53,250.19 159.66,249.31 159.66,248.44 160.53,247.56 162.28,247.56 163.16,248.44 163.16,249.31 162.28,250.19 " stroke="red" stroke-width="0.71875" stroke-linejoin="round" />
<line x1="160.53" y1="247.56" x2="159.97" y2="247" stroke="red" stroke-width="0.71875" stroke-linecap="round" />
<line x1="162.84" y1="247" x2="162.28" y2="247.56" stroke="red" stroke-width="0.71875" stroke-linecap="round" />
<polyline points="166.66,250.19 165.78,249.31 165.78,247 " stroke="red" stroke-width="0.71875" stroke-linecap="round" stroke-linejoin="round" />
<polyline points="169.28,247 169.28,249.31 168.41,250.19 166.66,250.19 " stroke="red" stroke-width="0.71875" stroke-linecap="round" stroke-linejoin="round" />
</g>
</svg>
