<?xml version="1.0" encoding="ISO-8859-1" standalone="no"?>
<!DOCTYPE svg PUBLIC "-//W3C//DTD SVG 1.1//EN" "http://www.w3.org/Graphics/SVG/1.1/DTD/svg11.dtd">
<svg version="1.1" baseProfile="full" id="body" width="900px" height="600px" viewBox="0 0.2 1 0.55" preserveAspectRatio="none" xmlns="http://www.w3.org/2000/svg" xmlns:xlink="http://www.w3.org/1999/xlink" xmlns:ev="http://www.w3.org/2001/xml-events">
<title>SVG drawing</title>
<desc>This was produced by version 4.2 of GNU libplot, a free library for exporting 2-D vector graphics.</desc>
<rect id="background" x="0" y="0" width="1" height="1" stroke="none" fill="none"/>
<g id="content" transform="translate(-0.03125,1.1875) scale(1,-1) scale(0.0017361) " xml:space="preserve" stroke="black" stroke-linecap="butt" stroke-linejoin="miter" stroke-miterlimit="10.433" stroke-dasharray="none" stroke-dashoffset="0" stroke-opacity="1" fill="none" fill-rule="even-odd" fill-opacity="1" font-style="normal" font-variant="normal" font-weight="normal" font-stretch="normal" font-size-adjust="none" letter-spacing="normal" word-spacing="normal" text-anchor="start">
<polyline points="120.19,568.66 120.16,568.62 116.78,565.5 112.66,561.84 108.53,559.72 104.44,559.25 100.31,559.06 96.188,558.88 92.094,558.38 87.969,555.28 87.781,555.12 83.844,549.5 83.656,549.16 " stroke="red" stroke-width="0.96875" stroke-linecap="round" stroke-linejoin="round" />
<polyline points="70.344,539.72 67.406,539.38 63.281,539.28 59.188,539.34 55.062,538.97 50.938,538.62 46.844,538.41 42.719,538.41 38.594,539.28 34.5,540.25 30.375,541.16 26.25,541.81 25.844,541.91 22.156,542.72 18.031,542.91 " stroke="red" stroke-width="0.96875" stroke-linecap="round" stroke-linejoin="round" />
<polyline points="69.25,542.69 70.125,541.81 71.875,541.81 72.75,542.69 72.75,544.44 71.875,545.31 69.25,545.31 69.25,547.06 72.75,547.06 " stroke="red" stroke-width="0.71875" stroke-linecap="round" stroke-linejoin="round" />
<polyline points="75.375,546.19 76.25,547.06 78,547.06 78.875,546.19 78.875,545.31 75.375,541.81 78.875,541.81 " stroke="red" stroke-width="0.71875" stroke-linecap="round" stroke-linejoin="round" />
<polygon points="82.375,547.06 81.5,546.19 81.5,545.31 82.375,544.44 84.125,544.44 85,545.31 85,546.19 84.125,547.06 " stroke="red" stroke-width="0.71875" stroke-linejoin="round" />
<polyline points="82.375,544.44 81.5,543.56 81.5,542.69 82.375,541.81 84.125,541.81 85,542.69 85,543.56 84.125,544.44 " stroke="red" stroke-width="0.71875" stroke-linecap="round" stroke-linejoin="round" />
<polygon points="88.5,547.06 87.625,546.19 87.625,542.69 88.5,541.81 90.25,541.81 91.125,542.69 91.125,546.19 90.25,547.06 " stroke="red" stroke-width="0.71875" stroke-linejoin="round" />
<polyline points="439.59,568.66 439.59,568.62 440.84,561.84 441.78,557.97 442.5,555.12 444.56,548.47 445.91,544.91 447.12,541.91 450,535.97 450.31,535.38 454.12,529.59 454.66,528.97 458.25,525.5 462.34,522.91 463.28,522.59 465.34,522.03 " stroke="red" stroke-width="0.96875" stroke-linecap="round" stroke-linejoin="round" />
<polyline points="488.06,528.31 489.09,528.97 491.16,530.56 495.25,534.44 496.12,535.38 499.38,539.25 501.41,541.91 503.5,544.72 506.19,548.47 507.59,550.38 511.16,555.12 511.72,555.81 515.84,561.12 516.38,561.84 519.94,566.53 521.44,568.62 521.47,568.66 " stroke="red" stroke-width="0.96875" stroke-linecap="round" stroke-linejoin="round" />
<polyline points="468.31,521.84 469.19,520.97 470.94,520.97 471.81,521.84 471.81,523.59 470.94,524.47 468.31,524.47 468.31,526.22 471.81,526.22 " stroke="red" stroke-width="0.71875" stroke-linecap="round" stroke-linejoin="round" />
<polyline points="474.44,525.34 475.31,526.22 477.06,526.22 477.94,525.34 477.94,524.47 474.44,520.97 477.94,520.97 " stroke="red" stroke-width="0.71875" stroke-linecap="round" stroke-linejoin="round" />
<polygon points="481.44,526.22 480.56,525.34 480.56,524.47 481.44,523.59 483.19,523.59 484.06,524.47 484.06,525.34 483.19,526.22 " stroke="red" stroke-width="0.71875" stroke-linejoin="round" />
<polyline points="481.44,523.59 480.56,522.72 480.56,521.84 481.44,520.97 483.19,520.97 484.06,521.84 484.06,522.72 483.19,523.59 " stroke="red" stroke-width="0.71875" stroke-linecap="round" stroke-linejoin="round" />
<polygon points="487.56,526.22 486.69,525.34 486.69,521.84 487.56,520.97 489.31,520.97 490.19,521.84 490.19,525.34 489.31,526.22 " stroke="red" stroke-width="0.71875" stroke-linejoin="round" />
<polyline points="177.72,568.66 177.69,568.62 174.38,566.44 170.25,563.88 167,561.84 166.12,561.34 162.03,559.19 157.91,557.12 153.78,555.44 152.97,555.12 149.69,553.84 145.56,551.59 141.78,548.47 141.44,548.16 137.34,544.78 134.34,542.69 " stroke="red" stroke-width="0.96875" stroke-linecap="round" stroke-linejoin="round" />
<polyline points="107.41,535.12 104.44,533.44 100.31,530.19 99.031,528.97 96.188,526.69 92.094,523.34 90.375,522.59 87.969,521.72 83.844,520.75 79.75,520.16 75.625,519.81 71.5,519.38 67.406,519 63.281,518.66 59.188,518.31 55.062,517.91 50.938,517.53 46.844,517.28 42.719,517.19 38.594,517.47 34.5,517.84 30.375,518.31 26.25,518.75 22.156,519.25 18.031,519.53 " stroke="red" stroke-width="0.96875" stroke-linecap="round" stroke-linejoin="round" />
<polyline points="110.38,536.38 111.25,535.5 113,535.5 113.88,536.38 113.88,538.12 113,539 110.38,539 110.38,540.75 113.88,540.75 " stroke="red" stroke-width="0.71875" stroke-linecap="round" stroke-linejoin="round" />
<polyline points="116.5,539.88 117.38,540.75 119.12,540.75 120,539.88 120,539 119.12,538.12 118.25,538.12 119.12,538.12 120,537.25 120,536.38 119.12,535.5 117.38,535.5 116.5,536.38 " stroke="red" stroke-width="0.71875" stroke-linecap="round" stroke-linejoin="round" />
<polyline points="124.38,540.75 122.62,538.12 126.12,538.12 126.12,540.75 126.12,535.5 " stroke="red" stroke-width="0.71875" stroke-linecap="round" stroke-linejoin="round" />
<polygon points="129.62,540.75 128.75,539.88 128.75,536.38 129.62,535.5 131.38,535.5 132.25,536.38 132.25,539.88 131.38,540.75 " stroke="red" stroke-width="0.71875" stroke-linejoin="round" />
<polyline points="408.94,568.66 408.94,568.62 411.84,561.84 412.97,559.09 414.47,555.12 416.91,548.47 417.09,547.97 419.31,541.91 421.22,537.22 421.91,535.38 424.81,528.97 425.31,528.06 428.5,522.59 429.44,521.19 432.91,516.28 433.56,515.5 437.66,510.69 438.19,510.06 441.78,506.12 444.09,503.88 445.91,502.53 450,500.03 454.12,498.22 456.09,497.75 458.25,497.28 458.59,497.25 " stroke="red" stroke-width="0.96875" stroke-linecap="round" stroke-linejoin="round" />
<polyline points="482.69,502.47 482.91,502.59 484.97,503.88 487.03,505.09 491.16,507.22 495.25,509.66 495.84,510.06 499.38,512.62 503.5,516.22 503.56,516.28 507.59,521.25 508.62,522.59 511.72,526.81 513.22,528.97 515.84,532.66 517.81,535.38 519.94,538.34 522.66,541.91 524.06,543.78 527.5,548.47 528.19,549.41 532.28,555.12 532.28,555.16 536.41,560.75 537.25,561.84 540.53,565.94 542.78,568.62 542.81,568.66 " stroke="red" stroke-width="0.96875" stroke-linecap="round" stroke-linejoin="round" />
<polyline points="461.56,496 462.44,495.12 464.19,495.12 465.06,496 465.06,497.75 464.19,498.62 461.56,498.62 461.56,500.38 465.06,500.38 " stroke="red" stroke-width="0.71875" stroke-linecap="round" stroke-linejoin="round" />
<polyline points="467.69,499.5 468.56,500.38 470.31,500.38 471.19,499.5 471.19,498.62 470.31,497.75 469.44,497.75 470.31,497.75 471.19,496.88 471.19,496 470.31,495.12 468.56,495.12 467.69,496 " stroke="red" stroke-width="0.71875" stroke-linecap="round" stroke-linejoin="round" />
<polyline points="475.56,500.38 473.81,497.75 477.31,497.75 477.31,500.38 477.31,495.12 " stroke="red" stroke-width="0.71875" stroke-linecap="round" stroke-linejoin="round" />
<polygon points="480.81,500.38 479.94,499.5 479.94,496 480.81,495.12 482.56,495.12 483.44,496 483.44,499.5 482.56,500.38 " stroke="red" stroke-width="0.71875" stroke-linejoin="round" />
<polyline points="213.5,568.66 213.44,568.62 211.41,567.66 207.28,565.75 203.16,563.88 199.06,561.94 198.84,561.84 194.94,559.81 190.81,557.5 187.09,555.12 186.72,554.88 182.59,552.47 178.47,550.19 175.22,548.47 174.38,548.03 170.25,546.31 166.12,544.69 162.03,543 159.62,541.91 157.91,541.09 153.78,538 151.09,535.38 149.69,533.91 145.56,529.12 145.41,528.97 144.5,528.22 " stroke="red" stroke-width="0.96875" stroke-linecap="round" stroke-linejoin="round" />
<polyline points="119.75,522.28 116.78,522.06 112.66,521.5 108.53,520.5 104.44,517.78 102.5,516.28 100.31,514.62 96.188,511.56 93.906,510.06 92.094,508.91 87.969,508.12 83.844,507.78 79.75,507.69 75.625,507.62 71.5,506.91 67.406,506.09 63.281,505.22 59.188,504.38 55.062,503.94 53.906,503.88 50.938,503.69 46.844,503.56 42.719,503.53 38.594,503.62 34.5,503.78 32.969,503.88 30.375,504 26.25,504.28 22.156,504.56 18.031,504.84 " stroke="red" stroke-width="0.96875" stroke-linecap="round" stroke-linejoin="round" />
<polyline points="122.72,521.75 123.59,520.88 125.34,520.88 126.22,521.75 126.22,523.5 125.34,524.38 122.72,524.38 122.72,526.12 126.22,526.12 " stroke="red" stroke-width="0.71875" stroke-linecap="round" stroke-linejoin="round" />
<polyline points="130.59,526.12 128.84,523.5 132.34,523.5 132.34,526.12 132.34,520.88 " stroke="red" stroke-width="0.71875" stroke-linecap="round" stroke-linejoin="round" />
<polygon points="135.84,526.12 134.97,525.25 134.97,521.75 135.84,520.88 137.59,520.88 138.47,521.75 138.47,525.25 137.59,526.12 " stroke="red" stroke-width="0.71875" stroke-linejoin="round" />
<polygon points="141.97,526.12 141.09,525.25 141.09,521.75 141.97,520.88 143.72,520.88 144.59,521.75 144.59,525.25 143.72,526.12 " stroke="red" stroke-width="0.71875" stroke-linejoin="round" />
<polyline points="359.38,568.66 359.41,568.62 359.5,568.56 363.62,565.25 367.59,561.84 367.72,561.72 371.84,557.84 374.31,555.12 375.97,553.25 379.94,548.47 380.06,548.31 384.19,542.94 384.94,541.91 388.31,536.97 389.25,535.38 392.41,529.62 392.75,528.97 395.22,522.59 396.53,519.25 397.72,516.28 400.56,510.06 400.62,509.88 404,503.88 404.75,502.47 407.78,497.75 408.88,496.38 412.97,491.97 413.31,491.69 417.09,489.03 421.22,486.81 424,485.69 425.31,485.25 429.44,484.19 433.56,483.34 437.66,482.62 441.78,481.72 444.75,481.16 " stroke="red" stroke-width="0.96875" stroke-linecap="round" stroke-linejoin="round" />
<polyline points="471.72,478.94 474.69,479.62 475,479.75 478.81,480.88 482.91,482.56 487.03,484.62 489.12,485.69 491.16,486.78 495.25,489.28 498.75,491.69 499.38,492.12 503.5,495.5 505.5,497.75 507.59,500.09 510.94,503.88 511.72,504.78 515.84,509.84 516,510.06 519.94,515.16 520.88,516.28 524.06,520.28 525.94,522.59 528.19,525.34 531.22,528.97 532.28,530.31 536.34,535.38 536.41,535.47 540.53,540.84 541.34,541.91 544.62,546.06 546.62,548.47 548.75,551 552.41,555.12 552.88,555.62 556.97,559.88 558.91,561.84 561.09,564 565.19,568.03 565.81,568.62 565.84,568.66 " stroke="red" stroke-width="0.96875" stroke-linecap="round" stroke-linejoin="round" />
<polyline points="447.75,477.41 448.62,476.53 450.38,476.53 451.25,477.41 451.25,479.16 450.38,480.03 447.75,480.03 447.75,481.78 451.25,481.78 " stroke="red" stroke-width="0.71875" stroke-linecap="round" stroke-linejoin="round" />
<polyline points="455.62,481.78 453.88,479.16 457.38,479.16 457.38,481.78 457.38,476.53 " stroke="red" stroke-width="0.71875" stroke-linecap="round" stroke-linejoin="round" />
<polygon points="460.88,481.78 460,480.91 460,477.41 460.88,476.53 462.62,476.53 463.5,477.41 463.5,480.91 462.62,481.78 " stroke="red" stroke-width="0.71875" stroke-linejoin="round" />
<polygon points="467,481.78 466.12,480.91 466.12,477.41 467,476.53 468.75,476.53 469.62,477.41 469.62,480.91 468.75,481.78 " stroke="red" stroke-width="0.71875" stroke-linejoin="round" />
<polyline points="590.78,568.66 590.75,568.62 589.88,567.91 585.78,564.5 582.97,561.84 581.66,560.53 577.53,556.53 576.09,555.12 573.44,552.56 569.31,548.72 569.03,548.47 565.19,544.94 561.97,541.91 561.09,541.06 556.97,536.97 555.47,535.38 552.88,532.66 549.62,528.97 548.75,527.94 544.62,523.28 544.03,522.59 540.53,518.69 538.38,516.28 536.41,514.16 532.69,510.06 532.28,509.59 528.19,505 527.16,503.88 524.06,500.72 521.03,497.75 519.94,496.75 515.84,492.22 515.34,491.69 511.72,487.53 510.09,485.69 507.59,482.88 504.69,479.75 503.5,478.69 499.38,475.91 496.16,473.84 495.25,473.25 491.16,470.66 487.09,468 487.03,467.94 482.91,465.47 478.81,463.16 476.88,462.19 474.69,461.16 470.56,459.62 466.47,459.06 462.34,458.94 458.25,459.12 454.12,459.5 450,459.34 445.91,459.25 441.78,459.19 437.66,459.22 433.56,459.41 429.44,459.75 425.31,460.28 421.22,461 417.09,461.94 416.19,462.19 412.97,463.22 408.88,464.81 404.75,466.69 402.59,468 400.62,469.28 396.53,472.28 394.5,473.84 392.41,475.66 388.31,479.28 387.75,479.75 384.19,483.84 382.62,485.69 380.06,489.22 378.31,491.69 375.97,495.47 374.53,497.75 371.84,502.41 370.97,503.88 367.72,509.44 367.34,510.06 363.62,515.81 363.28,516.28 359.5,521.5 358.66,522.59 355.38,526.62 353.62,528.97 351.28,531.88 348.38,535.38 347.28,536.69 " stroke="red" stroke-width="0.96875" stroke-linecap="round" stroke-linejoin="round" />
<polyline points="338.38,546.16 335.84,548.47 334.81,549.41 330.69,552.94 327.91,555.12 326.59,556.12 322.47,558.94 318.34,560.88 315.75,561.84 314.25,562.38 310.12,563.56 306.03,564.47 301.91,565.19 297.78,565.69 293.69,566 289.56,566.16 285.44,566.25 281.34,566.22 277.22,566.12 273.09,565.97 269,565.94 264.88,565.81 260.75,565.53 256.66,565.06 252.53,564.12 248.41,562.97 244.75,561.84 244.31,561.69 240.19,560.28 236.06,558.97 231.97,557.62 227.84,556.25 224.56,555.12 223.72,554.81 219.62,553.22 215.5,551.62 211.41,550 207.53,548.47 207.28,548.38 203.16,546.47 199.06,544.47 194.94,542.44 193.84,541.91 190.81,540.38 186.72,538.47 182.59,536.69 179.34,535.38 178.47,535.03 174.38,533.47 170.25,532.09 166.12,530.62 162.34,528.97 162.03,528.78 157.91,525.69 155.12,522.59 153.78,521.19 149.69,517.56 147.78,516.28 145.56,515 141.44,513.28 137.34,512.38 133.22,511.72 129.12,511.12 125,510.56 120.88,510.09 120.69,510.06 116.78,509.41 112.66,508.41 108.53,506.97 104.44,504.12 104.09,503.88 100.31,501.12 96.188,498.59 94.5,497.75 92.094,496.59 87.969,495.84 83.844,495.31 79.75,494.94 75.625,494.59 71.5,493.75 67.406,492.97 63.281,492.25 59.469,491.69 59.188,491.66 55.062,491.19 50.938,490.84 46.844,490.53 42.719,490.31 38.594,490.19 34.5,490.12 30.375,490.12 26.25,490.16 22.156,490.47 18.031,490.69 " stroke="red" stroke-width="0.96875" stroke-linecap="round" stroke-linejoin="round" />
<polyline points="332.53,539.66 333.41,538.78 335.16,538.78 336.03,539.66 336.03,541.41 335.16,542.28 332.53,542.28 332.53,544.03 336.03,544.03 " stroke="red" stroke-width="0.71875" stroke-linecap="round" stroke-linejoin="round" />
<polyline points="340.41,544.03 338.66,541.41 342.16,541.41 342.16,544.03 342.16,538.78 " stroke="red" stroke-width="0.71875" stroke-linecap="round" stroke-linejoin="round" />
<polyline points="348.28,543.16 347.41,544.03 345.66,544.03 344.78,543.16 344.78,539.66 345.66,538.78 347.41,538.78 348.28,539.66 348.28,540.53 347.41,541.41 344.78,541.41 " stroke="red" stroke-width="0.71875" stroke-linecap="round" stroke-linejoin="round" />
<polygon points="351.78,544.03 350.91,543.16 350.91,539.66 351.78,538.78 353.53,538.78 354.41,539.66 354.41,543.16 353.53,544.03 " stroke="red" stroke-width="0.71875" stroke-linejoin="round" />
<polyline points="594,545.5 589.88,542 589.75,541.91 585.78,538.72 581.78,535.38 581.66,535.28 577.53,531.97 573.72,528.97 573.44,528.72 569.31,525.28 566.28,522.59 565.19,521.62 561.09,517.81 559.44,516.28 556.97,514 552.88,510.19 552.72,510.06 548.75,506.25 546.28,503.88 544.62,502.31 540.53,498.34 539.91,497.75 536.41,494.38 533.41,491.69 532.28,490.75 528.19,487.41 526.03,485.69 524.06,484.16 519.94,480.88 518.91,479.75 515.84,476.34 513.38,473.84 511.72,472.28 507.59,468.88 506.41,468 503.5,465.97 499.38,463.09 498.12,462.19 495.25,460.06 491.16,456.94 490.53,456.47 487.03,454 482.91,451.81 480.53,450.75 478.81,450.06 474.69,448.66 470.56,447.56 466.47,446.78 462.34,446.19 458.25,445.66 454.12,445.22 453.09,445.12 450,444.81 445.91,444.53 441.78,444.38 437.66,444.34 433.56,444.41 429.44,444.56 425.31,444.91 423.53,445.12 421.22,445.41 417.09,446.12 412.97,447.06 408.88,448.22 404.75,449.66 402.38,450.75 400.62,451.62 396.53,453.91 392.44,456.47 392.41,456.47 388.31,459.31 384.19,462.19 384.16,462.19 380.06,465.22 376.41,468 375.97,468.34 371.84,471.78 369.69,473.84 367.72,475.94 364.47,479.75 363.62,480.94 360.12,485.69 359.5,486.56 355.47,491.69 355.38,491.81 351.28,496.34 349.94,497.75 347.16,500.72 344.09,503.88 343.03,505.09 342.81,505.31 " stroke="red" stroke-width="0.96875" stroke-linecap="round" stroke-linejoin="round" />
<polyline points="332.97,514.78 331.16,516.28 330.69,516.66 326.59,519.81 322.56,522.59 322.47,522.66 318.34,525.12 314.25,527.25 310.28,528.97 310.12,529.03 306.03,530.59 301.91,532.09 297.78,533.41 293.69,534.56 290.34,535.38 289.56,535.56 285.44,536.41 281.34,537.09 277.22,537.62 273.09,538.09 269,538.47 264.88,538.78 260.75,538.97 256.66,539.06 252.53,539.03 248.41,538.81 244.31,538.47 240.19,537.94 236.06,537 231.97,535.88 230.41,535.38 227.84,534.59 223.72,533.25 219.62,532.34 215.5,531.44 211.41,530.47 207.28,529.41 206.16,528.97 203.16,527.69 199.06,525.81 194.94,524 191.53,522.59 190.81,522.28 186.72,521.06 182.59,519.91 178.47,518.72 174.38,517.34 172.38,516.28 170.25,515 166.12,511.94 163.94,510.06 162.03,508.28 157.91,504.56 156.38,503.88 153.78,502.91 149.69,501.78 145.56,501 141.44,500.38 137.34,499.69 133.22,499 129.12,498.28 126.5,497.75 125,497.44 120.88,496.38 116.78,495.09 112.66,493.53 108.53,491.72 108.47,491.69 104.44,489.38 100.31,487.38 96.188,485.75 95.969,485.69 92.094,484.34 87.969,483.16 83.844,481.97 79.75,480.81 75.656,479.75 75.625,479.72 71.5,479.12 67.406,478.69 63.281,478.41 59.188,478.16 55.062,477.62 50.938,477.06 46.844,476.53 42.719,476.03 38.594,475.66 34.5,475.34 30.375,475 26.25,474.69 22.156,474.53 18.031,474.34 " stroke="red" stroke-width="0.96875" stroke-linecap="round" stroke-linejoin="round" />
<polyline points="327.81,508.31 328.69,507.44 330.44,507.44 331.31,508.31 331.31,510.06 330.44,510.94 327.81,510.94 327.81,512.69 331.31,512.69 " stroke="red" stroke-width="0.71875" stroke-linecap="round" stroke-linejoin="round" />
<polyline points="333.94,508.31 334.81,507.44 336.56,507.44 337.44,508.31 337.44,510.06 336.56,510.94 333.94,510.94 333.94,512.69 337.44,512.69 " stroke="red" stroke-width="0.71875" stroke-linecap="round" stroke-linejoin="round" />
<polyline points="340.06,511.81 340.94,512.69 342.69,512.69 343.56,511.81 343.56,510.94 340.06,507.44 343.56,507.44 " stroke="red" stroke-width="0.71875" stroke-linecap="round" stroke-linejoin="round" />
<polygon points="347.06,512.69 346.19,511.81 346.19,508.31 347.06,507.44 348.81,507.44 349.69,508.31 349.69,511.81 348.81,512.69 " stroke="red" stroke-width="0.71875" stroke-linejoin="round" />
<polyline points="594,515.81 589.88,513.22 585.78,510.84 584.62,510.06 581.66,507.94 577.53,504.94 576.09,503.88 573.44,501.84 569.31,498.72 568,497.75 565.19,495.78 561.09,492.94 559.25,491.69 556.97,490.12 552.88,487.25 550.91,485.69 548.75,483.94 544.62,480.56 543.62,479.75 540.53,477.19 536.41,474.03 536.12,473.84 532.28,471.28 528.19,468.47 527.5,468 524.06,465.47 519.94,462.41 519.66,462.19 515.84,459.56 511.72,457.22 510.31,456.47 507.59,454.84 503.5,452.34 501.47,450.75 499.38,449.16 495.25,446.22 493.5,445.12 491.16,443.72 487.03,441.66 482.91,440.16 480.75,439.5 478.81,438.91 474.69,437.81 470.56,436.81 466.47,435.75 462.34,434.66 459.62,433.97 458.25,433.53 454.12,432.5 450,431.94 445.91,431.53 441.78,431.31 437.66,431.22 433.56,431.22 429.44,431.31 425.31,431.56 421.22,431.94 417.09,432.47 412.97,433.16 409.25,433.97 408.88,434.03 404.75,435.09 400.62,436.53 396.53,438.25 393.78,439.5 392.41,440.16 388.31,442.28 384.19,444.41 382.88,445.12 380.06,446.72 375.97,449.28 373.72,450.75 371.84,452.06 367.72,454.88 365.53,456.47 363.62,457.81 359.5,461 358.06,462.19 355.38,464.66 351.72,468 351.28,468.41 347.16,472.12 345.22,473.84 343.03,475.75 338.94,479.16 338.16,479.75 337.44,480.28 " stroke="red" stroke-width="0.96875" stroke-linecap="round" stroke-linejoin="round" />
<polyline points="322.91,489.72 322.47,489.97 319.59,491.69 318.34,492.44 314.25,494.78 310.12,497.03 308.78,497.75 306.03,499.16 301.91,501.03 297.78,502.69 294.59,503.88 293.69,504.19 289.56,505.5 285.44,506.75 281.34,507.84 277.22,508.78 273.09,509.53 269,509.81 264.88,510 263.22,510.06 260.75,510.12 256.66,510.31 252.53,511.09 248.41,511.84 244.31,512.47 240.19,512.81 236.06,512.31 231.97,511.59 227.84,510.72 225,510.06 223.72,509.75 219.62,508.72 215.5,507.56 211.41,506.28 207.28,504.94 204,503.88 203.16,503.62 199.06,502.41 194.94,501.31 190.81,500.31 186.72,499.91 182.59,499.38 178.47,498.5 176.28,497.75 174.38,497.06 170.25,493.78 167.5,491.69 166.12,490.69 162.03,488.03 157.91,485.94 157,485.69 153.78,484.75 149.69,483.78 145.56,482.94 141.44,482.19 137.34,481.75 133.22,481.34 129.12,480.88 125,480.22 123.62,479.75 120.88,478.66 116.78,476.84 112.66,474.97 110.06,473.84 108.53,473.12 104.44,471.62 100.31,470.22 96.188,468.84 93.562,468 92.094,467.47 87.969,465.69 83.844,464.09 79.75,462.72 77.812,462.19 75.625,461.59 71.5,460.97 67.406,460.53 63.281,460.16 59.188,459.84 55.062,459.34 50.938,458.81 46.844,458.28 42.719,457.72 38.594,457.06 34.938,456.47 34.5,456.38 30.375,455.59 26.25,454.84 22.156,454.22 18.031,453.59 " stroke="red" stroke-width="0.96875" stroke-linecap="round" stroke-linejoin="round" />
<polyline points="320.19,483.25 321.06,482.38 322.81,482.38 323.69,483.25 323.69,485 322.81,485.88 320.19,485.88 320.19,487.62 323.69,487.62 " stroke="red" stroke-width="0.71875" stroke-linecap="round" stroke-linejoin="round" />
<polyline points="326.31,483.25 327.19,482.38 328.94,482.38 329.81,483.25 329.81,485 328.94,485.88 326.31,485.88 326.31,487.62 329.81,487.62 " stroke="red" stroke-width="0.71875" stroke-linecap="round" stroke-linejoin="round" />
<polygon points="333.31,487.62 332.44,486.75 332.44,485.88 333.31,485 335.06,485 335.94,485.88 335.94,486.75 335.06,487.62 " stroke="red" stroke-width="0.71875" stroke-linejoin="round" />
<polyline points="333.31,485 332.44,484.12 332.44,483.25 333.31,482.38 335.06,482.38 335.94,483.25 335.94,484.12 335.06,485 " stroke="red" stroke-width="0.71875" stroke-linecap="round" stroke-linejoin="round" />
<polygon points="339.44,487.62 338.56,486.75 338.56,483.25 339.44,482.38 341.19,482.38 342.06,483.25 342.06,486.75 341.19,487.62 " stroke="red" stroke-width="0.71875" stroke-linejoin="round" />
<polyline points="594,481.81 589.88,479.91 589.53,479.75 585.78,477.59 581.66,475.22 579.25,473.84 577.53,472.88 573.44,470.56 569.31,468.38 568.5,468 565.19,466.38 561.09,464.34 556.97,462.22 556.94,462.19 552.88,459.94 548.75,457.69 546.47,456.47 544.62,455.47 540.53,453.12 536.41,450.78 536.38,450.75 532.28,448.22 528.19,445.84 526.88,445.12 524.06,443.59 519.94,441.53 515.84,439.69 515.44,439.5 511.72,437.72 507.59,435.72 503.88,433.97 503.5,433.78 499.38,431.88 495.25,430.16 491.16,428.62 490.66,428.44 487.03,427.06 482.91,425.75 478.81,424.5 474.69,423.31 473.44,422.97 470.56,422.09 466.47,420.94 462.34,419.97 458.25,419.16 454.12,418.53 450,418 446.06,417.53 445.91,417.53 441.78,417.12 437.66,416.84 433.56,416.84 429.44,417 425.31,417.25 422.25,417.53 421.22,417.62 417.09,418 412.97,418.47 408.88,419.03 404.75,419.69 400.62,420.47 396.53,421.41 392.41,422.53 390.91,422.97 388.31,423.72 384.19,424.88 380.06,426.12 375.97,427.5 373.34,428.44 371.84,429 367.72,430.69 363.62,432.59 360.88,433.97 359.5,434.62 355.38,436.66 351.28,438.72 349.75,439.5 347.16,440.91 343.03,443.19 339.78,445.12 338.94,445.66 334.81,448.12 330.69,450.75 329.12,451.72 " stroke="red" stroke-width="0.96875" stroke-linecap="round" stroke-linejoin="round" />
<polyline points="311.94,461.19 310.12,462.06 309.84,462.19 306.03,463.97 301.91,466.03 297.88,468 297.78,468.03 293.69,469.88 289.56,471.59 285.44,473.09 283.19,473.84 281.34,474.41 277.22,475.56 273.09,476.56 269,477.47 264.88,478.25 260.75,478.94 256.66,479.53 255.09,479.75 252.53,480.03 248.41,480.47 244.31,480.84 240.19,481.12 236.06,481.34 231.97,481.41 227.84,481.31 223.72,481.03 219.62,480.34 216.41,479.75 215.5,479.56 211.41,478.72 207.28,477.91 203.16,477.19 199.06,476.44 194.94,475.62 190.81,474.69 187.12,473.84 186.72,473.75 182.59,472.62 178.47,471.38 174.38,470.06 170.25,468.53 168.84,468 166.12,467 162.03,465.53 157.91,464.16 153.78,462.75 152.19,462.19 149.69,461.31 145.56,459.91 141.44,458.59 137.34,457.72 133.22,456.88 131.28,456.47 129.12,456 125,455 120.88,453.56 116.78,452 113.66,450.75 112.66,450.34 108.53,448.59 104.44,446.88 100.31,445.16 100.19,445.12 96.188,443.44 92.094,441.81 87.969,440.44 84.781,439.5 83.844,439.25 79.75,438.22 75.625,437.41 71.5,436.78 67.406,436.22 63.281,435.72 59.188,435.22 55.062,434.62 50.938,433.97 50.781,433.97 46.844,433.28 42.719,432.59 38.594,431.88 34.5,431.16 30.375,430.41 26.25,429.59 22.156,428.91 19.625,428.44 18.031,428.12 " stroke="red" stroke-width="0.96875" stroke-linecap="round" stroke-linejoin="round" />
<polyline points="310.91,454.72 311.78,453.84 313.53,453.84 314.41,454.72 314.41,456.47 313.53,457.34 310.91,457.34 310.91,459.09 314.41,459.09 " stroke="red" stroke-width="0.71875" stroke-linecap="round" stroke-linejoin="round" />
<polyline points="320.53,458.22 319.66,459.09 317.91,459.09 317.03,458.22 317.03,454.72 317.91,453.84 319.66,453.84 320.53,454.72 320.53,455.59 319.66,456.47 317.03,456.47 " stroke="red" stroke-width="0.71875" stroke-linecap="round" stroke-linejoin="round" />
<polyline points="324.91,459.09 323.16,456.47 326.66,456.47 326.66,459.09 326.66,453.84 " stroke="red" stroke-width="0.71875" stroke-linecap="round" stroke-linejoin="round" />
<polygon points="330.16,459.09 329.28,458.22 329.28,454.72 330.16,453.84 331.91,453.84 332.78,454.72 332.78,458.22 331.91,459.09 " stroke="red" stroke-width="0.71875" stroke-linejoin="round" />
<polyline points="594,433.09 589.88,432.88 585.78,432.66 581.66,432.44 577.53,432.12 573.44,431.66 569.31,431.03 565.19,430.16 561.09,429.19 558.28,428.44 556.97,428.09 552.88,426.91 548.75,425.56 544.62,424.25 540.53,422.97 536.41,421.66 532.28,420.44 528.19,419.16 524.06,417.84 523.09,417.53 519.94,416.47 515.84,415.12 511.72,413.88 507.59,412.62 506.03,412.16 503.5,411.28 499.38,409.66 495.25,408.12 491.53,406.78 491.16,406.66 487.03,405.16 482.91,403.72 478.81,402.41 475.66,401.47 474.69,401.19 470.56,400.03 466.47,399.16 462.34,398.41 458.25,397.72 454.12,397.12 450,396.78 445.91,396.56 441.78,396.38 437.66,396.22 437.56,396.22 433.56,395.78 429.44,395.28 425.31,394.75 421.22,394.25 417.09,393.94 412.97,393.78 408.88,393.72 404.75,393.84 400.62,394.19 396.53,394.66 392.41,395.25 388.31,395.94 386.84,396.22 384.19,396.66 380.06,397.41 375.97,398.12 371.84,398.84 367.72,399.38 363.62,399.91 359.5,400.53 355.38,401.28 354.5,401.47 351.28,402.22 347.16,403.38 343.03,404.72 338.94,406.28 337.78,406.78 334.81,408.09 330.69,410.03 326.59,412.12 326.56,412.16 322.47,414.16 318.34,416.28 315.97,417.53 314.25,418.44 311.22,420 " stroke="red" stroke-width="0.96875" stroke-linecap="round" stroke-linejoin="round" />
<polyline points="293,429.44 289.56,431.34 285.44,433.81 285.19,433.97 281.34,436.06 277.22,438.12 274.19,439.5 273.09,439.97 269,441.47 264.88,442.69 260.75,443.69 256.66,444.5 252.53,444.97 250.78,445.12 248.41,445.34 244.31,445.66 240.19,446.03 236.06,446.59 231.97,447.09 227.84,447.47 223.72,447.75 219.62,448.06 215.5,448.28 211.41,448.34 207.28,448.16 203.16,447.12 199.06,445.84 196.91,445.12 194.94,444.41 190.81,442.97 186.72,442.09 182.59,441.38 178.47,440.66 174.38,440 172.19,439.5 170.25,439.09 166.12,438.12 162.03,437.12 157.91,436.06 153.78,434.97 150,433.97 149.69,433.88 145.56,432.78 141.44,431.69 137.34,430.72 133.22,429.72 129.12,428.69 128.22,428.44 125,427.56 120.88,426.19 116.78,424.72 112.66,423.16 112.22,422.97 108.53,421.47 104.44,419.19 101.59,417.53 100.31,416.78 96.188,414.47 92.094,412.47 88.125,412.16 87.969,412.12 85.281,412.16 83.844,412.16 79.75,412.28 75.625,412.31 75.031,412.16 71.5,411.12 67.406,409.72 63.281,408.25 59.188,406.81 59.125,406.78 55.062,405.72 50.938,404.66 46.844,403.59 42.719,402.5 39.031,401.47 38.594,401.34 34.5,400.19 30.375,398.97 26.25,397.69 22.156,396.44 21.438,396.22 18.031,395.06 " stroke="red" stroke-width="0.96875" stroke-linecap="round" stroke-linejoin="round" />
<polyline points="291.41,422.97 292.28,422.09 294.03,422.09 294.91,422.97 294.91,424.72 294.03,425.59 291.41,425.59 291.41,427.34 294.91,427.34 " stroke="red" stroke-width="0.71875" stroke-linecap="round" stroke-linejoin="round" />
<polyline points="297.53,427.34 301.03,427.34 299.28,422.09 " stroke="red" stroke-width="0.71875" stroke-linecap="round" stroke-linejoin="round" />
<polygon points="304.53,427.34 303.66,426.47 303.66,422.97 304.53,422.09 306.28,422.09 307.16,422.97 307.16,426.47 306.28,427.34 " stroke="red" stroke-width="0.71875" stroke-linejoin="round" />
<polygon points="310.66,427.34 309.78,426.47 309.78,422.97 310.66,422.09 312.41,422.09 313.28,422.97 313.28,426.47 312.41,427.34 " stroke="red" stroke-width="0.71875" stroke-linejoin="round" />
<polyline points="594,357.84 592.34,360.25 589.88,363.56 588.44,365.28 585.78,368.22 583.44,370.38 581.66,371.81 577.53,374.62 576,375.47 573.44,376.78 569.31,378.44 565.19,379.69 561.25,380.59 561.09,380.62 556.97,381.25 552.88,381.66 548.75,381.88 544.62,381.91 540.53,381.72 536.41,381.38 532.28,380.75 531.41,380.59 528.19,379.97 524.06,379.06 519.94,378.03 515.84,376.97 511.72,375.91 510.06,375.47 507.59,374.78 503.5,373.75 499.38,372.94 495.25,372.22 491.16,371.53 487.03,370.84 484.81,370.38 482.91,369.94 478.81,369 474.69,368.09 470.56,367.25 466.47,366.59 462.34,365.94 458.38,365.28 458.25,365.28 454.12,364.5 450,363.62 445.91,362.72 441.78,361.78 437.66,360.84 435.28,360.25 433.56,359.78 429.44,358.62 425.31,357.44 421.22,356.28 417.09,355.25 412.97,354.22 408.88,353.25 404.75,352.28 400.62,351.06 398.12,350.28 396.53,349.69 392.41,348.06 388.31,346.22 385.97,345.31 384.19,344.41 380.06,341.75 378.5,340.41 375.97,337.19 374.88,335.5 372.56,330.66 371.84,329.56 369.47,325.81 367.72,322.72 366.84,321 364.47,316.22 363.62,314.56 361.97,311.44 359.5,308.25 357.81,306.72 355.38,305.19 351.28,303.47 347.16,302.62 343.03,302.53 338.94,303.12 334.81,305 332.09,306.72 330.69,307.69 326.69,311.44 326.59,311.59 324.25,316.22 322.56,321 322.47,321.41 321.69,325.81 321.28,330.66 321.66,334.12 " stroke="red" stroke-width="0.96875" stroke-linecap="round" stroke-linejoin="round" />
<polyline points="323.72,343.56 324.19,345.31 325.34,350.28 324.47,355.25 322.47,359.75 322.22,360.25 318.34,364.81 317.94,365.28 314.25,368.41 311.81,370.38 310.12,371.44 306.03,374.09 303.94,375.47 301.91,376.72 297.78,379.31 295.81,380.59 293.69,381.91 289.56,384.47 287.5,385.78 285.44,386.97 281.34,389.31 278.19,390.97 277.22,391.44 273.09,393.38 269,395.34 267.22,396.22 264.88,397.38 260.75,399.38 256.66,401.28 255.06,401.47 252.53,401.78 248.41,401.91 244.31,401.94 240.19,402.06 236.06,403.66 231.97,405.78 230.16,406.78 227.84,408.06 223.72,409.97 219.62,408.12 217.09,406.78 215.5,406 211.41,404.25 207.28,403.22 203.16,404.22 199.06,405.59 195.84,406.78 194.94,407.12 190.81,408.5 186.72,408.81 182.59,408.84 178.47,408.66 174.38,408.28 170.25,407.81 166.12,407.22 163.53,406.78 162.03,406.53 157.91,405.78 153.78,404.94 149.69,404.09 145.56,403.28 141.44,402.47 137.34,401.91 134.56,401.47 133.22,401.28 129.12,400.53 125,399.59 120.88,398.19 116.78,396.56 115.91,396.22 112.66,394.84 108.53,393.16 104.44,391.97 100.31,391.03 100.03,390.97 96.188,390.16 92.094,389.31 87.969,388.25 83.844,387.19 79.75,386.09 78.594,385.78 75.625,384.97 71.5,383.97 67.406,382.94 63.281,381.88 59.188,380.72 58.781,380.59 55.062,379.44 50.938,378.09 46.844,376.75 42.938,375.47 42.719,375.38 38.594,374.03 34.5,372.66 30.375,371.34 27.125,370.38 26.25,370.12 22.156,369.09 18.031,368.12 " stroke="red" stroke-width="0.96875" stroke-linecap="round" stroke-linejoin="round" />
<polyline points="311.97,337.09 312.84,336.22 314.59,336.22 315.47,337.09 315.47,338.84 314.59,339.72 311.97,339.72 311.97,341.47 315.47,341.47 " stroke="red" stroke-width="0.71875" stroke-linecap="round" stroke-linejoin="round" />
<polyline points="318.09,341.47 321.59,341.47 319.84,336.22 " stroke="red" stroke-width="0.71875" stroke-linecap="round" stroke-linejoin="round" />
<polyline points="327.72,340.59 326.84,341.47 325.09,341.47 324.22,340.59 324.22,337.09 325.09,336.22 326.84,336.22 327.72,337.09 327.72,337.97 326.84,338.84 324.22,338.84 " stroke="red" stroke-width="0.71875" stroke-linecap="round" stroke-linejoin="round" />
<polygon points="331.22,341.47 330.34,340.59 330.34,337.09 331.22,336.22 332.97,336.22 333.84,337.09 333.84,340.59 332.97,341.47 " stroke="red" stroke-width="0.71875" stroke-linejoin="round" />
<polyline points="539.81,247 539.75,247.03 536.41,249.22 533.25,251.5 532.28,252.25 528.19,255.56 527.66,256 524.06,258.75 521.72,260.5 519.94,261.91 516.09,265.03 515.84,265.28 511.72,269.12 511.22,269.59 507.59,273.47 506.97,274.16 503.53,278.75 503.5,278.78 499.56,283.34 499.38,283.56 495.25,287.25 494.19,287.97 491.16,289.81 487.03,291.44 482.91,291.56 478.81,291.12 474.69,290.28 470.56,289.09 467.09,287.97 466.47,287.75 462.34,285.88 458.25,283.34 454.12,279.72 453.25,278.75 450,274.5 449.78,274.16 446.19,269.59 445.91,269.25 441.78,265.06 441.75,265.03 437.66,261.91 435.5,260.5 433.56,259.41 429.44,257.12 427.34,256 425.31,254.91 421.22,252.78 418.41,251.5 417.09,250.97 412.97,249.59 408.88,248.5 404.75,247.62 402.16,247.03 402,247 " stroke="red" stroke-width="0.96875" stroke-linecap="round" stroke-linejoin="round" />
<polyline points="357.53,247 357.41,247.03 355.38,247.53 351.28,248.81 347.16,250.28 344.19,251.5 343.03,251.94 338.94,253.62 334.81,255.56 334.03,256 330.69,257.62 326.59,260 325.84,260.5 322.47,262.78 319.75,265.03 318.34,266.22 314.91,269.59 314.25,270.25 310.72,274.16 310.12,274.91 307.16,278.75 306.03,280.28 305.16,281.5 " stroke="red" stroke-width="0.96875" stroke-linecap="round" stroke-linejoin="round" />
<polyline points="299,290.97 298,292.62 297.78,293 295.38,297.31 293.69,300.44 292.78,302 290,306.72 289.56,307.44 286.62,311.44 285.44,312.88 282.41,316.22 281.34,317.31 277.41,321 277.22,321.16 273.09,324.59 271.66,325.81 269,327.84 264.88,330.66 260.75,332.78 256.66,334.56 254.09,335.5 252.53,336.06 248.41,337.44 244.31,338.81 240.19,340.25 239.81,340.41 236.06,342 231.97,343.88 228.97,345.31 227.84,345.88 223.72,347.94 219.62,350.16 219.44,350.28 215.5,352.72 211.88,355.25 211.41,355.59 207.28,358.62 204.44,360.25 203.16,360.94 199.06,362.66 194.94,363.97 190.81,364.88 188.22,365.28 186.72,365.53 182.59,365.97 178.47,366.31 174.38,366.59 170.25,366.97 166.12,367.31 162.03,367.62 157.91,367.91 153.78,368.28 149.69,368.56 145.56,368.62 141.44,368.44 137.34,367.56 133.22,366.56 129.12,365.53 128.12,365.28 125,364.53 120.88,363.88 116.78,363.25 112.66,362.66 108.53,362.03 104.44,361.31 100.31,360.59 98.312,360.25 96.188,359.88 92.094,359.12 87.969,358.5 83.844,357.91 79.75,357.28 75.625,356.62 71.5,355.84 68.406,355.25 67.406,355.03 63.281,354.19 59.188,353.31 55.062,352.44 50.938,351.56 46.844,350.66 45.156,350.28 42.719,349.66 38.594,348.59 34.5,347.53 30.375,346.53 26.25,345.56 25.219,345.31 22.156,344.53 18.031,343.53 " stroke="red" stroke-width="0.96875" stroke-linecap="round" stroke-linejoin="round" />
<polyline points="291.41,284.5 292.28,283.62 294.03,283.62 294.91,284.5 294.91,286.25 294.03,287.12 291.41,287.12 291.41,288.88 294.91,288.88 " stroke="red" stroke-width="0.71875" stroke-linecap="round" stroke-linejoin="round" />
<polygon points="298.41,288.88 297.53,288 297.53,287.12 298.41,286.25 300.16,286.25 301.03,287.12 301.03,288 300.16,288.88 " stroke="red" stroke-width="0.71875" stroke-linejoin="round" />
<polyline points="298.41,286.25 297.53,285.38 297.53,284.5 298.41,283.62 300.16,283.62 301.03,284.5 301.03,285.38 300.16,286.25 " stroke="red" stroke-width="0.71875" stroke-linecap="round" stroke-linejoin="round" />
<polyline points="303.66,288 304.53,288.88 306.28,288.88 307.16,288 307.16,287.12 303.66,283.62 307.16,283.62 " stroke="red" stroke-width="0.71875" stroke-linecap="round" stroke-linejoin="round" />
<polygon points="310.66,288.88 309.78,288 309.78,284.5 310.66,283.62 312.41,283.62 313.28,284.5 313.28,288 312.41,288.88 " stroke="red" stroke-width="0.71875" stroke-linejoin="round" />
<polyline points="18.031,289.88 22.156,291.59 25.094,292.62 26.25,292.91 30.375,293.94 34.5,295.25 38.594,296.81 39.719,297.31 42.719,298.31 46.844,299.66 50.938,300.88 55.062,301.91 55.469,302 59.188,302.66 63.281,303.44 67.406,304.25 71.5,305.09 75.625,305.97 79.562,306.72 79.75,306.75 83.844,307.38 87.969,307.97 92.094,308.47 96.188,308.81 100.31,309.06 104.44,309.28 108.53,309.53 112.66,309.91 116.78,310.34 120.88,310.78 125,311.28 126.03,311.44 129.12,311.91 133.22,312.5 137.34,312.94 141.44,313.19 145.56,312.94 149.69,312.38 153.78,311.5 154.03,311.44 157.91,310.41 162.03,309.34 166.12,308 169.41,306.72 170.25,306.31 174.38,304.12 178.22,302 178.47,301.84 182.59,299.47 186.72,297.31 190.81,294.97 194.16,292.62 194.94,291.88 198.78,287.97 199.06,287.62 202.38,283.34 203.16,282.06 205.31,278.88 " stroke="red" stroke-width="0.96875" stroke-linecap="round" stroke-linejoin="round" />
<polyline points="212.38,269.44 214.03,265.03 213.25,260.5 211.41,257.78 210.22,256 207.28,253.72 203.47,251.5 203.16,251.38 199.06,249.66 194.94,247.81 193.19,247.03 193.09,247 " stroke="red" stroke-width="0.96875" stroke-linecap="round" stroke-linejoin="round" />
<polyline points="113.38,247 113.28,247.03 112.66,247.28 108.53,248.75 104.44,249.44 100.31,249.81 96.188,249.97 92.094,249.97 87.969,250.16 83.844,250.22 79.75,250.25 75.625,250.12 71.5,249.44 67.406,248.66 63.281,248.06 59.188,247.97 55.062,249.31 50.938,250.59 47.594,251.5 46.844,251.72 42.719,252.75 38.594,253.59 34.5,254.53 30.375,255.53 28.562,256 26.25,256.59 22.156,257.81 18.031,259.16 " stroke="red" stroke-width="0.96875" stroke-linecap="round" stroke-linejoin="round" />
<polyline points="197.88,272.41 198.75,271.53 200.5,271.53 201.38,272.41 201.38,274.16 200.5,275.03 197.88,275.03 197.88,276.78 201.38,276.78 " stroke="red" stroke-width="0.71875" stroke-linecap="round" stroke-linejoin="round" />
<polygon points="204.88,276.78 204,275.91 204,275.03 204.88,274.16 206.62,274.16 207.5,275.03 207.5,275.91 206.62,276.78 " stroke="red" stroke-width="0.71875" stroke-linejoin="round" />
<polyline points="204.88,274.16 204,273.28 204,272.41 204.88,271.53 206.62,271.53 207.5,272.41 207.5,273.28 206.62,274.16 " stroke="red" stroke-width="0.71875" stroke-linecap="round" stroke-linejoin="round" />
<polygon points="211,276.78 210.12,275.91 210.12,275.03 211,274.16 212.75,274.16 213.62,275.03 213.62,275.91 212.75,276.78 " stroke="red" stroke-width="0.71875" stroke-linejoin="round" />
<polyline points="211,274.16 210.12,273.28 210.12,272.41 211,271.53 212.75,271.53 213.62,272.41 213.62,273.28 212.75,274.16 " stroke="red" stroke-width="0.71875" stroke-linecap="round" stroke-linejoin="round" />
<polygon points="217.12,276.78 216.25,275.91 216.25,272.41 217.12,271.53 218.88,271.53 219.75,272.41 219.75,275.91 218.88,276.78 " stroke="red" stroke-width="0.71875" stroke-linejoin="round" />
</g>
</svg>
