<?xml version="1.0" encoding="ISO-8859-1" standalone="no"?>
<!DOCTYPE svg PUBLIC "-//W3C//DTD SVG 1.1//EN" "http://www.w3.org/Graphics/SVG/1.1/DTD/svg11.dtd">
<svg version="1.1" baseProfile="full" id="body" width="900px" height="600px" viewBox="0 0.2 1 0.55" preserveAspectRatio="none" xmlns="http://www.w3.org/2000/svg" xmlns:xlink="http://www.w3.org/1999/xlink" xmlns:ev="http://www.w3.org/2001/xml-events">
<title>SVG drawing</title>
<desc>This was produced by version 4.2 of GNU libplot, a free library for exporting 2-D vector graphics.</desc>
<rect id="background" x="0" y="0" width="1" height="1" stroke="none" fill="none"/>
<g id="content" transform="translate(-0.03125,1.1875) scale(1,-1) scale(0.0017361) " xml:space="preserve" stroke="black" stroke-linecap="butt" stroke-linejoin="miter" stroke-miterlimit="10.433" stroke-dasharray="none" stroke-dashoffset="0" stroke-opacity="1" fill="none" fill-rule="even-odd" fill-opacity="1" font-style="normal" font-variant="normal" font-weight="normal" font-stretch="normal" font-size-adjust="none" letter-spacing="normal" word-spacing="normal" text-anchor="start">
<polyline points="558.81,564.53 559.69,563.66 561.44,563.66 562.31,564.53 562.31,566.28 561.44,567.16 558.81,567.16 558.81,568.66 " stroke="red" stroke-width="0.71875" stroke-linecap="round" stroke-linejoin="round" />
<line x1="564.94" y1="568.03" x2="565.56" y2="568.66" stroke="red" stroke-width="0.71875" stroke-linecap="round" />
<polyline points="567.81,568.66 568.44,568.03 568.44,567.16 564.94,563.66 568.44,563.66 " stroke="red" stroke-width="0.71875" stroke-linecap="round" stroke-linejoin="round" />
<line x1="571.06" y1="568.03" x2="571.69" y2="568.66" stroke="red" stroke-width="0.71875" stroke-linecap="round" />
<polyline points="573.94,568.66 574.56,568.03 574.56,567.16 571.06,563.66 574.56,563.66 " stroke="red" stroke-width="0.71875" stroke-linecap="round" stroke-linejoin="round" />
<polyline points="577.81,568.66 577.19,568.03 577.19,564.53 578.06,563.66 579.81,563.66 580.69,564.53 580.69,568.03 580.06,568.66 " stroke="red" stroke-width="0.71875" stroke-linecap="round" stroke-linejoin="round" />
<polyline points="214.53,568.66 214.62,568.62 215.5,568.31 219.62,566.5 223.72,564.34 227.28,561.84 227.81,561.5 " stroke="red" stroke-width="0.96875" stroke-linecap="round" stroke-linejoin="round" />
<polyline points="249.56,554.03 252.53,554.03 256.66,554.34 260.75,554.84 262.25,555.12 264.88,555.81 269,557.25 273.09,558.94 277.22,561.12 278.41,561.84 281.34,563.81 285.44,566.56 288.72,568.62 288.78,568.66 " stroke="red" stroke-width="0.96875" stroke-linecap="round" stroke-linejoin="round" />
<polyline points="225.56,555.03 226.44,554.16 228.19,554.16 229.06,555.03 229.06,556.78 228.19,557.66 225.56,557.66 225.56,559.41 229.06,559.41 " stroke="red" stroke-width="0.71875" stroke-linecap="round" stroke-linejoin="round" />
<polyline points="231.69,558.53 232.56,559.41 234.31,559.41 235.19,558.53 235.19,557.66 231.69,554.16 235.19,554.16 " stroke="red" stroke-width="0.71875" stroke-linecap="round" stroke-linejoin="round" />
<polygon points="238.69,559.41 237.81,558.53 237.81,557.66 238.69,556.78 240.44,556.78 241.31,557.66 241.31,558.53 240.44,559.41 " stroke="red" stroke-width="0.71875" stroke-linejoin="round" />
<polyline points="238.69,556.78 237.81,555.91 237.81,555.03 238.69,554.16 240.44,554.16 241.31,555.03 241.31,555.91 240.44,556.78 " stroke="red" stroke-width="0.71875" stroke-linecap="round" stroke-linejoin="round" />
<polygon points="244.81,559.41 243.94,558.53 243.94,555.03 244.81,554.16 246.56,554.16 247.44,555.03 247.44,558.53 246.56,559.41 " stroke="red" stroke-width="0.71875" stroke-linejoin="round" />
<polyline points="516.91,568.66 516.94,568.62 519.94,562.75 520.38,561.84 523.78,555.12 524.06,554.56 527.47,548.47 528.19,547.25 531.66,541.91 532.28,541 536.41,536.09 536.84,535.72 " stroke="red" stroke-width="0.96875" stroke-linecap="round" stroke-linejoin="round" />
<polyline points="558.09,531.81 561.09,532.91 565.19,534.72 566.5,535.38 569.31,536.72 573.44,538.81 577.53,541.19 578.62,541.91 581.66,543.84 585.78,546.84 587.88,548.47 589.88,550.06 594,553.62 " stroke="red" stroke-width="0.96875" stroke-linecap="round" stroke-linejoin="round" />
<polyline points="534.12,529.25 535,528.38 536.75,528.38 537.62,529.25 537.62,531 536.75,531.88 534.12,531.88 534.12,533.62 537.62,533.62 " stroke="red" stroke-width="0.71875" stroke-linecap="round" stroke-linejoin="round" />
<polyline points="540.25,532.75 541.12,533.62 542.88,533.62 543.75,532.75 543.75,531.88 540.25,528.38 543.75,528.38 " stroke="red" stroke-width="0.71875" stroke-linecap="round" stroke-linejoin="round" />
<polygon points="547.25,533.62 546.38,532.75 546.38,531.88 547.25,531 549,531 549.88,531.88 549.88,532.75 549,533.62 " stroke="red" stroke-width="0.71875" stroke-linejoin="round" />
<polyline points="547.25,531 546.38,530.12 546.38,529.25 547.25,528.38 549,528.38 549.88,529.25 549.88,530.12 549,531 " stroke="red" stroke-width="0.71875" stroke-linecap="round" stroke-linejoin="round" />
<polygon points="553.38,533.62 552.5,532.75 552.5,529.25 553.38,528.38 555.12,528.38 556,529.25 556,532.75 555.12,533.62 " stroke="red" stroke-width="0.71875" stroke-linejoin="round" />
<polyline points="319.06,568.66 319,568.62 318.34,568.25 314.25,565.91 310.12,563.62 306.94,561.84 306.03,561.31 301.91,558.5 297.78,555.5 297.28,555.12 293.69,552.59 289.56,549.91 286.97,548.47 285.44,547.69 281.34,545.81 277.22,544.19 273.09,542.72 270.56,541.91 269,541.41 264.88,540.19 260.75,539.06 256.66,538 252.53,537.19 248.41,536.5 244.31,535.94 240.19,535.44 239.75,535.38 236.06,534.97 231.97,534.59 227.84,534.38 223.72,534.41 219.62,535.06 218.12,535.38 215.5,536.12 211.41,537.5 207.28,538.97 203.16,540.16 199.06,541.22 196.06,541.88 " stroke="red" stroke-width="0.96875" stroke-linecap="round" stroke-linejoin="round" />
<polyline points="169.12,547.31 166.12,548.22 165.44,548.47 162.03,549.66 157.91,551.12 153.78,552.5 149.69,553.91 146.22,555.12 145.56,555.38 141.44,557.09 137.34,558.94 133.22,560.72 130.5,561.84 129.12,562.44 125,564.09 120.88,565.31 116.78,566.41 112.66,567.41 108.53,568.31 107.12,568.62 107,568.66 " stroke="red" stroke-width="0.96875" stroke-linecap="round" stroke-linejoin="round" />
<polyline points="63.594,568.66 63.5,568.62 63.281,568.56 59.188,566.84 55.062,564.88 50.938,562.72 49.344,561.84 46.844,560.5 42.719,558.25 38.594,556 37.062,555.12 34.5,553.59 30.375,550.97 26.719,548.47 26.25,548.16 22.156,545.5 18.031,542.69 " stroke="red" stroke-width="0.96875" stroke-linecap="round" stroke-linejoin="round" />
<polyline points="172.09,542.62 172.97,541.75 174.72,541.75 175.59,542.62 175.59,544.38 174.72,545.25 172.09,545.25 172.09,547 175.59,547 " stroke="red" stroke-width="0.71875" stroke-linecap="round" stroke-linejoin="round" />
<polyline points="178.22,546.12 179.09,547 180.84,547 181.72,546.12 181.72,545.25 180.84,544.38 179.97,544.38 180.84,544.38 181.72,543.5 181.72,542.62 180.84,541.75 179.09,541.75 178.22,542.62 " stroke="red" stroke-width="0.71875" stroke-linecap="round" stroke-linejoin="round" />
<polyline points="186.09,547 184.34,544.38 187.84,544.38 187.84,547 187.84,541.75 " stroke="red" stroke-width="0.71875" stroke-linecap="round" stroke-linejoin="round" />
<polygon points="191.34,547 190.47,546.12 190.47,542.62 191.34,541.75 193.09,541.75 193.97,542.62 193.97,546.12 193.09,547 " stroke="red" stroke-width="0.71875" stroke-linejoin="round" />
<polyline points="475.66,568.66 475.69,568.62 478.81,564.69 481.03,561.84 482.91,559.28 485.97,555.12 487.03,553.53 490.69,548.47 491.16,547.81 495.25,542.03 495.34,541.91 499.38,536.28 500,535.38 503.5,530.53 504.44,528.97 507.59,523.78 508.28,522.59 511.53,516.28 511.72,515.94 514.5,510.06 515.84,507.06 517.41,503.88 518.16,502.47 " stroke="red" stroke-width="0.96875" stroke-linecap="round" stroke-linejoin="round" />
<polyline points="527.06,493.03 528.19,492.28 529.69,491.69 532.28,490.75 536.41,490.03 540.53,489.66 544.62,490 548.75,491.16 549.81,491.69 552.88,493.25 556.97,496.25 558.75,497.75 561.09,499.66 565.19,503.28 565.78,503.88 569.31,507.06 572.22,510.06 573.44,511.22 577.53,515.34 578.5,516.28 581.66,519.31 585.09,522.59 585.78,523.19 589.88,527.03 591.75,528.97 594,530.94 " stroke="red" stroke-width="0.96875" stroke-linecap="round" stroke-linejoin="round" />
<polyline points="510.75,496 511.62,495.12 513.38,495.12 514.25,496 514.25,497.75 513.38,498.62 510.75,498.62 510.75,500.38 514.25,500.38 " stroke="red" stroke-width="0.71875" stroke-linecap="round" stroke-linejoin="round" />
<polyline points="516.88,499.5 517.75,500.38 519.5,500.38 520.38,499.5 520.38,498.62 519.5,497.75 518.62,497.75 519.5,497.75 520.38,496.88 520.38,496 519.5,495.12 517.75,495.12 516.88,496 " stroke="red" stroke-width="0.71875" stroke-linecap="round" stroke-linejoin="round" />
<polyline points="524.75,500.38 523,497.75 526.5,497.75 526.5,500.38 526.5,495.12 " stroke="red" stroke-width="0.71875" stroke-linecap="round" stroke-linejoin="round" />
<polygon points="530,500.38 529.12,499.5 529.12,496 530,495.12 531.75,495.12 532.62,496 532.62,499.5 531.75,500.38 " stroke="red" stroke-width="0.71875" stroke-linejoin="round" />
<polyline points="594,507.31 590.56,503.88 589.88,503.19 585.78,499.16 584.5,497.75 581.66,494.53 579.28,491.69 577.53,489.56 574.47,485.69 573.44,484.38 569.78,479.75 569.31,479.22 565.19,474.97 564.09,473.84 561.09,470.75 558.38,468 556.97,466.62 552.88,462.88 551.5,462.19 548.75,460.97 544.62,459.75 540.53,459.09 536.41,458.94 532.28,458.66 528.19,458.81 524.06,459.5 519.94,460.84 517.34,462.19 515.84,463.06 511.72,466.25 509.88,468 507.59,470.44 504.88,473.84 503.5,475.81 500.81,479.75 499.38,482.41 497.59,485.69 495.25,490.06 494.38,491.69 491.16,497.44 490.97,497.75 487.28,503.88 487.03,504.19 483.69,510.06 482.91,511.34 480.06,516.28 478.81,518.41 476.28,522.59 474.69,525.16 472.28,528.97 470.56,531.5 467.84,535.38 466.47,537.31 463.03,541.91 462.34,542.78 458.25,547.94 457.81,548.47 454.12,552.75 451.75,555.12 450,556.88 445.91,560.56 444.25,561.84 441.78,563.72 437.66,566.38 433.56,568.38 432.88,568.62 432.78,568.66 " stroke="red" stroke-width="0.96875" stroke-linecap="round" stroke-linejoin="round" />
<polyline points="388.62,568.66 388.5,568.62 388.31,568.59 384.19,567.78 380.06,567 375.97,566.16 371.84,565.31 367.72,564.47 363.62,563.59 359.5,562.66 356.53,561.91 " stroke="red" stroke-width="0.96875" stroke-linecap="round" stroke-linejoin="round" />
<polyline points="329.56,553.59 326.59,552.53 322.47,551 318.34,549.34 316.34,548.47 314.25,547.53 310.12,545.59 306.03,543.59 303.19,541.91 301.91,541.16 297.78,538.78 293.69,536.62 291,535.38 289.56,534.72 285.44,533.25 281.34,531.94 277.22,530.75 273.09,529.59 271.12,528.97 269,528.16 264.88,526.62 260.75,525.19 256.66,523.88 252.53,522.84 251.34,522.59 248.41,521.94 244.31,521.16 240.19,520.47 236.06,519.75 231.97,519.16 227.84,518.72 223.72,518.41 219.62,518.41 215.5,518.56 211.41,518.91 207.28,519.38 203.16,520 199.06,520.72 194.94,521.47 190.81,522.25 188.06,522.59 186.72,522.78 182.59,523.31 178.47,523.84 174.38,524.47 170.25,525.31 166.12,526.25 162.03,527.22 157.91,528.16 154.41,528.97 153.78,529.09 149.69,530.03 145.56,530.91 141.44,531.72 137.34,532.44 133.22,533.09 129.12,533.69 125,534.22 120.88,534.62 116.78,534.91 112.66,535.09 108.53,535.12 104.44,535.09 100.31,534.88 96.188,534.5 92.094,533.91 87.969,532.88 83.844,531.62 79.75,530.19 76.312,528.97 75.625,528.75 71.5,528.09 67.406,527.44 63.281,526.66 59.188,525.59 55.062,523.62 53.125,522.59 50.938,521.47 46.844,519.19 42.719,516.94 41.375,516.28 38.594,515.06 34.5,513.25 30.375,511.47 27.219,510.06 26.25,509.66 22.156,507.84 18.031,505.78 " stroke="red" stroke-width="0.96875" stroke-linecap="round" stroke-linejoin="round" />
<polyline points="332.53,556.19 333.41,555.31 335.16,555.31 336.03,556.19 336.03,557.94 335.16,558.81 332.53,558.81 332.53,560.56 336.03,560.56 " stroke="red" stroke-width="0.71875" stroke-linecap="round" stroke-linejoin="round" />
<polyline points="340.41,560.56 338.66,557.94 342.16,557.94 342.16,560.56 342.16,555.31 " stroke="red" stroke-width="0.71875" stroke-linecap="round" stroke-linejoin="round" />
<polygon points="345.66,560.56 344.78,559.69 344.78,556.19 345.66,555.31 347.41,555.31 348.28,556.19 348.28,559.69 347.41,560.56 " stroke="red" stroke-width="0.71875" stroke-linejoin="round" />
<polygon points="351.78,560.56 350.91,559.69 350.91,556.19 351.78,555.31 353.53,555.31 354.41,556.19 354.41,559.69 353.53,560.56 " stroke="red" stroke-width="0.71875" stroke-linejoin="round" />
<polyline points="594,485.75 593.94,485.69 589.88,481.97 587.62,479.75 585.78,477.91 582.19,473.84 581.66,473.25 577.53,468.72 576.88,468 573.44,464.38 571.28,462.19 569.31,460.28 565.69,456.47 565.19,455.97 561.09,452.19 559.38,450.75 556.97,448.91 552.88,446.16 551,445.12 548.75,443.84 544.62,441.59 540.88,439.5 540.53,439.31 536.41,437.34 532.28,436.31 528.19,435.84 524.06,435.97 519.94,436.62 515.84,437.75 511.72,439.38 511.47,439.5 507.59,441.91 503.5,445.09 503.47,445.12 499.38,449.88 498.66,450.75 495.25,455.28 494.38,456.47 491.16,460.62 489.91,462.19 487.03,465.97 485.41,468 482.91,471.38 481.16,473.84 478.81,477.41 477.28,479.75 474.69,484.34 473.91,485.69 470.56,491.56 470.5,491.69 466.5,497.75 466.47,497.81 462.34,503.5 462.06,503.88 458.25,508.72 457.12,510.06 454.12,513.62 451.59,516.28 450,517.97 445.91,521.84 445.03,522.59 441.78,525.31 437.66,528.41 436.91,528.97 433.56,531.31 429.44,533.81 426.31,535.38 425.31,535.88 421.22,537.53 417.09,538.94 412.97,540.03 408.88,540.88 404.75,541.41 400.62,541.47 396.53,541.31 392.41,541.03 388.31,540.69 384.19,540.53 380.06,540.28 375.97,540 371.84,539.62 367.72,539.03 363.62,538.34 362.09,538.06 " stroke="red" stroke-width="0.96875" stroke-linecap="round" stroke-linejoin="round" />
<polyline points="335.12,532.41 334.81,532.31 330.69,531.28 326.59,530.19 322.47,529 322.31,528.97 318.34,527.78 314.25,526.47 310.12,525.09 306.03,523.66 303.22,522.59 301.91,522.06 297.78,520.5 293.69,519.03 289.56,517.69 285.44,516.62 284.06,516.28 281.34,515.56 277.22,514.5 273.09,513.47 269,512.22 264.88,511.06 261.06,510.06 260.75,509.97 256.66,508.94 252.53,508.09 248.41,507.38 244.31,506.72 240.19,506.19 236.06,505.75 231.97,505.41 227.84,505.16 223.72,504.94 219.62,504.75 215.5,504.59 211.41,504.5 207.28,504.5 203.16,504.81 199.06,505.16 194.94,505.56 190.81,505.91 186.72,505.88 182.59,505.78 178.47,505.69 174.38,505.66 170.25,506.06 166.12,506.56 162.03,507.19 157.91,507.81 153.78,508.41 149.69,508.94 145.56,509.41 141.44,509.72 137.34,509.72 133.22,509.59 129.12,509.31 125,509 120.88,508.78 116.78,508.5 112.66,508.09 108.53,507.59 104.44,506.81 100.31,505.91 96.188,504.88 92.5,503.88 92.094,503.75 87.969,502.59 83.844,501.38 79.75,500.09 75.625,498.78 71.75,497.75 71.5,497.69 67.406,496.66 63.281,495.56 59.188,494.44 55.062,492.97 51.625,491.69 50.938,491.44 46.844,489.97 42.719,488.47 38.594,487.22 34.5,486 33.375,485.69 30.375,484.91 26.25,483.84 22.156,482.81 18.031,481.81 " stroke="red" stroke-width="0.96875" stroke-linecap="round" stroke-linejoin="round" />
<polyline points="338.09,533.62 338.97,532.75 340.72,532.75 341.59,533.62 341.59,535.38 340.72,536.25 338.09,536.25 338.09,538 341.59,538 " stroke="red" stroke-width="0.71875" stroke-linecap="round" stroke-linejoin="round" />
<polyline points="345.97,538 344.22,535.38 347.72,535.38 347.72,538 347.72,532.75 " stroke="red" stroke-width="0.71875" stroke-linecap="round" stroke-linejoin="round" />
<polyline points="353.84,537.12 352.97,538 351.22,538 350.34,537.12 350.34,533.62 351.22,532.75 352.97,532.75 353.84,533.62 353.84,534.5 352.97,535.38 350.34,535.38 " stroke="red" stroke-width="0.71875" stroke-linecap="round" stroke-linejoin="round" />
<polygon points="357.34,538 356.47,537.12 356.47,533.62 357.34,532.75 359.09,532.75 359.97,533.62 359.97,537.12 359.09,538 " stroke="red" stroke-width="0.71875" stroke-linejoin="round" />
<polyline points="594,464.28 591.41,462.19 589.88,461 585.78,457.56 584.62,456.47 581.66,453.69 578.47,450.75 577.53,449.94 573.44,446.47 571.75,445.12 569.31,443.28 565.19,440.16 564.28,439.5 561.09,437.41 556.97,434.94 555.25,433.97 552.88,432.53 548.75,429.97 546.03,428.44 544.62,427.72 540.53,425.91 536.41,424.53 532.28,423.81 528.19,423.41 524.06,423.31 519.94,423.5 515.84,424.03 511.72,424.88 507.59,426.06 503.5,427.62 501.97,428.44 499.38,429.97 495.25,432.94 494.06,433.97 491.16,437.06 488.94,439.5 487.03,441.75 483.84,445.12 482.91,446.12 478.81,450.38 478.41,450.75 474.69,454.53 472.72,456.47 470.56,458.84 467.5,462.19 466.47,463.41 462.44,468 462.34,468.12 458.25,472.81 457.28,473.84 454.12,477.34 451.72,479.75 450,481.47 445.91,485.31 445.47,485.69 441.78,488.91 438.38,491.69 437.66,492.28 433.56,495.56 430.62,497.75 429.44,498.66 425.31,501.44 421.28,503.88 421.22,503.91 417.09,505.91 412.97,507.62 408.88,509.03 405.28,510.06 404.75,510.19 400.62,511.06 396.53,511.72 392.41,512.19 388.31,512.5 384.19,512.75 380.06,512.88 375.97,512.88 371.84,512.78 367.72,512.53 363.62,512.19 359.5,511.78 355.38,511.28 351.28,510.66 348.28,510.16 " stroke="red" stroke-width="0.96875" stroke-linecap="round" stroke-linejoin="round" />
<polyline points="321.34,503.78 318.34,502.88 314.25,501.59 310.12,500.34 306.03,499.12 301.91,498.06 300.66,497.75 297.78,497.03 293.69,496.06 289.56,495.19 285.44,494.47 281.34,493.84 277.22,493.25 273.09,492.69 269,492.06 266.31,491.69 264.88,491.47 260.75,490.84 256.66,490.28 252.53,489.69 248.41,489.12 244.31,488.62 240.19,488.12 236.06,487.69 231.97,487.28 227.84,486.88 223.72,486.5 219.62,486.09 215.5,485.75 214.53,485.69 211.41,485.44 207.28,485.22 203.16,485.19 199.06,485.25 194.94,485.38 190.81,485.56 188.94,485.69 186.72,485.81 182.59,486.03 178.47,486.19 174.38,486.28 170.25,486.06 166.12,485.78 164.62,485.69 162.03,485.5 157.91,485.28 153.78,485.59 153,485.69 149.69,486 145.56,486.41 141.44,486.72 137.34,486.59 133.22,486.28 129.12,485.88 127.72,485.69 125,485.31 120.88,484.56 116.78,483.75 112.66,482.84 108.53,481.97 104.44,481.44 100.31,480.94 96.188,480.38 92.094,479.75 92,479.75 87.969,478.72 83.844,477.66 79.75,476.56 75.625,475.53 71.5,474.75 67.406,474 66.625,473.84 63.281,473.22 59.188,472.41 55.062,471.38 50.938,470.34 46.844,469.34 42.719,468.44 40.281,468 38.594,467.69 34.5,467.03 30.375,466.44 26.25,465.88 22.156,465.41 18.031,464.97 " stroke="red" stroke-width="0.96875" stroke-linecap="round" stroke-linejoin="round" />
<polyline points="324.31,505.56 325.19,504.69 326.94,504.69 327.81,505.56 327.81,507.31 326.94,508.19 324.31,508.19 324.31,509.94 327.81,509.94 " stroke="red" stroke-width="0.71875" stroke-linecap="round" stroke-linejoin="round" />
<polyline points="330.44,505.56 331.31,504.69 333.06,504.69 333.94,505.56 333.94,507.31 333.06,508.19 330.44,508.19 330.44,509.94 333.94,509.94 " stroke="red" stroke-width="0.71875" stroke-linecap="round" stroke-linejoin="round" />
<polyline points="336.56,509.06 337.44,509.94 339.19,509.94 340.06,509.06 340.06,508.19 336.56,504.69 340.06,504.69 " stroke="red" stroke-width="0.71875" stroke-linecap="round" stroke-linejoin="round" />
<polygon points="343.56,509.94 342.69,509.06 342.69,505.56 343.56,504.69 345.31,504.69 346.19,505.56 346.19,509.06 345.31,509.94 " stroke="red" stroke-width="0.71875" stroke-linejoin="round" />
<polyline points="594,441.09 591.72,439.5 589.88,438.28 585.78,435.5 583.41,433.97 581.66,432.91 577.53,430.53 573.62,428.44 573.44,428.34 569.31,426.16 565.19,423.97 563.25,422.97 561.09,421.88 556.97,419.88 552.88,418.06 551.59,417.53 548.75,416.38 544.62,415.03 540.53,414 536.41,413.22 532.28,412.62 528.19,412.22 526.69,412.16 524.06,411.97 519.94,411.94 517.69,412.16 515.84,412.31 511.72,412.84 507.59,413.62 503.5,414.66 499.38,416 495.62,417.53 495.25,417.69 491.16,419.78 487.03,422.34 486.06,422.97 482.91,425.16 478.81,428.41 478.75,428.44 474.69,432 472.56,433.97 470.56,435.66 466.47,438.88 465.59,439.5 462.34,441.94 458.25,444.94 458,445.12 454.12,447.91 450.09,450.75 450,450.84 445.91,453.75 442.06,456.47 441.78,456.69 437.66,459.66 434.16,462.19 433.56,462.66 429.44,465.47 425.53,468 425.31,468.12 421.22,470.53 417.09,472.56 414.22,473.84 412.97,474.38 408.88,475.97 404.75,477.34 400.62,478.62 396.53,479.72 396.47,479.75 392.41,480.62 388.31,481.34 384.19,481.78 380.06,482.06 375.97,482.25 371.84,482.38 367.72,482.59 363.62,482.75 359.5,482.78 355.38,482.66 351.28,482.31 350.22,482.19 " stroke="red" stroke-width="0.96875" stroke-linecap="round" stroke-linejoin="round" />
<polyline points="323.28,475.78 322.47,475.53 318.34,474.31 316.72,473.84 314.25,473.12 310.12,471.94 306.03,470.75 301.91,469.59 297.78,468.41 296.22,468 293.69,467.31 289.56,466.25 285.44,465.44 281.34,464.69 277.22,464.03 273.09,463.44 269,462.81 264.88,462.28 264.06,462.19 260.75,461.88 256.66,461.59 252.53,461.66 248.41,461.84 244.31,462.06 242.03,462.19 240.19,462.28 236.06,462.28 231.97,462.25 228.25,462.19 227.84,462.19 223.72,462.12 211.41,462.12 207.28,462.09 203.16,461.97 199.06,461.88 194.94,461.75 190.81,461.69 186.72,461.75 182.59,461.84 178.47,461.97 174.38,462.06 170.25,462.09 166.12,462.06 162.03,461.97 157.91,461.81 153.78,461.47 149.69,461.03 145.56,460.56 141.44,460 137.34,459.62 133.22,459.28 129.12,458.94 125,458.66 120.88,458.38 116.78,458.09 112.66,457.88 108.53,457.66 104.44,457.47 100.31,457.28 96.188,457.03 92.094,456.75 89.125,456.47 87.969,456.34 83.844,455.88 79.75,455.38 75.625,454.84 71.5,454.31 67.406,453.81 63.281,453.28 59.188,452.78 55.062,452.28 50.938,451.78 46.844,451.31 42.719,450.88 41.531,450.75 38.594,450.47 34.5,450.09 30.375,449.72 26.25,449.41 22.156,449.16 18.031,448.91 " stroke="red" stroke-width="0.96875" stroke-linecap="round" stroke-linejoin="round" />
<polyline points="326.25,478 327.12,477.12 328.88,477.12 329.75,478 329.75,479.75 328.88,480.62 326.25,480.62 326.25,482.38 329.75,482.38 " stroke="red" stroke-width="0.71875" stroke-linecap="round" stroke-linejoin="round" />
<polyline points="332.38,478 333.25,477.12 335,477.12 335.88,478 335.88,479.75 335,480.62 332.38,480.62 332.38,482.38 335.88,482.38 " stroke="red" stroke-width="0.71875" stroke-linecap="round" stroke-linejoin="round" />
<polygon points="339.38,482.38 338.5,481.5 338.5,480.62 339.38,479.75 341.12,479.75 342,480.62 342,481.5 341.12,482.38 " stroke="red" stroke-width="0.71875" stroke-linejoin="round" />
<polyline points="339.38,479.75 338.5,478.88 338.5,478 339.38,477.12 341.12,477.12 342,478 342,478.88 341.12,479.75 " stroke="red" stroke-width="0.71875" stroke-linecap="round" stroke-linejoin="round" />
<polygon points="345.5,482.38 344.62,481.5 344.62,478 345.5,477.12 347.25,477.12 348.12,478 348.12,481.5 347.25,482.38 " stroke="red" stroke-width="0.71875" stroke-linejoin="round" />
<polyline points="594,416 589.88,414.25 585.78,412.62 584.5,412.16 581.66,410.97 577.53,409.38 573.44,407.84 570.44,406.78 569.31,406.41 565.19,404.81 561.09,403.44 556.97,402.22 554.16,401.47 552.88,401.12 548.75,400.09 544.62,399.22 540.53,398.44 536.41,397.78 532.28,397.31 528.19,397 524.06,396.81 519.94,396.72 515.84,396.78 511.72,396.97 507.59,397.31 503.5,397.81 499.38,398.56 495.25,399.5 491.16,400.69 488.72,401.47 487.03,402.03 482.91,403.47 478.81,405.12 475.12,406.78 474.69,407 470.56,409 466.47,411.41 465.22,412.16 462.34,414 458.25,416.69 456.88,417.53 454.12,419.25 450,421.41 446.97,422.97 445.91,423.5 441.78,425.47 437.66,427.44 435.81,428.44 433.56,429.62 429.44,431.78 425.31,433.88 425.16,433.97 421.22,435.81 417.09,437.56 412.97,439.22 412.19,439.5 408.88,440.69 404.75,441.97 400.62,443.22 396.53,444.34 393.31,445.12 392.41,445.31 388.31,446.06 384.19,446.56 380.06,446.94 375.97,447.22 371.84,447.38 367.72,447.62 363.62,447.81 359.5,447.88 355.38,447.88 351.28,447.72 347.16,447.47 344.19,447.25 " stroke="red" stroke-width="0.96875" stroke-linecap="round" stroke-linejoin="round" />
<polyline points="317.22,444.31 314.25,443.81 310.12,443.06 306.03,442.31 301.91,441.53 297.78,440.78 293.69,440.09 290.16,439.5 289.56,439.41 285.44,438.78 281.34,438.16 277.22,437.56 273.09,437 269,436.5 264.88,436.03 260.75,435.53 256.66,434.97 252.53,434.09 251.91,433.97 248.41,433.12 244.31,432.28 240.19,431.66 236.06,431.91 231.97,432.31 227.84,432.72 223.72,433.03 219.62,432.56 215.5,431.94 211.41,431.25 207.28,430.56 203.16,431.03 199.06,431.69 194.94,432.41 190.81,432.97 186.72,432.56 182.59,432.03 178.47,431.47 174.38,430.94 170.25,430.94 166.12,431.06 162.03,431.22 157.91,431.41 153.78,431.28 149.69,431.06 145.56,430.81 141.44,430.5 137.34,430.09 133.22,429.69 129.12,429.31 125,429 120.88,428.88 116.78,428.81 112.66,428.78 108.53,428.78 104.44,428.69 100.31,428.59 96.188,428.56 92.094,428.59 87.969,428.88 83.844,429.19 79.75,429.5 75.625,429.81 71.5,430.03 67.406,430.28 63.281,430.5 59.188,430.69 55.062,430.84 50.938,431 46.844,431.06 42.719,431.12 38.594,431.09 34.5,431.06 30.375,431 26.25,430.97 22.156,431 18.031,431.03 " stroke="red" stroke-width="0.96875" stroke-linecap="round" stroke-linejoin="round" />
<polyline points="320.19,444.41 321.06,443.53 322.81,443.53 323.69,444.41 323.69,446.16 322.81,447.03 320.19,447.03 320.19,448.78 323.69,448.78 " stroke="red" stroke-width="0.71875" stroke-linecap="round" stroke-linejoin="round" />
<polyline points="329.81,447.91 328.94,448.78 327.19,448.78 326.31,447.91 326.31,444.41 327.19,443.53 328.94,443.53 329.81,444.41 329.81,445.28 328.94,446.16 326.31,446.16 " stroke="red" stroke-width="0.71875" stroke-linecap="round" stroke-linejoin="round" />
<polyline points="334.19,448.78 332.44,446.16 335.94,446.16 335.94,448.78 335.94,443.53 " stroke="red" stroke-width="0.71875" stroke-linecap="round" stroke-linejoin="round" />
<polygon points="339.44,448.78 338.56,447.91 338.56,444.41 339.44,443.53 341.19,443.53 342.06,444.41 342.06,447.91 341.19,448.78 " stroke="red" stroke-width="0.71875" stroke-linejoin="round" />
<polyline points="594,378.38 589.88,378.06 585.78,377.75 581.66,377.44 577.53,377.12 573.44,376.81 569.31,376.53 565.19,376.41 561.09,376.25 556.97,376.03 552.88,375.81 550.16,375.47 548.75,375.28 544.62,374.69 540.53,374.16 536.41,373.69 532.28,373.56 528.19,373.47 524.06,373.41 519.94,373.31 515.84,372.84 511.72,372.41 507.59,372 503.5,371.72 499.38,371.88 495.25,372.22 491.16,372.72 487.03,373.31 482.91,374.06 478.81,374.84 475.75,375.47 474.69,375.66 470.56,376.44 466.47,377 462.34,377.53 458.25,378 454.12,378.41 450,378.66 445.91,378.88 441.78,378.97 437.66,379.03 433.56,379.03 429.44,379 425.31,378.94 421.22,378.88 417.09,378.78 412.97,378.66 408.88,378.56 404.75,378.47 400.62,378.38 396.53,378.34 392.41,378.47 388.31,378.81 384.19,379.25 380.06,380 377.81,380.59 375.97,381.09 371.84,382.59 367.72,385.28 367.09,385.78 363.62,388.53 360.81,390.97 359.5,392.22 355.38,395.91 355,396.22 351.28,398.69 347.16,400.91 345.91,401.47 343.03,402.62 338.94,403.94 334.81,404.72 330.69,405.28 326.59,405.72 323.59,405.91 " stroke="red" stroke-width="0.96875" stroke-linecap="round" stroke-linejoin="round" />
<polyline points="296.66,405.91 293.69,405.69 289.56,405.41 285.44,405.28 281.34,405.16 277.22,405.06 273.09,404.97 269,404.81 264.88,404.66 260.75,404.47 256.66,404.25 252.53,403.88 248.41,403.53 244.31,403.31 240.19,403.22 236.06,403.84 231.97,404.59 227.84,405.28 223.72,405.56 219.62,403.66 215.5,401.69 215.03,401.47 211.41,400.03 207.28,398.75 203.16,398.38 199.06,398.19 194.94,398.16 190.81,398.22 186.72,398.44 182.59,398.62 178.47,398.72 174.38,398.62 170.25,397.88 166.12,396.97 162.59,396.22 162.03,396.09 157.91,395.31 153.78,395.06 149.69,394.91 145.56,394.84 141.44,394.75 137.34,394.53 133.22,394.22 129.12,393.81 125,393.25 120.88,391.97 118.03,390.97 116.78,390.59 112.66,389.47 108.53,388.62 104.44,389.03 100.31,389.88 96.438,390.97 96.188,391.03 92.094,392.34 87.969,393.28 83.844,394.28 79.75,395.34 76.656,396.22 75.625,396.5 71.5,397.38 67.406,398.16 63.281,398.84 59.188,399.47 55.062,400.28 50.938,401.16 49.469,401.47 46.844,402.03 42.719,402.91 38.594,403.72 34.5,404.53 30.375,405.34 26.25,406.12 22.75,406.78 22.156,406.91 18.031,407.56 " stroke="red" stroke-width="0.96875" stroke-linecap="round" stroke-linejoin="round" />
<polyline points="299.62,404.78 300.5,403.91 302.25,403.91 303.12,404.78 303.12,406.53 302.25,407.41 299.62,407.41 299.62,409.16 303.12,409.16 " stroke="red" stroke-width="0.71875" stroke-linecap="round" stroke-linejoin="round" />
<polyline points="305.75,409.16 309.25,409.16 307.5,403.91 " stroke="red" stroke-width="0.71875" stroke-linecap="round" stroke-linejoin="round" />
<polygon points="312.75,409.16 311.88,408.28 311.88,404.78 312.75,403.91 314.5,403.91 315.38,404.78 315.38,408.28 314.5,409.16 " stroke="red" stroke-width="0.71875" stroke-linejoin="round" />
<polygon points="318.88,409.16 318,408.28 318,404.78 318.88,403.91 320.62,403.91 321.5,404.78 321.5,408.28 320.62,409.16 " stroke="red" stroke-width="0.71875" stroke-linejoin="round" />
<polyline points="594,324.88 590.66,325.81 589.88,326 585.78,326.81 581.66,327.75 577.53,328.5 573.44,329.12 569.31,329.56 565.19,329.97 561.09,330.16 556.97,330.19 552.88,330.06 548.75,329.69 544.62,329.28 540.53,328.84 536.41,328.5 532.28,328.34 528.19,328.25 524.06,328.19 519.94,328.16 515.84,328.19 511.72,328.19 507.59,328.12 503.5,327.94 499.38,327.5 495.25,326.88 491.16,326.06 490.03,325.81 487.03,325.03 482.91,323.81 478.81,322.41 475.25,321 474.69,320.75 470.56,318.62 467.5,316.22 466.47,315.28 462.88,311.44 462.34,310.78 459.34,306.72 458.25,305.25 455.66,302 454.12,300.25 450,297.31 449.97,297.31 445.91,295.12 441.78,293.12 440.84,292.62 437.66,290.66 434.78,287.97 433.56,286.91 429.59,283.34 429.44,283.22 425.31,279.97 423.75,278.75 421.22,277.03 417.44,274.16 417.09,273.94 412.97,271.59 408.88,269.69 408.66,269.59 404.75,268.28 400.62,267.16 396.53,266.5 392.41,266.31 388.31,266.56 384.19,267.88 380.41,269.59 380.06,269.75 375.97,272.38 373.66,274.16 371.84,276.16 369.5,278.75 367.72,281.09 366.09,283.34 363.62,287.31 363.19,287.97 360.62,292.62 359.5,295.09 358.38,297.31 356.06,302 355.38,303.38 353.25,306.72 351.28,309.59 349.81,311.44 347.16,314.69 345.78,316.22 343.03,319.22 341.28,321 341.22,321.09 " stroke="red" stroke-width="0.96875" stroke-linecap="round" stroke-linejoin="round" />
<polyline points="330.53,330.53 330.38,330.66 326.59,333.19 322.59,335.5 322.47,335.59 318.34,337.16 314.25,338.44 310.12,339.53 306.56,340.41 306.03,340.53 301.91,341.28 297.78,342.16 293.69,343.34 289.56,344.91 288.97,345.31 285.44,347.62 281.53,350.28 281.34,350.41 277.22,353.03 273.56,355.25 273.09,355.5 269,357.88 264.88,360.09 264.53,360.25 260.75,362.03 256.66,363.75 252.53,365.03 251.53,365.28 248.41,366.09 244.31,367.06 240.19,367.94 236.06,368.88 231.97,369.69 227.84,370.34 227.81,370.38 223.72,370.78 219.62,370.88 215.5,370.84 211.41,370.72 207.28,370.5 205.78,370.38 203.16,370.09 199.06,369.66 194.94,369.25 190.81,368.91 186.72,368.81 182.59,368.75 178.47,368.75 174.38,368.69 170.25,368.53 166.12,368.34 162.03,368.09 157.91,367.78 153.78,367.44 149.69,367.06 145.56,366.69 141.44,366.31 137.34,366.03 133.22,365.75 129.12,365.38 128.25,365.28 125,364.94 120.88,364.09 116.78,363.22 112.66,362.41 108.53,361.62 104.44,361.16 100.31,360.81 96.188,360.53 92.094,360.34 87.969,360.25 83.844,360.25 79.75,360.34 75.625,360.47 71.5,360.62 67.406,360.81 63.281,361.06 59.188,361.38 55.062,361.78 50.938,362.25 46.844,362.81 42.719,363.44 38.594,364.12 34.5,364.91 32.5,365.28 30.375,365.75 26.25,366.69 22.156,367.62 18.031,368.69 " stroke="red" stroke-width="0.96875" stroke-linecap="round" stroke-linejoin="round" />
<polyline points="325.78,324.06 326.66,323.19 328.41,323.19 329.28,324.06 329.28,325.81 328.41,326.69 325.78,326.69 325.78,328.44 329.28,328.44 " stroke="red" stroke-width="0.71875" stroke-linecap="round" stroke-linejoin="round" />
<polyline points="331.91,328.44 335.41,328.44 333.66,323.19 " stroke="red" stroke-width="0.71875" stroke-linecap="round" stroke-linejoin="round" />
<polyline points="341.53,327.56 340.66,328.44 338.91,328.44 338.03,327.56 338.03,324.06 338.91,323.19 340.66,323.19 341.53,324.06 341.53,324.94 340.66,325.81 338.03,325.81 " stroke="red" stroke-width="0.71875" stroke-linecap="round" stroke-linejoin="round" />
<polygon points="345.03,328.44 344.16,327.56 344.16,324.06 345.03,323.19 346.78,323.19 347.66,324.06 347.66,327.56 346.78,328.44 " stroke="red" stroke-width="0.71875" stroke-linejoin="round" />
<polyline points="340.75,247 340.72,247.03 338.94,248.28 335.16,251.5 334.81,251.78 330.69,255.12 329.62,256 326.59,258.19 323.22,260.5 322.47,261 318.34,263.62 316.16,265.03 314.25,266.22 310.12,268.81 308.94,269.59 306.03,271.44 302.06,274.16 301.91,274.28 297.78,277.16 295.56,278.75 293.69,280.06 289.56,283.09 289.22,283.34 285.44,286.31 283.47,287.97 281.34,289.75 278.12,292.62 277.22,293.44 273.09,297.19 272.97,297.31 269,301.03 268,302 264.88,304.88 262.88,306.72 260.75,308.59 257.41,311.44 256.66,312.12 252.53,315.25 251.19,316.22 248.41,318.09 244.31,320.75 243.88,321 240.19,323.06 236.06,325.44 235.44,325.81 232.75,327.19 " stroke="red" stroke-width="0.96875" stroke-linecap="round" stroke-linejoin="round" />
<polyline points="206.16,333.03 203.16,333.22 199.06,333.47 194.94,333.72 190.81,334.03 186.72,334.56 182.59,335.16 180.16,335.5 178.47,335.72 174.38,336.25 170.25,336.53 166.12,336.75 162.03,336.91 157.91,337.03 153.78,337.28 149.69,337.47 145.56,337.62 141.44,337.69 137.34,337.56 133.22,337.34 129.12,337.06 125,336.72 120.88,336.34 116.78,336 112.66,335.66 110.5,335.5 108.53,335.38 104.44,335.09 100.31,334.84 96.188,334.62 92.094,334.41 87.969,334.16 83.844,333.94 79.75,333.72 75.625,333.56 71.5,333.5 67.406,333.5 63.281,333.59 59.188,333.69 55.062,333.88 50.938,334.09 46.844,334.34 42.719,334.59 38.594,334.88 34.5,335.16 30.375,335.47 29.906,335.5 26.25,335.78 22.156,336 18.031,336.31 " stroke="red" stroke-width="0.96875" stroke-linecap="round" stroke-linejoin="round" />
<polyline points="209.12,330.19 210,329.31 211.75,329.31 212.62,330.19 212.62,331.94 211.75,332.81 209.12,332.81 209.12,334.56 212.62,334.56 " stroke="red" stroke-width="0.71875" stroke-linecap="round" stroke-linejoin="round" />
<polygon points="216.12,334.56 215.25,333.69 215.25,332.81 216.12,331.94 217.88,331.94 218.75,332.81 218.75,333.69 217.88,334.56 " stroke="red" stroke-width="0.71875" stroke-linejoin="round" />
<polyline points="216.12,331.94 215.25,331.06 215.25,330.19 216.12,329.31 217.88,329.31 218.75,330.19 218.75,331.06 217.88,331.94 " stroke="red" stroke-width="0.71875" stroke-linecap="round" stroke-linejoin="round" />
<polyline points="221.38,333.69 222.25,334.56 224,334.56 224.88,333.69 224.88,332.81 221.38,329.31 224.88,329.31 " stroke="red" stroke-width="0.71875" stroke-linecap="round" stroke-linejoin="round" />
<polygon points="228.38,334.56 227.5,333.69 227.5,330.19 228.38,329.31 230.12,329.31 231,330.19 231,333.69 230.12,334.56 " stroke="red" stroke-width="0.71875" stroke-linejoin="round" />
<polyline points="57.844,247 57.875,247.03 59.156,251.5 59.188,251.59 59.438,256 59.188,258.75 58.938,260.5 57.094,265.03 55.969,266.47 " stroke="red" stroke-width="0.96875" stroke-linecap="round" stroke-linejoin="round" />
<polyline points="42.938,275.94 42.719,276.06 38.594,277.97 36.969,278.75 34.5,279.69 30.375,281.31 26.25,283.06 22.344,283.34 22.156,283.38 18.031,284.19 " stroke="red" stroke-width="0.96875" stroke-linecap="round" stroke-linejoin="round" />
<polyline points="40.438,269.47 41.312,268.59 43.062,268.59 43.938,269.47 43.938,271.22 43.062,272.09 40.438,272.09 40.438,273.84 43.938,273.84 " stroke="red" stroke-width="0.71875" stroke-linecap="round" stroke-linejoin="round" />
<polygon points="47.438,273.84 46.562,272.97 46.562,272.09 47.438,271.22 49.188,271.22 50.062,272.09 50.062,272.97 49.188,273.84 " stroke="red" stroke-width="0.71875" stroke-linejoin="round" />
<polyline points="47.438,271.22 46.562,270.34 46.562,269.47 47.438,268.59 49.188,268.59 50.062,269.47 50.062,270.34 49.188,271.22 " stroke="red" stroke-width="0.71875" stroke-linecap="round" stroke-linejoin="round" />
<polygon points="53.562,273.84 52.688,272.97 52.688,272.09 53.562,271.22 55.312,271.22 56.188,272.09 56.188,272.97 55.312,273.84 " stroke="red" stroke-width="0.71875" stroke-linejoin="round" />
<polyline points="53.562,271.22 52.688,270.34 52.688,269.47 53.562,268.59 55.312,268.59 56.188,269.47 56.188,270.34 55.312,271.22 " stroke="red" stroke-width="0.71875" stroke-linecap="round" stroke-linejoin="round" />
<polygon points="59.688,273.84 58.812,272.97 58.812,269.47 59.688,268.59 61.438,268.59 62.312,269.47 62.312,272.97 61.438,273.84 " stroke="red" stroke-width="0.71875" stroke-linejoin="round" />
<polyline points="125,275.94 129.12,278.72 129.16,278.75 133.22,280.25 137.34,281.28 141.44,281.81 145.56,281.34 149.69,280.38 153.78,278.94 154.22,278.75 157.91,276.47 161.91,274.16 162.03,274.06 166.12,271.28 169,269.59 170.25,268.72 174.38,266.03 175.75,265.03 178.47,262.41 180.31,260.5 182.59,256.88 183.12,256 184.09,251.5 183.31,247.28 " stroke="red" stroke-width="0.96875" stroke-linecap="round" stroke-linejoin="round" />
<polyline points="131.75,247 131.66,247.03 129.12,248.12 125,250.38 123.66,251.5 120.88,255.38 120.5,256 118.47,260.5 117.75,265.03 118.72,269.59 120.88,272.59 122.16,274.16 125,275.94 " stroke="red" stroke-width="0.96875" stroke-linecap="round" stroke-linejoin="round" />
</g>
</svg>
