<?xml version="1.0" encoding="ISO-8859-1" standalone="no"?>
<!DOCTYPE svg PUBLIC "-//W3C//DTD SVG 1.1//EN" "http://www.w3.org/Graphics/SVG/1.1/DTD/svg11.dtd">
<svg version="1.1" baseProfile="full" id="body" width="900px" height="600px" viewBox="0 0.2 1 0.55" preserveAspectRatio="none" xmlns="http://www.w3.org/2000/svg" xmlns:xlink="http://www.w3.org/1999/xlink" xmlns:ev="http://www.w3.org/2001/xml-events">
<title>SVG drawing</title>
<desc>This was produced by version 4.2 of GNU libplot, a free library for exporting 2-D vector graphics.</desc>
<rect id="background" x="0" y="0" width="1" height="1" stroke="none" fill="none"/>
<g id="content" transform="translate(-0.03125,1.1875) scale(1,-1) scale(0.0017361) " xml:space="preserve" stroke="black" stroke-linecap="butt" stroke-linejoin="miter" stroke-miterlimit="10.433" stroke-dasharray="none" stroke-dashoffset="0" stroke-opacity="1" fill="none" fill-rule="even-odd" fill-opacity="1" font-style="normal" font-variant="normal" font-weight="normal" font-stretch="normal" font-size-adjust="none" letter-spacing="normal" word-spacing="normal" text-anchor="start">
<line x1="19.406" y1="568.62" x2="18.031" y2="567.53" stroke="red" stroke-width="0.96875" stroke-linecap="round" />
<polyline points="75.75,568.66 75.688,568.62 75.625,568.59 71.5,567.09 67.406,565.56 63.281,563.91 62.188,563.38 " stroke="red" stroke-width="0.96875" stroke-linecap="round" stroke-linejoin="round" />
<polyline points="49.094,553.91 46.844,552.34 42.719,549.81 39.094,548.47 38.594,548.28 34.5,546.78 30.375,545 26.25,542.75 24.906,541.91 22.156,540.16 18.031,536.91 " stroke="red" stroke-width="0.96875" stroke-linecap="round" stroke-linejoin="round" />
<polyline points="44.562,556.91 45.438,556.03 47.188,556.03 48.062,556.91 48.062,558.66 47.188,559.53 44.562,559.53 44.562,561.28 48.062,561.28 " stroke="red" stroke-width="0.71875" stroke-linecap="round" stroke-linejoin="round" />
<polyline points="50.688,560.41 51.562,561.28 53.312,561.28 54.188,560.41 54.188,559.53 53.312,558.66 52.438,558.66 53.312,558.66 54.188,557.78 54.188,556.91 53.312,556.03 51.562,556.03 50.688,556.91 " stroke="red" stroke-width="0.71875" stroke-linecap="round" stroke-linejoin="round" />
<polyline points="58.562,561.28 56.812,558.66 60.312,558.66 60.312,561.28 60.312,556.03 " stroke="red" stroke-width="0.71875" stroke-linecap="round" stroke-linejoin="round" />
<polygon points="63.812,561.28 62.938,560.41 62.938,556.91 63.812,556.03 65.562,556.03 66.438,556.91 66.438,560.41 65.562,561.28 " stroke="red" stroke-width="0.71875" stroke-linejoin="round" />
<polyline points="208.72,568.66 208.72,568.62 210.75,561.84 211.41,560.38 213.47,555.12 215.5,551.53 217.19,548.47 219.62,545.03 221.91,541.91 223.72,539.91 227.84,535.72 228.19,535.38 231.97,532.5 234.31,530.84 " stroke="red" stroke-width="0.96875" stroke-linecap="round" stroke-linejoin="round" />
<polyline points="257.78,524.22 260.75,524.12 264.88,524.53 269,525.69 273.09,527.84 274.09,528.97 277.22,534.34 277.72,535.38 280.16,541.91 281.34,545.94 282.06,548.47 283.62,555.12 285.19,561.84 285.44,563.12 286.62,568.62 286.62,568.66 " stroke="red" stroke-width="0.96875" stroke-linecap="round" stroke-linejoin="round" />
<polyline points="233.81,524.38 234.69,523.5 236.44,523.5 237.31,524.38 237.31,526.12 236.44,527 233.81,527 233.81,528.75 237.31,528.75 " stroke="red" stroke-width="0.71875" stroke-linecap="round" stroke-linejoin="round" />
<polyline points="239.94,527.88 240.81,528.75 242.56,528.75 243.44,527.88 243.44,527 242.56,526.12 241.69,526.12 242.56,526.12 243.44,525.25 243.44,524.38 242.56,523.5 240.81,523.5 239.94,524.38 " stroke="red" stroke-width="0.71875" stroke-linecap="round" stroke-linejoin="round" />
<polyline points="247.81,528.75 246.06,526.12 249.56,526.12 249.56,528.75 249.56,523.5 " stroke="red" stroke-width="0.71875" stroke-linecap="round" stroke-linejoin="round" />
<polygon points="253.06,528.75 252.19,527.88 252.19,524.38 253.06,523.5 254.81,523.5 255.69,524.38 255.69,527.88 254.81,528.75 " stroke="red" stroke-width="0.71875" stroke-linejoin="round" />
<polyline points="328.06,568.66 328.03,568.62 326.59,567.28 322.47,563 321.41,561.84 318.34,558.47 315.66,555.12 314.25,553.19 311.22,548.47 310.12,546.78 307.31,541.91 306.03,539.78 303.47,535.38 301.91,532.97 299.34,528.97 297.78,526.84 294.72,522.59 293.69,521.34 289.56,516.44 289.44,516.28 285.44,511.75 283.62,510.06 281.34,508.31 277.22,505.94 273.09,504.41 269,504.12 264.88,504.25 260.75,504.69 256.66,505.28 252.53,505.72 248.41,506.31 244.31,507.09 240.19,508.12 236.06,509.81 235.53,510.06 231.97,511.72 227.84,513.78 223.72,515.91 222.84,516.28 219.62,517.84 215.5,519.97 211.41,522.28 210.84,522.59 207.28,524.97 203.16,527.75 201.69,528.72 " stroke="red" stroke-width="0.96875" stroke-linecap="round" stroke-linejoin="round" />
<polyline points="185.84,538.16 182.59,539.44 178.47,540.88 175.25,541.91 174.38,542.22 170.25,544 166.12,545.56 162.03,546.84 157.91,547.78 153.78,548.06 149.69,548 145.56,547.62 141.44,546.91 137.34,546.06 133.22,545.06 129.12,544 125,542.91 121.56,541.91 120.88,541.72 116.78,540.62 112.66,539.53 108.53,538.53 104.44,538 100.31,537.56 96.188,537.16 92.094,536.72 87.969,535.81 86.062,535.38 83.844,534.94 79.75,534.09 75.625,533.31 71.5,533.12 67.406,532.94 63.281,532.59 59.188,532.06 55.062,530.91 50.938,529.59 49.156,528.97 46.844,528.03 42.719,526.12 38.594,523.94 36.281,522.59 34.5,521.53 30.375,518.94 26.25,516.31 26.25,516.28 22.156,514 18.031,511.44 " stroke="red" stroke-width="0.96875" stroke-linecap="round" stroke-linejoin="round" />
<polyline points="184.44,531.69 185.31,530.81 187.06,530.81 187.94,531.69 187.94,533.44 187.06,534.31 184.44,534.31 184.44,536.06 187.94,536.06 " stroke="red" stroke-width="0.71875" stroke-linecap="round" stroke-linejoin="round" />
<polyline points="192.31,536.06 190.56,533.44 194.06,533.44 194.06,536.06 194.06,530.81 " stroke="red" stroke-width="0.71875" stroke-linecap="round" stroke-linejoin="round" />
<polygon points="197.56,536.06 196.69,535.19 196.69,531.69 197.56,530.81 199.31,530.81 200.19,531.69 200.19,535.19 199.31,536.06 " stroke="red" stroke-width="0.71875" stroke-linejoin="round" />
<polygon points="203.69,536.06 202.81,535.19 202.81,531.69 203.69,530.81 205.44,530.81 206.31,531.69 206.31,535.19 205.44,536.06 " stroke="red" stroke-width="0.71875" stroke-linejoin="round" />
<polyline points="594,540.72 589.88,539.91 585.78,539.47 581.66,538.97 577.53,538.91 573.44,539.56 569.31,541.06 567.97,541.91 565.19,543.28 561.09,545.28 556.97,546.97 552.88,548.38 552.53,548.47 548.75,549.41 544.62,550.41 540.53,551.44 536.41,552.53 532.28,553.72 528.19,554.84 527.19,555.12 524.06,555.84 519.94,556.75 515.84,557.53 511.72,558.28 507.59,559 503.5,559.75 499.38,560.59 495.25,561.47 493.44,561.84 491.16,562.28 487.03,563.06 482.91,563.72 478.81,564.38 474.69,565.03 470.56,565.69 466.47,566.34 462.34,567 458.25,567.62 454.12,568.25 451.81,568.62 451.62,568.66 " stroke="red" stroke-width="0.96875" stroke-linecap="round" stroke-linejoin="round" />
<polyline points="394.81,568.66 394.72,568.62 392.41,567.91 388.31,566.5 384.19,565 380.06,563.31 376.81,561.84 375.97,561.44 371.84,559.47 367.72,557.25 364.09,555.12 363.62,554.88 359.5,552.59 355.38,550.16 352.53,548.47 351.28,547.72 347.16,545.12 343.03,542.19 342.69,541.91 338.94,538.91 335.34,535.38 334.81,534.88 330.69,530.44 329.44,528.97 326.59,525.91 323.62,522.59 322.47,521.34 318.34,516.69 318.03,516.28 316.72,514.78 " stroke="red" stroke-width="0.96875" stroke-linecap="round" stroke-linejoin="round" />
<polyline points="308.53,505.31 307.25,503.88 306.03,502.62 301.91,499 300.38,497.75 297.78,495.78 293.69,492.94 291.59,491.69 289.56,490.53 285.44,488.62 281.34,487.19 277.22,486.25 273.09,485.75 269,486 264.88,486.5 260.75,487.22 256.66,488 252.53,488.41 248.41,488.88 244.31,489.44 240.19,490.16 236.06,491.41 235.25,491.69 231.97,492.88 227.84,494.5 223.72,496.22 219.62,497.38 218.19,497.75 215.5,498.44 211.41,499.5 207.28,500.62 203.16,502.25 199.06,503.84 199,503.88 194.94,505.41 190.81,506.88 186.72,508 182.59,508.91 178.47,509.53 174.38,509.88 170.25,509.56 166.12,509.06 162.03,508.47 157.91,508 153.78,508.62 149.69,509.41 145.91,510.06 145.56,510.09 141.44,510.66 137.34,510.41 133.53,510.06 133.22,510.03 129.12,509.66 125,509.44 121.53,510.06 120.88,510.16 116.78,510.88 112.66,511.41 108.53,511.69 104.44,510.78 101.84,510.06 100.31,509.59 96.188,508.25 92.094,507 87.969,507.28 83.844,507.81 79.75,508.38 75.625,508.81 71.5,508.59 67.406,508.09 63.281,507.31 59.188,506.16 55.062,504.66 53.25,503.88 50.938,502.81 46.844,500.88 42.719,498.97 39.906,497.75 38.594,497.22 34.5,495.44 30.375,493.62 26.25,491.69 26.219,491.69 22.156,489.91 18.031,487.81 " stroke="red" stroke-width="0.96875" stroke-linecap="round" stroke-linejoin="round" />
<polyline points="302.16,508.31 303.03,507.44 304.78,507.44 305.66,508.31 305.66,510.06 304.78,510.94 302.16,510.94 302.16,512.69 305.66,512.69 " stroke="red" stroke-width="0.71875" stroke-linecap="round" stroke-linejoin="round" />
<polyline points="310.03,512.69 308.28,510.06 311.78,510.06 311.78,512.69 311.78,507.44 " stroke="red" stroke-width="0.71875" stroke-linecap="round" stroke-linejoin="round" />
<polyline points="317.91,511.81 317.03,512.69 315.28,512.69 314.41,511.81 314.41,508.31 315.28,507.44 317.03,507.44 317.91,508.31 317.91,509.19 317.03,510.06 314.41,510.06 " stroke="red" stroke-width="0.71875" stroke-linecap="round" stroke-linejoin="round" />
<polygon points="321.41,512.69 320.53,511.81 320.53,508.31 321.41,507.44 323.16,507.44 324.03,508.31 324.03,511.81 323.16,512.69 " stroke="red" stroke-width="0.71875" stroke-linejoin="round" />
<polyline points="594,503.97 593.84,503.88 589.88,499.94 587.34,497.75 585.78,496.44 581.66,492.31 581.03,491.69 577.53,488.28 574.72,485.69 573.44,484.53 569.31,481.41 566.69,479.75 565.19,479.03 561.09,477.78 556.97,477.41 552.88,477.97 550.16,479.75 548.75,481.09 545.28,485.69 544.62,486.72 541.94,491.69 540.53,494.59 539.03,497.75 536.41,503.12 536,503.88 532.44,510.06 532.28,510.31 528.19,516.12 528.06,516.28 524.06,520.78 522.25,522.59 519.94,524.53 515.84,527.44 513.38,528.97 511.72,529.81 507.59,531.69 503.5,533.31 499.38,534.62 496.81,535.38 495.25,535.81 491.16,536.88 487.03,537.88 482.91,538.88 478.81,539.84 474.69,540.75 470.56,541.59 469.16,541.91 466.47,542.44 462.34,543.19 458.25,543.91 454.12,544.53 450,545 445.91,545.38 441.78,545.75 437.66,546.06 433.56,546.53 429.44,546.97 425.31,547.25 421.22,547.34 417.09,546.97 412.97,546.38 408.88,545.56 404.75,544.56 400.62,543.44 396.53,542.22 395.53,541.91 392.41,540.91 388.31,539.5 384.19,538.03 380.06,536.44 377.56,535.38 375.97,534.69 371.84,532.78 367.72,530.66 364.62,528.97 363.62,528.34 359.5,525.78 355.38,523.19 354.5,522.59 351.28,520.38 347.16,517.31 345.84,516.28 343.03,514 338.94,510.47 338.5,510.06 334.81,506.66 331.84,503.88 331.53,503.53 " stroke="red" stroke-width="0.96875" stroke-linecap="round" stroke-linejoin="round" />
<polyline points="321.62,494.09 319.19,491.69 318.34,490.91 314.25,487.06 312.69,485.69 310.12,483.5 306.03,480.28 305.25,479.75 301.91,477.41 297.78,474.84 296,473.84 293.69,472.56 289.56,470.56 285.44,468.97 282.31,468 281.34,467.69 277.22,466.66 273.09,466 269,466.03 264.88,466.47 260.75,467.22 257.47,468 256.66,468.19 252.53,469.06 248.41,469.94 244.31,470.69 240.19,471.38 236.06,471.78 231.97,472.22 227.84,472.69 223.72,473.25 219.97,473.84 219.62,473.88 215.5,474.59 211.41,475.38 207.28,476.28 203.16,477.81 199.06,479.56 198.66,479.75 194.94,481.22 190.81,482.72 186.72,483.47 182.59,483.97 178.47,484.25 174.38,484.31 170.25,484.06 166.12,483.78 162.03,483.5 157.91,483.34 153.78,483.59 149.69,484 145.56,484.56 141.44,485.25 139.12,485.69 137.34,486 133.22,486.66 129.12,487.22 125,487.66 120.88,488.03 116.78,488.28 112.66,488.41 108.53,488.31 104.44,487.69 100.31,487 96.188,486.34 92.094,485.75 91.094,485.69 87.969,485.44 83.844,485.09 79.75,484.59 75.625,483.88 71.5,482.59 67.406,481.09 63.938,479.75 63.281,479.5 59.188,478.03 55.062,476.94 50.938,475.91 46.844,474.88 42.781,473.84 42.719,473.81 38.594,472.53 34.5,471.16 30.375,469.62 26.375,468 26.25,467.94 22.156,466.41 18.031,464.59 " stroke="red" stroke-width="0.96875" stroke-linecap="round" stroke-linejoin="round" />
<polyline points="316.09,497.06 316.97,496.19 318.72,496.19 319.59,497.06 319.59,498.81 318.72,499.69 316.09,499.69 316.09,501.44 319.59,501.44 " stroke="red" stroke-width="0.71875" stroke-linecap="round" stroke-linejoin="round" />
<polyline points="322.22,497.06 323.09,496.19 324.84,496.19 325.72,497.06 325.72,498.81 324.84,499.69 322.22,499.69 322.22,501.44 325.72,501.44 " stroke="red" stroke-width="0.71875" stroke-linecap="round" stroke-linejoin="round" />
<polyline points="328.34,500.56 329.22,501.44 330.97,501.44 331.84,500.56 331.84,499.69 328.34,496.19 331.84,496.19 " stroke="red" stroke-width="0.71875" stroke-linecap="round" stroke-linejoin="round" />
<polygon points="335.34,501.44 334.47,500.56 334.47,497.06 335.34,496.19 337.09,496.19 337.97,497.06 337.97,500.56 337.09,501.44 " stroke="red" stroke-width="0.71875" stroke-linejoin="round" />
<polyline points="594,466.66 589.88,463.59 587.75,462.19 585.78,460.97 581.66,457.97 579.31,456.47 577.53,455.22 573.44,452.62 569.78,450.75 569.31,450.53 565.19,449.34 561.09,448.78 556.97,448.81 552.88,449.41 548.84,450.75 548.75,450.81 544.62,452.78 540.53,455.31 538.94,456.47 536.41,458.41 532.28,462 532.09,462.19 528.19,466.59 527.06,468 524.06,472.22 522.97,473.84 519.94,478.69 519.28,479.75 515.84,484.84 515.22,485.69 511.72,490.09 510.28,491.69 507.59,494.47 503.97,497.75 503.5,498.16 499.38,501.34 495.75,503.88 495.25,504.19 491.16,506.59 487.03,508.56 482.91,510 482.72,510.06 478.81,511.16 474.69,512.22 470.56,513.22 466.47,514.34 462.34,515.47 459.09,516.28 458.25,516.5 454.12,517.38 450,518.06 445.91,518.62 441.78,519.06 437.66,519.38 433.56,519.72 429.44,519.94 425.31,520.03 421.22,520 417.09,519.75 412.97,519.34 408.88,518.78 404.75,518.12 400.62,517.31 396.53,516.34 396.31,516.28 392.41,515.12 388.31,513.59 384.19,511.56 381.53,510.06 380.06,509.19 375.97,506.56 371.84,503.88 367.72,501.97 363.62,500 359.5,497.84 359.34,497.75 355.38,495.31 351.28,492.25 350.56,491.69 347.16,488.94 343.16,485.69 343.03,485.59 338.94,482.22 335.72,479.75 334.81,479.03 334.22,478.56 " stroke="red" stroke-width="0.96875" stroke-linecap="round" stroke-linejoin="round" />
<polyline points="321.47,469.12 319.97,468 318.34,466.84 314.25,464.09 311.16,462.19 310.12,461.59 306.03,459.22 301.91,456.91 301.09,456.47 297.78,454.47 293.69,452.31 290.28,450.75 289.56,450.44 285.44,448.69 281.34,447.16 277.22,445.91 274.12,445.12 273.09,444.84 269,444.19 264.88,443.75 260.75,443.56 256.66,443.66 252.53,444.28 248.94,445.12 248.41,445.25 244.31,446.34 240.19,447.53 236.06,447.88 231.97,448.09 227.84,448.25 223.72,448.5 219.62,449.25 215.5,450.12 212.59,450.75 211.41,451.03 207.28,451.91 203.16,452.47 199.06,452.97 194.94,453.47 190.81,453.97 186.72,454.66 182.59,455.41 178.47,456.25 177.41,456.47 174.38,457.06 170.25,457.88 166.12,458.56 162.03,459.12 157.91,459.59 153.78,459.81 149.69,459.97 145.56,460.12 141.44,460.28 137.34,460.66 133.22,461.12 129.12,461.62 125,462.09 123.28,462.19 120.88,462.31 116.78,462.47 112.66,462.56 108.53,462.62 104.44,463 100.31,463.28 96.188,463.38 92.094,463.25 87.969,462.41 87.281,462.19 83.844,461.22 79.75,459.88 75.625,458.47 71.5,457.12 69.406,456.47 67.406,455.84 63.281,454.62 59.188,453.44 55.062,452.47 50.938,451.5 47.969,450.75 46.844,450.47 42.719,449.38 38.594,448.25 34.5,447.06 30.375,445.88 27.938,445.12 26.25,444.62 22.156,443.44 18.031,442.12 " stroke="red" stroke-width="0.96875" stroke-linecap="round" stroke-linejoin="round" />
<polyline points="317.5,472.09 318.38,471.22 320.12,471.22 321,472.09 321,473.84 320.12,474.72 317.5,474.72 317.5,476.47 321,476.47 " stroke="red" stroke-width="0.71875" stroke-linecap="round" stroke-linejoin="round" />
<polyline points="323.62,472.09 324.5,471.22 326.25,471.22 327.12,472.09 327.12,473.84 326.25,474.72 323.62,474.72 323.62,476.47 327.12,476.47 " stroke="red" stroke-width="0.71875" stroke-linecap="round" stroke-linejoin="round" />
<polygon points="330.62,476.47 329.75,475.59 329.75,474.72 330.62,473.84 332.38,473.84 333.25,474.72 333.25,475.59 332.38,476.47 " stroke="red" stroke-width="0.71875" stroke-linejoin="round" />
<polyline points="330.62,473.84 329.75,472.97 329.75,472.09 330.62,471.22 332.38,471.22 333.25,472.09 333.25,472.97 332.38,473.84 " stroke="red" stroke-width="0.71875" stroke-linecap="round" stroke-linejoin="round" />
<polygon points="336.75,476.47 335.88,475.59 335.88,472.09 336.75,471.22 338.5,471.22 339.38,472.09 339.38,475.59 338.5,476.47 " stroke="red" stroke-width="0.71875" stroke-linejoin="round" />
<polyline points="594,431.66 589.88,430.16 585.78,428.78 585.09,428.44 581.66,426.81 577.53,425 573.44,423.38 572.19,422.97 569.31,422.03 565.19,421.34 561.09,421.03 556.97,421.06 552.88,421.56 548.75,422.78 548.25,422.97 544.62,424.41 540.53,426.41 536.78,428.44 536.41,428.66 532.28,431.22 528.31,433.97 528.19,434.06 524.06,437.16 521.06,439.5 519.94,440.44 515.84,443.94 514.53,445.12 511.72,447.94 509.12,450.75 507.59,452.59 504.5,456.47 503.5,457.78 499.72,462.19 499.38,462.59 495.25,466.72 493.78,468 491.16,470.09 487.03,472.84 485.12,473.84 482.91,474.94 478.81,476.72 474.69,478.28 470.59,479.75 470.56,479.75 466.47,481.44 462.34,483 458.25,484.44 454.31,485.69 454.12,485.75 450,486.88 445.91,487.88 441.78,488.78 437.66,489.56 433.56,490.28 429.44,490.88 425.31,491.28 421.22,491.56 417.09,491.62 412.97,491.44 408.88,491.03 404.75,490.31 400.62,489.19 396.53,487.81 392.41,486.16 391.34,485.69 388.31,484.28 384.19,482.31 380.06,480.31 378.94,479.75 375.97,478.16 371.84,475.78 368.94,473.84 367.72,473 363.62,469.94 361.09,468 359.5,466.72 355.38,463.38 353.91,462.19 351.28,460.06 347.16,456.78 346.75,456.47 343.03,453.38 339.75,450.75 338.94,450.09 338.56,449.84 " stroke="red" stroke-width="0.96875" stroke-linecap="round" stroke-linejoin="round" />
<polyline points="323.53,440.38 322.47,439.78 322,439.5 318.34,437.38 314.25,435.09 312.09,433.97 310.12,433.03 306.03,431.16 301.91,429.56 298.91,428.44 297.78,428 293.69,426.44 289.56,424.81 285.59,422.97 285.44,422.91 281.34,420.88 277.22,419 273.53,417.53 273.09,417.38 269,416.5 264.88,416 260.75,415.81 256.66,415.84 252.53,415.97 248.41,416.25 244.31,416.59 240.19,417.03 236.53,417.53 236.06,417.59 231.97,418.22 227.84,418.91 223.72,419.59 219.62,419.78 215.5,419.97 211.41,420.25 207.28,420.78 203.16,422.44 201.81,422.97 199.06,423.91 194.94,425.12 190.81,426 186.72,425.94 182.59,425.69 178.47,425.34 174.38,425 170.25,425.22 166.12,425.56 162.03,426 157.91,426.44 153.78,426.81 149.69,427.22 145.56,427.66 141.44,428.12 139.59,428.44 137.34,428.81 133.22,429.47 129.12,430.06 125,430.59 120.88,430.75 116.78,430.84 112.66,430.94 108.53,431.06 104.44,431.53 100.31,432.03 96.188,432.53 92.094,432.97 87.969,433.28 83.844,433.47 79.75,433.47 75.625,433.28 71.5,432.75 67.406,432.03 63.281,431.19 59.188,430.22 55.062,429.16 52.312,428.44 50.938,428.09 46.844,427.06 42.719,426.06 38.594,425.31 34.5,424.59 30.375,423.88 26.25,423.09 25.531,422.97 22.156,422.34 18.031,421.44 " stroke="red" stroke-width="0.96875" stroke-linecap="round" stroke-linejoin="round" />
<polyline points="321.03,443.38 321.91,442.5 323.66,442.5 324.53,443.38 324.53,445.12 323.66,446 321.03,446 321.03,447.75 324.53,447.75 " stroke="red" stroke-width="0.71875" stroke-linecap="round" stroke-linejoin="round" />
<polyline points="330.66,446.88 329.78,447.75 328.03,447.75 327.16,446.88 327.16,443.38 328.03,442.5 329.78,442.5 330.66,443.38 330.66,444.25 329.78,445.12 327.16,445.12 " stroke="red" stroke-width="0.71875" stroke-linecap="round" stroke-linejoin="round" />
<polyline points="335.03,447.75 333.28,445.12 336.78,445.12 336.78,447.75 336.78,442.5 " stroke="red" stroke-width="0.71875" stroke-linecap="round" stroke-linejoin="round" />
<polygon points="340.28,447.75 339.41,446.88 339.41,443.38 340.28,442.5 342.03,442.5 342.91,443.38 342.91,446.88 342.03,447.75 " stroke="red" stroke-width="0.71875" stroke-linejoin="round" />
<polyline points="594,395.41 589.88,395.91 586.56,396.22 585.78,396.28 584.62,396.22 581.66,396.03 577.53,395.78 573.44,395.69 569.31,395.81 567.19,396.22 565.19,396.53 561.09,397.28 556.97,398.09 552.88,398.97 548.75,399.88 544.62,400.97 542.88,401.47 540.53,402.19 536.41,403.59 532.28,405.19 528.56,406.78 528.19,406.97 524.06,408.94 519.94,411.16 518.16,412.16 515.84,413.53 511.72,416.09 509.5,417.53 507.59,418.78 503.5,421.53 501.53,422.97 499.38,424.53 495.25,427.5 493.94,428.44 491.16,430.47 487.03,433.47 486.41,433.97 482.91,437.22 480.28,439.5 478.81,440.78 474.69,443.84 472.75,445.12 470.56,446.44 466.47,448.72 462.47,450.75 462.34,450.81 458.25,452.72 454.12,454.44 450,455.78 447.56,456.47 445.91,456.91 441.78,457.78 437.66,458.47 433.56,459 429.44,459.38 425.31,459.56 421.22,459.56 417.09,459.38 412.97,459 408.88,458.41 404.75,457.62 400.62,456.75 399.59,456.47 396.53,455.56 392.41,454.06 388.31,452.34 385.25,450.75 384.19,450.19 380.06,447.75 375.97,445.16 375.91,445.12 371.84,442.31 368.31,439.5 367.72,439.03 363.62,435.5 361.84,433.97 359.5,431.91 355.38,428.47 355.38,428.44 351.28,425.31 347.91,422.97 347.16,422.47 343.03,419.88 338.94,417.56 338.88,417.53 336.97,416.62 " stroke="red" stroke-width="0.96875" stroke-linecap="round" stroke-linejoin="round" />
<polyline points="317.03,407.16 316.31,406.78 314.25,405.69 310.12,403.5 306.28,401.47 306.03,401.34 301.91,399.25 297.78,397.28 295.5,396.22 293.69,395.34 289.56,393.44 285.44,391.41 284.5,390.97 281.34,389.31 277.22,387.31 273.84,385.78 273.09,385.44 269,383.69 264.88,382.09 260.75,380.69 260.44,380.59 256.66,379.53 252.53,378.88 248.41,378.47 244.31,378.28 240.19,378.38 236.06,378.84 231.97,379.44 227.84,379.97 223.72,380.34 219.62,379.75 215.5,379.22 211.41,378.94 207.28,378.94 203.16,380.09 201.84,380.59 199.06,381.72 194.94,383.75 191.31,385.78 190.81,386.03 186.72,387.75 182.59,389.19 178.47,390.44 176.38,390.97 174.38,391.47 170.25,392.38 166.12,393.19 162.03,393.94 157.91,394.66 153.78,395.19 149.69,395.72 146.28,396.22 145.56,396.31 141.44,396.97 137.34,398.03 133.22,399.16 129.12,400.28 125,401.34 124.34,401.47 120.88,402.12 116.78,402.81 112.66,403.47 108.53,404.12 104.44,405 100.31,405.84 96.188,406.62 95.25,406.78 92.094,407.34 87.969,407.88 83.844,408.31 79.75,408.62 75.625,408.72 71.5,408.5 67.406,408.09 63.281,407.62 59.188,407.12 56.594,406.78 55.062,406.62 50.938,406.06 46.844,405.5 42.719,404.91 38.594,404.31 34.5,403.66 30.375,403 26.25,402.28 22.156,401.59 21.438,401.47 18.031,400.84 " stroke="red" stroke-width="0.96875" stroke-linecap="round" stroke-linejoin="round" />
<polyline points="316.09,410.16 316.97,409.28 318.72,409.28 319.59,410.16 319.59,411.91 318.72,412.78 316.09,412.78 316.09,414.53 319.59,414.53 " stroke="red" stroke-width="0.71875" stroke-linecap="round" stroke-linejoin="round" />
<polyline points="322.22,414.53 325.72,414.53 323.97,409.28 " stroke="red" stroke-width="0.71875" stroke-linecap="round" stroke-linejoin="round" />
<polygon points="329.22,414.53 328.34,413.66 328.34,410.16 329.22,409.28 330.97,409.28 331.84,410.16 331.84,413.66 330.97,414.53 " stroke="red" stroke-width="0.71875" stroke-linejoin="round" />
<polygon points="335.34,414.53 334.47,413.66 334.47,410.16 335.34,409.28 337.09,409.28 337.97,410.16 337.97,413.66 337.09,414.53 " stroke="red" stroke-width="0.71875" stroke-linejoin="round" />
<polyline points="594,272.44 589.88,272.12 585.78,272.78 583.38,274.16 581.66,276.06 580.16,278.75 578.84,283.34 578.47,287.97 578.72,292.62 579.75,297.31 581.16,302 581.66,303.53 582.97,306.72 584.84,311.44 585.78,314.97 586.31,316.22 587.47,321 587.19,325.81 585.78,330.09 585.62,330.66 582.25,335.5 581.66,336.12 577.53,340.12 577.25,340.41 573.44,343.06 569.78,345.31 569.31,345.56 565.19,347.22 561.09,348.78 557.03,350.28 556.97,350.28 552.88,351.72 548.75,353.81 546.44,355.25 544.62,356.44 540.53,359.72 539.94,360.25 536.41,363.56 534.28,365.28 532.28,366.78 528.19,369.94 527.66,370.38 524.06,372.53 519.94,375.22 519.66,375.47 515.84,377.97 512.25,380.59 511.72,380.94 507.59,383.78 505,385.78 503.5,386.78 499.38,390.09 498.38,390.97 495.25,393.28 491.72,396.22 491.16,396.66 487.03,399.94 484.94,401.47 482.91,402.88 478.81,405.56 476.78,406.78 474.69,408 470.56,410.28 467.38,412.16 466.47,412.66 462.34,414.66 458.25,416.41 454.94,417.53 454.12,417.81 450,418.31 445.91,418.47 441.78,418.28 437.66,417.81 433.56,417.62 432.34,417.53 429.44,417.28 425.31,416.69 421.22,415.84 417.09,414.44 412.97,413.03 410.28,412.16 408.88,411.72 404.75,410.72 400.62,410.47 396.53,410.22 392.41,409.75 388.31,409 384.19,407.34 383,406.78 380.06,405.44 375.97,403.31 372.59,401.47 371.84,401.06 367.72,398.41 364.5,396.22 363.72,395.69 " stroke="red" stroke-width="0.96875" stroke-linecap="round" stroke-linejoin="round" />
<polyline points="345.97,386.25 344.72,385.78 343.03,385.12 338.94,383.5 334.81,381.91 331.34,380.59 330.69,380.34 326.59,378.72 322.47,376.97 320.06,375.47 318.34,374.34 314.25,371.44 312.78,370.38 310.12,368.53 306.03,365.91 304.75,365.28 301.91,363.94 297.78,362.06 293.69,360.28 293.62,360.25 289.56,358.56 285.44,357.03 281.34,355.78 279.34,355.25 277.22,354.69 273.09,353.78 269,353.09 264.88,352.53 260.75,352.03 256.66,351.59 252.53,351.09 248.41,350.59 245.69,350.28 244.31,350.03 240.19,349.31 236.06,348.75 231.97,348.34 227.84,348.06 223.72,347.91 219.62,347.84 215.5,347.88 211.41,347.97 207.28,348.16 203.16,348.38 199.06,348.75 194.94,349.31 190.81,350.12 190.41,350.28 186.72,351.56 182.59,353.22 178.47,355.06 178.09,355.25 174.38,357 170.25,358.78 166.81,360.25 166.12,360.53 162.03,362.22 157.91,363.84 154.28,365.28 153.78,365.47 149.69,366.94 145.56,368.28 141.44,369.47 137.34,370.38 133.22,371.12 129.12,371.88 125,372.69 120.88,373.66 116.78,374.66 113.47,375.47 112.66,375.66 108.53,376.62 104.44,377.66 100.31,378.69 96.188,379.69 92.094,380.59 87.969,381.25 83.844,381.75 79.75,382.16 75.625,382.47 71.5,382.84 67.406,383.12 63.281,383.28 59.188,383.34 55.062,383.16 50.938,382.84 46.844,382.38 42.719,381.78 38.594,381.03 36.625,380.59 34.5,380.09 30.375,379.06 26.25,377.91 22.156,376.69 18.406,375.47 18.031,375.34 " stroke="red" stroke-width="0.96875" stroke-linecap="round" stroke-linejoin="round" />
<polyline points="346.19,389.22 347.06,388.34 348.81,388.34 349.69,389.22 349.69,390.97 348.81,391.84 346.19,391.84 346.19,393.59 349.69,393.59 " stroke="red" stroke-width="0.71875" stroke-linecap="round" stroke-linejoin="round" />
<polyline points="352.31,393.59 355.81,393.59 354.06,388.34 " stroke="red" stroke-width="0.71875" stroke-linecap="round" stroke-linejoin="round" />
<polyline points="361.94,392.72 361.06,393.59 359.31,393.59 358.44,392.72 358.44,389.22 359.31,388.34 361.06,388.34 361.94,389.22 361.94,390.09 361.06,390.97 358.44,390.97 " stroke="red" stroke-width="0.71875" stroke-linecap="round" stroke-linejoin="round" />
<polygon points="365.44,393.59 364.56,392.72 364.56,389.22 365.44,388.34 367.19,388.34 368.06,389.22 368.06,392.72 367.19,393.59 " stroke="red" stroke-width="0.71875" stroke-linejoin="round" />
<polyline points="502.62,247 502.66,247.03 503.5,248.66 504.53,251.5 505.47,256 505.62,260.5 505.47,265.03 505.19,269.59 504.88,274.16 505.59,278.75 506.06,283.34 505.94,287.97 505,292.62 503.5,294.75 501.69,297.31 499.38,299.91 497.5,302 495.25,304.16 492.56,306.72 491.16,307.97 487.03,311.44 487.03,311.47 482.91,315 481.5,316.22 478.81,318.38 475.5,321 474.69,321.62 470.56,324.62 468.84,325.81 466.47,327.31 462.34,329.78 460.88,330.66 458.25,331.94 454.12,334 451.44,335.5 450,336.25 445.91,338.34 441.78,340.38 441.72,340.41 437.66,342.19 433.56,344.31 431.5,345.31 429.44,346.28 425.31,348 421.22,349.47 417.09,350.16 415.81,350.28 412.97,350.5 408.88,350.66 404.75,350.62 400.62,350.53 396.53,350.38 394.38,350.28 392.41,350.19 388.31,350.06 386.72,350.28 384.19,350.59 380.06,351.03 375.97,351.22 371.84,351.06 368.69,350.28 367.72,350 363.62,348.47 359.5,346.75 356.31,345.31 355.38,344.88 351.28,342.69 347.16,340.62 346.69,340.41 343.03,338.56 338.94,336.69 336.03,335.5 334.81,334.94 330.69,333 326.59,331 325.84,330.66 322.47,328.66 319.25,327.25 " stroke="red" stroke-width="0.96875" stroke-linecap="round" stroke-linejoin="round" />
<polyline points="292.53,318.44 289.56,317.66 285.44,316.56 284.03,316.22 281.34,315.5 277.22,314.41 273.09,313.41 269,312.19 266.34,311.44 264.88,310.97 260.75,309.84 256.66,308.91 252.53,308.31 248.41,307.88 244.31,307.59 240.19,307.41 236.06,307.25 231.97,307.22 227.84,307.34 223.72,307.62 219.62,308.22 215.5,309.03 211.41,310.09 207.28,311.38 207.09,311.44 203.16,312.72 199.06,313.91 194.94,315 190.81,316 189.75,316.22 186.72,316.78 182.59,317.69 178.47,318.75 174.38,320.06 171.88,321 170.25,321.56 166.12,323.09 162.03,324.69 159.19,325.81 157.91,326.28 153.78,327.75 149.69,329.25 146.12,330.66 145.56,330.84 141.44,332.56 137.34,334.59 135.53,335.5 133.22,336.62 129.12,338.62 125.41,340.41 125,340.59 120.88,342.47 116.78,344.28 114.31,345.31 112.66,345.94 108.53,347.41 104.44,348.62 100.31,349.78 98.406,350.28 96.188,350.75 92.094,351.53 87.969,352.19 83.844,352.69 79.75,353.06 75.625,353.31 71.5,353.34 67.406,353.25 63.281,353 59.188,352.59 55.062,352.16 50.938,351.59 46.844,351 42.719,350.38 41.906,350.28 38.594,349.88 34.5,349.31 30.375,348.62 26.25,347.81 22.156,346.56 18.688,345.31 18.031,345.06 " stroke="red" stroke-width="0.96875" stroke-linecap="round" stroke-linejoin="round" />
<polyline points="295.53,320.78 296.41,319.91 298.16,319.91 299.03,320.78 299.03,322.53 298.16,323.41 295.53,323.41 295.53,325.16 299.03,325.16 " stroke="red" stroke-width="0.71875" stroke-linecap="round" stroke-linejoin="round" />
<polygon points="302.53,325.16 301.66,324.28 301.66,323.41 302.53,322.53 304.28,322.53 305.16,323.41 305.16,324.28 304.28,325.16 " stroke="red" stroke-width="0.71875" stroke-linejoin="round" />
<polyline points="302.53,322.53 301.66,321.66 301.66,320.78 302.53,319.91 304.28,319.91 305.16,320.78 305.16,321.66 304.28,322.53 " stroke="red" stroke-width="0.71875" stroke-linecap="round" stroke-linejoin="round" />
<polyline points="307.78,324.28 308.66,325.16 310.41,325.16 311.28,324.28 311.28,323.41 307.78,319.91 311.28,319.91 " stroke="red" stroke-width="0.71875" stroke-linecap="round" stroke-linejoin="round" />
<polygon points="314.78,325.16 313.91,324.28 313.91,320.78 314.78,319.91 316.53,319.91 317.41,320.78 317.41,324.28 316.53,325.16 " stroke="red" stroke-width="0.71875" stroke-linejoin="round" />
<polyline points="18.031,281.75 22.156,282.94 23.594,283.34 26.25,284.06 30.375,283.75 32.844,283.34 34.5,283.03 38.594,281.88 42.719,280.41 46.344,278.75 46.844,278.5 50.938,276.31 55.062,274.44 55.781,274.16 59.188,272.69 63.281,271.97 67.406,271.41 71.5,270.81 75.625,270 76.281,269.78 " stroke="red" stroke-width="0.96875" stroke-linecap="round" stroke-linejoin="round" />
<polyline points="85.969,260.31 86.094,256 83.844,253.75 79.75,252 78,251.5 75.625,251.19 71.5,250.19 67.406,249.34 63.281,248.56 59.188,247.84 55.062,247.38 52.438,247.03 52.125,247 " stroke="red" stroke-width="0.96875" stroke-linecap="round" stroke-linejoin="round" />
<polyline points="72.719,263.28 73.594,262.41 75.344,262.41 76.219,263.28 76.219,265.03 75.344,265.91 72.719,265.91 72.719,267.66 76.219,267.66 " stroke="red" stroke-width="0.71875" stroke-linecap="round" stroke-linejoin="round" />
<polygon points="79.719,267.66 78.844,266.78 78.844,265.91 79.719,265.03 81.469,265.03 82.344,265.91 82.344,266.78 81.469,267.66 " stroke="red" stroke-width="0.71875" stroke-linejoin="round" />
<polyline points="79.719,265.03 78.844,264.16 78.844,263.28 79.719,262.41 81.469,262.41 82.344,263.28 82.344,264.16 81.469,265.03 " stroke="red" stroke-width="0.71875" stroke-linecap="round" stroke-linejoin="round" />
<polygon points="85.844,267.66 84.969,266.78 84.969,265.91 85.844,265.03 87.594,265.03 88.469,265.91 88.469,266.78 87.594,267.66 " stroke="red" stroke-width="0.71875" stroke-linejoin="round" />
<polyline points="85.844,265.03 84.969,264.16 84.969,263.28 85.844,262.41 87.594,262.41 88.469,263.28 88.469,264.16 87.594,265.03 " stroke="red" stroke-width="0.71875" stroke-linecap="round" stroke-linejoin="round" />
<polygon points="91.969,267.66 91.094,266.78 91.094,263.28 91.969,262.41 93.719,262.41 94.594,263.28 94.594,266.78 93.719,267.66 " stroke="red" stroke-width="0.71875" stroke-linejoin="round" />
</g>
</svg>
