<?xml version="1.0" encoding="ISO-8859-1" standalone="no"?>
<!DOCTYPE svg PUBLIC "-//W3C//DTD SVG 1.1//EN" "http://www.w3.org/Graphics/SVG/1.1/DTD/svg11.dtd">
<svg version="1.1" baseProfile="full" id="body" width="900px" height="600px" viewBox="0 0.2 1 0.55" preserveAspectRatio="none" xmlns="http://www.w3.org/2000/svg" xmlns:xlink="http://www.w3.org/1999/xlink" xmlns:ev="http://www.w3.org/2001/xml-events">
<title>SVG drawing</title>
<desc>This was produced by version 4.2 of GNU libplot, a free library for exporting 2-D vector graphics.</desc>
<rect id="background" x="0" y="0" width="1" height="1" stroke="none" fill="none"/>
<g id="content" transform="translate(-0.03125,1.1875) scale(1,-1) scale(0.0017361) " xml:space="preserve" stroke="black" stroke-linecap="butt" stroke-linejoin="miter" stroke-miterlimit="10.433" stroke-dasharray="none" stroke-dashoffset="0" stroke-opacity="1" fill="none" fill-rule="even-odd" fill-opacity="1" font-style="normal" font-variant="normal" font-weight="normal" font-stretch="normal" font-size-adjust="none" letter-spacing="normal" word-spacing="normal" text-anchor="start">
<polyline points="260.19,568.66 260.19,568.62 259.72,561.84 260.38,555.12 260.75,553.78 262.38,548.47 264.88,543.22 265.56,541.91 269,537.22 270.59,535.38 272,534.19 " stroke="red" stroke-width="0.96875" stroke-linecap="round" stroke-linejoin="round" />
<polyline points="298.91,531.72 301.91,532.94 306.03,535.22 306.31,535.38 310.12,538.59 313.16,541.91 314.25,543.78 316.5,548.47 318.22,555.12 318.34,556 319.34,561.84 319.66,568.62 319.66,568.66 " stroke="red" stroke-width="0.96875" stroke-linecap="round" stroke-linejoin="round" />
<polyline points="274.94,527.69 275.81,526.81 277.56,526.81 278.44,527.69 278.44,529.44 277.56,530.31 274.94,530.31 274.94,532.06 278.44,532.06 " stroke="red" stroke-width="0.71875" stroke-linecap="round" stroke-linejoin="round" />
<polyline points="281.06,531.19 281.94,532.06 283.69,532.06 284.56,531.19 284.56,530.31 281.06,526.81 284.56,526.81 " stroke="red" stroke-width="0.71875" stroke-linecap="round" stroke-linejoin="round" />
<polygon points="288.06,532.06 287.19,531.19 287.19,530.31 288.06,529.44 289.81,529.44 290.69,530.31 290.69,531.19 289.81,532.06 " stroke="red" stroke-width="0.71875" stroke-linejoin="round" />
<polyline points="288.06,529.44 287.19,528.56 287.19,527.69 288.06,526.81 289.81,526.81 290.69,527.69 290.69,528.56 289.81,529.44 " stroke="red" stroke-width="0.71875" stroke-linecap="round" stroke-linejoin="round" />
<polygon points="294.19,532.06 293.31,531.19 293.31,527.69 294.19,526.81 295.94,526.81 296.81,527.69 296.81,531.19 295.94,532.06 " stroke="red" stroke-width="0.71875" stroke-linejoin="round" />
<polyline points="51.312,568.66 51.312,568.62 50.938,567.78 48.312,561.84 46.844,558.94 44.594,555.12 43.188,553.19 " stroke="red" stroke-width="0.96875" stroke-linecap="round" stroke-linejoin="round" />
<polyline points="30.938,543.75 30.375,543.34 28.531,541.91 26.25,540.12 22.156,536.16 21.531,535.38 18.031,530.75 " stroke="red" stroke-width="0.96875" stroke-linecap="round" stroke-linejoin="round" />
<polyline points="27.25,546.72 28.125,545.84 29.875,545.84 30.75,546.72 30.75,548.47 29.875,549.34 27.25,549.34 27.25,551.09 30.75,551.09 " stroke="red" stroke-width="0.71875" stroke-linecap="round" stroke-linejoin="round" />
<polyline points="33.375,550.22 34.25,551.09 36,551.09 36.875,550.22 36.875,549.34 36,548.47 35.125,548.47 36,548.47 36.875,547.59 36.875,546.72 36,545.84 34.25,545.84 33.375,546.72 " stroke="red" stroke-width="0.71875" stroke-linecap="round" stroke-linejoin="round" />
<polyline points="41.25,551.09 39.5,548.47 43,548.47 43,551.09 43,545.84 " stroke="red" stroke-width="0.71875" stroke-linecap="round" stroke-linejoin="round" />
<polygon points="46.5,551.09 45.625,550.22 45.625,546.72 46.5,545.84 48.25,545.84 49.125,546.72 49.125,550.22 48.25,551.09 " stroke="red" stroke-width="0.71875" stroke-linejoin="round" />
<polyline points="235.09,568.66 235.09,568.62 236.06,564.5 236.62,561.84 238.72,555.12 240.19,551.69 241.34,548.47 244.31,542.38 244.53,541.91 248.41,535.59 248.53,535.38 252.53,530.34 253.69,528.97 256.66,526.03 260.22,522.59 260.75,522.16 264.88,519.22 269,516.88 270.28,516.28 273.09,515.12 276.09,514.25 " stroke="red" stroke-width="0.96875" stroke-linecap="round" stroke-linejoin="round" />
<polyline points="303.03,513.16 306.03,513.88 310.12,515.22 312.88,516.28 314.25,516.88 318.34,518.94 322.47,521.28 324.47,522.59 326.59,524.25 330.69,527.97 331.69,528.97 334.81,534 335.62,535.38 338.59,541.91 338.94,542.84 340.97,548.47 343.03,555.09 343.03,555.12 345.38,561.84 347.16,567.41 347.56,568.62 347.56,568.66 " stroke="red" stroke-width="0.96875" stroke-linecap="round" stroke-linejoin="round" />
<polyline points="279.06,510.19 279.94,509.31 281.69,509.31 282.56,510.19 282.56,511.94 281.69,512.81 279.06,512.81 279.06,514.56 282.56,514.56 " stroke="red" stroke-width="0.71875" stroke-linecap="round" stroke-linejoin="round" />
<polyline points="285.19,513.69 286.06,514.56 287.81,514.56 288.69,513.69 288.69,512.81 287.81,511.94 286.94,511.94 287.81,511.94 288.69,511.06 288.69,510.19 287.81,509.31 286.06,509.31 285.19,510.19 " stroke="red" stroke-width="0.71875" stroke-linecap="round" stroke-linejoin="round" />
<polyline points="293.06,514.56 291.31,511.94 294.81,511.94 294.81,514.56 294.81,509.31 " stroke="red" stroke-width="0.71875" stroke-linecap="round" stroke-linejoin="round" />
<polygon points="298.31,514.56 297.44,513.69 297.44,510.19 298.31,509.31 300.06,509.31 300.94,510.19 300.94,513.69 300.06,514.56 " stroke="red" stroke-width="0.71875" stroke-linejoin="round" />
<polyline points="373.28,568.66 373.25,568.62 371.84,566.47 369.16,561.84 367.72,559.44 365.31,555.12 363.62,552.16 361.66,548.47 359.5,544.5 358.19,541.91 355.38,536.66 354.72,535.38 351.28,529.34 351.03,528.97 347.16,523.84 346.16,522.59 343.03,519.19 340.19,516.28 338.94,515.12 334.81,511.91 332.06,510.06 330.69,509.19 326.59,506.94 322.47,504.97 320.12,503.88 318.34,503.09 314.25,501.53 310.12,500.28 306.03,499.28 301.91,498.69 297.78,498.38 293.69,498.28 289.56,498.41 285.44,498.84 281.34,499.47 277.22,500.25 273.09,501.22 269,502.22 264.88,503.38 263.31,503.88 260.75,504.78 256.66,506.53 252.53,508.62 250,510.06 248.41,511.06 244.31,513.81 240.81,516.28 240.19,516.78 236.06,519.94 232.59,522.59 231.97,523.16 227.84,526.59 224.97,528.97 223.72,530.12 219.62,533.72 217.5,535.38 215.5,537.12 215.44,537.16 " stroke="red" stroke-width="0.96875" stroke-linecap="round" stroke-linejoin="round" />
<polyline points="202.56,546.62 199.91,548.47 199.06,549.12 194.94,552.09 190.81,554.91 190.44,555.12 186.72,557.19 182.59,559.12 178.47,560.81 175.59,561.84 174.38,562.28 170.25,563.38 166.12,564.16 162.03,564.66 157.91,564.81 153.78,564.41 149.69,563.84 145.56,563.19 141.44,562.56 137.34,562.16 133.22,561.94 129.12,561.94 125,562.16 120.88,563.38 116.78,564.5 112.66,565.34 108.53,565.88 104.44,565.47 100.31,564.81 96.188,563.97 92.094,563.06 87.969,562.78 83.844,562.28 81.688,561.84 79.75,561.38 75.625,559.78 71.5,556.22 70.531,555.12 67.406,550.19 66.375,548.47 63.281,543.59 62.156,541.91 59.188,538.28 56.688,535.38 55.062,533.84 50.938,530.34 49.125,528.97 46.844,527.47 42.719,524.78 39.188,522.59 38.594,522.22 34.5,519.38 30.594,516.28 30.375,516.12 26.25,512.44 23.562,510.06 22.156,508.75 18.031,504.62 " stroke="red" stroke-width="0.96875" stroke-linecap="round" stroke-linejoin="round" />
<polyline points="198.56,540.16 199.44,539.28 201.19,539.28 202.06,540.16 202.06,541.91 201.19,542.78 198.56,542.78 198.56,544.53 202.06,544.53 " stroke="red" stroke-width="0.71875" stroke-linecap="round" stroke-linejoin="round" />
<polyline points="206.44,544.53 204.69,541.91 208.19,541.91 208.19,544.53 208.19,539.28 " stroke="red" stroke-width="0.71875" stroke-linecap="round" stroke-linejoin="round" />
<polygon points="211.69,544.53 210.81,543.66 210.81,540.16 211.69,539.28 213.44,539.28 214.31,540.16 214.31,543.66 213.44,544.53 " stroke="red" stroke-width="0.71875" stroke-linejoin="round" />
<polygon points="217.81,544.53 216.94,543.66 216.94,540.16 217.81,539.28 219.56,539.28 220.44,540.16 220.44,543.66 219.56,544.53 " stroke="red" stroke-width="0.71875" stroke-linejoin="round" />
<polyline points="594,560.72 589.88,561.12 585.78,561.75 585.28,561.84 581.66,562.25 577.53,562.81 573.44,563.47 569.31,564.19 565.19,565.03 561.09,565.88 556.97,566.75 552.88,567.59 548.75,568.34 547.22,568.62 547.03,568.66 " stroke="red" stroke-width="0.96875" stroke-linecap="round" stroke-linejoin="round" />
<polyline points="414.34,568.66 414.28,568.62 412.97,568.09 408.88,566.25 404.75,564.19 400.78,561.84 400.62,561.75 396.53,558.91 392.41,555.56 391.94,555.12 388.31,551.81 385.06,548.47 384.19,547.56 380.06,542.97 379.19,541.91 375.97,538.09 373.84,535.38 371.84,532.94 369.06,528.97 367.72,527.12 364.44,522.59 363.62,521.53 359.5,516.44 359.38,516.28 355.38,511.88 353.62,510.06 351.28,507.75 347.16,504 347,503.88 343.03,500.59 339.09,497.75 338.94,497.62 334.81,495.34 330.69,493.44 326.59,491.84 326.12,491.69 323.59,490.84 " stroke="red" stroke-width="0.96875" stroke-linecap="round" stroke-linejoin="round" />
<polyline points="296.66,486.16 293.69,486.09 289.56,486.19 285.44,486.47 281.34,486.88 277.22,487.41 273.09,488.06 269,488.78 264.88,489.56 260.75,490.41 256.66,491.34 255.09,491.69 252.53,492.31 248.41,493.38 244.31,494.62 240.19,496 236.06,497.56 235.56,497.75 231.97,499.19 227.84,500.75 223.72,502.19 219.62,503.16 215.97,503.88 215.5,503.97 211.41,504.84 207.28,505.72 203.16,506.81 199.06,507.94 194.94,509.12 191.75,510.06 190.81,510.34 186.72,511.97 182.59,513.47 178.47,514.78 174.38,515.94 172.59,516.28 170.25,516.78 166.12,517.62 162.03,518.5 157.91,519.47 153.78,520.91 149.69,522.31 148.84,522.59 145.56,523.69 141.44,524.91 137.34,525.69 133.22,526.47 129.12,527.34 125,528.34 123.41,528.97 120.88,529.88 116.78,531.28 112.66,532.47 108.53,533.38 104.44,533.47 100.31,533.03 96.188,532.03 92.094,530.28 90.438,528.97 87.969,526.81 83.844,522.75 83.688,522.59 79.75,518.88 76.688,516.28 75.625,515.47 71.5,513.62 67.406,512.06 63.281,510.62 61.625,510.06 59.188,509.22 55.062,507.44 50.938,505.5 47.75,503.88 46.844,503.34 42.719,500.75 38.594,497.81 38.531,497.75 34.5,494.69 30.594,491.69 30.375,491.53 26.25,488.34 22.469,485.69 22.156,485.44 18.031,482.16 " stroke="red" stroke-width="0.96875" stroke-linecap="round" stroke-linejoin="round" />
<polyline points="299.62,485.66 300.5,484.78 302.25,484.78 303.12,485.66 303.12,487.41 302.25,488.28 299.62,488.28 299.62,490.03 303.12,490.03 " stroke="red" stroke-width="0.71875" stroke-linecap="round" stroke-linejoin="round" />
<polyline points="307.5,490.03 305.75,487.41 309.25,487.41 309.25,490.03 309.25,484.78 " stroke="red" stroke-width="0.71875" stroke-linecap="round" stroke-linejoin="round" />
<polyline points="315.38,489.16 314.5,490.03 312.75,490.03 311.88,489.16 311.88,485.66 312.75,484.78 314.5,484.78 315.38,485.66 315.38,486.53 314.5,487.41 311.88,487.41 " stroke="red" stroke-width="0.71875" stroke-linecap="round" stroke-linejoin="round" />
<polygon points="318.88,490.03 318,489.16 318,485.66 318.88,484.78 320.62,484.78 321.5,485.66 321.5,489.16 320.62,490.03 " stroke="red" stroke-width="0.71875" stroke-linejoin="round" />
<polyline points="594,516.34 589.88,518.69 585.78,522.44 585.62,522.59 581.66,525.88 578.12,528.97 577.53,529.34 573.44,532.09 569.31,534.69 568.16,535.38 565.19,536.94 561.09,538.97 556.97,540.88 554.53,541.91 552.88,542.53 548.75,543.84 544.62,545.06 540.53,546.12 536.41,547.12 532.28,547.97 529.62,548.47 528.19,548.72 524.06,549.38 519.94,550.03 515.84,550.72 511.72,551.41 507.59,552.06 503.5,552.69 499.38,553.31 495.25,553.94 491.16,554.53 487.03,555.03 486.31,555.12 482.91,555.44 478.81,555.78 474.69,556 470.56,556.12 466.47,556.16 462.34,556.06 458.25,555.78 454.12,555.31 453.22,555.12 450,554.41 445.91,553.31 441.78,552.06 437.66,550.69 433.56,549.34 431.06,548.47 429.44,547.88 425.31,546.34 421.22,544.72 417.09,543.19 413.94,541.91 412.97,541.5 408.88,539.59 404.75,537.34 401.97,535.38 400.62,534.41 396.53,530.97 394.38,528.97 392.41,526.81 388.72,522.59 388.31,522.09 384.19,517.78 382.75,516.28 380.06,513.66 376.34,510.06 375.97,509.72 371.84,505.91 369.84,503.88 367.72,501.75 363.62,497.78 363.56,497.75 359.5,494.22 356.28,491.69 355.38,491.03 351.28,487.88 348.09,485.69 347.16,485.06 343.03,482.59 338.94,480.53 336.91,479.75 335.94,479.34 " stroke="red" stroke-width="0.96875" stroke-linecap="round" stroke-linejoin="round" />
<polyline points="309,472.84 306.03,472.56 301.91,472.25 297.78,472.03 293.69,471.97 289.56,472 285.44,472.22 281.34,472.53 277.22,472.94 273.09,473.41 269.91,473.84 269,473.97 264.88,474.5 260.75,475.09 256.66,475.69 252.53,476.06 248.41,476.44 244.31,476.84 240.19,477.31 236.06,478.12 231.97,479.09 229.41,479.75 227.84,480.09 223.72,481.06 219.62,481.72 215.5,482.31 211.41,482.91 207.28,483.59 203.16,484.66 199.28,485.69 199.06,485.75 194.94,486.84 190.81,487.91 186.72,488.88 182.59,489.88 178.47,490.88 175.22,491.69 174.38,491.91 170.25,492.84 166.12,493.72 162.03,494.59 157.91,495.53 153.78,496.94 151.62,497.75 149.69,498.5 145.56,500 141.44,501.31 137.34,501.12 133.22,500.59 129.12,499.97 125,499.41 120.88,499.78 116.78,500.28 112.66,500.78 108.53,501.12 104.44,500.72 100.31,499.88 96.188,498.72 93.562,497.75 92.094,497.25 87.969,495 83.844,492.62 82.25,491.69 79.75,490.25 75.625,488.03 71.5,486.53 69.094,485.69 67.406,485.09 63.281,483.69 59.188,482.16 55.062,480.38 53.688,479.75 50.938,478.5 46.844,476.44 42.719,474.16 42.219,473.84 38.594,471.62 34.5,468.97 33.031,468 30.375,466.22 26.25,463.53 23.906,462.19 22.156,461.22 18.031,458.81 " stroke="red" stroke-width="0.96875" stroke-linecap="round" stroke-linejoin="round" />
<polyline points="311.97,473.31 312.84,472.44 314.59,472.44 315.47,473.31 315.47,475.06 314.59,475.94 311.97,475.94 311.97,477.69 315.47,477.69 " stroke="red" stroke-width="0.71875" stroke-linecap="round" stroke-linejoin="round" />
<polyline points="318.09,473.31 318.97,472.44 320.72,472.44 321.59,473.31 321.59,475.06 320.72,475.94 318.09,475.94 318.09,477.69 321.59,477.69 " stroke="red" stroke-width="0.71875" stroke-linecap="round" stroke-linejoin="round" />
<polyline points="324.22,476.81 325.09,477.69 326.84,477.69 327.72,476.81 327.72,475.94 324.22,472.44 327.72,472.44 " stroke="red" stroke-width="0.71875" stroke-linecap="round" stroke-linejoin="round" />
<polygon points="331.22,477.69 330.34,476.81 330.34,473.31 331.22,472.44 332.97,472.44 333.84,473.31 333.84,476.81 332.97,477.69 " stroke="red" stroke-width="0.71875" stroke-linejoin="round" />
<polyline points="594,461.59 589.88,460.81 585.78,460.97 581.66,462.03 581.31,462.19 577.53,464.22 573.44,467.75 573.22,468 569.31,473.12 568.88,473.84 565.66,479.75 565.19,480.88 563.34,485.69 561.09,491.16 560.88,491.69 557.94,497.75 556.97,499.44 554.06,503.88 552.88,505.38 548.75,509.31 547.84,510.06 544.62,512.31 540.53,514.75 537.47,516.28 536.41,516.75 532.28,518.41 528.19,519.88 524.06,521.16 519.94,522.38 519.25,522.59 515.84,523.62 511.72,524.84 507.59,526.03 503.5,527.19 499.38,528.19 495.72,528.97 495.25,529.03 491.16,529.72 487.03,530.28 482.91,530.72 478.81,531.03 474.69,531.19 470.56,531.19 466.47,531.03 462.34,530.69 458.25,530.19 454.12,529.5 451.44,528.97 450,528.66 445.91,527.69 441.78,526.56 437.66,525.28 433.56,523.84 430.25,522.59 429.44,522.25 425.31,520.47 421.22,518.47 417.09,516.44 416.81,516.28 412.97,513.97 408.88,511.06 407.59,510.06 404.75,507.62 401,503.88 400.62,503.53 396.53,499.69 394.31,497.75 392.41,496.19 388.31,493 386.62,491.69 384.19,489.78 380.06,486.34 379.28,485.69 375.97,482.81 372.38,479.75 371.84,479.31 367.72,476.59 363.62,473.97 363.41,473.84 359.5,471.38 355.38,468.81 353.97,468 351.28,466.5 350.28,466 " stroke="red" stroke-width="0.96875" stroke-linecap="round" stroke-linejoin="round" />
<polyline points="325.88,456.56 325.56,456.47 322.47,455.53 318.34,454.69 314.25,453.97 310.12,453.44 306.03,453 301.91,452.66 297.78,452.47 293.69,452.38 289.56,452.41 285.44,452.62 281.34,452.91 277.22,453.25 273.09,453.59 269,453.88 264.88,454.12 260.75,454.38 256.66,454.62 252.53,454.91 248.41,455.22 244.31,455.56 240.19,455.88 236.06,456.16 231.97,456.44 231.75,456.47 227.84,456.81 223.72,457.31 219.62,458.16 215.5,459.06 211.41,460.03 207.28,461 203.16,461.88 201.66,462.19 199.06,462.78 194.94,463.72 190.81,464.75 186.72,465.84 182.59,466.88 178.47,467.81 177.62,468 174.38,468.62 170.25,469.44 166.12,470.16 162.03,470.81 157.91,471.34 153.78,471.66 149.69,471.84 145.56,471.97 141.44,472.03 137.34,472.31 133.22,472.56 129.12,472.72 125,472.72 120.88,472.12 116.78,471.44 112.66,470.66 108.53,469.94 104.44,469.75 100.31,469.53 96.188,469.12 92.094,468.5 90.656,468 87.969,467.03 83.844,465.41 79.75,463.78 75.688,462.19 75.625,462.19 71.5,461.06 67.406,459.97 63.281,458.78 59.188,457.41 57.125,456.47 55.062,455.41 50.938,453.12 46.844,450.78 46.812,450.75 42.719,448.5 38.594,446.5 35.531,445.12 34.5,444.66 30.375,442.91 26.25,441.16 22.5,439.5 22.156,439.34 18.031,437.19 " stroke="red" stroke-width="0.96875" stroke-linecap="round" stroke-linejoin="round" />
<polyline points="328.44,459.53 329.31,458.66 331.06,458.66 331.94,459.53 331.94,461.28 331.06,462.16 328.44,462.16 328.44,463.91 331.94,463.91 " stroke="red" stroke-width="0.71875" stroke-linecap="round" stroke-linejoin="round" />
<polyline points="334.56,459.53 335.44,458.66 337.19,458.66 338.06,459.53 338.06,461.28 337.19,462.16 334.56,462.16 334.56,463.91 338.06,463.91 " stroke="red" stroke-width="0.71875" stroke-linecap="round" stroke-linejoin="round" />
<polygon points="341.56,463.91 340.69,463.03 340.69,462.16 341.56,461.28 343.31,461.28 344.19,462.16 344.19,463.03 343.31,463.91 " stroke="red" stroke-width="0.71875" stroke-linejoin="round" />
<polyline points="341.56,461.28 340.69,460.41 340.69,459.53 341.56,458.66 343.31,458.66 344.19,459.53 344.19,460.41 343.31,461.28 " stroke="red" stroke-width="0.71875" stroke-linecap="round" stroke-linejoin="round" />
<polygon points="347.69,463.91 346.81,463.03 346.81,459.53 347.69,458.66 349.44,458.66 350.31,459.53 350.31,463.03 349.44,463.91 " stroke="red" stroke-width="0.71875" stroke-linejoin="round" />
<polyline points="594,422.75 589.88,421.53 585.78,421.09 581.66,420.72 577.53,421.09 573.44,422.31 572.19,422.97 569.31,424.62 565.5,428.44 565.19,428.75 561.09,433.84 561,433.97 557.09,439.5 556.97,439.69 553.72,445.12 552.88,446.62 550.72,450.75 548.75,454.72 547.88,456.47 544.97,462.19 544.62,462.84 541.69,468 540.53,469.94 537.75,473.84 536.41,475.56 532.28,479.56 532.06,479.75 528.19,482.66 524.06,485.28 523.31,485.69 519.94,487.41 515.84,489.06 511.72,490.5 508.06,491.69 507.59,491.81 503.5,493.06 499.38,494.53 495.25,495.91 491.16,497.22 489.34,497.75 487.03,498.41 482.91,499.53 478.81,500.47 474.69,501.25 470.56,501.81 466.47,502.03 462.34,502.03 458.25,501.81 454.12,501.34 450,500.66 445.91,499.69 441.78,498.5 439.62,497.75 437.66,497.03 433.56,495.34 429.44,493.47 425.97,491.69 425.31,491.34 421.22,488.94 417.09,485.94 416.75,485.69 412.97,482.72 409.22,479.75 408.88,479.47 404.75,476.62 400.62,474.34 399.72,473.84 396.53,472.03 392.41,469.56 389.94,468 388.31,466.94 384.19,464.09 381.22,462.19 380.06,461.5 375.97,459.09 371.84,456.81 371.34,456.47 367.72,453.91 363.62,450.94 363.34,450.75 359.5,448 355.38,445.25 355.12,445.12 351.28,443.25 347.19,441.5 " stroke="red" stroke-width="0.96875" stroke-linecap="round" stroke-linejoin="round" />
<polyline points="321.38,432.06 318.34,430.88 314.25,429.38 311.41,428.44 310.12,428.03 306.03,426.84 301.91,426.03 297.78,425.31 293.69,424.72 289.56,424.22 285.44,423.72 281.34,423.28 277.22,422.97 276.97,422.97 273.09,422.78 269,422.94 268.72,422.97 264.88,423.28 260.75,423.75 256.66,424.31 252.53,424.69 248.41,425.09 244.31,425.59 240.19,426.16 236.06,427.06 231.97,427.91 229.03,428.44 227.84,428.62 223.72,429.16 219.62,429.47 215.5,429.75 211.41,430.09 207.28,430.5 203.16,431.06 199.06,431.69 194.94,432.38 190.81,433.09 186.72,433.78 185.72,433.97 182.59,434.47 178.47,435.31 174.38,436.31 170.25,437.75 166.12,439.22 165.19,439.5 162.03,440.44 157.91,441.47 153.78,442 149.69,442.38 145.56,442.59 141.44,442.69 137.34,442.72 133.22,442.72 129.12,442.66 125,442.62 120.88,442.72 116.78,442.78 112.66,442.84 108.53,442.81 104.44,442.75 100.31,442.56 96.188,442.22 92.094,441.72 87.969,440.84 83.844,439.81 82.781,439.5 79.75,438.69 75.625,437.47 71.5,436.22 67.406,434.81 65.125,433.97 63.281,433.34 59.188,431.88 55.062,430.38 50.938,428.91 49.625,428.44 46.844,427.47 42.719,426.03 38.594,424.69 34.5,423.19 33.906,422.97 30.375,421.53 26.25,419.72 22.156,417.91 21.375,417.53 18.031,415.94 " stroke="red" stroke-width="0.96875" stroke-linecap="round" stroke-linejoin="round" />
<polyline points="324.31,435.03 325.19,434.16 326.94,434.16 327.81,435.03 327.81,436.78 326.94,437.66 324.31,437.66 324.31,439.41 327.81,439.41 " stroke="red" stroke-width="0.71875" stroke-linecap="round" stroke-linejoin="round" />
<polyline points="333.94,438.53 333.06,439.41 331.31,439.41 330.44,438.53 330.44,435.03 331.31,434.16 333.06,434.16 333.94,435.03 333.94,435.91 333.06,436.78 330.44,436.78 " stroke="red" stroke-width="0.71875" stroke-linecap="round" stroke-linejoin="round" />
<polyline points="338.31,439.41 336.56,436.78 340.06,436.78 340.06,439.41 340.06,434.16 " stroke="red" stroke-width="0.71875" stroke-linecap="round" stroke-linejoin="round" />
<polygon points="343.56,439.41 342.69,438.53 342.69,435.03 343.56,434.16 345.31,434.16 346.19,435.03 346.19,438.53 345.31,439.41 " stroke="red" stroke-width="0.71875" stroke-linejoin="round" />
<polyline points="594,390.47 589.88,390.22 585.78,390.41 582.22,390.97 581.66,391.06 577.53,392 573.44,393.22 569.31,394.75 566.28,396.22 565.19,396.75 561.09,399.12 557.72,401.47 556.97,402.06 552.88,405.56 551.47,406.78 548.75,409.5 546.34,412.16 544.62,414.25 542.06,417.53 540.53,419.66 538.06,422.97 536.41,425.34 533.62,428.44 532.28,429.97 528.44,433.97 528.19,434.25 524.06,438.19 522.5,439.5 519.94,441.66 515.88,445.12 515.84,445.12 511.72,448.16 507.72,450.75 507.59,450.81 503.5,453.25 499.38,456.03 498.72,456.47 495.25,458.66 491.16,461.06 488.97,462.19 487.03,463.16 482.91,464.66 478.81,465.88 474.69,466.88 470.56,467.56 466.47,467.75 462.34,467.62 458.25,467.16 454.12,466.44 450,465.44 445.91,464.25 441.78,462.91 439.78,462.19 437.66,461.44 433.56,460.06 429.44,458.59 425.31,457.06 423.81,456.47 421.22,455.44 417.09,453.72 412.97,451.91 410.5,450.75 408.88,450 404.75,447.88 400.62,445.44 400.12,445.12 396.53,442.88 392.41,440.47 390.66,439.5 388.31,438.22 384.19,436.56 380.06,435 377.5,433.97 375.97,433.28 371.84,431.25 367.94,428.44 367.72,428.31 363.62,425.22 360.38,422.97 359.5,422.34 355.38,419.69 351.28,417.66 351,417.53 347.16,415.72 343.03,413.84 339.34,412.16 338.94,411.94 334.81,409.59 331.12,407.5 " stroke="red" stroke-width="0.96875" stroke-linecap="round" stroke-linejoin="round" />
<polyline points="311.91,398.06 310.12,397.25 307.78,396.22 306.03,395.38 301.91,393.59 297.78,391.91 295.41,390.97 293.69,390.34 289.56,388.91 285.44,387.06 282.56,385.78 281.34,385.19 277.22,383.34 273.09,381.47 270.81,380.59 269,379.84 264.88,378.12 260.75,376.25 259,375.47 256.66,374.44 252.53,373.41 248.41,372.94 244.31,372.94 240.19,373.22 236.06,373.75 231.97,374.5 227.84,375.47 223.72,376.72 219.62,378.28 215.5,379.88 213.62,380.59 211.41,381.44 207.28,382.84 203.16,383.38 199.06,383.84 194.94,384.5 190.81,385.47 190.28,385.78 186.72,387.78 182.59,390.25 181.47,390.97 178.47,392.91 174.38,395.34 172.47,396.22 170.25,397.22 166.12,399 162.03,400.72 160.19,401.47 157.91,402.44 153.78,404.12 149.69,405.72 146.81,406.78 145.56,407.25 141.44,408.78 137.34,410.5 133.22,412.12 133.19,412.16 129.12,413.59 125,414.81 120.88,415.5 116.78,415.97 112.66,416.31 108.53,416.5 104.44,416.66 100.31,416.69 96.188,416.66 92.094,416.5 87.969,416.31 83.844,416 79.75,415.56 75.625,414.94 71.5,413.91 67.406,412.75 65.438,412.16 63.281,411.44 59.188,409.97 55.062,408.62 50.938,407.25 49.688,406.78 46.844,405.72 42.719,404.03 38.594,402.09 37.375,401.47 34.5,400.03 30.375,397.97 26.781,396.22 26.25,395.97 22.156,394.12 18.031,392.31 " stroke="red" stroke-width="0.96875" stroke-linecap="round" stroke-linejoin="round" />
<polyline points="311.97,401.03 312.84,400.16 314.59,400.16 315.47,401.03 315.47,402.78 314.59,403.66 311.97,403.66 311.97,405.41 315.47,405.41 " stroke="red" stroke-width="0.71875" stroke-linecap="round" stroke-linejoin="round" />
<polyline points="318.09,405.41 321.59,405.41 319.84,400.16 " stroke="red" stroke-width="0.71875" stroke-linecap="round" stroke-linejoin="round" />
<polygon points="325.09,405.41 324.22,404.53 324.22,401.03 325.09,400.16 326.84,400.16 327.72,401.03 327.72,404.53 326.84,405.41 " stroke="red" stroke-width="0.71875" stroke-linejoin="round" />
<polygon points="331.22,405.41 330.34,404.53 330.34,401.03 331.22,400.16 332.97,400.16 333.84,401.03 333.84,404.53 332.97,405.41 " stroke="red" stroke-width="0.71875" stroke-linejoin="round" />
<polyline points="594,341.75 589.88,343.91 587.41,345.31 585.78,346.16 581.66,348.44 578.53,350.28 577.53,350.84 573.44,353.22 570.09,355.25 569.31,355.66 565.19,358.66 563.47,360.25 561.09,362.34 558.31,365.28 556.97,366.59 553.56,370.38 552.88,370.97 548.75,374 546.75,375.47 544.62,376.88 540.53,379.62 539.12,380.59 536.41,382.41 532.34,385.78 532.28,385.81 528.19,389.47 526.56,390.97 524.06,393.44 521.16,396.22 519.94,397.34 515.84,401.09 515.41,401.47 511.72,404.84 509.59,406.78 507.59,408.62 503.69,412.16 503.5,412.31 499.38,415.19 495.5,417.53 495.25,417.66 491.16,419.69 487.03,421.41 482.91,422.94 482.78,422.97 478.81,424.19 474.69,425.19 470.56,425.94 466.47,426.22 462.34,426.16 458.25,425.72 454.12,424.97 450,423.81 447.53,422.97 445.91,422.34 441.78,420.66 437.66,418.88 433.62,417.53 433.56,417.5 429.44,416.16 425.31,414.88 421.22,413.62 417.12,412.16 417.09,412.12 412.97,410.66 408.88,409.22 404.75,407.78 401.28,406.78 400.62,406.62 396.53,405.47 392.41,404.34 388.31,403.19 384.19,401.91 382.97,401.47 380.06,400.47 375.97,398.84 371.84,397.09 370.09,396.22 367.72,395 363.62,392.81 360.22,390.97 359.5,390.56 355.38,388.09 351.47,385.78 351.28,385.66 347.16,383.12 343.03,380.78 342.72,380.59 338.94,378.5 334.81,376.59 332.25,375.47 331.38,375.09 " stroke="red" stroke-width="0.96875" stroke-linecap="round" stroke-linejoin="round" />
<polyline points="313,365.62 312.38,365.28 310.12,363.97 306.03,361.72 302.5,360.25 301.91,360 297.78,358.28 293.69,356.59 290.47,355.25 289.56,354.84 285.44,353 281.34,351.19 279.16,350.28 277.22,349.41 273.09,347.59 269,345.75 267.91,345.31 264.88,344.19 260.75,342.94 256.66,342 252.53,341.41 248.41,340.97 244.31,340.75 240.19,340.75 236.06,341.12 231.97,341.72 227.84,342.5 223.72,343.44 219.62,344.09 215.5,344.84 213.22,345.31 211.41,345.72 207.28,346.78 203.16,348.75 200.5,350.28 199.06,351.12 194.94,353.59 192.06,355.25 190.81,355.91 186.72,358 182.59,360.19 182.47,360.25 178.47,362.47 174.38,364.84 173.47,365.28 170.25,366.91 166.12,368.91 163.03,370.38 162.03,370.81 157.91,372.66 153.78,374.56 151.84,375.47 149.69,376.44 145.56,378.19 141.44,379.88 139.34,380.59 137.34,381.28 133.22,382.62 129.12,383.94 125,385.22 122.97,385.78 120.88,386.31 116.78,387.25 112.66,388.06 108.53,388.75 104.44,389.56 100.31,390.31 96.188,390.88 95.125,390.97 92.094,391.19 88.812,390.97 87.969,390.91 83.844,390.31 79.75,389.5 75.625,388.53 71.5,387.56 67.406,386.47 64.875,385.78 63.281,385.31 59.188,384.03 55.062,382.62 50.938,381.16 49.5,380.59 46.844,379.53 42.719,377.84 38.594,375.97 37.562,375.47 34.5,373.97 30.375,371.97 27.031,370.38 26.25,370 22.156,368.25 18.031,366.56 " stroke="red" stroke-width="0.96875" stroke-linecap="round" stroke-linejoin="round" />
<polyline points="310.47,368.62 311.34,367.75 313.09,367.75 313.97,368.62 313.97,370.38 313.09,371.25 310.47,371.25 310.47,373 313.97,373 " stroke="red" stroke-width="0.71875" stroke-linecap="round" stroke-linejoin="round" />
<polyline points="316.59,373 320.09,373 318.34,367.75 " stroke="red" stroke-width="0.71875" stroke-linecap="round" stroke-linejoin="round" />
<polyline points="326.22,372.12 325.34,373 323.59,373 322.72,372.12 322.72,368.62 323.59,367.75 325.34,367.75 326.22,368.62 326.22,369.5 325.34,370.38 322.72,370.38 " stroke="red" stroke-width="0.71875" stroke-linecap="round" stroke-linejoin="round" />
<polygon points="329.72,373 328.84,372.12 328.84,368.62 329.72,367.75 331.47,367.75 332.34,368.62 332.34,372.12 331.47,373 " stroke="red" stroke-width="0.71875" stroke-linejoin="round" />
<polyline points="535.66,247 535.62,247.03 533.5,251.5 532.28,254.16 531.5,256 529.62,260.5 528.19,263.88 527.69,265.03 525.56,269.59 524.06,272.44 523.19,274.16 519.94,278.75 516.47,283.34 515.84,284.16 512.81,287.97 511.72,289.34 509.06,292.62 507.59,294.59 505.56,297.31 503.5,300.06 501.84,302 499.38,304.81 497.56,306.72 495.25,309.03 492.69,311.44 491.16,312.91 487.75,316.22 487.03,317.03 484.03,321 482.91,322.84 481.22,325.81 478.91,330.66 478.81,330.88 476.22,335.5 474.69,337.72 472.31,340.41 470.56,341.97 466.47,344.5 464.72,345.31 462.34,346.31 458.25,347.72 454.12,348.88 450,350.12 449.5,350.28 445.91,351.19 441.78,352.06 437.66,352.69 433.56,352.78 429.44,352.69 425.31,352.38 421.22,351.97 417.09,351.31 412.97,350.69 409.34,350.28 408.88,350.22 404.75,350.06 403.91,350.28 400.62,351.16 396.53,352.28 392.41,353.09 388.31,353.5 384.19,352.72 380.06,351.59 376.12,350.28 375.97,350.19 371.84,348.31 367.72,346.28 365.84,345.31 363.62,344.09 359.5,341.81 357,340.41 355.38,339.44 351.28,336.81 349.22,335.5 347.16,334.09 343.03,331.34 342,330.66 338.94,328.09 335.88,325.81 334.81,324.88 330.69,321.5 330.03,321 326.59,318.12 324,316.22 323.94,316.16 " stroke="red" stroke-width="0.96875" stroke-linecap="round" stroke-linejoin="round" />
<polyline points="301.62,306.91 300.88,306.72 297.78,305.81 293.69,304.75 289.56,303.78 285.44,302.66 282.78,302 281.34,301.62 277.22,300.66 273.09,299.88 269,299.19 264.88,298.66 260.75,298.25 256.66,297.97 252.53,297.75 248.41,297.66 244.31,297.81 240.19,298.22 236.06,299.34 231.97,300.81 229.22,302 227.84,302.53 223.72,304.31 219.62,305.5 215.5,306.69 215.47,306.72 211.41,307.91 207.28,309.31 203.5,311.44 203.16,311.66 199.06,314.19 195.69,316.22 194.94,316.62 190.81,318.81 186.97,321 186.72,321.12 182.59,323.56 179.19,325.81 178.47,326.25 174.38,329.06 171.88,330.66 170.25,331.66 166.12,334.09 163.69,335.5 162.03,336.41 157.91,338.47 153.94,340.41 153.78,340.47 149.69,342.12 145.56,343.62 141.44,344.97 140.03,345.31 137.34,346 133.22,346.91 129.12,347.75 125,348.56 120.88,349.44 116.78,350.25 116.66,350.28 112.66,350.94 108.53,351.5 104.44,351.69 100.31,351.78 96.188,351.75 92.094,351.72 87.969,351.88 83.844,352.03 79.75,352.12 75.625,352.16 71.5,352.06 67.406,351.84 63.281,351.5 59.188,350.97 55.344,350.28 55.062,350.22 50.938,349.22 46.844,348.12 42.719,346.94 38.594,345.66 37.625,345.31 34.5,344.16 30.375,342.56 26.25,340.91 25.125,340.41 22.156,339 18.031,337.06 " stroke="red" stroke-width="0.96875" stroke-linecap="round" stroke-linejoin="round" />
<polyline points="304.59,309.69 305.47,308.81 307.22,308.81 308.09,309.69 308.09,311.44 307.22,312.31 304.59,312.31 304.59,314.06 308.09,314.06 " stroke="red" stroke-width="0.71875" stroke-linecap="round" stroke-linejoin="round" />
<polygon points="311.59,314.06 310.72,313.19 310.72,312.31 311.59,311.44 313.34,311.44 314.22,312.31 314.22,313.19 313.34,314.06 " stroke="red" stroke-width="0.71875" stroke-linejoin="round" />
<polyline points="311.59,311.44 310.72,310.56 310.72,309.69 311.59,308.81 313.34,308.81 314.22,309.69 314.22,310.56 313.34,311.44 " stroke="red" stroke-width="0.71875" stroke-linecap="round" stroke-linejoin="round" />
<polyline points="316.84,313.19 317.72,314.06 319.47,314.06 320.34,313.19 320.34,312.31 316.84,308.81 320.34,308.81 " stroke="red" stroke-width="0.71875" stroke-linecap="round" stroke-linejoin="round" />
<polygon points="323.84,314.06 322.97,313.19 322.97,309.69 323.84,308.81 325.59,308.81 326.47,309.69 326.47,313.19 325.59,314.06 " stroke="red" stroke-width="0.71875" stroke-linejoin="round" />
</g>
</svg>
