<?xml version="1.0" encoding="ISO-8859-1" standalone="no"?>
<!DOCTYPE svg PUBLIC "-//W3C//DTD SVG 1.1//EN" "http://www.w3.org/Graphics/SVG/1.1/DTD/svg11.dtd">
<svg version="1.1" baseProfile="full" id="body" width="900px" height="600px" viewBox="0 0.2 1 0.55" preserveAspectRatio="none" xmlns="http://www.w3.org/2000/svg" xmlns:xlink="http://www.w3.org/1999/xlink" xmlns:ev="http://www.w3.org/2001/xml-events">
<title>SVG drawing</title>
<desc>This was produced by version 4.2 of GNU libplot, a free library for exporting 2-D vector graphics.</desc>
<rect id="background" x="0" y="0" width="1" height="1" stroke="none" fill="none"/>
<g id="content" transform="translate(-0.03125,1.1875) scale(1,-1) scale(0.0017361) " xml:space="preserve" stroke="black" stroke-linecap="butt" stroke-linejoin="miter" stroke-miterlimit="10.433" stroke-dasharray="none" stroke-dashoffset="0" stroke-opacity="1" fill="none" fill-rule="even-odd" fill-opacity="1" font-style="normal" font-variant="normal" font-weight="normal" font-stretch="normal" font-size-adjust="none" letter-spacing="normal" word-spacing="normal" text-anchor="start">
<polyline points="357.41,568.66 357.44,568.62 356.56,561.84 355.38,560.22 351.84,556.44 " stroke="red" stroke-width="0.96875" stroke-linecap="round" stroke-linejoin="round" />
<polyline points="325.47,553.34 322.53,555.12 322.47,555.19 319.22,561.84 320.75,568.62 320.78,568.66 " stroke="red" stroke-width="0.96875" stroke-linecap="round" stroke-linejoin="round" />
<polyline points="328.44,549.97 329.31,549.09 331.06,549.09 331.94,549.97 331.94,551.72 331.06,552.59 328.44,552.59 328.44,554.34 331.94,554.34 " stroke="red" stroke-width="0.71875" stroke-linecap="round" stroke-linejoin="round" />
<polyline points="334.56,553.47 335.44,554.34 337.19,554.34 338.06,553.47 338.06,552.59 334.56,549.09 338.06,549.09 " stroke="red" stroke-width="0.71875" stroke-linecap="round" stroke-linejoin="round" />
<polyline points="340.69,553.47 341.56,554.34 343.31,554.34 344.19,553.47 344.19,552.59 340.69,549.09 344.19,549.09 " stroke="red" stroke-width="0.71875" stroke-linecap="round" stroke-linejoin="round" />
<polygon points="347.69,554.34 346.81,553.47 346.81,549.97 347.69,549.09 349.44,549.09 350.31,549.97 350.31,553.47 349.44,554.34 " stroke="red" stroke-width="0.71875" stroke-linejoin="round" />
<polyline points="32.781,568.66 32.781,568.62 31.031,561.84 30.375,559.81 28.875,555.12 26.25,549.03 26.031,548.47 25.156,546.62 " stroke="red" stroke-width="0.96875" stroke-linecap="round" stroke-linejoin="round" />
<polyline points="21.156,537.16 20.562,535.38 18.875,528.97 18.031,526.34 " stroke="red" stroke-width="0.96875" stroke-linecap="round" stroke-linejoin="round" />
<polyline points="18.562,543.66 19.438,544.53 21.188,544.53 22.062,543.66 22.062,542.78 18.562,539.28 22.062,539.28 " stroke="red" stroke-width="0.71875" stroke-linecap="round" stroke-linejoin="round" />
<polygon points="25.562,544.53 24.688,543.66 24.688,542.78 25.562,541.91 27.312,541.91 28.188,542.78 28.188,543.66 27.312,544.53 " stroke="red" stroke-width="0.71875" stroke-linejoin="round" />
<polyline points="25.562,541.91 24.688,541.03 24.688,540.16 25.562,539.28 27.312,539.28 28.188,540.16 28.188,541.03 27.312,541.91 " stroke="red" stroke-width="0.71875" stroke-linecap="round" stroke-linejoin="round" />
<polygon points="31.688,544.53 30.812,543.66 30.812,540.16 31.688,539.28 33.438,539.28 34.312,540.16 34.312,543.66 33.438,544.53 " stroke="red" stroke-width="0.71875" stroke-linejoin="round" />
<polyline points="292.38,568.66 292.38,568.62 291.59,561.84 291.91,555.12 293.5,548.47 293.69,548 296.12,541.91 297.78,538.94 300,535.38 301.91,533.03 305.94,528.97 306.03,528.91 310.12,527.22 314.25,526.12 318.34,525.5 321.34,525.38 " stroke="red" stroke-width="0.96875" stroke-linecap="round" stroke-linejoin="round" />
<polyline points="348.28,530.88 351.28,532.06 355.38,533.84 358.69,535.38 359.5,535.84 363.62,538.31 367.72,541.12 368.75,541.91 371.84,544.62 375.5,548.47 375.97,549.03 380.06,554.16 380.84,555.12 384.19,561.28 384.47,561.84 387.19,568.62 387.19,568.66 " stroke="red" stroke-width="0.96875" stroke-linecap="round" stroke-linejoin="round" />
<polyline points="324.31,525.09 325.19,524.22 326.94,524.22 327.81,525.09 327.81,526.84 326.94,527.72 324.31,527.72 324.31,529.47 327.81,529.47 " stroke="red" stroke-width="0.71875" stroke-linecap="round" stroke-linejoin="round" />
<polyline points="330.44,528.59 331.31,529.47 333.06,529.47 333.94,528.59 333.94,527.72 330.44,524.22 333.94,524.22 " stroke="red" stroke-width="0.71875" stroke-linecap="round" stroke-linejoin="round" />
<polygon points="337.44,529.47 336.56,528.59 336.56,527.72 337.44,526.84 339.19,526.84 340.06,527.72 340.06,528.59 339.19,529.47 " stroke="red" stroke-width="0.71875" stroke-linejoin="round" />
<polyline points="337.44,526.84 336.56,525.97 336.56,525.09 337.44,524.22 339.19,524.22 340.06,525.09 340.06,525.97 339.19,526.84 " stroke="red" stroke-width="0.71875" stroke-linecap="round" stroke-linejoin="round" />
<polygon points="343.56,529.47 342.69,528.59 342.69,525.09 343.56,524.22 345.31,524.22 346.19,525.09 346.19,528.59 345.31,529.47 " stroke="red" stroke-width="0.71875" stroke-linejoin="round" />
<polyline points="60.906,568.66 60.906,568.62 59.281,561.84 59.188,561.47 55.938,555.12 55.062,553.94 51.219,548.47 50.938,548.09 47.062,541.91 46.844,541.5 43.438,535.38 42.719,534.19 42.625,534.06 " stroke="red" stroke-width="0.96875" stroke-linecap="round" stroke-linejoin="round" />
<polyline points="34.219,524.62 32.75,522.59 30.375,518.94 29.062,516.28 26.25,510.25 26.156,510.06 23.25,503.88 22.156,502.44 18.344,497.75 18.031,497.41 " stroke="red" stroke-width="0.96875" stroke-linecap="round" stroke-linejoin="round" />
<polyline points="28.094,527.59 28.969,526.72 30.719,526.72 31.594,527.59 31.594,529.34 30.719,530.22 28.094,530.22 28.094,531.97 31.594,531.97 " stroke="red" stroke-width="0.71875" stroke-linecap="round" stroke-linejoin="round" />
<polyline points="34.219,531.09 35.094,531.97 36.844,531.97 37.719,531.09 37.719,530.22 36.844,529.34 35.969,529.34 36.844,529.34 37.719,528.47 37.719,527.59 36.844,526.72 35.094,526.72 34.219,527.59 " stroke="red" stroke-width="0.71875" stroke-linecap="round" stroke-linejoin="round" />
<polyline points="42.094,531.97 40.344,529.34 43.844,529.34 43.844,531.97 43.844,526.72 " stroke="red" stroke-width="0.71875" stroke-linecap="round" stroke-linejoin="round" />
<polygon points="47.344,531.97 46.469,531.09 46.469,527.59 47.344,526.72 49.094,526.72 49.969,527.59 49.969,531.09 49.094,531.97 " stroke="red" stroke-width="0.71875" stroke-linejoin="round" />
<polyline points="273.22,568.66 273.22,568.62 273.88,561.84 274.84,555.12 276.22,548.47 277.22,545.06 278.16,541.91 280.88,535.38 281.34,534.59 284.75,528.97 285.44,528.06 289.56,523.34 290.25,522.59 293.69,519.5 297.78,516.62 298.38,516.28 301.91,514.59 306.03,513.12 310.12,512.25 314.25,511.66 318.34,511.38 322.47,511.38 325.47,511.62 " stroke="red" stroke-width="0.96875" stroke-linecap="round" stroke-linejoin="round" />
<polyline points="352.06,518.97 355.38,520.28 359.5,521.84 361.28,522.59 363.62,523.62 367.72,525.69 371.84,528.12 372.91,528.97 375.97,531.62 380,535.38 380.06,535.44 384.19,539.59 386.53,541.91 388.31,543.81 392.41,548 392.88,548.47 396.53,552.88 398.38,555.12 400.62,558.72 402.69,561.84 404.75,565.28 407.12,568.62 407.16,568.66 " stroke="red" stroke-width="0.96875" stroke-linecap="round" stroke-linejoin="round" />
<polyline points="328.44,512.5 329.31,511.62 331.06,511.62 331.94,512.5 331.94,514.25 331.06,515.12 328.44,515.12 328.44,516.88 331.94,516.88 " stroke="red" stroke-width="0.71875" stroke-linecap="round" stroke-linejoin="round" />
<polyline points="334.56,516 335.44,516.88 337.19,516.88 338.06,516 338.06,515.12 337.19,514.25 336.31,514.25 337.19,514.25 338.06,513.38 338.06,512.5 337.19,511.62 335.44,511.62 334.56,512.5 " stroke="red" stroke-width="0.71875" stroke-linecap="round" stroke-linejoin="round" />
<polyline points="342.44,516.88 340.69,514.25 344.19,514.25 344.19,516.88 344.19,511.62 " stroke="red" stroke-width="0.71875" stroke-linecap="round" stroke-linejoin="round" />
<polygon points="347.69,516.88 346.81,516 346.81,512.5 347.69,511.62 349.44,511.62 350.31,512.5 350.31,516 349.44,516.88 " stroke="red" stroke-width="0.71875" stroke-linejoin="round" />
<polyline points="87.938,568.66 87.906,568.62 83.844,565.12 80.781,561.84 79.75,560.5 76.469,555.12 75.625,552.59 74.5,548.47 72.156,541.91 71.5,540.62 67.688,535.38 67.406,535.12 65.906,533.97 " stroke="red" stroke-width="0.96875" stroke-linecap="round" stroke-linejoin="round" />
<polyline points="55.656,524.53 55.062,523.72 54.219,522.59 50.938,518.81 48.625,516.28 46.844,514.59 42.719,510.78 42,510.06 38.594,506.28 36.812,503.88 34.5,500.69 32.406,497.75 30.375,495.19 27.5,491.69 26.25,490.38 22.156,486.62 21.188,485.69 18.031,482.75 " stroke="red" stroke-width="0.96875" stroke-linecap="round" stroke-linejoin="round" />
<polyline points="48.688,527.5 49.562,526.62 51.312,526.62 52.188,527.5 52.188,529.25 51.312,530.12 48.688,530.12 48.688,531.88 52.188,531.88 " stroke="red" stroke-width="0.71875" stroke-linecap="round" stroke-linejoin="round" />
<polyline points="56.562,531.88 54.812,529.25 58.312,529.25 58.312,531.88 58.312,526.62 " stroke="red" stroke-width="0.71875" stroke-linecap="round" stroke-linejoin="round" />
<polygon points="61.812,531.88 60.938,531 60.938,527.5 61.812,526.62 63.562,526.62 64.438,527.5 64.438,531 63.562,531.88 " stroke="red" stroke-width="0.71875" stroke-linejoin="round" />
<polygon points="67.938,531.88 67.062,531 67.062,527.5 67.938,526.62 69.688,526.62 70.562,527.5 70.562,531 69.688,531.88 " stroke="red" stroke-width="0.71875" stroke-linejoin="round" />
<polyline points="235.97,568.66 236,568.62 236.06,568.5 239.78,561.84 240.19,561.16 243.28,555.12 244.31,553.25 246.69,548.47 248.41,545.34 250.19,541.91 252.53,537.94 253.94,535.38 256.66,531.19 258,528.97 260.75,525.19 262.62,522.59 264.88,519.88 267.88,516.28 269,515.16 273.09,511.16 274.38,510.06 277.22,507.94 281.34,505.31 284.12,503.88 285.44,503.19 289.56,501.38 293.69,500.12 297.78,499.25 301.91,498.72 306.03,498.41 310.12,498.19 314.25,498.09 317.22,498.19 " stroke="red" stroke-width="0.96875" stroke-linecap="round" stroke-linejoin="round" />
<polyline points="344.19,503.94 347.16,505.12 351.28,506.84 355.38,508.56 359.5,510.03 359.56,510.06 363.62,511.53 367.72,513.16 371.84,515.03 373.94,516.28 375.97,517.59 380.06,520.59 382.47,522.59 384.19,524.09 388.31,527.91 389.59,528.97 392.41,531.09 396.53,534.25 398,535.38 400.62,537.62 404.75,541.25 405.53,541.91 408.88,544.84 412.94,548.47 412.97,548.53 417.09,552.47 419.81,555.12 421.22,556.72 425.25,561.84 425.31,561.91 429.44,567.44 430.38,568.62 430.41,568.66 " stroke="red" stroke-width="0.96875" stroke-linecap="round" stroke-linejoin="round" />
<polyline points="320.19,497.91 321.06,497.03 322.81,497.03 323.69,497.91 323.69,499.66 322.81,500.53 320.19,500.53 320.19,502.28 323.69,502.28 " stroke="red" stroke-width="0.71875" stroke-linecap="round" stroke-linejoin="round" />
<polyline points="328.06,502.28 326.31,499.66 329.81,499.66 329.81,502.28 329.81,497.03 " stroke="red" stroke-width="0.71875" stroke-linecap="round" stroke-linejoin="round" />
<polygon points="333.31,502.28 332.44,501.41 332.44,497.91 333.31,497.03 335.06,497.03 335.94,497.91 335.94,501.41 335.06,502.28 " stroke="red" stroke-width="0.71875" stroke-linejoin="round" />
<polygon points="339.44,502.28 338.56,501.41 338.56,497.91 339.44,497.03 341.19,497.03 342.06,497.91 342.06,501.41 341.19,502.28 " stroke="red" stroke-width="0.71875" stroke-linejoin="round" />
<polyline points="460.38,568.66 460.31,568.62 458.25,567.44 454.12,564.66 450.84,561.84 450,561.09 445.91,557.19 443.84,555.12 441.78,553.03 437.66,548.75 437.41,548.47 433.56,544.53 430.91,541.91 429.44,540.5 425.31,536.75 423.75,535.38 421.22,533.28 417.09,530.31 415.12,528.97 412.97,527.5 408.88,524.75 405.59,522.59 404.75,522.06 400.62,519.38 396.53,516.66 395.97,516.28 392.41,513.91 388.31,511.19 386.66,510.06 384.19,508.38 380.06,505.94 375.97,503.88 375.94,503.88 371.84,501.75 367.72,500.03 363.62,498.41 361.84,497.75 359.5,496.81 355.38,495.16 351.28,493.22 347.84,491.69 347.16,491.38 343.03,489.59 338.94,488.06 334.81,487.03 330.69,486.16 327.97,485.69 326.59,485.44 322.47,484.75 318.34,484.03 314.25,483.34 310.12,482.66 306.03,482.03 301.91,481.31 297.78,480.72 293.69,480.31 289.56,480.19 285.44,480.84 281.34,481.81 277.22,483.03 273.09,484.44 269.03,485.69 269,485.69 264.88,487.38 260.75,489.44 256.94,491.69 256.66,491.91 252.53,495.16 249.5,497.75 249.22,498 " stroke="red" stroke-width="0.96875" stroke-linecap="round" stroke-linejoin="round" />
<polyline points="238.69,507.47 236.06,509.5 235.41,510.06 231.97,513.22 228.88,516.28 227.84,517.47 223.72,522.56 223.72,522.59 219.62,527.78 218.59,528.97 215.5,531.88 211.5,535.38 211.41,535.5 207.28,539.03 203.81,541.91 203.16,542.44 199.06,545.56 194.94,548.28 194.62,548.47 190.81,550.75 186.72,553.19 182.97,555.12 182.59,555.31 178.47,557.22 174.38,558.78 170.25,559.66 166.12,560.28 162.03,560.62 157.91,560.78 153.78,561.06 149.69,561.12 145.56,560.88 141.44,560.31 137.34,558.94 133.22,557.12 129.41,555.12 129.12,554.94 125,552.25 120.88,549.91 118.34,548.47 116.78,547.62 112.66,545.38 108.53,543.03 106.94,541.91 104.44,540.03 100.31,536.12 99.688,535.38 96.188,531 94.844,528.97 92.094,525.41 90.281,522.59 87.969,519.38 85.688,516.28 83.844,514.09 80.094,510.06 79.75,509.69 75.625,506.22 71.5,504.03 71.156,503.88 67.406,502.03 63.281,499.97 59.281,497.75 59.188,497.69 55.062,495.91 50.938,493.94 46.969,491.69 46.844,491.62 42.719,488.84 39.375,485.69 38.594,485.03 34.5,481.47 32.406,479.75 30.375,478.19 26.25,475 24.594,473.84 22.156,472.25 18.031,469.53 " stroke="red" stroke-width="0.96875" stroke-linecap="round" stroke-linejoin="round" />
<polyline points="233.81,501 234.69,500.12 236.44,500.12 237.31,501 237.31,502.75 236.44,503.62 233.81,503.62 233.81,505.38 237.31,505.38 " stroke="red" stroke-width="0.71875" stroke-linecap="round" stroke-linejoin="round" />
<polyline points="241.69,505.38 239.94,502.75 243.44,502.75 243.44,505.38 243.44,500.12 " stroke="red" stroke-width="0.71875" stroke-linecap="round" stroke-linejoin="round" />
<polyline points="249.56,504.5 248.69,505.38 246.94,505.38 246.06,504.5 246.06,501 246.94,500.12 248.69,500.12 249.56,501 249.56,501.88 248.69,502.75 246.06,502.75 " stroke="red" stroke-width="0.71875" stroke-linecap="round" stroke-linejoin="round" />
<polygon points="253.06,505.38 252.19,504.5 252.19,501 253.06,500.12 254.81,500.12 255.69,501 255.69,504.5 254.81,505.38 " stroke="red" stroke-width="0.71875" stroke-linejoin="round" />
<polyline points="594,561.91 589.88,562.28 585.78,562.81 581.66,563.19 577.53,563.59 573.44,564 569.31,564.38 565.19,564.69 561.09,564.94 556.97,565.16 552.88,565.31 548.75,565.34 544.62,565.31 540.53,565.22 536.41,565.03 532.28,564.81 528.19,564.5 524.06,564.09 519.94,563.56 515.84,562.84 511.72,562 510.97,561.84 507.59,561.03 503.5,559.91 499.38,558.59 495.25,557.16 491.16,555.56 490,555.12 487.03,553.88 482.91,552.19 478.81,550.47 474.69,548.62 474.38,548.47 470.56,546.66 466.47,544.69 462.34,542.53 461.25,541.91 458.25,540.19 454.12,537.56 451.38,535.38 450,534.34 445.91,530.97 443.47,528.97 441.78,527.62 437.66,524.44 435.25,522.59 433.56,521.31 429.44,518.22 426.84,516.28 425.31,515.16 421.22,512.25 417.53,510.06 417.09,509.78 412.97,507.41 408.88,505.12 406.59,503.88 404.75,502.78 400.62,500.09 397.06,497.75 396.53,497.41 392.41,494.69 388.31,492.16 387.44,491.69 384.19,489.94 380.06,487.94 375.97,486.19 374.69,485.69 371.84,484.53 367.72,482.97 363.62,481.44 359.5,479.97 358.88,479.75 355.38,478.38 351.28,476.59 347.16,475 343.84,473.84 343.03,473.56 338.94,472.22 334.81,471.31 330.69,470.53 326.59,469.81 322.47,469.16 318.34,468.38 316.19,468 314.25,467.62 311.25,467.12 " stroke="red" stroke-width="0.96875" stroke-linecap="round" stroke-linejoin="round" />
<polyline points="284.31,465.81 281.34,466.28 277.22,467.09 273.09,468 269,468.72 264.88,469.47 260.75,470.31 256.66,471.25 252.53,472.47 248.41,473.84 244.31,475.53 240.19,477.47 236.59,479.75 236.06,480.19 231.97,483.75 229.59,485.69 227.84,487.09 223.72,490.22 221.66,491.69 219.62,493.22 215.5,496.25 213.44,497.75 211.41,499.34 207.28,502.56 205.56,503.88 203.16,506.03 199.06,509.47 198.31,510.06 194.94,512.69 190.81,515.5 189.12,516.28 186.72,517.44 182.59,519.09 178.47,520.59 174.38,521.91 172.28,522.59 170.25,523.22 166.12,524.16 162.03,524.75 157.91,525 153.78,525 149.69,524.69 145.56,523.88 141.72,522.59 141.44,522.5 137.34,520.03 133.22,517.34 131.59,516.28 129.12,514.75 125,512.28 120.88,510.38 120.25,510.06 116.78,508.28 112.66,505.88 109.72,503.88 108.53,503.06 104.44,500.06 101.38,497.75 100.31,497.03 96.188,494.16 92.5,491.69 92.094,491.44 87.969,488.94 83.844,486.72 81.812,485.69 79.75,484.75 75.625,482.84 71.5,480.59 70.062,479.75 67.406,478.19 63.281,475.78 59.875,473.84 59.188,473.44 55.062,471.97 50.938,470.53 46.844,469 44.344,468 42.719,467.34 38.594,465.28 34.5,463.19 32.594,462.19 30.375,461.06 26.25,458.94 22.156,456.94 21.25,456.47 18.031,454.84 " stroke="red" stroke-width="0.96875" stroke-linecap="round" stroke-linejoin="round" />
<polyline points="287.28,463.62 288.16,462.75 289.91,462.75 290.78,463.62 290.78,465.38 289.91,466.25 287.28,466.25 287.28,468 290.78,468 " stroke="red" stroke-width="0.71875" stroke-linecap="round" stroke-linejoin="round" />
<polyline points="293.41,463.62 294.28,462.75 296.03,462.75 296.91,463.62 296.91,465.38 296.03,466.25 293.41,466.25 293.41,468 296.91,468 " stroke="red" stroke-width="0.71875" stroke-linecap="round" stroke-linejoin="round" />
<polyline points="299.53,467.12 300.41,468 302.16,468 303.03,467.12 303.03,466.25 299.53,462.75 303.03,462.75 " stroke="red" stroke-width="0.71875" stroke-linecap="round" stroke-linejoin="round" />
<polygon points="306.53,468 305.66,467.12 305.66,463.62 306.53,462.75 308.28,462.75 309.16,463.62 309.16,467.12 308.28,468 " stroke="red" stroke-width="0.71875" stroke-linejoin="round" />
<polyline points="594,537.34 589.88,538 585.78,538.84 581.66,539.38 577.53,539.91 573.44,540.41 569.31,540.88 565.19,541.16 561.09,541.38 556.97,541.47 552.88,541.44 548.75,541.19 544.62,540.88 540.53,540.47 536.41,540.03 532.28,539.66 528.19,539.25 524.06,538.75 519.94,538.22 515.84,537.66 511.72,536.97 507.59,536.16 504.56,535.38 503.5,535.12 499.38,533.5 495.25,531.69 491.16,529.75 489.53,528.97 487.03,527.75 482.91,526.06 478.81,524.34 474.69,522.59 470.56,520.75 466.47,518.84 462.34,516.78 461.47,516.28 458.25,514.5 454.12,512.06 450.75,510.06 450,509.59 445.91,507.12 441.78,504.69 440.44,503.88 437.66,502.06 433.56,499.09 431.66,497.75 429.44,496.22 425.31,493.53 422.28,491.69 421.22,491.03 417.09,488.56 412.97,486.06 412.41,485.69 408.88,483.41 404.75,480.72 403.25,479.75 400.62,478.06 396.53,475.53 393.62,473.84 392.41,473.12 388.31,470.84 384.19,468.97 381.94,468 380.06,467.16 375.97,465.38 371.84,463.59 368.72,462.19 367.72,461.75 363.62,459.88 359.5,458.06 355.53,456.47 355.38,456.41 351.28,455.03 347.16,453.81 343.03,452.75 338.94,451.84 334.81,451.03 333.16,450.75 330.69,450.31 326.59,449.69 322.47,449.16 319.5,448.84 " stroke="red" stroke-width="0.96875" stroke-linecap="round" stroke-linejoin="round" />
<polyline points="292.53,448.09 289.56,448.28 285.44,448.84 281.34,449.66 277.22,450.66 276.81,450.75 273.09,451.72 269,452.78 264.88,453.91 260.75,455.12 256.66,456.44 256.59,456.47 252.53,457.53 248.41,458.69 244.31,459.94 240.19,461.25 237.31,462.19 236.06,462.62 231.97,464.19 227.84,466.09 224.38,468 223.72,468.38 219.62,470.84 215.5,473.44 214.81,473.84 211.41,475.88 207.28,478.06 203.16,479.16 199.84,479.75 199.06,479.88 194.94,480.56 190.81,481.41 186.72,483.62 182.81,485.69 182.59,485.78 178.47,487.66 174.38,489.09 170.25,490 166.12,490.72 162.03,491.19 157.91,491.28 153.78,490.66 149.69,489.72 145.56,488.62 141.44,487.47 137.34,486.31 135.44,485.69 133.22,485 129.12,483.56 125,481.88 121.16,479.75 120.88,479.59 116.78,477.41 112.66,475.28 109.62,473.84 108.53,473.38 104.44,472 100.31,470.72 96.188,469.53 92.094,468.31 91.031,468 87.969,467.03 83.844,465.56 79.75,463.91 75.969,462.19 75.625,462.03 71.5,459.78 67.406,457.56 65.312,456.47 63.281,455.34 59.188,453.25 55.062,451.62 52.719,450.75 50.938,450.09 46.844,448.59 42.719,447.03 38.594,445.31 38.156,445.12 34.5,443.5 30.375,441.62 26.25,439.75 25.625,439.5 22.156,438.06 18.031,436.28 " stroke="red" stroke-width="0.96875" stroke-linecap="round" stroke-linejoin="round" />
<polyline points="295.53,446.38 296.41,445.5 298.16,445.5 299.03,446.38 299.03,448.12 298.16,449 295.53,449 295.53,450.75 299.03,450.75 " stroke="red" stroke-width="0.71875" stroke-linecap="round" stroke-linejoin="round" />
<polyline points="301.66,446.38 302.53,445.5 304.28,445.5 305.16,446.38 305.16,448.12 304.28,449 301.66,449 301.66,450.75 305.16,450.75 " stroke="red" stroke-width="0.71875" stroke-linecap="round" stroke-linejoin="round" />
<polygon points="308.66,450.75 307.78,449.88 307.78,449 308.66,448.12 310.41,448.12 311.28,449 311.28,449.88 310.41,450.75 " stroke="red" stroke-width="0.71875" stroke-linejoin="round" />
<polyline points="308.66,448.12 307.78,447.25 307.78,446.38 308.66,445.5 310.41,445.5 311.28,446.38 311.28,447.25 310.41,448.12 " stroke="red" stroke-width="0.71875" stroke-linecap="round" stroke-linejoin="round" />
<polygon points="314.78,450.75 313.91,449.88 313.91,446.38 314.78,445.5 316.53,445.5 317.41,446.38 317.41,449.88 316.53,450.75 " stroke="red" stroke-width="0.71875" stroke-linejoin="round" />
<polyline points="594,443.88 593.84,445.12 593.56,450.75 593.78,456.47 593.34,462.19 593.06,468 593.03,473.84 593.47,479.75 590.62,485.69 589.88,487.16 587.59,491.69 585.78,494.59 582.41,497.75 581.66,498.31 577.53,500.91 573.44,503.06 571.5,503.88 569.31,504.62 565.19,505.66 561.09,506.44 556.97,507.06 552.88,507.53 548.75,508.03 544.62,508.41 540.53,508.66 536.41,508.78 532.28,508.62 528.19,508.38 524.06,508.06 519.94,507.66 515.84,507.47 511.72,507.19 507.59,506.78 503.5,506.16 499.38,505.12 495.25,503.97 494.97,503.88 491.16,502.59 487.03,501.12 482.91,499.69 478.81,498.19 477.69,497.75 474.69,496.53 470.56,494.78 466.47,492.81 464.19,491.69 462.34,490.78 458.25,488.62 454.12,486.41 452.88,485.69 450,483.94 445.91,481.34 443.41,479.75 441.78,478.72 437.66,476.28 433.56,474.12 433,473.84 429.44,471.91 425.31,469.56 422.66,468 421.22,467.09 417.09,464.69 412.97,462.47 412.5,462.19 408.88,460.28 404.75,458.19 401.66,456.47 400.62,455.84 396.53,453.44 392.41,451.12 391.75,450.75 388.31,448.88 384.19,446.78 380.75,445.12 380.06,444.78 375.97,442.75 371.84,440.78 369.25,439.5 367.72,438.75 363.62,436.72 359.5,434.78 357.62,433.97 355.38,432.94 351.28,431.16 347.16,429.38 346.88,429.28 " stroke="red" stroke-width="0.96875" stroke-linecap="round" stroke-linejoin="round" />
<polyline points="321.34,421.47 318.34,421.03 314.25,420.62 310.12,420.41 306.03,420.38 301.91,420.62 297.78,421 293.69,421.53 289.56,422.19 285.44,422.72 283.97,422.97 281.34,423.34 277.22,424.06 273.09,424.97 269,426.31 264.88,427.84 263.34,428.44 260.75,429.38 256.66,430.91 252.53,432.25 248.41,433.72 247.78,433.97 244.31,435.28 240.19,436.97 236.06,438.72 234.16,439.5 231.97,440.31 227.84,441.72 223.72,443.09 219.62,444.5 217.91,445.12 215.5,445.94 211.41,447.44 207.28,449 203.16,450.59 202.69,450.75 199.06,452.06 194.94,453.41 190.81,454.56 186.72,455.41 182.59,456.12 180.44,456.47 178.47,456.75 174.38,457.41 170.25,458.19 166.12,458.81 162.03,459.31 157.91,459.62 153.78,459.88 149.69,460 145.56,459.94 141.44,459.69 137.34,459.16 133.22,458.44 129.12,457.56 125,456.62 124.38,456.47 120.88,455.59 116.78,454.53 112.66,453.44 108.53,452.34 104.44,451.44 101.66,450.75 100.31,450.44 96.188,449.25 92.094,447.91 87.969,446.03 86.156,445.12 83.844,443.91 79.75,441.69 75.75,439.5 75.625,439.44 71.5,437.47 67.406,435.66 63.281,434 63.219,433.97 59.188,432.5 55.062,431.06 50.938,429.59 47.875,428.44 46.844,428.03 42.719,426.38 38.594,424.47 35.406,422.97 34.5,422.53 30.375,420.5 26.25,418.47 24.125,417.53 22.156,416.62 18.031,414.69 " stroke="red" stroke-width="0.96875" stroke-linecap="round" stroke-linejoin="round" />
<polyline points="324.31,422.81 325.19,421.94 326.94,421.94 327.81,422.81 327.81,424.56 326.94,425.44 324.31,425.44 324.31,427.19 327.81,427.19 " stroke="red" stroke-width="0.71875" stroke-linecap="round" stroke-linejoin="round" />
<polyline points="333.94,426.31 333.06,427.19 331.31,427.19 330.44,426.31 330.44,422.81 331.31,421.94 333.06,421.94 333.94,422.81 333.94,423.69 333.06,424.56 330.44,424.56 " stroke="red" stroke-width="0.71875" stroke-linecap="round" stroke-linejoin="round" />
<polyline points="338.31,427.19 336.56,424.56 340.06,424.56 340.06,427.19 340.06,421.94 " stroke="red" stroke-width="0.71875" stroke-linecap="round" stroke-linejoin="round" />
<polygon points="343.56,427.19 342.69,426.31 342.69,422.81 343.56,421.94 345.31,421.94 346.19,422.81 346.19,426.31 345.31,427.19 " stroke="red" stroke-width="0.71875" stroke-linejoin="round" />
<polyline points="594,380.34 593.75,380.59 589.88,385.03 589.38,385.78 586.16,390.97 585.78,391.69 583.81,396.22 581.78,401.47 581.66,401.84 579.94,406.78 578.16,412.16 577.53,414.25 576.5,417.53 574.72,422.97 573.44,426.72 572.75,428.44 570.34,433.97 569.31,436.12 567.38,439.5 565.19,443 563.59,445.12 561.09,448.16 558.5,450.75 556.97,452.19 552.88,455.5 551.69,456.47 548.75,458.81 544.62,461.69 543.81,462.19 540.53,464.06 536.41,465.97 532.28,467.62 531.12,468 528.19,468.91 524.06,469.88 519.94,470.59 515.84,470.91 511.72,471 507.59,470.88 503.5,470.59 499.38,470.16 495.25,469.56 491.16,468.81 487.28,468 487.03,467.94 482.91,466.97 478.81,465.84 474.69,464.56 470.56,463.12 468.44,462.19 466.47,461.31 462.34,459.34 458.25,457.38 456.34,456.47 454.12,455.44 450,453.94 445.91,452.44 441.78,450.88 441.5,450.75 437.66,449.06 433.56,446.69 430.81,445.12 429.44,444.31 425.31,441.97 421.22,439.81 420.56,439.5 417.09,437.81 412.97,435.88 408.97,433.97 408.88,433.91 404.75,431.91 400.62,429.91 397.59,428.44 396.53,427.91 392.41,425.81 388.31,423.69 386.84,422.97 384.19,421.56 380.06,419.41 376.47,417.53 375.97,417.28 371.84,415.09 367.72,413.12 365.59,412.16 363.62,411.16 359.5,409.12 355.38,407.06 354.91,406.78 351.28,404.66 347.16,402.38 345.47,401.47 343.03,400.19 338.94,398.09 335.31,396.22 335,396.03 " stroke="red" stroke-width="0.96875" stroke-linecap="round" stroke-linejoin="round" />
<polyline points="316.41,386.59 314.41,385.78 314.25,385.69 310.12,383.97 306.03,382.16 302.19,380.59 301.91,380.47 297.78,378.88 293.69,377.38 289.56,376.09 286.19,375.47 285.44,375.34 281.34,375 277.22,374.97 273.09,375.25 270.03,375.47 269,375.53 264.88,376.12 260.75,377 256.66,378.19 252.53,380 251.44,380.59 248.41,382.41 244.31,385.31 243.72,385.78 240.19,388.66 237.41,390.97 236.06,392.06 231.97,395.66 231.38,396.22 227.84,399.31 225.44,401.47 223.72,402.88 219.62,405.75 217.97,406.78 215.5,408.19 211.41,410.41 207.94,412.16 207.28,412.44 203.16,414.66 199.06,416.78 197.56,417.53 194.94,418.78 190.81,420.59 186.72,422 183.72,422.97 182.59,423.31 178.47,424.62 174.38,426 170.25,427.84 168.88,428.44 166.12,429.53 162.03,430.97 157.91,432.16 153.78,432.72 149.69,433.03 145.56,433.16 141.44,433.12 137.34,433.03 133.22,432.78 129.12,432.41 125,431.88 120.88,431.19 116.78,430.38 112.66,429.44 108.78,428.44 108.53,428.38 104.44,427.06 100.31,425.56 96.188,423.91 93.969,422.97 92.094,422.16 87.969,420.84 83.844,419.72 79.75,418.75 75.625,417.84 74.594,417.53 71.5,416.62 67.406,415.31 63.281,413.91 59.188,412.41 58.531,412.16 55.062,410.62 50.938,408.81 46.844,406.97 46.438,406.78 42.719,405.06 38.594,403.12 35.031,401.47 34.5,401.22 30.375,399.25 26.25,397.31 23.844,396.22 22.156,395.38 18.031,393.31 " stroke="red" stroke-width="0.96875" stroke-linecap="round" stroke-linejoin="round" />
<polyline points="316.09,389.56 316.97,388.69 318.72,388.69 319.59,389.56 319.59,391.31 318.72,392.19 316.09,392.19 316.09,393.94 319.59,393.94 " stroke="red" stroke-width="0.71875" stroke-linecap="round" stroke-linejoin="round" />
<polyline points="322.22,393.94 325.72,393.94 323.97,388.69 " stroke="red" stroke-width="0.71875" stroke-linecap="round" stroke-linejoin="round" />
<polygon points="329.22,393.94 328.34,393.06 328.34,389.56 329.22,388.69 330.97,388.69 331.84,389.56 331.84,393.06 330.97,393.94 " stroke="red" stroke-width="0.71875" stroke-linejoin="round" />
<polygon points="335.34,393.94 334.47,393.06 334.47,389.56 335.34,388.69 337.09,388.69 337.97,389.56 337.97,393.06 337.09,393.94 " stroke="red" stroke-width="0.71875" stroke-linejoin="round" />
<polyline points="594,328.06 591.22,330.66 589.88,332.09 587.06,335.5 585.78,336.88 583.12,340.41 581.66,342.19 579.38,345.31 577.53,347.72 575.81,350.28 573.44,353.59 572.41,355.25 569.72,360.25 569.31,361.06 566.91,365.28 565.19,368.41 564.09,370.38 561.09,375.34 561,375.47 557.59,380.59 556.97,381.5 553.84,385.78 552.88,387.06 549.91,390.97 548.75,392.44 545.72,396.22 544.62,397.56 541.56,401.47 540.53,402.81 537.41,406.78 536.41,408.06 533.25,412.16 532.28,413.28 528.47,417.53 528.19,417.84 524.06,421.69 522.47,422.97 519.94,424.81 515.84,426.84 511.72,428.19 510.53,428.44 507.59,428.97 503.5,429.25 499.38,429.03 495.25,428.5 495,428.44 491.16,427.66 487.03,426.59 482.91,425.28 478.81,423.78 476.81,422.97 474.69,422.06 470.56,420.25 466.47,419 462.34,417.88 461.16,417.53 458.25,416.72 454.12,415.53 450,413.88 445.97,412.16 445.91,412.12 441.78,410.41 437.66,408.78 433.56,407.44 431.41,406.78 429.44,406.19 425.31,404.91 421.22,403.62 417.09,402.22 415.06,401.47 412.97,400.66 408.88,398.94 404.75,397.06 402.72,396.22 400.62,395.34 396.53,393.59 392.41,391.91 390.19,390.97 388.31,390.16 384.19,387.94 380.25,385.78 380.06,385.66 375.97,383.34 371.84,381.16 370.66,380.59 367.72,379.22 363.62,377.34 359.5,375.53 359.38,375.47 355.38,373.59 351.28,371.56 348.94,370.38 347.16,369.41 343.03,367.12 339.69,365.28 338.94,364.84 338.59,364.66 " stroke="red" stroke-width="0.96875" stroke-linecap="round" stroke-linejoin="round" />
<polyline points="323.09,355.22 322.47,354.81 318.34,352.56 314.25,350.66 313.31,350.28 310.12,348.81 306.03,347.03 302.06,345.31 301.91,345.25 297.78,343.66 293.69,342.34 289.56,341.28 285.44,340.41 285.38,340.41 281.34,339.72 277.22,339.22 273.09,338.94 269,338.97 264.88,339.19 260.75,339.53 256.66,339.97 252.53,340.34 252.22,340.41 248.41,340.94 244.31,341.75 240.19,342.97 236.06,344.88 235.28,345.31 231.97,347.28 227.84,350.06 227.56,350.28 223.72,353.03 220.75,355.25 219.62,356.12 215.5,359.75 214.97,360.25 211.41,363.97 210.16,365.28 207.28,368.56 205.38,370.38 203.16,372.38 199.59,375.47 199.06,375.94 194.94,379.44 193.56,380.59 190.81,382.88 186.94,385.78 186.72,385.94 182.59,388.59 178.62,390.97 178.47,391.03 174.38,393.16 170.25,395.91 169.81,396.22 166.12,398.5 162.03,400.88 160.78,401.47 157.91,402.81 153.78,403.5 149.69,403.78 145.56,403.72 141.44,403.47 137.34,403.53 133.22,403.47 129.12,403.22 125,402.81 120.88,402 118.81,401.47 116.78,400.94 112.66,399.72 108.53,398.44 104.44,397.31 100.31,396.34 99.656,396.22 96.188,395.5 92.094,394.69 87.969,393.94 83.844,393.06 79.75,392.09 75.688,390.97 75.625,390.97 71.5,389.81 67.406,388.59 63.281,387.28 59.188,385.88 58.875,385.78 55.062,384.28 50.938,382.47 47.031,380.59 46.844,380.5 42.719,378.22 38.594,375.88 37.875,375.47 34.5,373.47 30.375,371.16 28.844,370.38 26.25,369.12 22.156,367.41 18.031,365.81 " stroke="red" stroke-width="0.96875" stroke-linecap="round" stroke-linejoin="round" />
<polyline points="320.19,358.19 321.06,357.31 322.81,357.31 323.69,358.19 323.69,359.94 322.81,360.81 320.19,360.81 320.19,362.56 323.69,362.56 " stroke="red" stroke-width="0.71875" stroke-linecap="round" stroke-linejoin="round" />
<polyline points="326.31,362.56 329.81,362.56 328.06,357.31 " stroke="red" stroke-width="0.71875" stroke-linecap="round" stroke-linejoin="round" />
<polyline points="335.94,361.69 335.06,362.56 333.31,362.56 332.44,361.69 332.44,358.19 333.31,357.31 335.06,357.31 335.94,358.19 335.94,359.06 335.06,359.94 332.44,359.94 " stroke="red" stroke-width="0.71875" stroke-linecap="round" stroke-linejoin="round" />
<polygon points="339.44,362.56 338.56,361.69 338.56,358.19 339.44,357.31 341.19,357.31 342.06,358.19 342.06,361.69 341.19,362.56 " stroke="red" stroke-width="0.71875" stroke-linejoin="round" />
<polyline points="529.72,247 529.69,247.03 528.19,249.22 526.66,251.5 524.06,255.34 523.62,256 519.97,260.5 519.94,260.56 516.69,265.03 515.84,266.31 513.81,269.59 511.72,273.47 511.34,274.16 509.44,278.75 507.59,283.28 507.56,283.34 505.62,287.97 503.75,292.62 503.5,293.25 501.78,297.31 500.34,302 499.38,306.62 499.38,306.72 498.78,311.44 499.31,316.22 499.38,316.59 500.31,321 501.88,325.81 503.5,329.62 503.84,330.66 504.62,335.5 504.91,340.41 504.47,345.31 503.5,349.34 503.12,350.28 499.38,354.75 498.69,355.25 495.25,357.03 491.16,357.81 487.03,357.41 482.91,355.59 482.25,355.25 478.81,353.19 474.69,351 473,350.28 470.56,349.16 466.47,349.16 462.34,349.28 458.25,349.38 454.12,349.31 450,348.31 445.91,347.25 441.78,346.22 437.88,345.31 437.66,345.28 433.56,344.78 429.44,344.44 425.31,344.19 421.22,344.12 417.09,344.62 412.97,345.06 408.88,345.22 404.75,344.91 400.62,343.31 396.53,341.28 394.97,340.41 392.41,338.81 388.31,336.09 387.25,335.5 384.19,333.62 380.06,331.22 379.06,330.66 375.97,328.84 371.84,326.56 370.59,325.81 367.72,323.97 363.62,321.44 362.91,321 359.5,318.88 355.38,316.53 354.72,316.22 351.28,314.53 347.16,312.69 344.09,311.44 343.03,310.97 338.94,309.03 334.81,307.19 333.69,306.72 330.69,305.38 326.59,303.75 323.59,302.78 " stroke="red" stroke-width="0.96875" stroke-linecap="round" stroke-linejoin="round" />
<polyline points="296.66,297.28 293.69,297 289.56,296.72 285.44,296.53 281.34,296.44 277.22,296.53 273.09,296.78 269.47,297.31 269,297.38 264.88,298.06 260.75,298.97 256.66,300 252.53,301.12 249.69,302 248.41,302.34 244.31,303.69 240.19,305.28 237.81,306.72 236.06,307.72 231.97,310.59 230.88,311.44 227.84,313.56 224.16,316.22 223.72,316.5 219.62,318.84 216.31,321 215.5,321.53 211.41,324.62 210.03,325.81 207.28,328.22 204.62,330.66 203.16,331.75 199.06,335.09 198.56,335.5 194.94,338.56 192.88,340.41 190.81,342.25 187.09,345.31 186.72,345.62 182.59,348.75 180.47,350.28 178.47,351.56 174.38,354.19 172.69,355.25 170.25,356.75 166.12,359.28 164.47,360.25 162.03,361.72 157.91,364 154.75,365.28 153.78,365.66 149.69,366.78 145.56,367.47 141.44,367.78 137.34,367.88 133.22,367.75 129.12,367.5 125,367.09 120.88,366.72 116.78,366.25 112.66,365.75 109.56,365.28 108.53,365.12 104.44,364.38 100.31,363.62 96.188,362.91 92.094,362.19 87.969,361.69 83.844,361.12 79.75,360.41 79.062,360.25 75.625,359.44 71.5,358.03 67.406,356.41 64.656,355.25 63.281,354.66 59.188,352.75 55.062,350.94 53.594,350.28 50.938,349.19 46.844,347.47 42.719,345.69 41.969,345.31 38.594,343.62 34.5,341.47 32.562,340.41 30.375,339.16 26.25,336.78 23.938,335.5 22.156,334.53 18.031,332.41 " stroke="red" stroke-width="0.96875" stroke-linecap="round" stroke-linejoin="round" />
<polyline points="299.62,297.44 300.5,296.56 302.25,296.56 303.12,297.44 303.12,299.19 302.25,300.06 299.62,300.06 299.62,301.81 303.12,301.81 " stroke="red" stroke-width="0.71875" stroke-linecap="round" stroke-linejoin="round" />
<polygon points="306.62,301.81 305.75,300.94 305.75,300.06 306.62,299.19 308.38,299.19 309.25,300.06 309.25,300.94 308.38,301.81 " stroke="red" stroke-width="0.71875" stroke-linejoin="round" />
<polyline points="306.62,299.19 305.75,298.31 305.75,297.44 306.62,296.56 308.38,296.56 309.25,297.44 309.25,298.31 308.38,299.19 " stroke="red" stroke-width="0.71875" stroke-linecap="round" stroke-linejoin="round" />
<polyline points="311.88,300.94 312.75,301.81 314.5,301.81 315.38,300.94 315.38,300.06 311.88,296.56 315.38,296.56 " stroke="red" stroke-width="0.71875" stroke-linecap="round" stroke-linejoin="round" />
<polygon points="318.88,301.81 318,300.94 318,297.44 318.88,296.56 320.62,296.56 321.5,297.44 321.5,300.94 320.62,301.81 " stroke="red" stroke-width="0.71875" stroke-linejoin="round" />
<polyline points="92.094,299.84 96.188,301.41 98,302 100.31,302.62 104.44,303.56 108.53,304.22 112.66,304.25 116.78,303.94 120.88,303.28 125,302.31 126.12,302 129.12,300.97 133.22,299.12 136.31,297.31 137.34,296.53 141.44,292.91 141.72,292.62 145.56,288.22 145.78,287.97 148.81,283.34 149.69,281.44 150.94,278.75 151.97,274.16 150.91,269.59 149.69,267.03 148.62,265.03 145.56,260.91 145.25,260.5 141.44,256.75 140.66,256 137.34,252.97 135.22,251.5 133.22,250.38 132.34,250.03 " stroke="red" stroke-width="0.96875" stroke-linecap="round" stroke-linejoin="round" />
<polyline points="105.41,247.5 104.44,247.59 100.31,248.16 96.188,248.84 92.094,249.72 87.969,250.97 86.406,251.5 83.844,252.53 79.75,254.34 76.094,256 75.625,256.19 71.5,257.53 67.406,259.12 64.531,260.5 63.281,261.56 60.094,265.03 59.188,268.41 58.781,269.59 59.188,272.16 59.344,274.16 60.406,278.75 63.281,282.84 63.688,283.34 67.406,286.09 70.375,287.97 71.5,288.5 75.625,290.34 79.406,292.62 79.75,292.84 83.844,295.69 86.406,297.31 87.969,298.06 92.094,299.84 " stroke="red" stroke-width="0.96875" stroke-linecap="round" stroke-linejoin="round" />
<polyline points="111.88,247 111.88,247.03 111,247.91 108.38,247.91 108.38,249.66 111.88,249.66 " stroke="red" stroke-width="0.71875" stroke-linecap="round" stroke-linejoin="round" />
<polygon points="115.38,249.66 114.5,248.78 114.5,247.91 115.38,247.03 117.12,247.03 118,247.91 118,248.78 117.12,249.66 " stroke="red" stroke-width="0.71875" stroke-linejoin="round" />
<line x1="115.38" y1="247.03" x2="115.34" y2="247" stroke="red" stroke-width="0.71875" stroke-linecap="round" />
<line x1="117.16" y1="247" x2="117.12" y2="247.03" stroke="red" stroke-width="0.71875" stroke-linecap="round" />
<polygon points="121.5,249.66 120.62,248.78 120.62,247.91 121.5,247.03 123.25,247.03 124.12,247.91 124.12,248.78 123.25,249.66 " stroke="red" stroke-width="0.71875" stroke-linejoin="round" />
<line x1="121.5" y1="247.03" x2="121.47" y2="247" stroke="red" stroke-width="0.71875" stroke-linecap="round" />
<line x1="123.28" y1="247" x2="123.25" y2="247.03" stroke="red" stroke-width="0.71875" stroke-linecap="round" />
<polyline points="127.62,249.66 126.75,248.78 126.75,247 " stroke="red" stroke-width="0.71875" stroke-linecap="round" stroke-linejoin="round" />
<polyline points="130.25,247 130.25,248.78 129.38,249.66 127.62,249.66 " stroke="red" stroke-width="0.71875" stroke-linecap="round" stroke-linejoin="round" />
</g>
</svg>
