<?xml version="1.0" encoding="ISO-8859-1" standalone="no"?>
<!DOCTYPE svg PUBLIC "-//W3C//DTD SVG 1.1//EN" "http://www.w3.org/Graphics/SVG/1.1/DTD/svg11.dtd">
<svg version="1.1" baseProfile="full" id="body" width="900px" height="600px" viewBox="0 0.2 1 0.55" preserveAspectRatio="none" xmlns="http://www.w3.org/2000/svg" xmlns:xlink="http://www.w3.org/1999/xlink" xmlns:ev="http://www.w3.org/2001/xml-events">
<title>SVG drawing</title>
<desc>This was produced by version 4.2 of GNU libplot, a free library for exporting 2-D vector graphics.</desc>
<rect id="background" x="0" y="0" width="1" height="1" stroke="none" fill="none"/>
<g id="content" transform="translate(-0.03125,1.1875) scale(1,-1) scale(0.0017361) " xml:space="preserve" stroke="black" stroke-linecap="butt" stroke-linejoin="miter" stroke-miterlimit="10.433" stroke-dasharray="none" stroke-dashoffset="0" stroke-opacity="1" fill="none" fill-rule="even-odd" fill-opacity="1" font-style="normal" font-variant="normal" font-weight="normal" font-stretch="normal" font-size-adjust="none" letter-spacing="normal" word-spacing="normal" text-anchor="start">
<polyline points="251.28,568.66 251.28,568.62 250.06,561.84 250.47,555.12 252.44,548.47 252.53,548.28 255.88,543.06 " stroke="red" stroke-width="0.96875" stroke-linecap="round" stroke-linejoin="round" />
<polyline points="278.34,539.06 281.34,539.94 284.97,541.91 285.44,542.28 289.56,547.62 289.94,548.47 291.59,555.12 292.06,561.84 291.31,568.62 291.31,568.66 " stroke="red" stroke-width="0.96875" stroke-linecap="round" stroke-linejoin="round" />
<polyline points="254.38,536.59 255.25,535.72 257,535.72 257.88,536.59 257.88,538.34 257,539.22 254.38,539.22 254.38,540.97 257.88,540.97 " stroke="red" stroke-width="0.71875" stroke-linecap="round" stroke-linejoin="round" />
<polyline points="260.5,540.09 261.38,540.97 263.12,540.97 264,540.09 264,539.22 260.5,535.72 264,535.72 " stroke="red" stroke-width="0.71875" stroke-linecap="round" stroke-linejoin="round" />
<polygon points="267.5,540.97 266.62,540.09 266.62,539.22 267.5,538.34 269.25,538.34 270.12,539.22 270.12,540.09 269.25,540.97 " stroke="red" stroke-width="0.71875" stroke-linejoin="round" />
<polyline points="267.5,538.34 266.62,537.47 266.62,536.59 267.5,535.72 269.25,535.72 270.12,536.59 270.12,537.47 269.25,538.34 " stroke="red" stroke-width="0.71875" stroke-linecap="round" stroke-linejoin="round" />
<polygon points="273.62,540.97 272.75,540.09 272.75,536.59 273.62,535.72 275.38,535.72 276.25,536.59 276.25,540.09 275.38,540.97 " stroke="red" stroke-width="0.71875" stroke-linejoin="round" />
<polyline points="52.031,568.66 52,568.62 50.938,567.09 47.281,561.84 46.844,561.19 46.531,560.81 " stroke="red" stroke-width="0.96875" stroke-linecap="round" stroke-linejoin="round" />
<polyline points="34.906,551.38 34.5,551.12 30.375,548.62 30.125,548.47 26.25,545.66 22.219,541.91 22.156,541.81 18.031,537.06 " stroke="red" stroke-width="0.96875" stroke-linecap="round" stroke-linejoin="round" />
<polyline points="32.219,554.34 33.094,553.47 34.844,553.47 35.719,554.34 35.719,556.09 34.844,556.97 32.219,556.97 32.219,558.72 35.719,558.72 " stroke="red" stroke-width="0.71875" stroke-linecap="round" stroke-linejoin="round" />
<polyline points="38.344,557.84 39.219,558.72 40.969,558.72 41.844,557.84 41.844,556.97 40.969,556.09 40.094,556.09 40.969,556.09 41.844,555.22 41.844,554.34 40.969,553.47 39.219,553.47 38.344,554.34 " stroke="red" stroke-width="0.71875" stroke-linecap="round" stroke-linejoin="round" />
<polyline points="46.219,558.72 44.469,556.09 47.969,556.09 47.969,558.72 47.969,553.47 " stroke="red" stroke-width="0.71875" stroke-linecap="round" stroke-linejoin="round" />
<polygon points="51.469,558.72 50.594,557.84 50.594,554.34 51.469,553.47 53.219,553.47 54.094,554.34 54.094,557.84 53.219,558.72 " stroke="red" stroke-width="0.71875" stroke-linejoin="round" />
<polyline points="222.91,568.66 222.91,568.62 223.72,564.56 224.16,561.84 226,555.12 227.84,550.41 228.53,548.47 231.75,541.91 231.97,541.53 235.78,535.38 236.06,535 240.19,529.88 240.97,528.97 244.31,525.94 248.41,522.75 248.69,522.59 251.41,521.06 " stroke="red" stroke-width="0.96875" stroke-linecap="round" stroke-linejoin="round" />
<polyline points="278.34,516.5 281.34,516.78 285.44,517.47 289.56,518.47 293.69,519.94 297.78,522.03 298.62,522.59 301.91,525.38 305.12,528.97 306.03,530.56 308.59,535.38 310.12,539.16 311.22,541.91 313.31,548.47 314.25,552.25 315,555.12 316.62,561.84 317.88,568.62 317.88,568.66 " stroke="red" stroke-width="0.96875" stroke-linecap="round" stroke-linejoin="round" />
<polyline points="254.38,515.06 255.25,514.19 257,514.19 257.88,515.06 257.88,516.81 257,517.69 254.38,517.69 254.38,519.44 257.88,519.44 " stroke="red" stroke-width="0.71875" stroke-linecap="round" stroke-linejoin="round" />
<polyline points="260.5,518.56 261.38,519.44 263.12,519.44 264,518.56 264,517.69 263.12,516.81 262.25,516.81 263.12,516.81 264,515.94 264,515.06 263.12,514.19 261.38,514.19 260.5,515.06 " stroke="red" stroke-width="0.71875" stroke-linecap="round" stroke-linejoin="round" />
<polyline points="268.38,519.44 266.62,516.81 270.12,516.81 270.12,519.44 270.12,514.19 " stroke="red" stroke-width="0.71875" stroke-linecap="round" stroke-linejoin="round" />
<polygon points="273.62,519.44 272.75,518.56 272.75,515.06 273.62,514.19 275.38,514.19 276.25,515.06 276.25,518.56 275.38,519.44 " stroke="red" stroke-width="0.71875" stroke-linejoin="round" />
<polyline points="352,568.66 351.97,568.62 351.28,567.75 347.16,562.06 347,561.84 343.03,555.75 342.66,555.12 338.94,548.66 338.84,548.47 335.19,541.91 334.81,541.22 331.56,535.38 330.69,533.94 327.78,528.97 326.59,527.19 323.53,522.59 322.47,521.19 318.81,516.28 318.34,515.75 314.25,511.25 312.97,510.06 310.12,507.66 306.03,504.84 303.41,503.88 301.91,503.34 297.78,502.41 293.69,501.81 289.56,501.5 285.44,500.94 281.34,500.59 277.22,500.41 273.09,500.47 269,500.88 264.88,501.5 260.75,502.28 256.66,503.28 254.56,503.88 252.53,504.47 248.41,505.91 244.31,507.62 240.19,509.69 239.56,510.06 236.06,512.34 231.97,515.25 230.53,516.28 227.84,518.41 223.72,521.69 222.44,522.59 219.62,524.84 215.5,528.16 214.47,528.97 211.41,531.75 207.28,535.03 206.69,535.38 204.06,537.16 " stroke="red" stroke-width="0.96875" stroke-linecap="round" stroke-linejoin="round" />
<polyline points="187.03,546.62 186.72,546.81 183.56,548.47 182.59,549.06 178.47,551.25 174.38,553.12 170.25,554.38 166.12,555.03 164.34,555.12 162.03,555.22 160.28,555.12 157.91,554.97 153.78,554.28 149.69,552.97 145.56,550.75 142.56,548.47 141.44,547.66 137.34,544.22 133.62,541.91 133.22,541.72 129.12,540.69 125,540.59 122.41,541.91 120.88,542.66 116.78,544.88 112.66,546.75 108.53,548.31 107.91,548.47 104.44,549.34 100.31,550.19 96.188,550.88 92.094,551.47 87.969,552.12 83.844,552.62 79.75,552.78 75.625,552.28 71.5,550.47 68.188,548.47 67.406,547.97 63.281,545.09 59.188,542.12 58.969,541.91 55.062,538.06 52.281,535.38 50.938,534.19 46.844,530.59 44.844,528.97 42.719,527.28 38.594,524.62 35.594,522.59 34.5,521.84 30.375,518.84 27.125,516.28 26.25,515.59 22.156,512.66 18.844,510.06 18.031,509.41 " stroke="red" stroke-width="0.96875" stroke-linecap="round" stroke-linejoin="round" />
<polyline points="185.25,540.16 186.12,539.28 187.88,539.28 188.75,540.16 188.75,541.91 187.88,542.78 185.25,542.78 185.25,544.53 188.75,544.53 " stroke="red" stroke-width="0.71875" stroke-linecap="round" stroke-linejoin="round" />
<polyline points="193.12,544.53 191.38,541.91 194.88,541.91 194.88,544.53 194.88,539.28 " stroke="red" stroke-width="0.71875" stroke-linecap="round" stroke-linejoin="round" />
<polygon points="198.38,544.53 197.5,543.66 197.5,540.16 198.38,539.28 200.12,539.28 201,540.16 201,543.66 200.12,544.53 " stroke="red" stroke-width="0.71875" stroke-linejoin="round" />
<polygon points="204.5,544.53 203.62,543.66 203.62,540.16 204.5,539.28 206.25,539.28 207.12,540.16 207.12,543.66 206.25,544.53 " stroke="red" stroke-width="0.71875" stroke-linejoin="round" />
<polyline points="594,549.75 589.88,550.47 585.78,551.56 581.66,552.62 577.53,553.69 573.44,554.75 572.03,555.12 569.31,555.66 565.19,556.69 561.09,557.72 556.97,558.75 552.88,559.81 548.75,560.84 544.62,561.81 544.59,561.84 540.53,562.69 536.41,563.5 532.28,564.16 528.19,564.81 524.06,565.44 519.94,566.06 515.84,566.75 511.72,567.47 507.59,568.19 505.09,568.62 504.91,568.66 " stroke="red" stroke-width="0.96875" stroke-linecap="round" stroke-linejoin="round" />
<polyline points="400.41,568.66 400.34,568.62 396.53,567 392.41,565 388.31,562.78 386.69,561.84 384.19,560.41 380.06,557.75 376.44,555.12 375.97,554.81 371.84,551.84 367.72,548.62 367.53,548.47 363.62,545.31 359.72,541.91 359.5,541.69 355.38,537.75 353.44,535.38 351.28,532.69 348.59,528.97 347.16,526.94 344.19,522.59 343.03,521 339.62,516.28 338.94,515.41 334.81,510.25 334.62,510.06 330.69,505.5 329.25,503.88 326.59,501.31 322.59,497.75 322.47,497.62 320.44,496 " stroke="red" stroke-width="0.96875" stroke-linecap="round" stroke-linejoin="round" />
<polyline points="305.91,486.53 302.41,485.69 301.91,485.56 297.78,485.03 293.69,484.88 289.56,485.03 285.44,485.34 282.47,485.69 281.34,485.81 277.22,486.31 273.09,486.84 269,487.34 264.88,487.91 260.75,488.53 256.66,489.22 252.53,489.97 248.41,490.81 244.62,491.69 244.31,491.78 240.19,492.88 236.06,494.28 231.97,496 228.31,497.75 227.84,497.97 223.72,500.09 219.62,501.66 215.5,503.06 212.78,503.88 211.41,504.28 207.28,505.44 203.16,506.84 199.06,508.16 194.94,509.34 191.97,510.06 190.81,510.34 186.72,511.12 182.59,511.75 178.47,512.22 174.38,512.53 170.25,512.62 166.12,512.62 162.03,512.69 157.91,512.88 153.78,513.59 149.69,514.19 145.56,514.62 141.44,514.91 137.34,514.75 133.22,514.62 129.12,514.59 125,514.81 120.88,516.22 120.72,516.28 116.78,518.03 112.66,520.12 108.53,522.22 107.03,522.59 104.44,523.25 100.31,523.72 96.188,523.59 92.094,522.78 91.688,522.59 87.969,520.66 83.844,518.22 80.594,516.28 79.75,515.81 75.625,513.75 71.5,512.59 67.406,511.47 63.281,510.25 62.75,510.06 59.188,508.84 55.062,507.09 50.938,505.25 47.969,503.88 46.844,503.34 42.719,501.16 38.594,498.59 37.312,497.75 34.5,495.91 30.375,493.25 27.969,491.69 26.25,490.62 22.156,488.31 18.031,485.78 " stroke="red" stroke-width="0.96875" stroke-linecap="round" stroke-linejoin="round" />
<polyline points="303.75,489.53 304.62,488.66 306.38,488.66 307.25,489.53 307.25,491.28 306.38,492.16 303.75,492.16 303.75,493.91 307.25,493.91 " stroke="red" stroke-width="0.71875" stroke-linecap="round" stroke-linejoin="round" />
<polyline points="311.62,493.91 309.88,491.28 313.38,491.28 313.38,493.91 313.38,488.66 " stroke="red" stroke-width="0.71875" stroke-linecap="round" stroke-linejoin="round" />
<polyline points="319.5,493.03 318.62,493.91 316.88,493.91 316,493.03 316,489.53 316.88,488.66 318.62,488.66 319.5,489.53 319.5,490.41 318.62,491.28 316,491.28 " stroke="red" stroke-width="0.71875" stroke-linecap="round" stroke-linejoin="round" />
<polygon points="323,493.91 322.12,493.03 322.12,489.53 323,488.66 324.75,488.66 325.62,489.53 325.62,493.03 324.75,493.91 " stroke="red" stroke-width="0.71875" stroke-linejoin="round" />
<polyline points="594,504.12 593.62,503.88 589.88,500.31 585.91,497.75 585.78,497.66 581.66,495.34 577.53,493.97 573.44,493.88 569.31,495.44 567.16,497.75 565.19,500.03 562.5,503.88 561.09,506.44 559.25,510.06 556.97,514.12 555.75,516.28 552.88,520.59 551.5,522.59 548.75,525.94 546.09,528.97 544.62,530.12 540.53,533.16 536.88,535.38 536.41,535.62 532.28,537.09 528.19,538.34 524.06,539.44 519.94,540.5 515.84,541.84 515.72,541.91 511.72,543.09 507.59,544.25 503.5,545.31 499.38,546.16 495.25,546.91 491.16,547.66 487.03,548.34 486.38,548.47 482.91,549.06 478.81,549.75 474.69,550.38 470.56,550.94 466.47,551.44 462.34,551.84 458.25,552.16 454.12,552.38 450,552.53 445.91,552.56 441.78,552.44 437.66,552.16 433.56,551.56 429.44,550.78 425.31,549.84 421.22,548.81 419.75,548.47 417.09,547.84 412.97,546.84 408.88,545.78 404.75,544.59 400.62,543.12 397.56,541.91 396.53,541.47 392.41,539.56 388.31,537.38 385.16,535.38 384.19,534.75 380.06,531.72 376.53,528.97 375.97,528.44 371.84,524.69 369.31,522.59 367.72,521.25 363.62,517.56 362.28,516.28 359.5,513.59 356.12,510.06 355.38,509.25 351.28,504.5 350.72,503.88 347.16,500.06 344.91,497.75 343.03,495.94 338.94,492.22 338.34,491.69 334.81,488.62 332.81,487 " stroke="red" stroke-width="0.96875" stroke-linecap="round" stroke-linejoin="round" />
<polyline points="319.84,477.56 318.34,476.47 314.25,473.84 310.12,471.59 306.03,469.81 301.91,468.84 297.78,468.22 295,468 293.69,467.88 289.56,467.84 287.69,468 285.44,468.19 281.34,468.75 277.22,469.5 273.09,470.34 269,471 264.88,471.62 260.75,472.25 256.66,472.84 252.53,473.5 250.25,473.84 248.41,474.09 244.31,474.62 240.19,475.16 236.06,475.5 231.97,475.88 227.84,476.28 223.72,476.78 219.62,477.56 215.5,478.44 211.41,479.44 210.16,479.75 207.28,480.47 203.16,481.62 199.06,482.81 194.94,483.97 190.81,485.09 188.12,485.69 186.72,486 182.59,486.75 178.47,487.38 174.38,487.88 170.25,488.03 166.12,488.16 162.03,488.31 157.91,488.56 153.78,489.47 149.69,490.56 145.97,491.69 145.56,491.81 141.44,493.06 137.34,493.44 133.22,493.59 129.12,493.62 125,493.62 120.88,494.03 116.78,494.44 112.66,494.81 108.53,495.06 104.44,494.88 100.31,494.47 96.188,493.84 92.094,493.03 87.969,491.84 87.5,491.69 83.844,490.5 79.75,489.06 75.625,487.56 71.5,486.34 69.312,485.69 67.406,485.09 63.281,483.78 59.188,482.38 55.062,480.53 53.438,479.75 50.938,478.5 46.844,476.41 42.719,474.41 41.438,473.84 38.594,472.66 34.5,470.94 30.375,469.19 27.656,468 26.25,467.41 22.156,465.75 18.031,464 " stroke="red" stroke-width="0.96875" stroke-linecap="round" stroke-linejoin="round" />
<polyline points="316.09,480.53 316.97,479.66 318.72,479.66 319.59,480.53 319.59,482.28 318.72,483.16 316.09,483.16 316.09,484.91 319.59,484.91 " stroke="red" stroke-width="0.71875" stroke-linecap="round" stroke-linejoin="round" />
<polyline points="322.22,480.53 323.09,479.66 324.84,479.66 325.72,480.53 325.72,482.28 324.84,483.16 322.22,483.16 322.22,484.91 325.72,484.91 " stroke="red" stroke-width="0.71875" stroke-linecap="round" stroke-linejoin="round" />
<polyline points="328.34,484.03 329.22,484.91 330.97,484.91 331.84,484.03 331.84,483.16 328.34,479.66 331.84,479.66 " stroke="red" stroke-width="0.71875" stroke-linecap="round" stroke-linejoin="round" />
<polygon points="335.34,484.91 334.47,484.03 334.47,480.53 335.34,479.66 337.09,479.66 337.97,480.53 337.97,484.03 337.09,484.91 " stroke="red" stroke-width="0.71875" stroke-linejoin="round" />
<polyline points="594,463.59 591.56,462.19 589.88,461.34 585.78,459.78 581.66,458.28 577.53,457.31 573.44,456.94 569.31,457.09 565.19,458.31 561.09,460.34 558.44,462.19 556.97,463.34 552.88,467.38 552.28,468 548.75,471.84 547.09,473.84 544.62,476.91 542.5,479.75 540.53,482.53 538.38,485.69 536.41,488.66 534.66,491.69 532.28,495.66 530.97,497.75 528.19,501.81 526.56,503.88 524.06,506.56 519.94,510.03 519.94,510.06 515.84,512.09 511.72,513.84 507.59,515.41 505.09,516.28 503.5,516.84 499.38,518.09 495.25,519.22 491.16,520.22 487.03,521.12 482.91,522.12 480.88,522.59 478.81,523.03 474.69,523.88 470.56,524.66 466.47,525.38 462.34,525.97 458.25,526.41 454.12,526.72 450,526.91 445.91,526.91 441.78,526.72 437.66,526.34 433.56,525.66 429.44,524.81 425.31,523.91 421.22,523 418.44,522.59 417.09,522.38 412.97,521.62 408.88,520.59 404.75,519.16 400.62,516.59 400.25,516.28 396.53,513.09 393.47,510.06 392.41,508.94 388.31,504.5 387.44,503.88 384.19,501.97 380.06,499.59 377.03,497.75 375.97,497.06 371.84,494.16 368.78,491.69 367.72,490.81 363.62,487.44 361.5,485.69 359.5,484.09 355.38,480.91 353.88,479.75 351.28,477.66 347.16,474.38 346.47,473.84 343.03,471.09 341.53,469.97 " stroke="red" stroke-width="0.96875" stroke-linecap="round" stroke-linejoin="round" />
<polyline points="326,460.53 322.47,458.91 318.34,456.88 317.47,456.47 314.25,454.81 310.12,452.97 306.03,451.38 303.94,450.75 301.91,450.12 297.78,449 293.69,448.09 289.56,447.38 285.44,446.97 281.34,446.75 277.22,446.75 273.09,446.94 269,447.53 264.88,448.22 260.75,448.97 256.66,449.72 252.53,450.28 249.03,450.75 248.41,450.84 244.31,451.38 240.19,451.84 236.06,452.16 231.97,452.44 227.84,452.75 223.72,453.09 219.62,453.78 215.5,454.5 211.41,455.25 207.28,455.97 203.16,456.25 200.16,456.47 199.06,456.53 194.94,456.91 190.81,457.41 186.72,458.53 182.59,459.81 178.47,461.12 174.88,462.19 174.38,462.34 170.25,463.16 166.12,463.81 162.03,464.38 157.91,464.81 153.78,465.22 149.69,465.53 145.56,465.78 141.44,466 137.34,466.19 133.22,466.38 129.12,466.47 125,466.53 120.88,466.47 116.78,466.31 112.66,466.19 108.53,466.03 104.44,466.16 100.31,466.22 96.188,466.12 92.094,465.84 87.969,464.91 83.844,463.81 79.75,462.59 78.531,462.19 75.625,461.28 71.5,460.12 67.406,458.91 63.281,457.62 59.625,456.47 59.188,456.31 55.062,455.06 50.938,453.78 46.844,452.5 42.719,451.19 41.5,450.75 38.594,449.75 34.5,448.28 30.375,446.75 26.25,445.16 26.094,445.12 22.156,443.78 18.031,442.25 " stroke="red" stroke-width="0.96875" stroke-linecap="round" stroke-linejoin="round" />
<polyline points="324.31,463.5 325.19,462.62 326.94,462.62 327.81,463.5 327.81,465.25 326.94,466.12 324.31,466.12 324.31,467.88 327.81,467.88 " stroke="red" stroke-width="0.71875" stroke-linecap="round" stroke-linejoin="round" />
<polyline points="330.44,463.5 331.31,462.62 333.06,462.62 333.94,463.5 333.94,465.25 333.06,466.12 330.44,466.12 330.44,467.88 333.94,467.88 " stroke="red" stroke-width="0.71875" stroke-linecap="round" stroke-linejoin="round" />
<polygon points="337.44,467.88 336.56,467 336.56,466.12 337.44,465.25 339.19,465.25 340.06,466.12 340.06,467 339.19,467.88 " stroke="red" stroke-width="0.71875" stroke-linejoin="round" />
<polyline points="337.44,465.25 336.56,464.38 336.56,463.5 337.44,462.62 339.19,462.62 340.06,463.5 340.06,464.38 339.19,465.25 " stroke="red" stroke-width="0.71875" stroke-linecap="round" stroke-linejoin="round" />
<polygon points="343.56,467.88 342.69,467 342.69,463.5 343.56,462.62 345.31,462.62 346.19,463.5 346.19,467 345.31,467.88 " stroke="red" stroke-width="0.71875" stroke-linejoin="round" />
<polyline points="594,427.47 589.88,425.62 585.78,424.28 582.19,422.97 581.66,422.78 577.53,421.56 573.44,420.78 569.31,420.59 565.19,421.66 561.84,422.97 561.09,423.28 556.97,425.38 552.88,427.84 552.09,428.44 548.75,431.22 545.81,433.97 544.62,435.19 540.72,439.5 540.53,439.75 536.41,444.59 535.94,445.12 532.28,449.44 531.19,450.75 528.19,454.53 526.62,456.47 524.06,460.09 522.53,462.19 519.94,466.06 518.19,468 515.84,470.72 512.78,473.84 511.72,474.91 507.59,478.38 505.69,479.75 503.5,480.91 499.38,482.59 495.25,484.03 491.16,485.38 490.22,485.69 487.03,486.69 482.91,488.44 478.81,490.09 474.69,491.66 474.62,491.69 470.56,493.03 466.47,494.22 462.34,495.28 458.25,496.16 454.12,496.88 450,497.34 445.91,497.62 441.78,497.75 437.66,497.62 433.56,497.38 429.44,496.91 425.31,496.16 421.22,495.16 417.09,493.88 412.97,492.25 411.81,491.69 408.88,490.25 404.75,487.91 401.41,485.69 400.62,485.19 396.53,482.53 392.41,479.97 392.03,479.75 388.31,477.09 384.31,473.84 384.19,473.72 380.06,470.09 377.72,468 375.97,466.44 371.84,462.88 370.94,462.19 367.72,459.81 363.62,456.75 363.22,456.47 359.5,453.78 355.38,450.75 351.28,447.91 347.16,445.34 346.75,445.12 345.19,444.25 " stroke="red" stroke-width="0.96875" stroke-linecap="round" stroke-linejoin="round" />
<polyline points="326.84,434.78 326.59,434.66 325.22,433.97 322.47,432.62 318.34,430.91 314.25,429.31 311.84,428.44 310.12,427.81 306.03,426.38 301.91,424.97 297.78,423.72 295,422.97 293.69,422.59 289.56,421.56 285.44,420.69 281.34,419.97 277.22,419.38 273.09,418.97 269,418.81 264.88,418.78 260.75,418.94 256.66,419.22 252.53,419.5 248.41,419.84 244.31,420.19 240.19,420.53 236.06,420.84 231.97,421.19 227.84,421.53 223.72,421.88 219.62,422 215.5,422.16 211.41,422.44 207.28,422.91 207.09,422.97 203.16,424.03 199.06,424.97 194.94,425.66 190.81,426.09 186.72,425.94 182.59,425.69 178.47,425.47 174.38,425.34 170.25,425.78 166.12,426.44 162.03,427.28 157.91,428.25 157.34,428.44 153.78,429.56 149.69,430.94 145.56,432.28 141.44,433.44 137.47,433.97 137.34,433.97 133.22,434.34 129.12,434.66 125,434.97 120.88,435.62 116.78,436.31 112.66,437 108.53,437.66 104.44,438.38 100.31,438.97 96.188,439.34 92.25,439.5 92.094,439.53 92.031,439.5 87.969,439.06 83.844,438.41 79.75,437.56 75.625,436.66 71.5,435.78 67.406,434.91 63.312,433.97 63.281,433.94 59.188,432.94 55.062,431.88 50.938,430.72 46.844,429.47 43.531,428.44 42.719,428.19 38.594,426.97 34.5,425.81 30.375,424.69 26.25,423.59 23.875,422.97 22.156,422.5 18.031,421.28 " stroke="red" stroke-width="0.96875" stroke-linecap="round" stroke-linejoin="round" />
<polyline points="325.5,437.75 326.38,436.88 328.12,436.88 329,437.75 329,439.5 328.12,440.38 325.5,440.38 325.5,442.12 329,442.12 " stroke="red" stroke-width="0.71875" stroke-linecap="round" stroke-linejoin="round" />
<polyline points="335.12,441.25 334.25,442.12 332.5,442.12 331.62,441.25 331.62,437.75 332.5,436.88 334.25,436.88 335.12,437.75 335.12,438.62 334.25,439.5 331.62,439.5 " stroke="red" stroke-width="0.71875" stroke-linecap="round" stroke-linejoin="round" />
<polyline points="339.5,442.12 337.75,439.5 341.25,439.5 341.25,442.12 341.25,436.88 " stroke="red" stroke-width="0.71875" stroke-linecap="round" stroke-linejoin="round" />
<polygon points="344.75,442.12 343.88,441.25 343.88,437.75 344.75,436.88 346.5,436.88 347.38,437.75 347.38,441.25 346.5,442.12 " stroke="red" stroke-width="0.71875" stroke-linejoin="round" />
<polyline points="594,395.25 589.88,394.91 585.78,394.72 581.66,394.19 577.53,393.91 573.44,393.91 569.31,394.25 565.19,395.56 563.62,396.22 561.09,397.19 556.97,399.06 552.88,401.16 552.16,401.47 548.75,403.16 544.62,405.41 542.34,406.78 540.53,407.97 536.41,410.81 534.19,412.16 532.28,413.41 528.19,416.25 526.44,417.53 524.06,419.41 519.94,422.97 515.84,427.03 514.34,428.44 511.72,430.88 508.16,433.97 507.59,434.38 503.5,437.34 500.69,439.5 499.38,440.53 495.25,443.75 493.53,445.12 491.16,447.03 487.03,450.22 486.16,450.75 482.91,452.75 478.81,454.97 475.66,456.47 474.69,456.91 470.56,458.5 466.47,459.97 462.34,461.22 458.25,462.19 458.19,462.19 454.12,462.91 450,463.31 445.91,463.44 441.78,463.28 437.66,462.88 433.91,462.19 433.56,462.12 429.44,461.09 425.31,459.84 421.22,458.41 417.09,457.16 415.03,456.47 412.97,455.78 408.88,454.22 404.75,452.53 401.25,450.75 400.62,450.44 396.53,448.09 392.41,445.56 391.72,445.12 388.31,442.88 384.19,440.38 382.72,439.5 380.06,437.97 375.97,435.66 372.97,433.97 371.84,433.28 367.72,430.06 365.59,428.44 363.62,426.94 359.5,424.03 357.84,422.97 355.38,421.41 351.28,419.28 347.66,417.53 347.16,417.28 343.03,415.25 338.94,413.22 336.84,412.16 334.81,411.03 331.06,408.97 " stroke="red" stroke-width="0.96875" stroke-linecap="round" stroke-linejoin="round" />
<polyline points="313.09,399.5 310.12,398.09 306.03,396.25 305.94,396.22 301.91,394.38 297.78,392.59 293.91,390.97 293.69,390.88 289.56,389.28 285.44,387.69 281.34,386.06 280.59,385.78 277.22,384.41 273.09,382.69 269,380.88 268.34,380.59 264.88,379.12 260.75,377.53 256.66,376.03 254.88,375.47 252.53,374.69 248.41,373.5 244.31,372.5 240.19,371.78 236.06,371.78 231.97,372.19 227.84,372.94 223.72,373.94 219.62,374.97 217.81,375.47 215.5,376.09 211.41,377.34 207.28,378.69 203.16,380.53 203.03,380.59 199.06,382.53 194.94,384.62 192.62,385.78 190.81,386.69 186.72,388.06 182.59,389.25 178.47,390.28 175.59,390.97 174.38,391.25 170.25,392.22 166.12,393.19 162.03,394.19 157.91,395.22 154.34,396.22 153.78,396.38 149.69,397.56 145.56,398.81 141.44,400.09 137.38,401.47 137.34,401.5 133.22,402.91 129.12,404.28 125,405.59 121.03,406.78 120.88,406.84 116.78,408.06 112.66,409.25 108.53,410.34 104.44,411.16 100.31,411.75 96.5,412.16 96.188,412.19 92.094,412.44 87.969,412.66 83.844,412.72 79.75,412.62 75.625,412.38 73.688,412.16 71.5,411.88 67.406,411.22 63.281,410.41 59.188,409.47 55.062,408.25 50.938,407.03 50.188,406.78 46.844,405.78 42.719,404.62 38.594,403.88 34.5,403.09 30.375,402.25 27.25,401.47 26.25,401.22 22.156,399.84 18.031,398.12 " stroke="red" stroke-width="0.96875" stroke-linecap="round" stroke-linejoin="round" />
<polyline points="311.97,402.47 312.84,401.59 314.59,401.59 315.47,402.47 315.47,404.22 314.59,405.09 311.97,405.09 311.97,406.84 315.47,406.84 " stroke="red" stroke-width="0.71875" stroke-linecap="round" stroke-linejoin="round" />
<polyline points="318.09,406.84 321.59,406.84 319.84,401.59 " stroke="red" stroke-width="0.71875" stroke-linecap="round" stroke-linejoin="round" />
<polygon points="325.09,406.84 324.22,405.97 324.22,402.47 325.09,401.59 326.84,401.59 327.72,402.47 327.72,405.97 326.84,406.84 " stroke="red" stroke-width="0.71875" stroke-linejoin="round" />
<polygon points="331.22,406.84 330.34,405.97 330.34,402.47 331.22,401.59 332.97,401.59 333.84,402.47 333.84,405.97 332.97,406.84 " stroke="red" stroke-width="0.71875" stroke-linejoin="round" />
<line x1="594" y1="280.47" x2="592.5" y2="283.25" stroke="red" stroke-width="0.96875" stroke-linecap="round" />
<polyline points="588.44,292.72 589.88,295.69 591.25,297.31 594,300.41 " stroke="red" stroke-width="0.96875" stroke-linecap="round" stroke-linejoin="round" />
<polyline points="579.34,286.22 580.22,285.34 581.97,285.34 582.84,286.22 582.84,287.97 581.97,288.84 579.34,288.84 579.34,290.59 582.84,290.59 " stroke="red" stroke-width="0.71875" stroke-linecap="round" stroke-linejoin="round" />
<polyline points="585.47,290.59 588.97,290.59 587.22,285.34 " stroke="red" stroke-width="0.71875" stroke-linecap="round" stroke-linejoin="round" />
<polyline points="594,290.59 592.47,290.59 591.59,289.72 591.59,286.22 592.47,285.34 594,285.34 " stroke="red" stroke-width="0.71875" stroke-linecap="round" stroke-linejoin="round" />
<line x1="594" y1="287.97" x2="591.59" y2="287.97" stroke="red" stroke-width="0.71875" stroke-linecap="round" />
<polyline points="18.031,370.88 22.156,372.78 26.25,374.66 28.062,375.47 30.375,376.5 34.5,378.16 38.594,379.66 41.531,380.59 42.719,380.94 46.844,381.97 50.938,382.88 55.062,383.69 59.188,384.41 63.281,385.09 67.406,385.62 68.938,385.78 71.5,385.97 75.625,386.12 79.75,386 82.938,385.78 83.844,385.69 87.969,385.19 92.094,384.47 96.188,383.56 100.31,382.59 104.44,381.62 108.53,380.69 109.09,380.59 112.66,379.97 116.78,379.19 120.88,378.31 125,377.34 129.12,376.19 131.56,375.47 133.22,374.97 137.34,373.69 141.44,372.41 145.56,371.03 147.5,370.38 149.69,369.56 153.78,368.03 157.91,366.41 160.78,365.28 162.03,364.78 166.12,363.16 170.25,361.56 173.59,360.25 174.38,359.94 178.47,358.41 182.59,356.78 186.12,355.25 186.72,354.97 190.81,352.94 194.94,350.44 195.22,350.28 199.06,348.03 203.16,345.94 204.62,345.31 207.28,344.25 211.41,343.12 215.5,342.22 219.62,341.5 223.72,340.84 225.56,340.41 227.84,339.84 231.97,339.03 236.06,338.44 240.19,338.12 244.31,338.84 248.41,339.91 249.91,340.41 252.53,341.28 256.66,342.75 260.75,343.59 264.88,344.34 269,345.09 270.09,345.31 273.09,345.94 277.22,347.09 281.34,348.47 285.44,350.06 285.91,350.28 289.56,352.09 293.69,354.31 295.44,355.25 297.78,356.38 301.91,358.25 306.03,360.06 306.34,360.25 310.12,362.34 310.97,362.84 " stroke="red" stroke-width="0.96875" stroke-linecap="round" stroke-linejoin="round" />
<polyline points="326.5,372.31 326.59,372.34 330.69,374.25 333.34,375.47 334.81,376.12 338.94,378 343.03,379.97 344.41,380.59 347.16,381.88 351.28,383.78 355.38,385.75 355.41,385.78 359.5,387.81 363.62,389.94 365.66,390.97 367.72,392.06 371.84,394.22 375.78,396.22 375.97,396.28 380.06,398.19 384.19,399.94 388.03,401.47 388.31,401.59 392.41,403.34 396.53,405.22 399.88,406.78 400.62,407.19 404.75,409.09 408.88,410.38 412.97,411.5 415.72,412.16 417.09,412.44 421.22,413.28 425.31,414.34 429.44,415.5 433.56,416.78 436,417.53 437.66,418.03 441.78,419.44 445.91,420.62 450,421.5 454.12,422 458.25,421.84 462.34,421.34 466.47,420.56 470.56,419.53 474.69,418.22 476.47,417.53 478.81,416.59 482.91,414.56 487.03,412.25 487.19,412.16 491.16,409.12 494.25,406.78 495.25,406 499.38,402.84 501.22,401.47 503.5,399.78 507.59,396.53 508.03,396.22 511.72,393.31 515,390.97 515.84,390.34 519.94,387.5 522.97,385.78 524.06,385.12 528.19,382.72 532.06,380.59 532.28,380.47 536.41,377.94 540.53,375.5 540.56,375.47 544.62,372.44 547.31,370.38 548.75,368.5 551.28,365.28 552.88,362.66 554.62,360.25 556.97,356.69 558.19,355.25 561.09,351.94 563.06,350.28 565.19,349.09 569.31,347.25 573.44,345.75 574.75,345.31 577.53,344.25 581.66,342.66 585.78,340.91 586.84,340.41 589.88,338.59 594,335.94 " stroke="red" stroke-width="0.96875" stroke-linecap="round" stroke-linejoin="round" />
<polyline points="307.84,365.84 308.72,364.97 310.47,364.97 311.34,365.84 311.34,367.59 310.47,368.47 307.84,368.47 307.84,370.22 311.34,370.22 " stroke="red" stroke-width="0.71875" stroke-linecap="round" stroke-linejoin="round" />
<polyline points="313.97,370.22 317.47,370.22 315.72,364.97 " stroke="red" stroke-width="0.71875" stroke-linecap="round" stroke-linejoin="round" />
<polyline points="323.59,369.34 322.72,370.22 320.97,370.22 320.09,369.34 320.09,365.84 320.97,364.97 322.72,364.97 323.59,365.84 323.59,366.72 322.72,367.59 320.09,367.59 " stroke="red" stroke-width="0.71875" stroke-linecap="round" stroke-linejoin="round" />
<polygon points="327.09,370.22 326.22,369.34 326.22,365.84 327.09,364.97 328.84,364.97 329.72,365.84 329.72,369.34 328.84,370.22 " stroke="red" stroke-width="0.71875" stroke-linejoin="round" />
<polyline points="490.06,247 490.16,247.03 491.16,247.41 495.25,249.62 497.88,251.5 499.38,252.84 502.16,256 503.5,257.88 505.06,260.5 506.69,265.03 507.41,269.59 507.5,274.16 507.59,278.75 507.09,283.34 505.88,287.97 503.84,292.62 503.5,293.03 499.38,296.81 498.81,297.31 495.25,300 492.59,302 491.16,303 487.03,305.88 485.72,306.72 482.91,308.44 478.81,310.94 477.97,311.44 474.69,314.47 473.03,316.22 470.56,319.22 469.19,321 466.47,324.38 465.22,325.81 462.34,328.69 460.09,330.66 458.25,331.84 454.12,334.28 452.09,335.5 450,336.66 445.91,338.53 441.78,339.97 440.09,340.41 437.66,340.97 433.56,341.62 429.44,342.06 425.31,342.31 421.22,342.41 417.09,342.16 412.97,341.88 408.88,341.62 404.75,341.53 400.62,342.31 396.53,343.22 392.41,344.06 388.31,344.69 384.19,344.5 380.06,343.91 375.97,343 371.84,341.81 367.72,340.81 366.41,340.41 363.62,339.5 359.5,337.91 355.38,336.09 354.56,335.5 351.28,333.09 347.78,330.66 347.16,330.12 343.03,326.69 341.94,325.81 338.94,323.19 336.16,321 334.81,319.88 330.69,316.75 329.88,316.22 326.84,314.09 " stroke="red" stroke-width="0.96875" stroke-linecap="round" stroke-linejoin="round" />
<polyline points="308.53,304.66 306.03,303.5 301.91,302.31 300.5,302 297.78,301.34 293.69,300.53 289.56,299.81 285.44,298.84 281.34,298 277.22,297.31 277.03,297.31 273.09,296.75 269,296.5 264.88,296.34 260.75,296.22 256.66,296.09 252.53,295.81 248.41,295.53 244.31,295.34 240.19,295.22 236.06,295.28 231.97,295.47 227.84,295.88 223.72,296.53 220.88,297.31 219.62,297.62 215.5,299.12 211.41,301.06 209.72,302 207.28,303.31 203.16,305.44 200.72,306.72 199.06,307.47 194.94,309.34 190.81,311.31 190.62,311.44 186.72,313.5 182.59,316 182.28,316.22 178.47,318.59 175.03,321 174.38,321.44 170.25,323.78 166.69,325.81 166.12,326.09 162.03,328.22 157.91,330.34 157.41,330.66 153.78,332.78 149.69,335.25 149.22,335.5 145.56,337.41 141.44,339.28 137.34,340.03 133.78,340.41 133.22,340.47 129.12,340.75 125,341.09 120.88,342.31 116.78,343.72 112.66,345.19 112.25,345.31 108.53,346.53 104.44,347.5 100.31,348.38 96.188,349.09 92.094,349.66 87.969,350.16 86.781,350.28 83.844,350.53 79.75,350.78 75.625,350.91 71.5,350.81 67.406,350.62 63.281,350.34 62.219,350.28 59.188,350 55.062,349.75 50.938,349.41 46.844,348.97 42.719,348.34 38.594,347.41 34.5,346.34 30.844,345.31 30.375,345.19 26.25,343.84 22.156,342.38 18.031,340.94 " stroke="red" stroke-width="0.96875" stroke-linecap="round" stroke-linejoin="round" />
<polyline points="307.84,307.62 308.72,306.75 310.47,306.75 311.34,307.62 311.34,309.38 310.47,310.25 307.84,310.25 307.84,312 311.34,312 " stroke="red" stroke-width="0.71875" stroke-linecap="round" stroke-linejoin="round" />
<polygon points="314.84,312 313.97,311.12 313.97,310.25 314.84,309.38 316.59,309.38 317.47,310.25 317.47,311.12 316.59,312 " stroke="red" stroke-width="0.71875" stroke-linejoin="round" />
<polyline points="314.84,309.38 313.97,308.5 313.97,307.62 314.84,306.75 316.59,306.75 317.47,307.62 317.47,308.5 316.59,309.38 " stroke="red" stroke-width="0.71875" stroke-linecap="round" stroke-linejoin="round" />
<polyline points="320.09,311.12 320.97,312 322.72,312 323.59,311.12 323.59,310.25 320.09,306.75 323.59,306.75 " stroke="red" stroke-width="0.71875" stroke-linecap="round" stroke-linejoin="round" />
<polygon points="327.09,312 326.22,311.12 326.22,307.62 327.09,306.75 328.84,306.75 329.72,307.62 329.72,311.12 328.84,312 " stroke="red" stroke-width="0.71875" stroke-linejoin="round" />
</g>
</svg>
