<?xml version="1.0" encoding="ISO-8859-1" standalone="no"?>
<!DOCTYPE svg PUBLIC "-//W3C//DTD SVG 1.1//EN" "http://www.w3.org/Graphics/SVG/1.1/DTD/svg11.dtd">
<svg version="1.1" baseProfile="full" id="body" width="900px" height="600px" viewBox="0 0.2 1 0.55" preserveAspectRatio="none" xmlns="http://www.w3.org/2000/svg" xmlns:xlink="http://www.w3.org/1999/xlink" xmlns:ev="http://www.w3.org/2001/xml-events">
<title>SVG drawing</title>
<desc>This was produced by version 4.2 of GNU libplot, a free library for exporting 2-D vector graphics.</desc>
<rect id="background" x="0" y="0" width="1" height="1" stroke="none" fill="none"/>
<g id="content" transform="translate(-0.03125,1.1875) scale(1,-1) scale(0.0017361) " xml:space="preserve" stroke="black" stroke-linecap="butt" stroke-linejoin="miter" stroke-miterlimit="10.433" stroke-dasharray="none" stroke-dashoffset="0" stroke-opacity="1" fill="none" fill-rule="even-odd" fill-opacity="1" font-style="normal" font-variant="normal" font-weight="normal" font-stretch="normal" font-size-adjust="none" letter-spacing="normal" word-spacing="normal" text-anchor="start">
<line x1="20.656" y1="568.66" x2="22.406" y2="568.66" stroke="red" stroke-width="0.71875" stroke-linecap="round" />
<line x1="26.781" y1="568.66" x2="28.531" y2="568.66" stroke="red" stroke-width="0.71875" stroke-linecap="round" />
<polyline points="264.81,568.66 264.81,568.62 263.69,561.84 264.22,555.12 264.88,552.94 266.34,548.47 269,543.62 270.09,541.91 272.25,539.59 " stroke="red" stroke-width="0.96875" stroke-linecap="round" stroke-linejoin="round" />
<polyline points="294.81,535.94 297.78,537.12 301.91,539.28 306.03,541.84 306.09,541.91 310.12,545.84 312.16,548.47 314.25,553.12 314.97,555.12 316.66,561.84 317.34,568.62 317.34,568.66 " stroke="red" stroke-width="0.96875" stroke-linecap="round" stroke-linejoin="round" />
<polyline points="270.84,533.12 271.72,532.25 273.47,532.25 274.34,533.12 274.34,534.88 273.47,535.75 270.84,535.75 270.84,537.5 274.34,537.5 " stroke="red" stroke-width="0.71875" stroke-linecap="round" stroke-linejoin="round" />
<polyline points="276.97,536.62 277.84,537.5 279.59,537.5 280.47,536.62 280.47,535.75 276.97,532.25 280.47,532.25 " stroke="red" stroke-width="0.71875" stroke-linecap="round" stroke-linejoin="round" />
<polygon points="283.97,537.5 283.09,536.62 283.09,535.75 283.97,534.88 285.72,534.88 286.59,535.75 286.59,536.62 285.72,537.5 " stroke="red" stroke-width="0.71875" stroke-linejoin="round" />
<polyline points="283.97,534.88 283.09,534 283.09,533.12 283.97,532.25 285.72,532.25 286.59,533.12 286.59,534 285.72,534.88 " stroke="red" stroke-width="0.71875" stroke-linecap="round" stroke-linejoin="round" />
<polygon points="290.09,537.5 289.22,536.62 289.22,533.12 290.09,532.25 291.84,532.25 292.72,533.12 292.72,536.62 291.84,537.5 " stroke="red" stroke-width="0.71875" stroke-linejoin="round" />
<polyline points="51.531,568.66 51.531,568.62 50.938,567.41 48.375,561.84 46.844,558.94 44.625,555.12 43.219,553.19 " stroke="red" stroke-width="0.96875" stroke-linecap="round" stroke-linejoin="round" />
<polyline points="31.281,543.75 30.375,543.09 28.844,541.91 26.25,539.88 22.156,536 21.625,535.38 18.031,531 " stroke="red" stroke-width="0.96875" stroke-linecap="round" stroke-linejoin="round" />
<polyline points="27.469,546.72 28.344,545.84 30.094,545.84 30.969,546.72 30.969,548.47 30.094,549.34 27.469,549.34 27.469,551.09 30.969,551.09 " stroke="red" stroke-width="0.71875" stroke-linecap="round" stroke-linejoin="round" />
<polyline points="33.594,550.22 34.469,551.09 36.219,551.09 37.094,550.22 37.094,549.34 36.219,548.47 35.344,548.47 36.219,548.47 37.094,547.59 37.094,546.72 36.219,545.84 34.469,545.84 33.594,546.72 " stroke="red" stroke-width="0.71875" stroke-linecap="round" stroke-linejoin="round" />
<polyline points="41.469,551.09 39.719,548.47 43.219,548.47 43.219,551.09 43.219,545.84 " stroke="red" stroke-width="0.71875" stroke-linecap="round" stroke-linejoin="round" />
<polygon points="46.719,551.09 45.844,550.22 45.844,546.72 46.719,545.84 48.469,545.84 49.344,546.72 49.344,550.22 48.469,551.09 " stroke="red" stroke-width="0.71875" stroke-linejoin="round" />
<polyline points="232.94,568.66 232.94,568.62 234.38,561.84 236.06,557.25 236.78,555.12 240.16,548.47 240.19,548.44 244.06,541.91 244.31,541.56 248.41,535.97 248.84,535.38 252.53,531.41 254.91,528.97 256.66,527.53 260.75,524.16 263,522.59 264.88,521.5 269,519.53 273.09,518 276.09,517.25 " stroke="red" stroke-width="0.96875" stroke-linecap="round" stroke-linejoin="round" />
<polyline points="303.03,517.44 306.03,518.22 310.12,519.28 314.25,520.5 318.34,521.94 319.88,522.59 322.47,523.84 326.59,526.56 329.56,528.97 330.69,530.41 334.28,535.38 334.81,536.34 337.91,541.91 338.94,544.12 340.94,548.47 343.03,553.53 343.72,555.12 346.56,561.84 347.16,563.44 349.25,568.62 349.25,568.66 " stroke="red" stroke-width="0.96875" stroke-linecap="round" stroke-linejoin="round" />
<polyline points="279.06,513.75 279.94,512.88 281.69,512.88 282.56,513.75 282.56,515.5 281.69,516.38 279.06,516.38 279.06,518.12 282.56,518.12 " stroke="red" stroke-width="0.71875" stroke-linecap="round" stroke-linejoin="round" />
<polyline points="285.19,517.25 286.06,518.12 287.81,518.12 288.69,517.25 288.69,516.38 287.81,515.5 286.94,515.5 287.81,515.5 288.69,514.62 288.69,513.75 287.81,512.88 286.06,512.88 285.19,513.75 " stroke="red" stroke-width="0.71875" stroke-linecap="round" stroke-linejoin="round" />
<polyline points="293.06,518.12 291.31,515.5 294.81,515.5 294.81,518.12 294.81,512.88 " stroke="red" stroke-width="0.71875" stroke-linecap="round" stroke-linejoin="round" />
<polygon points="298.31,518.12 297.44,517.25 297.44,513.75 298.31,512.88 300.06,512.88 300.94,513.75 300.94,517.25 300.06,518.12 " stroke="red" stroke-width="0.71875" stroke-linejoin="round" />
<polyline points="378.56,568.66 378.53,568.62 375.97,565.47 373.28,561.84 371.84,559.97 368.44,555.12 367.72,554.22 363.69,548.47 363.62,548.38 359.5,542.31 359.22,541.91 355.38,536.12 354.94,535.38 351.28,530.03 350.56,528.97 347.16,524.78 345.34,522.59 343.03,520.09 339.22,516.28 338.94,516.03 334.81,513.03 330.69,510.62 329.53,510.06 326.59,508.72 322.47,507.16 318.34,505.69 314.25,504.38 312.44,503.88 310.12,503.25 306.03,502.38 301.91,501.78 297.78,501.41 293.69,501.25 289.56,501.31 285.44,501.75 281.34,502.34 277.22,503.09 273.38,503.88 273.09,503.94 269,504.66 264.88,505.53 260.75,506.59 256.66,507.91 252.53,509.62 251.59,510.06 248.41,511.66 244.31,513.91 240.22,516.28 240.19,516.28 236.06,518.81 231.97,521.41 230.09,522.59 227.84,524.22 223.72,527.22 221.22,528.97 219.62,530.12 218.47,530.94 " stroke="red" stroke-width="0.96875" stroke-linecap="round" stroke-linejoin="round" />
<polyline points="204.09,540.38 203.16,540.97 201.59,541.91 199.06,543.69 194.94,546.59 192.34,548.47 190.81,549.72 186.72,553.22 184.44,555.12 182.59,556.5 178.47,559.34 174.5,561.84 174.38,561.91 170.25,564.16 166.12,566.03 162.03,567.56 158.28,568.62 158.16,568.66 " stroke="red" stroke-width="0.96875" stroke-linecap="round" stroke-linejoin="round" />
<polyline points="144.56,568.66 144.34,568.62 141.44,568.19 137.34,566.88 133.22,565.47 129.12,564.16 125,563.22 120.88,564.25 116.78,565.22 112.66,565.97 108.53,566.34 104.44,565.75 100.31,564.91 96.188,563.91 92.094,562.78 87.969,562.22 85.719,561.84 83.844,561.47 79.75,560.31 75.625,558.53 71.531,555.12 71.5,555.09 67.406,549.09 67,548.47 63.281,543.03 62.469,541.91 59.188,538.16 56.781,535.38 55.062,533.78 50.938,530.28 49.219,528.97 46.844,527.44 42.719,524.78 39.219,522.59 38.594,522.19 34.5,519.22 31,516.28 30.375,515.75 26.25,511.88 24.062,510.06 22.156,508.41 18.031,504.78 " stroke="red" stroke-width="0.96875" stroke-linecap="round" stroke-linejoin="round" />
<polyline points="200.91,533.91 201.78,533.03 203.53,533.03 204.41,533.91 204.41,535.66 203.53,536.53 200.91,536.53 200.91,538.28 204.41,538.28 " stroke="red" stroke-width="0.71875" stroke-linecap="round" stroke-linejoin="round" />
<polyline points="208.78,538.28 207.03,535.66 210.53,535.66 210.53,538.28 210.53,533.03 " stroke="red" stroke-width="0.71875" stroke-linecap="round" stroke-linejoin="round" />
<polygon points="214.03,538.28 213.16,537.41 213.16,533.91 214.03,533.03 215.78,533.03 216.66,533.91 216.66,537.41 215.78,538.28 " stroke="red" stroke-width="0.71875" stroke-linejoin="round" />
<polygon points="220.16,538.28 219.28,537.41 219.28,533.91 220.16,533.03 221.91,533.03 222.78,533.91 222.78,537.41 221.91,538.28 " stroke="red" stroke-width="0.71875" stroke-linejoin="round" />
<polyline points="594,558.72 589.88,559.22 585.78,559.91 581.66,560.56 577.53,561.31 574.78,561.84 573.44,562.06 569.31,562.81 565.19,563.62 561.09,564.41 556.97,565.19 552.88,565.97 548.75,566.66 544.62,567.31 540.53,567.94 536.41,568.56 535.88,568.62 535.66,568.66 " stroke="red" stroke-width="0.96875" stroke-linecap="round" stroke-linejoin="round" />
<polyline points="424.84,568.66 424.78,568.62 421.22,567.22 417.09,565.81 412.97,564.38 408.88,562.78 406.72,561.84 404.75,560.94 400.62,558.25 396.62,555.12 396.53,555.03 392.41,551.56 389.09,548.47 388.31,547.72 384.19,543.88 382.19,541.91 380.06,539.81 375.97,535.59 375.78,535.38 371.84,531.22 369.94,528.97 367.72,526.41 364.44,522.59 363.62,521.66 359.5,517.12 358.75,516.28 355.38,512.81 352.72,510.06 351.28,508.59 347.16,504.72 346.16,503.88 343.03,501.25 338.94,498.31 337.88,497.75 334.81,496.19 330.69,494.44 326.59,492.94 323.59,492.03 " stroke="red" stroke-width="0.96875" stroke-linecap="round" stroke-linejoin="round" />
<polyline points="296.66,487.53 293.69,487.5 289.56,487.59 285.44,487.94 281.34,488.41 277.22,488.97 273.09,489.56 269,490.06 264.88,490.56 260.75,491.09 256.66,491.66 256.41,491.69 252.53,492.31 248.41,493.09 244.31,494 240.19,495.03 236.06,496.09 231.97,497.16 229.53,497.75 227.84,498.19 223.72,499.12 219.62,499.75 215.5,500.31 211.41,500.91 207.28,501.56 203.16,502.72 199.34,503.88 199.06,504 194.94,505.69 190.81,507.38 186.72,509.16 184.56,510.06 182.59,510.94 178.47,512.66 174.38,514.19 170.25,515.03 166.12,515.78 163.66,516.28 162.03,516.66 157.91,517.72 153.78,519.5 149.69,521.12 145.56,522.56 145.47,522.59 141.44,523.91 137.34,525.03 133.22,526.19 129.12,527.5 125,528.94 124.97,528.97 120.88,530.75 116.78,532.41 112.66,533.84 108.53,534.91 104.44,534.97 100.31,534.41 96.188,533.22 92.094,531.31 89.312,528.97 87.969,527.72 83.844,523.5 82.969,522.59 79.75,519.53 75.906,516.28 75.625,516.09 71.5,514.25 67.406,512.75 63.281,511.34 59.469,510.06 59.188,509.94 55.062,508.22 50.938,506.31 46.844,504.22 46.25,503.88 42.719,501.34 38.75,497.75 38.594,497.62 34.5,493.75 32.188,491.69 30.375,490.12 26.25,486.75 24.688,485.69 22.156,483.94 18.031,480.81 " stroke="red" stroke-width="0.96875" stroke-linecap="round" stroke-linejoin="round" />
<polyline points="299.62,486.94 300.5,486.06 302.25,486.06 303.12,486.94 303.12,488.69 302.25,489.56 299.62,489.56 299.62,491.31 303.12,491.31 " stroke="red" stroke-width="0.71875" stroke-linecap="round" stroke-linejoin="round" />
<polyline points="307.5,491.31 305.75,488.69 309.25,488.69 309.25,491.31 309.25,486.06 " stroke="red" stroke-width="0.71875" stroke-linecap="round" stroke-linejoin="round" />
<polyline points="315.38,490.44 314.5,491.31 312.75,491.31 311.88,490.44 311.88,486.94 312.75,486.06 314.5,486.06 315.38,486.94 315.38,487.81 314.5,488.69 311.88,488.69 " stroke="red" stroke-width="0.71875" stroke-linecap="round" stroke-linejoin="round" />
<polygon points="318.88,491.31 318,490.44 318,486.94 318.88,486.06 320.62,486.06 321.5,486.94 321.5,490.44 320.62,491.31 " stroke="red" stroke-width="0.71875" stroke-linejoin="round" />
<polyline points="594,519.84 589.88,521.91 589.03,522.59 585.78,524.72 581.66,527.69 580.12,528.97 577.53,530.47 573.44,532.94 569.31,535.28 569.09,535.38 565.19,537.12 561.09,538.81 556.97,540.38 552.88,541.78 552.5,541.91 548.75,542.91 544.62,543.94 540.53,544.88 536.41,545.75 532.28,546.44 528.19,547.09 524.06,547.75 519.94,548.38 519.41,548.47 515.84,549.06 511.72,549.75 507.59,550.41 503.5,551.03 499.38,551.56 495.25,552.03 491.16,552.47 487.03,552.88 482.91,553.31 478.81,553.72 474.69,554 470.56,554.12 466.47,554 462.34,553.69 458.25,553.12 454.12,552.34 450,551.25 445.91,550 441.78,548.62 441.34,548.47 437.66,547.16 433.56,545.66 429.44,544.16 425.31,542.59 423.47,541.91 421.22,541.03 417.09,539.81 412.97,538.47 408.88,536.88 405.78,535.38 404.75,534.88 400.62,531.94 396.94,528.97 396.53,528.56 392.41,524.31 390.81,522.59 388.31,519.81 384.38,516.28 384.19,516.12 380.06,512.78 376.44,510.06 375.97,509.72 371.84,506.72 368.59,503.88 367.72,503.06 363.62,499.28 361.91,497.75 359.5,495.69 355.38,492.41 354.5,491.69 351.28,489.12 347.16,486.22 346.31,485.69 343.03,483.62 338.94,481.44 335,479.75 334.81,479.66 330.69,477.91 330.44,477.78 " stroke="red" stroke-width="0.96875" stroke-linecap="round" stroke-linejoin="round" />
<polyline points="303.47,472 301.91,471.88 297.78,471.69 293.69,471.66 289.56,471.72 285.44,472 281.34,472.34 277.22,472.75 273.09,473.19 269,473.53 264.88,473.81 264.53,473.84 260.75,474.06 256.66,474.31 252.53,474.44 248.41,474.56 244.31,474.72 240.19,474.97 236.06,475.47 231.97,476.09 227.84,476.81 223.72,477.62 219.62,478.28 215.5,478.97 211.41,479.72 211.28,479.75 207.28,480.5 203.16,481.66 199.06,482.91 194.94,484.25 190.81,485.59 190.53,485.69 186.72,486.81 182.59,487.97 178.47,489.12 174.38,490.19 170.25,490.97 166.12,491.66 166.03,491.69 162.03,492.34 157.91,493.09 153.78,494.53 149.69,496.28 146.59,497.75 145.56,498.28 141.44,500.22 137.34,500.75 133.22,500.88 129.12,500.75 125,500.53 120.88,501.03 116.78,501.56 112.66,502.03 108.53,502.28 104.44,501.88 100.31,501.09 96.188,499.97 92.094,498.47 90.844,497.75 87.969,496.12 83.844,493.62 80.719,491.69 79.75,491.09 75.625,488.69 71.5,487.12 67.469,485.69 67.406,485.66 63.281,484.12 59.188,482.47 55.062,480.25 54.219,479.75 50.938,477.94 46.844,475.5 44.156,473.84 42.719,472.97 38.594,470.44 34.656,468 34.5,467.91 30.375,465.41 26.25,463 24.719,462.19 22.156,460.84 18.031,458.59 " stroke="red" stroke-width="0.96875" stroke-linecap="round" stroke-linejoin="round" />
<polyline points="306.44,472.09 307.31,471.22 309.06,471.22 309.94,472.09 309.94,473.84 309.06,474.72 306.44,474.72 306.44,476.47 309.94,476.47 " stroke="red" stroke-width="0.71875" stroke-linecap="round" stroke-linejoin="round" />
<polyline points="312.56,472.09 313.44,471.22 315.19,471.22 316.06,472.09 316.06,473.84 315.19,474.72 312.56,474.72 312.56,476.47 316.06,476.47 " stroke="red" stroke-width="0.71875" stroke-linecap="round" stroke-linejoin="round" />
<polyline points="318.69,475.59 319.56,476.47 321.31,476.47 322.19,475.59 322.19,474.72 318.69,471.22 322.19,471.22 " stroke="red" stroke-width="0.71875" stroke-linecap="round" stroke-linejoin="round" />
<polygon points="325.69,476.47 324.81,475.59 324.81,472.09 325.69,471.22 327.44,471.22 328.31,472.09 328.31,475.59 327.44,476.47 " stroke="red" stroke-width="0.71875" stroke-linejoin="round" />
<polyline points="594,454.66 589.88,453.16 585.78,452.91 581.66,453.59 577.53,455.31 575.84,456.47 573.44,458.41 570.09,462.19 569.31,463.25 566.66,468 565.19,471.09 564.06,473.84 561.94,479.75 561.09,482.84 560.31,485.69 558.56,491.69 556.97,496.19 556.38,497.75 553.28,503.88 552.88,504.5 548.75,508.88 547.34,510.06 544.62,511.97 540.53,514.31 536.41,516.25 536.28,516.28 532.28,517.62 528.19,518.81 524.06,519.84 519.94,520.81 515.84,521.91 513.22,522.59 511.72,522.97 507.59,523.97 503.5,524.94 499.38,525.84 495.25,526.69 491.16,527.34 487.03,527.88 482.91,528.03 478.81,528.03 474.69,527.88 470.56,527.59 466.47,527.28 462.34,526.84 458.25,526.31 454.12,525.66 450,524.88 445.91,523.94 441.78,522.91 440.72,522.59 437.66,521.69 433.56,520.28 429.44,518.78 425.31,517.12 423.38,516.28 421.22,515.31 417.09,513.34 412.97,511.03 411.5,510.06 408.88,508.22 404.75,504.91 403.66,503.88 400.62,501.16 396.53,497.75 396.53,497.72 392.41,494.72 388.31,492 387.78,491.69 384.19,489.47 380.06,486.72 378.66,485.69 375.97,483.69 371.84,480.53 370.72,479.75 367.72,477.81 363.62,475.22 361.44,473.84 359.5,472.59 355.38,469.91 352.25,468 351.28,467.41 347.16,465.12 345.31,464.22 " stroke="red" stroke-width="0.96875" stroke-linecap="round" stroke-linejoin="round" />
<polyline points="322.41,454.78 318.34,453.62 314.25,452.62 310.12,451.75 306.03,451.03 304.25,450.75 301.91,450.38 297.78,449.84 293.69,449.47 289.56,449.28 285.44,449.34 281.34,449.59 277.22,449.91 273.09,450.28 269,450.53 265,450.75 264.88,450.78 260.75,451 256.66,451.25 252.53,451.66 248.41,452.06 244.31,452.5 240.19,452.94 236.06,453.12 231.97,453.34 227.84,453.62 223.72,454.06 219.62,455.12 215.5,456.34 215.16,456.47 211.41,457.47 207.28,458.56 203.16,459.19 199.06,459.88 194.94,460.62 190.81,461.56 189.03,462.19 186.72,463 182.59,464.47 178.47,465.91 174.38,467.25 171.34,468 170.25,468.25 166.12,469.09 162.03,469.78 157.91,470.38 153.78,470.69 149.69,470.91 145.56,471.06 141.44,471.16 137.34,471.41 133.22,471.62 129.12,471.78 125,471.84 120.88,471.56 116.78,471.16 112.66,470.66 108.53,470.12 104.44,469.84 100.31,469.47 96.188,468.84 92.156,468 92.094,467.97 87.969,466.38 83.844,464.72 79.75,463.09 77.438,462.19 75.625,461.56 71.5,460.44 67.406,459.28 63.281,458.06 59.188,456.62 58.812,456.47 55.062,454.59 50.938,452.38 48.094,450.75 46.844,450.06 42.719,447.81 38.594,445.94 36.719,445.12 34.5,444.19 30.375,442.5 26.25,440.75 23.594,439.5 22.156,438.81 18.031,436.44 " stroke="red" stroke-width="0.96875" stroke-linecap="round" stroke-linejoin="round" />
<polyline points="324.31,457.75 325.19,456.88 326.94,456.88 327.81,457.75 327.81,459.5 326.94,460.38 324.31,460.38 324.31,462.12 327.81,462.12 " stroke="red" stroke-width="0.71875" stroke-linecap="round" stroke-linejoin="round" />
<polyline points="330.44,457.75 331.31,456.88 333.06,456.88 333.94,457.75 333.94,459.5 333.06,460.38 330.44,460.38 330.44,462.12 333.94,462.12 " stroke="red" stroke-width="0.71875" stroke-linecap="round" stroke-linejoin="round" />
<polygon points="337.44,462.12 336.56,461.25 336.56,460.38 337.44,459.5 339.19,459.5 340.06,460.38 340.06,461.25 339.19,462.12 " stroke="red" stroke-width="0.71875" stroke-linejoin="round" />
<polyline points="337.44,459.5 336.56,458.62 336.56,457.75 337.44,456.88 339.19,456.88 340.06,457.75 340.06,458.62 339.19,459.5 " stroke="red" stroke-width="0.71875" stroke-linecap="round" stroke-linejoin="round" />
<polygon points="343.56,462.12 342.69,461.25 342.69,457.75 343.56,456.88 345.31,456.88 346.19,457.75 346.19,461.25 345.31,462.12 " stroke="red" stroke-width="0.71875" stroke-linejoin="round" />
<polyline points="594,420 589.88,419.34 585.78,419.31 581.66,419.5 577.53,420.28 573.44,421.72 570.94,422.97 569.31,423.81 565.19,427.06 563.72,428.44 561.09,431.03 558.53,433.97 556.97,435.84 554.34,439.5 552.88,441.78 551,445.12 548.75,449.53 548.12,450.75 545.44,456.47 544.62,458.31 542.78,462.19 540.53,466.72 539.78,468 536.41,473.38 536,473.84 532.28,477.72 529.88,479.75 528.19,481.03 524.06,483.53 519.94,485.5 519.44,485.69 515.84,486.94 511.72,488.12 507.59,489.22 503.5,490.31 499.72,491.69 499.38,491.81 495.25,493.19 491.16,494.5 487.03,495.66 482.91,496.72 478.81,497.62 478,497.75 474.69,498.31 470.56,498.78 466.47,498.88 462.34,498.78 458.25,498.44 454.12,497.91 453.28,497.75 450,497.16 445.91,496.22 441.78,495.09 437.66,493.84 433.56,492.47 431.47,491.69 429.44,490.91 425.31,489.06 421.22,486.94 419.28,485.69 417.09,484.22 412.97,481.31 410.81,479.75 408.88,478.44 404.75,475.81 400.91,473.84 400.62,473.69 396.53,471.5 392.41,469.16 390.47,468 388.31,466.62 384.19,463.97 381.25,462.19 380.06,461.5 375.97,459.16 371.84,456.94 371.16,456.47 367.72,454.06 363.62,451.12 363.09,450.75 359.5,448.19 355.38,445.34 354.94,445.12 351.28,443.12 347.16,441.03 344,439.5 343.03,439.03 342.31,438.69 " stroke="red" stroke-width="0.96875" stroke-linecap="round" stroke-linejoin="round" />
<polyline points="320.66,429.22 318.66,428.44 318.34,428.31 314.25,426.78 310.12,425.38 306.03,424.09 302.75,422.97 301.91,422.66 297.78,421.25 293.69,419.94 289.56,418.75 285.44,417.84 283.59,417.53 281.34,417.12 277.22,416.59 273.09,416.34 269,416.69 264.88,417.38 264.19,417.53 260.75,418.34 256.66,419.47 252.53,420.34 248.41,421.19 244.31,421.97 240.19,422.69 239.06,422.97 236.06,423.56 231.97,424.28 227.84,424.84 223.72,425.25 219.62,425.16 215.5,424.97 211.41,424.78 207.28,424.75 203.16,425.66 199.06,426.78 194.94,427.97 193.25,428.44 190.81,429.06 186.72,429.97 182.59,430.94 178.47,432.06 174.38,433.28 172.53,433.97 170.25,434.78 166.12,436.25 162.03,437.59 157.91,438.75 154.03,439.5 153.78,439.56 149.69,440.19 145.56,440.66 141.44,440.97 137.34,441 133.22,440.97 129.12,440.84 125,440.72 120.88,440.78 116.78,440.81 112.66,440.81 108.53,440.72 104.44,440.47 100.31,440.16 96.188,439.72 94.625,439.5 92.094,439.19 87.969,438.62 83.844,437.97 79.75,437.19 75.625,436.28 71.5,435.12 67.812,433.97 67.406,433.81 63.281,432.47 59.188,431.03 55.062,429.47 52.375,428.44 50.938,427.91 46.844,426.38 42.719,424.88 38.594,423.53 37,422.97 34.5,422.06 30.375,420.41 26.25,418.62 23.812,417.53 22.156,416.78 18.031,414.78 " stroke="red" stroke-width="0.96875" stroke-linecap="round" stroke-linejoin="round" />
<polyline points="321.5,432.22 322.38,431.34 324.12,431.34 325,432.22 325,433.97 324.12,434.84 321.5,434.84 321.5,436.59 325,436.59 " stroke="red" stroke-width="0.71875" stroke-linecap="round" stroke-linejoin="round" />
<polyline points="331.12,435.72 330.25,436.59 328.5,436.59 327.62,435.72 327.62,432.22 328.5,431.34 330.25,431.34 331.12,432.22 331.12,433.09 330.25,433.97 327.62,433.97 " stroke="red" stroke-width="0.71875" stroke-linecap="round" stroke-linejoin="round" />
<polyline points="335.5,436.59 333.75,433.97 337.25,433.97 337.25,436.59 337.25,431.34 " stroke="red" stroke-width="0.71875" stroke-linecap="round" stroke-linejoin="round" />
<polygon points="340.75,436.59 339.88,435.72 339.88,432.22 340.75,431.34 342.5,431.34 343.38,432.22 343.38,435.72 342.5,436.59 " stroke="red" stroke-width="0.71875" stroke-linejoin="round" />
<polyline points="594,389.59 589.88,389.41 585.78,389.59 581.66,390.06 577.53,390.94 577.47,390.97 573.44,392.12 569.31,393.69 565.19,395.88 564.69,396.22 561.09,398.47 557,401.47 556.97,401.5 552.88,404.97 550.91,406.78 548.75,408.97 545.91,412.16 544.62,413.72 541.59,417.53 540.53,418.97 537.47,422.97 536.41,424.47 532.72,428.44 532.28,428.94 528.19,433.22 527.44,433.97 524.06,437.38 521.72,439.5 519.94,441.09 515.84,444.5 514.97,445.12 511.72,447.25 507.59,449.56 505.25,450.75 503.5,451.62 499.38,454.16 495.72,456.47 495.25,456.75 491.16,459.16 487.03,461.31 484.53,462.19 482.91,462.75 478.81,463.88 474.69,464.69 470.56,465.22 466.47,465.41 462.34,465.31 458.25,464.97 454.12,464.41 450,463.66 445.91,462.75 443.84,462.19 441.78,461.66 437.66,460.41 433.56,459.28 429.44,458.06 425.31,456.78 424.44,456.47 421.22,455.28 417.09,453.56 412.97,451.75 410.84,450.75 408.88,449.81 404.75,447.72 400.62,445.16 400.59,445.12 396.53,442.41 392.41,439.78 391.94,439.5 388.31,437.31 384.19,435.75 380.06,434.31 379.09,433.97 375.97,432.72 371.84,430.88 368.28,428.44 367.72,428.03 363.62,425.06 360.66,422.97 359.5,422.16 355.38,419.38 352.19,417.53 351.28,417 347.16,414.62 343.03,412.34 342.66,412.16 338.94,409.94 334.81,407.44 333.75,406.78 330.94,405.09 " stroke="red" stroke-width="0.96875" stroke-linecap="round" stroke-linejoin="round" />
<polyline points="312.12,395.66 310.12,394.72 306.03,392.81 301.91,391.09 301.62,390.97 297.78,389.53 293.69,388.03 289.56,386.5 288,385.78 285.44,384.53 281.34,382.53 277.41,380.59 277.22,380.5 273.09,378.5 269,376.66 266.44,375.47 264.88,374.72 260.75,372.88 256.66,371.16 252.78,370.38 252.53,370.31 248.41,370.09 244.31,370.19 242.59,370.38 240.19,370.69 236.06,371.56 231.97,372.69 227.84,374 223.72,375.38 223.5,375.47 219.62,376.94 215.5,378.44 211.41,379.78 208.62,380.59 207.28,381 203.16,381.53 199.06,382.06 194.94,382.81 190.81,383.91 187.56,385.78 186.72,386.28 182.59,389.09 179.88,390.97 178.47,391.97 174.38,394.59 170.69,396.22 170.25,396.41 166.12,398 162.03,399.53 157.91,401.03 156.69,401.47 153.78,402.59 149.69,404.16 145.56,405.69 142.41,406.78 141.44,407.12 137.34,408.53 133.22,409.78 129.12,410.88 125,411.81 122.91,412.16 120.88,412.44 116.78,412.94 112.66,413.34 108.53,413.66 104.44,414 100.31,414.25 96.188,414.41 92.094,414.47 87.969,414.44 83.844,414.28 79.75,413.97 75.625,413.47 71.5,412.56 69.969,412.16 67.406,411.41 63.281,410.03 59.188,408.59 55.062,407.19 53.938,406.78 50.938,405.69 46.844,404.12 42.719,402.47 40.562,401.47 38.594,400.59 34.5,398.62 30.375,396.66 29.406,396.22 26.25,394.66 22.156,392.72 18.656,390.97 18.031,390.66 " stroke="red" stroke-width="0.96875" stroke-linecap="round" stroke-linejoin="round" />
<polyline points="311.97,398.62 312.84,397.75 314.59,397.75 315.47,398.62 315.47,400.38 314.59,401.25 311.97,401.25 311.97,403 315.47,403 " stroke="red" stroke-width="0.71875" stroke-linecap="round" stroke-linejoin="round" />
<polyline points="318.09,403 321.59,403 319.84,397.75 " stroke="red" stroke-width="0.71875" stroke-linecap="round" stroke-linejoin="round" />
<polygon points="325.09,403 324.22,402.12 324.22,398.62 325.09,397.75 326.84,397.75 327.72,398.62 327.72,402.12 326.84,403 " stroke="red" stroke-width="0.71875" stroke-linejoin="round" />
<polygon points="331.22,403 330.34,402.12 330.34,398.62 331.22,397.75 332.97,397.75 333.84,398.62 333.84,402.12 332.97,403 " stroke="red" stroke-width="0.71875" stroke-linejoin="round" />
<polyline points="594,341.12 589.88,343.75 587.19,345.31 585.78,346.03 581.66,347.59 577.53,349 573.91,350.28 573.44,350.44 569.31,352.03 565.19,354.72 564.59,355.25 561.09,358.19 559.16,360.25 556.97,362.56 554.78,365.28 552.88,367.47 550.22,370.38 548.75,371.5 544.62,374.75 543.75,375.47 540.53,377.88 537.03,380.59 536.41,381.09 532.28,384.34 530.53,385.78 528.19,387.66 524.12,390.97 524.06,391 519.94,394.41 517.94,396.22 515.84,398.09 512.22,401.47 511.72,401.94 507.59,405.84 506.59,406.78 503.5,409.66 500.47,412.16 499.38,413 495.25,415.78 492.22,417.53 491.16,418.09 487.03,419.97 482.91,421.62 479.12,422.97 478.81,423.09 474.69,424.28 470.56,425.25 466.47,425.69 462.34,425.78 458.25,425.53 454.12,424.94 450,423.91 446.97,422.97 445.91,422.59 441.78,421 437.66,419.31 433.56,418.03 431.97,417.53 429.44,416.75 425.31,415.53 421.22,414.31 417.09,412.94 414.91,412.16 412.97,411.47 408.88,409.88 404.75,408.22 401.38,406.78 400.62,406.47 396.53,404.72 392.41,403 388.62,401.47 388.31,401.34 384.19,399.91 380.06,398.41 375.97,396.81 374.5,396.22 371.84,395.06 367.72,392.97 363.91,390.97 363.62,390.81 359.5,388.56 355.38,386.31 354.44,385.78 351.28,383.88 347.16,381.44 345.72,380.59 343.03,379 338.94,376.62 336.78,375.56 " stroke="red" stroke-width="0.96875" stroke-linecap="round" stroke-linejoin="round" />
<polyline points="317.31,366.12 315.81,365.28 314.25,364.38 310.12,362.06 306.72,360.25 306.03,359.88 301.91,358.16 297.78,356.59 294.22,355.25 293.69,355.03 289.56,353.41 285.44,351.47 282.78,350.28 281.34,349.59 277.22,347.75 273.09,346.12 270.75,345.31 269,344.75 264.88,343.59 260.75,342.66 256.66,341.94 252.53,341.34 248.41,340.91 244.31,340.59 240.19,340.44 236.06,340.66 231.97,341.06 227.84,341.66 223.72,342.38 219.62,343 215.5,343.69 211.41,344.53 208.22,345.31 207.28,345.56 203.16,347.25 199.06,349.25 197.22,350.28 194.94,351.47 190.81,353.59 187.56,355.25 186.72,355.66 182.59,357.72 178.47,359.88 177.78,360.25 174.38,362.09 170.25,364.09 167.75,365.28 166.12,366.06 162.03,368 157.91,369.88 156.84,370.38 153.78,371.72 149.69,373.47 145.56,375.12 144.66,375.47 141.44,376.66 137.34,378.03 133.22,379.38 129.44,380.59 129.12,380.72 125,382 120.88,383.28 116.78,384.47 112.66,385.53 111.69,385.78 108.53,386.44 104.44,387.38 100.31,388.16 96.188,388.75 92.094,389.09 87.969,388.81 83.844,388.25 79.75,387.41 75.625,386.41 73.156,385.78 71.5,385.34 67.406,384.16 63.281,382.94 59.188,381.69 55.562,380.59 55.062,380.44 50.938,379.09 46.844,377.69 42.719,376.12 41.219,375.47 38.594,374.28 34.5,372.31 30.562,370.38 30.375,370.28 26.25,368.31 22.156,366.5 19.312,365.28 18.031,364.72 " stroke="red" stroke-width="0.96875" stroke-linecap="round" stroke-linejoin="round" />
<polyline points="316.09,369.09 316.97,368.22 318.72,368.22 319.59,369.09 319.59,370.84 318.72,371.72 316.09,371.72 316.09,373.47 319.59,373.47 " stroke="red" stroke-width="0.71875" stroke-linecap="round" stroke-linejoin="round" />
<polyline points="322.22,373.47 325.72,373.47 323.97,368.22 " stroke="red" stroke-width="0.71875" stroke-linecap="round" stroke-linejoin="round" />
<polyline points="331.84,372.59 330.97,373.47 329.22,373.47 328.34,372.59 328.34,369.09 329.22,368.22 330.97,368.22 331.84,369.09 331.84,369.97 330.97,370.84 328.34,370.84 " stroke="red" stroke-width="0.71875" stroke-linecap="round" stroke-linejoin="round" />
<polygon points="335.34,373.47 334.47,372.59 334.47,369.09 335.34,368.22 337.09,368.22 337.97,369.09 337.97,372.59 337.09,373.47 " stroke="red" stroke-width="0.71875" stroke-linejoin="round" />
<polyline points="541.19,247 541.19,247.03 540.53,248.31 538.94,251.5 536.66,256 536.41,256.44 534.19,260.5 532.28,263.97 531.72,265.03 529.09,269.59 528.19,271.06 526.25,274.16 524.06,276.69 522.25,278.75 519.94,281.19 517.69,283.34 515.84,285.09 512.69,287.97 511.72,288.88 507.69,292.62 507.59,292.72 503.56,297.31 503.5,297.38 499.59,302 499.38,302.25 495.56,306.72 495.25,307.06 491.41,311.44 491.16,311.75 487.44,316.22 487.03,316.78 483.62,321 482.91,322 480,325.81 478.81,327.47 476.16,330.66 474.69,332.03 470.56,335.06 469.94,335.5 466.47,337.81 462.44,340.41 462.34,340.44 458.25,342.97 454.34,345.31 454.12,345.44 450,347.41 445.91,349.09 442.34,350.28 441.78,350.41 437.66,351.22 433.56,351.44 429.44,351.44 425.31,351.28 421.22,350.97 417.09,350.56 414.31,350.28 412.97,350.16 408.88,349.81 404.75,349.56 400.62,350.06 398.94,350.28 396.53,350.53 392.41,350.84 388.31,350.91 384.19,350.28 384.09,350.28 380.06,349.22 375.97,347.91 371.84,346.41 369.38,345.31 367.72,344.53 363.62,342.41 359.84,340.41 359.5,340.19 355.38,337.69 352.28,335.5 351.28,334.75 347.16,331.47 346.12,330.66 343.03,327.91 340.5,325.81 338.94,324.41 334.81,321.53 334,321 330.69,318.69 326.81,316.22 326.59,316.06 324.47,314.78 " stroke="red" stroke-width="0.96875" stroke-linecap="round" stroke-linejoin="round" />
<polyline points="300.78,305.5 297.78,304.59 293.69,303.44 289.56,302.44 287.97,302 285.44,301.28 281.34,300.22 277.22,299.28 273.09,298.5 269,297.84 264.88,297.34 264.31,297.31 260.75,296.94 256.66,296.69 252.53,296.56 248.41,296.59 244.31,296.84 240.44,297.31 240.19,297.31 236.06,298.22 231.97,299.34 227.84,300.56 223.72,301.88 223.22,302 219.62,302.75 215.5,303.69 211.41,304.75 207.28,306.03 206,306.72 203.16,308.16 199.06,310.66 197.84,311.44 194.94,313.19 190.81,315.56 189.44,316.22 186.72,317.41 182.59,319.34 179.38,321 178.47,321.47 174.38,323.78 171.06,325.81 170.25,326.28 166.12,328.72 162.94,330.66 162.03,331.16 157.91,333.34 153.78,335.44 153.69,335.5 149.69,337.34 145.56,339.19 142.75,340.41 141.44,340.94 137.34,342.47 133.22,343.91 129.12,345.28 129,345.31 125,346.5 120.88,347.84 116.78,349.19 113.12,350.28 112.66,350.41 108.53,351.31 104.44,351.53 100.31,351.5 96.188,351.25 92.094,350.94 87.969,350.91 83.844,350.84 79.75,350.72 75.625,350.53 72.094,350.28 71.5,350.22 67.406,349.75 63.281,349.12 59.188,348.34 55.062,347.34 50.938,346.25 47.656,345.31 46.844,345.09 42.719,343.75 38.594,342.47 34.5,341.12 32.438,340.41 30.375,339.62 26.25,337.97 22.156,336.12 20.844,335.5 18.031,334.09 " stroke="red" stroke-width="0.96875" stroke-linecap="round" stroke-linejoin="round" />
<polyline points="303.75,308.31 304.62,307.44 306.38,307.44 307.25,308.31 307.25,310.06 306.38,310.94 303.75,310.94 303.75,312.69 307.25,312.69 " stroke="red" stroke-width="0.71875" stroke-linecap="round" stroke-linejoin="round" />
<polygon points="310.75,312.69 309.88,311.81 309.88,310.94 310.75,310.06 312.5,310.06 313.38,310.94 313.38,311.81 312.5,312.69 " stroke="red" stroke-width="0.71875" stroke-linejoin="round" />
<polyline points="310.75,310.06 309.88,309.19 309.88,308.31 310.75,307.44 312.5,307.44 313.38,308.31 313.38,309.19 312.5,310.06 " stroke="red" stroke-width="0.71875" stroke-linecap="round" stroke-linejoin="round" />
<polyline points="316,311.81 316.88,312.69 318.62,312.69 319.5,311.81 319.5,310.94 316,307.44 319.5,307.44 " stroke="red" stroke-width="0.71875" stroke-linecap="round" stroke-linejoin="round" />
<polygon points="323,312.69 322.12,311.81 322.12,308.31 323,307.44 324.75,307.44 325.62,308.31 325.62,311.81 324.75,312.69 " stroke="red" stroke-width="0.71875" stroke-linejoin="round" />
</g>
</svg>
