<?xml version="1.0" encoding="ISO-8859-1" standalone="no"?>
<!DOCTYPE svg PUBLIC "-//W3C//DTD SVG 1.1//EN" "http://www.w3.org/Graphics/SVG/1.1/DTD/svg11.dtd">
<svg version="1.1" baseProfile="full" id="body" width="900px" height="600px" viewBox="0 0.2 1 0.55" preserveAspectRatio="none" xmlns="http://www.w3.org/2000/svg" xmlns:xlink="http://www.w3.org/1999/xlink" xmlns:ev="http://www.w3.org/2001/xml-events">
<title>SVG drawing</title>
<desc>This was produced by version 4.2 of GNU libplot, a free library for exporting 2-D vector graphics.</desc>
<rect id="background" x="0" y="0" width="1" height="1" stroke="none" fill="none"/>
<g id="content" transform="translate(-0.03125,1.1875) scale(1,-1) scale(0.0017361) " xml:space="preserve" stroke="black" stroke-linecap="butt" stroke-linejoin="miter" stroke-miterlimit="10.433" stroke-dasharray="none" stroke-dashoffset="0" stroke-opacity="1" fill="none" fill-rule="even-odd" fill-opacity="1" font-style="normal" font-variant="normal" font-weight="normal" font-stretch="normal" font-size-adjust="none" letter-spacing="normal" word-spacing="normal" text-anchor="start">
<polyline points="384.19,568.66 384.31,568.62 388.31,567.47 392.41,566.5 396.53,565.69 399.5,565.25 " stroke="red" stroke-width="0.96875" stroke-linecap="round" stroke-linejoin="round" />
<polyline points="426.47,565.28 429.44,565.62 433.56,566.28 437.66,567.09 441.78,568.09 443.59,568.62 443.72,568.66 " stroke="red" stroke-width="0.96875" stroke-linecap="round" stroke-linejoin="round" />
<polyline points="402.47,562.66 403.34,561.78 405.09,561.78 405.97,562.66 405.97,564.41 405.09,565.28 402.47,565.28 402.47,567.03 405.97,567.03 " stroke="red" stroke-width="0.71875" stroke-linecap="round" stroke-linejoin="round" />
<polyline points="408.59,566.16 409.47,567.03 411.22,567.03 412.09,566.16 412.09,565.28 408.59,561.78 412.09,561.78 " stroke="red" stroke-width="0.71875" stroke-linecap="round" stroke-linejoin="round" />
<polyline points="414.72,566.16 415.59,567.03 417.34,567.03 418.22,566.16 418.22,565.28 414.72,561.78 418.22,561.78 " stroke="red" stroke-width="0.71875" stroke-linecap="round" stroke-linejoin="round" />
<polygon points="421.72,567.03 420.84,566.16 420.84,562.66 421.72,561.78 423.47,561.78 424.34,562.66 424.34,566.16 423.47,567.03 " stroke="red" stroke-width="0.71875" stroke-linejoin="round" />
<polyline points="64.531,568.66 64.531,568.62 64.562,561.84 64.906,555.12 66.406,548.47 67.406,542.91 67.562,541.91 68.375,535.38 68.688,528.97 68.75,522.59 67.688,519.03 " stroke="red" stroke-width="0.96875" stroke-linecap="round" stroke-linejoin="round" />
<polyline points="45.688,515.28 42.719,515.88 41.469,516.28 38.594,517.31 34.5,519.03 30.375,520.94 27.094,522.59 26.25,523.06 22.156,525.56 18.031,527.97 " stroke="red" stroke-width="0.96875" stroke-linecap="round" stroke-linejoin="round" />
<polyline points="48.688,512.56 49.562,511.69 51.312,511.69 52.188,512.56 52.188,514.31 51.312,515.19 48.688,515.19 48.688,516.94 52.188,516.94 " stroke="red" stroke-width="0.71875" stroke-linecap="round" stroke-linejoin="round" />
<polyline points="54.812,516.06 55.688,516.94 57.438,516.94 58.312,516.06 58.312,515.19 54.812,511.69 58.312,511.69 " stroke="red" stroke-width="0.71875" stroke-linecap="round" stroke-linejoin="round" />
<polygon points="61.812,516.94 60.938,516.06 60.938,515.19 61.812,514.31 63.562,514.31 64.438,515.19 64.438,516.06 63.562,516.94 " stroke="red" stroke-width="0.71875" stroke-linejoin="round" />
<polyline points="61.812,514.31 60.938,513.44 60.938,512.56 61.812,511.69 63.562,511.69 64.438,512.56 64.438,513.44 63.562,514.31 " stroke="red" stroke-width="0.71875" stroke-linecap="round" stroke-linejoin="round" />
<polygon points="67.938,516.94 67.062,516.06 67.062,512.56 67.938,511.69 69.688,511.69 70.562,512.56 70.562,516.06 69.688,516.94 " stroke="red" stroke-width="0.71875" stroke-linejoin="round" />
<polyline points="334.94,568.66 335,568.62 338.94,566.62 343.03,564.53 347.16,562.59 348.81,561.84 351.28,560.75 355.38,559.03 359.5,557.31 363.62,555.72 365.25,555.12 367.72,554.22 371.84,552.81 375.97,551.62 380.06,550.59 384.19,549.72 388.31,549.03 392.41,548.56 393.88,548.47 395.41,548.38 " stroke="red" stroke-width="0.96875" stroke-linecap="round" stroke-linejoin="round" />
<polyline points="422.34,549.53 425.31,549.91 429.44,550.5 433.56,551.22 437.66,552.03 441.78,553.03 445.91,554.16 449.16,555.12 450,555.38 454.12,556.66 458.25,558 462.34,559.44 466.47,560.97 468.69,561.84 470.56,562.59 474.69,564.19 478.81,565.88 482.91,567.62 485.22,568.62 485.28,568.66 " stroke="red" stroke-width="0.96875" stroke-linecap="round" stroke-linejoin="round" />
<polyline points="398.38,546.53 399.25,545.66 401,545.66 401.88,546.53 401.88,548.28 401,549.16 398.38,549.16 398.38,550.91 401.88,550.91 " stroke="red" stroke-width="0.71875" stroke-linecap="round" stroke-linejoin="round" />
<polyline points="404.5,550.03 405.38,550.91 407.12,550.91 408,550.03 408,549.16 404.5,545.66 408,545.66 " stroke="red" stroke-width="0.71875" stroke-linecap="round" stroke-linejoin="round" />
<polygon points="411.5,550.91 410.62,550.03 410.62,549.16 411.5,548.28 413.25,548.28 414.12,549.16 414.12,550.03 413.25,550.91 " stroke="red" stroke-width="0.71875" stroke-linejoin="round" />
<polyline points="411.5,548.28 410.62,547.41 410.62,546.53 411.5,545.66 413.25,545.66 414.12,546.53 414.12,547.41 413.25,548.28 " stroke="red" stroke-width="0.71875" stroke-linecap="round" stroke-linejoin="round" />
<polygon points="417.62,550.91 416.75,550.03 416.75,546.53 417.62,545.66 419.38,545.66 420.25,546.53 420.25,550.03 419.38,550.91 " stroke="red" stroke-width="0.71875" stroke-linejoin="round" />
<polyline points="524.31,568.66 524.25,568.62 524.06,568.5 519.94,565.94 515.84,563.81 511.72,561.88 511.62,561.84 507.59,560.06 503.5,558.38 499.38,556.56 496.09,555.12 495.25,554.75 491.16,553.03 487.03,551.38 482.91,549.91 478.81,548.53 478.62,548.47 474.69,547.19 470.56,545.91 466.47,544.62 462.34,543.38 458.25,542.16 457.25,541.91 454.12,541 450,539.81 445.91,538.66 441.78,537.62 437.66,536.66 433.56,535.88 430.5,535.38 429.44,535.22 425.31,534.62 421.22,534.09 417.09,533.59 412.97,533.19 408.88,532.81 404.75,532.5 400.62,532.22 396.53,532 392.41,531.84 388.31,531.75 384.19,531.84 380.06,532 375.97,532.28 371.84,532.62 367.72,533.16 363.62,533.75 359.5,534.38 355.38,535.03 352.31,535.38 351.28,535.53 347.16,535.97 343.03,536.38 338.94,536.69 334.81,536.94 330.69,537.09 326.59,537.16 322.47,537.06 318.34,536.75 314.25,536.28 310.12,535.62 308.78,535.38 306.03,534.88 301.91,534.19 297.78,533.38 293.69,532.5 289.56,531.53 286.56,530.72 " stroke="red" stroke-width="0.96875" stroke-linecap="round" stroke-linejoin="round" />
<polyline points="259.62,522.53 256.66,521.66 252.53,520.72 248.41,519.84 244.31,519.09 240.19,518.47 236.06,518 231.97,517.72 227.84,517.59 223.72,517.66 219.62,518.03 215.5,518.53 211.41,519.03 207.28,519.44 203.16,519.62 199.06,519.69 194.94,519.62 190.81,519.44 186.72,518.88 182.59,518.22 178.47,517.53 174.38,516.88 170.25,516.59 166.12,516.41 162.12,516.28 162.03,516.28 157.91,516.22 155.59,516.28 153.78,516.34 149.69,516.41 146.34,516.28 145.56,516.25 141.44,515.81 137.34,514.19 133.22,512.38 129.12,510.53 127.88,510.06 125,509 120.88,508.97 116.78,508.91 112.66,508.44 108.53,507.12 105.5,503.88 104.44,502.78 101.12,497.75 100.31,496.53 97.594,491.69 96.188,489.59 93.438,485.69 92.094,484.28 87.969,482.72 83.844,482.38 79.75,482.75 75.625,483.59 71.5,485.03 69.969,485.69 67.406,486.78 63.281,488.66 59.188,490.53 55.875,491.69 55.062,492 50.938,493.56 46.844,495.22 42.719,496.97 41.031,497.75 38.594,498.94 34.5,500.94 30.375,502.97 28.562,503.88 26.25,505.06 22.156,507.31 18.031,509.75 " stroke="red" stroke-width="0.96875" stroke-linecap="round" stroke-linejoin="round" />
<polyline points="262.59,525.25 263.47,524.38 265.22,524.38 266.09,525.25 266.09,527 265.22,527.88 262.59,527.88 262.59,529.62 266.09,529.62 " stroke="red" stroke-width="0.71875" stroke-linecap="round" stroke-linejoin="round" />
<polyline points="268.72,528.75 269.59,529.62 271.34,529.62 272.22,528.75 272.22,527.88 271.34,527 270.47,527 271.34,527 272.22,526.12 272.22,525.25 271.34,524.38 269.59,524.38 268.72,525.25 " stroke="red" stroke-width="0.71875" stroke-linecap="round" stroke-linejoin="round" />
<polyline points="276.59,529.62 274.84,527 278.34,527 278.34,529.62 278.34,524.38 " stroke="red" stroke-width="0.71875" stroke-linecap="round" stroke-linejoin="round" />
<polygon points="281.84,529.62 280.97,528.75 280.97,525.25 281.84,524.38 283.59,524.38 284.47,525.25 284.47,528.75 283.59,529.62 " stroke="red" stroke-width="0.71875" stroke-linejoin="round" />
<polyline points="565.03,568.66 564.97,568.62 561.09,566.72 556.97,564.75 552.88,562.81 550.75,561.84 548.75,560.88 544.62,558.91 540.53,556.91 536.91,555.12 536.41,554.84 532.28,552.47 528.19,550.19 524.84,548.47 524.06,548.06 519.94,546.09 515.84,544.5 511.72,543.06 508.38,541.91 507.59,541.62 503.5,540.19 499.38,538.62 495.25,537.09 491.16,535.62 490.5,535.38 487.03,534.16 482.91,532.84 478.81,531.59 474.69,530.38 470.56,529.19 469.81,528.97 466.47,527.94 462.34,526.75 458.25,525.59 454.12,524.47 450,523.38 446.84,522.59 445.91,522.34 441.78,521.38 437.66,520.5 433.56,519.81 429.44,519.25 425.31,518.75 421.22,518.31 417.09,517.84 412.97,517.44 408.88,517 404.75,516.59 401.81,516.28 400.62,516.16 396.53,515.69 392.41,515.25 388.31,514.81 384.19,514.47 380.06,514.16 375.97,513.84 371.84,513.56 367.72,513.22 363.62,512.88 359.5,512.5 355.38,512.03 351.28,511.47 347.16,510.81 343.03,510.06 342.88,510.06 338.94,509.25 334.81,508.38 330.69,507.38 326.59,506.28 322.47,505.03 319.22,503.88 318.34,503.5 314.25,501.62 310.12,499.59 306.72,497.75 306.03,497.34 304.59,496.41 " stroke="red" stroke-width="0.96875" stroke-linecap="round" stroke-linejoin="round" />
<polyline points="292.75,486.97 291.44,485.69 289.56,484 285.44,480.25 284.94,479.75 281.34,477.5 277.22,474.84 275.62,473.84 273.09,472.41 269,470.28 264.88,468.25 264.28,468 260.75,466.62 256.66,465.28 252.53,464.56 248.41,464.19 244.31,464.12 240.19,464.31 236.06,464.34 231.97,464.59 227.84,465.09 223.72,465.91 219.62,467.62 218.81,468 215.5,469.72 211.41,471.72 207.28,473.38 204.16,473.84 203.16,474 199.06,474.28 194.94,474.28 190.81,474.03 186.72,473.97 184.25,473.84 182.59,473.75 178.47,473.31 174.38,472.69 170.25,471.41 166.12,470.19 162.03,469.09 157.91,468.25 153.78,468.06 149.69,468.09 145.56,468.31 141.44,468.69 137.34,469.34 133.22,470.06 129.12,470.78 125,471.38 120.88,472 116.78,472.22 112.66,471.91 108.53,471.09 104.44,468.59 103.34,468 100.31,466.62 96.188,465.22 92.094,464.38 87.969,464.66 83.844,465.31 79.75,466.28 75.625,467.53 74.406,468 71.5,469.09 67.406,470.88 63.281,472.84 61.219,473.84 59.188,474.88 55.062,476.53 50.938,478.16 46.938,479.75 46.844,479.78 42.719,481.53 38.594,483.59 34.656,485.69 34.5,485.78 30.375,488 26.25,490.22 23.594,491.69 22.156,492.5 18.031,494.72 " stroke="red" stroke-width="0.96875" stroke-linecap="round" stroke-linejoin="round" />
<polyline points="287.66,489.94 288.53,489.06 290.28,489.06 291.16,489.94 291.16,491.69 290.28,492.56 287.66,492.56 287.66,494.31 291.16,494.31 " stroke="red" stroke-width="0.71875" stroke-linecap="round" stroke-linejoin="round" />
<polyline points="295.53,494.31 293.78,491.69 297.28,491.69 297.28,494.31 297.28,489.06 " stroke="red" stroke-width="0.71875" stroke-linecap="round" stroke-linejoin="round" />
<polygon points="300.78,494.31 299.91,493.44 299.91,489.94 300.78,489.06 302.53,489.06 303.41,489.94 303.41,493.44 302.53,494.31 " stroke="red" stroke-width="0.71875" stroke-linejoin="round" />
<polygon points="306.91,494.31 306.03,493.44 306.03,489.94 306.91,489.06 308.66,489.06 309.53,489.94 309.53,493.44 308.66,494.31 " stroke="red" stroke-width="0.71875" stroke-linejoin="round" />
<polyline points="594,545.94 589.88,545.38 585.78,544.81 581.66,543.91 577.53,542.94 573.44,541.91 573.34,541.91 569.31,540.78 565.19,539.59 561.09,538.34 556.97,537.09 552.88,535.84 551.09,535.38 548.75,534.78 544.62,533.72 540.53,532.66 536.41,531.53 532.28,530.16 528.72,528.97 528.19,528.78 524.06,527.28 519.94,525.81 515.84,524.47 511.72,523.22 509.69,522.59 507.59,521.94 503.5,520.66 499.38,519.38 495.25,518.12 491.16,516.94 488.91,516.28 487.03,515.72 482.91,514.47 478.81,513.22 474.69,511.97 470.56,510.75 468.16,510.06 466.47,509.53 462.34,508.38 458.25,507.25 454.12,506.19 450,505.19 445.91,504.28 443.75,503.88 441.78,503.47 437.66,502.69 433.56,502.06 429.44,501.5 425.31,500.94 421.22,500.38 417.09,499.75 412.97,499.12 408.88,498.47 404.75,497.78 404.59,497.75 400.62,496.97 396.53,496.09 392.41,495.25 388.31,494.41 384.19,493.62 380.06,492.88 375.97,492.09 373.88,491.69 371.84,491.25 367.72,490.38 363.62,489.47 359.5,488.47 355.38,487.38 351.28,486 350.41,485.69 347.16,484.41 343.03,482.66 338.94,480.78 336.78,479.75 334.81,478.81 330.69,476.88 326.59,474.94 324.25,473.84 322.47,473.03 320.81,472.31 " stroke="red" stroke-width="0.96875" stroke-linecap="round" stroke-linejoin="round" />
<polyline points="300.31,462.88 298.91,462.19 297.78,461.69 293.69,459.81 289.56,457.94 286.84,456.47 285.44,455.72 281.34,453.59 277.22,451.62 275.28,450.75 273.09,449.88 269,448.34 264.88,447 260.75,445.81 258.03,445.12 256.66,444.78 252.53,444.06 248.41,443.44 244.31,442.91 240.19,442.47 236.06,442.12 231.97,441.84 227.84,441.62 223.72,441.44 219.62,441.19 215.5,440.94 211.41,440.69 207.28,440.41 203.16,440.12 199.06,439.91 194.94,439.69 190.81,439.53 189.84,439.5 186.72,439.44 182.59,439.34 178.47,439.34 174.38,439.38 171.09,439.5 170.25,439.56 166.12,439.78 162.03,440.06 157.91,440.34 153.78,440.59 149.69,440.88 145.56,441.22 141.44,441.59 137.34,442 133.22,442.53 129.12,443.16 125,443.88 120.88,444.94 120.25,445.12 116.78,446.09 112.66,447.19 108.53,448.16 104.44,448.56 100.31,448.91 96.188,449.19 92.094,449.53 87.969,450.09 84.438,450.75 83.844,450.88 79.75,451.84 75.625,453.09 71.5,454.69 67.406,456.47 63.281,458.22 59.188,460.12 55.062,462 54.625,462.19 50.938,463.84 46.844,465.69 42.719,467.5 41.656,468 38.594,469.44 34.5,471.5 30.375,473.69 30.062,473.84 26.25,475.91 22.156,478.16 19.219,479.75 18.031,480.38 " stroke="red" stroke-width="0.96875" stroke-linecap="round" stroke-linejoin="round" />
<polyline points="299.62,465.84 300.5,464.97 302.25,464.97 303.12,465.84 303.12,467.59 302.25,468.47 299.62,468.47 299.62,470.22 303.12,470.22 " stroke="red" stroke-width="0.71875" stroke-linecap="round" stroke-linejoin="round" />
<polyline points="307.5,470.22 305.75,467.59 309.25,467.59 309.25,470.22 309.25,464.97 " stroke="red" stroke-width="0.71875" stroke-linecap="round" stroke-linejoin="round" />
<polyline points="315.38,469.34 314.5,470.22 312.75,470.22 311.88,469.34 311.88,465.84 312.75,464.97 314.5,464.97 315.38,465.84 315.38,466.72 314.5,467.59 311.88,467.59 " stroke="red" stroke-width="0.71875" stroke-linecap="round" stroke-linejoin="round" />
<polygon points="318.88,470.22 318,469.34 318,465.84 318.88,464.97 320.62,464.97 321.5,465.84 321.5,469.34 320.62,470.22 " stroke="red" stroke-width="0.71875" stroke-linejoin="round" />
<polyline points="594,508.47 589.88,509.97 589.62,510.06 585.78,511.19 581.66,511.53 577.53,511.56 573.44,511.34 569.31,510.94 565.19,510.41 562.91,510.06 561.09,509.78 556.97,509.06 552.88,508.38 548.75,507.94 544.62,507.47 540.53,506.94 536.41,506.28 532.28,505.22 528.19,504.06 527.56,503.88 524.06,502.84 519.94,501.62 515.84,500.62 511.72,499.66 507.59,498.72 503.5,497.75 499.38,496.72 495.25,495.69 491.16,494.59 487.03,493.47 482.91,492.19 481.34,491.69 478.81,490.84 474.69,489.5 470.56,488.22 466.47,487.06 462.34,486.03 460.94,485.69 458.25,485 454.12,484.03 450,483.19 445.91,482.38 441.78,481.56 437.66,480.69 434.06,479.75 433.56,479.56 429.44,478.12 425.31,476.69 421.22,475.28 417.09,473.97 416.72,473.84 412.97,472.56 408.88,471.16 404.75,469.78 400.62,468.44 399.28,468 396.53,467.06 392.41,465.72 388.31,464.41 384.19,463.19 380.81,462.19 380.06,461.97 375.97,460.72 371.84,459.44 367.72,458.09 363.62,456.75 362.72,456.47 359.5,455.5 355.38,454.41 351.28,453.59 347.16,452.81 343.03,452 338.94,451.06 337.94,450.75 334.81,449.78 330.69,448.41 326.59,446.97 323.59,445.91 " stroke="red" stroke-width="0.96875" stroke-linecap="round" stroke-linejoin="round" />
<polyline points="296.66,437.69 293.69,436.97 289.56,435.97 285.44,434.91 281.41,433.97 281.34,433.94 277.22,432.88 273.09,431.84 269,430.81 264.88,429.81 260.75,428.88 258.88,428.44 256.66,427.91 252.53,426.84 248.41,425.81 244.31,424.84 240.19,424.09 236.06,424.09 231.97,424.22 227.84,424.34 223.72,424.34 219.62,423.56 217.03,422.97 215.5,422.59 211.41,421.62 207.28,420.72 203.16,420.62 199.06,420.72 194.94,420.94 190.81,421.16 186.72,421.09 182.59,421.03 178.47,421.03 174.38,421.09 170.25,421.41 166.12,421.84 162.03,422.28 157.91,422.69 153.78,422.94 153.25,422.97 149.69,423.19 145.56,423.44 141.44,423.75 137.34,424.19 133.22,424.72 129.12,425.31 125,426.03 120.88,426.94 116.78,428 115.19,428.44 112.66,429.16 108.53,430.44 104.44,431.69 100.31,432.94 96.562,433.97 96.188,434.06 92.094,435 87.969,435.5 83.844,436.03 79.75,436.69 75.625,437.53 71.5,439.03 70.406,439.5 67.406,440.81 63.281,442.75 59.188,444.81 58.594,445.12 55.062,446.84 50.938,448.94 47.375,450.75 46.844,451.03 42.719,453.06 38.594,455 35.5,456.47 34.5,456.91 30.375,458.72 26.25,460.66 23.062,462.19 22.156,462.66 18.031,464.66 " stroke="red" stroke-width="0.96875" stroke-linecap="round" stroke-linejoin="round" />
<polyline points="299.62,439.59 300.5,438.72 302.25,438.72 303.12,439.59 303.12,441.34 302.25,442.22 299.62,442.22 299.62,443.97 303.12,443.97 " stroke="red" stroke-width="0.71875" stroke-linecap="round" stroke-linejoin="round" />
<polyline points="305.75,439.59 306.62,438.72 308.38,438.72 309.25,439.59 309.25,441.34 308.38,442.22 305.75,442.22 305.75,443.97 309.25,443.97 " stroke="red" stroke-width="0.71875" stroke-linecap="round" stroke-linejoin="round" />
<polyline points="311.88,443.09 312.75,443.97 314.5,443.97 315.38,443.09 315.38,442.22 311.88,438.72 315.38,438.72 " stroke="red" stroke-width="0.71875" stroke-linecap="round" stroke-linejoin="round" />
<polygon points="318.88,443.97 318,443.09 318,439.59 318.88,438.72 320.62,438.72 321.5,439.59 321.5,443.09 320.62,443.97 " stroke="red" stroke-width="0.71875" stroke-linejoin="round" />
<polyline points="594,471.69 590.88,473.84 589.88,474.5 585.78,476.91 581.66,478.56 577.84,479.75 577.53,479.81 573.44,480.66 569.31,481.19 565.19,481.34 561.09,481.31 556.97,481.12 552.88,480.81 548.75,480.62 544.62,480.31 540.53,479.88 539.38,479.75 536.41,479.31 532.28,478.44 528.19,477.47 524.06,476.44 519.94,475.41 515.84,474.34 513.88,473.84 511.72,473.28 507.59,472.16 503.5,471.03 499.38,470 495.25,468.97 491.53,468 491.16,467.88 487.03,466.72 482.91,465.44 478.81,464.06 474.69,462.62 473.5,462.19 470.56,461.09 466.47,459.38 462.34,457.56 459.97,456.47 458.25,455.75 454.12,454.09 450,452.75 445.91,451.47 443.56,450.75 441.78,450.25 437.66,449.03 433.56,447.81 429.44,446.53 425.31,445.16 425.22,445.12 421.22,443.62 417.09,441.94 412.97,440.16 411.56,439.5 408.88,438.31 404.75,436.47 400.62,434.62 399.16,433.97 396.53,432.91 392.41,431.34 388.31,429.88 384.25,428.44 384.19,428.41 380.06,427.12 375.97,425.94 371.84,424.84 367.72,424.12 363.62,423.47 360.31,422.97 359.5,422.84 355.38,422.25 351.28,421.44 347.16,420.59 343.03,419.75 338.94,418.94 334.81,418.19 331.09,417.53 330.69,417.47 327.72,416.97 " stroke="red" stroke-width="0.96875" stroke-linecap="round" stroke-linejoin="round" />
<polyline points="300.78,412.88 297.78,412.5 295.03,412.16 293.69,411.97 289.56,411.38 285.44,410.75 281.34,410.12 277.22,409.47 273.09,408.81 269,408.19 264.88,407.53 260.75,406.88 260.41,406.78 256.66,406.09 252.53,405.03 248.41,404.12 244.31,403.38 240.19,402.81 236.06,403 231.97,403.31 227.84,403.66 223.72,403.84 219.62,402.75 215.5,401.62 214.94,401.47 211.41,400.62 207.28,399.94 203.16,400.22 199.06,400.75 194.94,401.44 194.78,401.47 190.81,402.19 186.72,402.69 182.59,403.16 178.47,403.56 174.38,403.94 170.25,404.38 166.12,404.81 162.03,405.28 157.91,405.75 153.78,406.09 149.69,406.44 145.97,406.78 145.56,406.84 141.44,407.25 137.34,407.84 133.22,408.53 129.12,409.31 125,410.12 120.88,410.94 116.78,411.84 115.44,412.16 112.66,412.75 108.53,413.75 104.44,414.94 100.31,416.25 96.562,417.53 96.188,417.66 92.094,419 87.969,420.25 83.844,421.34 79.75,422.34 77.031,422.97 75.625,423.25 71.5,424.16 67.406,425.22 63.281,426.53 59.188,428.19 58.594,428.44 55.062,430.06 50.938,432.09 47.312,433.97 46.844,434.19 42.719,436.22 38.594,438.03 35.281,439.5 34.5,439.84 30.375,441.62 26.25,443.44 22.75,445.12 22.156,445.41 18.031,447.31 " stroke="red" stroke-width="0.96875" stroke-linecap="round" stroke-linejoin="round" />
<polyline points="303.75,413.06 304.62,412.19 306.38,412.19 307.25,413.06 307.25,414.81 306.38,415.69 303.75,415.69 303.75,417.44 307.25,417.44 " stroke="red" stroke-width="0.71875" stroke-linecap="round" stroke-linejoin="round" />
<polyline points="309.88,413.06 310.75,412.19 312.5,412.19 313.38,413.06 313.38,414.81 312.5,415.69 309.88,415.69 309.88,417.44 313.38,417.44 " stroke="red" stroke-width="0.71875" stroke-linecap="round" stroke-linejoin="round" />
<polygon points="316.88,417.44 316,416.56 316,415.69 316.88,414.81 318.62,414.81 319.5,415.69 319.5,416.56 318.62,417.44 " stroke="red" stroke-width="0.71875" stroke-linejoin="round" />
<polyline points="316.88,414.81 316,413.94 316,413.06 316.88,412.19 318.62,412.19 319.5,413.06 319.5,413.94 318.62,414.81 " stroke="red" stroke-width="0.71875" stroke-linecap="round" stroke-linejoin="round" />
<polygon points="323,417.44 322.12,416.56 322.12,413.06 323,412.19 324.75,412.19 325.62,413.06 325.62,416.56 324.75,417.44 " stroke="red" stroke-width="0.71875" stroke-linejoin="round" />
<polyline points="594,434.84 589.88,437.06 585.78,439.22 585.09,439.5 581.66,440.97 577.53,442.44 573.44,443.62 569.31,444.59 566.59,445.12 565.19,445.38 561.09,445.91 556.97,446.28 552.88,446.5 548.75,446.69 544.62,446.75 540.53,446.69 536.41,446.5 532.28,446.22 528.19,445.78 524.06,445.25 523.19,445.12 519.94,444.59 515.84,443.81 511.72,442.94 507.59,442 503.5,441 499.38,439.84 498.25,439.5 495.25,438.56 491.16,437.25 487.03,435.97 482.91,434.94 478.88,433.97 478.81,433.94 474.69,432.91 470.56,431.81 466.47,430.44 462.34,428.97 460.97,428.44 458.25,427.38 454.12,425.75 450,424.34 445.94,422.97 445.91,422.94 441.78,421.47 437.66,419.97 433.56,418.31 431.62,417.53 429.44,416.66 425.31,415.03 421.22,413.5 417.34,412.16 417.09,412.06 412.97,410.75 408.88,409.47 404.75,408.25 400.62,407.16 399.31,406.78 396.53,406.06 392.41,405 388.31,403.91 384.19,402.56 381.06,401.47 380.06,401.12 375.97,399.69 371.84,398.28 367.72,397.19 363.81,396.22 363.62,396.16 359.5,395.19 355.38,394.19 351.28,392.97 347.16,391.72 344.69,390.97 343.03,390.5 338.94,389.38 334.81,388.41 331.84,387.75 " stroke="red" stroke-width="0.96875" stroke-linecap="round" stroke-linejoin="round" />
<polyline points="304.88,383.91 301.91,383.47 297.78,382.88 293.69,382.31 289.56,381.81 285.44,381.44 281.34,381.09 277.22,380.75 275.22,380.59 273.09,380.44 269,379.94 264.88,379.41 260.75,378.91 256.66,378.44 252.53,378.19 248.41,378 244.31,377.81 240.19,377.69 236.06,377.44 231.97,377.25 227.84,377.03 223.72,376.88 219.62,376.69 215.5,376.53 211.41,376.41 207.28,376.34 203.16,376.34 199.06,376.44 194.94,376.59 190.81,376.88 186.72,377.34 182.59,377.97 178.47,378.72 174.38,379.59 170.25,380.19 167.06,380.59 166.12,380.72 162.03,381.22 157.91,381.72 153.78,382.44 149.69,383.19 145.56,384.03 141.44,384.91 137.59,385.78 137.34,385.81 133.22,386.72 129.12,387.66 125,388.66 120.88,389.69 116.78,390.75 115.91,390.97 112.66,391.75 108.53,392.81 104.44,394.12 100.31,395.56 98.625,396.22 96.188,397.06 92.094,398.62 87.969,400.34 85.438,401.47 83.844,402.16 79.75,403.97 75.625,405.75 71.5,406.66 70.781,406.78 67.406,407.31 63.281,407.97 59.188,408.81 55.062,410.47 51.531,412.16 50.938,412.41 46.844,414.5 42.719,416.75 41.219,417.53 38.594,418.84 34.5,420.91 30.375,422.88 30.188,422.97 26.25,424.72 22.156,426.59 18.219,428.44 18.031,428.53 " stroke="red" stroke-width="0.96875" stroke-linecap="round" stroke-linejoin="round" />
<polyline points="307.84,383.72 308.72,382.84 310.47,382.84 311.34,383.72 311.34,385.47 310.47,386.34 307.84,386.34 307.84,388.09 311.34,388.09 " stroke="red" stroke-width="0.71875" stroke-linecap="round" stroke-linejoin="round" />
<polyline points="317.47,387.22 316.59,388.09 314.84,388.09 313.97,387.22 313.97,383.72 314.84,382.84 316.59,382.84 317.47,383.72 317.47,384.59 316.59,385.47 313.97,385.47 " stroke="red" stroke-width="0.71875" stroke-linecap="round" stroke-linejoin="round" />
<polyline points="321.84,388.09 320.09,385.47 323.59,385.47 323.59,388.09 323.59,382.84 " stroke="red" stroke-width="0.71875" stroke-linecap="round" stroke-linejoin="round" />
<polygon points="327.09,388.09 326.22,387.22 326.22,383.72 327.09,382.84 328.84,382.84 329.72,383.72 329.72,387.22 328.84,388.09 " stroke="red" stroke-width="0.71875" stroke-linejoin="round" />
<polyline points="594,389.84 590.75,390.97 589.88,391.28 585.78,392.72 581.66,394.28 577.53,395.81 576.44,396.22 573.44,397.22 569.31,398.5 565.19,399.5 561.09,400.31 556.97,400.97 552.88,401.44 552,401.47 548.75,401.62 544.62,401.66 540.53,401.56 539.16,401.47 536.41,401.31 532.28,401.09 528.19,400.81 524.06,400.44 519.94,399.97 515.84,399.34 511.72,398.59 507.59,397.81 503.5,396.97 499.69,396.22 499.38,396.16 495.25,395.28 491.16,394.44 487.03,393.66 482.91,393.16 478.81,392.69 474.69,392.25 470.56,391.81 466.47,391.38 462.91,390.97 462.34,390.91 458.25,390.34 454.12,389.69 450,388.75 445.91,387.78 441.78,386.84 437.66,385.97 436.56,385.78 433.56,385.22 429.44,384.5 425.31,383.78 421.22,383.03 417.09,382.22 412.97,381.41 408.88,380.62 408.81,380.59 404.75,379.75 400.62,378.97 396.53,378.16 392.41,377.31 388.31,376.41 384.5,375.47 384.19,375.38 380.06,374.34 375.97,373.34 371.84,372.38 367.72,371.41 363.62,370.44 363.31,370.38 359.5,369.34 355.38,368.25 351.28,367.12 347.16,366.03 344.38,365.28 343.03,364.94 338.94,363.88 334.81,362.97 330.69,362.16 326.59,361.34 322.47,360.59 320.81,360.25 318.34,359.75 315.38,359.16 " stroke="red" stroke-width="0.96875" stroke-linecap="round" stroke-linejoin="round" />
<polyline points="288.44,354.62 285.44,354.16 281.34,353.5 277.22,352.78 273.09,352 269,350.94 266.47,350.28 264.88,349.88 260.75,348.94 256.66,348.16 252.53,347.72 248.41,347.44 244.31,347.25 240.19,347.12 236.06,347 231.97,346.91 227.84,346.81 223.72,346.72 219.62,346.53 215.5,346.28 211.41,346.03 207.28,345.75 203.16,345.5 199.81,345.31 199.06,345.28 194.94,345.19 190.81,345.22 189.94,345.31 186.72,345.72 182.59,346.41 178.47,347.19 174.38,347.97 170.25,348.41 166.12,348.75 162.03,349.03 157.91,349.28 153.78,349.62 149.69,349.97 146.34,350.28 145.56,350.34 141.44,350.78 137.34,351 133.22,351.38 129.12,351.97 125,352.88 120.88,354.69 119.81,355.25 116.78,356.88 112.66,359.28 111,360.25 108.53,361.62 104.44,363.28 100.31,364.75 98.594,365.28 96.188,366.03 92.094,367.25 87.969,368.75 83.906,370.38 83.844,370.38 79.75,372.38 75.625,374.44 73.812,375.47 71.5,376.72 67.406,379.03 64.656,380.59 63.281,381.31 59.188,383.56 55.406,385.78 55.062,385.97 50.938,388.31 46.844,390.78 46.531,390.97 42.719,393.22 38.594,395.66 37.719,396.22 34.5,398.09 30.375,400.56 28.875,401.47 26.25,402.97 22.156,405.16 18.969,406.78 18.031,407.25 " stroke="red" stroke-width="0.96875" stroke-linecap="round" stroke-linejoin="round" />
<polyline points="291.41,354.97 292.28,354.09 294.03,354.09 294.91,354.97 294.91,356.72 294.03,357.59 291.41,357.59 291.41,359.34 294.91,359.34 " stroke="red" stroke-width="0.71875" stroke-linecap="round" stroke-linejoin="round" />
<polyline points="297.53,359.34 301.03,359.34 299.28,354.09 " stroke="red" stroke-width="0.71875" stroke-linecap="round" stroke-linejoin="round" />
<polygon points="304.53,359.34 303.66,358.47 303.66,354.97 304.53,354.09 306.28,354.09 307.16,354.97 307.16,358.47 306.28,359.34 " stroke="red" stroke-width="0.71875" stroke-linejoin="round" />
<polygon points="310.66,359.34 309.78,358.47 309.78,354.97 310.66,354.09 312.41,354.09 313.28,354.97 313.28,358.47 312.41,359.34 " stroke="red" stroke-width="0.71875" stroke-linejoin="round" />
<polyline points="594,309.25 589.88,308.59 585.78,307.62 581.97,306.72 581.66,306.62 577.53,305.25 573.44,303.28 571.28,302 569.31,300.72 565.19,299.16 561.09,297.91 558.44,297.31 556.97,297.03 552.88,296.38 548.75,295 544.62,293.59 541.5,292.62 540.53,292.44 536.41,291.81 532.28,292.03 528.19,292.34 524.06,292.59 519.94,292.59 515.84,291.72 511.72,290.75 507.59,289.78 503.5,288.88 500.09,287.97 499.38,287.81 495.25,286.91 491.16,286.22 487.03,285.88 482.91,286.28 478.81,287.06 475.53,287.97 474.69,288.25 470.56,289.91 466.47,292.44 466.22,292.62 462.34,296.62 461.69,297.31 458.25,301.16 457.47,302 454.12,305.53 452.91,306.72 450,309.62 448.19,311.44 445.91,314.19 444.16,316.22 441.78,318.88 439.75,321 437.66,322.97 434.16,325.81 433.56,326.22 429.44,328.69 425.47,330.66 425.31,330.69 421.22,332.22 417.09,333.5 412.97,334.59 408.97,335.5 408.88,335.53 404.75,336.25 400.62,336.88 396.53,337.38 392.41,337.69 388.31,337.88 384.19,337.84 380.06,337.66 375.97,337.41 371.84,337.06 367.72,336.72 363.62,336.28 359.5,335.78 357.53,335.5 355.38,335.22 351.28,334.47 347.16,333.75 343.03,333.03 338.94,332.38 334.81,331.81 330.69,331.28 326.59,330.81 324.88,330.66 322.47,330.41 318.34,330.12 315.38,329.94 " stroke="red" stroke-width="0.96875" stroke-linecap="round" stroke-linejoin="round" />
<polyline points="288.44,326.62 285.44,326.06 284.06,325.81 281.34,325.25 277.22,324.38 273.09,323.53 269,322.69 264.88,321.88 260.75,321.12 260.03,321 256.66,320.38 252.53,319.75 248.41,319.22 244.31,318.72 240.19,318.25 236.06,317.75 231.97,317.19 227.84,316.53 225.88,316.22 223.72,315.78 219.62,315.22 215.5,314.69 211.41,314.19 207.28,313.66 203.16,312.78 199.06,311.84 197.41,311.44 194.94,310.81 190.81,309.78 186.72,309.06 182.59,308.41 178.47,307.78 174.38,307.12 172.53,306.72 170.25,306.16 166.12,305.09 162.03,304.06 157.91,303.12 153.78,302.44 149.88,302 149.69,301.97 145.56,301.81 141.44,302 137.34,303.03 133.22,305.28 131.69,306.72 129.12,309.66 127.94,311.44 125,314.5 122.88,316.22 120.88,317.5 116.78,320.25 115.72,321 112.66,322.78 108.53,325.41 107.94,325.81 104.44,327.78 100.31,330.19 99.562,330.66 96.188,332.19 92.094,334.22 89.625,335.5 87.969,336.31 83.844,338.41 80.094,340.41 79.75,340.56 75.625,342.62 71.5,344.81 70.562,345.31 67.406,346.94 63.281,349.16 61.344,350.28 59.188,351.41 55.062,353.81 52.688,355.25 50.938,356.28 46.844,358.75 44.406,360.25 42.719,361.25 38.594,363.5 35.406,365.28 34.5,365.78 30.375,368 26.281,370.38 26.25,370.38 22.156,372.38 18.031,374.34 " stroke="red" stroke-width="0.96875" stroke-linecap="round" stroke-linejoin="round" />
<polyline points="291.41,327.03 292.28,326.16 294.03,326.16 294.91,327.03 294.91,328.78 294.03,329.66 291.41,329.66 291.41,331.41 294.91,331.41 " stroke="red" stroke-width="0.71875" stroke-linecap="round" stroke-linejoin="round" />
<polyline points="297.53,331.41 301.03,331.41 299.28,326.16 " stroke="red" stroke-width="0.71875" stroke-linecap="round" stroke-linejoin="round" />
<polyline points="307.16,330.53 306.28,331.41 304.53,331.41 303.66,330.53 303.66,327.03 304.53,326.16 306.28,326.16 307.16,327.03 307.16,327.91 306.28,328.78 303.66,328.78 " stroke="red" stroke-width="0.71875" stroke-linecap="round" stroke-linejoin="round" />
<polygon points="310.66,331.41 309.78,330.53 309.78,327.03 310.66,326.16 312.41,326.16 313.28,327.03 313.28,330.53 312.41,331.41 " stroke="red" stroke-width="0.71875" stroke-linejoin="round" />
<polyline points="73.469,247 73.438,247.03 71.5,248.31 67.406,251.31 67.156,251.5 63.281,254.22 60.969,256 59.188,256.94 55.062,259.34 53.562,260.31 " stroke="red" stroke-width="0.96875" stroke-linecap="round" stroke-linejoin="round" />
<polyline points="40.812,269.78 38.594,271.62 35.594,274.16 34.5,275.16 30.375,278.72 30.344,278.75 26.25,282.22 24.781,283.34 22.156,285.41 19.156,287.97 18.031,289.06 " stroke="red" stroke-width="0.96875" stroke-linecap="round" stroke-linejoin="round" />
<polyline points="36.219,263.28 37.094,262.41 38.844,262.41 39.719,263.28 39.719,265.03 38.844,265.91 36.219,265.91 36.219,267.66 39.719,267.66 " stroke="red" stroke-width="0.71875" stroke-linecap="round" stroke-linejoin="round" />
<polygon points="43.219,267.66 42.344,266.78 42.344,265.91 43.219,265.03 44.969,265.03 45.844,265.91 45.844,266.78 44.969,267.66 " stroke="red" stroke-width="0.71875" stroke-linejoin="round" />
<polyline points="43.219,265.03 42.344,264.16 42.344,263.28 43.219,262.41 44.969,262.41 45.844,263.28 45.844,264.16 44.969,265.03 " stroke="red" stroke-width="0.71875" stroke-linecap="round" stroke-linejoin="round" />
<polyline points="48.469,266.78 49.344,267.66 51.094,267.66 51.969,266.78 51.969,265.91 48.469,262.41 51.969,262.41 " stroke="red" stroke-width="0.71875" stroke-linecap="round" stroke-linejoin="round" />
<polygon points="55.469,267.66 54.594,266.78 54.594,263.28 55.469,262.41 57.219,262.41 58.094,263.28 58.094,266.78 57.219,267.66 " stroke="red" stroke-width="0.71875" stroke-linejoin="round" />
<polyline points="203.41,247 203.47,247.03 207.28,249.41 210.03,251.5 211.41,252.5 215.5,255.47 216.28,256 219.62,257.81 223.72,259.59 226.81,260.5 227.84,260.78 231.97,261.75 236.06,262.66 240.19,263.56 244.31,264.75 245.41,265.03 248.41,265.81 252.53,266.78 256.66,267.66 259.62,268.09 " stroke="red" stroke-width="0.96875" stroke-linecap="round" stroke-linejoin="round" />
<polyline points="286.56,269.56 289.56,269.44 293.69,269.25 297.78,269.09 301.91,269 306.03,269 310.12,269.53 310.66,269.59 314.25,270.09 318.34,270.59 322.47,270.94 326.59,270.53 330.69,269.69 331.03,269.59 334.81,268.34 338.94,266.53 341.56,265.03 343.03,264.16 347.16,261.34 348.25,260.5 351.28,258.16 353.78,256 355.38,254.59 358.59,251.5 359.5,250.59 363.12,247.03 363.16,247 " stroke="red" stroke-width="0.96875" stroke-linecap="round" stroke-linejoin="round" />
<polyline points="262.59,267.88 263.47,267 265.22,267 266.09,267.88 266.09,269.62 265.22,270.5 262.59,270.5 262.59,272.25 266.09,272.25 " stroke="red" stroke-width="0.71875" stroke-linecap="round" stroke-linejoin="round" />
<polygon points="269.59,272.25 268.72,271.38 268.72,270.5 269.59,269.62 271.34,269.62 272.22,270.5 272.22,271.38 271.34,272.25 " stroke="red" stroke-width="0.71875" stroke-linejoin="round" />
<polyline points="269.59,269.62 268.72,268.75 268.72,267.88 269.59,267 271.34,267 272.22,267.88 272.22,268.75 271.34,269.62 " stroke="red" stroke-width="0.71875" stroke-linecap="round" stroke-linejoin="round" />
<polyline points="274.84,271.38 275.72,272.25 277.47,272.25 278.34,271.38 278.34,270.5 274.84,267 278.34,267 " stroke="red" stroke-width="0.71875" stroke-linecap="round" stroke-linejoin="round" />
<polygon points="281.84,272.25 280.97,271.38 280.97,267.88 281.84,267 283.59,267 284.47,267.88 284.47,271.38 283.59,272.25 " stroke="red" stroke-width="0.71875" stroke-linejoin="round" />
</g>
</svg>
