<?xml version="1.0" encoding="ISO-8859-1" standalone="no"?>
<!DOCTYPE svg PUBLIC "-//W3C//DTD SVG 1.1//EN" "http://www.w3.org/Graphics/SVG/1.1/DTD/svg11.dtd">
<svg version="1.1" baseProfile="full" id="body" width="900px" height="600px" viewBox="0 0.2 1 0.55" preserveAspectRatio="none" xmlns="http://www.w3.org/2000/svg" xmlns:xlink="http://www.w3.org/1999/xlink" xmlns:ev="http://www.w3.org/2001/xml-events">
<title>SVG drawing</title>
<desc>This was produced by version 4.2 of GNU libplot, a free library for exporting 2-D vector graphics.</desc>
<rect id="background" x="0" y="0" width="1" height="1" stroke="none" fill="none"/>
<g id="content" transform="translate(-0.03125,1.1875) scale(1,-1) scale(0.0017361) " xml:space="preserve" stroke="black" stroke-linecap="butt" stroke-linejoin="miter" stroke-miterlimit="10.433" stroke-dasharray="none" stroke-dashoffset="0" stroke-opacity="1" fill="none" fill-rule="even-odd" fill-opacity="1" font-style="normal" font-variant="normal" font-weight="normal" font-stretch="normal" font-size-adjust="none" letter-spacing="normal" word-spacing="normal" text-anchor="start">
<polyline points="339.91,568.66 339.94,568.62 340.88,561.84 340.09,559.84 " stroke="red" stroke-width="0.96875" stroke-linecap="round" stroke-linejoin="round" />
<polyline points="334.38,550.38 332.34,548.47 330.69,547.59 326.59,546.25 322.47,545.78 318.34,545.97 314.25,547.03 311.22,548.47 310.12,549.28 306.03,553.72 305,555.12 302.84,561.84 303.69,568.62 303.72,568.66 " stroke="red" stroke-width="0.96875" stroke-linecap="round" stroke-linejoin="round" />
<polyline points="327.75,553.38 328.62,552.5 330.38,552.5 331.25,553.38 331.25,555.12 330.38,556 327.75,556 327.75,557.75 331.25,557.75 " stroke="red" stroke-width="0.71875" stroke-linecap="round" stroke-linejoin="round" />
<polyline points="333.88,556.88 334.75,557.75 336.5,557.75 337.38,556.88 337.38,556 333.88,552.5 337.38,552.5 " stroke="red" stroke-width="0.71875" stroke-linecap="round" stroke-linejoin="round" />
<polyline points="340,556.88 340.88,557.75 342.62,557.75 343.5,556.88 343.5,556 340,552.5 343.5,552.5 " stroke="red" stroke-width="0.71875" stroke-linecap="round" stroke-linejoin="round" />
<polygon points="347,557.75 346.12,556.88 346.12,553.38 347,552.5 348.75,552.5 349.62,553.38 349.62,556.88 348.75,557.75 " stroke="red" stroke-width="0.71875" stroke-linejoin="round" />
<polyline points="22.344,568.66 22.344,568.62 22.156,568.22 21.5,566.56 " stroke="red" stroke-width="0.96875" stroke-linecap="round" stroke-linejoin="round" />
<line x1="18.094" y1="557.09" x2="18.031" y2="556.94" stroke="red" stroke-width="0.96875" stroke-linecap="round" />
<polyline points="18.031,564.34 18.781,563.59 18.781,562.72 18.031,561.97 " stroke="red" stroke-width="0.71875" stroke-linecap="round" stroke-linejoin="round" />
<line x1="18.031" y1="559.22" x2="18.781" y2="559.22" stroke="red" stroke-width="0.71875" stroke-linecap="round" />
<polygon points="22.281,564.47 21.406,563.59 21.406,562.72 22.281,561.84 24.031,561.84 24.906,562.72 24.906,563.59 24.031,564.47 " stroke="red" stroke-width="0.71875" stroke-linejoin="round" />
<polyline points="22.281,561.84 21.406,560.97 21.406,560.09 22.281,559.22 24.031,559.22 24.906,560.09 24.906,560.97 24.031,561.84 " stroke="red" stroke-width="0.71875" stroke-linecap="round" stroke-linejoin="round" />
<polygon points="28.406,564.47 27.531,563.59 27.531,560.09 28.406,559.22 30.156,559.22 31.031,560.09 31.031,563.59 30.156,564.47 " stroke="red" stroke-width="0.71875" stroke-linejoin="round" />
<polyline points="279.19,568.66 279.19,568.62 279.34,561.84 280.38,555.12 281.34,552.16 282.59,548.47 285.44,542.53 285.78,541.91 289.56,536.41 290.47,535.38 293.69,532.34 297.75,528.97 297.78,528.94 301.91,526.69 306.03,524.97 309,524.12 " stroke="red" stroke-width="0.96875" stroke-linecap="round" stroke-linejoin="round" />
<polyline points="335.94,524.28 338.94,525.16 343.03,526.91 347.16,528.91 347.22,528.97 351.28,532.06 355.38,535.31 355.47,535.38 359.5,539.41 361.88,541.91 363.62,544.19 366.72,548.47 367.72,550.38 370.12,555.12 371.84,561.06 372.03,561.84 372.5,568.62 372.5,568.66 " stroke="red" stroke-width="0.96875" stroke-linecap="round" stroke-linejoin="round" />
<polyline points="311.97,520.75 312.84,519.88 314.59,519.88 315.47,520.75 315.47,522.5 314.59,523.38 311.97,523.38 311.97,525.12 315.47,525.12 " stroke="red" stroke-width="0.71875" stroke-linecap="round" stroke-linejoin="round" />
<polyline points="318.09,524.25 318.97,525.12 320.72,525.12 321.59,524.25 321.59,523.38 318.09,519.88 321.59,519.88 " stroke="red" stroke-width="0.71875" stroke-linecap="round" stroke-linejoin="round" />
<polygon points="325.09,525.12 324.22,524.25 324.22,523.38 325.09,522.5 326.84,522.5 327.72,523.38 327.72,524.25 326.84,525.12 " stroke="red" stroke-width="0.71875" stroke-linejoin="round" />
<polyline points="325.09,522.5 324.22,521.62 324.22,520.75 325.09,519.88 326.84,519.88 327.72,520.75 327.72,521.62 326.84,522.5 " stroke="red" stroke-width="0.71875" stroke-linecap="round" stroke-linejoin="round" />
<polygon points="331.22,525.12 330.34,524.25 330.34,520.75 331.22,519.88 332.97,519.88 333.84,520.75 333.84,524.25 332.97,525.12 " stroke="red" stroke-width="0.71875" stroke-linejoin="round" />
<polyline points="50.969,568.66 50.969,568.62 50.938,568.56 47.969,561.84 46.844,559.69 44.438,555.12 42.719,552.09 40.438,548.47 39.062,546.62 " stroke="red" stroke-width="0.96875" stroke-linecap="round" stroke-linejoin="round" />
<polyline points="31.438,537.16 30.375,535.91 30,535.38 26.25,530.81 25.125,528.97 22.156,524.78 20.688,522.59 18.031,518.56 " stroke="red" stroke-width="0.96875" stroke-linecap="round" stroke-linejoin="round" />
<polyline points="24.938,540.16 25.812,539.28 27.562,539.28 28.438,540.16 28.438,541.91 27.562,542.78 24.938,542.78 24.938,544.53 28.438,544.53 " stroke="red" stroke-width="0.71875" stroke-linecap="round" stroke-linejoin="round" />
<polyline points="31.062,543.66 31.938,544.53 33.688,544.53 34.562,543.66 34.562,542.78 33.688,541.91 32.812,541.91 33.688,541.91 34.562,541.03 34.562,540.16 33.688,539.28 31.938,539.28 31.062,540.16 " stroke="red" stroke-width="0.71875" stroke-linecap="round" stroke-linejoin="round" />
<polyline points="38.938,544.53 37.188,541.91 40.688,541.91 40.688,544.53 40.688,539.28 " stroke="red" stroke-width="0.71875" stroke-linecap="round" stroke-linejoin="round" />
<polygon points="44.188,544.53 43.312,543.66 43.312,540.16 44.188,539.28 45.938,539.28 46.812,540.16 46.812,543.66 45.938,544.53 " stroke="red" stroke-width="0.71875" stroke-linejoin="round" />
<polyline points="257.69,568.66 257.69,568.62 259.81,561.84 260.75,559.16 262.03,555.12 264.66,548.47 264.88,548 267.84,541.91 269,540.03 271.88,535.38 273.09,533.81 276.5,528.97 277.22,528.09 281.34,523.41 282.16,522.59 285.44,519.84 289.56,517 290.88,516.28 293.69,514.97 297.78,513.38 301.91,512.12 306.03,511.22 309,510.72 " stroke="red" stroke-width="0.96875" stroke-linecap="round" stroke-linejoin="round" />
<polyline points="335.94,511.78 338.94,512.53 343.03,514.06 347.16,515.84 348.09,516.28 351.28,517.91 355.38,520.19 359.5,522.5 359.66,522.59 363.62,525.19 367.72,528.12 368.78,528.97 371.84,532 374.72,535.38 375.97,537.06 379.41,541.91 380.06,542.97 383.53,548.47 384.19,549.72 387.09,555.12 388.31,558.41 389.66,561.84 391.53,568.62 391.53,568.66 " stroke="red" stroke-width="0.96875" stroke-linecap="round" stroke-linejoin="round" />
<polyline points="311.97,508.25 312.84,507.38 314.59,507.38 315.47,508.25 315.47,510 314.59,510.88 311.97,510.88 311.97,512.62 315.47,512.62 " stroke="red" stroke-width="0.71875" stroke-linecap="round" stroke-linejoin="round" />
<polyline points="318.09,511.75 318.97,512.62 320.72,512.62 321.59,511.75 321.59,510.88 320.72,510 319.84,510 320.72,510 321.59,509.12 321.59,508.25 320.72,507.38 318.97,507.38 318.09,508.25 " stroke="red" stroke-width="0.71875" stroke-linecap="round" stroke-linejoin="round" />
<polyline points="325.97,512.62 324.22,510 327.72,510 327.72,512.62 327.72,507.38 " stroke="red" stroke-width="0.71875" stroke-linecap="round" stroke-linejoin="round" />
<polygon points="331.22,512.62 330.34,511.75 330.34,508.25 331.22,507.38 332.97,507.38 333.84,508.25 333.84,511.75 332.97,512.62 " stroke="red" stroke-width="0.71875" stroke-linejoin="round" />
<polyline points="86.219,568.66 86.156,568.62 83.844,567.38 79.75,564.69 76.344,561.84 75.625,561.09 71.938,555.12 71.5,554.06 69.125,548.47 67.406,545.09 65.469,541.91 63.719,539.69 " stroke="red" stroke-width="0.96875" stroke-linecap="round" stroke-linejoin="round" />
<polyline points="55.219,530.25 55.062,530.06 54.188,528.97 50.938,525.34 48.406,522.59 46.844,521 42.719,517.03 41.812,516.28 38.594,513.56 34.875,510.06 34.5,509.66 30.375,505.06 29.406,503.88 26.25,499.88 24.438,497.75 22.156,495.38 18.688,491.69 18.031,491 " stroke="red" stroke-width="0.96875" stroke-linecap="round" stroke-linejoin="round" />
<polyline points="48.688,533.22 49.562,532.34 51.312,532.34 52.188,533.22 52.188,534.97 51.312,535.84 48.688,535.84 48.688,537.59 52.188,537.59 " stroke="red" stroke-width="0.71875" stroke-linecap="round" stroke-linejoin="round" />
<polyline points="56.562,537.59 54.812,534.97 58.312,534.97 58.312,537.59 58.312,532.34 " stroke="red" stroke-width="0.71875" stroke-linecap="round" stroke-linejoin="round" />
<polygon points="61.812,537.59 60.938,536.72 60.938,533.22 61.812,532.34 63.562,532.34 64.438,533.22 64.438,536.72 63.562,537.59 " stroke="red" stroke-width="0.71875" stroke-linejoin="round" />
<polygon points="67.938,537.59 67.062,536.72 67.062,533.22 67.938,532.34 69.688,532.34 70.562,533.22 70.562,536.72 69.688,537.59 " stroke="red" stroke-width="0.71875" stroke-linejoin="round" />
<polyline points="210.5,568.66 210.53,568.62 211.41,567.91 215.5,564.22 217.88,561.84 219.62,560.19 223.72,555.97 224.62,555.12 227.84,552.31 231.53,548.47 231.97,548.03 236.06,543.09 236.94,541.91 240.19,537.66 241.88,535.38 244.31,532.56 247.38,528.97 248.41,527.97 252.53,524.03 254.06,522.59 256.66,520.56 260.75,517.22 261.88,516.28 264.88,514.19 269,511.38 270.97,510.06 273.09,508.84 277.22,506.5 281.34,504.5 282.84,503.88 285.44,502.88 288.44,501.88 " stroke="red" stroke-width="0.96875" stroke-linecap="round" stroke-linejoin="round" />
<polyline points="315.38,498.34 318.34,498.38 322.47,498.59 326.59,499 330.69,499.59 334.81,500.41 338.94,501.44 343.03,502.91 345.34,503.88 347.16,504.62 351.28,506.47 355.38,508.47 358.56,510.06 359.5,510.5 363.62,512.69 367.72,515 369.84,516.28 371.84,517.56 375.97,520.62 378.31,522.59 380.06,524.28 384.19,528.69 384.41,528.97 388.31,533.56 390.12,535.38 392.41,537.94 395.91,541.91 396.53,542.72 400.62,548.47 400.66,548.47 404.44,555.12 404.75,555.78 407.53,561.84 408.88,564.75 410.84,568.62 410.88,568.66 " stroke="red" stroke-width="0.96875" stroke-linecap="round" stroke-linejoin="round" />
<polyline points="291.41,497.41 292.28,496.53 294.03,496.53 294.91,497.41 294.91,499.16 294.03,500.03 291.41,500.03 291.41,501.78 294.91,501.78 " stroke="red" stroke-width="0.71875" stroke-linecap="round" stroke-linejoin="round" />
<polyline points="299.28,501.78 297.53,499.16 301.03,499.16 301.03,501.78 301.03,496.53 " stroke="red" stroke-width="0.71875" stroke-linecap="round" stroke-linejoin="round" />
<polygon points="304.53,501.78 303.66,500.91 303.66,497.41 304.53,496.53 306.28,496.53 307.16,497.41 307.16,500.91 306.28,501.78 " stroke="red" stroke-width="0.71875" stroke-linejoin="round" />
<polygon points="310.66,501.78 309.78,500.91 309.78,497.41 310.66,496.53 312.41,496.53 313.28,497.41 313.28,500.91 312.41,501.78 " stroke="red" stroke-width="0.71875" stroke-linejoin="round" />
<polyline points="441.66,568.66 441.59,568.62 437.66,566.03 433.56,563.44 431.25,561.84 429.44,560.56 425.31,557.09 423.38,555.12 421.22,552.41 419,548.47 417.09,545.12 415.31,541.91 412.97,538.12 411.22,535.38 408.88,532.34 405.97,528.97 404.75,527.78 400.62,524.38 398.5,522.59 396.53,521.03 392.41,517.78 390.56,516.28 388.31,514.56 384.19,511.5 382,510.06 380.06,508.88 375.97,506.66 371.84,504.72 370.12,503.88 367.72,502.5 363.62,500.31 359.5,498.31 358.22,497.75 355.38,496.47 351.28,494.62 347.16,492.97 343.53,491.69 343.03,491.5 338.94,490.19 334.81,489.16 330.69,488.31 326.59,487.59 322.47,487 318.34,486.56 314.25,486.28 310.12,486.09 306.03,486 301.91,485.88 297.78,485.88 293.69,486 289.56,486.38 285.44,487.22 281.34,488.28 277.22,489.47 273.09,490.75 269.62,491.69 269,491.88 264.88,493.06 260.75,494.28 256.66,495.56 252.53,496.72 249.56,497.56 " stroke="red" stroke-width="0.96875" stroke-linecap="round" stroke-linejoin="round" />
<polyline points="224.31,506.25 223.72,506.59 219.62,509.81 219.34,510.06 215.5,513.62 212.38,516.28 211.41,517.19 207.28,520.41 203.62,522.59 203.16,522.88 199.06,525.03 194.94,526.91 190.81,528.66 190.28,528.97 186.72,531.72 182.59,534.72 181.62,535.38 178.47,537.66 174.38,540.19 171.41,541.91 170.25,542.56 166.12,544.94 162.03,547.16 159.31,548.47 157.91,549.16 153.78,550.69 149.69,551.75 145.56,552.41 141.44,552.62 137.34,552.34 133.22,551.66 129.12,550.47 125,548.78 124.38,548.47 120.88,546.81 116.78,545.03 112.66,543.41 108.53,541.97 108.25,541.91 104.44,540.81 100.31,539.34 96.188,537.25 93.656,535.38 92.094,534.09 88.562,528.97 87.969,528.16 83.844,522.62 83.844,522.59 79.75,518.16 77.75,516.28 75.625,514.53 71.5,512.22 67.656,510.06 67.406,509.88 63.281,507.22 59.188,504.09 58.875,503.88 55.062,499.53 53.594,497.75 50.938,494.38 48.906,491.69 46.844,489.03 44.125,485.69 42.719,484.16 38.594,480.94 36.875,479.75 34.5,478.53 30.375,476.34 26.25,473.97 26.094,473.84 22.156,471.53 18.031,469.09 " stroke="red" stroke-width="0.96875" stroke-linecap="round" stroke-linejoin="round" />
<polyline points="225.56,499.78 226.44,498.91 228.19,498.91 229.06,499.78 229.06,501.53 228.19,502.41 225.56,502.41 225.56,504.16 229.06,504.16 " stroke="red" stroke-width="0.71875" stroke-linecap="round" stroke-linejoin="round" />
<polyline points="233.44,504.16 231.69,501.53 235.19,501.53 235.19,504.16 235.19,498.91 " stroke="red" stroke-width="0.71875" stroke-linecap="round" stroke-linejoin="round" />
<polyline points="241.31,503.28 240.44,504.16 238.69,504.16 237.81,503.28 237.81,499.78 238.69,498.91 240.44,498.91 241.31,499.78 241.31,500.66 240.44,501.53 237.81,501.53 " stroke="red" stroke-width="0.71875" stroke-linecap="round" stroke-linejoin="round" />
<polygon points="244.81,504.16 243.94,503.28 243.94,499.78 244.81,498.91 246.56,498.91 247.44,499.78 247.44,503.28 246.56,504.16 " stroke="red" stroke-width="0.71875" stroke-linejoin="round" />
<polyline points="594,554.75 590.16,555.12 589.88,555.12 585.78,555.44 581.66,555.72 577.53,555.97 573.44,556.28 569.31,556.66 565.19,557.16 561.09,557.69 556.97,558.28 552.88,558.91 548.75,559.66 544.62,560.41 540.53,561.09 536.41,561.72 535.25,561.84 532.28,562.09 528.19,562.38 524.06,562.59 519.94,562.72 515.84,562.81 511.72,562.81 507.59,562.69 503.5,562.44 499.38,562 498.09,561.84 495.25,561.41 491.16,560.62 487.03,559.66 482.91,558.53 478.81,557.22 474.69,555.75 473.06,555.12 470.56,554.12 466.47,552.38 462.34,550.47 458.44,548.47 458.25,548.34 454.12,546.06 450,543.72 446.97,541.91 445.91,541.25 441.78,538.56 437.66,535.56 437.47,535.38 433.56,531.97 430.66,528.97 429.44,527.81 425.31,523.78 424.16,522.59 421.22,519.88 417.09,516.28 412.97,513 409,510.06 408.88,509.94 404.75,507.03 400.62,504.19 400.19,503.88 396.53,501.25 392.41,498.5 391.22,497.75 388.31,495.91 384.19,493.84 380.06,491.97 379.44,491.69 375.97,490.16 371.84,488.44 367.72,486.84 364.31,485.69 363.62,485.44 359.5,484.09 355.38,482.88 351.28,481.53 347.16,480.25 345.31,479.75 343.03,478.94 338.94,477.66 334.81,476.53 330.69,475.56 326.59,474.69 322.47,473.94 321.81,473.84 318.34,473.31 315.38,472.91 " stroke="red" stroke-width="0.96875" stroke-linecap="round" stroke-linejoin="round" />
<polyline points="288.44,470.97 285.44,471.38 281.34,472.19 277.22,473.12 274.22,473.84 273.09,474.09 269,474.69 264.88,475.28 260.75,475.91 256.66,476.59 252.53,477.47 248.41,478.41 244.31,479.41 243,479.75 240.19,480.44 236.06,481.62 231.97,482.88 227.84,484.12 223.72,485.47 223.12,485.69 219.62,486.97 215.5,488.62 211.41,490.38 208.56,491.69 207.28,492.34 203.16,494.31 199.06,496.53 196.97,497.75 194.94,499.03 190.81,501.62 186.72,503.84 186.62,503.88 182.59,505.62 178.47,507.44 174.38,509.28 173.09,510.06 170.25,511.78 166.12,514.03 162.03,515.94 161.03,516.28 157.91,517.44 153.78,518.31 149.69,518.88 145.56,519.06 141.44,518.72 137.34,517.12 135.59,516.28 133.22,515.19 129.12,513.28 125,511.53 120.88,510.88 116.78,510.22 115.81,510.06 112.66,509.44 108.53,508.34 104.44,506.22 100.53,503.88 100.31,503.75 96.188,501.16 92.094,498.38 91.25,497.75 87.969,495.31 83.844,491.97 83.531,491.69 79.75,488.41 76.906,485.69 75.625,484.53 71.5,480.66 70.594,479.75 67.406,477.31 63.281,474.19 62.844,473.84 59.188,471.28 55.062,468.53 54.25,468 50.938,466.06 46.844,463.75 43.938,462.19 42.719,461.56 38.594,459.41 34.5,457.12 33.344,456.47 30.375,454.78 26.25,452.5 22.156,450.78 22.062,450.75 18.031,449.31 " stroke="red" stroke-width="0.96875" stroke-linecap="round" stroke-linejoin="round" />
<polyline points="291.41,469.69 292.28,468.81 294.03,468.81 294.91,469.69 294.91,471.44 294.03,472.31 291.41,472.31 291.41,474.06 294.91,474.06 " stroke="red" stroke-width="0.71875" stroke-linecap="round" stroke-linejoin="round" />
<polyline points="297.53,469.69 298.41,468.81 300.16,468.81 301.03,469.69 301.03,471.44 300.16,472.31 297.53,472.31 297.53,474.06 301.03,474.06 " stroke="red" stroke-width="0.71875" stroke-linecap="round" stroke-linejoin="round" />
<polyline points="303.66,473.19 304.53,474.06 306.28,474.06 307.16,473.19 307.16,472.31 303.66,468.81 307.16,468.81 " stroke="red" stroke-width="0.71875" stroke-linecap="round" stroke-linejoin="round" />
<polygon points="310.66,474.06 309.78,473.19 309.78,469.69 310.66,468.81 312.41,468.81 313.28,469.69 313.28,473.19 312.41,474.06 " stroke="red" stroke-width="0.71875" stroke-linejoin="round" />
<polyline points="594,518.91 589.88,522.59 585.78,525.31 581.66,527.06 577.53,528.62 576.53,528.97 573.44,529.81 569.31,530.84 565.19,531.88 561.09,532.84 556.97,533.78 552.88,534.62 549.25,535.38 548.75,535.5 544.62,536.22 540.53,536.88 536.41,537.44 532.28,537.75 528.19,537.94 524.06,538 519.94,537.97 515.84,537.88 511.72,537.66 507.59,537.34 503.5,536.84 499.38,536.16 495.53,535.38 495.25,535.34 491.16,534.31 487.03,533.16 482.91,531.84 478.81,530.44 474.94,528.97 474.69,528.88 470.56,527.12 466.47,525.12 462.34,523 461.59,522.59 458.25,520.75 454.12,518.41 450.19,516.28 450,516.19 445.91,513.81 441.78,511.25 439.97,510.06 437.66,508.5 433.56,505.47 431.41,503.88 429.44,502.41 425.31,499.34 423.16,497.75 421.22,496.38 417.09,493.62 414.06,491.69 412.97,491 408.88,488.44 404.75,486 404.28,485.69 400.62,483.38 396.53,480.84 394.59,479.75 392.41,478.47 388.31,476.19 384.19,474.25 383.19,473.84 380.06,472.47 375.97,470.78 371.84,469.25 368.06,468 367.72,467.88 363.62,466.47 359.5,465.06 355.38,463.72 351.28,462.53 350.03,462.19 347.16,461.41 343.03,460.44 338.94,459.56 334.81,458.72 330.69,457.97 326.59,457.28 323.59,456.84 " stroke="red" stroke-width="0.96875" stroke-linecap="round" stroke-linejoin="round" />
<polyline points="296.66,453.16 293.69,452.91 289.56,452.75 285.44,453.12 281.34,453.69 277.22,454.41 273.09,455.19 269,455.53 264.88,455.88 260.75,456.28 259.44,456.47 256.66,456.78 252.53,457.75 248.41,458.84 244.31,459.97 240.19,461.06 236.06,461.78 233.69,462.19 231.97,462.5 227.84,463.31 223.72,464.28 219.62,465.75 215.5,467.31 213.75,468 211.41,468.88 207.28,470.38 203.16,471.5 199.06,472.56 194.94,473.66 194.28,473.84 190.81,474.84 186.72,476.84 182.59,479.19 181.66,479.75 178.47,481.59 174.38,483.66 170.25,484.84 166.53,485.69 166.12,485.78 162.03,486.5 157.91,486.94 153.78,486.84 149.69,486.41 145.56,485.81 144.88,485.69 141.44,485.16 137.34,484.66 133.22,484.06 129.12,483.38 125,482.5 120.88,481.25 116.84,479.75 116.78,479.72 112.66,477.94 108.53,476.06 104.44,474.53 102.62,473.84 100.31,473 96.188,471.38 92.094,469.56 89.25,468 87.969,467.34 83.844,465.09 79.75,462.81 78.688,462.19 75.625,460.53 71.5,458.22 68.438,456.47 67.406,455.88 63.281,453.56 59.188,451.41 57.875,450.75 55.062,449.41 50.938,447.47 46.844,445.5 46.062,445.12 42.719,443.47 38.594,441.03 36.094,439.5 34.5,438.53 30.375,436.06 26.688,433.97 26.25,433.72 22.156,431.91 18.031,430.38 " stroke="red" stroke-width="0.96875" stroke-linecap="round" stroke-linejoin="round" />
<polyline points="299.62,453.09 300.5,452.22 302.25,452.22 303.12,453.09 303.12,454.84 302.25,455.72 299.62,455.72 299.62,457.47 303.12,457.47 " stroke="red" stroke-width="0.71875" stroke-linecap="round" stroke-linejoin="round" />
<polyline points="305.75,453.09 306.62,452.22 308.38,452.22 309.25,453.09 309.25,454.84 308.38,455.72 305.75,455.72 305.75,457.47 309.25,457.47 " stroke="red" stroke-width="0.71875" stroke-linecap="round" stroke-linejoin="round" />
<polygon points="312.75,457.47 311.88,456.59 311.88,455.72 312.75,454.84 314.5,454.84 315.38,455.72 315.38,456.59 314.5,457.47 " stroke="red" stroke-width="0.71875" stroke-linejoin="round" />
<polyline points="312.75,454.84 311.88,453.97 311.88,453.09 312.75,452.22 314.5,452.22 315.38,453.09 315.38,453.97 314.5,454.84 " stroke="red" stroke-width="0.71875" stroke-linecap="round" stroke-linejoin="round" />
<polygon points="318.88,457.47 318,456.59 318,453.09 318.88,452.22 320.62,452.22 321.5,453.09 321.5,456.59 320.62,457.47 " stroke="red" stroke-width="0.71875" stroke-linejoin="round" />
<polyline points="594,426.38 592.78,428.44 590.19,433.97 589.88,434.44 587.56,439.5 585.78,444.78 585.69,445.12 584.12,450.75 582.62,456.47 581.66,460.25 581.12,462.19 579.38,468 577.53,472.97 577.16,473.84 574.12,479.75 573.44,480.84 569.75,485.69 569.31,486.16 565.19,489.97 563.03,491.69 561.09,493.12 556.97,495.81 553.66,497.75 552.88,498.19 548.75,500.12 544.62,501.78 540.53,503.16 537.81,503.88 536.41,504.19 532.28,504.88 528.19,505.38 524.06,505.72 519.94,505.91 515.84,506 511.72,505.97 507.59,505.84 503.5,505.56 499.38,505.22 495.25,504.75 491.16,504.12 489.72,503.88 487.03,503.34 482.91,502.38 478.81,501.22 474.69,499.88 470.56,498.38 469.16,497.75 466.47,496.56 462.34,494.59 458.25,492.53 456.59,491.69 454.12,490.41 450,488.31 445.91,486.19 444.97,485.69 441.78,483.97 437.66,481.69 434.44,479.75 433.56,479.19 429.44,476.66 425.31,474.19 424.72,473.84 421.22,471.81 417.09,469.66 413.84,468 412.97,467.56 408.88,465.44 404.75,463.34 402.69,462.19 400.62,461.06 396.53,458.78 392.41,456.62 392.09,456.47 388.31,454.5 384.19,452.62 380.06,450.81 379.97,450.75 375.97,448.97 371.84,447.12 367.72,445.25 367.41,445.12 363.62,443.38 359.5,441.59 355.38,439.88 354.47,439.5 351.28,438.22 347.16,436.53 346.69,436.34 " stroke="red" stroke-width="0.96875" stroke-linecap="round" stroke-linejoin="round" />
<polyline points="321.34,427.88 318.34,427.41 314.25,426.91 310.12,426.56 306.03,426.28 301.91,425.84 297.78,425.41 293.69,425.09 289.56,424.84 285.44,424.84 281.34,425 277.22,425.34 273.09,425.88 269,426.81 264.88,427.91 263.09,428.44 260.75,429.09 256.66,430.28 252.53,431.44 248.41,432.69 244.41,433.97 244.31,433.97 240.19,435.19 236.06,436.25 231.97,437.25 227.84,438.25 223.72,439.28 223.03,439.5 219.62,440.56 215.5,441.97 211.41,443.47 207.28,445.06 207.09,445.12 203.16,446.38 199.06,447.69 194.94,448.97 190.81,450.16 187.62,450.75 186.72,450.94 182.59,451.56 178.47,452.19 174.38,452.81 170.25,453.78 166.12,454.69 162.03,455.5 157.91,456.22 156.53,456.47 153.78,456.88 149.69,457.38 145.56,457.69 141.44,457.75 137.34,457.34 133.22,456.72 132.03,456.47 129.12,455.84 125,454.81 120.88,453.62 116.78,452.41 112.66,451.19 111.22,450.75 108.53,450.03 104.44,449.16 100.31,448.25 96.188,447.25 92.094,446.12 89.469,445.12 87.969,444.53 83.844,442.75 79.75,440.84 76.906,439.5 75.625,438.91 71.5,437.25 67.406,435.69 63.281,434.19 62.656,433.97 59.188,432.69 55.062,431.03 50.938,429.28 49.125,428.44 46.844,427.38 42.719,425.34 38.625,422.97 38.594,422.97 34.5,420.53 30.375,418.22 29.125,417.53 26.25,416 22.156,414.16 18.031,412.34 " stroke="red" stroke-width="0.96875" stroke-linecap="round" stroke-linejoin="round" />
<polyline points="324.31,429.84 325.19,428.97 326.94,428.97 327.81,429.84 327.81,431.59 326.94,432.47 324.31,432.47 324.31,434.22 327.81,434.22 " stroke="red" stroke-width="0.71875" stroke-linecap="round" stroke-linejoin="round" />
<polyline points="333.94,433.34 333.06,434.22 331.31,434.22 330.44,433.34 330.44,429.84 331.31,428.97 333.06,428.97 333.94,429.84 333.94,430.72 333.06,431.59 330.44,431.59 " stroke="red" stroke-width="0.71875" stroke-linecap="round" stroke-linejoin="round" />
<polyline points="338.31,434.22 336.56,431.59 340.06,431.59 340.06,434.22 340.06,428.97 " stroke="red" stroke-width="0.71875" stroke-linecap="round" stroke-linejoin="round" />
<polygon points="343.56,434.22 342.69,433.34 342.69,429.84 343.56,428.97 345.31,428.97 346.19,429.84 346.19,433.34 345.31,434.22 " stroke="red" stroke-width="0.71875" stroke-linejoin="round" />
<polyline points="594,380.41 593.41,380.59 589.88,381.72 585.78,383.81 583.31,385.78 581.66,387.22 578.19,390.97 577.53,391.88 574.81,396.22 573.44,398.72 572,401.47 569.59,406.78 569.31,407.47 567.16,412.16 565.19,416.97 564.97,417.53 562.72,422.97 561.09,426.84 560.34,428.44 557.66,433.97 556.97,435.22 554.22,439.5 552.88,441.44 549.38,445.12 548.75,445.75 544.62,449.38 542.91,450.75 540.53,452.59 536.41,455.56 535.28,456.47 532.28,458.47 528.19,460.91 525.59,462.19 524.06,462.91 519.94,464.5 515.84,465.75 511.72,466.72 507.59,467.44 503.5,467.94 502.62,468 499.38,468.19 495.25,468.19 491.19,468 491.16,468 487.03,467.59 482.91,466.97 478.81,466.19 474.69,465.25 470.56,464.19 466.47,462.97 464.06,462.19 462.34,461.66 458.25,460.16 454.12,458.56 450,456.81 449.19,456.47 445.91,454.91 441.78,452.94 437.66,451 437.16,450.75 433.56,449.03 429.44,447.09 425.31,445.22 425.12,445.12 421.22,443.28 417.09,441.56 412.97,439.88 412.06,439.5 408.88,438.22 404.75,436.56 400.62,434.88 398.34,433.97 396.53,433.22 392.41,431.53 388.31,429.84 385.19,428.44 384.19,427.97 380.06,425.97 375.97,423.91 374.09,422.97 371.84,421.78 367.72,419.59 363.91,417.53 363.62,417.38 359.5,415.03 355.38,412.66 354.47,412.16 351.28,410.25 347.16,407.94 345.03,406.78 343.03,405.72 338.94,403.56 334.81,401.59 334.59,401.47 333.47,400.94 " stroke="red" stroke-width="0.96875" stroke-linecap="round" stroke-linejoin="round" />
<polyline points="314.31,391.47 314.25,391.47 313.25,390.97 310.12,389.47 306.03,387.53 301.91,386 301.19,385.78 297.78,384.59 293.69,383.22 289.56,381.81 286.69,380.59 285.44,380.06 281.34,378.38 277.22,376.75 273.47,375.47 273.09,375.34 269,374.38 264.88,373.78 260.75,373.66 256.66,374.03 252.66,375.47 252.53,375.53 248.41,377.56 244.31,379.78 242.81,380.59 240.19,382.12 236.06,383.31 231.97,384.66 229.28,385.78 227.84,386.5 223.72,389.12 221.53,390.97 219.62,392.66 215.5,396 215.25,396.22 211.41,399 207.72,401.47 207.28,401.75 203.16,405 200.91,406.78 199.06,408.12 194.94,411.06 193.31,412.16 190.81,413.53 186.72,415.41 182.59,417.16 181.69,417.53 178.47,418.78 174.38,420.44 170.25,422.59 169.5,422.97 166.12,424.59 162.03,426.41 157.91,427.97 155.97,428.44 153.78,428.97 149.69,429.72 145.56,430.28 141.44,430.59 137.34,430.62 133.22,430.47 129.12,430.19 125,429.75 120.88,429.31 116.78,428.75 114.88,428.44 112.66,428.06 108.53,427.28 104.44,426.34 100.31,425.22 96.188,423.91 93.5,422.97 92.094,422.47 87.969,421.03 83.844,419.72 79.75,418.53 76.125,417.53 75.625,417.41 71.5,416.28 67.406,415.09 63.281,413.84 59.188,412.47 58.281,412.16 55.062,410.81 50.938,409.03 46.844,407.22 45.906,406.78 42.719,405.31 38.594,403.22 35,401.47 34.5,401.25 30.375,399.25 26.25,397.41 23.344,396.22 22.156,395.69 18.031,393.88 " stroke="red" stroke-width="0.96875" stroke-linecap="round" stroke-linejoin="round" />
<polyline points="313.19,394.47 314.06,393.59 315.81,393.59 316.69,394.47 316.69,396.22 315.81,397.09 313.19,397.09 313.19,398.84 316.69,398.84 " stroke="red" stroke-width="0.71875" stroke-linecap="round" stroke-linejoin="round" />
<polyline points="319.31,398.84 322.81,398.84 321.06,393.59 " stroke="red" stroke-width="0.71875" stroke-linecap="round" stroke-linejoin="round" />
<polygon points="326.31,398.84 325.44,397.97 325.44,394.47 326.31,393.59 328.06,393.59 328.94,394.47 328.94,397.97 328.06,398.84 " stroke="red" stroke-width="0.71875" stroke-linejoin="round" />
<polygon points="332.44,398.84 331.56,397.97 331.56,394.47 332.44,393.59 334.19,393.59 335.06,394.47 335.06,397.97 334.19,398.84 " stroke="red" stroke-width="0.71875" stroke-linejoin="round" />
<polyline points="594,327.97 589.88,330.66 585.78,335.19 585.53,335.5 581.66,340.03 581.38,340.41 577.53,344.56 576.91,345.31 573.44,348.94 572.31,350.28 569.31,353.53 568,355.25 565.19,358.56 563.84,360.25 561.09,363.41 559.5,365.28 556.97,368.16 555.12,370.38 552.88,373.31 551.44,375.47 548.75,379.59 548.09,380.59 544.66,385.78 544.62,385.78 540.88,390.97 540.53,391.41 536.5,396.22 536.41,396.31 532.5,401.47 532.28,401.75 528.38,406.78 528.19,407.06 524.06,412.06 524,412.16 519.94,416.44 518.66,417.53 515.84,419.81 511.72,422.59 511.03,422.97 507.59,424.75 503.5,426.34 499.38,427.09 495.25,427.41 491.16,427.34 487.03,427.06 482.91,426.88 478.81,426.47 474.69,425.81 470.56,424.91 466.47,423.56 464.75,422.97 462.34,422.12 458.25,420.59 454.12,419.12 450,417.66 449.66,417.53 445.91,416.09 441.78,414.53 437.66,412.94 435.47,412.16 433.56,411.44 429.44,410 425.31,408.62 421.22,407.34 419.53,406.78 417.09,406 412.97,404.66 408.88,403.31 404.75,401.97 403.16,401.47 400.62,400.66 396.53,399.19 392.41,397.59 389.22,396.22 388.31,395.78 384.19,393.97 380.06,392.12 377.53,390.97 375.97,390.28 371.84,388.34 367.72,386.25 366.78,385.78 363.62,384.16 359.5,382.16 356.25,380.59 355.38,380.19 351.28,377.91 347.16,375.56 347,375.47 343.03,373.12 338.94,370.69 338.28,370.38 334.81,368.78 331.69,367.28 " stroke="red" stroke-width="0.96875" stroke-linecap="round" stroke-linejoin="round" />
<polyline points="314.25,357.84 310.12,355.72 309.16,355.25 306.03,353.75 301.91,352.12 297.78,350.59 296.84,350.28 293.69,348.94 289.56,347.16 286.22,345.31 285.44,344.88 281.34,342.81 277.22,341.19 274.56,340.41 273.09,340 269,339.69 264.88,339.78 260.75,340.16 259.34,340.41 256.66,340.84 252.53,341.59 248.41,342.56 244.31,343.66 240.19,344.84 238.31,345.31 236.06,345.88 231.97,346.88 227.84,347.94 223.72,349.09 220.91,350.28 219.62,350.84 215.5,353.12 212.34,355.25 211.41,355.94 207.28,359.28 206.09,360.25 203.16,362.66 199.81,365.28 199.06,365.88 194.94,368.91 192.88,370.38 190.81,371.97 186.72,375.44 186.69,375.47 182.59,379.12 180.94,380.59 178.47,382.78 175.06,385.78 174.38,386.34 170.25,389.78 168.72,390.97 166.12,392.94 162.03,395.75 161.25,396.22 157.91,398.12 153.78,399.59 149.69,400.66 145.56,401.41 144.97,401.47 141.44,401.91 137.34,402.53 133.22,402.97 129.12,403.19 125,403.19 120.88,402.69 116.78,401.91 114.91,401.47 112.66,400.94 108.53,399.88 104.44,399.09 100.31,398.38 96.188,397.69 92.094,396.97 89,396.22 87.969,395.94 83.844,394.72 79.75,393.34 75.625,391.84 73.031,390.97 71.5,390.5 67.406,389.19 63.281,387.84 59.188,386.47 57.188,385.78 55.062,385 50.938,383.41 46.844,381.72 44.219,380.59 42.719,379.94 38.594,378.09 34.5,376.25 32.688,375.47 30.375,374.44 26.25,372.66 22.156,371.03 20.438,370.38 18.031,369.44 " stroke="red" stroke-width="0.96875" stroke-linecap="round" stroke-linejoin="round" />
<polyline points="311.97,360.81 312.84,359.94 314.59,359.94 315.47,360.81 315.47,362.56 314.59,363.44 311.97,363.44 311.97,365.19 315.47,365.19 " stroke="red" stroke-width="0.71875" stroke-linecap="round" stroke-linejoin="round" />
<polyline points="318.09,365.19 321.59,365.19 319.84,359.94 " stroke="red" stroke-width="0.71875" stroke-linecap="round" stroke-linejoin="round" />
<polyline points="327.72,364.31 326.84,365.19 325.09,365.19 324.22,364.31 324.22,360.81 325.09,359.94 326.84,359.94 327.72,360.81 327.72,361.69 326.84,362.56 324.22,362.56 " stroke="red" stroke-width="0.71875" stroke-linecap="round" stroke-linejoin="round" />
<polygon points="331.22,365.19 330.34,364.31 330.34,360.81 331.22,359.94 332.97,359.94 333.84,360.81 333.84,364.31 332.97,365.19 " stroke="red" stroke-width="0.71875" stroke-linejoin="round" />
<polyline points="538.78,247 538.78,247.03 536.66,251.5 536.41,251.97 534.09,256 532.28,258.31 530.62,260.5 528.19,263.66 527.16,265.03 524.06,269.25 523.84,269.59 520.69,274.16 519.94,275.31 517.72,278.75 515.84,281.84 514.91,283.34 512.31,287.97 511.72,289.09 509.88,292.62 507.81,297.31 507.59,297.84 505.81,302 503.81,306.72 503.5,307.5 501.97,311.44 500.19,316.22 499.38,318.38 498.25,321 496.09,325.81 495.25,327.81 493.88,330.66 494.78,335.5 495.25,336.94 496.56,340.41 498.34,345.31 498.91,350.28 495.25,354.16 493.47,355.25 491.16,356.16 487.03,356.72 482.91,356.34 478.81,355.56 477.34,355.25 474.69,354.66 470.56,353.78 466.47,353.47 462.34,353.22 458.25,353 454.12,352.84 450,352.72 445.91,352.56 441.78,352.41 437.66,352.22 433.56,351.78 429.44,351.31 425.31,350.91 421.22,350.75 417.09,351.66 412.97,352.44 408.88,352.97 404.75,353.12 400.62,352.59 396.53,351.84 392.41,350.88 390.28,350.28 388.31,349.62 384.19,347.75 380.06,345.75 379.19,345.31 375.97,343.53 371.84,341.31 369.47,340.41 367.72,339.66 363.62,337.88 359.5,336.09 358.25,335.5 355.38,334.03 351.28,331.56 349.78,330.66 347.16,329 343.03,326.5 341.88,325.81 338.94,324 334.81,322.41 330.69,321.06 330.53,321 326.59,319.69 322.47,318.38 322.12,318.22 " stroke="red" stroke-width="0.96875" stroke-linecap="round" stroke-linejoin="round" />
<polyline points="297.84,308.78 297.78,308.75 293.69,307.44 290.81,306.72 289.56,306.38 285.44,305.69 281.34,305.19 277.22,304.84 273.09,304.66 269,304.59 264.88,304.75 260.75,305.16 256.66,305.84 253.59,306.72 252.53,306.97 248.41,308.28 244.31,309.84 240.59,311.44 240.19,311.59 236.06,313.47 231.97,315.72 231.16,316.22 227.84,318.09 223.72,320.69 223.19,321 219.62,322.81 215.5,324.97 213.91,325.81 211.41,327.03 207.28,329.19 205,330.66 203.16,331.66 199.06,334.25 197.25,335.5 194.94,337.19 190.88,340.41 190.81,340.44 186.72,343.34 183.97,345.31 182.59,346.28 178.47,349.12 176.81,350.28 174.38,351.78 170.25,354.5 169.09,355.25 166.12,357.19 162.03,359.94 161.53,360.25 157.91,362.53 153.78,364.69 152.47,365.28 149.69,366.47 145.56,367.88 141.44,368.88 137.34,369.28 133.22,369.34 129.12,369.16 125,368.84 120.88,368.81 116.78,368.69 112.66,368.47 108.53,368.09 104.44,367.28 100.31,366.41 96.188,365.47 95.438,365.28 92.094,364.53 87.969,364.03 83.844,363.56 79.75,363.06 75.625,362.41 71.5,361.41 67.406,360.25 67.375,360.25 63.281,358.97 59.188,357.62 55.062,356.22 52.281,355.25 50.938,354.78 46.844,353.25 42.719,351.72 39.094,350.28 38.594,350.03 34.5,348.06 30.375,346.09 28.844,345.31 26.25,344 22.156,341.75 19.75,340.41 18.031,339.44 " stroke="red" stroke-width="0.96875" stroke-linecap="round" stroke-linejoin="round" />
<polyline points="299.62,311.75 300.5,310.88 302.25,310.88 303.12,311.75 303.12,313.5 302.25,314.38 299.62,314.38 299.62,316.12 303.12,316.12 " stroke="red" stroke-width="0.71875" stroke-linecap="round" stroke-linejoin="round" />
<polygon points="306.62,316.12 305.75,315.25 305.75,314.38 306.62,313.5 308.38,313.5 309.25,314.38 309.25,315.25 308.38,316.12 " stroke="red" stroke-width="0.71875" stroke-linejoin="round" />
<polyline points="306.62,313.5 305.75,312.62 305.75,311.75 306.62,310.88 308.38,310.88 309.25,311.75 309.25,312.62 308.38,313.5 " stroke="red" stroke-width="0.71875" stroke-linecap="round" stroke-linejoin="round" />
<polyline points="311.88,315.25 312.75,316.12 314.5,316.12 315.38,315.25 315.38,314.38 311.88,310.88 315.38,310.88 " stroke="red" stroke-width="0.71875" stroke-linecap="round" stroke-linejoin="round" />
<polygon points="318.88,316.12 318,315.25 318,311.75 318.88,310.88 320.62,310.88 321.5,311.75 321.5,315.25 320.62,316.12 " stroke="red" stroke-width="0.71875" stroke-linejoin="round" />
<line x1="21" y1="247.09" x2="18.031" y2="247.16" stroke="red" stroke-width="0.96875" stroke-linecap="round" />
<polyline points="24,247 24,248.19 27.5,248.19 " stroke="red" stroke-width="0.71875" stroke-linecap="round" stroke-linejoin="round" />
<polyline points="31,248.19 30.125,247.31 30.125,247 " stroke="red" stroke-width="0.71875" stroke-linecap="round" stroke-linejoin="round" />
<polyline points="33.625,247 33.625,247.31 32.75,248.19 31,248.19 " stroke="red" stroke-width="0.71875" stroke-linecap="round" stroke-linejoin="round" />
<polyline points="37.125,248.19 36.25,247.31 36.25,247 " stroke="red" stroke-width="0.71875" stroke-linecap="round" stroke-linejoin="round" />
<polyline points="39.75,247 39.75,247.31 38.875,248.19 37.125,248.19 " stroke="red" stroke-width="0.71875" stroke-linecap="round" stroke-linejoin="round" />
<polyline points="43.25,248.19 42.375,247.31 42.375,247 " stroke="red" stroke-width="0.71875" stroke-linecap="round" stroke-linejoin="round" />
<polyline points="45.875,247 45.875,247.31 45,248.19 43.25,248.19 " stroke="red" stroke-width="0.71875" stroke-linecap="round" stroke-linejoin="round" />
<polyline points="168.94,247 168.97,247.03 170.25,248.56 172.72,251.5 174.38,254.69 174.97,256 174.88,260.5 174.38,262.41 173.62,265.03 171.62,269.59 170.25,272.47 169.47,274.16 169.09,278.75 167.97,283.34 166.12,287.12 165.69,287.97 162.03,292.25 161.69,292.62 157.91,294.88 154.53,297.31 153.78,297.75 149.69,300.28 147,302 145.56,302.78 141.44,305.16 138.97,306.72 137.34,307.62 134.34,309.19 " stroke="red" stroke-width="0.96875" stroke-linecap="round" stroke-linejoin="round" />
<polyline points="107.41,314.12 104.44,313.69 100.31,312.81 96.188,311.69 95.406,311.44 92.094,310.34 87.969,309.19 83.844,307.91 80.312,306.72 79.75,306.47 75.625,304.59 71.5,302.84 69.531,302 67.406,300.81 63.281,298.59 60.594,297.31 59.188,296.5 55.062,295.53 50.938,294.94 46.844,294.38 42.719,293.62 40.812,292.62 38.594,291.28 34.5,288.91 32.781,287.97 30.375,286.66 26.25,284.59 24.344,283.34 22.156,281.72 18.031,278.75 " stroke="red" stroke-width="0.96875" stroke-linecap="round" stroke-linejoin="round" />
<polyline points="110.38,312.03 111.25,311.16 113,311.16 113.88,312.03 113.88,313.78 113,314.66 110.38,314.66 110.38,316.41 113.88,316.41 " stroke="red" stroke-width="0.71875" stroke-linecap="round" stroke-linejoin="round" />
<polygon points="117.38,316.41 116.5,315.53 116.5,314.66 117.38,313.78 119.12,313.78 120,314.66 120,315.53 119.12,316.41 " stroke="red" stroke-width="0.71875" stroke-linejoin="round" />
<polyline points="117.38,313.78 116.5,312.91 116.5,312.03 117.38,311.16 119.12,311.16 120,312.03 120,312.91 119.12,313.78 " stroke="red" stroke-width="0.71875" stroke-linecap="round" stroke-linejoin="round" />
<polygon points="123.5,316.41 122.62,315.53 122.62,314.66 123.5,313.78 125.25,313.78 126.12,314.66 126.12,315.53 125.25,316.41 " stroke="red" stroke-width="0.71875" stroke-linejoin="round" />
<polyline points="123.5,313.78 122.62,312.91 122.62,312.03 123.5,311.16 125.25,311.16 126.12,312.03 126.12,312.91 125.25,313.78 " stroke="red" stroke-width="0.71875" stroke-linecap="round" stroke-linejoin="round" />
<polygon points="129.62,316.41 128.75,315.53 128.75,312.03 129.62,311.16 131.38,311.16 132.25,312.03 132.25,315.53 131.38,316.41 " stroke="red" stroke-width="0.71875" stroke-linejoin="round" />
</g>
</svg>
