<?xml version="1.0" encoding="ISO-8859-1" standalone="no"?>
<!DOCTYPE svg PUBLIC "-//W3C//DTD SVG 1.1//EN" "http://www.w3.org/Graphics/SVG/1.1/DTD/svg11.dtd">
<svg version="1.1" baseProfile="full" id="body" width="900px" height="600px" viewBox="0 0.2 1 0.55" preserveAspectRatio="none" xmlns="http://www.w3.org/2000/svg" xmlns:xlink="http://www.w3.org/1999/xlink" xmlns:ev="http://www.w3.org/2001/xml-events">
<title>SVG drawing</title>
<desc>This was produced by version 4.2 of GNU libplot, a free library for exporting 2-D vector graphics.</desc>
<rect id="background" x="0" y="0" width="1" height="1" stroke="none" fill="none"/>
<g id="content" transform="translate(-0.03125,1.1875) scale(1,-1) scale(0.0017361) " xml:space="preserve" stroke="black" stroke-linecap="butt" stroke-linejoin="miter" stroke-miterlimit="10.433" stroke-dasharray="none" stroke-dashoffset="0" stroke-opacity="1" fill="none" fill-rule="even-odd" fill-opacity="1" font-style="normal" font-variant="normal" font-weight="normal" font-stretch="normal" font-size-adjust="none" letter-spacing="normal" word-spacing="normal" text-anchor="start">
<polyline points="40.469,568.66 40.469,568.62 38.594,563.53 38.031,561.84 35.938,555.12 35.344,551.12 " stroke="red" stroke-width="0.96875" stroke-linecap="round" stroke-linejoin="round" />
<polyline points="33.375,541.69 31.062,535.38 30.375,534.16 26.906,528.97 26.25,528.25 22.156,525.22 18.031,523.03 " stroke="red" stroke-width="0.96875" stroke-linecap="round" stroke-linejoin="round" />
<polyline points="24,544.66 24.875,543.78 26.625,543.78 27.5,544.66 27.5,546.41 26.625,547.28 24,547.28 24,549.03 27.5,549.03 " stroke="red" stroke-width="0.71875" stroke-linecap="round" stroke-linejoin="round" />
<polyline points="30.125,548.16 31,549.03 32.75,549.03 33.625,548.16 33.625,547.28 30.125,543.78 33.625,543.78 " stroke="red" stroke-width="0.71875" stroke-linecap="round" stroke-linejoin="round" />
<polyline points="36.25,548.16 37.125,549.03 38.875,549.03 39.75,548.16 39.75,547.28 36.25,543.78 39.75,543.78 " stroke="red" stroke-width="0.71875" stroke-linecap="round" stroke-linejoin="round" />
<polygon points="43.25,549.03 42.375,548.16 42.375,544.66 43.25,543.78 45,543.78 45.875,544.66 45.875,548.16 45,549.03 " stroke="red" stroke-width="0.71875" stroke-linejoin="round" />
<polyline points="431.38,568.66 432.16,567.88 433.91,567.88 434.69,568.66 " stroke="red" stroke-width="0.71875" stroke-linecap="round" stroke-linejoin="round" />
<polyline points="438.19,568.66 437.41,567.88 440.91,567.88 " stroke="red" stroke-width="0.71875" stroke-linecap="round" stroke-linejoin="round" />
<polyline points="444.31,568.66 443.53,567.88 447.03,567.88 " stroke="red" stroke-width="0.71875" stroke-linecap="round" stroke-linejoin="round" />
<polyline points="449.75,568.66 450.53,567.88 452.28,567.88 453.06,568.66 " stroke="red" stroke-width="0.71875" stroke-linecap="round" stroke-linejoin="round" />
<polyline points="80.781,568.66 80.75,568.62 79.75,567.66 75.625,562.88 75,561.84 71.5,555.28 71.438,555.12 68.812,548.47 67.406,545.94 64.75,541.91 63.75,540.78 " stroke="red" stroke-width="0.96875" stroke-linecap="round" stroke-linejoin="round" />
<polyline points="55,531.31 53.25,528.97 50.938,526.09 48.438,522.59 46.844,520.66 43.281,516.28 42.719,515.72 38.594,512.22 35.875,510.06 34.5,509.16 30.375,506.78 26.25,504.66 24.531,503.88 22.156,503.19 18.031,502.16 " stroke="red" stroke-width="0.96875" stroke-linecap="round" stroke-linejoin="round" />
<polyline points="48.688,534.31 49.562,533.44 51.312,533.44 52.188,534.31 52.188,536.06 51.312,536.94 48.688,536.94 48.688,538.69 52.188,538.69 " stroke="red" stroke-width="0.71875" stroke-linecap="round" stroke-linejoin="round" />
<polyline points="54.812,537.81 55.688,538.69 57.438,538.69 58.312,537.81 58.312,536.94 54.812,533.44 58.312,533.44 " stroke="red" stroke-width="0.71875" stroke-linecap="round" stroke-linejoin="round" />
<polygon points="61.812,538.69 60.938,537.81 60.938,536.94 61.812,536.06 63.562,536.06 64.438,536.94 64.438,537.81 63.562,538.69 " stroke="red" stroke-width="0.71875" stroke-linejoin="round" />
<polyline points="61.812,536.06 60.938,535.19 60.938,534.31 61.812,533.44 63.562,533.44 64.438,534.31 64.438,535.19 63.562,536.06 " stroke="red" stroke-width="0.71875" stroke-linecap="round" stroke-linejoin="round" />
<polygon points="67.938,538.69 67.062,537.81 67.062,534.31 67.938,533.44 69.688,533.44 70.562,534.31 70.562,537.81 69.688,538.69 " stroke="red" stroke-width="0.71875" stroke-linejoin="round" />
<polyline points="394.97,568.66 394.97,568.62 394.78,561.84 395.28,555.12 396.28,548.47 396.53,547.5 398.09,541.91 400.62,535.91 400.91,535.38 404.75,529.84 405.72,528.97 408.88,527.09 412.97,525.59 417.09,524.94 421.22,525.09 421.38,525.12 " stroke="red" stroke-width="0.96875" stroke-linecap="round" stroke-linejoin="round" />
<polyline points="440.03,534.56 441.06,535.38 441.78,535.97 445.91,539.47 448.75,541.91 450,542.97 454.12,546.53 456.19,548.47 458.25,550.38 462.34,554.25 463.22,555.12 466.47,558.31 470,561.84 470.56,562.41 474.69,566.62 476.62,568.62 476.66,568.66 " stroke="red" stroke-width="0.96875" stroke-linecap="round" stroke-linejoin="round" />
<polyline points="423.06,528.09 423.94,527.22 425.69,527.22 426.56,528.09 426.56,529.84 425.69,530.72 423.06,530.72 423.06,532.47 426.56,532.47 " stroke="red" stroke-width="0.71875" stroke-linecap="round" stroke-linejoin="round" />
<polyline points="429.19,531.59 430.06,532.47 431.81,532.47 432.69,531.59 432.69,530.72 429.19,527.22 432.69,527.22 " stroke="red" stroke-width="0.71875" stroke-linecap="round" stroke-linejoin="round" />
<polygon points="436.19,532.47 435.31,531.59 435.31,530.72 436.19,529.84 437.94,529.84 438.81,530.72 438.81,531.59 437.94,532.47 " stroke="red" stroke-width="0.71875" stroke-linejoin="round" />
<polyline points="436.19,529.84 435.31,528.97 435.31,528.09 436.19,527.22 437.94,527.22 438.81,528.09 438.81,528.97 437.94,529.84 " stroke="red" stroke-width="0.71875" stroke-linecap="round" stroke-linejoin="round" />
<polygon points="442.31,532.47 441.44,531.59 441.44,528.09 442.31,527.22 444.06,527.22 444.94,528.09 444.94,531.59 444.06,532.47 " stroke="red" stroke-width="0.71875" stroke-linejoin="round" />
<polyline points="129.59,568.66 129.56,568.62 129.12,567.88 125.75,561.84 125,560.59 120.88,558 116.78,556.47 112.66,555.62 109.19,555.12 108.53,555.03 104.44,552.97 100.31,549.41 99.531,548.47 96.188,542.94 95.719,541.91 93.094,535.38 92.094,533.03 90.438,530.66 " stroke="red" stroke-width="0.96875" stroke-linecap="round" stroke-linejoin="round" />
<polyline points="72.375,521.19 71.5,520.84 67.406,518.78 63.344,516.28 63.281,516.25 59.188,513.41 55.625,510.06 55.062,509.56 50.938,505.94 48.594,503.88 46.844,502.78 42.719,500.41 38.594,498.5 36.75,497.75 34.5,496.91 30.375,495.53 26.25,494.31 22.156,493.44 18.031,492.53 " stroke="red" stroke-width="0.96875" stroke-linecap="round" stroke-linejoin="round" />
<polyline points="73.344,524.19 74.219,523.31 75.969,523.31 76.844,524.19 76.844,525.94 75.969,526.81 73.344,526.81 73.344,528.56 76.844,528.56 " stroke="red" stroke-width="0.71875" stroke-linecap="round" stroke-linejoin="round" />
<polyline points="79.469,527.69 80.344,528.56 82.094,528.56 82.969,527.69 82.969,526.81 82.094,525.94 81.219,525.94 82.094,525.94 82.969,525.06 82.969,524.19 82.094,523.31 80.344,523.31 79.469,524.19 " stroke="red" stroke-width="0.71875" stroke-linecap="round" stroke-linejoin="round" />
<polyline points="87.344,528.56 85.594,525.94 89.094,525.94 89.094,528.56 89.094,523.31 " stroke="red" stroke-width="0.71875" stroke-linecap="round" stroke-linejoin="round" />
<polygon points="92.594,528.56 91.719,527.69 91.719,524.19 92.594,523.31 94.344,523.31 95.219,524.19 95.219,527.69 94.344,528.56 " stroke="red" stroke-width="0.71875" stroke-linejoin="round" />
<polyline points="362.91,568.66 362.91,568.62 363.31,561.84 363.62,558.97 364,555.12 364.94,548.47 366.53,541.91 367.72,538.75 369.12,535.38 371.84,530.72 372.75,528.97 375.97,523.22 376.34,522.59 380.06,518.09 381.91,516.28 384.19,514.53 388.31,511.81 390.47,510.06 392.41,508.69 396.53,506.06 400.62,503.91 400.75,503.88 404.75,502.31 408.88,501.44 412.97,501 415.97,501.06 " stroke="red" stroke-width="0.96875" stroke-linecap="round" stroke-linejoin="round" />
<polyline points="437.28,509.78 437.66,510.03 437.69,510.06 441.78,513.31 445.28,516.28 445.91,516.84 450,520.62 452.06,522.59 454.12,524.56 458.25,528.62 458.56,528.97 462.34,532.78 464.91,535.38 466.47,536.97 470.56,541.12 471.38,541.91 474.69,545.16 478.03,548.47 478.81,549.25 482.91,553.5 484.47,555.12 487.03,557.81 490.94,561.84 491.16,562.06 495.25,566.34 497.47,568.62 497.5,568.66 " stroke="red" stroke-width="0.96875" stroke-linecap="round" stroke-linejoin="round" />
<polyline points="418.94,503.31 419.81,502.44 421.56,502.44 422.44,503.31 422.44,505.06 421.56,505.94 418.94,505.94 418.94,507.69 422.44,507.69 " stroke="red" stroke-width="0.71875" stroke-linecap="round" stroke-linejoin="round" />
<polyline points="425.06,506.81 425.94,507.69 427.69,507.69 428.56,506.81 428.56,505.94 427.69,505.06 426.81,505.06 427.69,505.06 428.56,504.19 428.56,503.31 427.69,502.44 425.94,502.44 425.06,503.31 " stroke="red" stroke-width="0.71875" stroke-linecap="round" stroke-linejoin="round" />
<polyline points="432.94,507.69 431.19,505.06 434.69,505.06 434.69,507.69 434.69,502.44 " stroke="red" stroke-width="0.71875" stroke-linecap="round" stroke-linejoin="round" />
<polygon points="438.19,507.69 437.31,506.81 437.31,503.31 438.19,502.44 439.94,502.44 440.81,503.31 440.81,506.81 439.94,507.69 " stroke="red" stroke-width="0.71875" stroke-linejoin="round" />
<polyline points="149.66,568.66 149.59,568.62 145.56,566.28 141.44,563.44 140.25,561.84 137.34,557.28 136.09,555.12 133.22,549.75 132.44,548.47 129.12,544.12 126.69,541.91 125,540.62 120.88,539.53 116.78,538.66 112.66,537.66 108.53,536.03 107.94,535.38 104.44,531.06 103.12,528.97 101.94,527.31 " stroke="red" stroke-width="0.96875" stroke-linecap="round" stroke-linejoin="round" />
<polyline points="94.531,517.88 93.031,516.28 92.094,515.41 87.969,513.28 83.844,511.5 80.125,510.06 79.75,509.91 75.625,508.31 71.5,506.19 67.562,503.88 67.406,503.78 63.281,501.41 59.188,499.06 57.062,497.75 55.062,496.59 50.938,494.31 46.844,492.22 45.719,491.69 42.719,490.34 38.594,488.84 34.5,487.53 30.375,486.38 27.844,485.69 26.25,485.25 22.156,484.31 18.031,483.31 " stroke="red" stroke-width="0.96875" stroke-linecap="round" stroke-linejoin="round" />
<polyline points="88.094,520.84 88.969,519.97 90.719,519.97 91.594,520.84 91.594,522.59 90.719,523.47 88.094,523.47 88.094,525.22 91.594,525.22 " stroke="red" stroke-width="0.71875" stroke-linecap="round" stroke-linejoin="round" />
<polyline points="95.969,525.22 94.219,522.59 97.719,522.59 97.719,525.22 97.719,519.97 " stroke="red" stroke-width="0.71875" stroke-linecap="round" stroke-linejoin="round" />
<polygon points="101.22,525.22 100.34,524.34 100.34,520.84 101.22,519.97 102.97,519.97 103.84,520.84 103.84,524.34 102.97,525.22 " stroke="red" stroke-width="0.71875" stroke-linejoin="round" />
<polygon points="107.34,525.22 106.47,524.34 106.47,520.84 107.34,519.97 109.09,519.97 109.97,520.84 109.97,524.34 109.09,525.22 " stroke="red" stroke-width="0.71875" stroke-linejoin="round" />
<polyline points="318.66,568.66 318.69,568.62 322.47,563.41 323.47,561.84 326.59,556.78 327.5,555.12 330.31,548.47 330.69,547.56 332.81,541.91 334.81,536.62 335.25,535.38 337.91,528.97 338.94,527.31 341.69,522.59 343.03,520.62 346.03,516.28 347.16,514.84 351,510.06 351.28,509.75 355.38,505.25 356.56,503.88 359.5,500.78 362.72,497.75 363.62,497 367.72,493.94 371.19,491.69 371.84,491.31 375.97,489.25 380.06,487.25 383.44,485.69 384.19,485.34 388.31,483.69 392.41,482.53 396.53,481.81 400.62,481.44 404.75,481.38 407.75,481.28 " stroke="red" stroke-width="0.96875" stroke-linecap="round" stroke-linejoin="round" />
<polyline points="430.5,487.69 433.56,489.53 436.84,491.69 437.66,492.22 441.78,495.25 444.97,497.75 445.91,498.5 450,502.03 452.03,503.88 454.12,505.78 458.25,509.56 458.78,510.06 462.34,513.47 465.25,516.28 466.47,517.47 470.56,521.53 471.72,522.59 474.69,525.38 478.59,528.97 478.81,529.16 482.91,533 485.44,535.38 487.03,536.94 491.16,540.97 492.09,541.91 495.25,545.03 498.78,548.47 499.38,549.03 503.5,553 505.81,555.12 507.59,556.78 511.72,560.59 513.06,561.84 515.84,564.38 519.94,568.16 520.44,568.62 520.47,568.66 " stroke="red" stroke-width="0.96875" stroke-linecap="round" stroke-linejoin="round" />
<polyline points="410.72,481.22 411.59,480.34 413.34,480.34 414.22,481.22 414.22,482.97 413.34,483.84 410.72,483.84 410.72,485.59 414.22,485.59 " stroke="red" stroke-width="0.71875" stroke-linecap="round" stroke-linejoin="round" />
<polyline points="418.59,485.59 416.84,482.97 420.34,482.97 420.34,485.59 420.34,480.34 " stroke="red" stroke-width="0.71875" stroke-linecap="round" stroke-linejoin="round" />
<polygon points="423.84,485.59 422.97,484.72 422.97,481.22 423.84,480.34 425.59,480.34 426.47,481.22 426.47,484.72 425.59,485.59 " stroke="red" stroke-width="0.71875" stroke-linejoin="round" />
<polygon points="429.97,485.59 429.09,484.72 429.09,481.22 429.97,480.34 431.72,480.34 432.59,481.22 432.59,484.72 431.72,485.59 " stroke="red" stroke-width="0.71875" stroke-linejoin="round" />
<polyline points="545.69,568.66 545.62,568.62 544.62,567.97 540.53,565.09 536.41,562 536.22,561.84 532.28,558.28 528.94,555.12 528.19,554.34 524.06,550.38 522.03,548.47 519.94,546.56 515.84,543.03 514.5,541.91 511.72,539.47 507.59,535.84 507.09,535.38 503.5,532.06 500.16,528.97 499.38,528.19 495.25,524.28 493.41,522.59 491.16,520.56 487.03,517 486.19,516.28 482.91,513.47 478.97,510.06 478.81,509.91 474.69,506.22 472.09,503.88 470.56,502.44 466.47,498.59 465.53,497.75 462.34,494.94 458.47,491.69 458.25,491.5 454.12,488.31 450.84,485.69 450,485.03 445.91,481.94 442.78,479.75 441.78,479.03 437.66,476.25 434.16,473.84 433.56,473.44 429.44,470.72 425.31,468.12 425.12,468 421.22,465.78 417.09,463.97 412.97,462.34 412.47,462.19 408.88,461.16 404.75,460.34 400.62,460.38 396.53,460.81 392.41,461.56 389.5,462.19 388.31,462.5 384.19,463.22 380.06,464.19 375.97,465.41 371.84,467 369.47,468 367.72,468.81 363.62,471.06 359.5,473.62 359.22,473.84 355.38,476.62 351.28,479.47 350.88,479.75 347.16,482.25 343.03,485.38 342.66,485.69 338.94,489.28 336.81,491.69 334.81,494.09 331.66,497.75 330.69,498.84 326.59,503.38 326.12,503.88 322.47,508.03 320.94,510.06 318.34,513.56 316.22,516.28 314.25,518.84 314.12,518.97 " stroke="red" stroke-width="0.96875" stroke-linecap="round" stroke-linejoin="round" />
<polyline points="305.84,528.44 305.38,528.97 301.91,533.81 300.69,535.38 297.78,539.34 295.75,541.91 293.69,544.44 290.03,548.47 289.56,548.97 285.44,553 283.12,555.12 281.34,556.75 277.22,560.22 275.09,561.84 273.09,563.34 269,565.81 264.88,567.97 263.38,568.62 263.31,568.66 " stroke="red" stroke-width="0.96875" stroke-linecap="round" stroke-linejoin="round" />
<polyline points="203.5,568.66 203.25,568.62 203.16,568.62 199.06,567.97 194.94,567.19 190.81,566.25 186.72,564.94 182.59,563.5 178.47,561.94 178.25,561.84 174.38,560.25 170.25,558.47 166.12,556.56 163.12,555.12 162.03,554.59 157.91,552.38 153.78,550.09 151.62,548.47 149.69,546.66 145.88,541.91 145.56,541.44 141.91,535.38 141.44,534.69 137.34,530.12 135.69,528.97 133.22,527.81 129.12,526.31 125,525.09 120.88,524.22 116.78,523.03 115.72,522.59 112.66,521.22 108.53,518.56 106.66,516.28 104.44,513.72 101.09,510.06 100.31,509.25 96.188,505.56 93.906,503.88 92.094,502.47 87.969,500.44 83.844,498.62 81.781,497.75 79.75,496.88 75.625,495.09 71.5,493.16 68.25,491.69 67.406,491.31 63.281,489.53 59.188,487.81 55.062,485.91 54.562,485.69 50.938,484.03 46.844,482.31 42.719,480.72 39.469,479.75 38.594,479.41 34.5,478 30.375,476.72 26.25,475.47 22.156,474.44 19.875,473.84 18.031,473.31 " stroke="red" stroke-width="0.96875" stroke-linecap="round" stroke-linejoin="round" />
<polyline points="299.62,521.94 300.5,521.06 302.25,521.06 303.12,521.94 303.12,523.69 302.25,524.56 299.62,524.56 299.62,526.31 303.12,526.31 " stroke="red" stroke-width="0.71875" stroke-linecap="round" stroke-linejoin="round" />
<polyline points="307.5,526.31 305.75,523.69 309.25,523.69 309.25,526.31 309.25,521.06 " stroke="red" stroke-width="0.71875" stroke-linecap="round" stroke-linejoin="round" />
<polyline points="315.38,525.44 314.5,526.31 312.75,526.31 311.88,525.44 311.88,521.94 312.75,521.06 314.5,521.06 315.38,521.94 315.38,522.81 314.5,523.69 311.88,523.69 " stroke="red" stroke-width="0.71875" stroke-linecap="round" stroke-linejoin="round" />
<polygon points="318.88,526.31 318,525.44 318,521.94 318.88,521.06 320.62,521.06 321.5,521.94 321.5,525.44 320.62,526.31 " stroke="red" stroke-width="0.71875" stroke-linejoin="round" />
<polyline points="585.16,568.66 585.09,568.62 581.66,567.12 577.53,565.31 573.44,563.44 569.91,561.84 569.31,561.53 565.19,559.41 561.09,557.16 557.5,555.12 556.97,554.75 552.88,551.91 548.75,548.91 548.16,548.47 544.62,545.59 540.53,542.19 540.16,541.91 536.41,538.66 532.53,535.38 532.28,535.19 528.19,531.84 524.44,528.97 524.06,528.69 519.94,525.56 516.41,522.59 515.84,522.09 511.72,518.31 509.59,516.28 507.59,514.34 503.5,510.28 503.22,510.06 499.38,506.81 495.56,503.88 495.25,503.66 491.16,500.72 487.03,497.78 487,497.75 482.91,494.31 479.97,491.69 478.81,490.66 474.69,486.84 473.41,485.69 470.56,483.09 466.47,479.91 466.25,479.75 462.34,477.09 458.25,474.34 457.47,473.84 454.12,471.62 450,468.81 448.75,468 445.91,466.12 441.78,463.5 439.72,462.19 437.66,460.94 433.56,458.19 430.91,456.47 429.44,455.59 425.31,453.34 421.22,451.41 419.56,450.75 417.09,449.84 412.97,448.53 408.88,447.5 404.75,446.66 400.62,446.19 396.53,445.88 392.41,445.81 388.31,445.97 384.19,446.28 380.06,446.78 375.97,447.53 371.84,448.5 367.72,449.72 364.66,450.75 363.62,451.12 359.5,452.72 355.38,454.47 352,456.47 351.28,457.06 347.16,460.59 345.22,462.19 343.03,464.03 338.94,467.28 338,468 334.81,470.59 330.94,473.84 330.69,474.06 326.59,477.88 324.59,479.75 322.91,481.53 " stroke="red" stroke-width="0.96875" stroke-linecap="round" stroke-linejoin="round" />
<polyline points="314,491 313.38,491.69 310.12,495.34 307.94,497.75 306.03,499.91 301.91,503.88 297.78,507.66 295.12,510.06 293.69,511.44 289.56,515.16 288.09,516.28 285.44,518.41 281.34,521.5 279.75,522.59 277.22,524.38 273.09,527.03 269.41,528.97 269,529.16 264.88,530.97 260.75,532.5 256.66,533.84 252.53,535.09 251.44,535.38 248.41,536.16 244.31,537.03 240.19,537.84 236.06,538.84 231.97,539.78 227.84,540.62 223.72,541.34 219.62,541.88 219.28,541.91 215.5,542.22 211.41,542.41 207.28,542.44 203.16,542.22 199.44,541.91 199.06,541.84 194.94,541.34 190.81,540.75 186.72,540.31 182.59,539.75 178.47,539.03 174.38,538.06 170.25,536.75 167.06,535.38 166.12,534.97 162.03,532.59 157.91,529.5 157.47,528.97 153.78,524.34 152.31,522.59 149.69,519.78 145.56,516.31 145.53,516.28 141.44,513.84 137.34,512.66 133.22,511.72 129.12,510.88 125.69,510.06 125,509.88 120.88,508.38 116.78,506.38 112.72,503.88 112.66,503.81 108.53,500.62 105.34,497.75 104.44,496.97 100.31,493.69 97.375,491.69 96.188,490.91 92.094,488.5 87.969,486.62 85.781,485.69 83.844,484.81 79.75,483.06 75.625,481.38 71.5,480.03 70.625,479.75 67.406,478.59 63.281,477.09 59.188,475.59 55.188,473.84 55.062,473.78 50.938,471.88 46.844,470.12 42.719,468.53 41.062,468 38.594,467.12 34.5,465.78 30.375,464.5 26.25,463.25 22.156,462.25 22.031,462.19 18.031,460.97 " stroke="red" stroke-width="0.96875" stroke-linecap="round" stroke-linejoin="round" />
<polyline points="307.84,484.53 308.72,483.66 310.47,483.66 311.34,484.53 311.34,486.28 310.47,487.16 307.84,487.16 307.84,488.91 311.34,488.91 " stroke="red" stroke-width="0.71875" stroke-linecap="round" stroke-linejoin="round" />
<polyline points="313.97,484.53 314.84,483.66 316.59,483.66 317.47,484.53 317.47,486.28 316.59,487.16 313.97,487.16 313.97,488.91 317.47,488.91 " stroke="red" stroke-width="0.71875" stroke-linecap="round" stroke-linejoin="round" />
<polyline points="320.09,488.03 320.97,488.91 322.72,488.91 323.59,488.03 323.59,487.16 320.09,483.66 323.59,483.66 " stroke="red" stroke-width="0.71875" stroke-linecap="round" stroke-linejoin="round" />
<polygon points="327.09,488.91 326.22,488.03 326.22,484.53 327.09,483.66 328.84,483.66 329.72,484.53 329.72,488.03 328.84,488.91 " stroke="red" stroke-width="0.71875" stroke-linejoin="round" />
<polyline points="594,545.66 589.88,544.31 585.78,543.09 582.81,541.91 581.66,541.41 577.53,539.47 573.44,537.41 569.75,535.38 569.31,535.16 565.19,532.5 561.09,529.75 559.94,528.97 556.97,527 552.88,524.25 550.22,522.59 548.75,521.69 544.62,519.19 540.53,516.81 539.62,516.28 536.41,514.41 532.28,511.97 529.16,510.06 528.19,509.44 524.06,506.62 520.34,503.88 519.94,503.56 515.84,499.59 513.84,497.75 511.72,495.81 507.59,492.31 506.81,491.69 503.5,489.16 499.38,486.56 497.97,485.69 495.25,483.97 491.16,481.25 488.94,479.75 487.03,478.38 482.91,474.97 481.56,473.84 478.81,471.66 474.69,468.53 473.94,468 470.56,465.66 466.47,463.03 465.16,462.19 462.34,460.44 458.25,457.84 456,456.47 454.12,455.31 450,452.94 446.09,450.75 445.91,450.66 441.78,448.34 437.66,446.16 435.69,445.12 433.56,444.03 429.44,442.12 425.31,440.5 422.47,439.5 421.22,439.09 417.09,437.84 412.97,436.75 408.88,435.81 404.75,434.94 400.62,433.97 400.56,433.97 396.53,433.06 392.41,432.41 388.31,432.03 384.19,432.25 380.06,432.78 375.97,433.66 375,433.97 371.84,434.91 367.72,436.62 363.62,438.44 361.28,439.5 359.5,440.28 355.38,442.09 351.28,443.91 348.81,445.12 347.16,445.97 343.03,448.31 339.28,450.75 338.94,451.03 334.81,453.69 330.81,456.47 330.69,456.53 329.28,457.5 " stroke="red" stroke-width="0.96875" stroke-linecap="round" stroke-linejoin="round" />
<polyline points="315.38,466.94 314.25,467.72 313.81,468 310.12,470.69 306.06,473.84 306.03,473.88 301.91,476.81 297.78,479.66 297.69,479.75 293.69,482.22 289.56,484.56 287.25,485.69 285.44,486.56 281.34,488.31 277.22,489.91 273.09,491.34 272.12,491.69 269,492.81 264.88,494.25 260.75,495.78 256.66,497.44 256.06,497.75 252.53,499.62 248.41,501.84 244.69,503.88 244.31,504.06 240.19,506.19 236.06,508.44 232.91,510.06 231.97,510.5 227.84,512.25 223.72,513.72 219.62,514.53 215.5,515.12 211.41,515.53 207.28,515.72 203.16,515.72 199.06,515.56 194.94,515.34 190.81,515.03 186.72,515.06 182.59,514.91 178.47,514.41 174.38,513.41 170.25,511.09 168.81,510.06 166.12,508.03 162.03,504.56 161.19,503.88 157.91,501.62 153.78,499.59 149.69,497.81 149.47,497.75 145.56,496.28 141.44,494.91 137.34,494.16 133.22,493.44 129.12,492.56 126,491.69 125,491.38 120.88,489.16 116.78,486.59 115.38,485.69 112.66,483.84 108.53,481.12 106.12,479.75 104.44,478.75 100.31,476.53 96.188,474.5 94.812,473.84 92.094,472.5 87.969,470.5 83.844,468.59 82.531,468 79.75,466.69 75.625,464.88 71.5,463.38 68.188,462.19 67.406,461.91 63.281,460.41 59.188,458.91 55.062,457.38 52.469,456.47 50.938,455.88 46.844,454.31 42.719,452.81 38.594,451.41 36.562,450.75 34.5,450.03 30.375,448.59 26.25,447.25 22.156,446.19 18.344,445.12 18.031,445.03 " stroke="red" stroke-width="0.96875" stroke-linecap="round" stroke-linejoin="round" />
<polyline points="311.97,460.47 312.84,459.59 314.59,459.59 315.47,460.47 315.47,462.22 314.59,463.09 311.97,463.09 311.97,464.84 315.47,464.84 " stroke="red" stroke-width="0.71875" stroke-linecap="round" stroke-linejoin="round" />
<polyline points="318.09,460.47 318.97,459.59 320.72,459.59 321.59,460.47 321.59,462.22 320.72,463.09 318.09,463.09 318.09,464.84 321.59,464.84 " stroke="red" stroke-width="0.71875" stroke-linecap="round" stroke-linejoin="round" />
<polygon points="325.09,464.84 324.22,463.97 324.22,463.09 325.09,462.22 326.84,462.22 327.72,463.09 327.72,463.97 326.84,464.84 " stroke="red" stroke-width="0.71875" stroke-linejoin="round" />
<polyline points="325.09,462.22 324.22,461.34 324.22,460.47 325.09,459.59 326.84,459.59 327.72,460.47 327.72,461.34 326.84,462.22 " stroke="red" stroke-width="0.71875" stroke-linecap="round" stroke-linejoin="round" />
<polygon points="331.22,464.84 330.34,463.97 330.34,460.47 331.22,459.59 332.97,459.59 333.84,460.47 333.84,463.97 332.97,464.84 " stroke="red" stroke-width="0.71875" stroke-linejoin="round" />
<polyline points="594,512.12 589.88,511.22 585.78,510.56 584.59,510.06 581.66,508.72 577.53,506.78 573.44,504.78 571.56,503.88 569.31,502.69 565.19,500.44 561.09,498.25 560.16,497.75 556.97,496.03 552.88,493.91 548.75,492.16 547.69,491.69 544.62,490.31 540.53,488.34 536.41,486.22 535.5,485.69 532.28,483.69 528.19,481.03 526.22,479.75 524.06,478.38 519.94,475.84 516.53,473.84 515.84,473.44 511.72,471.06 507.59,468.75 506.25,468 503.5,466.41 499.38,464.12 496,462.19 495.25,461.78 491.16,459.31 487.03,456.88 486.34,456.47 482.91,454.28 478.81,451.78 477.03,450.75 474.69,449.41 470.56,447.12 466.78,445.12 466.47,444.97 462.34,442.81 458.25,440.81 455.5,439.5 454.12,438.84 450,436.72 445.91,434.62 444.5,433.97 441.78,432.53 437.66,430.56 433.56,429.06 431.62,428.44 429.44,427.72 425.31,426.5 421.22,425.44 417.09,424.34 412.97,423.31 411.41,422.97 408.88,422.34 404.75,421.47 400.62,420.75 396.53,420.22 392.41,419.88 388.31,419.72 384.19,419.84 380.06,420.12 375.97,420.66 371.84,421.41 367.72,422.69 366.97,422.97 363.62,424.22 359.5,426.09 355.38,428.28 355,428.44 351.28,429.88 347.16,431.47 343.03,433.06 340.72,433.97 338.94,434.53 334.81,436 330.69,437.56 326.59,439.22 325.88,439.5 323.59,440.41 " stroke="red" stroke-width="0.96875" stroke-linecap="round" stroke-linejoin="round" />
<polyline points="296.66,449.41 293.69,450.44 292.84,450.75 289.56,452 285.44,453.94 281.34,455.94 280.34,456.47 277.22,458 273.09,460 269,462.06 268.69,462.19 264.88,463.94 260.75,465.72 256.66,467.41 255.28,468 252.53,469.19 248.41,471.06 244.31,472.97 242.44,473.84 240.19,474.94 236.06,476.75 231.97,478.53 228.94,479.75 227.84,480.22 223.72,481.88 219.62,482.97 215.5,483.78 211.41,484.34 207.28,484.69 203.16,485.06 199.06,485.31 194.94,485.47 190.81,485.5 186.81,485.69 185.97,485.69 182.59,485.66 178.47,485.34 174.38,484.66 170.25,483.12 166.12,481.5 162.03,479.94 161.53,479.75 157.91,478.22 153.78,476.5 149.69,474.84 147.06,473.84 145.56,473.28 141.44,471.84 137.34,471.03 133.22,470.22 129.12,469.25 125,468.09 124.81,468 120.88,466.09 116.78,464 113.31,462.19 112.66,461.88 108.53,459.75 104.44,457.81 101.56,456.47 100.31,455.84 96.188,453.81 92.094,451.72 90.25,450.75 87.969,449.5 83.844,447.19 79.969,445.12 79.75,445 75.625,442.84 71.5,441.41 67.406,440.16 65,439.5 63.281,439.03 59.188,437.84 55.062,436.06 50.938,434.12 50.594,433.97 46.844,432.12 42.719,430.12 38.594,428.47 38.531,428.44 34.5,426.78 30.375,425.06 26.25,423.34 25.062,422.97 22.156,421.94 18.031,420.47 " stroke="red" stroke-width="0.96875" stroke-linecap="round" stroke-linejoin="round" />
<polyline points="299.62,443.25 300.5,442.38 302.25,442.38 303.12,443.25 303.12,445 302.25,445.88 299.62,445.88 299.62,447.62 303.12,447.62 " stroke="red" stroke-width="0.71875" stroke-linecap="round" stroke-linejoin="round" />
<polyline points="309.25,446.75 308.38,447.62 306.62,447.62 305.75,446.75 305.75,443.25 306.62,442.38 308.38,442.38 309.25,443.25 309.25,444.12 308.38,445 305.75,445 " stroke="red" stroke-width="0.71875" stroke-linecap="round" stroke-linejoin="round" />
<polyline points="313.62,447.62 311.88,445 315.38,445 315.38,447.62 315.38,442.38 " stroke="red" stroke-width="0.71875" stroke-linecap="round" stroke-linejoin="round" />
<polygon points="318.88,447.62 318,446.75 318,443.25 318.88,442.38 320.62,442.38 321.5,443.25 321.5,446.75 320.62,447.62 " stroke="red" stroke-width="0.71875" stroke-linejoin="round" />
<polyline points="594,457.72 589.88,457.84 585.78,458.12 581.66,458.5 577.53,458.75 573.44,458.81 569.31,458.62 565.19,457.62 561.28,456.47 561.09,456.41 556.97,455.06 552.88,453.72 548.75,452.66 544.62,451.59 541.5,450.75 540.53,450.5 536.41,449.34 532.28,448.22 528.19,447.06 524.06,445.84 521.88,445.12 519.94,444.47 515.84,442.75 511.72,440.88 508.84,439.5 507.59,438.91 503.5,436.91 499.38,435.06 496.88,433.97 495.25,433.31 491.16,431.66 487.03,430.06 482.91,428.62 482.41,428.44 478.81,427.19 474.69,425.75 470.56,424.34 467.03,422.97 466.47,422.75 462.34,421 458.25,419.22 454.34,417.53 454.12,417.44 450,415.66 445.91,414.06 441.78,412.72 439.78,412.16 437.66,411.5 433.56,410.47 429.44,409.5 425.31,408.56 421.22,407.62 418.28,406.78 417.09,406.41 412.97,405.12 408.88,403.94 404.75,402.97 400.62,402.56 396.53,402.34 392.41,402.28 388.31,402.28 384.19,402.16 380.06,402.06 375.97,402.06 371.84,402.16 367.72,402.41 363.62,402.81 359.5,403.41 355.38,404.16 351.28,405.19 347.16,406.38 345.81,406.78 343.03,407.56 338.94,408.78 334.81,409.91 330.69,411.06 326.62,412.16 326.59,412.16 322.47,413.19 318.34,414.12 314.25,415.03 311.25,415.72 " stroke="red" stroke-width="0.96875" stroke-linecap="round" stroke-linejoin="round" />
<polyline points="284.31,423.97 281.34,425.12 277.22,426.91 274,428.44 273.09,428.88 269,431.09 264.88,433.41 263.91,433.97 260.75,435.84 256.66,438.28 254.44,439.5 252.53,440.56 248.41,442.66 244.31,444.66 243.25,445.12 240.19,446.44 236.06,448.03 231.97,449.5 228.12,450.75 227.84,450.84 223.72,452.06 219.62,453.28 215.5,454.34 211.41,455.19 207.28,455.88 203.16,456.25 199.06,456.44 194.94,456.44 190.81,456.22 186.72,455.72 182.59,455.12 178.47,454.44 174.38,453.69 170.25,453.06 166.12,452.38 162.03,451.66 157.91,450.84 157.59,450.75 153.78,449.78 149.69,448.66 145.56,447.5 141.44,446.31 137.34,445.44 135.91,445.12 133.22,444.5 129.12,443.47 125,442.28 120.88,440.75 117.91,439.5 116.78,439.03 112.66,437.12 108.53,435.09 106.47,433.97 104.44,432.72 100.31,430.19 97.469,428.44 96.188,427.66 92.094,425.19 87.969,423.16 87.531,422.97 83.844,421.41 79.75,419.91 75.625,418.59 72.125,417.53 71.5,417.34 67.406,415.97 63.281,414.47 59.188,412.75 57.875,412.16 55.062,410.84 50.938,409 46.844,407.22 45.812,406.78 42.719,405.5 38.594,403.47 34.719,401.47 34.5,401.38 30.375,399.19 26.25,397 24.406,396.22 22.156,395.22 18.031,393.44 " stroke="red" stroke-width="0.96875" stroke-linecap="round" stroke-linejoin="round" />
<polyline points="287.28,417.62 288.16,416.75 289.91,416.75 290.78,417.62 290.78,419.38 289.91,420.25 287.28,420.25 287.28,422 290.78,422 " stroke="red" stroke-width="0.71875" stroke-linecap="round" stroke-linejoin="round" />
<polyline points="293.41,422 296.91,422 295.16,416.75 " stroke="red" stroke-width="0.71875" stroke-linecap="round" stroke-linejoin="round" />
<polygon points="300.41,422 299.53,421.12 299.53,417.62 300.41,416.75 302.16,416.75 303.03,417.62 303.03,421.12 302.16,422 " stroke="red" stroke-width="0.71875" stroke-linejoin="round" />
<polygon points="306.53,422 305.66,421.12 305.66,417.62 306.53,416.75 308.28,416.75 309.16,417.62 309.16,421.12 308.28,422 " stroke="red" stroke-width="0.71875" stroke-linejoin="round" />
<polyline points="594,357.03 592.94,360.25 591.28,365.28 589.88,369.72 589.66,370.38 587.84,375.47 585.88,380.59 585.78,380.84 583.31,385.78 581.66,388.66 580.06,390.97 577.53,394.12 575.5,396.22 573.44,398.09 569.31,401 568.22,401.47 565.19,402.72 561.09,403.81 556.97,404.44 552.88,404.75 548.75,404.91 544.62,404.94 540.53,404.81 536.41,404.59 532.28,404.38 528.19,404.12 524.06,403.78 519.94,403.41 515.84,403.06 511.72,402.66 507.59,402.16 503.5,401.56 503.12,401.47 499.38,400.75 495.25,399.91 491.16,399.03 487.03,398.16 482.91,397.31 478.81,396.38 478.16,396.22 474.69,395.28 470.56,394.09 466.47,392.78 462.34,391.47 460.72,390.97 458.25,390.12 454.12,388.81 450,387.62 445.91,386.44 443.56,385.78 441.78,385.19 437.66,383.84 433.56,382.44 429.44,381.03 428.22,380.59 425.31,379.53 421.22,378.03 417.09,376.66 413.38,375.47 412.97,375.34 408.88,373.94 404.75,372.56 400.62,370.75 399.81,370.38 396.53,368.72 392.41,366.72 389.28,365.28 388.31,364.81 384.19,363.47 380.06,362.12 375.97,360.62 375.03,360.25 371.84,358.75 367.72,355.75 367.09,355.25 363.62,352.12 361.66,350.28 359.5,348.75 355.38,346.03 353.75,345.31 351.28,344.22 347.16,342.34 343.69,340.41 343.03,340 338.94,337.03 337.59,335.5 334.81,332.72 332.41,330.66 330.69,329.62 326.59,327.91 322.47,327.06 318.34,327.66 316.25,328.53 " stroke="red" stroke-width="0.96875" stroke-linecap="round" stroke-linejoin="round" />
<polyline points="307.66,337.97 306.59,340.41 306.03,342.53 305.47,345.31 304.91,350.28 305.41,355.25 306.03,359.62 306.12,360.25 306.75,365.28 306.66,370.38 306.03,371.66 303.81,375.47 301.91,377.53 298.78,380.59 297.78,381.31 293.69,384.19 291.31,385.78 289.56,386.75 285.44,389.03 281.88,390.97 281.34,391.22 277.22,393.22 273.09,395.25 271.41,396.22 269,397.5 264.88,399.78 261.94,401.47 260.75,402.12 256.66,404.34 252.53,406.12 250.84,406.78 248.41,407.72 244.31,409.28 240.19,410.84 237.81,412.16 236.06,413.12 231.97,415.31 227.84,417.31 227.28,417.53 223.72,418.88 219.62,419.56 215.5,420 211.41,420.28 207.28,420.44 203.16,420.91 199.06,421.25 194.94,421.44 190.81,421.47 186.72,421.22 182.59,420.81 178.47,420.38 174.38,419.88 170.25,419.91 166.12,419.91 162.03,419.84 157.91,419.62 153.78,418.81 149.69,417.84 148.56,417.53 145.56,416.72 141.44,415.5 137.34,414.41 133.22,413.19 129.97,412.16 129.12,411.84 125,410.38 120.88,408.69 116.78,406.97 116.34,406.78 112.66,405.25 108.53,403.56 104.44,402.09 102.59,401.47 100.31,400.78 96.188,399.56 92.094,398.41 87.969,397.06 85.562,396.22 83.844,395.56 79.75,393.88 75.625,392.06 73.094,390.97 71.5,390.31 67.406,388.75 63.281,387.28 59.188,385.94 58.531,385.78 55.062,384.88 50.938,383.75 46.844,382.5 42.719,381.03 41.781,380.59 38.594,379.12 34.5,377.25 30.406,375.47 30.375,375.44 26.25,373.72 22.156,372.03 18.125,370.38 18.031,370.31 " stroke="red" stroke-width="0.96875" stroke-linecap="round" stroke-linejoin="round" />
<polyline points="299.62,331.5 300.5,330.62 302.25,330.62 303.12,331.5 303.12,333.25 302.25,334.12 299.62,334.12 299.62,335.88 303.12,335.88 " stroke="red" stroke-width="0.71875" stroke-linecap="round" stroke-linejoin="round" />
<polyline points="305.75,335.88 309.25,335.88 307.5,330.62 " stroke="red" stroke-width="0.71875" stroke-linecap="round" stroke-linejoin="round" />
<polyline points="315.38,335 314.5,335.88 312.75,335.88 311.88,335 311.88,331.5 312.75,330.62 314.5,330.62 315.38,331.5 315.38,332.38 314.5,333.25 311.88,333.25 " stroke="red" stroke-width="0.71875" stroke-linecap="round" stroke-linejoin="round" />
<polygon points="318.88,335.88 318,335 318,331.5 318.88,330.62 320.62,330.62 321.5,331.5 321.5,335 320.62,335.88 " stroke="red" stroke-width="0.71875" stroke-linejoin="round" />
<polyline points="560.72,247 560.66,247.03 556.97,249.28 553.5,251.5 552.88,252 548.75,254.94 547.28,256 544.62,258.62 542.75,260.5 540.53,263.47 539.31,265.03 536.78,269.59 536.41,270.53 534.84,274.16 533.72,278.75 533.31,283.34 533.47,287.97 534.06,292.62 535.09,297.31 536.12,302 536.41,303.41 536.97,306.72 537.62,311.44 538.09,316.22 538.31,321 538.22,325.81 537.72,330.66 536.59,335.5 536.41,336 534,340.41 532.28,342.44 528.62,345.31 528.19,345.59 524.06,347 519.94,347.53 515.84,347.16 511.72,346.31 508.19,345.31 507.59,345.12 503.5,343.62 499.38,342.12 495.25,340.59 494.75,340.41 491.16,338.94 487.03,337.44 482.91,336.56 478.81,335.84 476.88,335.5 474.69,335.12 470.56,334.41 466.47,333.31 462.34,332.22 458.25,331.19 455.94,330.66 454.12,330.19 450,329.59 445.91,329.09 441.78,328.53 437.66,327.88 433.56,326.75 430.22,325.81 429.44,325.59 425.31,324.38 421.22,323.16 417.09,322.12 413.41,321 412.97,320.84 408.88,319.03 404.75,316.91 403.25,316.22 400.62,315.09 396.53,313.56 392.41,312.22 390.22,311.44 388.31,310.69 384.19,307.75 382.88,306.72 380.06,304.25 377.5,302 375.97,300.56 372.16,297.31 371.84,297.03 367.72,294.59 363.75,292.62 363.62,292.56 359.5,290.56 355.38,288.78 353.66,287.97 351.28,286.91 347.16,285.41 343.03,284.31 338.94,283.59 336.47,283.34 336.25,283.34 " stroke="red" stroke-width="0.96875" stroke-linecap="round" stroke-linejoin="round" />
<polyline points="309.31,285.25 306.03,286.09 301.91,287.84 301.66,287.97 297.78,290.06 293.91,292.62 293.69,292.81 289.56,296.31 288.66,297.31 285.44,301.19 284.84,302 281.75,306.72 281.34,307.47 279.16,311.44 277.28,316.22 277.22,316.38 275.56,321 273.91,325.81 273.09,328.19 272.09,330.66 269.91,335.5 269,337.31 267.16,340.41 264.88,343.69 263.53,345.31 260.75,348.25 258.44,350.28 256.66,351.78 252.53,354.53 251.28,355.25 248.41,356.78 244.31,358.72 240.62,360.25 240.19,360.44 236.06,362.22 231.97,363.78 227.84,365.12 227.25,365.28 223.72,366.31 219.62,367.38 215.5,368.47 211.41,369.59 208.81,370.38 207.28,370.78 203.16,371.97 199.06,373.22 194.94,374.5 192,375.47 190.81,375.84 186.72,377.25 182.59,378.62 178.47,379.88 175.69,380.59 174.38,380.94 170.25,381.59 166.12,382 162.03,382.16 157.91,382.03 153.78,381.62 149.69,381.03 147.31,380.59 145.56,380.28 141.44,379.41 137.34,378.28 133.22,377.03 129.12,375.66 128.53,375.47 125,374.28 120.88,373.09 116.78,372.03 112.66,371 109.81,370.38 108.53,370.09 104.44,369.34 100.31,368.59 96.188,367.81 92.094,366.94 87.969,365.97 85.219,365.28 83.844,364.94 79.75,363.88 75.625,362.75 71.5,361.62 67.406,360.47 66.656,360.25 63.281,359.22 59.188,357.91 55.062,356.56 50.938,355.25 50.906,355.25 46.844,353.94 42.719,352.69 38.594,351.62 34.5,350.53 33.594,350.28 30.375,349.28 26.25,347.91 22.156,346.31 19.719,345.31 18.031,344.59 " stroke="red" stroke-width="0.96875" stroke-linecap="round" stroke-linejoin="round" />
<polyline points="312.28,281.59 313.16,280.72 314.91,280.72 315.78,281.59 315.78,283.34 314.91,284.22 312.28,284.22 312.28,285.97 315.78,285.97 " stroke="red" stroke-width="0.71875" stroke-linecap="round" stroke-linejoin="round" />
<polygon points="319.28,285.97 318.41,285.09 318.41,284.22 319.28,283.34 321.03,283.34 321.91,284.22 321.91,285.09 321.03,285.97 " stroke="red" stroke-width="0.71875" stroke-linejoin="round" />
<polyline points="319.28,283.34 318.41,282.47 318.41,281.59 319.28,280.72 321.03,280.72 321.91,281.59 321.91,282.47 321.03,283.34 " stroke="red" stroke-width="0.71875" stroke-linecap="round" stroke-linejoin="round" />
<polyline points="324.53,285.09 325.41,285.97 327.16,285.97 328.03,285.09 328.03,284.22 324.53,280.72 328.03,280.72 " stroke="red" stroke-width="0.71875" stroke-linecap="round" stroke-linejoin="round" />
<polygon points="331.53,285.97 330.66,285.09 330.66,281.59 331.53,280.72 333.28,280.72 334.16,281.59 334.16,285.09 333.28,285.97 " stroke="red" stroke-width="0.71875" stroke-linejoin="round" />
<polyline points="23.5,250.22 22.156,251.25 21.75,251.5 18.031,253.72 " stroke="red" stroke-width="0.96875" stroke-linecap="round" stroke-linejoin="round" />
<polyline points="19.875,247 19.875,248.12 23.375,248.12 " stroke="red" stroke-width="0.71875" stroke-linecap="round" stroke-linejoin="round" />
<polyline points="26.875,248.12 26,247.25 26,247 " stroke="red" stroke-width="0.71875" stroke-linecap="round" stroke-linejoin="round" />
<polyline points="29.5,247 29.5,247.25 28.625,248.12 26.875,248.12 " stroke="red" stroke-width="0.71875" stroke-linecap="round" stroke-linejoin="round" />
<polyline points="33,248.12 32.125,247.25 32.125,247 " stroke="red" stroke-width="0.71875" stroke-linecap="round" stroke-linejoin="round" />
<polyline points="35.625,247 35.625,247.25 34.75,248.12 33,248.12 " stroke="red" stroke-width="0.71875" stroke-linecap="round" stroke-linejoin="round" />
<polyline points="39.125,248.12 38.25,247.25 38.25,247 " stroke="red" stroke-width="0.71875" stroke-linecap="round" stroke-linejoin="round" />
<polyline points="41.75,247 41.75,247.25 40.875,248.12 39.125,248.12 " stroke="red" stroke-width="0.71875" stroke-linecap="round" stroke-linejoin="round" />
<polyline points="247.28,247 247.28,247.03 246.41,251.5 245.09,256 244.31,258.12 243.47,260.5 241.69,265.03 240.19,268.88 239.88,269.59 237.59,274.16 236.06,277.75 235.66,278.75 233.56,283.34 231.97,286.72 231.38,287.97 228.84,292.62 227.84,294.12 225.69,297.31 223.72,299.78 221.81,302 219.62,304.06 216.31,306.72 215.5,307.22 211.41,309.38 207.28,311 205.31,311.44 203.16,311.84 199.06,312.53 194.94,313.22 190.81,314.12 186.72,315.88 186.06,316.22 182.59,317.84 178.47,319.97 176.56,321 174.38,322.06 170.25,324.03 166.28,325.81 166.12,325.88 164.72,326.41 " stroke="red" stroke-width="0.96875" stroke-linecap="round" stroke-linejoin="round" />
<polyline points="137.78,332.06 137.34,332.06 133.22,331.62 129.12,330.94 127.72,330.66 125,330.12 120.88,329.34 116.78,328.41 112.66,327.34 108.53,326.16 107.22,325.81 104.44,324.91 100.31,323.53 96.188,322.06 93.094,321 92.094,320.59 87.969,319.09 83.844,317.84 79.75,316.81 77.125,316.22 75.625,315.84 71.5,314.84 67.406,313.84 63.281,312.78 59.188,311.59 58.812,311.44 55.062,309.41 50.938,307.38 49.438,306.72 46.844,305.41 42.719,303.69 38.594,302.12 38.281,302 34.5,300.28 30.375,298.41 27.938,297.31 26.25,296.31 22.156,293.81 19.812,292.62 18.031,290.88 " stroke="red" stroke-width="0.96875" stroke-linecap="round" stroke-linejoin="round" />
<polyline points="140.75,328.91 141.62,328.03 143.38,328.03 144.25,328.91 144.25,330.66 143.38,331.53 140.75,331.53 140.75,333.28 144.25,333.28 " stroke="red" stroke-width="0.71875" stroke-linecap="round" stroke-linejoin="round" />
<polygon points="147.75,333.28 146.88,332.41 146.88,331.53 147.75,330.66 149.5,330.66 150.38,331.53 150.38,332.41 149.5,333.28 " stroke="red" stroke-width="0.71875" stroke-linejoin="round" />
<polyline points="147.75,330.66 146.88,329.78 146.88,328.91 147.75,328.03 149.5,328.03 150.38,328.91 150.38,329.78 149.5,330.66 " stroke="red" stroke-width="0.71875" stroke-linecap="round" stroke-linejoin="round" />
<polygon points="153.88,333.28 153,332.41 153,331.53 153.88,330.66 155.62,330.66 156.5,331.53 156.5,332.41 155.62,333.28 " stroke="red" stroke-width="0.71875" stroke-linejoin="round" />
<polyline points="153.88,330.66 153,329.78 153,328.91 153.88,328.03 155.62,328.03 156.5,328.91 156.5,329.78 155.62,330.66 " stroke="red" stroke-width="0.71875" stroke-linecap="round" stroke-linejoin="round" />
<polygon points="160,333.28 159.12,332.41 159.12,328.91 160,328.03 161.75,328.03 162.62,328.91 162.62,332.41 161.75,333.28 " stroke="red" stroke-width="0.71875" stroke-linejoin="round" />
</g>
</svg>
