<?xml version="1.0" encoding="ISO-8859-1" standalone="no"?>
<!DOCTYPE svg PUBLIC "-//W3C//DTD SVG 1.1//EN" "http://www.w3.org/Graphics/SVG/1.1/DTD/svg11.dtd">
<svg version="1.1" baseProfile="full" id="body" width="900px" height="600px" viewBox="0 0.2 1 0.55" preserveAspectRatio="none" xmlns="http://www.w3.org/2000/svg" xmlns:xlink="http://www.w3.org/1999/xlink" xmlns:ev="http://www.w3.org/2001/xml-events">
<title>SVG drawing</title>
<desc>This was produced by version 4.2 of GNU libplot, a free library for exporting 2-D vector graphics.</desc>
<rect id="background" x="0" y="0" width="1" height="1" stroke="none" fill="none"/>
<g id="content" transform="translate(-0.03125,1.1875) scale(1,-1) scale(0.0017361) " xml:space="preserve" stroke="black" stroke-linecap="butt" stroke-linejoin="miter" stroke-miterlimit="10.433" stroke-dasharray="none" stroke-dashoffset="0" stroke-opacity="1" fill="none" fill-rule="even-odd" fill-opacity="1" font-style="normal" font-variant="normal" font-weight="normal" font-stretch="normal" font-size-adjust="none" letter-spacing="normal" word-spacing="normal" text-anchor="start">
<polyline points="314.78,568.66 314.78,568.62 314.41,561.84 316.41,555.12 318.34,551.69 320.62,548.47 322.47,546.94 325.47,545.16 " stroke="red" stroke-width="0.96875" stroke-linecap="round" stroke-linejoin="round" />
<polyline points="352.41,547.09 355.28,548.47 355.38,548.53 359.5,551.66 363.62,555.09 363.62,555.12 367.72,561.25 368.09,561.84 369.84,568.62 369.84,568.66 " stroke="red" stroke-width="0.96875" stroke-linecap="round" stroke-linejoin="round" />
<polyline points="328.44,541.12 329.31,540.25 331.06,540.25 331.94,541.12 331.94,542.88 331.06,543.75 328.44,543.75 328.44,545.5 331.94,545.5 " stroke="red" stroke-width="0.71875" stroke-linecap="round" stroke-linejoin="round" />
<polyline points="334.56,544.62 335.44,545.5 337.19,545.5 338.06,544.62 338.06,543.75 334.56,540.25 338.06,540.25 " stroke="red" stroke-width="0.71875" stroke-linecap="round" stroke-linejoin="round" />
<polyline points="340.69,544.62 341.56,545.5 343.31,545.5 344.19,544.62 344.19,543.75 340.69,540.25 344.19,540.25 " stroke="red" stroke-width="0.71875" stroke-linecap="round" stroke-linejoin="round" />
<polygon points="347.69,545.5 346.81,544.62 346.81,541.12 347.69,540.25 349.44,540.25 350.31,541.12 350.31,544.62 349.44,545.5 " stroke="red" stroke-width="0.71875" stroke-linejoin="round" />
<polyline points="30.75,568.66 30.75,568.62 30.375,567.41 28.781,561.84 26.5,555.12 26.25,554.47 24.125,548.47 24.125,548.41 " stroke="red" stroke-width="0.96875" stroke-linecap="round" stroke-linejoin="round" />
<polyline points="20.625,538.97 19.5,535.38 18.031,529.53 " stroke="red" stroke-width="0.96875" stroke-linecap="round" stroke-linejoin="round" />
<polyline points="18.031,545.69 18.656,546.31 20.406,546.31 21.281,545.44 21.281,544.56 18.031,541.31 " stroke="red" stroke-width="0.71875" stroke-linecap="round" stroke-linejoin="round" />
<line x1="18.031" y1="541.06" x2="21.281" y2="541.06" stroke="red" stroke-width="0.71875" stroke-linecap="round" />
<polygon points="24.781,546.31 23.906,545.44 23.906,544.56 24.781,543.69 26.531,543.69 27.406,544.56 27.406,545.44 26.531,546.31 " stroke="red" stroke-width="0.71875" stroke-linejoin="round" />
<polyline points="24.781,543.69 23.906,542.81 23.906,541.94 24.781,541.06 26.531,541.06 27.406,541.94 27.406,542.81 26.531,543.69 " stroke="red" stroke-width="0.71875" stroke-linecap="round" stroke-linejoin="round" />
<polygon points="30.906,546.31 30.031,545.44 30.031,541.94 30.906,541.06 32.656,541.06 33.531,541.94 33.531,545.44 32.656,546.31 " stroke="red" stroke-width="0.71875" stroke-linejoin="round" />
<polyline points="290.06,568.66 290.06,568.62 290.12,561.84 291.22,555.12 293.53,548.47 293.69,548.16 296.72,541.91 297.78,540.19 300.91,535.38 301.91,534.16 306.03,529.56 306.72,528.97 310.12,526.94 314.25,525 318.34,523.5 321.88,522.59 322.47,522.47 325.47,522.06 " stroke="red" stroke-width="0.96875" stroke-linecap="round" stroke-linejoin="round" />
<polyline points="352.41,526.41 355.38,527.5 359.5,528.97 363.62,531.12 367.72,533.56 370.47,535.38 371.84,536.47 375.97,540.22 377.72,541.91 380.06,544.38 383.97,548.47 384.19,548.72 388.31,553.88 389.16,555.12 392.12,561.84 392.41,562.88 394.09,568.62 394.09,568.66 " stroke="red" stroke-width="0.96875" stroke-linecap="round" stroke-linejoin="round" />
<polyline points="328.44,520.66 329.31,519.78 331.06,519.78 331.94,520.66 331.94,522.41 331.06,523.28 328.44,523.28 328.44,525.03 331.94,525.03 " stroke="red" stroke-width="0.71875" stroke-linecap="round" stroke-linejoin="round" />
<polyline points="334.56,524.16 335.44,525.03 337.19,525.03 338.06,524.16 338.06,523.28 334.56,519.78 338.06,519.78 " stroke="red" stroke-width="0.71875" stroke-linecap="round" stroke-linejoin="round" />
<polygon points="341.56,525.03 340.69,524.16 340.69,523.28 341.56,522.41 343.31,522.41 344.19,523.28 344.19,524.16 343.31,525.03 " stroke="red" stroke-width="0.71875" stroke-linejoin="round" />
<polyline points="341.56,522.41 340.69,521.53 340.69,520.66 341.56,519.78 343.31,519.78 344.19,520.66 344.19,521.53 343.31,522.41 " stroke="red" stroke-width="0.71875" stroke-linecap="round" stroke-linejoin="round" />
<polygon points="347.69,525.03 346.81,524.16 346.81,520.66 347.69,519.78 349.44,519.78 350.31,520.66 350.31,524.16 349.44,525.03 " stroke="red" stroke-width="0.71875" stroke-linejoin="round" />
<polyline points="59.875,568.66 59.875,568.62 59.188,566.03 57.688,561.84 55.062,555.53 54.875,555.12 51.75,548.47 50.938,546.84 48.781,541.91 46.844,537.66 45.875,535.38 45,533.69 " stroke="red" stroke-width="0.96875" stroke-linecap="round" stroke-linejoin="round" />
<polyline points="36.844,524.22 35,522.59 34.5,522.16 30.375,517.72 29.375,516.28 26.25,511.78 25.281,510.06 22.156,504.56 21.812,503.88 18.031,499.12 " stroke="red" stroke-width="0.96875" stroke-linecap="round" stroke-linejoin="round" />
<polyline points="32.156,527.22 33.031,526.34 34.781,526.34 35.656,527.22 35.656,528.97 34.781,529.84 32.156,529.84 32.156,531.59 35.656,531.59 " stroke="red" stroke-width="0.71875" stroke-linecap="round" stroke-linejoin="round" />
<polyline points="38.281,530.72 39.156,531.59 40.906,531.59 41.781,530.72 41.781,529.84 40.906,528.97 40.031,528.97 40.906,528.97 41.781,528.09 41.781,527.22 40.906,526.34 39.156,526.34 38.281,527.22 " stroke="red" stroke-width="0.71875" stroke-linecap="round" stroke-linejoin="round" />
<polyline points="46.156,531.59 44.406,528.97 47.906,528.97 47.906,531.59 47.906,526.34 " stroke="red" stroke-width="0.71875" stroke-linecap="round" stroke-linejoin="round" />
<polygon points="51.406,531.59 50.531,530.72 50.531,527.22 51.406,526.34 53.156,526.34 54.031,527.22 54.031,530.72 53.156,531.59 " stroke="red" stroke-width="0.71875" stroke-linejoin="round" />
<polyline points="268.91,568.66 268.91,568.62 269,568.38 270.59,561.84 272.59,555.12 273.09,553.88 275.09,548.47 277.22,543.94 278.19,541.91 281.34,536.47 281.97,535.38 285.44,530.62 286.72,528.97 289.56,525.75 292.5,522.59 293.69,521.53 297.78,518.31 301,516.28 301.91,515.78 306.03,513.88 310.12,512.38 314.25,511.16 318.34,510.22 319.28,510.06 322.47,509.53 325.47,509.25 " stroke="red" stroke-width="0.96875" stroke-linecap="round" stroke-linejoin="round" />
<polyline points="352.41,514.12 355.38,515.28 358.19,516.28 359.5,516.78 363.62,518.41 367.72,520.22 371.84,522.22 372.41,522.59 375.97,525 380.06,528.16 381.03,528.97 384.19,531.91 387.88,535.38 388.31,535.81 392.41,540.19 393.94,541.91 396.53,545.12 399.12,548.47 400.62,550.75 403.56,555.12 404.75,557.56 407.19,561.84 408.88,565.31 410.59,568.62 410.59,568.66 " stroke="red" stroke-width="0.96875" stroke-linecap="round" stroke-linejoin="round" />
<polyline points="328.44,507.94 329.31,507.06 331.06,507.06 331.94,507.94 331.94,509.69 331.06,510.56 328.44,510.56 328.44,512.31 331.94,512.31 " stroke="red" stroke-width="0.71875" stroke-linecap="round" stroke-linejoin="round" />
<polyline points="334.56,511.44 335.44,512.31 337.19,512.31 338.06,511.44 338.06,510.56 337.19,509.69 336.31,509.69 337.19,509.69 338.06,508.81 338.06,507.94 337.19,507.06 335.44,507.06 334.56,507.94 " stroke="red" stroke-width="0.71875" stroke-linecap="round" stroke-linejoin="round" />
<polyline points="342.44,512.31 340.69,509.69 344.19,509.69 344.19,512.31 344.19,507.06 " stroke="red" stroke-width="0.71875" stroke-linecap="round" stroke-linejoin="round" />
<polygon points="347.69,512.31 346.81,511.44 346.81,507.94 347.69,507.06 349.44,507.06 350.31,507.94 350.31,511.44 349.44,512.31 " stroke="red" stroke-width="0.71875" stroke-linejoin="round" />
<polyline points="89.062,568.66 89.031,568.62 87.969,567.72 83.844,563.66 82.312,561.84 79.75,558.09 78.125,555.12 76.781,548.47 75.875,541.91 75.625,540.34 74.438,535.38 71.5,530.28 71.188,529.94 " stroke="red" stroke-width="0.96875" stroke-linecap="round" stroke-linejoin="round" />
<polyline points="57.25,520.5 55.062,518 53.531,516.28 50.938,513.81 46.844,510.19 46.688,510.06 42.719,506.88 39.094,503.88 38.594,503.41 34.5,499.28 33.094,497.75 30.375,494.97 27.375,491.69 26.25,490.59 22.156,486.88 20.906,485.69 18.031,483 " stroke="red" stroke-width="0.96875" stroke-linecap="round" stroke-linejoin="round" />
<polyline points="52.781,523.47 53.656,522.59 55.406,522.59 56.281,523.47 56.281,525.22 55.406,526.09 52.781,526.09 52.781,527.84 56.281,527.84 " stroke="red" stroke-width="0.71875" stroke-linecap="round" stroke-linejoin="round" />
<polyline points="60.656,527.84 58.906,525.22 62.406,525.22 62.406,527.84 62.406,522.59 " stroke="red" stroke-width="0.71875" stroke-linecap="round" stroke-linejoin="round" />
<polygon points="65.906,527.84 65.031,526.97 65.031,523.47 65.906,522.59 67.656,522.59 68.531,523.47 68.531,526.97 67.656,527.84 " stroke="red" stroke-width="0.71875" stroke-linejoin="round" />
<polygon points="72.031,527.84 71.156,526.97 71.156,523.47 72.031,522.59 73.781,522.59 74.656,523.47 74.656,526.97 73.781,527.84 " stroke="red" stroke-width="0.71875" stroke-linejoin="round" />
<polyline points="230.62,568.66 230.66,568.62 231.97,567.28 236.06,562.19 236.34,561.84 240.19,556.59 241.28,555.12 244.31,551.41 246.56,548.47 248.41,546.28 251.84,541.91 252.53,541.09 256.66,535.91 257,535.38 260.75,530.34 261.78,528.97 264.88,524.91 266.66,522.59 269,519.94 272.34,516.28 273.09,515.59 277.22,512.09 280,510.06 281.34,509.19 285.44,506.88 289.56,504.91 292.16,503.88 293.69,503.28 297.78,501.88 301.91,500.69 306.03,499.75 310.12,498.88 313.12,498.41 " stroke="red" stroke-width="0.96875" stroke-linecap="round" stroke-linejoin="round" />
<polyline points="340.06,498.62 343.03,499.44 347.16,500.84 351.28,502.47 354.41,503.88 355.38,504.25 359.5,505.78 363.62,507.34 367.72,509.03 370.06,510.06 371.84,510.81 375.97,512.97 380.06,515.47 381.31,516.28 384.19,518.28 388.31,521.53 389.59,522.59 392.41,525.03 396.53,528.94 396.53,528.97 400.62,533 403,535.38 404.75,537.31 408.88,541.44 409.31,541.91 412.97,545.94 415.25,548.47 417.09,550.75 420.62,555.12 421.22,555.97 425.31,561.41 425.66,561.84 429.44,566.81 430.91,568.62 430.94,568.66 " stroke="red" stroke-width="0.96875" stroke-linecap="round" stroke-linejoin="round" />
<polyline points="316.09,495.59 316.97,494.72 318.72,494.72 319.59,495.59 319.59,497.34 318.72,498.22 316.09,498.22 316.09,499.97 319.59,499.97 " stroke="red" stroke-width="0.71875" stroke-linecap="round" stroke-linejoin="round" />
<polyline points="323.97,499.97 322.22,497.34 325.72,497.34 325.72,499.97 325.72,494.72 " stroke="red" stroke-width="0.71875" stroke-linecap="round" stroke-linejoin="round" />
<polygon points="329.22,499.97 328.34,499.09 328.34,495.59 329.22,494.72 330.97,494.72 331.84,495.59 331.84,499.09 330.97,499.97 " stroke="red" stroke-width="0.71875" stroke-linejoin="round" />
<polygon points="335.34,499.97 334.47,499.09 334.47,495.59 335.34,494.72 337.09,494.72 337.97,495.59 337.97,499.09 337.09,499.97 " stroke="red" stroke-width="0.71875" stroke-linejoin="round" />
<polyline points="460.38,568.66 460.34,568.62 458.25,567.03 454.12,563.72 451.94,561.84 450,560.19 445.91,556.41 444.59,555.12 441.78,552.44 437.81,548.47 437.66,548.31 433.56,544.41 430.94,541.91 429.44,540.53 425.31,536.72 423.91,535.38 421.22,533 417.09,529.59 416.31,528.97 412.97,526.22 408.88,522.91 408.47,522.59 404.75,519.66 400.72,516.28 400.62,516.22 396.53,513.03 392.41,510.16 392.25,510.06 388.31,507.5 384.19,505.09 381.81,503.88 380.06,502.84 375.97,500.66 371.84,498.72 369.62,497.75 367.72,496.91 363.62,495.19 359.5,493.59 355.38,492.09 354.28,491.69 351.28,490.56 347.16,489.19 343.03,488.03 338.94,487.03 334.81,486.34 330.69,485.78 329.69,485.69 326.59,485.31 322.47,484.94 318.34,484.62 314.25,484.41 310.12,484.28 306.03,484.25 301.91,484.31 297.78,484.53 293.69,484.91 289.56,485.47 288.69,485.69 285.44,486.47 281.34,487.66 277.22,489 273.09,490.44 269.22,491.69 269,491.78 264.88,493.44 260.75,495.38 256.66,497.59 256.38,497.75 252.53,500.22 251.88,500.62 " stroke="red" stroke-width="0.96875" stroke-linecap="round" stroke-linejoin="round" />
<polyline points="236.88,510.09 236.06,510.69 231.97,513.97 229.34,516.28 227.84,517.88 223.72,522.47 223.62,522.59 219.62,526.66 216.69,528.97 215.5,529.78 211.41,532.59 207.28,535.38 203.16,539.03 199.5,541.91 199.06,542.22 194.94,545.03 190.81,547.34 188.78,548.47 186.72,549.62 182.59,551.78 178.47,553.78 175.38,555.12 174.38,555.56 170.25,556.88 166.12,557.91 162.03,558.59 157.91,558.94 153.78,558.69 149.69,558.09 145.56,557.22 141.44,556.12 137.66,555.12 137.34,555.03 133.22,553.56 129.12,551.59 125,549 124.22,548.47 120.88,546.31 116.78,543.84 113.31,541.91 112.66,541.56 108.53,539.28 104.44,536.28 103.47,535.38 100.31,532.31 97.656,528.97 96.188,527.06 93.25,522.59 92.094,520.91 89.375,516.28 87.969,514.28 84.781,510.06 83.844,509.03 79.75,505.09 78.219,503.88 75.625,502.09 71.5,500.19 67.406,498.28 66.312,497.75 63.281,496.28 59.188,494.09 55.062,492.19 54,491.69 50.938,490.38 46.844,488.47 42.719,486.38 41.781,485.69 38.594,483.44 34.5,480.34 33.75,479.75 30.375,477.19 26.25,474.09 25.875,473.84 22.156,471.5 18.031,468.94 " stroke="red" stroke-width="0.96875" stroke-linecap="round" stroke-linejoin="round" />
<polyline points="233.81,503.62 234.69,502.75 236.44,502.75 237.31,503.62 237.31,505.38 236.44,506.25 233.81,506.25 233.81,508 237.31,508 " stroke="red" stroke-width="0.71875" stroke-linecap="round" stroke-linejoin="round" />
<polyline points="241.69,508 239.94,505.38 243.44,505.38 243.44,508 243.44,502.75 " stroke="red" stroke-width="0.71875" stroke-linecap="round" stroke-linejoin="round" />
<polyline points="249.56,507.12 248.69,508 246.94,508 246.06,507.12 246.06,503.62 246.94,502.75 248.69,502.75 249.56,503.62 249.56,504.5 248.69,505.38 246.06,505.38 " stroke="red" stroke-width="0.71875" stroke-linecap="round" stroke-linejoin="round" />
<polygon points="253.06,508 252.19,507.12 252.19,503.62 253.06,502.75 254.81,502.75 255.69,503.62 255.69,507.12 254.81,508 " stroke="red" stroke-width="0.71875" stroke-linejoin="round" />
<polyline points="594,561.56 591.91,561.84 589.88,562.09 585.78,562.72 581.66,563.22 577.53,563.69 573.44,564.16 569.31,564.62 565.19,565.03 561.09,565.44 556.97,565.84 552.88,566.22 548.75,566.59 544.62,566.91 540.53,567.16 536.41,567.31 532.28,567.22 528.19,566.97 524.06,566.59 519.94,566.03 515.84,565.38 511.72,564.56 507.59,563.62 503.5,562.56 501.12,561.84 499.38,561.28 495.25,559.84 491.16,558.25 487.03,556.5 484.06,555.12 482.91,554.56 478.81,552.44 474.69,550.12 471.94,548.47 470.56,547.62 466.47,545.28 462.34,542.91 460.72,541.91 458.25,540.38 454.12,537.72 451.12,535.38 450,534.53 445.91,531.22 443.16,528.97 441.78,527.88 437.66,524.66 435,522.59 433.56,521.47 429.44,518.25 426.97,516.28 425.31,514.97 421.22,511.72 418.81,510.06 417.09,508.88 412.97,506.12 409.47,503.88 408.88,503.47 404.75,500.72 400.62,497.94 400.34,497.75 396.53,495.22 392.41,492.69 390.62,491.69 388.31,490.34 384.19,488.38 380.06,486.69 377.31,485.69 375.97,485.19 371.84,483.75 367.72,482.28 363.62,480.91 359.78,479.75 359.5,479.62 355.38,478.25 351.28,477 347.16,475.88 343.03,474.88 338.94,473.97 338.31,473.84 334.81,473.06 330.69,472.25 326.59,471.53 322.47,470.91 318.34,470.34 314.25,469.88 311.25,469.62 " stroke="red" stroke-width="0.96875" stroke-linecap="round" stroke-linejoin="round" />
<polyline points="284.31,469.94 281.34,470.5 277.22,471.41 273.09,472.31 269,473 264.88,473.69 264,473.84 260.75,474.47 256.66,475.44 252.53,476.91 248.41,478.66 246.16,479.75 244.31,480.78 240.19,483.16 236.06,485.34 235.44,485.69 231.97,487.5 227.84,489.56 223.72,491.62 223.66,491.69 219.62,494.34 215.5,497.28 214.84,497.75 211.41,500.5 207.28,503.81 207.22,503.88 203.16,506.81 199.06,509.62 198.38,510.06 194.94,512.28 190.81,514.75 186.94,516.28 186.72,516.38 182.59,517.72 178.47,518.88 174.38,519.88 170.25,521.03 166.12,521.91 162.03,522.47 159.91,522.59 157.91,522.72 153.78,522.72 152.47,522.59 149.69,522.34 145.56,521.53 141.44,520.19 137.34,517.91 134.59,516.28 133.22,515.53 129.12,513.31 125,511.19 122.25,510.06 120.88,509.47 116.78,507.38 112.66,504.78 111.47,503.88 108.53,501.28 104.62,497.75 104.44,497.59 100.31,494.53 96.188,491.94 95.781,491.69 92.094,489.81 87.969,487.53 84.438,485.69 83.844,485.41 79.75,483.38 75.625,481.31 72.938,479.75 71.5,478.84 67.406,476.31 63.281,473.88 63.25,473.84 59.188,471.69 55.062,470.41 50.938,469.16 47.312,468 46.844,467.84 42.719,466.31 38.594,464.22 34.719,462.19 34.5,462.06 30.375,459.94 26.25,457.84 23.469,456.47 22.156,455.81 18.031,453.78 " stroke="red" stroke-width="0.96875" stroke-linecap="round" stroke-linejoin="round" />
<polyline points="287.28,467.12 288.16,466.25 289.91,466.25 290.78,467.12 290.78,468.88 289.91,469.75 287.28,469.75 287.28,471.5 290.78,471.5 " stroke="red" stroke-width="0.71875" stroke-linecap="round" stroke-linejoin="round" />
<polyline points="293.41,467.12 294.28,466.25 296.03,466.25 296.91,467.12 296.91,468.88 296.03,469.75 293.41,469.75 293.41,471.5 296.91,471.5 " stroke="red" stroke-width="0.71875" stroke-linecap="round" stroke-linejoin="round" />
<polyline points="299.53,470.62 300.41,471.5 302.16,471.5 303.03,470.62 303.03,469.75 299.53,466.25 303.03,466.25 " stroke="red" stroke-width="0.71875" stroke-linecap="round" stroke-linejoin="round" />
<polygon points="306.53,471.5 305.66,470.62 305.66,467.12 306.53,466.25 308.28,466.25 309.16,467.12 309.16,470.62 308.28,471.5 " stroke="red" stroke-width="0.71875" stroke-linejoin="round" />
<polyline points="594,536.22 589.88,537.28 585.78,538.41 581.66,539.12 577.53,539.84 573.44,540.5 569.31,541.12 565.19,541.62 562.5,541.91 561.09,542.03 556.97,542.34 552.88,542.56 548.75,542.75 544.62,542.84 540.53,542.84 536.41,542.69 532.28,542.38 528.19,541.94 527.94,541.91 524.06,541.34 519.94,540.66 515.84,539.97 511.72,539.19 507.59,538.25 503.5,537.16 499.38,535.78 498.31,535.38 495.25,534.19 491.16,532.38 487.03,530.44 484.25,528.97 482.91,528.22 478.81,525.94 474.69,523.62 472.84,522.59 470.56,521.31 466.47,519.19 462.34,516.97 461.16,516.28 458.25,514.59 454.12,512.06 450.75,510.06 450,509.59 445.91,507.16 441.78,504.78 440.28,503.88 437.66,502.12 433.56,498.91 432.03,497.75 429.44,495.81 425.31,492.91 423.5,491.69 421.22,490.19 417.09,487.47 414.41,485.69 412.97,484.72 408.88,481.91 405.66,479.75 404.75,479.16 400.62,476.75 396.53,474.5 395.22,473.84 392.41,472.41 388.31,470.47 384.19,468.88 381.81,468 380.06,467.31 375.97,465.78 371.84,464.25 367.72,462.81 365.78,462.19 363.62,461.47 359.5,460.22 355.38,459.09 351.28,458.09 347.16,457.22 343.16,456.47 343.03,456.44 338.94,455.69 334.81,455.03 330.69,454.47 326.59,454 323.59,453.69 " stroke="red" stroke-width="0.96875" stroke-linecap="round" stroke-linejoin="round" />
<polyline points="296.66,452.16 293.69,452.16 289.56,452.31 285.44,452.94 281.34,453.75 277.22,454.75 273.09,455.88 270.91,456.47 269,456.84 264.88,457.69 260.75,458.53 256.66,459.41 252.53,460.5 248.41,461.69 246.78,462.19 244.31,462.97 240.19,464.34 236.06,465.75 231.97,467.31 230.28,468 227.84,469 223.72,470.88 219.62,473.09 218.22,473.84 215.5,475.31 211.41,477.44 207.28,479.31 203.47,479.75 203.16,479.78 199.06,479.91 194.94,479.97 190.81,480.28 186.72,482.5 182.59,484.78 180.84,485.69 178.47,486.84 174.38,488.44 170.25,489.31 166.12,489.94 162.03,490.34 157.91,490.38 153.78,489.97 149.69,489.28 145.56,488.38 141.44,487.34 137.34,486.28 135.53,485.69 133.22,484.97 129.12,483.38 125,481.44 122.59,479.75 120.88,478.66 116.78,476.09 112.78,473.84 112.66,473.78 108.53,471.91 104.44,470.94 100.31,470.09 96.188,469.22 92.094,468.25 91.406,468 87.969,466.69 83.844,464.84 79.75,462.78 78.656,462.19 75.625,460.53 71.5,458.38 67.531,456.47 67.406,456.41 63.281,454.5 59.188,452.72 55.062,451.16 54.031,450.75 50.938,449.56 46.844,447.94 42.719,446.28 39.969,445.12 38.594,444.53 34.5,442.75 30.375,440.97 27,439.5 26.25,439.19 22.156,437.53 18.031,435.75 " stroke="red" stroke-width="0.96875" stroke-linecap="round" stroke-linejoin="round" />
<polyline points="299.62,450.94 300.5,450.06 302.25,450.06 303.12,450.94 303.12,452.69 302.25,453.56 299.62,453.56 299.62,455.31 303.12,455.31 " stroke="red" stroke-width="0.71875" stroke-linecap="round" stroke-linejoin="round" />
<polyline points="305.75,450.94 306.62,450.06 308.38,450.06 309.25,450.94 309.25,452.69 308.38,453.56 305.75,453.56 305.75,455.31 309.25,455.31 " stroke="red" stroke-width="0.71875" stroke-linecap="round" stroke-linejoin="round" />
<polygon points="312.75,455.31 311.88,454.44 311.88,453.56 312.75,452.69 314.5,452.69 315.38,453.56 315.38,454.44 314.5,455.31 " stroke="red" stroke-width="0.71875" stroke-linejoin="round" />
<polyline points="312.75,452.69 311.88,451.81 311.88,450.94 312.75,450.06 314.5,450.06 315.38,450.94 315.38,451.81 314.5,452.69 " stroke="red" stroke-width="0.71875" stroke-linecap="round" stroke-linejoin="round" />
<polygon points="318.88,455.31 318,454.44 318,450.94 318.88,450.06 320.62,450.06 321.5,450.94 321.5,454.44 320.62,455.31 " stroke="red" stroke-width="0.71875" stroke-linejoin="round" />
<polyline points="594,472.09 593.59,473.84 592.53,479.75 589.88,484.31 589.12,485.69 585.91,491.69 585.78,491.91 581.66,496.38 580.19,497.75 577.53,499.81 573.44,502.53 571,503.88 569.31,504.66 565.19,506.12 561.09,507.25 556.97,508.16 552.88,508.84 548.75,509.5 544.62,510 544.06,510.06 540.53,510.31 536.41,510.47 532.28,510.41 528.19,510.22 526.25,510.06 524.06,509.88 519.94,509.38 515.84,508.81 511.72,508.09 507.59,507.22 503.5,506.22 499.38,505.09 495.25,503.88 495.22,503.88 491.16,502.5 487.03,500.97 482.91,499.38 478.91,497.75 478.81,497.72 474.69,495.88 470.56,494 466.47,491.81 466.22,491.69 462.34,489.5 458.25,487.12 455.75,485.69 454.12,484.72 450,482.28 445.91,479.78 445.84,479.75 441.78,477.44 437.66,475.25 434.84,473.84 433.56,473.19 429.44,471.06 425.31,468.81 423.88,468 421.22,466.44 417.09,464.03 413.75,462.19 412.97,461.78 408.88,459.66 404.75,457.69 402.31,456.47 400.62,455.56 396.53,453.38 392.41,451.25 391.47,450.75 388.31,449.09 384.19,447.03 380.22,445.12 380.06,445.03 375.97,443.06 371.84,441.25 367.72,439.66 367.31,439.5 363.62,438.12 359.5,436.69 355.38,435.31 351.28,433.97 351.25,433.97 348.28,433 " stroke="red" stroke-width="0.96875" stroke-linecap="round" stroke-linejoin="round" />
<polyline points="321.34,427.66 318.34,427.31 314.25,426.91 310.12,426.59 306.03,426.34 301.91,426.16 297.78,426.09 293.69,426.19 289.56,426.44 285.44,426.97 281.34,427.62 277.31,428.44 277.22,428.47 273.09,429.34 269,430.53 264.88,431.88 260.75,433.34 259.09,433.97 256.66,434.84 252.53,436.16 248.41,437.5 244.31,438.88 242.47,439.5 240.19,440.22 236.06,441.47 231.97,442.69 227.84,443.91 223.88,445.12 223.72,445.16 219.62,446.53 215.5,447.94 211.41,449.38 207.44,450.75 207.28,450.81 203.16,452.19 199.06,453.47 194.94,454.69 190.81,455.75 186.72,456.38 185.94,456.47 182.59,456.81 178.47,457.28 174.38,457.81 170.25,458.78 166.12,459.59 162.03,460.25 157.91,460.66 153.78,460.66 149.69,460.47 145.56,460.09 141.44,459.53 137.34,458.91 133.22,458.12 129.12,457.25 125.69,456.47 125,456.31 120.88,455.25 116.78,454.16 112.66,453.03 108.53,451.97 104.44,451.12 102.78,450.75 100.31,450.19 96.188,449.06 92.094,447.72 87.969,445.69 86.938,445.12 83.844,443.41 79.75,441.06 76.875,439.5 75.625,438.84 71.5,437.09 67.406,435.5 63.281,434 63.156,433.97 59.188,432.53 55.062,430.94 50.938,429.31 48.812,428.44 46.844,427.62 42.719,425.91 38.594,424.06 36.188,422.97 34.5,422.16 30.375,420.16 26.25,418.12 24.906,417.53 22.156,416.25 18.031,414.25 " stroke="red" stroke-width="0.96875" stroke-linecap="round" stroke-linejoin="round" />
<polyline points="324.31,427.78 325.19,426.91 326.94,426.91 327.81,427.78 327.81,429.53 326.94,430.41 324.31,430.41 324.31,432.16 327.81,432.16 " stroke="red" stroke-width="0.71875" stroke-linecap="round" stroke-linejoin="round" />
<polyline points="333.94,431.28 333.06,432.16 331.31,432.16 330.44,431.28 330.44,427.78 331.31,426.91 333.06,426.91 333.94,427.78 333.94,428.66 333.06,429.53 330.44,429.53 " stroke="red" stroke-width="0.71875" stroke-linecap="round" stroke-linejoin="round" />
<polyline points="338.31,432.16 336.56,429.53 340.06,429.53 340.06,432.16 340.06,426.91 " stroke="red" stroke-width="0.71875" stroke-linecap="round" stroke-linejoin="round" />
<polygon points="343.56,432.16 342.69,431.28 342.69,427.78 343.56,426.91 345.31,426.91 346.19,427.78 346.19,431.28 345.31,432.16 " stroke="red" stroke-width="0.71875" stroke-linejoin="round" />
<polyline points="594,380.16 593.5,380.59 589.88,384.16 588.59,385.78 585.78,390.03 585.28,390.97 583.34,396.22 581.72,401.47 581.66,401.69 580.31,406.78 579,412.16 577.78,417.53 577.53,418.5 576.41,422.97 574.78,428.44 573.44,432.31 572.75,433.97 570.03,439.5 569.31,440.84 566.44,445.12 565.19,446.75 561.62,450.75 561.09,451.31 556.97,454.88 554.84,456.47 552.88,457.84 548.75,460.53 545.78,462.19 544.62,462.81 540.53,464.66 536.41,466.28 532.56,468 532.28,468.12 528.19,469.69 524.06,470.97 519.94,471.81 515.84,471.75 511.72,471.31 507.59,470.66 503.5,469.88 499.38,469.16 495.25,468.34 493.75,468 491.16,467.41 487.03,466.38 482.91,465.47 478.81,464.47 474.69,463.28 471.41,462.19 470.56,461.91 466.47,460 462.34,457.97 459.28,456.47 458.25,455.94 454.12,453.94 450,452.47 445.91,451.03 445.12,450.75 441.78,449.47 437.66,447.72 433.56,445.41 433.03,445.12 429.44,443 425.31,440.75 422.91,439.5 421.22,438.66 417.09,437 412.97,435.44 409,433.97 408.88,433.91 404.75,432.25 400.62,430.31 396.78,428.44 396.53,428.31 392.41,426.22 388.31,424.19 385.78,422.97 384.19,422.19 380.06,420.19 375.97,418.25 374.41,417.53 371.84,416.28 367.72,414.09 364.19,412.16 363.62,411.81 359.5,409.5 355.38,407.31 354.28,406.78 351.28,405.34 347.16,403.44 343.03,401.59 342.78,401.47 338.94,399.72 334.81,397.72 331.88,396.22 330.94,395.69 " stroke="red" stroke-width="0.96875" stroke-linecap="round" stroke-linejoin="round" />
<polyline points="312.44,386.25 311.41,385.78 310.12,385.12 306.03,383.03 301.91,380.97 301.12,380.59 297.78,378.94 293.69,376.97 290.22,375.47 289.56,375.19 285.44,373.94 281.34,373.12 277.22,372.75 273.09,372.81 269,373.38 264.88,374.41 261.97,375.47 260.75,375.97 256.66,378.19 252.69,380.59 252.53,380.69 248.41,383.62 245.62,385.78 244.31,386.81 240.19,390.25 239.38,390.97 236.06,394.44 234.56,396.22 231.97,399.12 229.97,401.47 227.84,403.69 224.75,406.78 223.72,407.66 219.62,410.03 215.5,412.09 215.38,412.16 211.41,413.78 207.28,415.59 203.97,417.53 203.16,417.97 199.06,420.06 194.94,421.94 192.5,422.97 190.81,423.62 186.72,425.12 182.59,426.59 178.47,428.03 177.25,428.44 174.38,429.38 170.25,430.66 166.12,431.75 162.03,432.69 157.91,433.47 154.03,433.97 153.78,433.97 149.69,434.34 145.56,434.5 141.44,434.53 137.34,434.34 133.22,434.03 132.5,433.97 129.12,433.53 125,432.91 120.88,432.06 116.78,431.09 112.66,430.03 108.53,428.84 107.25,428.44 104.44,427.5 100.31,425.91 96.188,424.12 93.656,422.97 92.094,422.25 87.969,420.81 83.844,419.62 79.75,418.62 75.625,417.66 75.25,417.53 71.5,416.25 67.406,414.69 63.281,413.03 61.219,412.16 59.188,411.22 55.062,409.56 50.938,407.94 48.125,406.78 46.844,406.25 42.719,404.5 38.594,402.66 36.031,401.47 34.5,400.78 30.375,398.91 26.25,397.09 24.125,396.22 22.156,395.34 18.031,393.53 " stroke="red" stroke-width="0.96875" stroke-linecap="round" stroke-linejoin="round" />
<polyline points="311.97,389.22 312.84,388.34 314.59,388.34 315.47,389.22 315.47,390.97 314.59,391.84 311.97,391.84 311.97,393.59 315.47,393.59 " stroke="red" stroke-width="0.71875" stroke-linecap="round" stroke-linejoin="round" />
<polyline points="318.09,393.59 321.59,393.59 319.84,388.34 " stroke="red" stroke-width="0.71875" stroke-linecap="round" stroke-linejoin="round" />
<polygon points="325.09,393.59 324.22,392.72 324.22,389.22 325.09,388.34 326.84,388.34 327.72,389.22 327.72,392.72 326.84,393.59 " stroke="red" stroke-width="0.71875" stroke-linejoin="round" />
<polygon points="331.22,393.59 330.34,392.72 330.34,389.22 331.22,388.34 332.97,388.34 333.84,389.22 333.84,392.72 332.97,393.59 " stroke="red" stroke-width="0.71875" stroke-linejoin="round" />
<polyline points="594,324.44 592.88,325.81 589.88,329.41 589,330.66 585.78,335.34 585.66,335.5 581.75,340.41 581.66,340.5 577.53,345.06 577.31,345.31 573.44,349.59 572.88,350.28 569.31,355.16 569.25,355.25 566.16,360.25 565.19,361.88 563.28,365.28 561.09,369.34 560.53,370.38 557.78,375.47 556.97,376.97 555,380.59 552.88,384.47 552.19,385.78 549.25,390.97 548.75,391.78 545.88,396.22 544.62,398.03 542.22,401.47 540.53,403.78 538.22,406.78 536.41,409.03 533.97,412.16 532.28,414.12 529.12,417.53 528.19,418.47 524.06,422 522.69,422.97 519.94,424.78 515.84,426.5 511.72,427.69 507.59,428.34 506,428.44 503.5,428.56 501.41,428.44 499.38,428.31 495.25,427.72 491.16,426.84 487.03,425.75 482.91,424.34 479.28,422.97 478.81,422.78 474.69,421.06 470.56,419.34 466.47,418.22 463.62,417.53 462.34,417.22 458.25,416.25 454.12,415.25 450,413.88 445.91,412.47 444.94,412.16 441.78,411.03 437.66,409.62 433.56,408.44 429.44,407.25 427.88,406.78 425.31,406 421.22,404.66 417.09,403 413.66,401.47 412.97,401.19 408.88,399.16 404.75,397.09 402.66,396.22 400.62,395.34 396.53,393.62 392.41,391.97 390.03,390.97 388.31,390.25 384.19,388.12 380.06,385.97 379.69,385.78 375.97,383.72 371.84,381.53 369.78,380.59 367.72,379.62 363.62,377.75 359.5,375.94 358.47,375.47 355.38,374 351.28,371.91 348.31,370.38 347.16,369.72 343.03,367.44 339.22,365.28 338.94,365.12 338.69,364.97 " stroke="red" stroke-width="0.96875" stroke-linecap="round" stroke-linejoin="round" />
<polyline points="323.81,355.53 323.38,355.25 322.47,354.66 318.34,352.28 314.41,350.28 314.25,350.19 310.12,347.97 306.03,345.88 305,345.31 301.91,343.69 297.78,341.94 293.69,340.56 293.06,340.41 289.56,339.5 285.44,338.62 281.34,337.97 277.22,337.5 273.09,337.25 269,337.41 264.88,337.72 260.75,338.16 256.66,338.69 252.53,339.03 248.41,339.59 244.38,340.41 244.31,340.41 240.19,341.66 236.06,343.5 232.62,345.31 231.97,345.69 227.84,348.16 224.66,350.28 223.72,350.91 219.62,354.59 218.94,355.25 215.5,358.94 214.34,360.25 211.41,363.88 210.28,365.28 207.28,369.16 206.19,370.38 203.16,373.72 201.47,375.47 199.06,377.97 196.38,380.59 194.94,382 190.91,385.78 190.81,385.84 186.72,389.16 184.22,390.97 182.59,392.06 178.47,394.53 175.34,396.22 174.38,396.72 170.25,398.97 166.12,401.09 165.31,401.47 162.03,402.94 157.91,404.47 153.78,405.22 149.69,405.62 145.56,405.78 141.44,405.69 137.34,405.75 133.22,405.59 129.12,405.25 125,404.69 120.88,403.59 116.78,402.25 114.81,401.47 112.66,400.62 108.53,398.91 104.44,397.59 100.31,396.56 98.75,396.22 96.188,395.66 92.094,394.88 87.969,393.97 83.844,392.97 79.75,391.81 77.094,390.97 75.625,390.53 71.5,389.38 67.406,388.22 63.281,387 59.469,385.78 59.188,385.66 55.062,384.09 50.938,382.41 46.844,380.59 42.719,378.66 38.594,376.88 35.312,375.47 34.5,375.09 30.375,373.31 26.25,371.56 23.406,370.38 22.156,369.81 18.031,367.94 " stroke="red" stroke-width="0.96875" stroke-linecap="round" stroke-linejoin="round" />
<polyline points="320.53,358.5 321.41,357.62 323.16,357.62 324.03,358.5 324.03,360.25 323.16,361.12 320.53,361.12 320.53,362.88 324.03,362.88 " stroke="red" stroke-width="0.71875" stroke-linecap="round" stroke-linejoin="round" />
<polyline points="326.66,362.88 330.16,362.88 328.41,357.62 " stroke="red" stroke-width="0.71875" stroke-linecap="round" stroke-linejoin="round" />
<polyline points="336.28,362 335.41,362.88 333.66,362.88 332.78,362 332.78,358.5 333.66,357.62 335.41,357.62 336.28,358.5 336.28,359.38 335.41,360.25 332.78,360.25 " stroke="red" stroke-width="0.71875" stroke-linecap="round" stroke-linejoin="round" />
<polygon points="339.78,362.88 338.91,362 338.91,358.5 339.78,357.62 341.53,357.62 342.41,358.5 342.41,362 341.53,362.88 " stroke="red" stroke-width="0.71875" stroke-linejoin="round" />
<polyline points="532.19,247 532.19,247.03 530,251.5 528.19,254.81 527.53,256 524.19,260.5 524.06,260.69 521,265.03 519.94,266.62 518.03,269.59 515.84,273.34 515.38,274.16 512.56,278.75 511.72,280.19 509.81,283.34 507.59,287.25 507.19,287.97 504.66,292.62 503.5,295.22 502.53,297.31 500.75,302 499.44,306.72 499.38,306.97 498.5,311.44 498.5,316.22 499.03,321 499.38,322.53 500.31,325.81 502.81,330.66 503.5,331.78 505.09,335.5 506.16,340.41 506.12,345.31 505.06,350.28 503.5,352.91 501.38,355.25 499.38,356.81 495.25,358.75 491.16,359.41 487.03,358.94 482.91,357.03 479.66,355.25 478.81,354.69 474.69,352.16 470.72,350.28 470.56,350.22 466.47,350.09 462.34,350.12 458.25,350.09 454.12,349.91 450,348.78 445.91,347.53 441.78,346.22 438.84,345.31 437.66,344.97 433.56,344.06 429.44,343.31 425.31,342.75 421.22,342.34 417.09,342.59 412.97,342.91 408.88,343.06 404.75,342.91 400.62,341.91 396.53,340.59 396.09,340.41 392.41,338.75 388.31,336.75 386.06,335.5 384.19,334.41 380.06,332.06 377.47,330.66 375.97,329.81 371.84,327.59 368.62,325.81 367.72,325.28 363.62,322.84 360.47,321 359.5,320.41 355.38,317.91 352.31,316.22 351.28,315.62 347.16,313.31 343.53,311.44 343.03,311.16 338.94,308.62 335.09,306.72 334.81,306.56 330.69,304.59 327.72,303.5 " stroke="red" stroke-width="0.96875" stroke-linecap="round" stroke-linejoin="round" />
<polyline points="300.78,297.41 300.03,297.31 297.78,296.97 293.69,296.47 289.56,296.09 285.44,295.72 281.34,295.44 277.22,295.34 273.09,295.5 269,296.22 264.88,297.25 264.72,297.31 260.75,298.44 256.66,299.88 252.53,301.34 250.91,302 248.41,302.88 244.31,304.53 240.19,306.44 239.75,306.72 236.06,308.97 232.81,311.44 231.97,312.03 227.84,315.09 226.44,316.22 223.72,318.22 220.09,321 219.62,321.34 215.5,324.84 214.5,325.81 211.41,328.78 209.59,330.66 207.28,332.59 203.56,335.5 203.16,335.84 199.06,339.19 197.62,340.41 194.94,342.81 192.25,345.31 190.81,346.69 186.72,350.19 186.62,350.28 182.59,353.09 179.38,355.25 178.47,355.81 174.38,358.25 170.41,360.25 170.25,360.34 166.12,362.19 162.03,363.94 158.59,365.28 157.91,365.56 153.78,367.03 149.69,368.19 145.56,368.97 141.44,369.41 137.34,369.34 133.22,369.06 129.12,368.62 125,368.06 120.88,367.66 116.78,367.19 112.66,366.66 108.53,366.06 104.44,365.34 104.19,365.28 100.31,364.53 96.188,363.72 92.094,362.94 87.969,362.44 83.844,361.91 79.75,361.28 75.625,360.53 74.688,360.25 71.5,359.28 67.406,357.84 63.281,356.31 60.625,355.25 59.188,354.66 55.062,352.97 50.938,351.28 48.469,350.28 46.844,349.59 42.719,347.88 38.594,345.97 37.281,345.31 34.5,343.91 30.375,341.75 27.844,340.41 26.25,339.53 22.156,337.38 18.312,335.5 18.031,335.38 " stroke="red" stroke-width="0.96875" stroke-linecap="round" stroke-linejoin="round" />
<polyline points="303.75,297.94 304.62,297.06 306.38,297.06 307.25,297.94 307.25,299.69 306.38,300.56 303.75,300.56 303.75,302.31 307.25,302.31 " stroke="red" stroke-width="0.71875" stroke-linecap="round" stroke-linejoin="round" />
<polygon points="310.75,302.31 309.88,301.44 309.88,300.56 310.75,299.69 312.5,299.69 313.38,300.56 313.38,301.44 312.5,302.31 " stroke="red" stroke-width="0.71875" stroke-linejoin="round" />
<polyline points="310.75,299.69 309.88,298.81 309.88,297.94 310.75,297.06 312.5,297.06 313.38,297.94 313.38,298.81 312.5,299.69 " stroke="red" stroke-width="0.71875" stroke-linecap="round" stroke-linejoin="round" />
<polyline points="316,301.44 316.88,302.31 318.62,302.31 319.5,301.44 319.5,300.56 316,297.06 319.5,297.06 " stroke="red" stroke-width="0.71875" stroke-linecap="round" stroke-linejoin="round" />
<polygon points="323,302.31 322.12,301.44 322.12,297.94 323,297.06 324.75,297.06 325.62,297.94 325.62,301.44 324.75,302.31 " stroke="red" stroke-width="0.71875" stroke-linejoin="round" />
<polyline points="92.094,300.09 95.406,302 96.188,302.38 100.31,304.06 104.44,305.47 108.53,306.53 110,306.72 112.66,306.97 116.78,307.03 120.88,306.75 121.12,306.72 125,305.97 129.12,304.81 133.22,303.47 137.22,302 137.34,301.94 141.44,299.88 145.47,297.31 145.56,297.22 149.69,293.25 150.28,292.62 151.97,287.97 152.22,283.34 150.62,278.75 149.69,277.53 146.47,274.16 145.56,273.44 141.44,270.12 140.91,269.59 137.34,266.59 136.44,265.91 " stroke="red" stroke-width="0.96875" stroke-linecap="round" stroke-linejoin="round" />
<polyline points="118.22,256.47 117,256 116.78,255.91 112.66,254.47 108.53,253.59 104.44,253.69 100.31,254.28 96.188,255.34 94.438,256 92.094,256.91 87.969,258.53 83.844,260.28 83.312,260.5 79.75,262.28 75.625,264.41 74.656,265.03 71.5,267.84 69.781,269.59 67.656,274.16 70,278.75 71.5,280.47 73.812,283.34 75.625,285.06 78.25,287.97 79.75,289.41 82.625,292.62 83.844,293.72 87.906,297.31 87.969,297.34 92.094,300.06 92.094,300.09 " stroke="red" stroke-width="0.96875" stroke-linecap="round" stroke-linejoin="round" />
<polyline points="118.62,259.44 119.5,258.56 121.25,258.56 122.12,259.44 122.12,261.19 121.25,262.06 118.62,262.06 118.62,263.81 122.12,263.81 " stroke="red" stroke-width="0.71875" stroke-linecap="round" stroke-linejoin="round" />
<polygon points="125.62,263.81 124.75,262.94 124.75,262.06 125.62,261.19 127.38,261.19 128.25,262.06 128.25,262.94 127.38,263.81 " stroke="red" stroke-width="0.71875" stroke-linejoin="round" />
<polyline points="125.62,261.19 124.75,260.31 124.75,259.44 125.62,258.56 127.38,258.56 128.25,259.44 128.25,260.31 127.38,261.19 " stroke="red" stroke-width="0.71875" stroke-linecap="round" stroke-linejoin="round" />
<polygon points="131.75,263.81 130.88,262.94 130.88,262.06 131.75,261.19 133.5,261.19 134.38,262.06 134.38,262.94 133.5,263.81 " stroke="red" stroke-width="0.71875" stroke-linejoin="round" />
<polyline points="131.75,261.19 130.88,260.31 130.88,259.44 131.75,258.56 133.5,258.56 134.38,259.44 134.38,260.31 133.5,261.19 " stroke="red" stroke-width="0.71875" stroke-linecap="round" stroke-linejoin="round" />
<polygon points="137.88,263.81 137,262.94 137,259.44 137.88,258.56 139.62,258.56 140.5,259.44 140.5,262.94 139.62,263.81 " stroke="red" stroke-width="0.71875" stroke-linejoin="round" />
</g>
</svg>
