<?xml version="1.0" encoding="ISO-8859-1" standalone="no"?>
<!DOCTYPE svg PUBLIC "-//W3C//DTD SVG 1.1//EN" "http://www.w3.org/Graphics/SVG/1.1/DTD/svg11.dtd">
<svg version="1.1" baseProfile="full" id="body" width="900px" height="600px" viewBox="0 0.2 1 0.55" preserveAspectRatio="none" xmlns="http://www.w3.org/2000/svg" xmlns:xlink="http://www.w3.org/1999/xlink" xmlns:ev="http://www.w3.org/2001/xml-events">
<title>SVG drawing</title>
<desc>This was produced by version 4.2 of GNU libplot, a free library for exporting 2-D vector graphics.</desc>
<rect id="background" x="0" y="0" width="1" height="1" stroke="none" fill="none"/>
<g id="content" transform="translate(-0.03125,1.1875) scale(1,-1) scale(0.0017361) " xml:space="preserve" stroke="black" stroke-linecap="butt" stroke-linejoin="miter" stroke-miterlimit="10.433" stroke-dasharray="none" stroke-dashoffset="0" stroke-opacity="1" fill="none" fill-rule="even-odd" fill-opacity="1" font-style="normal" font-variant="normal" font-weight="normal" font-stretch="normal" font-size-adjust="none" letter-spacing="normal" word-spacing="normal" text-anchor="start">
<polyline points="20.844,568.66 20.875,568.62 22.625,568.62 22.656,568.66 " stroke="red" stroke-width="0.71875" stroke-linecap="round" stroke-linejoin="round" />
<polyline points="20.875,568.62 20,567.75 20,566.88 20.875,566 22.625,566 23.5,566.88 23.5,567.75 22.625,568.62 " stroke="red" stroke-width="0.71875" stroke-linecap="round" stroke-linejoin="round" />
<polyline points="26.125,568.66 26.125,566.88 27,566 28.75,566 29.625,566.88 29.625,568.66 " stroke="red" stroke-width="0.71875" stroke-linecap="round" stroke-linejoin="round" />
<polyline points="273.12,568.66 273.12,568.62 273.09,568.34 272.44,561.84 273.03,555.12 273.09,554.91 275.72,548.47 277.22,546.12 280.44,541.91 281.34,541.03 285.44,537.53 288.41,535.38 289.56,534.72 292.53,533.16 " stroke="red" stroke-width="0.96875" stroke-linecap="round" stroke-linejoin="round" />
<polyline points="319.5,533.72 322.47,535.19 322.88,535.38 326.59,537.56 330.69,540.22 333.03,541.91 334.81,543.5 338.94,547.66 339.62,548.47 343.03,553.88 343.78,555.12 346.12,561.84 347.16,568.12 347.25,568.62 347.25,568.66 " stroke="red" stroke-width="0.96875" stroke-linecap="round" stroke-linejoin="round" />
<polyline points="295.53,527.31 296.41,526.44 298.16,526.44 299.03,527.31 299.03,529.06 298.16,529.94 295.53,529.94 295.53,531.69 299.03,531.69 " stroke="red" stroke-width="0.71875" stroke-linecap="round" stroke-linejoin="round" />
<polyline points="301.66,530.81 302.53,531.69 304.28,531.69 305.16,530.81 305.16,529.94 301.66,526.44 305.16,526.44 " stroke="red" stroke-width="0.71875" stroke-linecap="round" stroke-linejoin="round" />
<polygon points="308.66,531.69 307.78,530.81 307.78,529.94 308.66,529.06 310.41,529.06 311.28,529.94 311.28,530.81 310.41,531.69 " stroke="red" stroke-width="0.71875" stroke-linejoin="round" />
<polyline points="308.66,529.06 307.78,528.19 307.78,527.31 308.66,526.44 310.41,526.44 311.28,527.31 311.28,528.19 310.41,529.06 " stroke="red" stroke-width="0.71875" stroke-linecap="round" stroke-linejoin="round" />
<polygon points="314.78,531.69 313.91,530.81 313.91,527.31 314.78,526.44 316.53,526.44 317.41,527.31 317.41,530.81 316.53,531.69 " stroke="red" stroke-width="0.71875" stroke-linejoin="round" />
<polyline points="48.5,568.66 48.5,568.62 46.844,565.53 44.906,561.84 42.719,558.38 40.531,555.12 38.875,553.19 " stroke="red" stroke-width="0.96875" stroke-linecap="round" stroke-linejoin="round" />
<polyline points="30.562,543.75 30.375,543.53 29,541.91 26.25,538.69 23.5,535.38 22.156,533.66 19.031,528.97 18.031,527.72 " stroke="red" stroke-width="0.96875" stroke-linecap="round" stroke-linejoin="round" />
<polyline points="24.312,546.72 25.188,545.84 26.938,545.84 27.812,546.72 27.812,548.47 26.938,549.34 24.312,549.34 24.312,551.09 27.812,551.09 " stroke="red" stroke-width="0.71875" stroke-linecap="round" stroke-linejoin="round" />
<polyline points="30.438,550.22 31.312,551.09 33.062,551.09 33.938,550.22 33.938,549.34 33.062,548.47 32.188,548.47 33.062,548.47 33.938,547.59 33.938,546.72 33.062,545.84 31.312,545.84 30.438,546.72 " stroke="red" stroke-width="0.71875" stroke-linecap="round" stroke-linejoin="round" />
<polyline points="38.312,551.09 36.562,548.47 40.062,548.47 40.062,551.09 40.062,545.84 " stroke="red" stroke-width="0.71875" stroke-linecap="round" stroke-linejoin="round" />
<polygon points="43.562,551.09 42.688,550.22 42.688,546.72 43.562,545.84 45.312,545.84 46.188,546.72 46.188,550.22 45.312,551.09 " stroke="red" stroke-width="0.71875" stroke-linejoin="round" />
<polyline points="248.72,568.66 248.72,568.62 250.19,561.84 252.47,555.12 252.53,554.97 255,548.47 256.66,545.19 257.88,541.91 260.75,536.53 261.41,535.38 264.88,530.94 266.62,528.97 269,526.94 273.09,523.94 275.19,522.59 277.22,521.44 281.34,519.34 285.44,517.5 288.66,516.28 289.56,515.97 292.53,515.19 " stroke="red" stroke-width="0.96875" stroke-linecap="round" stroke-linejoin="round" />
<polyline points="319.5,517.03 322.47,518.16 326.59,519.69 330.69,521.41 333.38,522.59 334.81,523.28 338.94,525.44 343.03,527.81 344.84,528.97 347.16,530.78 351.28,534.44 352.25,535.38 355.38,539.03 357.62,541.91 359.5,544.78 361.72,548.47 363.62,552.38 364.94,555.12 367.72,561.84 370.28,568.62 370.28,568.66 " stroke="red" stroke-width="0.96875" stroke-linecap="round" stroke-linejoin="round" />
<polyline points="295.53,512.09 296.41,511.22 298.16,511.22 299.03,512.09 299.03,513.84 298.16,514.72 295.53,514.72 295.53,516.47 299.03,516.47 " stroke="red" stroke-width="0.71875" stroke-linecap="round" stroke-linejoin="round" />
<polyline points="301.66,515.59 302.53,516.47 304.28,516.47 305.16,515.59 305.16,514.72 304.28,513.84 303.41,513.84 304.28,513.84 305.16,512.97 305.16,512.09 304.28,511.22 302.53,511.22 301.66,512.09 " stroke="red" stroke-width="0.71875" stroke-linecap="round" stroke-linejoin="round" />
<polyline points="309.53,516.47 307.78,513.84 311.28,513.84 311.28,516.47 311.28,511.22 " stroke="red" stroke-width="0.71875" stroke-linecap="round" stroke-linejoin="round" />
<polygon points="314.78,516.47 313.91,515.59 313.91,512.09 314.78,511.22 316.53,511.22 317.41,512.09 317.41,515.59 316.53,516.47 " stroke="red" stroke-width="0.71875" stroke-linejoin="round" />
<polyline points="94.125,568.66 94.062,568.62 92.094,567.5 87.969,566.09 83.844,564.75 79.75,563.28 76.531,561.84 75.625,561.38 71.5,557.41 69.5,555.12 68.125,553.19 " stroke="red" stroke-width="0.96875" stroke-linecap="round" stroke-linejoin="round" />
<polyline points="60.844,543.75 59.25,541.91 59.188,541.81 55.062,537.78 52.469,535.38 50.938,534.09 46.844,530.56 44.969,528.97 42.719,527 38.594,523.06 38.156,522.59 34.5,518.69 32.406,516.28 30.375,513.97 27.125,510.06 26.25,509.06 22.156,504.66 21.438,503.88 18.031,501.03 " stroke="red" stroke-width="0.96875" stroke-linecap="round" stroke-linejoin="round" />
<polyline points="54.281,546.72 55.156,545.84 56.906,545.84 57.781,546.72 57.781,548.47 56.906,549.34 54.281,549.34 54.281,551.09 57.781,551.09 " stroke="red" stroke-width="0.71875" stroke-linecap="round" stroke-linejoin="round" />
<polyline points="62.156,551.09 60.406,548.47 63.906,548.47 63.906,551.09 63.906,545.84 " stroke="red" stroke-width="0.71875" stroke-linecap="round" stroke-linejoin="round" />
<polygon points="67.406,551.09 66.531,550.22 66.531,546.72 67.406,545.84 69.156,545.84 70.031,546.72 70.031,550.22 69.156,551.09 " stroke="red" stroke-width="0.71875" stroke-linejoin="round" />
<polygon points="73.531,551.09 72.656,550.22 72.656,546.72 73.531,545.84 75.281,545.84 76.156,546.72 76.156,550.22 75.281,551.09 " stroke="red" stroke-width="0.71875" stroke-linejoin="round" />
<polyline points="192.59,568.66 192.62,568.62 194.94,566.5 199.06,562.16 199.31,561.84 203.16,557.5 205.09,555.12 207.28,552.75 211.41,548.47 215.5,544.59 218.25,541.91 219.62,540.72 223.72,536.97 225.28,535.38 227.84,533.06 231.97,529.19 232.22,528.97 236.06,525.5 239.5,522.59 240.19,522.09 244.31,519.31 248.41,516.72 249.09,516.28 252.53,514.47 256.66,512.44 260.75,510.62 262.12,510.06 264.88,509.06 269,507.69 273.09,506.41 276.09,505.31 " stroke="red" stroke-width="0.96875" stroke-linecap="round" stroke-linejoin="round" />
<polyline points="303.03,500.84 306.03,501.06 310.12,501.62 314.25,502.44 318.34,503.44 319.78,503.88 322.47,504.66 326.59,506.03 330.69,507.53 334.81,509.12 337.06,510.06 338.94,510.84 343.03,512.56 347.16,514.47 350.69,516.28 351.28,516.59 355.38,519.06 359.5,521.88 360.47,522.59 363.62,525.16 367.72,528.88 367.81,528.97 371.84,534.06 372.75,535.38 375.97,540.53 376.84,541.91 380.06,547.16 380.94,548.47 384.19,553.38 385.47,555.12 388.31,559.16 390.31,561.84 392.41,564.72 395.56,568.62 395.59,568.66 " stroke="red" stroke-width="0.96875" stroke-linecap="round" stroke-linejoin="round" />
<polyline points="279.06,499.56 279.94,498.69 281.69,498.69 282.56,499.56 282.56,501.31 281.69,502.19 279.06,502.19 279.06,503.94 282.56,503.94 " stroke="red" stroke-width="0.71875" stroke-linecap="round" stroke-linejoin="round" />
<polyline points="286.94,503.94 285.19,501.31 288.69,501.31 288.69,503.94 288.69,498.69 " stroke="red" stroke-width="0.71875" stroke-linecap="round" stroke-linejoin="round" />
<polygon points="292.19,503.94 291.31,503.06 291.31,499.56 292.19,498.69 293.94,498.69 294.81,499.56 294.81,503.06 293.94,503.94 " stroke="red" stroke-width="0.71875" stroke-linejoin="round" />
<polygon points="298.31,503.94 297.44,503.06 297.44,499.56 298.31,498.69 300.06,498.69 300.94,499.56 300.94,503.06 300.06,503.94 " stroke="red" stroke-width="0.71875" stroke-linejoin="round" />
<polyline points="433.66,568.66 433.59,568.62 433.56,568.59 429.44,566.75 425.31,564.72 421.22,562.47 420.25,561.84 417.09,559.69 412.97,556.53 411.34,555.12 408.88,552.91 404.75,548.84 404.38,548.47 400.62,544.69 397.97,541.91 396.53,540.47 392.41,536.16 391.72,535.38 388.31,531.69 386.25,528.97 384.19,526.16 381.44,522.59 380.06,521 375.97,516.81 375.41,516.28 371.84,513.41 367.72,510.53 367,510.06 363.62,507.91 359.5,505.5 356.41,503.88 355.38,503.28 351.28,501.34 347.16,499.66 343.03,498.16 341.91,497.75 338.94,496.72 334.81,495.16 330.69,493.72 326.59,492.41 324.12,491.69 322.47,491.22 318.34,490.28 314.25,489.53 311.25,489.09 " stroke="red" stroke-width="0.96875" stroke-linecap="round" stroke-linejoin="round" />
<polyline points="284.31,487.94 281.34,488.47 277.22,489.34 273.09,490.28 269,490.97 264.88,491.59 264.25,491.69 260.75,492.22 256.66,492.84 252.53,493.53 248.41,494.25 244.31,495.06 240.19,495.97 236.06,497 233.16,497.75 231.97,498.09 227.84,499.28 223.72,500.53 219.62,501.78 215.5,503.12 213.22,503.88 211.41,504.66 207.28,506.5 203.16,508.03 199.06,509.75 198.41,510.06 194.94,512.06 190.81,514.69 188.59,516.28 186.72,517.66 182.59,520.09 178.47,521.94 176.78,522.59 174.38,523.56 170.25,525.47 166.12,527.41 163,528.97 162.03,529.75 157.91,533 155.47,535.38 153.78,537.03 149.69,540.41 147.22,541.91 145.56,542.84 141.44,544.47 137.34,544.75 133.22,544.62 129.12,544.12 125,543.28 120.88,542.94 116.78,542.47 112.66,541.94 112.47,541.91 108.53,541.22 104.44,540.12 100.31,538.75 96.188,537.03 93,535.38 92.094,534.91 87.969,531.59 85.406,528.97 83.844,527.47 79.75,523.41 78.844,522.59 75.625,519.81 71.5,517.66 68.594,516.28 67.406,515.72 63.281,513.84 59.188,511.84 56.312,510.06 55.062,509.25 50.938,506.34 47.75,503.88 46.844,503.09 42.719,499.38 41.031,497.75 38.594,495.5 34.5,491.84 34.312,491.69 30.375,488.41 26.875,485.69 26.25,485.19 22.156,482 19.531,479.75 18.031,478.28 " stroke="red" stroke-width="0.96875" stroke-linecap="round" stroke-linejoin="round" />
<polyline points="287.28,485.78 288.16,484.91 289.91,484.91 290.78,485.78 290.78,487.53 289.91,488.41 287.28,488.41 287.28,490.16 290.78,490.16 " stroke="red" stroke-width="0.71875" stroke-linecap="round" stroke-linejoin="round" />
<polyline points="295.16,490.16 293.41,487.53 296.91,487.53 296.91,490.16 296.91,484.91 " stroke="red" stroke-width="0.71875" stroke-linecap="round" stroke-linejoin="round" />
<polyline points="303.03,489.28 302.16,490.16 300.41,490.16 299.53,489.28 299.53,485.78 300.41,484.91 302.16,484.91 303.03,485.78 303.03,486.66 302.16,487.53 299.53,487.53 " stroke="red" stroke-width="0.71875" stroke-linecap="round" stroke-linejoin="round" />
<polygon points="306.53,490.16 305.66,489.28 305.66,485.78 306.53,484.91 308.28,484.91 309.16,485.78 309.16,489.28 308.28,490.16 " stroke="red" stroke-width="0.71875" stroke-linejoin="round" />
<polyline points="594,544.62 589.88,545.97 585.78,547.19 581.66,547.97 578.62,548.47 577.53,548.62 573.44,549.19 569.31,549.72 565.19,550.41 561.09,551.06 556.97,551.72 552.88,552.38 548.75,552.94 544.62,553.5 540.53,554 536.41,554.47 532.28,554.84 529.09,555.12 528.19,555.19 524.06,555.53 519.94,555.88 515.84,556.34 511.72,556.84 507.59,557.31 503.5,557.78 499.38,558.19 495.25,558.53 491.16,558.75 487.03,558.81 482.91,558.56 478.81,558.12 474.69,557.44 470.56,556.53 466.47,555.22 466.22,555.12 462.34,553.62 458.25,551.94 454.12,550.22 450,548.62 449.59,548.47 445.91,547 441.78,545.31 437.66,543.56 433.62,541.91 433.56,541.88 429.44,539.97 425.31,537.84 421.25,535.38 421.22,535.38 417.09,532.16 413.44,528.97 412.97,528.56 408.88,524.69 406.78,522.59 404.75,520.59 400.62,516.69 400.22,516.28 396.53,512.69 393.88,510.06 392.41,508.66 388.31,504.88 387,503.88 384.19,502 380.06,499.5 377.03,497.75 375.97,497.12 371.84,494.88 367.72,492.44 366.41,491.69 363.62,490.12 359.5,487.97 355.38,486.06 354.31,485.69 351.28,484.59 347.16,483.31 343.03,482.16 338.94,481.09 334.81,479.84 334.44,479.75 330.69,478.53 326.59,477.31 322.47,476.25 319.5,475.72 " stroke="red" stroke-width="0.96875" stroke-linecap="round" stroke-linejoin="round" />
<polyline points="292.53,472.06 289.56,471.91 285.44,472.12 281.34,472.5 277.22,473 273.09,473.56 270.19,473.84 269,473.94 264.88,474.28 260.75,474.66 256.66,475 252.53,475.25 248.41,475.56 244.31,475.91 240.19,476.31 236.06,476.91 231.97,477.66 227.84,478.47 223.72,479.38 221.88,479.75 219.62,480.12 215.5,481 211.41,482.03 207.28,483.28 203.16,485.12 202,485.69 199.06,487.03 194.94,488.84 190.81,490.56 188.25,491.69 186.72,492.41 182.59,494.44 178.47,496.72 176.72,497.75 174.38,499.22 170.25,501.56 166.12,503.84 166.09,503.88 162.03,505.72 157.91,507.38 153.78,508.94 150.75,510.06 149.69,510.47 145.56,511.88 141.44,512.94 137.34,512.22 133.22,510.97 130.62,510.06 129.12,509.53 125,508.19 120.88,508.03 116.78,507.97 112.66,507.88 108.53,507.59 104.44,506.78 100.31,505.59 96.188,504.12 95.656,503.88 92.094,502.31 87.969,499.56 85.438,497.75 83.844,496.62 79.75,493.62 77.062,491.69 75.625,490.66 71.5,488.53 67.406,486.44 66,485.69 63.281,484.22 59.188,481.84 56.219,479.75 55.062,478.84 50.938,475.53 48.938,473.84 46.844,472.12 42.719,468.69 41.906,468 38.594,465.09 35.562,462.19 34.5,461.25 30.375,457.47 29.25,456.47 26.25,454.62 22.156,452.69 18.031,450.94 " stroke="red" stroke-width="0.96875" stroke-linecap="round" stroke-linejoin="round" />
<polyline points="295.53,472.06 296.41,471.19 298.16,471.19 299.03,472.06 299.03,473.81 298.16,474.69 295.53,474.69 295.53,476.44 299.03,476.44 " stroke="red" stroke-width="0.71875" stroke-linecap="round" stroke-linejoin="round" />
<polyline points="301.66,472.06 302.53,471.19 304.28,471.19 305.16,472.06 305.16,473.81 304.28,474.69 301.66,474.69 301.66,476.44 305.16,476.44 " stroke="red" stroke-width="0.71875" stroke-linecap="round" stroke-linejoin="round" />
<polyline points="307.78,475.56 308.66,476.44 310.41,476.44 311.28,475.56 311.28,474.69 307.78,471.19 311.28,471.19 " stroke="red" stroke-width="0.71875" stroke-linecap="round" stroke-linejoin="round" />
<polygon points="314.78,476.44 313.91,475.56 313.91,472.06 314.78,471.19 316.53,471.19 317.41,472.06 317.41,475.56 316.53,476.44 " stroke="red" stroke-width="0.71875" stroke-linejoin="round" />
<polyline points="594,460.5 591.56,462.19 589.88,464.28 588.5,468 587.38,473.84 586.72,479.75 586,485.69 585.78,487.81 585.41,491.69 584.44,497.75 582.53,503.88 581.66,505.41 578.66,510.06 577.53,511.25 573.44,515 571.72,516.28 569.31,517.72 565.19,519.75 561.09,521.62 558.91,522.59 556.97,523.34 552.88,524.88 548.75,526.41 544.62,527.81 540.69,528.97 540.53,529 536.41,529.88 532.28,530.38 528.19,530.78 524.06,531.09 519.94,531.38 515.84,531.84 511.72,532.28 507.59,532.66 503.5,532.94 499.38,533 495.25,532.91 491.16,532.69 487.03,532.28 482.91,531.72 478.81,531 474.69,530.16 470.56,529.22 469.59,528.97 466.47,528.19 462.34,527.06 458.25,525.84 454.12,524.5 450,523 449.03,522.59 445.91,521.28 441.78,519.44 437.66,517.44 435.19,516.28 433.56,515.5 429.44,513.34 425.31,510.91 424.03,510.06 421.22,508.12 417.09,504.75 416.06,503.88 412.97,501.31 408.88,498.16 408.31,497.75 404.75,495.28 400.62,492.31 399.78,491.69 396.53,489.38 392.41,486.56 391.06,485.69 388.31,483.88 384.19,481.56 380.84,479.75 380.06,479.28 375.97,477 371.84,474.81 370.03,473.84 367.72,472.56 363.62,470.41 359.5,468.41 358.59,468 355.38,466.47 351.28,464.84 347.16,463.34 343.88,462.19 343.03,461.91 340.06,460.88 " stroke="red" stroke-width="0.96875" stroke-linecap="round" stroke-linejoin="round" />
<polyline points="313.12,453.94 310.12,453.28 306.03,452.53 301.91,452.16 297.78,451.94 293.69,451.91 289.56,452 285.44,452.12 281.34,452.34 277.22,452.62 273.09,452.97 269,453.31 264.88,453.66 260.75,454 256.66,454.38 252.53,454.81 248.41,455.25 244.31,455.72 240.19,456.25 237.97,456.47 236.06,456.62 231.97,457.06 227.84,457.59 223.72,458.25 219.62,459.31 215.5,460.44 211.41,461.69 209.75,462.19 207.28,462.97 203.16,464.47 199.06,466.22 195.44,468 194.94,468.25 190.81,470.34 186.72,472 182.59,473.53 181.69,473.84 178.47,474.84 174.38,476.06 170.25,477.41 166.12,478.59 162.03,479.59 161.25,479.75 157.91,480.31 153.78,480.34 149.69,480.06 146.56,479.75 145.56,479.62 141.44,479.16 137.34,479.22 133.22,479.25 129.12,479.16 125,478.88 120.88,477.91 116.78,476.78 112.66,475.56 108.53,474.34 105.81,473.84 104.44,473.59 100.31,472.72 96.188,471.69 92.094,470.34 87.969,468.38 87.25,468 83.844,466.34 79.75,464.25 75.844,462.19 75.625,462.09 71.5,459.78 67.406,457.25 66.219,456.47 63.281,454.81 59.188,452.56 55.406,450.75 55.062,450.59 50.938,448.78 46.844,446.91 43.031,445.12 42.719,444.97 38.594,442.75 34.5,440.53 32.562,439.5 30.375,438.38 26.25,436.25 22.156,434.19 21.75,433.97 18.031,431.97 " stroke="red" stroke-width="0.96875" stroke-linecap="round" stroke-linejoin="round" />
<polyline points="316.09,455.38 316.97,454.5 318.72,454.5 319.59,455.38 319.59,457.12 318.72,458 316.09,458 316.09,459.75 319.59,459.75 " stroke="red" stroke-width="0.71875" stroke-linecap="round" stroke-linejoin="round" />
<polyline points="322.22,455.38 323.09,454.5 324.84,454.5 325.72,455.38 325.72,457.12 324.84,458 322.22,458 322.22,459.75 325.72,459.75 " stroke="red" stroke-width="0.71875" stroke-linecap="round" stroke-linejoin="round" />
<polygon points="329.22,459.75 328.34,458.88 328.34,458 329.22,457.12 330.97,457.12 331.84,458 331.84,458.88 330.97,459.75 " stroke="red" stroke-width="0.71875" stroke-linejoin="round" />
<polyline points="329.22,457.12 328.34,456.25 328.34,455.38 329.22,454.5 330.97,454.5 331.84,455.38 331.84,456.25 330.97,457.12 " stroke="red" stroke-width="0.71875" stroke-linecap="round" stroke-linejoin="round" />
<polygon points="335.34,459.75 334.47,458.88 334.47,455.38 335.34,454.5 337.09,454.5 337.97,455.38 337.97,458.88 337.09,459.75 " stroke="red" stroke-width="0.71875" stroke-linejoin="round" />
<polyline points="594,420.5 589.88,421.5 586.78,422.97 585.78,423.47 581.66,426.16 579.19,428.44 577.53,430.16 574.75,433.97 573.44,435.97 571.56,439.5 569.31,444.91 569.25,445.12 567.31,450.75 565.56,456.47 565.19,457.81 563.97,462.19 562.22,468 561.09,471.19 560,473.84 556.97,479.59 556.88,479.75 552.88,484.19 550.84,485.69 548.75,487.09 544.62,489.44 540.53,491.53 540.19,491.69 536.41,493.41 532.28,495.25 528.19,496.97 526.16,497.75 524.06,498.5 519.94,499.75 515.84,500.72 511.72,501.47 507.59,502.03 503.5,502.44 499.38,502.78 495.25,503.03 491.16,503.12 487.03,503.12 482.91,502.97 478.81,502.72 474.69,502.28 470.56,501.69 466.47,500.94 462.34,499.97 458.25,498.88 454.66,497.75 454.12,497.59 450,496.12 445.91,494.56 441.78,492.84 439.31,491.69 437.66,490.91 433.56,488.28 430,485.69 429.44,485.25 425.31,482 422.44,479.75 421.22,478.91 417.09,477.12 412.97,475.44 409.09,473.84 408.88,473.75 404.75,471.81 400.62,469.25 398.69,468 396.53,466.62 392.41,464.09 389.19,462.19 388.31,461.69 384.19,459.41 380.06,457.19 378.66,456.47 375.97,455 371.84,452.84 367.97,450.75 367.72,450.62 363.62,448.34 359.5,446.12 357.56,445.12 355.38,443.91 351.28,441.78 347.16,439.78 346.59,439.5 344.88,438.69 " stroke="red" stroke-width="0.96875" stroke-linecap="round" stroke-linejoin="round" />
<polyline points="321.5,429.22 319.5,428.44 318.34,427.97 314.25,426.47 310.12,425.12 306.03,423.97 301.91,423.03 301.5,422.97 297.78,422.22 293.69,421.53 289.56,420.97 285.44,420.53 281.34,420.25 277.22,420.25 273.09,420.56 269,421.62 264.88,422.94 264.78,422.97 260.75,424.28 256.66,425.59 252.53,426.22 248.41,426.72 244.31,427.22 240.19,427.78 237.56,428.44 236.06,428.75 231.97,429.66 227.84,430.53 223.72,431.41 219.62,432.25 215.5,433.28 213.12,433.97 211.41,434.41 207.28,435.69 203.16,437.12 199.06,438.59 196.41,439.5 194.94,439.97 190.81,441.25 186.72,442.38 182.59,443.5 178.47,444.66 176.75,445.12 174.38,445.75 170.25,447.03 166.12,448.25 162.03,449.38 157.91,450.25 153.78,450.59 149.69,450.72 145.56,450.62 141.44,450.41 137.34,450.22 133.22,449.97 129.12,449.66 125,449.31 120.88,449 116.78,448.62 112.66,448.16 108.53,447.62 104.44,446.94 100.31,446.16 96.188,445.28 95.562,445.12 92.094,444.25 87.969,442.97 83.844,441.5 79.75,439.91 78.781,439.5 75.625,438.22 71.5,436.72 67.406,435.25 63.562,433.97 63.281,433.84 59.188,432.34 55.062,430.78 50.938,429.06 49.469,428.44 46.844,427.25 42.719,425.34 38.594,423.5 37.406,422.97 34.5,421.69 30.375,419.88 26.25,418.06 25.219,417.53 22.156,415.94 18.031,413.53 " stroke="red" stroke-width="0.96875" stroke-linecap="round" stroke-linejoin="round" />
<polyline points="323.41,432.22 324.28,431.34 326.03,431.34 326.91,432.22 326.91,433.97 326.03,434.84 323.41,434.84 323.41,436.59 326.91,436.59 " stroke="red" stroke-width="0.71875" stroke-linecap="round" stroke-linejoin="round" />
<polyline points="333.03,435.72 332.16,436.59 330.41,436.59 329.53,435.72 329.53,432.22 330.41,431.34 332.16,431.34 333.03,432.22 333.03,433.09 332.16,433.97 329.53,433.97 " stroke="red" stroke-width="0.71875" stroke-linecap="round" stroke-linejoin="round" />
<polyline points="337.41,436.59 335.66,433.97 339.16,433.97 339.16,436.59 339.16,431.34 " stroke="red" stroke-width="0.71875" stroke-linecap="round" stroke-linejoin="round" />
<polygon points="342.66,436.59 341.78,435.72 341.78,432.22 342.66,431.34 344.41,431.34 345.28,432.22 345.28,435.72 344.41,436.59 " stroke="red" stroke-width="0.71875" stroke-linejoin="round" />
<polyline points="594,387.66 589.88,388.22 585.78,389.19 581.66,390.56 580.69,390.97 577.53,392.5 573.44,395 571.81,396.22 569.31,398.19 566.34,401.47 565.19,402.88 562.44,406.78 561.09,408.91 559.19,412.16 556.97,416.38 556.38,417.53 553.66,422.97 552.88,424.62 550.47,428.44 548.75,431.25 546.88,433.97 544.62,437.5 543.16,439.5 540.53,443.09 538.78,445.12 536.41,447.69 532.75,450.75 532.28,451.12 528.19,453.72 524.06,455.91 522.91,456.47 519.94,457.69 515.84,459.75 511.72,461.75 510.72,462.19 507.59,463.62 503.5,465.41 499.38,467.09 496.78,468 495.25,468.5 491.16,469.59 487.03,470.38 482.91,470.59 478.81,470.53 474.69,470.22 470.56,469.69 466.47,469.03 462.34,468.16 461.66,468 458.25,467.12 454.12,465.94 450,464.78 445.91,463.47 442.5,462.19 441.78,461.94 437.66,460.22 433.56,458.28 429.44,456.5 429.38,456.47 425.31,454.56 421.22,452.59 417.66,450.75 417.09,450.44 412.97,448.16 408.88,445.88 407.47,445.12 404.75,443.62 400.62,441.69 396.53,439.91 395.62,439.5 392.41,438.09 388.31,436.31 384.19,434.38 383.31,433.97 380.06,432.25 375.97,430.06 372.94,428.44 371.84,427.81 367.72,425.22 364.19,422.97 363.62,422.59 359.5,419.88 355.81,417.53 355.38,417.25 351.28,415.03 347.16,413 345.34,412.16 343.03,411 338.94,409 335.06,406.78 334.81,406.66 330.91,404.34 " stroke="red" stroke-width="0.96875" stroke-linecap="round" stroke-linejoin="round" />
<polyline points="312.78,394.91 310.12,393.62 306.03,391.72 304.03,390.97 301.91,390.19 297.78,388.88 293.69,387.66 289.56,386.5 287.38,385.78 285.44,385.09 281.34,383.59 277.22,382.03 273.59,380.59 273.09,380.41 269,378.81 264.88,377.09 260.91,375.47 260.75,375.41 256.66,374.31 252.53,374.84 249.78,375.47 248.41,375.78 244.31,376.88 240.19,377.78 236.06,377.72 231.97,377.78 227.84,378.16 223.72,379.06 221.25,380.59 219.62,381.66 215.5,384.28 212.97,385.78 211.41,386.66 207.28,388.66 203.16,389.81 199.41,390.97 199.06,391.12 194.94,393.03 190.81,395.5 190,396.22 186.72,399.06 183.78,401.47 182.59,402.41 178.47,405.28 176,406.78 174.38,407.72 170.25,409.78 166.12,411.59 164.75,412.16 162.03,413.31 157.91,414.91 153.78,416.12 149.69,417.19 148.28,417.53 145.56,418.19 141.44,419.12 137.34,420.28 133.22,421.28 129.12,422.09 125,422.72 120.88,422.94 117.16,422.97 116.66,422.97 112.66,422.84 108.53,422.59 104.44,422.22 100.31,421.69 96.188,421 92.094,420.16 87.969,419.25 83.844,418.31 80.719,417.53 79.75,417.31 75.625,416.19 71.5,414.88 67.406,413.44 64.094,412.16 63.281,411.81 59.188,410 55.062,408.12 52.156,406.78 50.938,406.22 46.844,404.31 42.719,402.47 39.781,401.47 38.594,401.06 34.5,399.66 30.375,398.16 26.25,396.56 25.469,396.22 22.156,394.72 18.031,392.78 " stroke="red" stroke-width="0.96875" stroke-linecap="round" stroke-linejoin="round" />
<polyline points="311.97,397.88 312.84,397 314.59,397 315.47,397.88 315.47,399.62 314.59,400.5 311.97,400.5 311.97,402.25 315.47,402.25 " stroke="red" stroke-width="0.71875" stroke-linecap="round" stroke-linejoin="round" />
<polyline points="318.09,402.25 321.59,402.25 319.84,397 " stroke="red" stroke-width="0.71875" stroke-linecap="round" stroke-linejoin="round" />
<polygon points="325.09,402.25 324.22,401.38 324.22,397.88 325.09,397 326.84,397 327.72,397.88 327.72,401.38 326.84,402.25 " stroke="red" stroke-width="0.71875" stroke-linejoin="round" />
<polygon points="331.22,402.25 330.34,401.38 330.34,397.88 331.22,397 332.97,397 333.84,397.88 333.84,401.38 332.97,402.25 " stroke="red" stroke-width="0.71875" stroke-linejoin="round" />
<polyline points="594,344.78 592.66,345.31 589.88,346.31 585.78,348.19 582.62,350.28 581.66,351 577.53,354.53 576.75,355.25 573.44,357.88 570.56,360.25 569.31,361.12 565.19,364.28 564,365.28 561.09,367.62 558.09,370.38 556.97,371.34 552.88,375.38 552.78,375.47 548.75,379.38 547.53,380.59 544.62,383.41 542.25,385.78 540.53,387.47 536.97,390.97 536.41,391.62 532.75,396.22 532.28,396.78 528.28,401.47 528.19,401.59 524.06,405.88 523.12,406.78 519.94,409.75 517.75,412.16 515.84,414.16 512.44,417.53 511.72,418.22 507.59,421.72 505.91,422.97 503.5,424.62 499.38,426.56 495.25,428.16 494.38,428.44 491.16,429.41 487.03,430.34 482.91,431 478.81,431.38 474.69,431.44 470.56,431.22 466.47,430.69 462.34,429.91 458.25,428.97 456.22,428.44 454.12,427.84 450,426.62 445.91,425.25 441.78,423.78 439.69,422.97 437.66,422.16 433.56,420.62 429.44,419.19 425.31,417.78 424.62,417.53 421.22,416.31 417.09,414.41 412.97,412.47 412.28,412.16 408.88,410.47 404.75,408.5 400.62,406.94 400.31,406.78 396.53,405.34 392.41,403.75 388.31,402.09 386.84,401.47 384.19,400.31 380.06,398.41 375.97,396.34 375.69,396.22 371.84,394.09 367.72,391.59 366.69,390.97 363.62,389.25 359.5,387.03 357,385.78 355.38,384.97 351.28,382.91 347.16,380.75 346.84,380.59 343.03,378.5 338.94,376.22 337.25,375.47 336.41,375.09 " stroke="red" stroke-width="0.96875" stroke-linecap="round" stroke-linejoin="round" />
<polyline points="315.66,365.62 315.06,365.28 314.25,364.81 310.12,362.5 306.03,360.41 305.69,360.25 301.91,358.59 297.78,356.84 294.03,355.25 293.69,355.09 289.56,353.22 285.44,351.16 283.59,350.28 281.34,349.12 277.22,347.22 273.09,345.59 272.12,345.31 269,344.44 264.88,343.59 260.75,343.06 256.66,342.84 252.53,343.03 248.41,343.47 244.31,344.06 240.19,344.81 237.44,345.31 236.06,345.56 231.97,346.38 227.84,347.19 223.72,348 219.62,348.44 215.5,348.97 211.41,349.69 209.19,350.28 207.28,350.91 203.16,353.41 200.22,355.25 199.06,355.94 194.94,358.22 190.88,360.25 190.81,360.28 186.72,362.53 182.59,365.09 182.31,365.28 178.47,368.03 175.53,370.38 174.38,371.38 170.25,374.56 169.03,375.47 166.12,377.56 162.03,380.34 161.62,380.59 157.91,382.81 153.78,384.88 151.78,385.78 149.69,386.62 145.56,388.16 141.44,389.53 137.84,390.97 137.34,391.16 133.22,392.75 129.12,394.16 125,395.31 120.88,395.69 116.78,395.72 112.66,395.5 108.53,395.09 104.44,394.81 100.31,394.41 96.188,393.91 92.094,393.31 87.969,392.59 83.844,391.72 80.75,390.97 79.75,390.72 75.625,389.62 71.5,388.47 67.406,387.25 63.281,385.91 62.844,385.78 59.188,384.47 55.062,382.72 50.938,380.94 50.188,380.59 46.844,379.06 42.719,377.22 38.625,375.47 38.594,375.44 34.5,373.66 30.375,371.84 26.844,370.38 26.25,370.12 22.156,368.62 18.031,367.19 " stroke="red" stroke-width="0.96875" stroke-linecap="round" stroke-linejoin="round" />
<polyline points="314,368.62 314.88,367.75 316.62,367.75 317.5,368.62 317.5,370.38 316.62,371.25 314,371.25 314,373 317.5,373 " stroke="red" stroke-width="0.71875" stroke-linecap="round" stroke-linejoin="round" />
<polyline points="320.12,373 323.62,373 321.88,367.75 " stroke="red" stroke-width="0.71875" stroke-linecap="round" stroke-linejoin="round" />
<polyline points="329.75,372.12 328.88,373 327.12,373 326.25,372.12 326.25,368.62 327.12,367.75 328.88,367.75 329.75,368.62 329.75,369.5 328.88,370.38 326.25,370.38 " stroke="red" stroke-width="0.71875" stroke-linecap="round" stroke-linejoin="round" />
<polygon points="333.25,373 332.38,372.12 332.38,368.62 333.25,367.75 335,367.75 335.88,368.62 335.88,372.12 335,373 " stroke="red" stroke-width="0.71875" stroke-linejoin="round" />
<polyline points="556.03,247 556,247.03 552.88,250.53 552.06,251.5 548.75,255.62 548.47,256 544.66,260.5 544.62,260.53 540.94,265.03 540.53,265.59 537.38,269.59 536.41,270.88 533.94,274.16 532.28,276.47 530.72,278.75 528.19,282.72 527.75,283.34 524.97,287.97 524.06,289.53 522.25,292.62 519.94,296.53 519.47,297.31 516.59,302 515.84,303.34 513.97,306.72 511.72,311.28 511.62,311.44 509.59,316.22 507.75,321 507.59,321.44 506.06,325.81 504.69,330.66 504.78,335.5 505,340.41 505.03,345.31 504.5,350.28 503.5,352.41 501.84,355.25 499.38,358.47 497.78,360.25 495.25,362.53 491.41,365.28 491.16,365.44 487.03,367.03 482.91,366.94 478.81,366.16 475.88,365.28 474.69,364.94 470.56,363.5 466.47,362.5 462.34,361.69 458.25,361.12 454.12,360.75 450,360.94 445.91,361.22 441.78,361.5 437.66,361.72 433.56,361.53 429.44,361.28 425.31,360.88 421.22,360.44 417.97,360.25 417.09,360.19 412.97,359.91 408.88,359.56 404.75,359.12 400.62,358.62 396.53,358 392.41,357.25 388.31,356.34 384.69,355.25 384.19,355.09 380.06,353.66 375.97,352.19 371.84,350.72 370.62,350.28 367.72,348.97 363.62,346.94 360.56,345.31 359.5,344.69 355.38,342.06 352.62,340.41 351.28,339.5 347.16,336.81 345.06,335.5 343.03,334.16 338.94,331.53 337.34,330.66 334.81,329.22 333.12,328.38 " stroke="red" stroke-width="0.96875" stroke-linecap="round" stroke-linejoin="round" />
<polyline points="311.81,318.91 310.12,318.16 306.03,316.38 305.53,316.22 301.91,314.91 297.78,313.72 293.69,312.72 289.56,311.88 287.66,311.44 285.44,310.84 281.34,309.81 277.22,308.88 273.09,308.06 269,307.38 264.88,306.78 264.25,306.72 260.75,306.22 256.66,305.78 252.53,305.28 248.41,304.97 244.31,304.94 240.19,305.25 236.06,306.59 235.78,306.72 231.97,308.31 227.84,310.34 225.75,311.44 223.72,312.44 219.62,313.75 215.5,315.09 212.31,316.22 211.41,316.5 207.28,317.94 203.16,319.88 200.91,321 199.06,321.81 194.94,323.72 190.81,325.69 190.59,325.81 186.72,327.69 182.59,329.91 181.31,330.66 178.47,332.34 174.38,334.94 173.5,335.5 170.25,337.69 166.44,340.41 166.12,340.62 162.03,343.59 159.69,345.31 157.91,346.59 153.78,349.19 151.97,350.28 149.69,351.53 145.56,353.66 142.25,355.25 141.44,355.62 137.34,357.22 133.22,358.56 129.12,359.62 126.09,360.25 125,360.47 120.88,361.22 116.78,361.75 112.66,362.09 108.53,362.19 104.44,361.69 100.31,361 96.312,360.25 96.188,360.22 92.094,359.38 87.969,358.84 83.844,358.28 79.75,357.69 75.625,357.09 71.5,356.5 67.406,355.88 63.906,355.25 63.281,355.12 59.188,354.22 55.062,353.09 50.938,351.84 46.844,350.56 46.031,350.28 42.719,348.94 38.594,347.03 34.938,345.31 34.5,345.09 30.375,343.03 26.25,341.03 24.969,340.41 22.156,338.91 18.031,336.78 " stroke="red" stroke-width="0.96875" stroke-linecap="round" stroke-linejoin="round" />
<polyline points="311.97,321.91 312.84,321.03 314.59,321.03 315.47,321.91 315.47,323.66 314.59,324.53 311.97,324.53 311.97,326.28 315.47,326.28 " stroke="red" stroke-width="0.71875" stroke-linecap="round" stroke-linejoin="round" />
<polygon points="318.97,326.28 318.09,325.41 318.09,324.53 318.97,323.66 320.72,323.66 321.59,324.53 321.59,325.41 320.72,326.28 " stroke="red" stroke-width="0.71875" stroke-linejoin="round" />
<polyline points="318.97,323.66 318.09,322.78 318.09,321.91 318.97,321.03 320.72,321.03 321.59,321.91 321.59,322.78 320.72,323.66 " stroke="red" stroke-width="0.71875" stroke-linecap="round" stroke-linejoin="round" />
<polyline points="324.22,325.41 325.09,326.28 326.84,326.28 327.72,325.41 327.72,324.53 324.22,321.03 327.72,321.03 " stroke="red" stroke-width="0.71875" stroke-linecap="round" stroke-linejoin="round" />
<polygon points="331.22,326.28 330.34,325.41 330.34,321.91 331.22,321.03 332.97,321.03 333.84,321.91 333.84,325.41 332.97,326.28 " stroke="red" stroke-width="0.71875" stroke-linejoin="round" />
<polyline points="59.188,263.47 63.281,264.59 65.875,265.03 67.406,265.22 71.5,265.34 75.594,265.03 75.625,265.03 78.375,260.72 " stroke="red" stroke-width="0.96875" stroke-linecap="round" stroke-linejoin="round" />
<polyline points="59.781,254.09 59.188,254.09 55.062,255.56 54.188,256 54.688,260.5 55.062,260.81 59.188,263.44 59.188,263.47 " stroke="red" stroke-width="0.96875" stroke-linecap="round" stroke-linejoin="round" />
<polyline points="62.75,254.25 63.625,253.38 65.375,253.38 66.25,254.25 66.25,256 65.375,256.88 62.75,256.88 62.75,258.62 66.25,258.62 " stroke="red" stroke-width="0.71875" stroke-linecap="round" stroke-linejoin="round" />
<polygon points="69.75,258.62 68.875,257.75 68.875,256.88 69.75,256 71.5,256 72.375,256.88 72.375,257.75 71.5,258.62 " stroke="red" stroke-width="0.71875" stroke-linejoin="round" />
<polyline points="69.75,256 68.875,255.12 68.875,254.25 69.75,253.38 71.5,253.38 72.375,254.25 72.375,255.12 71.5,256 " stroke="red" stroke-width="0.71875" stroke-linecap="round" stroke-linejoin="round" />
<polygon points="75.875,258.62 75,257.75 75,256.88 75.875,256 77.625,256 78.5,256.88 78.5,257.75 77.625,258.62 " stroke="red" stroke-width="0.71875" stroke-linejoin="round" />
<polyline points="75.875,256 75,255.12 75,254.25 75.875,253.38 77.625,253.38 78.5,254.25 78.5,255.12 77.625,256 " stroke="red" stroke-width="0.71875" stroke-linecap="round" stroke-linejoin="round" />
<polygon points="82,258.62 81.125,257.75 81.125,254.25 82,253.38 83.75,253.38 84.625,254.25 84.625,257.75 83.75,258.62 " stroke="red" stroke-width="0.71875" stroke-linejoin="round" />
</g>
</svg>
