<?xml version="1.0" encoding="ISO-8859-1" standalone="no"?>
<!DOCTYPE svg PUBLIC "-//W3C//DTD SVG 1.1//EN" "http://www.w3.org/Graphics/SVG/1.1/DTD/svg11.dtd">
<svg version="1.1" baseProfile="full" id="body" width="900px" height="600px" viewBox="0 0.2 1 0.55" preserveAspectRatio="none" xmlns="http://www.w3.org/2000/svg" xmlns:xlink="http://www.w3.org/1999/xlink" xmlns:ev="http://www.w3.org/2001/xml-events">
<title>SVG drawing</title>
<desc>This was produced by version 4.2 of GNU libplot, a free library for exporting 2-D vector graphics.</desc>
<rect id="background" x="0" y="0" width="1" height="1" stroke="none" fill="none"/>
<g id="content" transform="translate(-0.03125,1.1875) scale(1,-1) scale(0.0017361) " xml:space="preserve" stroke="black" stroke-linecap="butt" stroke-linejoin="miter" stroke-miterlimit="10.433" stroke-dasharray="none" stroke-dashoffset="0" stroke-opacity="1" fill="none" fill-rule="even-odd" fill-opacity="1" font-style="normal" font-variant="normal" font-weight="normal" font-stretch="normal" font-size-adjust="none" letter-spacing="normal" word-spacing="normal" text-anchor="start">
<polyline points="488.88,563.47 489.75,562.59 491.5,562.59 492.38,563.47 492.38,565.22 491.5,566.09 488.88,566.09 488.88,567.84 492.38,567.84 " stroke="red" stroke-width="0.71875" stroke-linecap="round" stroke-linejoin="round" />
<polyline points="495,566.97 495.88,567.84 497.62,567.84 498.5,566.97 498.5,566.09 495,562.59 498.5,562.59 " stroke="red" stroke-width="0.71875" stroke-linecap="round" stroke-linejoin="round" />
<polyline points="501.12,566.97 502,567.84 503.75,567.84 504.62,566.97 504.62,566.09 501.12,562.59 504.62,562.59 " stroke="red" stroke-width="0.71875" stroke-linecap="round" stroke-linejoin="round" />
<polygon points="508.12,567.84 507.25,566.97 507.25,563.47 508.12,562.59 509.88,562.59 510.75,563.47 510.75,566.97 509.88,567.84 " stroke="red" stroke-width="0.71875" stroke-linejoin="round" />
<polyline points="138.91,568.66 138.88,568.62 137.34,567.38 133.22,563.78 131,561.84 129.12,560.59 125,558.66 120.88,559.56 116.78,561.19 115.34,561.84 112.66,563.53 108.53,565.72 104.44,566.19 101.44,566.34 " stroke="red" stroke-width="0.96875" stroke-linecap="round" stroke-linejoin="round" />
<polyline points="74.5,567.28 71.5,566.06 67.406,564.09 63.281,561.94 63.062,561.84 59.188,560.22 55.062,560.78 50.938,561.72 50.562,561.84 46.844,562.88 42.719,563.88 38.594,564.19 34.5,564.19 30.375,563.91 26.25,563.25 22.156,562.06 21.625,561.84 18.031,560.16 " stroke="red" stroke-width="0.96875" stroke-linecap="round" stroke-linejoin="round" />
<polyline points="77.469,565.38 78.344,564.5 80.094,564.5 80.969,565.38 80.969,567.12 80.094,568 77.469,568 77.469,568.66 " stroke="red" stroke-width="0.71875" stroke-linecap="round" stroke-linejoin="round" />
<polyline points="87.094,568.66 87.094,568 83.594,564.5 87.094,564.5 " stroke="red" stroke-width="0.71875" stroke-linecap="round" stroke-linejoin="round" />
<polyline points="89.719,568.66 89.719,568 90.594,567.12 92.344,567.12 93.219,568 93.219,568.66 " stroke="red" stroke-width="0.71875" stroke-linecap="round" stroke-linejoin="round" />
<polyline points="90.594,567.12 89.719,566.25 89.719,565.38 90.594,564.5 92.344,564.5 93.219,565.38 93.219,566.25 92.344,567.12 " stroke="red" stroke-width="0.71875" stroke-linecap="round" stroke-linejoin="round" />
<polyline points="95.844,568.66 95.844,565.38 96.719,564.5 98.469,564.5 99.344,565.38 99.344,568.66 " stroke="red" stroke-width="0.71875" stroke-linecap="round" stroke-linejoin="round" />
<polyline points="451.88,568.66 451.88,568.62 452.97,561.84 454.12,557.09 454.66,555.12 457.12,548.47 458.25,546.12 460.31,541.91 462.34,538.41 464.22,535.38 466.47,532.28 469.12,528.97 470.56,527.28 474.69,523.59 476.19,522.59 478.81,521.16 482.53,519.97 " stroke="red" stroke-width="0.96875" stroke-linecap="round" stroke-linejoin="round" />
<polyline points="503.75,527.31 505.94,528.97 507.59,530.31 511.72,534.28 512.75,535.38 515.84,538.97 518.19,541.91 519.94,544.19 523.44,548.47 524.06,549.25 528.19,554.44 528.69,555.12 532.28,559.78 533.84,561.84 536.41,565.25 538.78,568.62 538.81,568.66 " stroke="red" stroke-width="0.96875" stroke-linecap="round" stroke-linejoin="round" />
<polyline points="485.5,520.84 486.38,519.97 488.12,519.97 489,520.84 489,522.59 488.12,523.47 485.5,523.47 485.5,525.22 489,525.22 " stroke="red" stroke-width="0.71875" stroke-linecap="round" stroke-linejoin="round" />
<polyline points="491.62,524.34 492.5,525.22 494.25,525.22 495.12,524.34 495.12,523.47 491.62,519.97 495.12,519.97 " stroke="red" stroke-width="0.71875" stroke-linecap="round" stroke-linejoin="round" />
<polygon points="498.62,525.22 497.75,524.34 497.75,523.47 498.62,522.59 500.38,522.59 501.25,523.47 501.25,524.34 500.38,525.22 " stroke="red" stroke-width="0.71875" stroke-linejoin="round" />
<polyline points="498.62,522.59 497.75,521.72 497.75,520.84 498.62,519.97 500.38,519.97 501.25,520.84 501.25,521.72 500.38,522.59 " stroke="red" stroke-width="0.71875" stroke-linecap="round" stroke-linejoin="round" />
<polygon points="504.75,525.22 503.88,524.34 503.88,520.84 504.75,519.97 506.5,519.97 507.38,520.84 507.38,524.34 506.5,525.22 " stroke="red" stroke-width="0.71875" stroke-linejoin="round" />
<polyline points="197.53,568.66 197.47,568.62 194.94,567.28 190.81,564.94 186.72,562.34 185.94,561.84 182.59,559.84 178.47,557.44 174.38,555.12 174.38,555.09 170.25,553.97 166.12,552.97 162.03,551.91 157.91,550.66 154.25,548.47 153.78,548.19 149.69,545.25 145.84,541.91 145.56,541.66 141.88,538.5 " stroke="red" stroke-width="0.96875" stroke-linecap="round" stroke-linejoin="round" />
<polyline points="119.75,532.34 116.78,532.72 112.66,533.28 108.53,533.62 104.44,532.25 100.31,530.28 98,528.97 96.188,528.19 92.094,526.47 87.969,525.78 83.844,525.44 79.75,525.41 75.625,525.56 71.5,525.94 67.406,526.44 63.281,526.97 59.188,527.44 55.062,527.41 50.938,527.31 46.844,527.22 42.719,527.22 38.594,527.62 34.5,528.16 30.375,528.78 29.25,528.97 26.25,529.66 22.156,530.34 18.031,530.94 " stroke="red" stroke-width="0.96875" stroke-linecap="round" stroke-linejoin="round" />
<polyline points="122.72,532 123.59,531.12 125.34,531.12 126.22,532 126.22,533.75 125.34,534.62 122.72,534.62 122.72,536.38 126.22,536.38 " stroke="red" stroke-width="0.71875" stroke-linecap="round" stroke-linejoin="round" />
<polyline points="128.84,535.5 129.72,536.38 131.47,536.38 132.34,535.5 132.34,534.62 131.47,533.75 130.59,533.75 131.47,533.75 132.34,532.88 132.34,532 131.47,531.12 129.72,531.12 128.84,532 " stroke="red" stroke-width="0.71875" stroke-linecap="round" stroke-linejoin="round" />
<polyline points="136.72,536.38 134.97,533.75 138.47,533.75 138.47,536.38 138.47,531.12 " stroke="red" stroke-width="0.71875" stroke-linecap="round" stroke-linejoin="round" />
<polygon points="141.97,536.38 141.09,535.5 141.09,532 141.97,531.12 143.72,531.12 144.59,532 144.59,535.5 143.72,536.38 " stroke="red" stroke-width="0.71875" stroke-linejoin="round" />
<polyline points="420.09,568.66 420.09,568.62 421.22,566.28 423.03,561.84 425.31,556.34 425.78,555.12 428.34,548.47 429.44,545.78 430.97,541.91 433.56,535.94 433.78,535.38 437.06,528.97 437.66,528.03 441.47,522.59 441.78,522.19 445.91,517.19 446.66,516.28 450,512.81 452.81,510.06 454.12,508.91 458.25,505.03 459.59,503.88 462.34,502.03 466.47,499.78 470.56,498.03 471.62,497.75 473.56,497.28 " stroke="red" stroke-width="0.96875" stroke-linecap="round" stroke-linejoin="round" />
<polyline points="499.41,501.34 503.5,503.81 503.59,503.88 507.59,506.03 511.72,508.53 513.88,510.06 515.84,511.56 519.94,515.28 520.88,516.28 524.06,520.03 526.12,522.59 528.19,525.25 530.97,528.97 532.28,530.62 535.97,535.38 536.41,535.97 540.53,541.72 540.66,541.91 544.62,547.53 545.28,548.47 548.75,553.34 550.03,555.12 552.88,559 555.03,561.84 556.97,564.34 560.38,568.62 560.41,568.66 " stroke="red" stroke-width="0.96875" stroke-linecap="round" stroke-linejoin="round" />
<polyline points="476.53,494.88 477.41,494 479.16,494 480.03,494.88 480.03,496.62 479.16,497.5 476.53,497.5 476.53,499.25 480.03,499.25 " stroke="red" stroke-width="0.71875" stroke-linecap="round" stroke-linejoin="round" />
<polyline points="482.66,498.38 483.53,499.25 485.28,499.25 486.16,498.38 486.16,497.5 485.28,496.62 484.41,496.62 485.28,496.62 486.16,495.75 486.16,494.88 485.28,494 483.53,494 482.66,494.88 " stroke="red" stroke-width="0.71875" stroke-linecap="round" stroke-linejoin="round" />
<polyline points="490.53,499.25 488.78,496.62 492.28,496.62 492.28,499.25 492.28,494 " stroke="red" stroke-width="0.71875" stroke-linecap="round" stroke-linejoin="round" />
<polygon points="495.78,499.25 494.91,498.38 494.91,494.88 495.78,494 497.53,494 498.41,494.88 498.41,498.38 497.53,499.25 " stroke="red" stroke-width="0.71875" stroke-linejoin="round" />
<polyline points="236.31,568.66 236.25,568.62 236.06,568.53 231.97,566.66 227.84,564.81 223.72,563 221.16,561.84 219.62,561.12 215.5,559.22 211.41,557.25 207.28,555.19 207.12,555.12 203.16,553.12 199.06,551.03 194.94,548.91 194.09,548.47 190.81,546.84 186.72,544.78 182.59,542.78 180.69,541.91 178.47,540.91 174.38,539.22 170.25,538.06 166.12,536.91 162.03,535.53 161.66,535.38 157.91,533.84 157.72,533.69 " stroke="red" stroke-width="0.96875" stroke-linecap="round" stroke-linejoin="round" />
<polyline points="145.03,524.22 141.97,522.59 141.44,522.34 137.34,521.03 133.22,520 129.12,519.19 125,518.56 120.88,518.59 116.78,518.69 112.66,518.69 108.53,518.47 104.44,516.84 103.22,516.28 100.31,514.94 96.188,512.97 92.094,511.19 87.969,510.84 83.844,510.91 79.75,511.19 75.625,511.59 71.5,511.59 67.406,511.62 63.281,511.62 59.188,511.69 55.062,511.78 50.938,511.91 46.844,512.06 42.719,512.22 38.594,512.41 34.5,512.59 30.375,512.84 26.25,513.06 22.156,513.56 18.031,514 " stroke="red" stroke-width="0.96875" stroke-linecap="round" stroke-linejoin="round" />
<polyline points="141.25,527.22 142.12,526.34 143.88,526.34 144.75,527.22 144.75,528.97 143.88,529.84 141.25,529.84 141.25,531.59 144.75,531.59 " stroke="red" stroke-width="0.71875" stroke-linecap="round" stroke-linejoin="round" />
<polyline points="149.12,531.59 147.38,528.97 150.88,528.97 150.88,531.59 150.88,526.34 " stroke="red" stroke-width="0.71875" stroke-linecap="round" stroke-linejoin="round" />
<polygon points="154.38,531.59 153.5,530.72 153.5,527.22 154.38,526.34 156.12,526.34 157,527.22 157,530.72 156.12,531.59 " stroke="red" stroke-width="0.71875" stroke-linejoin="round" />
<polygon points="160.5,531.59 159.62,530.72 159.62,527.22 160.5,526.34 162.25,526.34 163.12,527.22 163.12,530.72 162.25,531.59 " stroke="red" stroke-width="0.71875" stroke-linejoin="round" />
<polyline points="370.66,568.66 370.69,568.62 371.84,567.56 375.97,564.12 378.69,561.84 380.06,560.62 384.19,556.94 386.09,555.12 388.31,552.94 392.28,548.47 392.41,548.31 396.53,543.12 397.44,541.91 400.62,537.41 402,535.38 404.75,531.19 406.16,528.97 408.88,524.69 410.22,522.59 412.97,518.34 414.31,516.28 417.09,512.16 418.53,510.06 421.22,506.16 422.84,503.88 425.31,499.09 426.16,497.75 429.44,493.28 431,491.69 433.56,489.62 437.66,487.22 441.31,485.69 441.78,485.53 445.91,484.28 450,483.28 454.12,482.44 457.09,481.66 " stroke="red" stroke-width="0.96875" stroke-linecap="round" stroke-linejoin="round" />
<polyline points="484.06,479.5 485.75,479.75 487.03,479.88 491.16,480.53 495.25,481.5 499.38,482.88 503.5,484.62 505.41,485.69 507.59,486.94 511.72,489.5 515.06,491.69 515.84,492.22 519.94,495.12 523.16,497.75 524.06,498.53 528.19,502.28 529.84,503.88 532.28,506.69 535.06,510.06 536.41,511.75 539.75,516.28 540.53,517.38 544.25,522.59 544.62,523.09 548.75,528.72 548.94,528.97 552.88,534.31 553.69,535.38 556.97,539.78 558.62,541.91 561.09,545 564,548.47 565.19,549.88 569.31,554.47 569.91,555.12 573.44,559.03 575.97,561.84 577.53,563.53 581.66,567.91 582.34,568.62 582.38,568.66 " stroke="red" stroke-width="0.96875" stroke-linecap="round" stroke-linejoin="round" />
<polyline points="460.06,477.41 460.94,476.53 462.69,476.53 463.56,477.41 463.56,479.16 462.69,480.03 460.06,480.03 460.06,481.78 463.56,481.78 " stroke="red" stroke-width="0.71875" stroke-linecap="round" stroke-linejoin="round" />
<polyline points="467.94,481.78 466.19,479.16 469.69,479.16 469.69,481.78 469.69,476.53 " stroke="red" stroke-width="0.71875" stroke-linecap="round" stroke-linejoin="round" />
<polygon points="473.19,481.78 472.31,480.91 472.31,477.41 473.19,476.53 474.94,476.53 475.81,477.41 475.81,480.91 474.94,481.78 " stroke="red" stroke-width="0.71875" stroke-linejoin="round" />
<polygon points="479.31,481.78 478.44,480.91 478.44,477.41 479.31,476.53 481.06,476.53 481.94,477.41 481.94,480.91 481.06,481.78 " stroke="red" stroke-width="0.71875" stroke-linejoin="round" />
<polyline points="594,556.06 592.97,555.12 589.88,551.94 586.38,548.47 585.78,547.88 581.66,543.84 579.59,541.91 577.53,540 573.44,536.19 572.59,535.38 569.31,532.31 566.34,528.97 565.19,527.56 561.16,522.59 561.09,522.5 556.97,517.5 555.97,516.28 552.88,512.66 550.81,510.06 548.75,507.44 545.97,503.88 544.62,502.31 540.56,497.75 540.53,497.69 536.41,493.59 534.34,491.69 532.28,489.84 528.19,486.28 527.47,485.69 524.06,482.91 520,479.75 519.94,479.72 515.84,476.84 511.72,474.16 511.19,473.84 507.59,471.69 503.5,469.41 500.53,468 499.38,467.44 495.25,465.62 491.16,463.91 487.03,462.25 486.81,462.19 482.91,461.09 478.81,460.16 474.69,459.38 470.56,458.75 466.47,457.91 462.34,457.16 458.25,456.5 457.75,456.47 454.12,456.19 450,456.19 445.91,456.34 444.53,456.47 441.78,456.81 437.66,457.56 433.56,458.44 429.44,459.5 425.31,460.84 421.97,462.19 421.22,462.56 417.09,465.06 412.97,467.97 412.97,468 408.88,471.84 406.88,473.84 404.75,476.34 401.88,479.75 400.62,481.75 398.16,485.69 396.53,488.5 394.59,491.69 392.41,495.47 391.03,497.75 388.31,502.22 387.34,503.88 384.19,508.81 383.38,510.06 380.06,514.88 379.03,516.28 375.97,520.34 374.16,522.59 371.84,525.34 369.12,528.97 367.72,530.69 363.81,535.38 363.62,535.62 359.5,540.03 357.59,541.91 355.59,543.75 " stroke="red" stroke-width="0.96875" stroke-linecap="round" stroke-linejoin="round" />
<polyline points="341.12,553.19 338.94,554.34 336.94,555.12 334.81,555.94 330.69,557.25 326.59,558.31 322.47,559.22 318.34,560.22 314.25,561.06 310.12,561.75 309.44,561.84 306.03,562.25 301.91,562.41 297.78,562.44 293.69,562.34 289.56,562.16 285.44,562.16 281.34,562.03 277.91,561.84 277.22,561.78 273.09,561.38 269,560.66 264.88,559.75 260.75,558.72 256.66,557.53 252.53,555.97 250.44,555.12 248.41,554.31 244.31,552.62 240.19,551 236.06,549.66 232.25,548.47 231.97,548.38 227.84,547.09 223.72,545.75 219.62,544.22 215.5,542.62 213.78,541.91 211.41,540.91 207.28,539.09 203.16,537.28 199.06,535.5 198.84,535.38 194.94,533.69 190.81,531.94 186.72,530.16 183.84,528.97 182.59,528.41 178.47,526.62 174.38,524.94 170.25,523.38 168.47,522.59 166.12,521.5 162.03,519.28 157.91,516.81 157,516.28 153.78,514.53 149.69,512.81 145.56,511.56 141.44,510.62 139.06,510.06 137.34,509.62 133.22,508.72 129.12,507.88 125,507.12 120.88,506.94 116.78,506.72 112.66,506.41 108.53,505.78 104.44,503.91 104.34,503.88 100.31,501.72 96.188,499.81 92.094,498.31 87.969,497.94 83.844,497.81 79.75,497.88 75.625,498.03 71.938,497.75 71.5,497.72 67.406,497.38 63.281,497.09 59.188,496.88 55.062,496.91 50.938,497.03 46.844,497.22 42.719,497.38 38.594,497.38 34.5,497.31 30.375,497.25 26.25,497.19 22.156,497.34 18.031,497.44 " stroke="red" stroke-width="0.96875" stroke-linecap="round" stroke-linejoin="round" />
<polyline points="338.59,546.72 339.47,545.84 341.22,545.84 342.09,546.72 342.09,548.47 341.22,549.34 338.59,549.34 338.59,551.09 342.09,551.09 " stroke="red" stroke-width="0.71875" stroke-linecap="round" stroke-linejoin="round" />
<polyline points="346.47,551.09 344.72,548.47 348.22,548.47 348.22,551.09 348.22,545.84 " stroke="red" stroke-width="0.71875" stroke-linecap="round" stroke-linejoin="round" />
<polyline points="354.34,550.22 353.47,551.09 351.72,551.09 350.84,550.22 350.84,546.72 351.72,545.84 353.47,545.84 354.34,546.72 354.34,547.59 353.47,548.47 350.84,548.47 " stroke="red" stroke-width="0.71875" stroke-linecap="round" stroke-linejoin="round" />
<polygon points="357.84,551.09 356.97,550.22 356.97,546.72 357.84,545.84 359.59,545.84 360.47,546.72 360.47,550.22 359.59,551.09 " stroke="red" stroke-width="0.71875" stroke-linejoin="round" />
<polyline points="594,529.88 592.97,528.97 589.88,525.94 585.88,522.59 585.78,522.5 581.66,519.19 578.22,516.28 577.53,515.72 573.44,511.97 571.44,510.06 569.31,507.97 565.19,503.94 565.12,503.88 561.09,500.09 558.62,497.75 556.97,496.25 552.88,492.41 552.19,491.69 548.75,488.34 545.88,485.69 544.62,484.59 540.53,481.12 538.78,479.75 536.41,477.75 532.28,474.34 531.66,473.84 528.19,471.19 524.06,468.34 523.5,468 519.94,465.75 515.84,463.12 514.31,462.19 511.72,460.59 507.59,458.19 504.56,456.47 503.5,455.84 499.38,453.78 495.25,451.94 492.34,450.75 491.16,450.31 487.03,448.94 482.91,447.97 478.81,447.19 474.69,446.5 470.56,445.91 466.47,445.16 466.16,445.12 462.34,444.5 458.25,443.94 454.12,443.5 450,443.38 445.91,443.38 441.78,443.56 437.66,443.84 433.56,444.19 429.44,444.69 426.75,445.12 425.31,445.38 421.22,446.28 417.09,447.59 412.97,449.19 409.53,450.75 408.88,451.09 404.75,453.53 400.88,456.47 400.62,456.66 396.53,460.59 394.88,462.19 392.41,464.72 389.12,468 388.31,468.88 384.19,473.03 383.38,473.84 380.06,477.56 378.19,479.75 375.97,482.78 373.75,485.69 371.84,488.25 369.12,491.69 367.72,493.5 364.25,497.75 363.62,498.56 359.5,503.41 359.09,503.88 355.38,508.16 353.34,510.06 351.28,511.97 349.56,513.34 " stroke="red" stroke-width="0.96875" stroke-linecap="round" stroke-linejoin="round" />
<polyline points="334.31,522.78 330.69,524.38 326.59,525.94 322.47,527.31 318.34,528.66 317.38,528.97 314.25,529.91 310.12,531.09 306.03,532.16 301.91,533.03 297.78,533.81 293.69,534.44 289.56,534.94 285.59,535.38 285.44,535.41 281.34,535.75 277.22,535.97 273.09,536.09 269,536.12 264.88,536 260.75,535.72 257.78,535.38 256.66,535.25 252.53,534.44 248.41,533.5 244.31,532.53 240.19,531.56 236.06,530.81 231.97,530.03 227.84,529.19 226.91,528.97 223.72,528.06 219.62,526.5 215.5,524.88 211.41,523.22 209.84,522.59 207.28,521.53 203.16,519.91 199.06,518.34 194.94,516.84 193.38,516.28 190.81,515.34 186.72,513.97 182.59,512.62 178.47,511.22 175.34,510.06 174.38,509.66 170.25,507.16 166.12,504.34 165.47,503.88 162.03,501.41 157.91,498.97 153.78,498.16 150.22,497.75 149.69,497.69 145.56,497.41 141.44,497.19 137.34,496.41 133.22,495.66 129.12,494.91 125,494.19 120.88,493.53 116.78,492.75 112.66,491.78 112.31,491.69 108.53,490.53 104.44,489 100.31,487.66 96.188,486.56 92.219,485.69 92.094,485.66 87.969,484.75 83.844,483.81 79.75,482.88 75.625,481.94 71.5,481.41 67.406,481.06 63.281,480.81 59.188,480.62 55.062,480.31 50.938,479.97 47.969,479.75 46.844,479.62 42.719,479.28 38.594,479 34.5,478.75 30.375,478.5 26.25,478.22 22.156,477.97 18.031,477.69 " stroke="red" stroke-width="0.96875" stroke-linecap="round" stroke-linejoin="round" />
<polyline points="332.53,516.31 333.41,515.44 335.16,515.44 336.03,516.31 336.03,518.06 335.16,518.94 332.53,518.94 332.53,520.69 336.03,520.69 " stroke="red" stroke-width="0.71875" stroke-linecap="round" stroke-linejoin="round" />
<polyline points="338.66,516.31 339.53,515.44 341.28,515.44 342.16,516.31 342.16,518.06 341.28,518.94 338.66,518.94 338.66,520.69 342.16,520.69 " stroke="red" stroke-width="0.71875" stroke-linecap="round" stroke-linejoin="round" />
<polyline points="344.78,519.81 345.66,520.69 347.41,520.69 348.28,519.81 348.28,518.94 344.78,515.44 348.28,515.44 " stroke="red" stroke-width="0.71875" stroke-linecap="round" stroke-linejoin="round" />
<polygon points="351.78,520.69 350.91,519.81 350.91,516.31 351.78,515.44 353.53,515.44 354.41,516.31 354.41,519.81 353.53,520.69 " stroke="red" stroke-width="0.71875" stroke-linejoin="round" />
<polyline points="594,501.81 589.88,498.69 588.5,497.75 585.78,496.03 581.66,493 579.91,491.69 577.53,489.94 573.44,486.88 571.81,485.69 569.31,483.84 565.19,480.88 563.66,479.75 561.09,477.88 556.97,474.91 555.5,473.84 552.88,471.97 548.75,468.91 547.5,468 544.62,465.88 540.53,462.88 539.56,462.19 536.41,460 532.28,457.56 530.28,456.47 528.19,455.28 524.06,453.03 519.94,450.91 519.72,450.75 515.84,448.53 511.72,446.38 509.09,445.12 507.59,444.41 503.5,442.62 499.38,441.03 495.25,439.59 495,439.5 491.16,438.28 487.03,437.12 482.91,436.28 478.81,435.53 474.69,434.84 470.56,434.22 469.12,433.97 466.47,433.38 462.34,432.56 458.25,431.88 454.12,431.34 450,431.09 445.91,431 441.78,431.03 437.66,431.16 433.56,431.34 429.44,431.69 425.31,432.16 421.22,432.81 417.09,433.84 416.78,433.97 412.97,435 408.88,436.34 404.75,437.97 401.59,439.5 400.62,440 396.53,442.41 392.56,445.12 392.41,445.22 388.31,448.41 385.03,450.75 384.19,451.41 380.06,454.53 377.53,456.47 375.97,457.72 371.84,461.12 370.62,462.19 367.72,464.84 364.31,468 363.62,468.69 359.5,472.5 358,473.84 355.38,476.25 351.28,479.56 351.06,479.75 347.16,482.75 343.06,485.69 343.03,485.69 341.09,486.97 " stroke="red" stroke-width="0.96875" stroke-linecap="round" stroke-linejoin="round" />
<polyline points="324.59,496.41 322.47,497.38 321.53,497.75 318.34,498.97 314.25,500.31 310.12,501.5 306.03,502.5 301.91,503.28 298.19,503.88 297.78,503.94 293.69,504.53 289.56,505.09 285.44,505.84 281.34,506.56 277.22,507.22 273.09,507.81 269,508.34 264.88,508.78 260.75,509.06 256.66,509.16 252.53,509 248.41,508.66 244.31,508.16 240.19,507.5 236.06,506.62 231.97,505.62 227.84,504.53 225.5,503.88 223.72,503.38 219.62,502.41 215.5,501.44 211.41,500.5 207.28,499.56 203.16,498.62 199.47,497.75 199.06,497.66 194.94,496.59 190.81,495.44 186.72,494.28 182.59,492.91 179.56,491.69 178.47,491.22 174.38,489.16 170.25,486.44 168.97,485.69 166.12,484.06 162.03,482.09 157.91,480.59 153.78,479.75 153.59,479.75 149.69,479.06 145.56,478.53 141.44,478.16 137.34,478.25 133.22,478.34 129.12,478.31 125,478 120.88,476.69 116.78,475.12 113.41,473.84 112.66,473.53 108.53,471.91 104.44,471.12 100.31,470.47 96.188,469.81 92.094,469.03 89.094,468 87.969,467.56 83.844,465.91 79.75,464.41 75.625,463.06 71.5,462.31 70.875,462.19 67.406,461.66 63.281,461.09 59.188,460.56 55.062,459.97 50.938,459.41 46.844,458.81 42.719,458.22 38.594,457.5 34.5,456.72 33.156,456.47 30.375,455.91 26.25,455.09 22.156,454.44 18.031,453.81 " stroke="red" stroke-width="0.96875" stroke-linecap="round" stroke-linejoin="round" />
<polyline points="323.19,489.94 324.06,489.06 325.81,489.06 326.69,489.94 326.69,491.69 325.81,492.56 323.19,492.56 323.19,494.31 326.69,494.31 " stroke="red" stroke-width="0.71875" stroke-linecap="round" stroke-linejoin="round" />
<polyline points="329.31,489.94 330.19,489.06 331.94,489.06 332.81,489.94 332.81,491.69 331.94,492.56 329.31,492.56 329.31,494.31 332.81,494.31 " stroke="red" stroke-width="0.71875" stroke-linecap="round" stroke-linejoin="round" />
<polygon points="336.31,494.31 335.44,493.44 335.44,492.56 336.31,491.69 338.06,491.69 338.94,492.56 338.94,493.44 338.06,494.31 " stroke="red" stroke-width="0.71875" stroke-linejoin="round" />
<polyline points="336.31,491.69 335.44,490.81 335.44,489.94 336.31,489.06 338.06,489.06 338.94,489.94 338.94,490.81 338.06,491.69 " stroke="red" stroke-width="0.71875" stroke-linecap="round" stroke-linejoin="round" />
<polygon points="342.44,494.31 341.56,493.44 341.56,489.94 342.44,489.06 344.19,489.06 345.06,489.94 345.06,493.44 344.19,494.31 " stroke="red" stroke-width="0.71875" stroke-linejoin="round" />
<polyline points="594,467.56 589.88,466.16 585.78,464.78 581.66,462.94 580.09,462.19 577.53,461.03 573.44,459.16 569.31,457.28 567.59,456.47 565.19,455.34 561.09,453.28 556.97,451.19 556.19,450.75 552.88,448.94 548.75,446.53 546.28,445.12 544.62,444.19 540.53,441.94 536.41,439.91 535.56,439.5 532.28,438 528.19,436.12 524.06,434.38 523.03,433.97 519.94,432.62 515.84,431.03 511.72,429.5 508.69,428.44 507.59,428.03 503.5,426.5 499.38,425.03 495.25,423.69 492.81,422.97 491.16,422.44 487.03,421.28 482.91,420.34 478.81,419.53 474.69,418.78 470.56,418.16 466.53,417.53 466.47,417.53 462.34,416.94 458.25,416.44 454.12,416 450,415.69 445.91,415.47 441.78,415.34 437.66,415.31 433.56,415.47 429.44,415.72 425.31,416.12 421.22,416.69 417.09,417.5 416.88,417.53 412.97,418.38 408.88,419.38 404.75,420.53 400.62,421.69 396.84,422.97 396.53,423.06 392.41,424.59 388.31,426.41 384.38,428.44 384.19,428.56 380.06,430.81 375.97,433.34 375,433.97 371.84,435.72 367.72,438 365.16,439.5 363.62,440.44 359.5,442.91 356.03,445.12 355.38,445.53 351.28,447.97 347.16,450.34 346.41,450.75 343.03,452.62 338.94,454.81 336.06,456.47 334.81,457.12 334.16,457.47 " stroke="red" stroke-width="0.96875" stroke-linecap="round" stroke-linejoin="round" />
<polyline points="314.66,466.94 314.25,467.09 311.84,468 310.12,468.59 306.03,469.88 301.91,470.97 297.78,471.91 293.69,472.75 289.56,473.47 287.5,473.84 285.44,474.19 281.34,474.81 277.22,475.41 273.09,475.94 269,476.44 264.88,476.91 260.75,477.28 256.66,477.59 252.53,477.81 248.41,477.88 244.31,477.84 240.19,477.66 236.06,477.16 231.97,476.56 227.84,475.91 223.72,475.25 219.62,475.03 215.5,474.81 211.41,474.53 207.28,474.12 206.06,473.84 203.16,473.12 199.06,471.88 194.94,470.31 190.81,468.59 188.97,468 186.72,467.28 182.59,466.06 178.47,464.97 174.38,463.88 170.25,462.38 169.81,462.19 166.12,460.75 162.03,459.16 157.91,457.66 154.34,456.47 153.78,456.28 149.69,455.09 145.56,454.09 141.44,453.28 137.34,453 133.22,452.75 129.12,452.5 125,452.09 120.88,451.06 119.78,450.75 116.78,449.94 112.66,448.81 108.53,447.78 104.44,446.81 100.31,445.78 97.844,445.12 96.188,444.66 92.094,443.41 87.969,442.03 83.844,440.75 79.75,439.59 79.438,439.5 75.625,438.53 71.5,437.78 67.406,437.09 63.281,436.47 59.188,435.78 55.062,434.97 50.938,434.09 50.375,433.97 46.844,433.09 42.719,432.06 38.594,431.09 34.5,430.12 30.375,429.22 26.688,428.44 26.25,428.34 22.156,427.72 18.031,427.09 " stroke="red" stroke-width="0.96875" stroke-linecap="round" stroke-linejoin="round" />
<polyline points="314.62,460.44 315.5,459.56 317.25,459.56 318.12,460.44 318.12,462.19 317.25,463.06 314.62,463.06 314.62,464.81 318.12,464.81 " stroke="red" stroke-width="0.71875" stroke-linecap="round" stroke-linejoin="round" />
<polyline points="324.25,463.94 323.38,464.81 321.62,464.81 320.75,463.94 320.75,460.44 321.62,459.56 323.38,459.56 324.25,460.44 324.25,461.31 323.38,462.19 320.75,462.19 " stroke="red" stroke-width="0.71875" stroke-linecap="round" stroke-linejoin="round" />
<polyline points="328.62,464.81 326.88,462.19 330.38,462.19 330.38,464.81 330.38,459.56 " stroke="red" stroke-width="0.71875" stroke-linecap="round" stroke-linejoin="round" />
<polygon points="333.88,464.81 333,463.94 333,460.44 333.88,459.56 335.62,459.56 336.5,460.44 336.5,463.94 335.62,464.81 " stroke="red" stroke-width="0.71875" stroke-linejoin="round" />
<polyline points="594,420.81 589.88,421.44 585.78,422.09 581.66,422.31 577.53,422.38 573.44,422.28 569.31,422 565.19,421.44 561.09,420.75 556.97,419.97 552.88,419.09 548.75,418.16 546.22,417.53 544.62,417.12 540.53,416 536.41,414.75 532.28,413.38 528.72,412.16 528.19,411.94 524.06,410.34 519.94,408.84 515.84,407.41 513.97,406.78 511.72,406.03 507.59,404.75 503.5,403.56 499.38,402.47 495.41,401.47 495.25,401.44 491.16,400.38 487.03,399.34 482.91,398.34 478.81,397.34 474.69,396.44 473.66,396.22 470.56,395.5 466.47,394.72 462.34,394.06 458.25,393.5 454.12,393.09 450,392.84 445.91,392.75 441.78,392.72 437.66,392.75 433.56,392.75 429.44,392.81 425.31,392.91 421.22,393.09 417.09,393.31 412.97,393.59 408.88,393.94 404.75,394.38 400.62,394.84 396.53,395.31 392.41,395.81 389.44,396.22 388.31,396.34 384.19,396.88 380.06,397.47 375.97,398.16 371.84,398.97 367.72,399.94 363.62,401.09 362.38,401.47 359.5,402.41 355.38,403.88 351.28,405.47 348.19,406.78 347.16,407.25 343.03,409.12 338.94,411.16 337.09,412.16 334.81,413.41 330.69,415.69 327.38,417.53 326.59,417.94 322.47,420.12 318.34,422.38 317.25,422.97 314.72,424.31 " stroke="red" stroke-width="0.96875" stroke-linecap="round" stroke-linejoin="round" />
<polyline points="297.09,433.78 296.75,433.97 293.69,435.47 289.56,437.25 285.44,438.78 283.19,439.5 281.34,440.06 277.22,441.12 273.09,442.03 269,442.69 264.88,443.22 260.75,443.56 256.66,443.81 252.53,443.88 248.41,443.88 244.31,443.81 240.19,443.78 236.06,443.94 231.97,444.12 227.84,444.31 223.72,444.47 219.62,444.84 216.16,445.12 215.5,445.16 211.41,445.25 209.5,445.12 207.28,444.94 203.16,443.38 199.06,441.59 194.94,439.81 194.16,439.5 190.81,438.16 186.72,437.09 182.59,436.09 178.47,435.16 174.38,434.25 172.81,433.97 170.25,433.56 166.12,432.94 162.03,432.41 157.91,431.84 153.78,431.34 149.69,430.78 145.56,430.09 141.44,429.22 139.38,428.44 137.34,427.66 133.22,426.03 129.12,424.47 125,423.03 124.59,422.97 120.88,422.28 116.78,421.56 112.66,420.81 108.53,419.94 104.44,418.41 102.19,417.53 100.31,416.78 96.188,415.12 92.094,413.66 87.969,412.88 83.844,412.25 83,412.16 79.75,411.69 75.625,410.97 71.5,409.62 67.406,408.12 63.781,406.78 63.281,406.62 59.188,405.12 55.062,403.88 50.938,402.62 47.156,401.47 46.844,401.38 42.719,400.19 38.594,398.94 34.5,397.72 30.375,396.53 29.219,396.22 26.25,395.41 22.156,394.44 18.031,393.47 " stroke="red" stroke-width="0.96875" stroke-linecap="round" stroke-linejoin="round" />
<polyline points="295.53,427.31 296.41,426.44 298.16,426.44 299.03,427.31 299.03,429.06 298.16,429.94 295.53,429.94 295.53,431.69 299.03,431.69 " stroke="red" stroke-width="0.71875" stroke-linecap="round" stroke-linejoin="round" />
<polyline points="301.66,431.69 305.16,431.69 303.41,426.44 " stroke="red" stroke-width="0.71875" stroke-linecap="round" stroke-linejoin="round" />
<polygon points="308.66,431.69 307.78,430.81 307.78,427.31 308.66,426.44 310.41,426.44 311.28,427.31 311.28,430.81 310.41,431.69 " stroke="red" stroke-width="0.71875" stroke-linejoin="round" />
<polygon points="314.78,431.69 313.91,430.81 313.91,427.31 314.78,426.44 316.53,426.44 317.41,427.31 317.41,430.81 316.53,431.69 " stroke="red" stroke-width="0.71875" stroke-linejoin="round" />
<polyline points="594,357 590.97,360.25 589.88,361.38 585.78,364.97 585.28,365.28 581.66,367.59 577.53,369.66 575.75,370.38 573.44,371.22 569.31,372.44 565.19,373.69 561.09,374.69 556.97,375.41 556.47,375.47 552.88,375.84 548.75,375.81 544.62,375.56 543.84,375.47 540.53,375.06 536.41,374.41 532.28,373.47 528.19,372.47 524.06,371.41 519.94,370.47 518.12,370.38 515.84,370.25 511.72,370.12 507.59,370.03 503.5,369.91 499.38,369.34 495.25,368.69 491.16,367.97 487.03,367.19 482.91,366.25 478.81,365.38 478.34,365.28 474.69,364.56 470.56,363.88 466.47,363.5 462.34,363.16 458.25,362.72 454.12,362.19 450,361.34 445.91,360.47 444.81,360.25 441.78,359.62 437.66,358.81 433.56,357.97 429.44,357.09 425.31,356.16 421.28,355.25 421.22,355.22 417.09,354.38 412.97,353.56 408.88,352.81 404.75,352.09 400.62,351.53 396.53,350.88 393.38,350.28 392.41,350 388.31,348.53 384.19,345.59 383.84,345.31 380.06,341.59 378.88,340.41 375.97,336.97 374.62,335.5 371.84,332.09 370.75,330.66 368.16,325.81 367.72,324.66 366.62,321 365.44,316.22 364.12,311.44 363.62,310.56 360.66,306.72 359.5,305.78 355.38,303.78 351.28,302.94 347.16,302.94 343.03,303.84 338.94,305.88 338.22,306.72 335.12,311.44 334.81,314.78 334.69,316.22 334.81,317.97 335.09,321 336.31,325.81 338.25,330.66 338.94,334.31 339.31,335.5 340.19,340.41 340.19,340.59 " stroke="red" stroke-width="0.96875" stroke-linecap="round" stroke-linejoin="round" />
<polyline points="338.94,350.06 338.94,350.12 338.91,350.28 336.41,355.25 334.81,357.34 332.69,360.25 330.69,362.34 327.88,365.28 326.59,366.38 322.47,369.88 321.84,370.38 318.34,372.56 314.25,375.09 313.62,375.47 310.12,377.44 306.03,379.72 304.44,380.59 301.91,381.97 297.78,384.25 295.19,385.78 293.69,386.62 289.56,389.03 286.22,390.97 285.44,391.41 281.34,393.59 277.22,395.5 275.5,396.22 273.09,397.12 269,398.66 264.88,400.12 260.75,401.41 260.5,401.47 256.66,402.41 252.53,402.62 248.41,402.59 244.31,402.53 240.19,402.47 236.06,403.22 231.97,404.09 227.84,405 223.72,405.72 219.62,404.81 215.5,403.88 211.41,403.16 207.28,402.72 203.16,403.44 199.06,404.31 194.94,405.31 190.81,406.22 186.72,406.56 182.59,406.69 178.47,406.66 174.38,406.5 170.25,406.16 166.12,405.72 162.03,405.19 157.91,404.53 153.78,403.91 149.69,403.19 145.56,402.38 141.44,401.5 141.38,401.47 137.34,400.56 133.22,399.56 129.12,398.5 125,397.31 122.28,396.22 120.88,395.59 116.78,393.69 112.66,391.75 110.84,390.97 108.53,390.06 104.44,389.41 100.31,388.88 96.188,388.41 92.094,387.84 87.969,386.59 85.406,385.78 83.844,385.25 79.75,383.91 75.625,382.56 71.5,381.44 68.438,380.59 67.406,380.31 63.281,379.19 59.188,378.03 55.062,376.84 50.938,375.62 50.344,375.47 46.844,374.44 42.719,373.28 38.594,372.12 34.5,371.03 31.906,370.38 30.375,369.97 26.25,369 22.156,368.12 18.031,367.28 " stroke="red" stroke-width="0.96875" stroke-linecap="round" stroke-linejoin="round" />
<polyline points="329.62,343.56 330.5,342.69 332.25,342.69 333.12,343.56 333.12,345.31 332.25,346.19 329.62,346.19 329.62,347.94 333.12,347.94 " stroke="red" stroke-width="0.71875" stroke-linecap="round" stroke-linejoin="round" />
<polyline points="335.75,347.94 339.25,347.94 337.5,342.69 " stroke="red" stroke-width="0.71875" stroke-linecap="round" stroke-linejoin="round" />
<polyline points="345.38,347.06 344.5,347.94 342.75,347.94 341.88,347.06 341.88,343.56 342.75,342.69 344.5,342.69 345.38,343.56 345.38,344.44 344.5,345.31 341.88,345.31 " stroke="red" stroke-width="0.71875" stroke-linecap="round" stroke-linejoin="round" />
<polygon points="348.88,347.94 348,347.06 348,343.56 348.88,342.69 350.62,342.69 351.5,343.56 351.5,347.06 350.62,347.94 " stroke="red" stroke-width="0.71875" stroke-linejoin="round" />
<polyline points="560.66,247 560.59,247.03 556.97,249.16 552.88,251.47 552.81,251.5 548.75,254.16 545.91,256 544.62,256.94 540.53,259.88 539.59,260.5 536.41,262.88 533.72,265.03 532.28,266.28 528.41,269.59 528.19,269.81 524.06,273.75 523.62,274.16 521,278.75 519.94,281.03 518.84,283.34 516.66,287.97 515.84,289.44 513.38,292.62 511.72,294 507.59,296.28 504.62,297.31 503.5,297.62 499.38,298.28 495.25,298.69 491.16,298.84 487.03,298.88 482.91,298.97 478.81,298.94 474.69,298.66 470.56,298.16 467.28,297.31 466.47,297.06 462.34,295.5 458.25,293.47 456.81,292.62 454.12,291.09 450,288.47 449.31,287.97 445.91,285.34 443.56,283.34 441.78,281.78 438.59,278.75 437.66,277.88 433.56,274.25 433.44,274.16 429.44,271.56 425.94,269.59 425.31,269.28 421.22,267.34 417.09,265.62 415.66,265.03 412.97,263.97 408.88,262.34 404.75,260.84 403.62,260.5 400.62,259.72 396.53,258.84 392.41,258.19 388.31,257.75 384.19,257.56 380.06,257.5 375.97,257.5 371.84,257.56 367.72,257.25 363.62,257.09 359.5,257.16 355.38,257.44 351.28,258.38 347.16,259.75 345.47,260.5 343.03,261.59 338.94,264 337.53,265.03 334.81,267.03 331.84,269.59 330.69,270.56 327,274.16 326.59,274.53 322.5,278.75 322.47,278.78 318.38,283.34 318.34,283.38 318.03,283.75 " stroke="red" stroke-width="0.96875" stroke-linecap="round" stroke-linejoin="round" />
<polyline points="310.72,293.22 310.12,294 307.66,297.31 306.03,299.69 304.22,302 301.91,305.12 300.62,306.72 297.78,310.34 296.81,311.44 293.69,315 292.41,316.22 289.56,318.78 286.81,321 285.44,322.03 281.34,324.69 279.38,325.81 277.22,327 273.09,329.09 270.16,330.66 269,331.28 264.88,333.34 260.75,335.16 259.94,335.5 256.66,336.81 252.53,338.19 248.41,339.56 246.09,340.41 244.31,341.03 240.19,342.62 236.06,344.97 235.53,345.31 231.97,347.56 227.84,350.22 227.75,350.28 223.72,353 219.62,355.16 219.44,355.25 215.5,357.31 211.41,359.5 209.91,360.25 207.28,361.59 203.16,363.25 199.06,364.5 195.72,365.28 194.94,365.47 190.81,366.16 186.72,366.91 182.59,367.59 178.47,368.16 174.38,368.62 170.25,368.84 166.12,368.91 162.03,368.88 157.91,368.81 153.78,368.84 149.69,368.81 145.56,368.66 141.44,368.34 137.34,367.66 133.22,366.84 129.12,365.97 126.19,365.28 125,365.03 120.88,364.06 116.78,363.16 112.66,362.22 108.53,361.31 104.44,360.38 103.94,360.25 100.31,359.34 96.188,358.34 92.094,357.34 87.969,356.53 83.844,355.78 80.938,355.25 79.75,355.03 75.625,354.28 71.5,353.59 67.406,352.91 63.281,352.25 59.188,351.59 55.062,350.91 51.281,350.28 50.938,350.22 46.844,349.41 42.719,348.56 38.594,347.59 34.5,346.59 30.375,345.62 29.156,345.31 26.25,344.59 22.156,343.62 18.031,342.66 " stroke="red" stroke-width="0.96875" stroke-linecap="round" stroke-linejoin="round" />
<polyline points="303.75,286.72 304.62,285.84 306.38,285.84 307.25,286.72 307.25,288.47 306.38,289.34 303.75,289.34 303.75,291.09 307.25,291.09 " stroke="red" stroke-width="0.71875" stroke-linecap="round" stroke-linejoin="round" />
<polygon points="310.75,291.09 309.88,290.22 309.88,289.34 310.75,288.47 312.5,288.47 313.38,289.34 313.38,290.22 312.5,291.09 " stroke="red" stroke-width="0.71875" stroke-linejoin="round" />
<polyline points="310.75,288.47 309.88,287.59 309.88,286.72 310.75,285.84 312.5,285.84 313.38,286.72 313.38,287.59 312.5,288.47 " stroke="red" stroke-width="0.71875" stroke-linecap="round" stroke-linejoin="round" />
<polyline points="316,290.22 316.88,291.09 318.62,291.09 319.5,290.22 319.5,289.34 316,285.84 319.5,285.84 " stroke="red" stroke-width="0.71875" stroke-linecap="round" stroke-linejoin="round" />
<polygon points="323,291.09 322.12,290.22 322.12,286.72 323,285.84 324.75,285.84 325.62,286.72 325.62,290.22 324.75,291.09 " stroke="red" stroke-width="0.71875" stroke-linejoin="round" />
<polyline points="256.56,247 256.56,247.03 256.34,251.5 255.09,256 253.06,260.5 252.53,261.44 250.66,265.03 248.41,268.81 247.97,269.59 244.88,274.16 244.31,274.84 240.97,278.75 240.19,279.53 236.06,282.88 235.47,283.34 231.97,285.66 228.31,287.97 227.84,288.25 223.72,290.47 219.62,292.5 219.31,292.62 215.5,294.41 211.41,296.59 210.22,297.31 207.28,299.09 203.41,302 203.16,302.16 199.06,305.06 196.56,306.72 194.94,307.66 190.81,309.78 186.78,311.44 186.72,311.47 182.59,312.66 178.47,313.66 175.5,314.31 " stroke="red" stroke-width="0.96875" stroke-linecap="round" stroke-linejoin="round" />
<polyline points="148.56,318.34 145.56,318.53 141.44,318.59 137.34,318.19 133.22,317.62 129.12,317 125,316.31 124.28,316.22 120.88,315.69 116.78,315 112.66,314.28 108.53,313.53 104.44,312.72 100.31,311.88 98.375,311.44 96.188,311 92.094,310.16 87.969,309.41 83.844,308.66 79.75,307.91 75.625,307.19 72.375,306.72 71.5,306.56 67.406,305.81 63.281,305.03 59.188,304.22 55.062,303.12 50.938,302.16 50.219,302 46.844,301.12 42.719,300.34 38.594,300.34 34.5,300.44 30.375,300.53 26.25,300.41 22.156,298.97 18.031,297.56 " stroke="red" stroke-width="0.96875" stroke-linecap="round" stroke-linejoin="round" />
<polyline points="151.53,315.03 152.41,314.16 154.16,314.16 155.03,315.03 155.03,316.78 154.16,317.66 151.53,317.66 151.53,319.41 155.03,319.41 " stroke="red" stroke-width="0.71875" stroke-linecap="round" stroke-linejoin="round" />
<polygon points="158.53,319.41 157.66,318.53 157.66,317.66 158.53,316.78 160.28,316.78 161.16,317.66 161.16,318.53 160.28,319.41 " stroke="red" stroke-width="0.71875" stroke-linejoin="round" />
<polyline points="158.53,316.78 157.66,315.91 157.66,315.03 158.53,314.16 160.28,314.16 161.16,315.03 161.16,315.91 160.28,316.78 " stroke="red" stroke-width="0.71875" stroke-linecap="round" stroke-linejoin="round" />
<polygon points="164.66,319.41 163.78,318.53 163.78,317.66 164.66,316.78 166.41,316.78 167.28,317.66 167.28,318.53 166.41,319.41 " stroke="red" stroke-width="0.71875" stroke-linejoin="round" />
<polyline points="164.66,316.78 163.78,315.91 163.78,315.03 164.66,314.16 166.41,314.16 167.28,315.03 167.28,315.91 166.41,316.78 " stroke="red" stroke-width="0.71875" stroke-linecap="round" stroke-linejoin="round" />
<polygon points="170.78,319.41 169.91,318.53 169.91,315.03 170.78,314.16 172.53,314.16 173.41,315.03 173.41,318.53 172.53,319.41 " stroke="red" stroke-width="0.71875" stroke-linejoin="round" />
</g>
</svg>
