#define any_width 24
#define any_height 24
static unsigned char any_bits[] = {
   0x00, 0x00, 0x00, 0x00, 0x00, 0x00, 0x00, 0x00, 0x00, 0x00, 0x00, 0x00,
   0x00, 0x00, 0x00, 0x00, 0x00, 0x00, 0x00, 0x00, 0x00, 0x78, 0x00, 0x00,
   0xfc, 0x00, 0x00, 0xce, 0x01, 0x00, 0x86, 0x01, 0x00, 0x86, 0x01, 0x00,
   0x86, 0x01, 0x00, 0x86, 0x01, 0x00, 0x86, 0x01, 0x00, 0xfe, 0x19, 0x45,
   0xfe, 0x19, 0x6d, 0x86, 0x29, 0x39, 0x86, 0x69, 0x11, 0x86, 0x49, 0x11,
   0x86, 0x89, 0x11, 0x86, 0x89, 0x11, 0x00, 0x00, 0x00, 0x00, 0x00, 0x00};
