#define aodt_width 32
#define aodt_height 32
static unsigned char aodt_bits[] = {
   0x00, 0x00, 0x00, 0xfc, 0x30, 0x00, 0x00, 0x78, 0x78, 0x00, 0x00, 0x30,
   0xfc, 0x00, 0x00, 0x00, 0xcc, 0x00, 0x00, 0x00, 0xcc, 0x00, 0x80, 0x07,
   0xfe, 0x01, 0xc7, 0x0f, 0xfe, 0xc1, 0xe1, 0x1c, 0x03, 0x73, 0x30, 0x30,
   0x03, 0x73, 0x30, 0x30, 0x03, 0x3b, 0x30, 0x30, 0x00, 0xf8, 0x33, 0x30,
   0x00, 0xfc, 0xe7, 0x1c, 0x00, 0x1c, 0xce, 0x0f, 0x00, 0x0c, 0x9c, 0x07,
   0x00, 0x0c, 0x18, 0x00, 0x00, 0x0c, 0x18, 0x00, 0x00, 0x0c, 0x18, 0x00,
   0x00, 0x18, 0x1c, 0x00, 0x00, 0xf8, 0x0f, 0x00, 0x00, 0xf0, 0x0f, 0x00,
   0x3e, 0x00, 0xef, 0x7f, 0xfe, 0x80, 0xe3, 0x7f, 0xc6, 0x81, 0x03, 0x06,
   0x86, 0xe3, 0x00, 0x06, 0x06, 0x3b, 0x00, 0x06, 0x06, 0x03, 0x00, 0x06,
   0x86, 0x03, 0x00, 0x06, 0xc6, 0x01, 0x00, 0x06, 0xfe, 0x00, 0x00, 0x06,
   0x3e, 0x00, 0x00, 0x06, 0x00, 0x00, 0x00, 0x00};
