#define arrow_ul_width 24
#define arrow_ul_height 24
static unsigned char arrow_ul_bits[] = {
   0x00, 0x00, 0x00, 0x00, 0x00, 0x00, 0x00, 0x00, 0x00, 0x00, 0x00, 0x00,
   0xf0, 0xff, 0x1f, 0xf0, 0xff, 0x0f, 0xf0, 0xff, 0x07, 0xf0, 0xff, 0x03,
   0xf0, 0xff, 0x01, 0xf0, 0xff, 0x00, 0xf0, 0xff, 0x01, 0xf0, 0xff, 0x03,
   0xf0, 0xff, 0x07, 0xf0, 0xff, 0x0f, 0xf0, 0xff, 0x1f, 0xf0, 0xff, 0x3f,
   0xf0, 0xfd, 0x1f, 0xf0, 0xf8, 0x0f, 0x70, 0xf0, 0x07, 0x30, 0xe0, 0x03,
   0x10, 0xc0, 0x01, 0x00, 0x80, 0x00, 0x00, 0x00, 0x00, 0x00, 0x00, 0x00};
