#define auto_on_width 32
#define auto_on_height 32
static unsigned char auto_on_bits[] = {
   0x00, 0x00, 0x00, 0xfc, 0x00, 0x00, 0x00, 0x78, 0x00, 0x00, 0x00, 0x30,
   0x38, 0x00, 0x00, 0x00, 0x7c, 0x44, 0x9f, 0x07, 0x44, 0x44, 0xc4, 0x0c,
   0x44, 0x44, 0x44, 0x08, 0x7c, 0x44, 0x44, 0x08, 0x44, 0x44, 0xc4, 0x0c,
   0x44, 0x38, 0x84, 0x07, 0x00, 0x00, 0x00, 0x00, 0x00, 0x00, 0x00, 0x00,
   0x00, 0x00, 0x00, 0x00, 0x48, 0x37, 0x72, 0x07, 0x48, 0x55, 0x25, 0x01,
   0x48, 0x57, 0x25, 0x03, 0x48, 0x51, 0x27, 0x01, 0x30, 0x31, 0x25, 0x07,
   0x00, 0x00, 0x00, 0x00, 0x00, 0x00, 0x00, 0x00, 0xc0, 0x87, 0xc1, 0x00,
   0xe0, 0x8f, 0xc3, 0x00, 0x30, 0x98, 0xc7, 0x00, 0x30, 0x98, 0xcf, 0x00,
   0x30, 0x98, 0xcd, 0x00, 0x30, 0x98, 0xd9, 0x00, 0x30, 0x98, 0xf1, 0x00,
   0x30, 0x98, 0xf1, 0x00, 0xe0, 0x8f, 0xe1, 0x00, 0xc0, 0x87, 0xc1, 0x00,
   0x00, 0x00, 0x00, 0x00, 0x00, 0x00, 0x00, 0x00};
