#define sigmet.xbm_width 24
#define sigmet.xbm_height 24
static unsigned char sigmet.xbm_bits[] = {
   0x00, 0x00, 0x00, 0x80, 0x01, 0x03, 0xc0, 0x83, 0x07, 0x60, 0xc6, 0x0c,
   0x30, 0x64, 0x08, 0x30, 0x60, 0x00, 0x30, 0x60, 0x00, 0x30, 0x60, 0x00,
   0x30, 0x64, 0x08, 0x60, 0xc6, 0x0c, 0xc0, 0x83, 0x07, 0x80, 0x01, 0x03,
   0x00, 0x00, 0x00, 0xf0, 0xe7, 0x07, 0xf0, 0xe7, 0x0f, 0x30, 0x60, 0x0c,
   0x30, 0x60, 0x0c, 0xf0, 0xe1, 0x0f, 0xf0, 0xe1, 0x07, 0x30, 0x60, 0x00,
   0x30, 0x60, 0x00, 0x30, 0x60, 0x00, 0x30, 0x60, 0x00, 0x00, 0x00, 0x00};
