#define centon_width 32
#define centon_height 32
static unsigned char centon_bits[] = {
   0x3e, 0x00, 0x00, 0x00, 0x7f, 0x00, 0x60, 0x00, 0x47, 0x00, 0x60, 0x00,
   0x03, 0x4e, 0xf3, 0x01, 0x03, 0xdf, 0x67, 0x00, 0x03, 0xc1, 0x64, 0x00,
   0x03, 0xcf, 0x64, 0x1c, 0x47, 0xc1, 0x64, 0x00, 0x7f, 0xdf, 0xe4, 0x00,
   0x3e, 0xce, 0xc4, 0x01, 0x00, 0x00, 0x00, 0x00, 0x00, 0x00, 0xc0, 0x00,
   0x00, 0x00, 0xc0, 0x00, 0x00, 0x00, 0xc1, 0x38, 0x3a, 0x1e, 0xf1, 0x7c,
   0x3e, 0x3f, 0xf8, 0x04, 0x26, 0x33, 0xd9, 0x3c, 0x06, 0x33, 0xd9, 0x7c,
   0x06, 0x33, 0xd9, 0x60, 0x06, 0x33, 0xf9, 0x40, 0x06, 0x3f, 0xf9, 0x7c,
   0x06, 0x1e, 0x71, 0x38, 0x00, 0x00, 0x00, 0x00, 0x00, 0x00, 0x00, 0x00,
   0x00, 0x00, 0x00, 0x00, 0x00, 0x00, 0x00, 0x00, 0x10, 0x40, 0x00, 0x01,
   0x10, 0x40, 0x00, 0x01, 0x7c, 0xf0, 0xc1, 0x07, 0x10, 0x40, 0x00, 0x01,
   0x10, 0x40, 0x00, 0x01, 0x00, 0x00, 0x00, 0x00};
