#define cirsolid.xbm_width 24
#define cirsolid.xbm_height 24
static unsigned char cirsolid.xbm_bits[] = {
   0x00, 0x7e, 0x00, 0x80, 0x81, 0x01, 0x60, 0x00, 0x06, 0x10, 0x00, 0x08,
   0x08, 0x00, 0x10, 0x04, 0x00, 0x20, 0x04, 0x00, 0x20, 0x02, 0x00, 0x40,
   0x02, 0x00, 0x40, 0x01, 0x00, 0x80, 0x01, 0x00, 0x80, 0x01, 0x00, 0x80,
   0x01, 0x00, 0x80, 0x01, 0x00, 0x80, 0x01, 0x00, 0x80, 0x02, 0x00, 0x40,
   0x02, 0x00, 0x40, 0x04, 0x00, 0x20, 0x04, 0x00, 0x20, 0x08, 0x00, 0x10,
   0x10, 0x00, 0x08, 0x60, 0x00, 0x06, 0x80, 0x81, 0x01, 0x00, 0x7e, 0x00};
