#define ct019_width 24
#define ct019_height 24
static unsigned char ct019_bits[] = {
   0x00, 0x00, 0x00, 0x00, 0x00, 0x00, 0x00, 0x00, 0x00, 0x00, 0x00, 0x20,
   0x00, 0x00, 0x18, 0x00, 0x00, 0x06, 0x00, 0x00, 0x01, 0x00, 0xc0, 0x00,
   0x00, 0x20, 0x00, 0x00, 0x18, 0x00, 0x00, 0x06, 0x00, 0x00, 0x01, 0x00,
   0xc0, 0x00, 0x00, 0x30, 0x00, 0x00, 0x08, 0x10, 0x00, 0x08, 0x10, 0x00,
   0x08, 0x10, 0x00, 0x10, 0x08, 0x00, 0x10, 0x08, 0x00, 0xe8, 0x17, 0x00,
   0x10, 0x08, 0x00, 0xe0, 0x07, 0x00, 0x00, 0x00, 0x00, 0x00, 0x00, 0x00};
