#define ct008_width 24
#define ct008_height 24
static unsigned char ct008_bits[] = {
   0x00, 0x00, 0x00, 0x00, 0x00, 0x00, 0x00, 0x00, 0x00, 0xf8, 0x01, 0x3f,
   0x00, 0x01, 0x01, 0x00, 0x01, 0x01, 0x00, 0x82, 0x00, 0x00, 0x82, 0x00,
   0x00, 0x7c, 0x00, 0x00, 0x00, 0x00, 0x00, 0x00, 0x00, 0x00, 0x00, 0x00,
   0x00, 0xfe, 0x00, 0x80, 0x01, 0x03, 0x60, 0x00, 0x0c, 0x20, 0x00, 0x08,
   0x10, 0x00, 0x10, 0x10, 0x00, 0x10, 0x08, 0x00, 0x20, 0x08, 0x00, 0x20,
   0x08, 0x00, 0x20, 0xf8, 0xff, 0x3f, 0x00, 0x00, 0x00, 0x00, 0x00, 0x00};
