#define ct009_width 24
#define ct009_height 24
static unsigned char ct009_bits[] = {
   0x00, 0x00, 0x00, 0x00, 0x00, 0x00, 0x00, 0x00, 0x00, 0x00, 0x00, 0x00,
   0x00, 0x00, 0x00, 0xf8, 0xff, 0x3f, 0x08, 0x00, 0x20, 0x10, 0x00, 0x10,
   0x10, 0x00, 0x10, 0x10, 0xfe, 0x10, 0xa0, 0x01, 0x0b, 0x60, 0x00, 0x0c,
   0x20, 0x00, 0x08, 0x10, 0x00, 0x10, 0x10, 0x00, 0x10, 0x08, 0x00, 0x20,
   0x08, 0x00, 0x20, 0x08, 0x00, 0x20, 0xf8, 0xff, 0x3f, 0x00, 0x00, 0x00,
   0x00, 0x00, 0x00, 0x00, 0x00, 0x00, 0x00, 0x00, 0x00, 0x00, 0x00, 0x00};
