#define ct015_width 24
#define ct015_height 24
static unsigned char ct015_bits[] = {
   0x00, 0x00, 0x00, 0x00, 0x00, 0x00, 0x00, 0x00, 0x00, 0x00, 0x00, 0x20,
   0x00, 0x00, 0x18, 0x00, 0x00, 0x04, 0x00, 0x00, 0x02, 0x00, 0x80, 0x01,
   0x00, 0x40, 0x00, 0x00, 0x20, 0x00, 0x00, 0x18, 0x00, 0x00, 0x04, 0x00,
   0x00, 0x03, 0x00, 0x80, 0x00, 0x00, 0x40, 0x00, 0x00, 0x30, 0x00, 0x00,
   0x08, 0x10, 0x20, 0x08, 0x10, 0x20, 0x08, 0x10, 0x20, 0x08, 0x10, 0x20,
   0x10, 0x28, 0x10, 0xe0, 0xc7, 0x0f, 0x00, 0x00, 0x00, 0x00, 0x00, 0x00};
