#define difcoldfnt.xbm_width 24
#define difcoldfnt.xbm_height 24
static unsigned char difcoldfnt.xbm_bits[] = {
   0x6e, 0x1c, 0x80, 0x6f, 0x3c, 0xc0, 0x63, 0x6c, 0x60, 0x63, 0x6c, 0x30,
   0x63, 0x6c, 0x38, 0x63, 0x6c, 0x3c, 0xef, 0x3d, 0x3e, 0xee, 0x1d, 0x3f,
   0x00, 0x80, 0x3f, 0x00, 0xc0, 0x00, 0x00, 0x00, 0x00, 0x00, 0x10, 0x00,
   0x00, 0x18, 0x00, 0x00, 0x0c, 0x00, 0x00, 0x04, 0x00, 0x00, 0x00, 0x00,
   0x80, 0x8f, 0xf7, 0xc0, 0x9e, 0xf7, 0x60, 0x36, 0x33, 0x70, 0x36, 0xf3,
   0x78, 0x36, 0xf3, 0x7c, 0x36, 0x33, 0x7e, 0x9e, 0xf7, 0x7f, 0x8e, 0xf7};
