#define combsymb.xbm_width 24
#define combsymb.xbm_height 24
static unsigned char combsymb.xbm_bits[] = {
   0x06, 0x80, 0x01, 0x0f, 0x80, 0x01, 0x0f, 0x80, 0x01, 0x73, 0xfb, 0x75,
   0xfb, 0xff, 0xff, 0xdb, 0xff, 0xdf, 0xdb, 0xdb, 0xdd, 0xdb, 0xdb, 0xdd,
   0xdf, 0xdb, 0xdd, 0xff, 0xdb, 0xff, 0x76, 0xdb, 0x77, 0x06, 0x00, 0x00,
   0x0f, 0xc0, 0xc0, 0x0f, 0xc0, 0xc0, 0xd3, 0xfd, 0xdd, 0xdb, 0xff, 0xff,
   0xdb, 0xff, 0xee, 0xde, 0xed, 0xee, 0xde, 0xed, 0xee, 0xfe, 0xed, 0xee,
   0xf7, 0xed, 0xff, 0xb3, 0xed, 0xdd, 0x18, 0x00, 0x00, 0x18, 0x00, 0x00};
