#define copy.xbm_width 24
#define copy.xbm_height 24
static unsigned char copy.xbm_bits[] = {
   0x00, 0x00, 0x00, 0x00, 0x00, 0x00, 0x00, 0x00, 0x00, 0xf0, 0x01, 0x00,
   0xf8, 0x03, 0x00, 0x18, 0x72, 0x1e, 0x18, 0xf8, 0x3e, 0x18, 0xd8, 0x36,
   0x18, 0xd8, 0x36, 0x18, 0xda, 0x36, 0xf8, 0xfb, 0x3e, 0xf0, 0x71, 0x1e,
   0x00, 0x00, 0x06, 0x00, 0x00, 0x06, 0x06, 0x00, 0xc0, 0x06, 0x00, 0xc4,
   0x06, 0x00, 0xcc, 0x06, 0x00, 0xdc, 0xfe, 0xff, 0xff, 0x06, 0x00, 0xdc,
   0x06, 0x00, 0xcc, 0x06, 0x00, 0xc4, 0x06, 0x00, 0xc0, 0x00, 0x00, 0x00};
