#define csymb27_width 24
#define csymb27_height 24
static unsigned char csymb27_bits[] = {
   0x00, 0x00, 0x00, 0x00, 0x00, 0x00, 0x00, 0x00, 0x10, 0x00, 0x00, 0x08,
   0x0c, 0x06, 0x04, 0x1e, 0x0f, 0x02, 0x1e, 0x0f, 0x01, 0x0c, 0x86, 0x00,
   0x00, 0x40, 0x00, 0x00, 0x20, 0x00, 0x00, 0x10, 0x00, 0x00, 0x08, 0x00,
   0x00, 0x04, 0x03, 0x00, 0x02, 0x03, 0x00, 0x81, 0x04, 0x80, 0x80, 0x04,
   0x40, 0x40, 0x08, 0x20, 0x40, 0x0b, 0x10, 0x20, 0x13, 0x08, 0x20, 0x10,
   0x04, 0x10, 0x20, 0x00, 0xf0, 0x3f, 0x00, 0x00, 0x00, 0x00, 0x00, 0x00};
