#define csymb15_width 24
#define csymb15_height 24
static unsigned char csymb15_bits[] = {
   0x00, 0x00, 0x00, 0xc0, 0x00, 0x10, 0xe0, 0x01, 0x08, 0xe0, 0x01, 0x04,
   0xc0, 0x00, 0x02, 0x18, 0x06, 0x01, 0x3c, 0x8f, 0x00, 0x3c, 0x4f, 0x00,
   0x18, 0xa6, 0x01, 0x00, 0xd0, 0x03, 0x00, 0xc8, 0x03, 0x00, 0x84, 0x01,
   0x00, 0x02, 0x00, 0x00, 0xf1, 0x1f, 0x80, 0x20, 0x08, 0x40, 0x20, 0x04,
   0x20, 0x20, 0x02, 0x10, 0x20, 0x01, 0x08, 0x20, 0x12, 0x04, 0x20, 0x14,
   0x00, 0x20, 0x18, 0x00, 0x20, 0x1e, 0x00, 0x00, 0x00, 0x00, 0x00, 0x00};
