#define csymb09_width 24
#define csymb09_height 24
static unsigned char csymb09_bits[] = {
   0x00, 0x00, 0x00, 0x00, 0x00, 0x00, 0x00, 0x00, 0x10, 0x00, 0x00, 0x08,
   0x18, 0x06, 0x04, 0x3c, 0x0f, 0x02, 0x3c, 0x0f, 0x01, 0x18, 0x86, 0x00,
   0x00, 0x40, 0x00, 0x00, 0x20, 0x00, 0x00, 0x10, 0x00, 0x00, 0x08, 0x00,
   0x00, 0x04, 0x00, 0x00, 0xf2, 0x1f, 0x00, 0x21, 0x08, 0x80, 0x20, 0x04,
   0x40, 0x20, 0x02, 0x20, 0x20, 0x01, 0x10, 0x20, 0x12, 0x08, 0x20, 0x14,
   0x04, 0x20, 0x18, 0x00, 0x20, 0x1e, 0x00, 0x00, 0x00, 0x00, 0x00, 0x00};
