#define iceplts_sfrain.xbm_width 24
#define iceplts_sfrain.xbm_height 24
static unsigned char iceplts_sfrain.xbm_bits[] = {
   0x00, 0x00, 0x00, 0x60, 0x00, 0x00, 0x60, 0x00, 0x10, 0x90, 0x00, 0x08,
   0x90, 0x00, 0x04, 0x08, 0x01, 0x02, 0x68, 0x01, 0x01, 0x64, 0x82, 0x00,
   0x04, 0x42, 0x00, 0x02, 0x24, 0x00, 0xfe, 0x17, 0x00, 0x00, 0x08, 0x00,
   0x00, 0x04, 0x00, 0x00, 0x02, 0x00, 0x00, 0x01, 0x00, 0x80, 0x1c, 0x20,
   0x40, 0x22, 0x40, 0x20, 0x49, 0x40, 0x10, 0x9d, 0x40, 0x08, 0x1d, 0x41,
   0x04, 0x09, 0x22, 0x00, 0x02, 0x1c, 0x00, 0x00, 0x00, 0x00, 0x00, 0x00};
