#define csymb13_width 24
#define csymb13_height 24
static unsigned char csymb13_bits[] = {
   0x00, 0x00, 0x00, 0x00, 0x00, 0x00, 0x00, 0x00, 0x10, 0x18, 0x06, 0x08,
   0x3c, 0x0f, 0x04, 0x3c, 0x0f, 0x02, 0x18, 0x06, 0x01, 0x00, 0x80, 0x00,
   0x00, 0x40, 0x00, 0x00, 0x20, 0x00, 0x00, 0x10, 0x00, 0x00, 0x08, 0x00,
   0x00, 0x04, 0x03, 0x00, 0x82, 0x07, 0x00, 0x81, 0x07, 0x80, 0x00, 0x03,
   0x40, 0x60, 0x18, 0x20, 0xf0, 0x3c, 0x10, 0xf0, 0x3c, 0x08, 0x60, 0x18,
   0x04, 0x00, 0x00, 0x00, 0x00, 0x00, 0x00, 0x00, 0x00, 0x00, 0x00, 0x00};
