#define cycle_width 24
#define cycle_height 24
static unsigned char cycle_bits[] = {
   0x00, 0x00, 0x00, 0x00, 0x00, 0x00, 0x00, 0x00, 0x00, 0x00, 0x00, 0x00,
   0x00, 0x00, 0x00, 0x00, 0x00, 0x00, 0x00, 0x00, 0x00, 0x0f, 0x00, 0x00,
   0x0f, 0x00, 0x00, 0x03, 0x00, 0x00, 0x33, 0x7b, 0xe3, 0xf3, 0x7b, 0xe3,
   0xe3, 0x19, 0x63, 0xc3, 0x18, 0x63, 0xc3, 0x18, 0xe3, 0xc3, 0x18, 0xe3,
   0xc3, 0x18, 0x63, 0xc3, 0x18, 0x63, 0xcf, 0x78, 0xef, 0xcf, 0x78, 0xef,
   0x00, 0x00, 0x00, 0x00, 0x00, 0x00, 0x00, 0x00, 0x00, 0x00, 0x00, 0x00};
