#define del_obj_width 24
#define del_obj_height 24
static unsigned char del_obj_bits[] = {
   0xf1, 0x7c, 0x03, 0xf2, 0x7d, 0x83, 0xb4, 0x0d, 0x43, 0xb0, 0x3d, 0x23,
   0xb0, 0x3d, 0x13, 0xb0, 0x0d, 0x03, 0xf0, 0x7d, 0x1f, 0xf8, 0x7c, 0x3f,
   0x08, 0x00, 0x20, 0x04, 0x82, 0x40, 0x04, 0x44, 0x40, 0x04, 0x28, 0x40,
   0x00, 0x00, 0x00, 0xff, 0xff, 0xff, 0x00, 0x00, 0x00, 0x7c, 0x7c, 0x7e,
   0x7c, 0x6c, 0x7e, 0x6c, 0x6c, 0x18, 0x6c, 0x7c, 0x18, 0x6c, 0x6c, 0x18,
   0x6c, 0x6c, 0x18, 0x7c, 0x7c, 0x1a, 0x7c, 0x7c, 0x1e, 0x00, 0x00, 0x00};
