#define delpoint.xbm_width 24
#define delpoint.xbm_height 24
static unsigned char delpoint.xbm_bits[] = {
   0xcf, 0x1b, 0x00, 0xdf, 0x1b, 0x00, 0xdb, 0x18, 0x00, 0xdb, 0x1b, 0x00,
   0xdb, 0x1b, 0x00, 0xdb, 0x18, 0x00, 0xdf, 0x7b, 0x00, 0xcf, 0x7b, 0x00,
   0x00, 0x00, 0x00, 0x60, 0x18, 0x00, 0xc0, 0x0c, 0x00, 0x80, 0x07, 0xf0,
   0x80, 0xff, 0xff, 0x80, 0xff, 0xff, 0x80, 0x07, 0xf0, 0xc0, 0x0f, 0x00,
   0x60, 0x9b, 0xf7, 0x00, 0x83, 0xff, 0x00, 0x83, 0x6d, 0x00, 0x83, 0x6d,
   0x8f, 0x87, 0x6f, 0xff, 0x87, 0x67, 0xff, 0x87, 0x61, 0x8f, 0x87, 0x61};
