#define difocclfnt.xbm_width 24
#define difocclfnt.xbm_height 24
static unsigned char difocclfnt.xbm_bits[] = {
   0x00, 0x00, 0x80, 0xce, 0x3d, 0xc0, 0x92, 0x04, 0x60, 0x92, 0x1c, 0x70,
   0x92, 0x04, 0xf8, 0x92, 0x04, 0xfc, 0xce, 0x05, 0xfe, 0x00, 0x00, 0xff,
   0x00, 0x80, 0x7f, 0x00, 0xc0, 0x3c, 0x00, 0x00, 0x00, 0x00, 0x10, 0x00,
   0x00, 0x18, 0x00, 0x00, 0x0c, 0x00, 0x00, 0x00, 0x00, 0x00, 0x01, 0x00,
   0x80, 0x01, 0x00, 0xc0, 0x98, 0x17, 0xe0, 0xa4, 0x14, 0xf0, 0xa4, 0x10,
   0xf8, 0xa4, 0x10, 0xfc, 0xa4, 0x14, 0xfe, 0x98, 0xf7, 0xff, 0x00, 0x00};
