#define distance_width 24
#define distance_height 24
static unsigned char distance_bits[] = {
   0x10, 0x00, 0x00, 0x10, 0x00, 0x00, 0x10, 0x00, 0x00, 0x10, 0x00, 0x00,
   0x20, 0xe0, 0x03, 0x20, 0xe0, 0x07, 0x40, 0xe0, 0x01, 0x40, 0xe0, 0x03,
   0x40, 0x60, 0x07, 0x80, 0x40, 0x0e, 0x80, 0x00, 0x0c, 0x80, 0x00, 0x00,
   0x80, 0x00, 0x00, 0xe0, 0xff, 0x00, 0x10, 0x80, 0x81, 0x08, 0x00, 0x81,
   0x08, 0x00, 0x41, 0x08, 0x00, 0x21, 0x04, 0x00, 0x32, 0x04, 0x00, 0x16,
   0x02, 0x00, 0x1c, 0x02, 0x00, 0x08, 0x02, 0x00, 0x38, 0x02, 0x00, 0x60};
