#define dsline6.xbm_width 24
#define dsline6.xbm_height 24
static unsigned char dsline6.xbm_bits[] = {
   0x03, 0x00, 0x00, 0x07, 0x00, 0x00, 0x0e, 0x00, 0x00, 0x1c, 0x00, 0x00,
   0x38, 0x00, 0x00, 0x70, 0x00, 0x00, 0x20, 0x00, 0x00, 0x80, 0x01, 0x00,
   0x80, 0x03, 0x00, 0x00, 0x07, 0x00, 0x00, 0x02, 0x00, 0x00, 0x18, 0x00,
   0x00, 0x38, 0x00, 0x00, 0x70, 0x00, 0x00, 0x20, 0x00, 0x00, 0x80, 0x01,
   0x00, 0x80, 0x03, 0x00, 0x00, 0x07, 0x00, 0x00, 0x02, 0x00, 0x00, 0x18,
   0x00, 0x00, 0x38, 0x00, 0x00, 0x70, 0x00, 0x00, 0xe0, 0x00, 0x00, 0xc0};
