#define bright_half.xbm_width 15
#define bright_half.xbm_height 15
static char bright_half.xbm_bits[] = {
   0x00, 0x00, 0xe0, 0x03, 0xf0, 0x06, 0x78, 0x08, 0xfc, 0x10, 0x7e, 0x30,
   0xfe, 0x20, 0x7e, 0x20, 0xfe, 0x20, 0x7e, 0x30, 0xfc, 0x10, 0x78, 0x08,
   0xf0, 0x06, 0xe0, 0x03, 0x00, 0x00};
