#define four_width 24
#define four_height 24
static unsigned char four_bits[] = {
   0xff, 0xff, 0xff, 0xff, 0xff, 0xff, 0xff, 0xff, 0xff, 0xff, 0xff, 0xff,
   0xff, 0xff, 0xff, 0xff, 0x3f, 0xff, 0xff, 0x3f, 0xff, 0xff, 0x3c, 0xff,
   0xff, 0x3c, 0xff, 0xff, 0x3c, 0xff, 0xff, 0x3c, 0xff, 0xff, 0x3c, 0xff,
   0xff, 0x00, 0xff, 0xff, 0x00, 0xff, 0xff, 0x3f, 0xff, 0xff, 0x3f, 0xff,
   0xff, 0x3f, 0xff, 0xff, 0x3f, 0xff, 0xff, 0x3f, 0xff, 0xff, 0xff, 0xff,
   0xff, 0xff, 0xff, 0xff, 0xff, 0xff, 0xff, 0xff, 0xff, 0xff, 0xff, 0xff};
