#define gfa_p_width 24
#define gfa_p_height 24
static unsigned char gfa_p_bits[] = {
   0x00, 0x00, 0xe0, 0x00, 0x00, 0xf0, 0x00, 0x00, 0x78, 0x00, 0x00, 0x3c,
   0x00, 0x00, 0x18, 0x00, 0x00, 0x00, 0x78, 0xfc, 0x18, 0xfc, 0xfc, 0x3c,
   0xfe, 0x0d, 0x7e, 0x06, 0x0c, 0x66, 0x06, 0x0c, 0x66, 0xf6, 0x7d, 0x66,
   0xf6, 0x7d, 0x7e, 0xc6, 0x0c, 0x7e, 0xc6, 0x0c, 0x66, 0xc6, 0x0c, 0x66,
   0xfc, 0x0c, 0x66, 0x78, 0x0c, 0x66, 0x00, 0x00, 0x00, 0x00, 0x00, 0x00,
   0x00, 0x00, 0x00, 0x00, 0x00, 0x00, 0x00, 0x00, 0x00, 0x00, 0x00, 0x00};
