#define ggcntr.xbm_width 24
#define ggcntr.xbm_height 24
static unsigned char ggcntr.xbm_bits[] = {
   0x80, 0x03, 0x00, 0x70, 0x1c, 0x00, 0x08, 0x20, 0x00, 0x04, 0x40, 0x00,
   0x02, 0x80, 0x20, 0xc0, 0x03, 0x1f, 0x20, 0x0c, 0x00, 0x10, 0x30, 0x40,
   0x0c, 0xc0, 0x3f, 0x00, 0x00, 0x00, 0x00, 0x00, 0x00, 0xdc, 0x33, 0x57,
   0x42, 0x4a, 0x55, 0xda, 0x7b, 0x77, 0x52, 0x49, 0x51, 0x5c, 0x4a, 0x51,
   0x00, 0x00, 0x00, 0x38, 0x4f, 0x0e, 0x04, 0x49, 0x12, 0x34, 0x4f, 0x12,
   0x24, 0x45, 0x12, 0x38, 0x49, 0x0e, 0x00, 0x00, 0x00, 0x00, 0x00, 0x00};
