#define hcntrak.xbm_width 24
#define hcntrak.xbm_height 24
static unsigned char hcntrak.xbm_bits[] = {
   0x00, 0x00, 0x00, 0x00, 0x00, 0x70, 0x00, 0x00, 0x18, 0x00, 0x00, 0x0c,
   0x00, 0x00, 0x0c, 0x00, 0x00, 0x3c, 0x00, 0x00, 0x7c, 0x30, 0x00, 0x7c,
   0x08, 0x00, 0x7c, 0x04, 0x80, 0x79, 0x02, 0x80, 0x61, 0x14, 0x00, 0x60,
   0x2a, 0xc0, 0x30, 0x14, 0xc0, 0x1c, 0x2a, 0x00, 0x00, 0x14, 0x60, 0x00,
   0x20, 0x60, 0x00, 0x10, 0x00, 0x00, 0x88, 0xc1, 0x00, 0x86, 0xc1, 0x00,
   0x00, 0x00, 0x00, 0x00, 0x36, 0x00, 0x00, 0x36, 0x00, 0x00, 0x00, 0x00};
