#define ice03_width 24
#define ice03_height 24
static unsigned char ice03_bits[] = {
   0x00, 0x00, 0x00, 0x00, 0x00, 0x00, 0x40, 0x00, 0x04, 0x40, 0x00, 0x04,
   0x40, 0x00, 0x04, 0x40, 0x10, 0x04, 0x40, 0x10, 0x04, 0x40, 0x10, 0x04,
   0x40, 0x10, 0x04, 0x40, 0x10, 0x04, 0x40, 0x10, 0x04, 0x40, 0x10, 0x04,
   0x80, 0x10, 0x02, 0x00, 0x11, 0x01, 0x00, 0xfe, 0x00, 0x00, 0x10, 0x00,
   0x00, 0x10, 0x00, 0x00, 0x10, 0x00, 0x00, 0x10, 0x00, 0x00, 0x10, 0x00,
   0x00, 0x10, 0x00, 0x00, 0x10, 0x00, 0x00, 0x10, 0x00, 0x00, 0x00, 0x00};
