#define ice05_width 24
#define ice05_height 24
static unsigned char ice05_bits[] = {
   0x00, 0x00, 0x00, 0x00, 0x00, 0x00, 0x08, 0x00, 0x20, 0x08, 0x00, 0x20,
   0x08, 0x00, 0x20, 0x08, 0x82, 0x20, 0x08, 0x82, 0x20, 0x08, 0x82, 0x20,
   0x08, 0x82, 0x20, 0x08, 0x82, 0x20, 0x08, 0x82, 0x20, 0x08, 0x82, 0x20,
   0x10, 0x82, 0x10, 0x20, 0x82, 0x08, 0xc0, 0xff, 0x07, 0x00, 0x82, 0x00,
   0x00, 0x82, 0x00, 0x00, 0x82, 0x00, 0x00, 0x82, 0x00, 0x00, 0x82, 0x00,
   0x00, 0x82, 0x00, 0x00, 0x82, 0x00, 0x00, 0x82, 0x00, 0x00, 0x00, 0x00};
