#define lgtssicing.xbm_width  24
#define lgtssicing.xbm_height 24
static unsigned char lgtssicing.xbm_bits[] = {
   0x00, 0x00, 0x00, 0x00, 0x00, 0x00, 0x00, 0x00, 0x00, 0x00, 0x10, 0x00, 
   0x00, 0x10, 0x00, 0x00, 0x10, 0x00, 0x00, 0x10, 0x00, 0x00, 0xff, 0x01, 
   0x00, 0x11, 0x01, 0x00, 0x11, 0x01, 0x00, 0x11, 0x01, 0x00, 0x11, 0x01, 
   0x00, 0x92, 0x00, 0x00, 0x7c, 0x00, 0x00, 0x10, 0x00, 0x00, 0x10, 0x00, 
   0x00, 0x10, 0x00, 0x00, 0x10, 0x00, 0x00, 0x10, 0x00, 0x00, 0x10, 0x00, 
   0x00, 0x00, 0x00, 0x00, 0x00, 0x00, 0x00, 0x00, 0x00, 0x00, 0x00, 0x00 };
