#define number_edit_width 24
#define number_edit_height 24
static unsigned char number_edit_bits[] = {
   0x88, 0xe7, 0x29, 0x8c, 0x04, 0x29, 0x08, 0x04, 0x29, 0x08, 0x04, 0x29,
   0x88, 0xe7, 0x79, 0x88, 0x00, 0x21, 0x88, 0x00, 0x21, 0x88, 0x04, 0x21,
   0xbe, 0xe7, 0x21, 0x00, 0x00, 0x00, 0x00, 0x00, 0x00, 0x00, 0x00, 0x00,
   0xfe, 0x0f, 0x02, 0xfc, 0x07, 0x07, 0xfc, 0x07, 0x07, 0xf8, 0x83, 0x0f,
   0xf0, 0x81, 0x0f, 0xf0, 0xc1, 0x1f, 0xe0, 0xe0, 0x3f, 0xe0, 0xe0, 0x3f,
   0x40, 0xf0, 0x7f, 0x00, 0x00, 0x00, 0x00, 0x00, 0x00, 0x00, 0x00, 0x00};
