#define infoIcon_width 32
#define infoIcon_height 32
static char infoIcon_bits[] = {
   0x01, 0x00, 0x00, 0x80, 0x02, 0x00, 0x00, 0xc0, 0x04, 0x00, 0x00, 0x60,
   0xf8, 0xff, 0xff, 0xbf, 0xf8, 0xff, 0xff, 0x5f, 0xf8, 0x1f, 0xf0, 0xbf,
   0xf8, 0xe7, 0xe7, 0x5f, 0xf8, 0xf9, 0x9f, 0xbf, 0xf8, 0xfc, 0x38, 0x5f,
   0x78, 0x7e, 0x70, 0xbe, 0x78, 0x7f, 0xf0, 0x5e, 0xb8, 0xff, 0xf8, 0xbd,
   0xb8, 0xff, 0xff, 0x5d, 0xd8, 0xff, 0xff, 0xbb, 0xd8, 0x1f, 0xfe, 0x5b,
   0xd8, 0x0f, 0xfc, 0xbb, 0xd8, 0x27, 0xfc, 0x5b, 0xd8, 0x3f, 0xfc, 0xbb,
   0xd8, 0x1f, 0xfe, 0x5b, 0xb8, 0x1f, 0xfe, 0xbd, 0xb8, 0x0f, 0xff, 0x5d,
   0x78, 0x0f, 0xfb, 0xbe, 0x78, 0x0e, 0x79, 0x5e, 0xf8, 0x1c, 0x3c, 0xbf,
   0xf8, 0xf9, 0x9f, 0x5f, 0xf8, 0xe7, 0xe7, 0xbf, 0xf8, 0x1f, 0xf8, 0x5f,
   0xf8, 0xff, 0xff, 0xbf, 0xf8, 0xff, 0xff, 0x5f, 0xac, 0xaa, 0xaa, 0xaa,
   0x56, 0x55, 0x55, 0x55, 0xab, 0xaa, 0xaa, 0xaa};
