#define instabfnt_width 32
#define instabfnt_height 32
static unsigned char instabfnt_bits[] = {
   0x1c, 0x00, 0x00, 0x00, 0x26, 0x00, 0x00, 0x00, 0x02, 0x00, 0x00, 0x00,
   0x02, 0x93, 0x5e, 0x04, 0xbe, 0x94, 0x52, 0x04, 0xa0, 0x94, 0x52, 0x04,
   0xa0, 0x94, 0x5e, 0x04, 0xb6, 0x96, 0x52, 0x04, 0x1c, 0x63, 0xd2, 0x9d,
   0x00, 0x04, 0x00, 0x40, 0x00, 0x08, 0x00, 0x20, 0x00, 0x00, 0x00, 0x10,
   0x00, 0x00, 0x00, 0x08, 0x00, 0x00, 0x00, 0x04, 0x00, 0x00, 0x00, 0x02,
   0x00, 0x00, 0x00, 0x00, 0x00, 0x00, 0x00, 0x00, 0x00, 0x00, 0x40, 0x00,
   0x00, 0x00, 0x20, 0x00, 0x00, 0x00, 0x00, 0x00, 0x00, 0x00, 0x00, 0x00,
   0x00, 0x00, 0x04, 0x00, 0x00, 0x00, 0x02, 0x00, 0x00, 0x00, 0x00, 0x00,
   0x00, 0x00, 0x00, 0x00, 0x00, 0x40, 0x00, 0x00, 0x00, 0x20, 0x00, 0x00,
   0x00, 0x10, 0x00, 0x00, 0x00, 0x08, 0x00, 0x00, 0x00, 0x04, 0x00, 0x00,
   0x00, 0x02, 0x00, 0x00, 0x00, 0x01, 0x00, 0x00};
