#define jet_width 24
#define jet_height 24
static unsigned char jet_bits[] = {
   0x00, 0x00, 0x00, 0x00, 0x00, 0x00, 0x00, 0x00, 0x00, 0x00, 0x00, 0x00,
   0x00, 0x00, 0x00, 0x00, 0x00, 0x00, 0xfc, 0xfd, 0x7e, 0xfc, 0xfd, 0x7e,
   0x60, 0x0c, 0x18, 0x60, 0x0c, 0x18, 0x60, 0x0c, 0x18, 0x60, 0x7c, 0x18,
   0x60, 0x7c, 0x18, 0x60, 0x0c, 0x18, 0x6c, 0x0c, 0x18, 0x6c, 0x0c, 0x18,
   0x7c, 0xfc, 0x18, 0x7c, 0xfc, 0x18, 0x00, 0x00, 0x00, 0x00, 0x00, 0x00,
   0x00, 0x00, 0x00, 0x00, 0x00, 0x00, 0x00, 0x00, 0x00, 0x00, 0x00, 0x00};
