#define list_width 24
#define list_height 24
static unsigned char list_bits[] = {
   0x00, 0x00, 0x00, 0x00, 0x00, 0x00, 0x00, 0x00, 0x00, 0x00, 0x00, 0x00,
   0x03, 0x00, 0x00, 0x03, 0x00, 0x10, 0x03, 0x00, 0x18, 0x83, 0x01, 0x18,
   0x83, 0x01, 0x18, 0x03, 0xf0, 0x7e, 0x83, 0xf9, 0x7c, 0x83, 0x19, 0x18,
   0x83, 0x39, 0x18, 0x83, 0xf1, 0x18, 0x83, 0xc1, 0x18, 0x9f, 0xf9, 0x78,
   0x9f, 0x79, 0x70, 0x00, 0x00, 0x00, 0x00, 0x00, 0x00, 0x00, 0x00, 0x00,
   0x00, 0x00, 0x00, 0x00, 0x00, 0x00, 0x00, 0x00, 0x00, 0x00, 0x00, 0x00};
