#define list_wfo_width 24
#define list_wfo_height 24
static unsigned char list_wfo_bits[] = {
   0x00, 0x00, 0x00, 0x00, 0x00, 0x00, 0x00, 0x00, 0x00, 0x00, 0x00, 0x00,
   0x00, 0x00, 0x00, 0x26, 0xfb, 0x39, 0x26, 0xfb, 0x7d, 0x26, 0xfb, 0xff,
   0x76, 0x1b, 0xee, 0x76, 0x1b, 0xc6, 0x76, 0x1b, 0xc6, 0x76, 0xfb, 0xc6,
   0x76, 0xfb, 0xc6, 0x56, 0x1b, 0xc6, 0x56, 0x1b, 0xee, 0xde, 0x1b, 0xfe,
   0xdc, 0x19, 0x7c, 0xdc, 0x19, 0x38, 0x00, 0x00, 0x00, 0x00, 0x00, 0x00,
   0x00, 0x00, 0x00, 0x00, 0x00, 0x00, 0x00, 0x00, 0x00, 0x00, 0x00, 0x00};
