#define zone_width 24
#define zone_height 24
static unsigned char zone_bits[] = {
   0x00, 0x00, 0x00, 0x00, 0x00, 0x00, 0x00, 0x00, 0x00, 0x00, 0x00, 0x00,
   0x1f, 0x00, 0x00, 0x1f, 0x00, 0x00, 0x18, 0x00, 0x00, 0x1c, 0x00, 0x00,
   0x9c, 0xd3, 0xfd, 0xce, 0xf7, 0xfd, 0xce, 0xf6, 0xcd, 0xce, 0xb6, 0xcd,
   0xc6, 0xb6, 0xfd, 0xc7, 0xb6, 0xfd, 0xc7, 0xb6, 0x0d, 0xdf, 0xb7, 0xfd,
   0x9f, 0xb3, 0xfd, 0x00, 0x00, 0x00, 0x00, 0x00, 0x00, 0x00, 0x00, 0x00,
   0x00, 0x00, 0x00, 0x00, 0x00, 0x00, 0x00, 0x00, 0x00, 0x00, 0x00, 0x00};
