#define mark3.bxm_m_width 24
#define mark3.bxm_m_height 24
static char mark3.bxm_m_bits[] = {
   0x00, 0x00, 0x00, 0x00, 0x00, 0x00, 0x00, 0x08, 0x00, 0x00, 0x08, 0x00,
   0x00, 0x1c, 0x00, 0x00, 0x14, 0x00, 0x00, 0x36, 0x00, 0x00, 0x22, 0x00,
   0x00, 0x63, 0x00, 0x00, 0x41, 0x00, 0x80, 0xc1, 0x00, 0x80, 0x80, 0x00,
   0xc0, 0x80, 0x01, 0x40, 0x00, 0x01, 0x60, 0x00, 0x03, 0x20, 0x00, 0x02,
   0x30, 0x00, 0x06, 0x10, 0x00, 0x04, 0x18, 0x00, 0x0c, 0xf8, 0xff, 0x0f,
   0xfc, 0xff, 0x1f, 0x00, 0x00, 0x00, 0x00, 0x00, 0x00, 0x00, 0x00, 0x00};
