#define mark8.bxm_m_width 24
#define mark8.bxm_m_height 24
static char mark8.bxm_m_bits[] = {
   0x00, 0x00, 0x00, 0x00, 0x00, 0x00, 0x00, 0x00, 0x00, 0xf8, 0xff, 0x1f,
   0xf0, 0xff, 0x0f, 0x60, 0x00, 0x06, 0xc0, 0x00, 0x03, 0x80, 0x81, 0x01,
   0x00, 0xc3, 0x00, 0x00, 0x66, 0x00, 0x00, 0x3c, 0x00, 0x00, 0x18, 0x00,
   0x00, 0x3c, 0x00, 0x00, 0x66, 0x00, 0x00, 0xc3, 0x00, 0x80, 0x81, 0x01,
   0xc0, 0x00, 0x03, 0x60, 0x00, 0x06, 0x30, 0x00, 0x0c, 0x18, 0x00, 0x18,
   0x08, 0x00, 0x10, 0x00, 0x00, 0x00, 0x00, 0x00, 0x00, 0x00, 0x00, 0x00};
