#define mark18.bxm_width 24
#define mark18.bxm_height 24
static char mark18.bxm_bits[] = {
   0x00, 0x00, 0x00, 0x00, 0x00, 0x00, 0x00, 0x08, 0x00, 0x00, 0x08, 0x00,
   0x00, 0x1c, 0x00, 0x00, 0x1c, 0x00, 0x00, 0x3e, 0x00, 0x00, 0x3e, 0x00,
   0x00, 0x7f, 0x00, 0x00, 0x7f, 0x00, 0x80, 0xff, 0x00, 0x80, 0xff, 0x00,
   0xc0, 0xff, 0x01, 0xc0, 0xff, 0x01, 0xe0, 0xff, 0x03, 0xe0, 0xff, 0x03,
   0xf0, 0xff, 0x07, 0xf0, 0xff, 0x07, 0xf8, 0xff, 0x0f, 0xf8, 0xff, 0x0f,
   0xfc, 0xff, 0x1f, 0x00, 0x00, 0x00, 0x00, 0x00, 0x00, 0x00, 0x00, 0x00};
