#define mark12.bxm_m_width 24
#define mark12.bxm_m_height 24
static char mark12.bxm_m_bits[] = {
   0x00, 0x00, 0x00, 0x00, 0x18, 0x00, 0x00, 0x18, 0x00, 0x08, 0x18, 0x10,
   0x18, 0x18, 0x18, 0x30, 0x18, 0x0c, 0x60, 0x18, 0x06, 0xc0, 0x7e, 0x03,
   0x80, 0xff, 0x01, 0x00, 0xff, 0x00, 0x80, 0xff, 0x01, 0xfc, 0xff, 0x7f,
   0xfc, 0xff, 0x7f, 0x00, 0xff, 0x01, 0x00, 0xff, 0x00, 0x00, 0xfe, 0x00,
   0x00, 0x9b, 0x01, 0x80, 0x19, 0x03, 0xc0, 0x18, 0x06, 0x60, 0x18, 0x0c,
   0x30, 0x18, 0x18, 0x18, 0x18, 0x30, 0x00, 0x18, 0x00, 0x00, 0x00, 0x00};
