#define met_width 24
#define met_height 24
static unsigned char met_bits[] = {
   0x00, 0x00, 0x00, 0x00, 0x00, 0x00, 0x00, 0x00, 0x00, 0x00, 0x00, 0x00,
   0x00, 0x00, 0x00, 0x00, 0x00, 0x00, 0xc6, 0xfc, 0x7e, 0xc6, 0xfc, 0x7e,
   0xee, 0x0c, 0x18, 0xee, 0x0c, 0x18, 0xfe, 0x0c, 0x18, 0xd6, 0x7c, 0x18,
   0xd6, 0x7c, 0x18, 0xc6, 0x0c, 0x18, 0xc6, 0x0c, 0x18, 0xc6, 0x0c, 0x18,
   0xc6, 0xfc, 0x18, 0xc6, 0xfc, 0x18, 0x00, 0x00, 0x00, 0x00, 0x00, 0x00,
   0x00, 0x00, 0x00, 0x00, 0x00, 0x00, 0x00, 0x00, 0x00, 0x00, 0x00, 0x00};
