#define modify.xbm_width 24
#define modify.xbm_height 24
static unsigned char modify.xbm_bits[] = {
   0x00, 0x00, 0x00, 0xc0, 0x1f, 0x00, 0x7f, 0xf0, 0x07, 0x00, 0x00, 0xf8,
   0x00, 0x00, 0x00, 0x02, 0x01, 0x60, 0x86, 0x01, 0x60, 0xce, 0x01, 0x60,
   0xfe, 0x01, 0x60, 0xfe, 0x79, 0x7c, 0xb6, 0xfd, 0x7e, 0xb6, 0xcd, 0x66,
   0xb6, 0xcd, 0x66, 0x86, 0xfd, 0x7e, 0x86, 0x79, 0x7c, 0x00, 0x00, 0x00,
   0x00, 0x30, 0x00, 0x00, 0x4c, 0x00, 0x00, 0x82, 0x00, 0x40, 0x82, 0x00,
   0xbf, 0x81, 0x00, 0x00, 0x00, 0x19, 0x00, 0x00, 0xa6, 0x00, 0x00, 0x60};
