#define wkocclfnt.xbm_width 24
#define wkocclfnt.xbm_height 24
static unsigned char wkocclfnt.xbm_bits[] = {
   0x8e, 0x1b, 0x00, 0xdf, 0x1b, 0x40, 0xdb, 0x18, 0x60, 0xdb, 0x18, 0xf0,
   0xdb, 0x18, 0xf8, 0xdb, 0x18, 0xfc, 0xdf, 0x7b, 0x7e, 0x8e, 0x7b, 0x38,
   0x00, 0x80, 0x00, 0x00, 0xc0, 0x00, 0x00, 0xe0, 0x00, 0x00, 0xf0, 0x00,
   0x00, 0xf8, 0x00, 0x00, 0xfc, 0x00, 0x00, 0xfe, 0x00, 0x00, 0x00, 0x00,
   0x80, 0xf7, 0xc6, 0xa0, 0xf7, 0xef, 0xb0, 0xb1, 0xff, 0xf8, 0xf7, 0xff,
   0xfc, 0xf7, 0xd6, 0xfe, 0xb1, 0xd7, 0xbf, 0xb1, 0xc7, 0x9c, 0x31, 0xc7};
