#define occlfnt.xbm_width 24
#define occlfnt.xbm_height 24
static unsigned char occlfnt.xbm_bits[] = {
   0x8e, 0x1b, 0x80, 0xdf, 0x1b, 0xc0, 0xdb, 0x18, 0x60, 0xdb, 0x18, 0x30,
   0xdb, 0x18, 0x38, 0xdb, 0x18, 0x7c, 0xdf, 0x7b, 0x7e, 0x8e, 0x7b, 0x7f,
   0x00, 0x80, 0x3f, 0x00, 0xc0, 0x1c, 0x00, 0x60, 0x00, 0x00, 0x70, 0x00,
   0x00, 0x78, 0x00, 0x00, 0x7c, 0x00, 0x00, 0x7e, 0x00, 0x00, 0x7f, 0x00,
   0x80, 0x7f, 0x00, 0xc0, 0x00, 0x00, 0x60, 0x00, 0x00, 0x70, 0x00, 0x00,
   0xf8, 0x00, 0x00, 0xfc, 0x00, 0x00, 0xfe, 0x00, 0x00, 0x7f, 0x00, 0x00};
