#define openprod_width 24
#define openprod_height 24
static unsigned char openprod_bits[] = {
   0x00, 0x00, 0x00, 0x00, 0x00, 0x00, 0xbc, 0xf7, 0x26, 0xa4, 0x14, 0x26,
   0xa4, 0x14, 0x26, 0xa4, 0x14, 0x2e, 0xa4, 0x77, 0x2a, 0xa4, 0x10, 0x3a,
   0xa4, 0x10, 0x32, 0xa4, 0x10, 0x32, 0xbc, 0xf0, 0x32, 0x00, 0x00, 0x00,
   0x00, 0x00, 0x00, 0xcf, 0xe3, 0x7c, 0xdf, 0xf7, 0xfd, 0xdb, 0xb6, 0xcd,
   0xdb, 0xb6, 0xcd, 0xdf, 0xb7, 0xcd, 0xcf, 0xb3, 0xcd, 0xc3, 0xb2, 0xcd,
   0xc3, 0xb2, 0xcd, 0xc3, 0xf6, 0xfd, 0xc3, 0xe6, 0x7c, 0x00, 0x00, 0x00};
