#define open.xbm_width 24
#define open.xbm_height 24
static unsigned char open.xbm_bits[] = {
   0x00, 0x00, 0x00, 0x00, 0x00, 0x00, 0x00, 0x00, 0x00, 0x00, 0x00, 0x00,
   0x00, 0x00, 0x00, 0x00, 0x00, 0x00, 0x00, 0x00, 0x00, 0xce, 0xf3, 0xcd,
   0xdf, 0xf7, 0xdd, 0xdb, 0x36, 0xdc, 0xdb, 0x36, 0xfc, 0xdb, 0xf7, 0xfc,
   0xdb, 0xf3, 0xfc, 0xdb, 0x30, 0xfc, 0xdb, 0x30, 0xec, 0xdf, 0xf0, 0xed,
   0xce, 0xf0, 0xcd, 0x00, 0x00, 0x00, 0x00, 0x00, 0x00, 0x00, 0x00, 0x00,
   0x00, 0x00, 0x00, 0x00, 0x00, 0x00, 0x00, 0x00, 0x00, 0x00, 0x00, 0x00};
