#define outlook.xbm_width 24
#define outlook.xbm_height 24
static unsigned char outlook.xbm_bits[] = {
   0x00, 0x00, 0x00, 0x00, 0x00, 0x00, 0xe0, 0x44, 0x1f, 0x10, 0x45, 0x04,
   0x10, 0x45, 0x04, 0x10, 0x45, 0x04, 0x10, 0x45, 0x04, 0x10, 0x45, 0x04,
   0xe0, 0x38, 0x04, 0x00, 0x00, 0x00, 0x00, 0x00, 0x00, 0x00, 0x00, 0x00,
   0x00, 0x00, 0x00, 0x84, 0xe3, 0x48, 0x44, 0x14, 0x49, 0x44, 0x14, 0x29,
   0x44, 0x14, 0x39, 0x44, 0x14, 0x19, 0x44, 0xd7, 0x29, 0x44, 0xd7, 0x49,
   0x44, 0xd7, 0x49, 0x9c, 0xe3, 0x48, 0x00, 0x00, 0x00, 0x00, 0x00, 0x00};
