#define partdel.xbm_width 24
#define partdel.xbm_height 24
static unsigned char partdel.xbm_bits[] = {
   0xcf, 0x1b, 0x00, 0xdf, 0x1b, 0x00, 0xdb, 0x18, 0x00, 0xdb, 0x1b, 0x00,
   0xdb, 0x1b, 0x00, 0xdb, 0x18, 0x00, 0xdf, 0x7b, 0x00, 0xcf, 0x7b, 0xc1,
   0x00, 0x00, 0x63, 0x00, 0x06, 0x36, 0xe0, 0xcf, 0x9c, 0xf0, 0xcf, 0x9c,
   0x78, 0x06, 0x36, 0x1e, 0x00, 0x63, 0x3e, 0x80, 0xc1, 0x1c, 0x00, 0x00,
   0xfe, 0xb9, 0xf7, 0xe7, 0xff, 0xff, 0x63, 0xef, 0x6d, 0x67, 0xef, 0x6d,
   0xe7, 0xff, 0x67, 0xe3, 0xfd, 0x6f, 0x60, 0xec, 0x6d, 0x60, 0xec, 0x6d};
