#define precip_width 32
#define precip_height 32
static unsigned char precip_bits[] = {
   0x3f, 0x00, 0x00, 0x00, 0x7f, 0x00, 0x00, 0x00, 0x63, 0x00, 0x00, 0x03,
   0x63, 0x00, 0x00, 0x03, 0x7f, 0x00, 0x00, 0x00, 0x3f, 0xed, 0x7b, 0x7b,
   0x03, 0xef, 0x7b, 0xfb, 0x03, 0x63, 0x1b, 0xdb, 0x03, 0xe3, 0x1b, 0xdb,
   0x03, 0x63, 0x18, 0xdb, 0x03, 0xe3, 0x7b, 0xfb, 0x03, 0xc3, 0x7b, 0x7b,
   0x00, 0x00, 0x00, 0x18, 0x00, 0x00, 0x00, 0x18, 0x00, 0x00, 0x00, 0x18,
   0x00, 0x00, 0x3e, 0x18, 0xf0, 0x00, 0x76, 0x18, 0xd8, 0x03, 0xd6, 0x01,
   0xa8, 0x06, 0xaa, 0x03, 0x58, 0x05, 0x57, 0x0f, 0xa8, 0xfe, 0xab, 0x0a,
   0x58, 0x55, 0x55, 0x0d, 0xac, 0xaa, 0xaa, 0x0a, 0x54, 0x55, 0x55, 0x0d,
   0xac, 0xaa, 0xaa, 0x0a, 0x5c, 0x55, 0x55, 0x0d, 0xa8, 0xaa, 0xaa, 0x0a,
   0x70, 0x55, 0x55, 0x0d, 0xe0, 0xaa, 0xaa, 0x0e, 0xc0, 0x7f, 0x55, 0x07,
   0x00, 0xe0, 0xff, 0x03, 0x00, 0x00, 0x00, 0x00};
