#define printIcon_width 32
#define printIcon_height 32
static char printIcon_bits[] = {
   0x00, 0x00, 0x00, 0x00, 0x00, 0x00, 0x00, 0x00, 0x00, 0xf8, 0x0f, 0x00,
   0x00, 0x08, 0x08, 0x00, 0x00, 0xa8, 0x08, 0x00, 0x00, 0x08, 0x08, 0x00,
   0x00, 0xa8, 0x0a, 0x00, 0x00, 0x08, 0x08, 0x00, 0x00, 0xe8, 0x0a, 0x00,
   0x00, 0x08, 0x08, 0x00, 0x00, 0xff, 0x7f, 0x00, 0x00, 0x01, 0xc0, 0x00,
   0x00, 0x55, 0xd5, 0x01, 0x00, 0x01, 0xc0, 0x00, 0x00, 0x55, 0xd5, 0x01,
   0x00, 0xff, 0xff, 0x01, 0x00, 0xaa, 0xfa, 0x00, 0x00, 0x0e, 0xf0, 0x01,
   0x00, 0xf8, 0x7f, 0x00, 0x00, 0xa8, 0xaa, 0x00, 0x00, 0x00, 0x00, 0x00,
   0x00, 0x00, 0x00, 0x00, 0x78, 0x9e, 0xcd, 0x1e, 0xf8, 0xbe, 0xcd, 0x1e,
   0xd8, 0xb6, 0xdd, 0x0c, 0xf8, 0xbe, 0xfd, 0x0c, 0x78, 0x9e, 0xed, 0x0c,
   0x18, 0xb6, 0xed, 0x0c, 0x18, 0xb6, 0xcd, 0x0c, 0x18, 0xb6, 0xcd, 0x0c,
   0x00, 0x00, 0x00, 0x00, 0x00, 0x00, 0x00, 0x00};
