#define pstwx03_width 24
#define pstwx03_height 24
static unsigned char pstwx03_bits[] = {
   0x00, 0x00, 0x00, 0x00, 0x00, 0x00, 0x00, 0x00, 0x00, 0x00, 0x00, 0x00,
   0x00, 0x00, 0x00, 0x00, 0x3e, 0x00, 0x00, 0x41, 0x00, 0x00, 0x41, 0x00,
   0x80, 0x80, 0x00, 0x80, 0x00, 0x00, 0x80, 0x01, 0x04, 0x00, 0x06, 0x08,
   0xf0, 0xff, 0x1f, 0x00, 0x60, 0x08, 0x00, 0x80, 0x04, 0x00, 0x80, 0x00,
   0x80, 0x80, 0x00, 0x00, 0x41, 0x00, 0x00, 0x41, 0x00, 0x00, 0x3e, 0x00,
   0x00, 0x00, 0x00, 0x00, 0x00, 0x00, 0x00, 0x00, 0x00, 0x00, 0x00, 0x00};
