#define redo.xbm_width 24
#define redo.xbm_height 24
static unsigned char redo.xbm_bits[] = {
   0x00, 0x00, 0x00, 0x00, 0x00, 0x00, 0x00, 0x00, 0x00, 0x00, 0x00, 0x00,
   0x00, 0x00, 0x00, 0x00, 0x00, 0x00, 0x00, 0x00, 0x00, 0x00, 0x00, 0x00,
   0x1e, 0x00, 0x03, 0x3e, 0x00, 0x03, 0x36, 0x00, 0x03, 0x36, 0xc7, 0x73,
   0xb6, 0xef, 0xfb, 0xbe, 0x6d, 0xdb, 0x9e, 0x6f, 0xdb, 0xb6, 0x6f, 0xdb,
   0xb6, 0x61, 0xdb, 0xb6, 0xef, 0xfb, 0x36, 0xcf, 0x73, 0x00, 0x00, 0x00,
   0x00, 0x00, 0x00, 0x00, 0x00, 0x00, 0x00, 0x00, 0x00, 0x00, 0x00, 0x00};
