#define rock.xbm_width 24
#define rock.xbm_height 24
static char rock.xbm_bits[] = {
   0x00, 0x00, 0x00, 0x00, 0x00, 0x00, 0x00, 0x00, 0x00, 0x00, 0x24, 0x00,
   0x00, 0x66, 0x00, 0x00, 0xe7, 0x00, 0x80, 0xe7, 0x01, 0xc0, 0xe7, 0x03,
   0xe0, 0xe7, 0x07, 0xf0, 0xe7, 0x0f, 0xf8, 0xe7, 0x1f, 0xfc, 0xe7, 0x3f,
   0xfc, 0xe7, 0x3f, 0xf8, 0xe7, 0x1f, 0xf0, 0xe7, 0x0f, 0xe0, 0xe7, 0x07,
   0xc0, 0xe7, 0x03, 0x80, 0xe7, 0x01, 0x00, 0xe7, 0x00, 0x00, 0x66, 0x00,
   0x00, 0x24, 0x00, 0x00, 0x00, 0x00, 0x00, 0x00, 0x00, 0x00, 0x00, 0x00};
