#define showbox_width 32
#define showbox_height 32
static unsigned char showbox_bits[] = {
   0x00, 0x00, 0x00, 0x00, 0x00, 0x00, 0x00, 0x00, 0xf0, 0x07, 0x00, 0x00,
   0xf8, 0x07, 0x00, 0x00, 0x18, 0x00, 0x00, 0x00, 0x18, 0x30, 0x00, 0x00,
   0x18, 0x30, 0x00, 0x00, 0xf8, 0x33, 0x00, 0x00, 0xf0, 0x37, 0x00, 0x63,
   0x00, 0xf6, 0x38, 0x63, 0x00, 0xf6, 0x6d, 0x6b, 0x00, 0xb6, 0x45, 0x6b,
   0xf8, 0xb7, 0x6d, 0x6b, 0xf0, 0xb3, 0x39, 0x3e, 0x00, 0x00, 0x00, 0x00,
   0x00, 0x00, 0x04, 0x00, 0x00, 0x00, 0x04, 0x00, 0x06, 0x18, 0x12, 0x60,
   0x06, 0x18, 0x1a, 0x60, 0x06, 0x18, 0x1a, 0x60, 0x06, 0x18, 0x1a, 0x60,
   0x06, 0x18, 0x19, 0x60, 0x06, 0x18, 0x19, 0x60, 0xc6, 0x18, 0x19, 0x63,
   0xc6, 0x18, 0x19, 0x63, 0xc6, 0x98, 0x18, 0x63, 0xc6, 0x98, 0x18, 0x63,
   0xc6, 0x98, 0x18, 0x63, 0xee, 0x9d, 0xb8, 0x77, 0xfe, 0x5f, 0xf8, 0x7f,
   0x3c, 0x4f, 0xf0, 0x3c, 0x00, 0x00, 0x00, 0x00};
