#define grpshall_width 24
#define grpshall_height 24
static unsigned char grpshall_bits[] = {
   0x1c, 0x00, 0x00, 0x02, 0x00, 0x00, 0x42, 0x32, 0x11, 0x4c, 0x4a, 0x11,
   0xd0, 0x4b, 0x15, 0x50, 0x4a, 0x0e, 0x4e, 0x32, 0x0a, 0x00, 0x00, 0x00,
   0x80, 0x89, 0x00, 0x40, 0x8a, 0x00, 0xc0, 0x8b, 0x00, 0x40, 0x8a, 0x00,
   0x40, 0xba, 0x03, 0x00, 0x00, 0x00, 0xee, 0xb9, 0x7d, 0xff, 0xff, 0xfd,
   0x63, 0xef, 0xdd, 0x63, 0xef, 0xdd, 0xff, 0xed, 0xfd, 0xfb, 0xed, 0x7d,
   0x7b, 0xef, 0x3d, 0x7b, 0xef, 0x3d, 0x7f, 0xff, 0x3f, 0x7e, 0x3b, 0x3b};
