#define show_loop_width 24
#define show_loop_height 24
static unsigned char show_loop_bits[] = {
   0x00, 0x00, 0x00, 0x3e, 0x00, 0x00, 0x3f, 0x00, 0x00, 0x83, 0xed, 0x45,
   0x83, 0xed, 0x45, 0x9f, 0x2d, 0x45, 0xbe, 0x2f, 0x55, 0xb0, 0x2f, 0x55,
   0xb0, 0x2d, 0x7d, 0xbf, 0xed, 0x7d, 0x9f, 0xed, 0x29, 0x00, 0x00, 0x00,
   0x00, 0x00, 0x00, 0x06, 0x00, 0x00, 0x06, 0x00, 0x00, 0x06, 0x00, 0x00,
   0x06, 0xef, 0x3d, 0x06, 0xef, 0x3d, 0x06, 0x29, 0x2d, 0x06, 0x29, 0x3d,
   0x7e, 0xef, 0x0d, 0x7e, 0xef, 0x0d, 0x00, 0x00, 0x00, 0x00, 0x00, 0x00};
