#define signcon.xbm_width 24
#define signcon.xbm_height 24
static unsigned char signcon.xbm_bits[] = {
   0x00, 0x00, 0x00, 0x00, 0x00, 0x00, 0x4c, 0x3e, 0x26, 0x4c, 0x22, 0x26,
   0x5c, 0x22, 0x2e, 0x54, 0x22, 0x2a, 0x74, 0x22, 0x3a, 0x66, 0x22, 0x33,
   0x62, 0x22, 0x31, 0x62, 0x22, 0x31, 0x62, 0x3e, 0x31, 0x00, 0x00, 0x00,
   0x00, 0x00, 0x00, 0x00, 0x00, 0x00, 0x00, 0x00, 0x00, 0xbe, 0x67, 0x42,
   0x82, 0xf4, 0x42, 0x82, 0x94, 0x66, 0x82, 0x94, 0x24, 0x82, 0x94, 0x3c,
   0x82, 0x94, 0x18, 0xbe, 0x97, 0x18, 0x00, 0x00, 0x00, 0x00, 0x00, 0x00};
