#define sigvol_width 24
#define sigvol_height 24
static unsigned char sigvol_bits[] = {
   0x00, 0x00, 0x00, 0x00, 0x00, 0x00, 0x00, 0x00, 0x00, 0x00, 0x00, 0x00,
   0x00, 0x00, 0x00, 0xc6, 0x38, 0x06, 0xc6, 0x7c, 0x06, 0xc6, 0x6c, 0x06,
   0xc6, 0xc6, 0x06, 0xc6, 0xc6, 0x06, 0xc6, 0xc6, 0x06, 0xc6, 0xc6, 0x06,
   0x6c, 0xc6, 0x06, 0x6c, 0xc6, 0x06, 0x6c, 0xc6, 0x06, 0x6c, 0xc6, 0x06,
   0x38, 0x6c, 0x06, 0x38, 0x7c, 0xfe, 0x38, 0x38, 0xfe, 0x00, 0x00, 0x00,
   0x00, 0x00, 0x00, 0x00, 0x00, 0x00, 0x00, 0x00, 0x00, 0x00, 0x00, 0x00};
