#define sigvac_width 24
#define sigvac_height 24
static unsigned char sigvac_bits[] = {
   0x00, 0x00, 0x00, 0x00, 0x00, 0x00, 0x00, 0x00, 0x00, 0x00, 0x00, 0x00,
   0x00, 0x00, 0x00, 0xc6, 0x38, 0xf0, 0xc6, 0x38, 0xf8, 0xc6, 0x28, 0x18,
   0xc6, 0x6c, 0x0c, 0xc6, 0x6c, 0x0c, 0xc6, 0x6c, 0x06, 0xc6, 0xc6, 0x06,
   0x6c, 0xfe, 0x06, 0x6c, 0xfe, 0x06, 0x6c, 0xc6, 0x0c, 0x6c, 0xc6, 0x0c,
   0x38, 0x83, 0x19, 0x38, 0x83, 0xf9, 0x38, 0x83, 0xf1, 0x00, 0x00, 0x00,
   0x00, 0x00, 0x00, 0x00, 0x00, 0x00, 0x00, 0x00, 0x00, 0x00, 0x00, 0x00};
