#define sky04_width 24
#define sky04_height 24
static unsigned char sky04_bits[] = {
   0x00, 0x00, 0x00, 0x00, 0x00, 0x00, 0x00, 0x00, 0x00, 0x00, 0x00, 0x00,
   0x00, 0xfe, 0x00, 0x00, 0xe3, 0x01, 0xc0, 0xe0, 0x07, 0x40, 0xe0, 0x07,
   0x20, 0xe0, 0x0f, 0x30, 0xe0, 0x1f, 0x10, 0xe0, 0x1f, 0x10, 0xe0, 0x1f,
   0x10, 0xe0, 0x1f, 0x10, 0xe0, 0x1f, 0x10, 0xe0, 0x1f, 0x30, 0xe0, 0x1f,
   0x20, 0xe0, 0x0f, 0x40, 0xe0, 0x07, 0xc0, 0xe0, 0x07, 0x00, 0xe3, 0x01,
   0x00, 0xfe, 0x00, 0x00, 0x00, 0x00, 0x00, 0x00, 0x00, 0x00, 0x00, 0x00};
