#define smear_width 24
#define smear_height 24
static unsigned char smear_bits[] = {
   0x00, 0x00, 0x00, 0x00, 0x00, 0x00, 0xb7, 0xdd, 0x3b, 0xb7, 0x5d, 0x4a,
   0x51, 0x45, 0x4a, 0x57, 0xcd, 0x3b, 0x17, 0xcd, 0x3b, 0x14, 0x45, 0x2a,
   0x17, 0x5d, 0x4a, 0x17, 0x5d, 0x4a, 0x00, 0x00, 0x00, 0x00, 0x7d, 0x00,
   0xa0, 0x44, 0x00, 0x10, 0x44, 0x00, 0x08, 0x44, 0x00, 0x04, 0x44, 0x00,
   0x02, 0x44, 0x00, 0x1f, 0xc4, 0x0f, 0x11, 0x04, 0x08, 0x11, 0x04, 0x08,
   0x71, 0xfc, 0x0f, 0x41, 0x00, 0x04, 0x41, 0xaa, 0x02, 0x7f, 0x01, 0x00};
