#define spln7_width 24
#define spln7_height 24
static unsigned char spln7_bits[] = {
   0x00, 0x00, 0x00, 0x00, 0x00, 0x00, 0x00, 0x00, 0x00, 0x00, 0x00, 0x00,
   0x00, 0x00, 0x00, 0x00, 0x00, 0x00, 0x00, 0x00, 0x00, 0x00, 0x00, 0x00,
   0x00, 0x00, 0x0e, 0xff, 0x1f, 0x1f, 0xff, 0x9f, 0x31, 0x03, 0xd8, 0x60,
   0x03, 0xd8, 0x60, 0x03, 0xd8, 0x60, 0xff, 0x9f, 0x31, 0xff, 0x1f, 0x1f,
   0x00, 0x00, 0x0e, 0x00, 0x00, 0x00, 0x00, 0x00, 0x00, 0x00, 0x00, 0x00,
   0x00, 0x00, 0x00, 0x00, 0x00, 0x00, 0x00, 0x00, 0x00, 0x00, 0x00, 0x00};
