#define spln22_width 24
#define spln22_height 24
static unsigned char spln22_bits[] = {
   0x00, 0x00, 0x00, 0x00, 0x00, 0x00, 0x00, 0x00, 0x00, 0x00, 0x00, 0x00,
   0x00, 0x00, 0x00, 0x00, 0x00, 0x00, 0x00, 0x00, 0x00, 0x00, 0x00, 0x00,
   0x60, 0xc0, 0x00, 0xc0, 0x80, 0x01, 0x80, 0x01, 0x03, 0x00, 0x03, 0x06,
   0xff, 0xff, 0xff, 0xff, 0xff, 0xff, 0x00, 0x03, 0x06, 0x80, 0x01, 0x03,
   0xc0, 0x80, 0x01, 0x60, 0xc0, 0x00, 0x00, 0x00, 0x00, 0x00, 0x00, 0x00,
   0x00, 0x00, 0x00, 0x00, 0x00, 0x00, 0x00, 0x00, 0x00, 0x00, 0x00, 0x00};
