#define spln17_width 24
#define spln17_height 24
static unsigned char spln17_bits[] = {
   0x00, 0x00, 0x00, 0x00, 0x00, 0x00, 0x00, 0x00, 0x00, 0x00, 0x00, 0x00,
   0x00, 0x00, 0x00, 0x00, 0x00, 0x00, 0x20, 0x00, 0x04, 0x70, 0x00, 0x0e,
   0x70, 0x00, 0x0e, 0xd8, 0x00, 0x1b, 0xd8, 0x00, 0x1b, 0xff, 0xff, 0xff,
   0xff, 0xff, 0xff, 0x06, 0xc3, 0x60, 0x06, 0xc3, 0x60, 0x03, 0x66, 0xc0,
   0x03, 0x66, 0xc0, 0x00, 0x00, 0x00, 0x00, 0x00, 0x00, 0x00, 0x00, 0x00,
   0x00, 0x00, 0x00, 0x00, 0x00, 0x00, 0x00, 0x00, 0x00, 0x00, 0x00, 0x00};
