#define spln15_width 24
#define spln15_height 24
static unsigned char spln15_bits[] = {
   0x00, 0x00, 0x00, 0x00, 0x00, 0x00, 0x00, 0x00, 0x00, 0x00, 0x00, 0x00,
   0x00, 0x00, 0x00, 0x00, 0x00, 0x00, 0x00, 0x00, 0x00, 0x00, 0x00, 0x00,
   0x00, 0x00, 0x00, 0xff, 0x3f, 0x21, 0xff, 0x3f, 0x33, 0x03, 0x30, 0x1e,
   0x03, 0x30, 0x0c, 0x03, 0x30, 0x1e, 0xff, 0x3f, 0x33, 0xff, 0x3f, 0x21,
   0x00, 0x00, 0x00, 0x00, 0x00, 0x00, 0x00, 0x00, 0x00, 0x00, 0x00, 0x00,
   0x00, 0x00, 0x00, 0x00, 0x00, 0x00, 0x00, 0x00, 0x00, 0x00, 0x00, 0x00};
