#define spln3_width 24
#define spln3_height 24
static unsigned char spln3_bits[] = {
   0x00, 0x00, 0x00, 0x00, 0x00, 0x00, 0x00, 0x00, 0x00, 0x00, 0x00, 0x00,
   0x00, 0x00, 0x00, 0x00, 0x00, 0x00, 0x30, 0x18, 0x0c, 0x78, 0x3c, 0x1e,
   0xcc, 0x66, 0x33, 0x86, 0xc3, 0x61, 0x86, 0xc3, 0x61, 0x86, 0xc3, 0x61,
   0x86, 0xc3, 0x61, 0x00, 0x00, 0x00, 0x00, 0x00, 0x00, 0x00, 0x00, 0x00,
   0x00, 0x00, 0x00, 0x00, 0x00, 0x00, 0x00, 0x00, 0x00, 0x00, 0x00, 0x00,
   0x00, 0x00, 0x00, 0x00, 0x00, 0x00, 0x00, 0x00, 0x00, 0x00, 0x00, 0x00};
