#define spln8_width 24
#define spln8_height 24
static unsigned char spln8_bits[] = {
   0x00, 0x00, 0x00, 0x00, 0x00, 0x00, 0x00, 0x00, 0x00, 0x00, 0x00, 0x00,
   0x00, 0x00, 0x00, 0x00, 0x00, 0x00, 0x00, 0x00, 0x00, 0x00, 0x00, 0x00,
   0x00, 0x00, 0x00, 0x80, 0x28, 0x02, 0x80, 0x6d, 0x03, 0x3f, 0xc7, 0xf9,
   0x3f, 0x82, 0xf8, 0x00, 0xc7, 0x01, 0x80, 0x6d, 0x03, 0x80, 0x28, 0x02,
   0x00, 0x00, 0x00, 0x00, 0x00, 0x00, 0x00, 0x00, 0x00, 0x00, 0x00, 0x00,
   0x00, 0x00, 0x00, 0x00, 0x00, 0x00, 0x00, 0x00, 0x00, 0x00, 0x00, 0x00};
