#define spln16_width 24
#define spln16_height 24
static unsigned char spln16_bits[] = {
   0x00, 0x00, 0x00, 0x00, 0x00, 0x00, 0x00, 0x00, 0x00, 0x00, 0x00, 0x00,
   0x00, 0x00, 0x00, 0x00, 0x00, 0x00, 0x00, 0x00, 0x04, 0x00, 0x00, 0x0c,
   0x00, 0x07, 0x1c, 0x80, 0x0f, 0x3c, 0xc0, 0x18, 0x7c, 0x7f, 0xf0, 0xff,
   0x7f, 0xf0, 0xff, 0x7f, 0xf0, 0x7f, 0xc0, 0x18, 0x3c, 0x80, 0x0f, 0x1c,
   0x00, 0x07, 0x0c, 0x00, 0x00, 0x04, 0x00, 0x00, 0x00, 0x00, 0x00, 0x00,
   0x00, 0x00, 0x00, 0x00, 0x00, 0x00, 0x00, 0x00, 0x00, 0x00, 0x00, 0x00};
