#define spln21.xbm_width 24
#define spln21.xbm_height 24
static unsigned char spln21.xbm_bits[] = {
   0x00, 0x00, 0x00, 0x00, 0x00, 0x00, 0x00, 0x00, 0x00, 0x00, 0x00, 0x00,
   0x00, 0x00, 0x00, 0x00, 0x00, 0x00, 0x00, 0x00, 0x04, 0x00, 0x00, 0x0c,
   0x00, 0x00, 0x1c, 0x00, 0x00, 0x3c, 0x00, 0x00, 0x7c, 0x8f, 0x8f, 0xff,
   0x8f, 0x8f, 0xff, 0x00, 0x00, 0x7c, 0x00, 0x00, 0x3c, 0x00, 0x00, 0x1c,
   0x00, 0x00, 0x0c, 0x00, 0x00, 0x04, 0x00, 0x00, 0x00, 0x00, 0x00, 0x00,
   0x00, 0x00, 0x00, 0x00, 0x00, 0x00, 0x00, 0x00, 0x00, 0x00, 0x00, 0x00};
