#define spln19_width 24
#define spln19_height 24
static unsigned char spln19_bits[] = {
   0x00, 0x00, 0x00, 0x00, 0x00, 0x00, 0x00, 0x00, 0x00, 0x00, 0x00, 0x00,
   0x00, 0x00, 0x00, 0x00, 0x00, 0x00, 0x18, 0x00, 0x18, 0x3c, 0x00, 0x3c,
   0x66, 0x00, 0x66, 0xc3, 0x00, 0xc3, 0xc3, 0x00, 0xc3, 0xc3, 0x00, 0xc3,
   0xc3, 0x81, 0xc3, 0x80, 0xc3, 0x01, 0x00, 0xc3, 0x00, 0x00, 0xc3, 0x00,
   0x00, 0xc3, 0x00, 0x00, 0x66, 0x00, 0x00, 0x3c, 0x00, 0x00, 0x18, 0x00,
   0x00, 0x00, 0x00, 0x00, 0x00, 0x00, 0x00, 0x00, 0x00, 0x00, 0x00, 0x00};
