#define spln1_width 24
#define spln1_height 24
static unsigned char spln1_bits[] = {
   0x00, 0x00, 0x00, 0x00, 0x00, 0x00, 0x00, 0x00, 0x00, 0x00, 0x00, 0x00,
   0x00, 0x00, 0x00, 0x00, 0x00, 0x00, 0x00, 0x00, 0x00, 0x00, 0x00, 0x00,
   0x00, 0x38, 0x00, 0x00, 0x7c, 0x00, 0x00, 0xc6, 0x00, 0x7f, 0x83, 0xfd,
   0x7f, 0x83, 0xfd, 0x00, 0x83, 0x01, 0x00, 0xc6, 0x00, 0x00, 0x7c, 0x00,
   0x00, 0x38, 0x00, 0x00, 0x00, 0x00, 0x00, 0x00, 0x00, 0x00, 0x00, 0x00,
   0x00, 0x00, 0x00, 0x00, 0x00, 0x00, 0x00, 0x00, 0x00, 0x00, 0x00, 0x00};
