#define spsym43_width 24
#define spsym43_height 24
static unsigned char spsym43_bits[] = {
   0x00, 0x00, 0x00, 0x00, 0x00, 0x00, 0x00, 0x00, 0x00, 0x00, 0x7c, 0x00,
   0x00, 0x7c, 0x00, 0x00, 0xfe, 0x00, 0x00, 0xfe, 0x00, 0x00, 0xff, 0x01,
   0x00, 0xef, 0x01, 0x00, 0xc7, 0x01, 0x80, 0xc7, 0x03, 0x80, 0xc7, 0x03,
   0xc0, 0x83, 0x07, 0xc0, 0x83, 0x07, 0xe0, 0x01, 0x0f, 0xe0, 0xff, 0x0f,
   0xf0, 0xff, 0x1f, 0xf0, 0xff, 0x1f, 0xf0, 0x00, 0x1e, 0xf0, 0x00, 0x1e,
   0xf0, 0x00, 0x1e, 0x00, 0x00, 0x00, 0x00, 0x00, 0x00, 0x00, 0x00, 0x00};
