#define spsym22_width 24
#define spsym22_height 24
static unsigned char spsym22_bits[] = {
   0x00, 0x00, 0x00, 0x00, 0x00, 0x00, 0xe0, 0x0f, 0x00, 0x00, 0x08, 0x00,
   0x00, 0x08, 0x00, 0x00, 0x48, 0x08, 0x00, 0x88, 0x04, 0x00, 0x08, 0x03,
   0x00, 0xc8, 0x0f, 0x00, 0x08, 0x03, 0x00, 0x88, 0x04, 0x00, 0x48, 0x08,
   0x00, 0x08, 0x00, 0x00, 0x08, 0x00, 0x00, 0x48, 0x08, 0x00, 0x88, 0x04,
   0x00, 0x08, 0x03, 0x00, 0xc8, 0x0f, 0x00, 0x08, 0x03, 0x00, 0x88, 0x04,
   0x00, 0x48, 0x08, 0x00, 0x08, 0x00, 0xe0, 0x0f, 0x00, 0x00, 0x00, 0x00};
