#define Bbitmap_width 24
#define Bbitmap_height 24
static unsigned char Bbitmap_bits[] = {
   0x00, 0x00, 0x00, 0x00, 0x00, 0x00, 0x00, 0x00, 0x00, 0xf8, 0xff, 0x03,
   0xf8, 0xff, 0x07, 0xf8, 0xff, 0x0f, 0x38, 0x00, 0x1f, 0x38, 0x00, 0x1e,
   0x38, 0x00, 0x1e, 0x38, 0x00, 0x1f, 0xf8, 0xff, 0x0f, 0xf8, 0xff, 0x07,
   0xf8, 0xff, 0x07, 0xf8, 0xff, 0x0f, 0x38, 0x00, 0x1f, 0x38, 0x00, 0x1e,
   0x38, 0x00, 0x1e, 0x38, 0x00, 0x1f, 0xf8, 0xff, 0x0f, 0xf8, 0xff, 0x07,
   0xf8, 0xff, 0x03, 0x00, 0x00, 0x00, 0x00, 0x00, 0x00, 0x00, 0x00, 0x00};
