#define spsym08_width 24
#define spsym08_height 24
static unsigned char spsym08_bits[] = {
   0x00, 0x00, 0x00, 0x00, 0x08, 0x00, 0x00, 0x14, 0x00, 0x00, 0x14, 0x00,
   0x00, 0x22, 0x00, 0x00, 0x22, 0x00, 0x00, 0x41, 0x00, 0x00, 0x41, 0x00,
   0x00, 0x41, 0x00, 0xfe, 0x80, 0x7f, 0x02, 0x00, 0x40, 0x0c, 0x00, 0x30,
   0x10, 0x00, 0x08, 0x60, 0x00, 0x06, 0x80, 0x81, 0x01, 0x00, 0x81, 0x00,
   0x80, 0x00, 0x01, 0x40, 0x00, 0x02, 0x40, 0x18, 0x02, 0x20, 0x66, 0x04,
   0x90, 0x81, 0x09, 0x50, 0x00, 0x0a, 0x30, 0x00, 0x0c, 0x00, 0x00, 0x00};
