#define spsym10_width 24
#define spsym10_height 24
static unsigned char spsym10_bits[] = {
   0x00, 0x00, 0x00, 0x00, 0x00, 0x00, 0x00, 0x00, 0x00, 0xf0, 0x01, 0x1f,
   0x10, 0x01, 0x11, 0x10, 0x01, 0x11, 0x10, 0x01, 0x11, 0x10, 0x01, 0x11,
   0x10, 0x01, 0x11, 0x10, 0xff, 0x11, 0x10, 0x00, 0x10, 0x10, 0x00, 0x10,
   0x10, 0xff, 0x11, 0x10, 0x01, 0x11, 0x10, 0x01, 0x11, 0x10, 0x01, 0x11,
   0x10, 0x01, 0x11, 0x10, 0x01, 0x11, 0x10, 0x01, 0x11, 0x10, 0x01, 0x11,
   0xf0, 0x01, 0x1f, 0x00, 0x00, 0x00, 0x00, 0x00, 0x00, 0x00, 0x00, 0x00};
