#define stmcntr.xbm_width  24
#define stmcntr.xbm_height 24
static unsigned char stmcntr.xbm_bits[] = {
   0x00, 0x00, 0x00, 0xfc, 0xff, 0x7f, 0x0c, 0x00, 0x60, 0x14, 0x00, 0x50, 
   0x24, 0x00, 0x48, 0x44, 0x00, 0x44, 0x84, 0x00, 0x42, 0x04, 0x01, 0x41, 
   0x04, 0x82, 0x40, 0x04, 0x44, 0x40, 0x04, 0x28, 0x40, 0x04, 0x10, 0x40, 
   0x04, 0x28, 0x40, 0x04, 0x44, 0x40, 0x04, 0x82, 0x40, 0x04, 0x01, 0x41, 
   0x84, 0x00, 0x42, 0x44, 0x00, 0x44, 0x24, 0x00, 0x48, 0x14, 0x00, 0x50, 
   0x0c, 0x00, 0x60, 0xfc, 0xff, 0x7f, 0x00, 0x00, 0x00, 0x00, 0x00, 0x00 };
