#define ptrpssh.xbm_width  24
#define ptrpssh.xbm_height 24
static unsigned char ptrpssh.xbm_bits[] = {
   0x00, 0x00, 0x00, 0x00, 0x10, 0x00, 0x00, 0x20, 0x00, 0x00, 0x40, 0x00, 
   0x00, 0x40, 0x00, 0x00, 0x40, 0x00, 0x00, 0x40, 0x00, 0x00, 0x40, 0x00, 
   0x00, 0x40, 0x00, 0x00, 0x40, 0x00, 0x00, 0x20, 0x00, 0xc0, 0x1f, 0x00, 
   0x20, 0x20, 0x00, 0x10, 0x20, 0x00, 0x10, 0x40, 0x00, 0x08, 0x40, 0x60, 
   0x08, 0x80, 0x19, 0x04, 0x00, 0x06, 0x00, 0x00, 0x00, 0x00, 0x00, 0x00, 
   0x00, 0x00, 0x00, 0x00, 0x00, 0x00, 0x00, 0x00, 0x00, 0x00, 0x00, 0x00 };
