#define spsym05_width 24
#define spsym05_height 24
static unsigned char spsym05_bits[] = {
   0x00, 0x00, 0x00, 0x00, 0x10, 0x00, 0x00, 0x38, 0x00, 0x00, 0x38, 0x00,
   0x00, 0x7c, 0x00, 0x00, 0x7c, 0x00, 0x00, 0xfe, 0x00, 0x00, 0xfe, 0x00,
   0x00, 0xff, 0x01, 0x00, 0xff, 0x01, 0x80, 0xff, 0x03, 0x80, 0xff, 0x03,
   0xc0, 0xff, 0x07, 0xc0, 0xff, 0x07, 0xe0, 0xff, 0x0f, 0xe0, 0xff, 0x0f,
   0xf0, 0xff, 0x1f, 0xf0, 0xff, 0x1f, 0xf8, 0xff, 0x3f, 0xf8, 0xff, 0x3f,
   0xfc, 0xff, 0x7f, 0xfc, 0xff, 0x7f, 0xfc, 0xff, 0x7f, 0x00, 0x00, 0x00};
