#define spsym50_width 24
#define spsym50_height 24
static unsigned char spsym50_bits[] = {
   0x00, 0x00, 0x00, 0x00, 0x00, 0x00, 0x00, 0x3e, 0x7f, 0x00, 0x20, 0x41,
   0x00, 0x20, 0x41, 0x00, 0x20, 0x41, 0x00, 0x38, 0x41, 0x00, 0x20, 0x41,
   0x00, 0x20, 0x41, 0x00, 0x20, 0x41, 0x00, 0x3e, 0x7f, 0x00, 0x00, 0x00,
   0x92, 0x00, 0x00, 0x92, 0x00, 0x00, 0x24, 0x01, 0x00, 0x24, 0x01, 0x00,
   0x24, 0x01, 0x00, 0x44, 0x02, 0x00, 0x48, 0x02, 0x00, 0xf8, 0xff, 0x0f,
   0x00, 0x00, 0x00, 0x00, 0x00, 0x00, 0x00, 0x00, 0x00, 0x00, 0x00, 0x00};
