#define spsym46_width 24
#define spsym46_height 24
static unsigned char spsym46_bits[] = {
   0x00, 0x00, 0x00, 0x00, 0x00, 0x00, 0x00, 0x00, 0x00, 0x70, 0x00, 0x1c,
   0x90, 0x00, 0x12, 0x10, 0x01, 0x11, 0x20, 0x82, 0x08, 0x40, 0x44, 0x04,
   0x80, 0x28, 0x02, 0x00, 0x11, 0x01, 0x00, 0x82, 0x00, 0x00, 0x44, 0x00,
   0x00, 0x44, 0x00, 0x00, 0x82, 0x00, 0x00, 0x11, 0x01, 0x80, 0x28, 0x02,
   0x40, 0x44, 0x04, 0x20, 0x82, 0x08, 0x10, 0x01, 0x11, 0x90, 0x00, 0x12,
   0x70, 0x00, 0x1c, 0x00, 0x00, 0x00, 0x00, 0x00, 0x00, 0x00, 0x00, 0x00};
