#define spsym52_width 24
#define spsym52_height 24
static unsigned char spsym52_bits[] = {
   0x00, 0x00, 0x00, 0x00, 0x00, 0x00, 0x00, 0x00, 0x00, 0x00, 0x01, 0x01,
   0x00, 0x01, 0x01, 0x00, 0x01, 0x01, 0x80, 0x83, 0x03, 0x80, 0x83, 0x03,
   0x80, 0x83, 0x03, 0x80, 0x83, 0x03, 0xc0, 0xc7, 0x07, 0xf8, 0xff, 0x3f,
   0x40, 0x44, 0x04, 0x40, 0x44, 0x04, 0x20, 0x28, 0x08, 0x20, 0x28, 0x08,
   0x20, 0x28, 0x08, 0x20, 0x28, 0x08, 0x10, 0x10, 0x10, 0x10, 0x10, 0x10,
   0x10, 0x10, 0x10, 0x00, 0x00, 0x00, 0x00, 0x00, 0x00, 0x00, 0x00, 0x00};
