#define lowx_width 24
#define lowx_height 24
static unsigned char lowx_bits[] = {
   0x00, 0x00, 0x00, 0x7c, 0x00, 0x00, 0x7c, 0x00, 0x00, 0x7c, 0x00, 0x00,
   0x7c, 0x00, 0x00, 0x7c, 0x00, 0x00, 0x7c, 0x00, 0x00, 0x7c, 0x01, 0x01,
   0x7c, 0x82, 0x00, 0x7c, 0x44, 0x00, 0x7c, 0x28, 0x00, 0x7c, 0x10, 0x00,
   0x7c, 0x28, 0x00, 0x7c, 0x44, 0x00, 0x7c, 0x82, 0x00, 0x7c, 0x01, 0x01,
   0x7c, 0x00, 0x00, 0xfc, 0xff, 0x03, 0xfc, 0xff, 0x03, 0xfc, 0xff, 0x03,
   0xfc, 0xff, 0x03, 0x00, 0x00, 0x00, 0x00, 0x00, 0x00, 0x00, 0x00, 0x00};
