#define flame.xbm_width  24
#define flame.xbm_height 24
static unsigned char flame.xbm_bits[] = {
   0x00, 0x00, 0x00, 0x00, 0x00, 0x00, 0x60, 0x60, 0x00, 0xe0, 0x75, 0x00, 
   0xf0, 0x7d, 0x00, 0xf0, 0xfe, 0x00, 0x70, 0xfe, 0x00, 0x74, 0xff, 0x10, 
   0x74, 0xff, 0x10, 0x74, 0xff, 0x39, 0x7c, 0xff, 0x3d, 0x3c, 0xff, 0x7f, 
   0x2c, 0xff, 0x7f, 0x1c, 0xf6, 0x3f, 0x3c, 0xf0, 0x1f, 0xfc, 0xf0, 0x0f, 
   0xf8, 0xf7, 0x03, 0xf8, 0xff, 0x00, 0xe0, 0xff, 0x00, 0x00, 0x7f, 0x00, 
   0x00, 0x7c, 0x00, 0x00, 0x00, 0x00, 0x00, 0x00, 0x00, 0x00, 0x00, 0x00 };
