#define spsym48_width 24
#define spsym48_height 24
static unsigned char spsym48_bits[] = {
   0x00, 0x00, 0x00, 0x00, 0x00, 0x00, 0x00, 0x00, 0x00, 0xf0, 0x01, 0x1f,
   0x10, 0x01, 0x11, 0x10, 0x02, 0x11, 0x10, 0x04, 0x11, 0x10, 0x08, 0x11,
   0x10, 0x08, 0x11, 0x10, 0x10, 0x11, 0x10, 0x13, 0x11, 0x10, 0x25, 0x11,
   0x10, 0x25, 0x11, 0x10, 0x49, 0x11, 0x10, 0x49, 0x11, 0x10, 0x91, 0x11,
   0x10, 0x11, 0x10, 0x10, 0x21, 0x10, 0x10, 0x41, 0x10, 0x10, 0x81, 0x10,
   0xf0, 0x01, 0x1f, 0x00, 0x00, 0x00, 0x00, 0x00, 0x00, 0x00, 0x00, 0x00};
