#define spsym51_width 24
#define spsym51_height 24
static unsigned char spsym51_bits[] = {
   0x00, 0x00, 0x00, 0x00, 0x00, 0x00, 0x00, 0x00, 0x00, 0x00, 0x00, 0x00,
   0x00, 0x00, 0x00, 0x00, 0x7c, 0x00, 0x80, 0xef, 0x03, 0xe0, 0x83, 0x07,
   0x70, 0x00, 0x1c, 0x18, 0x00, 0x30, 0x0c, 0x00, 0x60, 0x04, 0x00, 0x40,
   0x0c, 0x00, 0x60, 0x18, 0x00, 0x30, 0x70, 0x00, 0x1c, 0xe0, 0x83, 0x0f,
   0x80, 0xef, 0x03, 0x00, 0x7e, 0x00, 0x00, 0x00, 0x00, 0x00, 0x00, 0x00,
   0x00, 0x00, 0x00, 0x00, 0x00, 0x00, 0x00, 0x00, 0x00, 0x00, 0x00, 0x00};
