#define wkstatfnt.xbm_width 24
#define wkstatfnt.xbm_height 24
static unsigned char wkstatfnt.xbm_bits[] = {
   0xee, 0x39, 0x00, 0xef, 0x39, 0x00, 0xc3, 0x6c, 0x00, 0xc7, 0x6c, 0x20,
   0xce, 0x7c, 0x30, 0xcc, 0x7c, 0x78, 0xcf, 0x6c, 0x7c, 0xc7, 0x6c, 0x7e,
   0x00, 0x00, 0x3f, 0x80, 0x3f, 0x1c, 0x80, 0x1f, 0x00, 0x80, 0x0f, 0x00,
   0x80, 0x07, 0x00, 0x80, 0x03, 0x00, 0x80, 0x01, 0x00, 0x80, 0x00, 0x00,
   0x80, 0xf7, 0xc6, 0x80, 0xf7, 0xef, 0xa0, 0xb1, 0xff, 0xb0, 0xf7, 0xff,
   0xf8, 0xf7, 0xd6, 0xfc, 0xb1, 0xd7, 0xfe, 0xb1, 0xc7, 0xbf, 0x31, 0xc7};
