#define difstatfnt.xbm_width 24
#define difstatfnt.xbm_height 24
static unsigned char difstatfnt.xbm_bits[] = {
   0xee, 0x39, 0x00, 0xef, 0x39, 0x80, 0xc3, 0x6c, 0xc0, 0xc7, 0x6c, 0x60,
   0xce, 0x7c, 0xf0, 0xcc, 0x7c, 0xf8, 0xcf, 0x6c, 0xfc, 0xc7, 0x6c, 0xfe,
   0x00, 0x00, 0x7f, 0x00, 0x80, 0x3d, 0x00, 0x00, 0x00, 0x00, 0x20, 0x00,
   0x00, 0x30, 0x00, 0x00, 0x18, 0x00, 0x00, 0x08, 0x00, 0x00, 0x00, 0x00,
   0xfe, 0x8f, 0xf7, 0xfe, 0x9e, 0xf7, 0x7e, 0x36, 0x33, 0x3e, 0x36, 0xf3,
   0x1e, 0x36, 0xf3, 0x0e, 0x36, 0x33, 0x06, 0x9e, 0xf7, 0x02, 0x8e, 0xf7};
