#define statfnt.xbm_width 24
#define statfnt.xbm_height 24
static unsigned char statfnt.xbm_bits[] = {
   0xee, 0x39, 0x80, 0xef, 0x39, 0xc0, 0xc3, 0x6c, 0x60, 0xc7, 0x6c, 0x30,
   0xce, 0x7c, 0x38, 0xcc, 0x7c, 0x7c, 0xcf, 0x6c, 0x7e, 0xc7, 0x6c, 0x7f,
   0x00, 0x80, 0x3f, 0x00, 0xc0, 0x1c, 0x80, 0x7f, 0x00, 0x80, 0x3f, 0x00,
   0x80, 0x1f, 0x00, 0x80, 0x0f, 0x00, 0x80, 0x07, 0x00, 0x80, 0x03, 0x00,
   0x80, 0x01, 0x00, 0xc0, 0x00, 0x00, 0x60, 0x00, 0x00, 0x70, 0x00, 0x00,
   0xf8, 0x00, 0x00, 0xfc, 0x00, 0x00, 0xfe, 0x00, 0x00, 0x7f, 0x00, 0x00};
