#define stepback.xbm_width 24
#define stepback.xbm_height 24
static char stepback.xbm_bits[] = {
   0x00, 0x00, 0x00, 0x00, 0x00, 0x00, 0x00, 0x00, 0x00, 0x38, 0x00, 0x00,
   0xf8, 0x00, 0x00, 0xf8, 0x03, 0x00, 0xf8, 0x0f, 0x00, 0xf8, 0x3f, 0x00,
   0xf8, 0xff, 0x00, 0xf8, 0xff, 0x03, 0xf8, 0xff, 0x0f, 0xf8, 0xff, 0x1f,
   0xf8, 0xff, 0x1f, 0xf8, 0xff, 0x0f, 0xf8, 0xff, 0x03, 0xf8, 0xff, 0x00,
   0xf8, 0x3f, 0x00, 0xf8, 0x0f, 0x00, 0xf8, 0x03, 0x00, 0xf8, 0x00, 0x00,
   0x38, 0x00, 0x00, 0x00, 0x00, 0x00, 0x00, 0x00, 0x00, 0x00, 0x00, 0x00};
