#define tca.xbm_width 24
#define tca.xbm_height 24
static unsigned char tca.xbm_bits[] = {
   0x00, 0x00, 0x00, 0x00, 0x00, 0x00, 0x00, 0x00, 0x00, 0x00, 0x00, 0x00,
   0x00, 0x00, 0x00, 0x00, 0x00, 0x00, 0xff, 0x7e, 0x1c, 0xff, 0x7e, 0x3e,
   0x18, 0x06, 0x77, 0x18, 0x06, 0x63, 0x18, 0x06, 0x63, 0x18, 0x06, 0x63,
   0x18, 0x06, 0x7f, 0x18, 0x06, 0x7f, 0x18, 0x06, 0x63, 0x18, 0x06, 0x63,
   0x18, 0x7e, 0x63, 0x18, 0x7e, 0x63, 0x00, 0x00, 0x00, 0x00, 0x00, 0x00,
   0x00, 0x00, 0x00, 0x00, 0x00, 0x00, 0x00, 0x00, 0x00, 0x00, 0x00, 0x00};
