#define textsfwr.xbm_width 24
#define textsfwr.xbm_height 24
static unsigned char textsfwr.xbm_bits[] = {
   0x00, 0x00, 0x00, 0x00, 0x00, 0x00, 0xc0, 0x1b, 0x06, 0xe0, 0x1b, 0x06,
   0xe0, 0xd8, 0x06, 0xc0, 0xd9, 0x06, 0x80, 0xdb, 0x06, 0xe0, 0xfb, 0x07,
   0xe0, 0x31, 0x03, 0x00, 0x00, 0x00, 0x00, 0x00, 0x00, 0x00, 0x00, 0x00,
   0x00, 0x00, 0x00, 0xbc, 0x17, 0x3d, 0xbc, 0xb7, 0x3d, 0x98, 0xe1, 0x18,
   0x98, 0xe7, 0x18, 0x98, 0xe7, 0x18, 0x98, 0xe1, 0x18, 0x98, 0xb7, 0x19,
   0x98, 0x17, 0x19, 0x00, 0x00, 0x00, 0x00, 0x00, 0x00, 0x00, 0x00, 0x00};
