#define texticng_width 24
#define texticng_height 24
static unsigned char texticng_bits[] = {
   0x00, 0x00, 0x00, 0x00, 0x00, 0x00, 0x00, 0x00, 0x00, 0x00, 0x00, 0x00,
   0x06, 0x00, 0x00, 0x06, 0x00, 0x00, 0x06, 0x00, 0x00, 0x06, 0x00, 0x00,
   0x06, 0x00, 0x40, 0xe6, 0x79, 0x7c, 0xf6, 0xfd, 0x7e, 0x76, 0xcc, 0x66,
   0x36, 0xcc, 0x66, 0x36, 0xcc, 0x66, 0x36, 0xcc, 0x66, 0x76, 0xcc, 0x66,
   0xf6, 0xcd, 0x7e, 0xe6, 0xcd, 0x7c, 0x00, 0x00, 0x60, 0x00, 0x00, 0x60,
   0x00, 0x00, 0x62, 0x00, 0x00, 0x7e, 0x00, 0x00, 0x3e, 0x00, 0x00, 0x00};
