#define textlab.xbm_width 32
#define textlab.xbm_height 32
static unsigned char textlab.xbm_bits[] = {
   0xfc, 0x00, 0x00, 0x00, 0xfc, 0x00, 0x00, 0x00, 0x30, 0x00, 0x00, 0x00,
   0x30, 0x5f, 0xf4, 0x00, 0x30, 0xdf, 0xf6, 0x00, 0x30, 0xc3, 0x67, 0x00,
   0x30, 0x9f, 0x63, 0x00, 0x30, 0x9f, 0x63, 0x00, 0x30, 0xc3, 0x67, 0x00,
   0x30, 0xdf, 0x66, 0x00, 0x30, 0x5f, 0x64, 0x00, 0x00, 0x00, 0x00, 0x00,
   0x00, 0x00, 0x00, 0x00, 0x00, 0x00, 0x00, 0x00, 0x00, 0x00, 0x00, 0x00,
   0x00, 0x00, 0x00, 0x00, 0x06, 0x80, 0x01, 0x30, 0x06, 0x80, 0x01, 0x30,
   0x06, 0x80, 0x01, 0x30, 0x06, 0x9e, 0xc7, 0x33, 0x06, 0xbf, 0xef, 0x37,
   0x06, 0xb0, 0x79, 0x36, 0x06, 0xbe, 0xf9, 0x37, 0x06, 0xbf, 0xf9, 0x33,
   0x06, 0xb3, 0x79, 0x30, 0x7e, 0xbf, 0xef, 0x37, 0x7e, 0xee, 0xc7, 0x37,
   0x00, 0x00, 0x00, 0x00, 0x00, 0x00, 0x00, 0x00, 0x00, 0x00, 0x00, 0x00,
   0x00, 0x00, 0x00, 0x00, 0x00, 0x00, 0x00, 0x00};
