#define textuf.xbm_width 24
#define textuf.xbm_height 24
static unsigned char textuf.xbm_bits[] = {
   0x00, 0x00, 0x00, 0xaa, 0xaa, 0x2a, 0x54, 0x55, 0x55, 0xaa, 0xaa, 0x2a,
   0x54, 0x55, 0x55, 0xaa, 0xaa, 0x2a, 0x00, 0x55, 0x55, 0x7a, 0xaa, 0x2a,
   0x78, 0x00, 0x40, 0xb2, 0x9f, 0x1f, 0xb0, 0xf7, 0x5e, 0xb2, 0xf1, 0x0c,
   0xb4, 0x67, 0x4c, 0xb2, 0x67, 0x2c, 0xb4, 0xf1, 0x4c, 0xb2, 0xf7, 0x2c,
   0xb4, 0x9f, 0x4d, 0x02, 0x00, 0x20, 0x54, 0x55, 0x55, 0xaa, 0xaa, 0x2a,
   0x54, 0x55, 0x55, 0xaa, 0xaa, 0x2a, 0x54, 0x55, 0x55, 0x00, 0x00, 0x00};
