#define texthdwr.xbm_width 24
#define texthdwr.xbm_height 24
static unsigned char texthdwr.xbm_bits[] = {
   0x00, 0x00, 0x00, 0x00, 0x00, 0x00, 0x60, 0x36, 0x0c, 0x60, 0x36, 0x0c,
   0xe0, 0xb7, 0x0d, 0xe0, 0xb7, 0x0d, 0x60, 0xb6, 0x0d, 0x60, 0xf6, 0x0f,
   0x60, 0xe6, 0x07, 0x00, 0x00, 0x00, 0x00, 0x00, 0x00, 0x00, 0x00, 0x00,
   0x00, 0x00, 0x00, 0xde, 0xbb, 0x7b, 0xde, 0xb3, 0x79, 0xcc, 0xf0, 0x31,
   0xcc, 0xe3, 0x30, 0xcc, 0xe3, 0x30, 0xcc, 0xf0, 0x31, 0xcc, 0xb3, 0x31,
   0xcc, 0xbb, 0x33, 0x00, 0x00, 0x00, 0x00, 0x00, 0x00, 0x00, 0x00, 0x00};
