#define track.xbm_width 24
#define track.xbm_height 24
static unsigned char track.xbm_bits[] = {
   0x00, 0x00, 0x00, 0x00, 0x00, 0x00, 0x00, 0x00, 0x00, 0x00, 0x00, 0x00,
   0x3f, 0x00, 0x18, 0x3f, 0x00, 0x1c, 0x0c, 0x00, 0x1c, 0x0c, 0x00, 0x18,
   0x0c, 0x00, 0x18, 0x0c, 0x00, 0x18, 0x6c, 0xb9, 0x9b, 0xfc, 0xff, 0xdf,
   0xfc, 0xe7, 0xfe, 0x6c, 0xf2, 0x78, 0x6c, 0xfc, 0x78, 0x6c, 0xec, 0xfe,
   0x6c, 0xfc, 0xdf, 0x6c, 0xf8, 0x9b, 0x00, 0x00, 0x00, 0x00, 0x00, 0x00,
   0x00, 0x00, 0x00, 0x00, 0x00, 0x00, 0x00, 0x00, 0x00, 0x00, 0x00, 0x00};
