#define stmtrak.xbm_width 24
#define stmtrak.xbm_height 24
static unsigned char stmtrak.xbm_bits[] = {
   0x00, 0x00, 0x00, 0x00, 0x00, 0x78, 0x00, 0x00, 0x60, 0x00, 0x00, 0x50,
   0x00, 0x00, 0x48, 0x00, 0x00, 0x04, 0x00, 0x00, 0x02, 0x00, 0x00, 0x00,
   0x00, 0xd8, 0x00, 0x00, 0xf8, 0x00, 0x00, 0x70, 0x00, 0x00, 0xf8, 0x00,
   0x00, 0xd8, 0x00, 0x00, 0x00, 0x00, 0x00, 0x02, 0x00, 0x00, 0x01, 0x00,
   0x80, 0x00, 0x00, 0x00, 0x00, 0x00, 0x36, 0x00, 0x00, 0x3e, 0x00, 0x00,
   0x1c, 0x00, 0x00, 0x3e, 0x00, 0x00, 0x36, 0x00, 0x00, 0x00, 0x00, 0x00};
