#define turb67_width 65
#define turb67_height 16
static unsigned char turb67_bits[] = {
   0x00, 0x00, 0x00, 0x00, 0x00, 0x00, 0x01, 0x00, 0x00, 0x00, 0x00, 0x40,
   0x00, 0x00, 0x80, 0x02, 0x00, 0x00, 0x00, 0x00, 0x60, 0x00, 0x00, 0x80,
   0x02, 0x00, 0x00, 0x00, 0x00, 0xa0, 0x00, 0x00, 0x80, 0x04, 0x00, 0x00,
   0x00, 0x00, 0x90, 0x00, 0x00, 0x40, 0x04, 0x00, 0x00, 0x00, 0x00, 0x10,
   0x01, 0x00, 0xff, 0xff, 0x01, 0x00, 0x00, 0x00, 0x08, 0x01, 0x00, 0x26,
   0xc8, 0x00, 0x00, 0x00, 0x00, 0x48, 0x02, 0x00, 0x28, 0x28, 0x00, 0x00,
   0x00, 0x00, 0x64, 0x02, 0x00, 0x30, 0x18, 0x00, 0x00, 0x00, 0x00, 0xa4,
   0x04, 0x00, 0x70, 0x1c, 0x00, 0x00, 0x00, 0x00, 0x90, 0x00, 0x00, 0x90,
   0x12, 0x00, 0x00, 0x00, 0x00, 0x10, 0x01, 0x00, 0x90, 0x23, 0x00, 0x00,
   0x00, 0x00, 0x08, 0x01, 0x00, 0x48, 0x24, 0x00, 0x00, 0x00, 0x00, 0x08,
   0x02, 0x00, 0x28, 0x28, 0x00, 0x00, 0x00, 0x00, 0x04, 0x02, 0x00, 0x1c,
   0x70, 0x00, 0x00, 0x00, 0xf0, 0x07, 0xfc, 0x01, 0x04, 0x40, 0x00, 0x00};
