#define turb46_width 65
#define turb46_height 16
static unsigned char turb46_bits[] = {
   0x00, 0x00, 0x00, 0x00, 0x00, 0x20, 0x00, 0x00, 0x00, 0x00, 0x00, 0x00,
   0x00, 0x00, 0x30, 0x00, 0x00, 0x00, 0x00, 0x00, 0x00, 0x00, 0x00, 0x50,
   0x00, 0x00, 0x00, 0x00, 0x00, 0x00, 0x00, 0x00, 0x48, 0x00, 0x00, 0x00,
   0x00, 0x00, 0x00, 0x00, 0x00, 0x88, 0x00, 0x00, 0x00, 0x00, 0x00, 0x00,
   0x00, 0x00, 0x84, 0x00, 0x00, 0x00, 0x00, 0x00, 0x08, 0x00, 0x00, 0x24,
   0x01, 0x00, 0x00, 0x00, 0x00, 0x0c, 0x00, 0x00, 0x32, 0x01, 0x00, 0x00,
   0x00, 0x00, 0x14, 0x00, 0x00, 0x52, 0x02, 0x00, 0x00, 0x00, 0x00, 0x12,
   0x00, 0x00, 0x48, 0x00, 0x00, 0x00, 0x00, 0x00, 0x22, 0x00, 0x00, 0x88,
   0x00, 0x00, 0x00, 0x00, 0x00, 0x21, 0x00, 0x00, 0x84, 0x00, 0x00, 0x00,
   0x00, 0x00, 0x41, 0x00, 0x00, 0x04, 0x01, 0x00, 0x00, 0x00, 0x80, 0x40,
   0x00, 0x00, 0x02, 0x01, 0x00, 0x00, 0x00, 0xfe, 0x80, 0x3f, 0xf8, 0x03,
   0xfe, 0x00, 0x00, 0x00, 0x00, 0x00, 0x00, 0x00, 0x00, 0x00, 0x00, 0x00};
