#define two_width 24
#define two_height 24
static unsigned char two_bits[] = {
   0xff, 0xff, 0xff, 0xff, 0xff, 0xff, 0xff, 0xff, 0xff, 0xff, 0xff, 0xff,
   0xff, 0xff, 0xff, 0x3f, 0x80, 0xff, 0x3f, 0x80, 0xff, 0xff, 0x9f, 0xff,
   0xff, 0x9f, 0xff, 0xff, 0x9f, 0xff, 0xff, 0x9f, 0xff, 0xff, 0x8f, 0xff,
   0xff, 0xc3, 0xff, 0xff, 0xe0, 0xff, 0x3f, 0xf8, 0xff, 0x3f, 0xfe, 0xff,
   0x3f, 0xfe, 0xff, 0x3f, 0xfe, 0xff, 0x3f, 0x80, 0xff, 0x3f, 0x80, 0xff,
   0xff, 0xff, 0xff, 0xff, 0xff, 0xff, 0xff, 0xff, 0xff, 0xff, 0xff, 0xff};
