#define undo.xbm_width 24
#define undo.xbm_height 24
static unsigned char undo.xbm_bits[] = {
   0x00, 0x00, 0x00, 0x00, 0x00, 0x00, 0x00, 0x00, 0x00, 0x00, 0x00, 0x00,
   0x00, 0x00, 0x00, 0x00, 0x00, 0x00, 0x00, 0x00, 0x00, 0x00, 0x00, 0x00,
   0x33, 0x00, 0x03, 0x33, 0x00, 0x03, 0x33, 0x00, 0x03, 0xb3, 0xc7, 0x73,
   0xb3, 0xef, 0xfb, 0xb3, 0x6f, 0xdb, 0xb3, 0x6d, 0xdb, 0xb3, 0x6d, 0xdb,
   0xbf, 0x6d, 0xdb, 0xbf, 0xed, 0xfb, 0x9e, 0xcd, 0x73, 0x00, 0x00, 0x00,
   0x00, 0x00, 0x00, 0x00, 0x00, 0x00, 0x00, 0x00, 0x00, 0x00, 0x00, 0x00};
