#define ungrpall.xbm_width 24
#define ungrpall.xbm_height 24
static unsigned char ungrpall.xbm_bits[] = {
   0x20, 0x45, 0x00, 0x20, 0x4d, 0x00, 0x20, 0x55, 0x0e, 0x20, 0x65, 0x00,
   0xc0, 0x44, 0x00, 0x00, 0x00, 0x00, 0xee, 0xb9, 0x7d, 0xff, 0xff, 0xfd,
   0x63, 0xef, 0xdd, 0x63, 0xef, 0xdd, 0xff, 0xed, 0xfd, 0xfb, 0xed, 0x7d,
   0x7b, 0xef, 0x3d, 0x7b, 0xef, 0x3d, 0x7f, 0xff, 0x3f, 0x7e, 0x3b, 0x3b,
   0x00, 0x00, 0x00, 0x20, 0x18, 0x06, 0x70, 0x18, 0x06, 0xd8, 0x18, 0x06,
   0xd8, 0x18, 0x06, 0xfc, 0x19, 0x06, 0xfc, 0xf9, 0x3e, 0x06, 0xfb, 0x3e};
