#define unzoomIcon_width 32
#define unzoomIcon_height 32
static char unzoomIcon_bits[] = {
   0x00, 0x00, 0x00, 0x00, 0x00, 0x00, 0x00, 0x00, 0x00, 0x00, 0x00, 0x00,
   0xfe, 0xff, 0x0f, 0x00, 0x02, 0x00, 0x58, 0x00, 0x02, 0x00, 0x18, 0x01,
   0xf2, 0xe0, 0x19, 0x04, 0x62, 0xc0, 0x18, 0x10, 0x62, 0xc0, 0xd8, 0x7f,
   0x62, 0xc0, 0x58, 0x40, 0x62, 0xc0, 0x58, 0x49, 0x62, 0xc0, 0x58, 0x49,
   0x62, 0xc0, 0x58, 0x49, 0x62, 0xc0, 0x58, 0x49, 0x62, 0xc0, 0x58, 0x46,
   0x62, 0xc0, 0x58, 0x40, 0xc2, 0x60, 0xd8, 0x7f, 0x82, 0x3f, 0x18, 0x10,
   0x02, 0x00, 0x18, 0x04, 0x02, 0x00, 0x18, 0x01, 0xfe, 0xff, 0x5f, 0x00,
   0xfc, 0xff, 0x1f, 0x00, 0x00, 0x00, 0x00, 0x00, 0x00, 0x00, 0x00, 0x00,
   0x12, 0x00, 0x00, 0x00, 0x12, 0x00, 0x00, 0x00, 0x52, 0x7a, 0xc6, 0x44,
   0xd2, 0x42, 0x29, 0x6d, 0xd2, 0x32, 0x29, 0x55, 0x52, 0x0b, 0x29, 0x45,
   0x4c, 0x7a, 0xc6, 0x44, 0x00, 0x00, 0x00, 0x00};
