#define wkwarmfnt.xbm_width 24
#define wkwarmfnt.xbm_height 24
static unsigned char wkwarmfnt.xbm_bits[] = {
   0xc3, 0xc6, 0x20, 0xc3, 0xee, 0x30, 0xdb, 0xfe, 0x78, 0xdb, 0xfe, 0x7c,
   0xff, 0xd6, 0x7e, 0xe7, 0xd6, 0x3f, 0xc3, 0xc6, 0x1c, 0x00, 0x00, 0x00,
   0x00, 0x20, 0x00, 0x00, 0x30, 0x00, 0x00, 0x78, 0x00, 0x00, 0x7c, 0x00,
   0x00, 0x7e, 0x00, 0x00, 0x3f, 0x00, 0x00, 0x1c, 0x00, 0x00, 0x00, 0x00,
   0xa0, 0xf7, 0xc6, 0xb0, 0xf7, 0xef, 0xf8, 0xb1, 0xff, 0xfc, 0xf7, 0xff,
   0xfe, 0xf7, 0xd6, 0xbf, 0xb1, 0xd7, 0x9c, 0xb1, 0xc7, 0x80, 0x31, 0xc7};
