#define difwarmfnt.xbm_width 24
#define difwarmfnt.xbm_height 24
static unsigned char difwarmfnt.xbm_bits[] = {
   0xc3, 0xc6, 0x80, 0xdb, 0xee, 0xc0, 0xdb, 0xfe, 0x60, 0xff, 0xfe, 0x30,
   0xff, 0xd6, 0x38, 0xe7, 0xd6, 0x7c, 0xc3, 0xc6, 0x7e, 0x00, 0x00, 0x7f,
   0x00, 0x80, 0x3f, 0x00, 0xc0, 0x1c, 0x00, 0x00, 0x00, 0x00, 0x18, 0x00,
   0x00, 0x0c, 0x00, 0x00, 0x06, 0x00, 0x00, 0x00, 0x00, 0x40, 0x00, 0x00,
   0x60, 0x8e, 0xf7, 0x30, 0x9e, 0xf7, 0x38, 0x36, 0x33, 0x7c, 0x36, 0xf3,
   0x7e, 0x36, 0xf3, 0x7f, 0x36, 0x33, 0x3f, 0x9e, 0xf7, 0x1c, 0x8e, 0xf7};
