#define wbox_width 32
#define wbox_height 32
static unsigned char wbox_bits[] = {
   0x1c, 0x00, 0x00, 0x00, 0xfc, 0x01, 0x00, 0x00, 0x0c, 0xfe, 0x01, 0x00,
   0x08, 0x00, 0xfe, 0x61, 0xe4, 0x07, 0x00, 0xfe, 0xf4, 0x0f, 0x00, 0x60,
   0x34, 0xec, 0xe7, 0x47, 0x34, 0xec, 0xef, 0x4f, 0x32, 0x6c, 0x6e, 0x4e,
   0xf2, 0x6f, 0x6c, 0x4c, 0xf2, 0x6f, 0x6c, 0x4c, 0x33, 0x6c, 0x6c, 0x4c,
   0x37, 0x6c, 0x6e, 0x4e, 0x37, 0xec, 0xef, 0x4f, 0x31, 0xec, 0xe7, 0x47,
   0x01, 0x00, 0x00, 0x40, 0x8d, 0x0d, 0x00, 0x80, 0x8d, 0x0d, 0x00, 0x80,
   0x8d, 0x0d, 0x00, 0xa1, 0x8d, 0x0d, 0x00, 0xb3, 0x8d, 0x7d, 0x3c, 0xbf,
   0x8d, 0xfd, 0x7e, 0x8c, 0xb5, 0xed, 0x66, 0x8c, 0xb5, 0xc5, 0x66, 0x92,
   0xcd, 0xed, 0x7e, 0xb3, 0xcd, 0x7d, 0x3c, 0xb3, 0x01, 0x00, 0x00, 0x80,
   0x07, 0x00, 0x00, 0xc0, 0x3f, 0x00, 0x00, 0xfc, 0xff, 0x00, 0x03, 0xfc,
   0x03, 0xbf, 0xf7, 0xc3, 0x00, 0xc0, 0x0f, 0x00};
