#define wtchfmt.xbm_width 24
#define wtchfmt.xbm_height 24
static unsigned char wtchfmt.xbm_bits[] = {
   0x00, 0x00, 0x00, 0x82, 0x00, 0x00, 0x82, 0x00, 0x00, 0x82, 0xfa, 0x48,
   0x44, 0xa2, 0x4b, 0x54, 0xa5, 0x4a, 0x54, 0xa5, 0x78, 0x7c, 0xa7, 0x48,
   0xa8, 0xa8, 0x4a, 0xa8, 0xa8, 0x4b, 0x00, 0x00, 0x00, 0x00, 0xfc, 0x0f,
   0x00, 0x42, 0x04, 0x00, 0x41, 0x02, 0x8e, 0xff, 0x01, 0x02, 0x00, 0x00,
   0x72, 0x00, 0x70, 0x22, 0x72, 0x15, 0x2e, 0x22, 0x15, 0x28, 0x25, 0x75,
   0x28, 0x27, 0x45, 0xa8, 0x28, 0x45, 0xae, 0x28, 0x77, 0x00, 0x00, 0x00};
