#define wtchln_width 24
#define wtchln_height 24
static unsigned char wtchln_bits[] = {
   0x00, 0x00, 0x00, 0x00, 0x00, 0x00, 0x00, 0x00, 0x00, 0x00, 0x80, 0x00,
   0x00, 0xc0, 0x01, 0x00, 0xe0, 0x03, 0x00, 0xb0, 0x06, 0x00, 0x98, 0x0c,
   0x00, 0x80, 0x00, 0x00, 0x80, 0x00, 0x00, 0x80, 0x00, 0x00, 0x80, 0x00,
   0x00, 0x80, 0x00, 0x00, 0x80, 0x00, 0x00, 0x40, 0x00, 0x00, 0x20, 0x00,
   0x00, 0x10, 0x00, 0x00, 0x08, 0x00, 0x00, 0x04, 0x00, 0x00, 0x04, 0x00,
   0x00, 0x04, 0x00, 0x00, 0x04, 0x00, 0x00, 0x00, 0x00, 0x00, 0x00, 0x00};
