#define wxsym037_width 24
#define wxsym037_height 24
static unsigned char wxsym037_bits[] = {
   0x00, 0x00, 0x00, 0x00, 0x00, 0x00, 0x00, 0x00, 0x00, 0x00, 0x08, 0x00,
   0x00, 0x08, 0x00, 0x00, 0x08, 0x00, 0x00, 0x08, 0x02, 0x00, 0x08, 0x04,
   0x00, 0x08, 0x08, 0xfc, 0xff, 0x1f, 0x00, 0x08, 0x10, 0x00, 0x08, 0x20,
   0x00, 0x08, 0x40, 0x00, 0x08, 0x20, 0x00, 0x08, 0x10, 0xfc, 0xff, 0x1f,
   0x00, 0x08, 0x08, 0x00, 0x08, 0x04, 0x00, 0x49, 0x02, 0x00, 0x2a, 0x00,
   0x00, 0x1c, 0x00, 0x00, 0x08, 0x00, 0x00, 0x00, 0x00, 0x00, 0x00, 0x00};
