#define wxsym009_width 24
#define wxsym009_height 24
static unsigned char wxsym009_bits[] = {
   0x00, 0x00, 0x00, 0x04, 0x00, 0x20, 0x02, 0x00, 0x40, 0x01, 0x7f, 0x80,
   0x81, 0x80, 0x80, 0x41, 0x00, 0x81, 0x21, 0x00, 0x82, 0x21, 0x00, 0x80,
   0x21, 0x00, 0x80, 0x61, 0x00, 0x88, 0x81, 0x01, 0x90, 0x01, 0x06, 0x90,
   0xfd, 0xff, 0xbf, 0x01, 0x60, 0x90, 0x01, 0x80, 0x91, 0x01, 0x00, 0x8a,
   0x01, 0x00, 0x82, 0x01, 0x00, 0x82, 0x21, 0x00, 0x82, 0x41, 0x00, 0x81,
   0x81, 0x80, 0x80, 0x01, 0x7f, 0x80, 0x02, 0x00, 0x40, 0x04, 0x00, 0x20};
