#define wxsym034_width 24
#define wxsym034_height 24
static unsigned char wxsym034_bits[] = {
   0x00, 0x00, 0x00, 0xc0, 0x1f, 0x00, 0x30, 0x60, 0x00, 0x08, 0x80, 0x00,
   0x08, 0x00, 0x00, 0x08, 0x00, 0x00, 0x08, 0x00, 0x04, 0x08, 0x00, 0x08,
   0x08, 0x00, 0x10, 0xfe, 0xff, 0x3f, 0x60, 0x00, 0x20, 0x80, 0x01, 0x40,
   0x00, 0x06, 0x80, 0x00, 0x18, 0x40, 0x00, 0x60, 0x60, 0xfe, 0xff, 0x3f,
   0x00, 0x80, 0x10, 0x00, 0x80, 0x08, 0x00, 0x80, 0x04, 0x00, 0x80, 0x00,
   0x00, 0x80, 0x00, 0x08, 0x80, 0x00, 0x30, 0x60, 0x00, 0xc0, 0x1f, 0x00};
