#define wxsym008_width 24
#define wxsym008_height 24
static unsigned char wxsym008_bits[] = {
   0x00, 0x00, 0x00, 0x00, 0x00, 0x00, 0x00, 0x78, 0x00, 0x00, 0x06, 0x00,
   0x00, 0x01, 0x00, 0x00, 0x01, 0x00, 0x00, 0x01, 0x00, 0x00, 0x79, 0x00,
   0x00, 0x46, 0x00, 0x00, 0x46, 0x00, 0x00, 0x79, 0x00, 0x00, 0x01, 0x00,
   0x00, 0x01, 0x00, 0x00, 0x79, 0x00, 0x00, 0x46, 0x00, 0x00, 0x46, 0x00,
   0x00, 0x79, 0x00, 0x00, 0x01, 0x00, 0x00, 0x01, 0x00, 0x00, 0x01, 0x00,
   0x00, 0x02, 0x00, 0x00, 0x04, 0x00, 0x00, 0x78, 0x00, 0x00, 0x00, 0x00};
