#define hvyrain.xbm_width  24
#define hvyrain.xbm_height 24
static unsigned char hvyrain.xbm_bits[] = {
   0x00, 0x00, 0x00, 0x00, 0x00, 0x00, 0x00, 0x00, 0x00, 0x00, 0x7c, 0x00, 
   0x00, 0x7c, 0x00, 0x00, 0xfe, 0x00, 0x00, 0x7c, 0x00, 0x00, 0x7c, 0x00, 
   0x00, 0x00, 0x00, 0xc0, 0xc7, 0x07, 0xc0, 0xc7, 0x07, 0xe0, 0xef, 0x0f, 
   0xc0, 0xc7, 0x07, 0xc0, 0xc7, 0x07, 0x00, 0x00, 0x00, 0x00, 0x7c, 0x00, 
   0x00, 0x7c, 0x00, 0x00, 0xfe, 0x00, 0x00, 0x7c, 0x00, 0x00, 0x7c, 0x00, 
   0x00, 0x00, 0x00, 0x00, 0x00, 0x00, 0x00, 0x00, 0x00, 0x00, 0x00, 0x00 };
