#define wxsym057_width 24
#define wxsym057_height 24
static unsigned char wxsym057_bits[] = {
   0x00, 0x00, 0x00, 0x00, 0x00, 0x00, 0x00, 0x00, 0x00, 0x00, 0x00, 0x00,
   0x00, 0x00, 0x00, 0x00, 0x00, 0x00, 0x00, 0x00, 0x00, 0xf0, 0x01, 0x10,
   0xe8, 0x02, 0x3c, 0xe4, 0x04, 0x5c, 0xe4, 0x08, 0x5c, 0x44, 0x10, 0x48,
   0x24, 0x20, 0x44, 0x14, 0x40, 0x42, 0x08, 0x80, 0x20, 0x10, 0x00, 0x1f,
   0x00, 0x00, 0x00, 0x00, 0x00, 0x00, 0x00, 0x00, 0x00, 0x00, 0x00, 0x00,
   0x00, 0x00, 0x00, 0x00, 0x00, 0x00, 0x00, 0x00, 0x00, 0x00, 0x00, 0x00};
