#define wxsym028_width 24
#define wxsym028_height 24
static unsigned char wxsym028_bits[] = {
   0x00, 0x00, 0x00, 0x00, 0x00, 0x00, 0x00, 0x00, 0x00, 0x00, 0x00, 0x70,
   0x00, 0x00, 0x40, 0x00, 0x00, 0x40, 0xfc, 0xff, 0x5f, 0x00, 0x00, 0x40,
   0x00, 0x00, 0x40, 0x00, 0x00, 0x40, 0x00, 0x00, 0x40, 0x00, 0x00, 0x40,
   0xfc, 0xff, 0x5f, 0x00, 0x00, 0x40, 0x00, 0x00, 0x40, 0x00, 0x00, 0x40,
   0x00, 0x00, 0x40, 0x00, 0x00, 0x40, 0xfc, 0xff, 0x5f, 0x00, 0x00, 0x40,
   0x00, 0x00, 0x40, 0x00, 0x00, 0x70, 0x00, 0x00, 0x00, 0x00, 0x00, 0x00};
