#define wxsym66.xbm_width  24
#define wxsym66.xbm_height 24
static unsigned char wxsym66.xbm_bits[] = {
   0x00, 0x00, 0x00, 0x00, 0x00, 0x00, 0x00, 0x00, 0x00, 0x00, 0x00, 0x00, 
   0x00, 0x00, 0x00, 0x00, 0x00, 0x00, 0x00, 0x00, 0x00, 0xf0, 0x01, 0x10, 
   0x08, 0x02, 0x20, 0xf4, 0x05, 0x40, 0xf4, 0x09, 0x40, 0xf4, 0x11, 0x40, 
   0xf4, 0x21, 0x40, 0xf4, 0x41, 0x40, 0x08, 0x80, 0x20, 0x10, 0x00, 0x1f, 
   0x00, 0x00, 0x00, 0x00, 0x00, 0x00, 0x00, 0x00, 0x00, 0x00, 0x00, 0x00, 
   0x00, 0x00, 0x00, 0x00, 0x00, 0x00, 0x00, 0x00, 0x00, 0x00, 0x00, 0x00 };
