#define wxsym088_width 24
#define wxsym088_height 24
static unsigned char wxsym088_bits[] = {
   0x00, 0x00, 0x00, 0x00, 0x18, 0x00, 0x00, 0x24, 0x00, 0x00, 0x42, 0x00,
   0x00, 0x81, 0x00, 0x80, 0x00, 0x01, 0x40, 0x00, 0x02, 0xe0, 0xff, 0x07,
   0x00, 0x00, 0x00, 0x00, 0x00, 0x00, 0xe0, 0xff, 0x07, 0x40, 0x00, 0x02,
   0x80, 0x00, 0x02, 0x80, 0xff, 0x01, 0x00, 0x01, 0x01, 0x00, 0x81, 0x00,
   0x00, 0x82, 0x00, 0x00, 0x42, 0x00, 0x00, 0x44, 0x00, 0x00, 0x24, 0x00,
   0x00, 0x28, 0x00, 0x00, 0x18, 0x00, 0x00, 0x10, 0x00, 0x00, 0x00, 0x00};
