#define wxsym038_width 24
#define wxsym038_height 24
static unsigned char wxsym038_bits[] = {
   0x00, 0x00, 0x00, 0x00, 0x00, 0x00, 0x00, 0x00, 0x00, 0x00, 0x10, 0x00,
   0x00, 0x38, 0x00, 0x00, 0x54, 0x00, 0x00, 0x92, 0x00, 0x00, 0x10, 0x00,
   0x00, 0x10, 0x00, 0x00, 0x10, 0x04, 0x00, 0x10, 0x08, 0x00, 0x10, 0x10,
   0xf8, 0xff, 0x3f, 0x00, 0x10, 0x10, 0x00, 0x10, 0x08, 0x00, 0x10, 0x04,
   0x00, 0x10, 0x00, 0x00, 0x10, 0x00, 0x00, 0x10, 0x00, 0x00, 0x10, 0x00,
   0x00, 0x10, 0x00, 0x00, 0x10, 0x00, 0x00, 0x00, 0x00, 0x00, 0x00, 0x00};
