#define wxsym006_width 24
#define wxsym006_height 24
static unsigned char wxsym006_bits[] = {
   0x00, 0x00, 0x00, 0x00, 0x00, 0x00, 0x00, 0xfe, 0x00, 0x00, 0x01, 0x01,
   0x80, 0x00, 0x02, 0x40, 0x00, 0x04, 0x40, 0x00, 0x00, 0x40, 0x00, 0x00,
   0xc0, 0x00, 0x00, 0x00, 0x03, 0x00, 0x00, 0x0c, 0x00, 0x00, 0x30, 0x00,
   0x00, 0xc0, 0x00, 0x00, 0x00, 0x03, 0x00, 0x00, 0x04, 0x00, 0x00, 0x04,
   0x00, 0x00, 0x04, 0x40, 0x00, 0x04, 0x80, 0x00, 0x02, 0x00, 0x01, 0x01,
   0x00, 0xfe, 0x00, 0x00, 0x00, 0x00, 0x00, 0x00, 0x00, 0x00, 0x00, 0x00};
