#define wxsym097_width 24
#define wxsym097_height 24
static unsigned char wxsym097_bits[] = {
   0x00, 0x00, 0x00, 0x00, 0x00, 0x00, 0x00, 0x00, 0x00, 0x00, 0x7c, 0x00,
   0x00, 0x7c, 0x00, 0x00, 0x7c, 0x00, 0x00, 0x7c, 0x00, 0x00, 0x7c, 0x00,
   0x00, 0x00, 0x00, 0x00, 0xff, 0x01, 0x00, 0x04, 0x01, 0x00, 0x84, 0x00,
   0x00, 0x44, 0x00, 0x00, 0x24, 0x00, 0x00, 0x44, 0x00, 0x00, 0x84, 0x00,
   0x00, 0x04, 0x01, 0x00, 0xa4, 0x00, 0x00, 0x64, 0x00, 0x00, 0xe4, 0x00,
   0x00, 0x00, 0x00, 0x00, 0x00, 0x00, 0x00, 0x00, 0x00, 0x00, 0x00, 0x00};
