#define wxsym096_width 24
#define wxsym096_height 24
static unsigned char wxsym096_bits[] = {
   0x00, 0x00, 0x00, 0x00, 0x00, 0x00, 0x00, 0x08, 0x00, 0x00, 0x14, 0x00,
   0x00, 0x14, 0x00, 0x00, 0x22, 0x00, 0x00, 0x3e, 0x00, 0x00, 0x00, 0x00,
   0x00, 0x00, 0x00, 0x80, 0xff, 0x00, 0x00, 0x42, 0x00, 0x00, 0x22, 0x00,
   0x00, 0x12, 0x00, 0x00, 0x0a, 0x00, 0x00, 0x12, 0x00, 0x00, 0x22, 0x00,
   0x00, 0x42, 0x00, 0x00, 0x82, 0x02, 0x00, 0x02, 0x03, 0x00, 0x82, 0x03,
   0x00, 0x00, 0x00, 0x00, 0x00, 0x00, 0x00, 0x00, 0x00, 0x00, 0x00, 0x00};
