#define wxsym016_width 24
#define wxsym016_height 24
static unsigned char wxsym016_bits[] = {
   0x00, 0x00, 0x00, 0x00, 0x82, 0x00, 0x80, 0x01, 0x03, 0x40, 0x00, 0x04,
   0x40, 0x00, 0x04, 0x40, 0x00, 0x04, 0x40, 0x00, 0x04, 0x40, 0x00, 0x04,
   0x40, 0x00, 0x04, 0x40, 0x7c, 0x04, 0x40, 0xfe, 0x04, 0x40, 0xfe, 0x04,
   0x40, 0xfe, 0x04, 0x40, 0xfe, 0x04, 0x40, 0xfe, 0x04, 0x40, 0x7c, 0x04,
   0x40, 0x00, 0x04, 0x40, 0x00, 0x04, 0x40, 0x00, 0x04, 0x40, 0x00, 0x04,
   0x40, 0x00, 0x04, 0x40, 0x00, 0x04, 0x80, 0x01, 0x03, 0x00, 0x82, 0x00};
