#define wxsym030_width 24
#define wxsym030_height 24
static unsigned char wxsym030_bits[] = {
   0x00, 0x00, 0x00, 0x00, 0x00, 0x80, 0x00, 0x00, 0x80, 0xc0, 0x1f, 0x80,
   0x20, 0x20, 0x80, 0x10, 0x40, 0x80, 0x08, 0x80, 0x80, 0x08, 0x00, 0x80,
   0x08, 0x00, 0x80, 0x18, 0x00, 0x84, 0x60, 0x00, 0x88, 0x80, 0x01, 0x90,
   0xfe, 0xff, 0xbf, 0x00, 0x18, 0x90, 0x00, 0x60, 0x88, 0x00, 0x80, 0x84,
   0x00, 0x80, 0x80, 0x00, 0x80, 0x80, 0x08, 0x80, 0x80, 0x10, 0x40, 0x80,
   0x20, 0x20, 0x80, 0xc0, 0x1f, 0x80, 0x00, 0x00, 0x80, 0x00, 0x00, 0x80};
