#define wxsym032_width 24
#define wxsym032_height 24
static unsigned char wxsym032_bits[] = {
   0x00, 0x00, 0x00, 0x02, 0x00, 0x00, 0x02, 0x00, 0x00, 0x02, 0xfe, 0x00,
   0x02, 0x01, 0x01, 0x82, 0x00, 0x02, 0x42, 0x00, 0x04, 0x42, 0x00, 0x00,
   0x42, 0x00, 0x00, 0xc2, 0x00, 0x20, 0x02, 0x03, 0x40, 0x02, 0x0c, 0x40,
   0xfa, 0xff, 0xff, 0x02, 0xc0, 0x40, 0x02, 0x00, 0x43, 0x02, 0x00, 0x24,
   0x02, 0x00, 0x04, 0x02, 0x00, 0x04, 0x42, 0x00, 0x04, 0x82, 0x00, 0x02,
   0x02, 0x01, 0x01, 0x02, 0xfe, 0x00, 0x02, 0x00, 0x00, 0x02, 0x00, 0x00};
