#define wxsym029_width 24
#define wxsym029_height 24
static unsigned char wxsym029_bits[] = {
   0x00, 0x00, 0x00, 0x00, 0x00, 0x00, 0x00, 0xf8, 0x03, 0x00, 0x00, 0x02,
   0x00, 0x00, 0x02, 0xff, 0x0f, 0x02, 0x08, 0x04, 0x02, 0x08, 0x02, 0x02,
   0x08, 0x01, 0x02, 0x88, 0x00, 0x02, 0x48, 0x00, 0x02, 0x28, 0x00, 0x02,
   0x48, 0x00, 0x02, 0x88, 0x00, 0x02, 0x08, 0x01, 0x02, 0x08, 0x02, 0x02,
   0x08, 0x04, 0x02, 0x08, 0x48, 0x02, 0x08, 0x50, 0x02, 0x08, 0x60, 0x02,
   0x08, 0x78, 0x02, 0x00, 0x00, 0x02, 0x00, 0xf8, 0x03, 0x00, 0x00, 0x00};
