#define wxsym048_width 24
#define wxsym048_height 24
static unsigned char wxsym048_bits[] = {
   0x00, 0x00, 0x00, 0x00, 0x00, 0x00, 0x00, 0x00, 0x00, 0x00, 0x00, 0x00,
   0x00, 0x00, 0x00, 0x00, 0x00, 0x00, 0x78, 0x00, 0x3c, 0x40, 0x00, 0x02,
   0x80, 0x00, 0x02, 0x80, 0x00, 0x01, 0x00, 0x01, 0x01, 0x00, 0x81, 0x00,
   0xf8, 0xff, 0x3f, 0x00, 0xfe, 0x00, 0x00, 0x7c, 0x00, 0x00, 0x7c, 0x00,
   0x00, 0x38, 0x00, 0x00, 0x38, 0x00, 0xf8, 0xff, 0x3f, 0x00, 0x00, 0x00,
   0x00, 0x00, 0x00, 0x00, 0x00, 0x00, 0x00, 0x00, 0x00, 0x00, 0x00, 0x00};
