#define wxsym020_width 24
#define wxsym020_height 24
static unsigned char wxsym020_bits[] = {
   0x00, 0x00, 0x00, 0x00, 0x00, 0x00, 0x00, 0xe0, 0x01, 0x00, 0x00, 0x01,
   0x00, 0x00, 0x01, 0x00, 0x00, 0x01, 0x00, 0x00, 0x01, 0x00, 0x1e, 0x01,
   0x00, 0x1e, 0x01, 0x00, 0x1e, 0x01, 0x00, 0x1e, 0x01, 0x00, 0x04, 0x01,
   0x00, 0x02, 0x01, 0x00, 0x01, 0x01, 0x80, 0x00, 0x01, 0x00, 0x00, 0x01,
   0x00, 0x00, 0x01, 0x00, 0x00, 0x01, 0x00, 0x00, 0x01, 0x00, 0x00, 0x01,
   0x00, 0xe0, 0x01, 0x00, 0x00, 0x00, 0x00, 0x00, 0x00, 0x00, 0x00, 0x00};
