#define zigzag.xbm_width 24
#define zigzag.xbm_height 24
static unsigned char zigzag.xbm_bits[] = {
   0x00, 0x00, 0x00, 0x00, 0x00, 0x00, 0x00, 0x00, 0x00, 0x00, 0x00, 0x00,
   0x00, 0x00, 0x00, 0x00, 0x00, 0x00, 0x00, 0x00, 0x00, 0x00, 0x00, 0x00,
   0x04, 0x10, 0x40, 0x0e, 0x38, 0xe0, 0x1b, 0x6c, 0xb0, 0x31, 0xc6, 0x18,
   0x60, 0x83, 0x0d, 0xc0, 0x01, 0x07, 0x80, 0x00, 0x02, 0x00, 0x00, 0x00,
   0x00, 0x00, 0x00, 0x00, 0x00, 0x00, 0x00, 0x00, 0x00, 0x00, 0x00, 0x00,
   0x00, 0x00, 0x00, 0x00, 0x00, 0x00, 0x00, 0x00, 0x00, 0x00, 0x00, 0x00};
