<svg version="1.1" baseProfile="full" id="body" width="100%" height="100%" viewBox="0 0 1 1" preserveAspectRatio="none" xmlns="http://www.w3.org/2000/svg" xmlns:xlink="http://www.w3.org/1999/xlink" xmlns:ev="http://www.w3.org/2001/xml-events">
<title>SVG drawing</title>
<desc>This was produced by version 4.2 of GNU libplot, a free library for exporting 2-D vector graphics.</desc>
<rect id="background" x="0" y="0" width="1" height="1" stroke="none" fill="none"/>
<g id="content" transform="translate(-0.03125,1.1875) scale(1,-1) scale(0.0017361) " xml:space="preserve" stroke="black" stroke-linecap="butt" stroke-linejoin="miter" stroke-miterlimit="10.433" stroke-dasharray="none" stroke-dashoffset="0" stroke-opacity="1" fill="none" fill-rule="even-odd" fill-opacity="1" font-style="normal" font-variant="normal" font-weight="normal" font-stretch="normal" font-size-adjust="none" letter-spacing="normal" word-spacing="normal" text-anchor="start">
<polyline points="162.75,568.66 162.59,568.62 162.03,568.53 157.91,567.66 153.78,566.31 149.69,564.84 145.56,563.25 142,561.84 141.44,561.59 137.34,559.22 133.22,557.19 129.12,555.81 125,555.41 120.88,557.5 117.72,559.31 " stroke="red" stroke-width="0.96875" stroke-linecap="round" stroke-linejoin="round" />
<polyline points="95.062,566.03 92.094,566.38 87.969,566.97 83.844,567.59 79.75,568.28 77.875,568.62 77.688,568.66 " stroke="red" stroke-width="0.96875" stroke-linecap="round" stroke-linejoin="round" />
<polyline points="36.25,568.66 36.188,568.62 34.5,567.66 30.375,565.03 26.25,562.22 25.625,561.84 22.156,559.47 18.031,556.03 " stroke="red" stroke-width="0.96875" stroke-linecap="round" stroke-linejoin="round" />
<polyline points="98.031,562.28 98.906,561.41 100.66,561.41 101.53,562.28 101.53,564.03 100.66,564.91 98.031,564.91 98.031,566.66 101.53,566.66 " stroke="red" stroke-width="0.71875" stroke-linecap="round" stroke-linejoin="round" />
<polyline points="104.16,565.78 105.03,566.66 106.78,566.66 107.66,565.78 107.66,564.91 104.16,561.41 107.66,561.41 " stroke="red" stroke-width="0.71875" stroke-linecap="round" stroke-linejoin="round" />
<polygon points="111.16,566.66 110.28,565.78 110.28,564.91 111.16,564.03 112.91,564.03 113.78,564.91 113.78,565.78 112.91,566.66 " stroke="red" stroke-width="0.71875" stroke-linejoin="round" />
<polyline points="111.16,564.03 110.28,563.16 110.28,562.28 111.16,561.41 112.91,561.41 113.78,562.28 113.78,563.16 112.91,564.03 " stroke="red" stroke-width="0.71875" stroke-linecap="round" stroke-linejoin="round" />
<polygon points="117.28,566.66 116.41,565.78 116.41,562.28 117.28,561.41 119.03,561.41 119.91,562.28 119.91,565.78 119.03,566.66 " stroke="red" stroke-width="0.71875" stroke-linejoin="round" />
<polyline points="211.66,568.66 211.62,568.62 211.41,568.41 207.28,564.72 204.53,561.84 203.16,560.41 199.06,555.91 198.31,555.12 194.94,552.12 190.81,548.84 190.16,548.47 186.72,546.62 182.59,544.41 178.47,541.91 178.44,541.91 174.38,539.25 170.25,536.34 168.94,535.38 166.12,533.44 162.03,530.31 160.38,528.97 157.91,527.25 153.78,524.16 151.28,522.59 149.69,521.75 146.69,520.62 " stroke="red" stroke-width="0.96875" stroke-linecap="round" stroke-linejoin="round" />
<polyline points="119.75,519.84 116.78,520.78 112.66,522.12 110.81,522.59 108.53,523.28 106.72,522.59 104.44,521.78 100.31,519.81 96.188,517.66 92.969,516.28 92.094,515.97 89.25,516.28 87.969,516.44 83.844,517.44 79.75,518.62 75.625,519.84 71.5,520.94 67.406,522.19 66.062,522.59 63.281,523.66 59.188,525.16 55.062,525.81 50.938,526.06 46.844,525.88 42.719,525.41 38.594,524.5 34.5,523.72 30.375,523.16 26.25,522.84 22.156,523.25 18.031,523.66 " stroke="red" stroke-width="0.96875" stroke-linecap="round" stroke-linejoin="round" />
<polyline points="122.72,516.44 123.59,515.56 125.34,515.56 126.22,516.44 126.22,518.19 125.34,519.06 122.72,519.06 122.72,520.81 126.22,520.81 " stroke="red" stroke-width="0.71875" stroke-linecap="round" stroke-linejoin="round" />
<polyline points="128.84,519.94 129.72,520.81 131.47,520.81 132.34,519.94 132.34,519.06 131.47,518.19 130.59,518.19 131.47,518.19 132.34,517.31 132.34,516.44 131.47,515.56 129.72,515.56 128.84,516.44 " stroke="red" stroke-width="0.71875" stroke-linecap="round" stroke-linejoin="round" />
<polyline points="136.72,520.81 134.97,518.19 138.47,518.19 138.47,520.81 138.47,515.56 " stroke="red" stroke-width="0.71875" stroke-linecap="round" stroke-linejoin="round" />
<polygon points="141.97,520.81 141.09,519.94 141.09,516.44 141.97,515.56 143.72,515.56 144.59,516.44 144.59,519.94 143.72,520.81 " stroke="red" stroke-width="0.71875" stroke-linejoin="round" />
<polyline points="437.56,568.66 437.62,568.62 437.66,568.59 441.78,565.97 445.91,563.16 447.72,561.84 450,560.09 454.12,556.72 455.91,555.12 458.25,552.94 462.34,548.88 462.72,548.47 466.47,544.38 468.66,541.91 470.56,539.53 473.47,535.38 474.69,533.5 477.72,528.97 478.81,527.5 482.91,523.34 484.19,522.59 484.88,522.25 " stroke="red" stroke-width="0.96875" stroke-linecap="round" stroke-linejoin="round" />
<polyline points="508.34,527.31 511.06,528.97 511.72,529.38 515.84,532.19 519.94,535 520.44,535.38 524.06,538.12 528.19,541.12 529.25,541.91 532.28,544.06 536.41,546.84 538.84,548.47 540.53,549.59 544.62,552.41 548.44,555.12 548.75,555.34 552.88,558.69 556.75,561.84 556.97,562 561.09,565.44 564.94,568.62 564.97,568.66 " stroke="red" stroke-width="0.96875" stroke-linecap="round" stroke-linejoin="round" />
<polyline points="487.84,520.84 488.72,519.97 490.47,519.97 491.34,520.84 491.34,522.59 490.47,523.47 487.84,523.47 487.84,525.22 491.34,525.22 " stroke="red" stroke-width="0.71875" stroke-linecap="round" stroke-linejoin="round" />
<polyline points="493.97,524.34 494.84,525.22 496.59,525.22 497.47,524.34 497.47,523.47 496.59,522.59 495.72,522.59 496.59,522.59 497.47,521.72 497.47,520.84 496.59,519.97 494.84,519.97 493.97,520.84 " stroke="red" stroke-width="0.71875" stroke-linecap="round" stroke-linejoin="round" />
<polyline points="501.84,525.22 500.09,522.59 503.59,522.59 503.59,525.22 503.59,519.97 " stroke="red" stroke-width="0.71875" stroke-linecap="round" stroke-linejoin="round" />
<polygon points="507.09,525.22 506.22,524.34 506.22,520.84 507.09,519.97 508.84,519.97 509.72,520.84 509.72,524.34 508.84,525.22 " stroke="red" stroke-width="0.71875" stroke-linejoin="round" />
<polyline points="235.94,568.66 235.91,568.62 231.97,565.62 227.84,562.62 226.75,561.84 223.72,559.66 219.62,556.31 218.19,555.12 215.5,552.84 211.41,549.28 210.47,548.47 207.28,545.72 203.16,542.12 202.88,541.91 199.06,538.91 194.94,535.97 194.09,535.38 190.81,533.22 186.72,530.31 184.94,528.97 182.59,527.16 178.47,524.09 176.44,522.59 174.38,521.16 170.25,518.09 168,516.28 166.12,514.78 162.03,511.25 160.59,510.06 160.25,509.78 " stroke="red" stroke-width="0.96875" stroke-linecap="round" stroke-linejoin="round" />
<polyline points="136.22,502.88 133.22,502.34 129.12,501.69 125,501.12 120.88,500.78 116.78,500.41 112.66,500 108.53,499.5 104.44,498.53 100.75,497.75 100.31,497.66 96.188,497.03 92.094,496.56 87.969,496.62 83.844,496.91 79.75,497.31 76.406,497.75 75.625,497.88 71.5,498.09 67.406,498.28 63.281,498.47 59.188,498.69 55.062,498.94 50.938,499.28 46.844,499.72 42.719,500.31 38.594,501.16 34.5,502.12 30.375,503.22 28.188,503.88 26.25,504.47 22.156,505.72 18.031,507 " stroke="red" stroke-width="0.96875" stroke-linecap="round" stroke-linejoin="round" />
<polyline points="139.19,503.31 140.06,502.44 141.81,502.44 142.69,503.31 142.69,505.06 141.81,505.94 139.19,505.94 139.19,507.69 142.69,507.69 " stroke="red" stroke-width="0.71875" stroke-linecap="round" stroke-linejoin="round" />
<polyline points="147.06,507.69 145.31,505.06 148.81,505.06 148.81,507.69 148.81,502.44 " stroke="red" stroke-width="0.71875" stroke-linecap="round" stroke-linejoin="round" />
<polygon points="152.31,507.69 151.44,506.81 151.44,503.31 152.31,502.44 154.06,502.44 154.94,503.31 154.94,506.81 154.06,507.69 " stroke="red" stroke-width="0.71875" stroke-linejoin="round" />
<polygon points="158.44,507.69 157.56,506.81 157.56,503.31 158.44,502.44 160.19,502.44 161.06,503.31 161.06,506.81 160.19,507.69 " stroke="red" stroke-width="0.71875" stroke-linejoin="round" />
<polyline points="369.53,568.66 369.56,568.62 371.84,566.28 375.97,562.06 376.16,561.84 380.06,557.72 382.5,555.12 384.19,553.38 388.31,549.12 388.97,548.47 392.41,545.12 395.97,541.91 396.53,541.38 400.62,537.97 403.94,535.38 404.75,534.75 408.88,531.66 412.5,528.97 412.97,528.59 417.09,525.56 421.22,522.62 421.28,522.59 425.31,519.69 429.44,516.38 429.53,516.28 433.56,512.12 435.28,510.06 437.66,506.44 439.16,503.88 440.97,497.75 441.78,493.66 442.16,491.69 443.03,485.69 443.88,479.75 444.91,473.84 445.91,470.22 446.62,468 449.88,462.19 450,462.06 454.12,458.94 457.5,458.16 " stroke="red" stroke-width="0.96875" stroke-linecap="round" stroke-linejoin="round" />
<polyline points="476.75,466.94 477.97,468 478.81,468.72 482.91,472.69 484.03,473.84 487.03,476.81 489.53,479.75 491.16,481.53 494.81,485.69 495.25,486.16 499.38,490.59 500.41,491.69 503.5,494.78 506.5,497.75 507.59,498.81 511.72,502.91 512.62,503.88 515.84,506.78 519.41,510.06 519.94,510.53 524.06,514.22 526.25,516.28 528.19,518.06 532.28,521.97 532.94,522.59 536.41,525.81 540.16,528.97 540.53,529.22 544.62,532.19 548.75,535.19 549.03,535.38 552.88,538.16 556.97,541.31 557.72,541.91 561.09,544.5 565.19,547.75 566.06,548.47 569.31,551.09 573.44,554.41 574.28,555.12 577.53,557.78 581.66,561.09 582.59,561.84 585.78,564.25 589.88,567.12 592,568.62 592.03,568.66 " stroke="red" stroke-width="0.96875" stroke-linecap="round" stroke-linejoin="round" />
<polyline points="460.5,460.44 461.38,459.56 463.12,459.56 464,460.44 464,462.19 463.12,463.06 460.5,463.06 460.5,464.81 464,464.81 " stroke="red" stroke-width="0.71875" stroke-linecap="round" stroke-linejoin="round" />
<polyline points="468.38,464.81 466.62,462.19 470.12,462.19 470.12,464.81 470.12,459.56 " stroke="red" stroke-width="0.71875" stroke-linecap="round" stroke-linejoin="round" />
<polygon points="473.62,464.81 472.75,463.94 472.75,460.44 473.62,459.56 475.38,459.56 476.25,460.44 476.25,463.94 475.38,464.81 " stroke="red" stroke-width="0.71875" stroke-linejoin="round" />
<polygon points="479.75,464.81 478.88,463.94 478.88,460.44 479.75,459.56 481.5,459.56 482.38,460.44 482.38,463.94 481.5,464.81 " stroke="red" stroke-width="0.71875" stroke-linejoin="round" />
<polyline points="594,550.06 591.94,548.47 589.88,546.84 585.78,543.78 583.38,541.91 581.66,540.5 577.53,537.25 575.16,535.38 573.44,534.03 569.31,530.81 566.94,528.97 565.19,527.47 561.09,523.94 559.53,522.59 556.97,520.25 552.88,516.53 552.56,516.28 548.75,512.88 545.62,510.06 544.62,509.12 540.53,505.22 539.12,503.88 536.41,501 533.41,497.75 532.28,496.5 528.19,491.88 528,491.69 524.06,487.19 522.72,485.69 519.94,482.47 517.5,479.75 515.84,477.81 512.25,473.84 511.72,473.25 507.59,468.84 506.81,468 503.5,464.47 501.75,462.19 499.38,459.06 497.47,456.47 495.25,453.25 493.56,450.75 491.16,447.22 489.62,445.12 487.03,441.66 485.06,439.5 482.91,437.31 479.09,433.97 478.81,433.69 474.69,430.44 471.66,428.44 470.56,427.72 466.47,426.53 462.34,426.28 458.25,426.75 454.12,427.62 450,428.41 449.88,428.44 445.91,429.5 441.78,430.97 437.66,432.81 435.75,433.97 433.56,435.5 429.44,439 428.91,439.5 425.31,443.53 424.03,445.12 421.22,449.09 420.12,450.75 417.09,455.88 416.75,456.47 414,462.19 412.97,464.34 411.12,468 408.88,472.22 407.94,473.84 404.75,479.06 404.38,479.75 401.31,485.69 400.62,486.91 397.91,491.69 396.53,493.84 393.91,497.75 392.41,499.78 389.31,503.88 388.31,505.06 384.59,510.06 384.19,510.59 380.06,515.81 379.69,516.28 375.97,520.72 374.28,522.59 371.84,525.25 368.25,528.97 367.72,529.5 364.34,532.91 " stroke="red" stroke-width="0.96875" stroke-linecap="round" stroke-linejoin="round" />
<polyline points="353.94,542.38 351.28,544.28 347.16,546.94 344.56,548.47 343.03,549.38 338.94,551.44 334.81,552.84 330.69,553.84 326.59,554.62 323.75,555.12 322.47,555.31 318.34,556.41 314.25,557.47 310.12,558.44 306.03,559.31 301.91,560.06 297.78,560.62 293.69,561.03 289.56,561.19 285.44,561 281.34,560.59 277.22,560.03 273.09,559.28 269,558.56 264.88,557.66 260.75,556.53 256.66,555.22 256.38,555.12 252.53,553.56 248.41,551.66 244.31,549.59 242.22,548.47 240.19,547.41 236.06,545.5 231.97,543.59 228.5,541.91 227.84,541.59 223.72,539.38 219.62,536.56 217.97,535.38 215.5,533.66 211.41,530.69 208.91,528.97 207.28,527.78 203.16,525.06 199.25,522.59 199.06,522.47 194.94,519.91 190.81,517.41 189.12,516.28 186.72,514.75 182.59,512.19 179.06,510.06 178.47,509.69 174.38,507.09 170.53,503.88 170.25,503.59 166.12,499.81 163.59,497.75 162.03,496.56 157.91,494.03 153.78,492.75 149.69,491.81 148.94,491.69 145.56,491.12 141.44,490.56 137.34,490.09 133.22,489.72 129.12,489.34 125,488.94 120.88,488.16 116.78,487.22 112.66,486.22 110.47,485.69 108.53,485.22 104.44,484.69 100.31,484.34 96.188,484.06 92.094,483.81 87.969,483.19 83.844,482.56 79.75,481.94 75.625,481.47 71.5,481.84 67.406,482.44 63.281,483.16 59.188,483.84 55.062,484.31 50.938,484.72 46.844,485.19 42.719,485.69 42.656,485.69 38.594,486.28 34.5,487 30.375,487.84 26.25,488.78 22.156,490.06 18.031,491.44 " stroke="red" stroke-width="0.96875" stroke-linecap="round" stroke-linejoin="round" />
<polyline points="349,535.88 349.88,535 351.62,535 352.5,535.88 352.5,537.62 351.62,538.5 349,538.5 349,540.25 352.5,540.25 " stroke="red" stroke-width="0.71875" stroke-linecap="round" stroke-linejoin="round" />
<polyline points="356.88,540.25 355.12,537.62 358.62,537.62 358.62,540.25 358.62,535 " stroke="red" stroke-width="0.71875" stroke-linecap="round" stroke-linejoin="round" />
<polyline points="364.75,539.38 363.88,540.25 362.12,540.25 361.25,539.38 361.25,535.88 362.12,535 363.88,535 364.75,535.88 364.75,536.75 363.88,537.62 361.25,537.62 " stroke="red" stroke-width="0.71875" stroke-linecap="round" stroke-linejoin="round" />
<polygon points="368.25,540.25 367.38,539.38 367.38,535.88 368.25,535 370,535 370.88,535.88 370.88,539.38 370,540.25 " stroke="red" stroke-width="0.71875" stroke-linejoin="round" />
<polyline points="594,526.69 589.88,523.47 588.62,522.59 585.78,520.62 581.66,517.44 580.22,516.28 577.53,514.12 573.44,510.75 572.59,510.06 569.31,507.19 565.72,503.88 565.19,503.38 561.09,499.34 559.44,497.75 556.97,495.31 553.34,491.69 552.88,491.19 548.75,486.78 547.75,485.69 544.62,482.06 542.69,479.75 540.53,477.28 537.47,473.84 536.41,472.66 532.38,468 532.28,467.88 528.19,462.78 527.72,462.19 524.06,457.44 523.31,456.47 519.94,452.53 518.16,450.75 515.84,448.47 512.56,445.12 511.72,444.22 507.59,439.59 507.53,439.5 503.5,434.5 503.09,433.97 499.38,429.22 498.75,428.44 495.25,424.25 494.16,422.97 491.16,419.66 489.16,417.53 487.03,415.38 483.91,412.16 482.91,411.22 478.81,407.59 477.78,406.78 474.69,404.5 470.56,401.91 469.31,401.47 466.47,400.59 462.34,399.88 458.25,399.78 454.12,400.47 451.19,401.47 450,401.94 445.91,404.22 441.94,406.78 441.78,406.91 437.66,409.81 434.06,412.16 433.56,412.44 429.44,414.88 425.38,417.53 425.31,417.59 421.22,420.88 419.22,422.97 417.09,425.34 414.5,428.44 412.97,430.38 410.22,433.97 408.88,435.81 406.19,439.5 404.75,441.56 402.38,445.12 400.62,447.78 398.66,450.75 396.53,454.03 394.84,456.47 392.41,460.25 391.06,462.19 388.31,466.28 387.03,468 384.19,472 382.81,473.84 380.06,477.69 378.53,479.75 375.97,483.25 374,485.69 371.84,488.41 368.44,491.69 367.72,492.38 363.62,496.09 361.62,497.75 361.28,498.03 " stroke="red" stroke-width="0.96875" stroke-linecap="round" stroke-linejoin="round" />
<polyline points="344.81,507.5 343.03,508.12 338.94,509.56 337.84,510.06 334.81,511.47 330.69,513.47 326.59,515.5 325.03,516.28 322.47,517.56 318.34,519.69 314.25,521.62 311.91,522.59 310.12,523.28 306.03,524.75 301.91,525.94 297.78,527 293.69,527.94 289.56,528.75 288.5,528.97 285.44,529.56 281.34,530.19 277.22,530.62 273.09,530.81 269,530.75 264.88,530.44 260.75,529.88 256.66,529.06 256.34,528.97 252.53,527.72 248.41,526.25 244.31,524.72 240.19,523.19 238.06,522.59 236.06,522.03 231.97,520.75 227.84,519.28 223.72,517.53 221.53,516.28 219.62,515.19 215.5,512.72 211.41,510.28 211,510.06 207.28,507.88 203.16,505.97 199.06,504.12 198.44,503.88 194.94,502.38 190.81,500.59 186.72,498.66 184.97,497.75 182.59,496.44 178.47,493.94 175.03,491.69 174.38,491.25 170.25,488.03 166.66,485.69 166.12,485.38 162.03,483.19 157.91,481.47 153.78,480.22 151.88,479.75 149.69,479.09 145.56,478.06 141.44,477.22 137.34,477.06 133.22,477 129.12,476.91 125,476.69 120.88,475.5 116.78,474.19 115.69,473.84 112.66,472.84 108.53,471.66 104.44,471.31 100.31,471.12 96.188,470.97 92.094,470.75 87.969,469.81 83.844,468.88 79.875,468 79.75,467.97 75.625,467.22 71.5,467.28 67.406,467.56 63.781,468 63.281,468.06 59.188,468.66 55.062,469.09 50.938,469.53 46.844,470 42.719,470.53 38.594,471.09 34.5,471.72 30.375,472.38 26.25,473.12 23.344,473.84 22.156,474.12 18.031,475.09 " stroke="red" stroke-width="0.96875" stroke-linecap="round" stroke-linejoin="round" />
<polyline points="344.88,501.03 345.75,500.16 347.5,500.16 348.38,501.03 348.38,502.78 347.5,503.66 344.88,503.66 344.88,505.41 348.38,505.41 " stroke="red" stroke-width="0.71875" stroke-linecap="round" stroke-linejoin="round" />
<polyline points="351,501.03 351.88,500.16 353.62,500.16 354.5,501.03 354.5,502.78 353.62,503.66 351,503.66 351,505.41 354.5,505.41 " stroke="red" stroke-width="0.71875" stroke-linecap="round" stroke-linejoin="round" />
<polyline points="357.12,504.53 358,505.41 359.75,505.41 360.62,504.53 360.62,503.66 357.12,500.16 360.62,500.16 " stroke="red" stroke-width="0.71875" stroke-linecap="round" stroke-linejoin="round" />
<polygon points="364.12,505.41 363.25,504.53 363.25,501.03 364.12,500.16 365.88,500.16 366.75,501.03 366.75,504.53 365.88,505.41 " stroke="red" stroke-width="0.71875" stroke-linejoin="round" />
<polyline points="594,498.38 593.16,497.75 589.88,495.53 585.78,492.84 584.31,491.69 581.66,489.53 577.53,486.12 577.03,485.69 573.44,482.59 570.19,479.75 569.31,479 565.19,475.5 563.31,473.84 561.09,471.88 556.97,468.12 556.84,468 552.88,464.16 550.97,462.19 548.75,459.91 545.44,456.47 544.62,455.59 540.53,451 540.28,450.75 536.41,446.34 535.38,445.12 532.28,441.56 530.47,439.5 528.19,437.09 525.12,433.97 524.06,432.88 519.94,428.66 519.75,428.44 515.84,424.19 514.72,422.97 511.72,419.72 509.72,417.53 507.59,415.31 504.59,412.16 503.5,411.06 499.38,407 499.16,406.78 495.25,403.25 493.22,401.47 491.16,399.78 487.03,396.5 486.69,396.22 482.91,393.19 479.88,390.97 478.81,390.25 474.69,387.88 470.56,386 469.81,385.78 466.47,384.78 462.34,384.03 458.25,383.66 454.12,383.69 450,384.38 445.91,385.47 445.06,385.78 441.78,387.03 437.66,389.06 434.72,390.97 433.56,391.97 429.44,395.5 428.59,396.22 425.31,398.91 421.97,401.47 421.22,402.06 417.09,405.25 415.22,406.78 412.97,408.78 409.44,412.16 408.88,412.75 404.75,417.19 404.38,417.53 400.62,421.47 399.28,422.97 396.53,426.34 394.88,428.44 392.41,431.81 390.84,433.97 388.31,437.19 385.88,439.5 384.19,441.22 380.06,445.09 380.03,445.12 375.97,449.03 374.12,450.75 371.84,453.06 368.19,456.47 367.72,456.84 363.62,460.06 362.84,460.56 " stroke="red" stroke-width="0.96875" stroke-linecap="round" stroke-linejoin="round" />
<polyline points="347.88,470.03 347.16,470.47 343.03,472.94 341.53,473.84 338.94,475.38 334.81,477.78 331.31,479.75 330.69,480.06 326.59,482.09 322.47,484.06 318.84,485.69 318.34,485.91 314.25,487.81 310.12,489.78 306.31,491.69 306.03,491.84 301.91,493.69 297.78,495.31 293.69,496.69 289.81,497.75 289.56,497.81 285.44,498.44 281.34,498.91 277.22,499.25 273.09,499.53 269,500.22 264.88,500.84 260.75,501.31 256.66,501.56 252.53,501.25 248.41,500.69 244.31,499.91 240.19,498.94 236.06,497.78 235.94,497.75 231.97,496.41 227.84,494.94 223.72,493.38 219.62,491.88 219.16,491.69 215.5,490.38 211.41,488.97 207.28,487.66 203.16,486.53 200.31,485.69 199.06,485.28 194.94,483.88 190.81,482.25 186.72,480.12 186.03,479.75 182.59,477.62 178.47,475.28 175.72,473.84 174.38,473.16 170.25,471.31 166.12,469.72 162.03,468.31 161,468 157.91,466.97 153.78,465.53 149.69,464.19 145.56,463 142.31,462.19 141.44,461.97 137.34,461.75 133.22,461.69 129.12,461.62 125,461.44 120.88,460.38 116.78,459.22 112.66,458.16 108.53,457.25 104.44,456.94 100.31,456.72 96.188,456.47 96.031,456.47 92.094,456.12 87.969,455.09 83.844,454.03 79.75,453.03 75.625,452.16 71.5,451.88 67.406,451.78 63.281,451.84 59.188,452.03 55.062,452.19 50.938,452.44 46.844,452.75 42.719,453.19 38.594,453.66 34.5,454.25 30.375,454.91 26.25,455.66 22.156,456.47 18.031,457.28 " stroke="red" stroke-width="0.96875" stroke-linecap="round" stroke-linejoin="round" />
<polyline points="344.88,463.56 345.75,462.69 347.5,462.69 348.38,463.56 348.38,465.31 347.5,466.19 344.88,466.19 344.88,467.94 348.38,467.94 " stroke="red" stroke-width="0.71875" stroke-linecap="round" stroke-linejoin="round" />
<polyline points="351,463.56 351.88,462.69 353.62,462.69 354.5,463.56 354.5,465.31 353.62,466.19 351,466.19 351,467.94 354.5,467.94 " stroke="red" stroke-width="0.71875" stroke-linecap="round" stroke-linejoin="round" />
<polygon points="358,467.94 357.12,467.06 357.12,466.19 358,465.31 359.75,465.31 360.62,466.19 360.62,467.06 359.75,467.94 " stroke="red" stroke-width="0.71875" stroke-linejoin="round" />
<polyline points="358,465.31 357.12,464.44 357.12,463.56 358,462.69 359.75,462.69 360.62,463.56 360.62,464.44 359.75,465.31 " stroke="red" stroke-width="0.71875" stroke-linecap="round" stroke-linejoin="round" />
<polygon points="364.12,467.94 363.25,467.06 363.25,463.56 364.12,462.69 365.88,462.69 366.75,463.56 366.75,467.06 365.88,467.94 " stroke="red" stroke-width="0.71875" stroke-linejoin="round" />
<polyline points="594,466.16 589.88,463.78 587.12,462.19 585.78,461.41 581.66,458.53 578.72,456.47 577.53,455.59 573.44,452.41 571.38,450.75 569.31,449.06 565.19,445.62 564.59,445.12 561.09,442.03 558.28,439.5 556.97,438.31 552.88,434.5 552.31,433.97 548.75,430.59 546.53,428.44 544.62,426.62 540.88,422.97 540.53,422.62 536.41,418.66 535.19,417.53 532.28,414.91 529.28,412.16 528.19,411.12 524.06,407.28 523.53,406.78 519.94,403.44 517.84,401.47 515.84,399.75 511.72,396.34 511.53,396.22 507.59,393.22 504.47,390.97 503.5,390.31 499.38,387.31 497.19,385.78 495.25,384.47 491.16,381.84 489.03,380.59 487.03,379.44 482.91,377.19 479.12,375.47 478.81,375.31 474.69,373.78 470.56,372.66 466.47,371.91 462.34,371.5 458.25,371.38 454.12,371.5 450,372.12 445.91,373.03 441.78,374.22 438.41,375.47 437.66,375.72 433.56,377.62 429.44,379.94 428.38,380.59 425.31,382.59 421.22,385.53 420.81,385.78 417.09,388 412.97,390.59 412.34,390.97 408.88,393.16 404.75,395.91 404.28,396.22 400.62,398.53 396.53,401.19 396.03,401.47 392.41,403.88 388.31,406.69 388.12,406.78 384.19,409.75 381,412.16 380.06,412.94 375.97,416.28 374.31,417.53 371.84,419.41 367.72,422.75 367.44,422.97 363.62,426.09 360.69,428.44 359.5,429.41 355.38,432.62 353.88,433.78 " stroke="red" stroke-width="0.96875" stroke-linecap="round" stroke-linejoin="round" />
<polyline points="339.38,443.22 338.94,443.47 335.97,445.12 334.81,445.75 330.69,447.84 326.59,449.81 324.44,450.75 322.47,451.62 318.34,453.31 314.25,454.88 310.12,456.28 309.5,456.47 306.03,457.56 301.91,458.62 297.78,459.56 293.69,460.44 289.56,461.22 285.44,461.94 283.78,462.19 281.34,462.59 277.22,463.22 273.09,463.78 269,464.34 264.88,464.84 260.75,465.28 256.66,465.62 252.53,465.88 248.41,465.97 244.31,465.91 240.19,465.69 236.06,465.09 231.97,464.41 227.84,463.66 223.72,462.91 219.62,462.41 218.19,462.19 215.5,461.84 211.41,461.19 207.28,460.38 203.16,459.22 199.06,457.97 194.94,456.66 194.34,456.47 190.81,455.44 186.72,454.47 182.59,453.56 178.47,452.69 174.38,451.84 170.25,451.09 168.34,450.75 166.12,450.38 162.03,449.59 157.91,448.78 153.78,447.62 149.69,446.53 145.56,445.53 143.59,445.12 141.44,444.62 137.34,444.09 133.22,443.56 129.12,443 125,442.38 120.88,441.5 116.78,440.66 112.66,439.88 110.69,439.5 108.53,439.12 104.44,438.53 100.31,437.94 96.188,437.31 92.094,436.62 87.969,435.53 83.844,434.5 81.312,433.97 79.75,433.62 75.625,432.91 71.5,432.75 67.406,432.78 63.281,432.88 59.188,433.06 55.062,433.12 50.938,433.19 46.844,433.25 42.719,433.34 38.594,433.47 34.5,433.62 30.375,433.84 28.406,433.97 26.25,434.09 22.156,434.44 18.031,434.84 " stroke="red" stroke-width="0.96875" stroke-linecap="round" stroke-linejoin="round" />
<polyline points="336.66,436.75 337.53,435.88 339.28,435.88 340.16,436.75 340.16,438.5 339.28,439.38 336.66,439.38 336.66,441.12 340.16,441.12 " stroke="red" stroke-width="0.71875" stroke-linecap="round" stroke-linejoin="round" />
<polyline points="346.28,440.25 345.41,441.12 343.66,441.12 342.78,440.25 342.78,436.75 343.66,435.88 345.41,435.88 346.28,436.75 346.28,437.62 345.41,438.5 342.78,438.5 " stroke="red" stroke-width="0.71875" stroke-linecap="round" stroke-linejoin="round" />
<polyline points="350.66,441.12 348.91,438.5 352.41,438.5 352.41,441.12 352.41,435.88 " stroke="red" stroke-width="0.71875" stroke-linecap="round" stroke-linejoin="round" />
<polygon points="355.91,441.12 355.03,440.25 355.03,436.75 355.91,435.88 357.66,435.88 358.53,436.75 358.53,440.25 357.66,441.12 " stroke="red" stroke-width="0.71875" stroke-linejoin="round" />
<polyline points="594,425.78 589.88,424.22 586.75,422.97 585.78,422.59 581.66,420.34 577.53,418 576.78,417.53 573.44,415.47 569.31,412.84 568.25,412.16 565.19,409.97 561.09,406.94 560.94,406.78 556.97,403.59 554.41,401.47 552.88,400.19 548.75,396.81 548,396.22 544.62,393.47 541.41,390.97 540.53,390.28 536.41,387.12 534.66,385.78 532.28,384 528.19,381.12 527.38,380.59 524.06,378.44 519.94,376.03 518.88,375.47 515.84,373.81 511.72,371.62 509.22,370.38 507.59,369.47 503.5,367.25 499.62,365.28 499.38,365.16 495.25,363.22 491.16,361.59 487.16,360.25 487.03,360.22 482.91,358.78 478.81,357.62 474.69,356.72 470.56,356.06 466.47,355.81 462.34,355.75 458.25,355.91 454.12,356.19 450,356.72 445.91,357.44 441.78,358.41 437.66,359.59 435.75,360.25 433.56,360.97 429.44,362.56 425.31,364.44 423.62,365.28 421.22,366.47 417.09,368.06 412.97,369.69 411.28,370.38 408.88,371.25 404.75,372.84 400.62,374.75 399.19,375.47 396.53,376.72 392.41,378.78 388.97,380.59 388.31,380.94 384.19,383.22 380.06,385.56 379.72,385.78 375.97,387.97 371.84,390.47 371.06,390.97 367.72,393.28 363.66,396.22 363.62,396.25 359.5,399.19 356.25,401.47 355.38,402.09 351.28,405.06 348.84,406.78 347.97,407.44 " stroke="red" stroke-width="0.96875" stroke-linecap="round" stroke-linejoin="round" />
<polyline points="332.22,416.88 330.84,417.53 330.69,417.59 326.59,419.44 322.47,421.16 318.34,422.88 318.09,422.97 314.25,424.47 310.12,425.94 306.03,427.28 301.91,428.41 301.81,428.44 297.78,429.38 293.69,430.19 289.56,430.94 285.44,431.88 281.34,432.78 277.22,433.62 275.5,433.97 273.09,434.34 269,434.75 264.88,435 260.75,435.12 256.66,435.16 252.53,434.91 248.41,434.62 244.31,434.31 240.19,434.09 236.06,434.44 231.97,434.78 227.84,435.03 223.72,435.12 219.62,434.53 216.72,433.97 215.5,433.72 211.41,432.69 207.28,431.59 203.16,430.72 199.06,429.94 194.94,429.22 190.81,428.56 190.28,428.44 186.72,427.72 182.59,426.88 178.47,426.12 174.38,425.47 170.25,425.34 162.03,425.34 157.91,425.25 153.78,424.78 149.69,424.19 145.56,423.44 143.38,422.97 141.44,422.53 137.34,421.47 133.22,420.38 129.12,419.28 125,418.25 121.38,417.53 120.88,417.44 116.78,416.62 112.66,415.78 108.53,414.88 104.44,413.59 100.31,412.31 99.781,412.16 96.188,411.12 92.094,410.22 87.969,409.91 83.844,409.72 79.75,409.62 75.625,409.53 71.5,409.12 67.406,408.72 63.281,408.31 59.188,407.94 55.062,407.78 50.938,407.66 46.844,407.59 42.719,407.56 38.594,407.47 34.5,407.41 26.25,407.41 22.156,407.56 18.031,407.72 " stroke="red" stroke-width="0.96875" stroke-linecap="round" stroke-linejoin="round" />
<polyline points="330.5,410.41 331.38,409.53 333.12,409.53 334,410.41 334,412.16 333.12,413.03 330.5,413.03 330.5,414.78 334,414.78 " stroke="red" stroke-width="0.71875" stroke-linecap="round" stroke-linejoin="round" />
<polyline points="336.62,414.78 340.12,414.78 338.38,409.53 " stroke="red" stroke-width="0.71875" stroke-linecap="round" stroke-linejoin="round" />
<polygon points="343.62,414.78 342.75,413.91 342.75,410.41 343.62,409.53 345.38,409.53 346.25,410.41 346.25,413.91 345.38,414.78 " stroke="red" stroke-width="0.71875" stroke-linejoin="round" />
<polygon points="349.75,414.78 348.88,413.91 348.88,410.41 349.75,409.53 351.5,409.53 352.38,410.41 352.38,413.91 351.5,414.78 " stroke="red" stroke-width="0.71875" stroke-linejoin="round" />
<polyline points="594,261.69 589.88,261.97 585.78,262.16 581.66,263.5 578,265.03 577.53,265.31 573.44,268.59 572.47,269.59 570.31,274.16 571.19,278.75 573,283.34 573.44,284.16 575.38,287.97 577.53,291.91 577.94,292.62 579.81,297.31 581.66,301.34 582,302 584.59,306.72 585.78,308.66 587.5,311.44 589.88,315.28 590.53,316.22 592.34,321 592.25,325.81 590.34,330.66 589.88,331.94 587.38,335.5 585.78,336.44 581.66,338.03 577.53,338.69 573.44,338.81 569.31,338.62 565.19,338.72 561.09,338.62 556.97,338.38 552.88,337.94 548.75,337.19 544.62,336.41 540.53,335.66 539.72,335.5 536.41,334.88 532.28,334.34 528.19,333.78 524.06,333.16 519.94,332.47 515.84,331.59 511.72,330.75 511.28,330.66 507.59,329.78 503.5,328.81 499.38,327.69 495.25,326.62 491.66,325.81 491.16,325.69 487.03,324.78 482.91,324.41 478.81,324.19 474.69,324.09 470.56,324.09 466.47,324.06 462.34,324.12 458.25,324.22 454.12,324.38 450,324.59 445.91,324.91 441.78,325.38 438.81,325.81 437.66,325.97 433.56,326.88 429.44,328 425.31,329.44 422.41,330.66 421.22,331.12 417.09,332.78 412.97,334.62 411.19,335.5 408.88,336.53 404.75,338.53 401.38,340.41 400.62,340.78 396.53,342.97 392.53,345.31 392.41,345.38 388.31,347.72 384.19,350.22 384.06,350.28 380.06,352.75 376.53,355.25 375.97,355.62 371.84,358.56 369.69,360.25 367.72,361.69 366.09,362.88 " stroke="red" stroke-width="0.96875" stroke-linecap="round" stroke-linejoin="round" />
<polyline points="352.66,372.34 351.28,373.25 348.12,375.47 347.16,376.12 343.03,378.91 340.5,380.59 338.94,381.62 334.81,384.06 331.72,385.78 330.69,386.31 326.59,388.25 322.47,390.03 320.12,390.97 318.34,391.62 314.25,393.03 310.12,394.31 306.03,395.47 303.31,396.22 301.91,396.59 297.78,397.59 293.69,398.53 289.56,399.34 285.44,399.88 281.34,400.28 277.22,400.56 273.09,400.72 269,400.69 264.88,400.66 260.75,400.69 256.66,400.88 253.47,401.47 252.53,401.66 248.41,402.69 244.31,403.88 240.19,405.19 236.06,406.53 235.06,406.78 231.97,407.56 227.84,408.19 223.72,408.38 219.62,407.19 218.53,406.78 215.5,405.69 211.41,404.22 207.28,402.97 203.16,402.81 199.06,402.81 194.94,402.91 190.81,402.94 186.72,402.5 182.59,402 178.47,401.5 178.31,401.47 174.38,400.97 170.25,400.56 166.12,400.06 162.03,399.5 157.91,398.81 153.78,397.88 149.69,396.91 146.97,396.22 145.56,395.84 141.44,394.78 137.34,393.78 133.22,392.75 129.12,391.66 126.81,390.97 125,390.44 120.88,388.81 116.78,387.16 112.94,385.78 112.66,385.66 108.53,384.38 104.44,383.72 100.31,383.16 96.188,382.62 92.094,382 87.969,380.84 87.156,380.59 83.844,379.62 79.75,378.44 75.625,377.34 71.5,376.56 67.406,375.88 64.5,375.47 63.281,375.28 59.188,374.78 55.062,374.34 50.938,373.97 46.844,373.66 42.719,373.38 38.594,373.12 34.5,372.91 30.375,372.72 26.25,372.56 22.156,372.44 18.031,372.31 " stroke="red" stroke-width="0.96875" stroke-linecap="round" stroke-linejoin="round" />
<polyline points="349,365.84 349.88,364.97 351.62,364.97 352.5,365.84 352.5,367.59 351.62,368.47 349,368.47 349,370.22 352.5,370.22 " stroke="red" stroke-width="0.71875" stroke-linecap="round" stroke-linejoin="round" />
<polyline points="355.12,370.22 358.62,370.22 356.88,364.97 " stroke="red" stroke-width="0.71875" stroke-linecap="round" stroke-linejoin="round" />
<polyline points="364.75,369.34 363.88,370.22 362.12,370.22 361.25,369.34 361.25,365.84 362.12,364.97 363.88,364.97 364.75,365.84 364.75,366.72 363.88,367.59 361.25,367.59 " stroke="red" stroke-width="0.71875" stroke-linecap="round" stroke-linejoin="round" />
<polygon points="368.25,370.22 367.38,369.34 367.38,365.84 368.25,364.97 370,364.97 370.88,365.84 370.88,369.34 370,370.22 " stroke="red" stroke-width="0.71875" stroke-linejoin="round" />
<polyline points="378.28,247 378.19,247.03 375.97,247.75 371.84,249.06 367.72,249.84 363.62,250.59 359.5,251.44 359.25,251.5 355.38,252.41 351.28,253.84 347.16,255.72 346.69,256 343.03,257.94 339.59,260.5 338.94,261.09 336.22,265.03 334.81,267.84 334.06,269.59 332.72,274.16 332.5,278.75 332.72,283.34 333.28,287.97 334.19,292.62 334.81,295.91 335.09,297.31 336.06,302 336.97,306.72 337.56,311.44 337.22,316.22 336.28,321 334.81,325.69 334.78,325.81 332.66,330.66 330.69,334 329.75,335.5 326.59,339.38 325.69,340.41 322.47,343.38 320.38,345.31 318.34,347 314.25,350.25 314.22,350.28 310.12,353.09 306.59,355.25 306.03,355.56 301.91,357.28 297.78,358.75 293.69,360.03 292.78,360.25 289.56,361.03 286.56,361.72 " stroke="red" stroke-width="0.96875" stroke-linecap="round" stroke-linejoin="round" />
<polyline points="259.62,364.5 256.66,364.62 252.53,364.72 248.41,364.88 244.31,365.09 242.09,365.28 240.19,365.47 236.06,366.38 231.97,367.47 227.84,368.66 223.72,369.72 219.62,369.75 215.5,369.5 211.41,369.09 207.28,368.69 203.16,368.72 199.06,368.78 194.94,368.81 190.81,368.84 186.72,368.78 182.59,368.62 178.47,368.41 174.38,368.12 170.25,367.75 166.12,367.38 162.03,366.94 157.91,366.53 153.78,366.22 149.69,365.88 145.56,365.41 144.66,365.28 141.44,364.78 137.34,363.81 133.22,362.81 129.12,361.81 125,360.84 122.12,360.25 120.88,360 116.78,359.12 112.66,358.25 108.53,357.38 104.44,356.31 100.38,355.25 100.31,355.22 96.188,354.06 92.094,352.94 87.969,351.94 83.844,350.97 80.812,350.28 79.75,350 75.625,349 71.5,348 67.406,347.09 63.281,346.22 59.188,345.44 58.406,345.31 55.062,344.75 50.938,344.12 46.844,343.53 42.719,342.97 38.594,342.47 34.5,342.03 30.375,341.66 26.25,341.28 22.156,340.81 18.062,340.41 18.031,340.41 " stroke="red" stroke-width="0.96875" stroke-linecap="round" stroke-linejoin="round" />
<polyline points="262.59,362.03 263.47,361.16 265.22,361.16 266.09,362.03 266.09,363.78 265.22,364.66 262.59,364.66 262.59,366.41 266.09,366.41 " stroke="red" stroke-width="0.71875" stroke-linecap="round" stroke-linejoin="round" />
<polygon points="269.59,366.41 268.72,365.53 268.72,364.66 269.59,363.78 271.34,363.78 272.22,364.66 272.22,365.53 271.34,366.41 " stroke="red" stroke-width="0.71875" stroke-linejoin="round" />
<polyline points="269.59,363.78 268.72,362.91 268.72,362.03 269.59,361.16 271.34,361.16 272.22,362.03 272.22,362.91 271.34,363.78 " stroke="red" stroke-width="0.71875" stroke-linecap="round" stroke-linejoin="round" />
<polyline points="274.84,365.53 275.72,366.41 277.47,366.41 278.34,365.53 278.34,364.66 274.84,361.16 278.34,361.16 " stroke="red" stroke-width="0.71875" stroke-linecap="round" stroke-linejoin="round" />
<polygon points="281.84,366.41 280.97,365.53 280.97,362.03 281.84,361.16 283.59,361.16 284.47,362.03 284.47,365.53 283.59,366.41 " stroke="red" stroke-width="0.71875" stroke-linejoin="round" />
<polyline points="240.91,247 240.91,247.03 240.56,251.5 240.25,256 240.19,258.16 240.09,260.5 239.75,265.03 239.06,269.59 237.69,274.16 236.06,276.94 234.78,278.75 231.97,281.06 228.22,283.34 227.84,283.5 223.72,285.31 219.62,287.81 219.38,287.97 215.5,290.31 212,292.62 211.41,293.09 207.28,296.59 206.59,297.31 203.16,300.19 200.78,302 199.06,303.06 194.94,305.22 191.53,306.72 190.81,306.97 186.72,308 182.59,308.88 178.47,309.62 174.38,310.28 170.25,310.91 167.28,311.28 " stroke="red" stroke-width="0.96875" stroke-linecap="round" stroke-linejoin="round" />
<polyline points="140.31,308.66 137.34,307.56 134.88,306.72 133.22,306.06 129.12,304.69 125,303.53 120.88,302.5 118.72,302 116.78,301.5 112.66,300.59 108.53,299.84 104.44,299.66 100.31,299.62 96.188,299.72 92.094,299.88 87.969,299.88 83.844,299.84 79.75,299.78 75.625,299.66 71.5,299.44 67.406,299.19 63.281,298.91 59.188,298.59 55.062,298.22 50.938,297.81 46.844,297.38 45.969,297.31 42.719,296.91 38.594,296.59 34.5,296.34 30.375,296.12 26.25,295.88 22.156,295.25 18.031,294.84 " stroke="red" stroke-width="0.96875" stroke-linecap="round" stroke-linejoin="round" />
<polyline points="143.28,309.81 144.16,308.94 145.91,308.94 146.78,309.81 146.78,311.56 145.91,312.44 143.28,312.44 143.28,314.19 146.78,314.19 " stroke="red" stroke-width="0.71875" stroke-linecap="round" stroke-linejoin="round" />
<polygon points="150.28,314.19 149.41,313.31 149.41,312.44 150.28,311.56 152.03,311.56 152.91,312.44 152.91,313.31 152.03,314.19 " stroke="red" stroke-width="0.71875" stroke-linejoin="round" />
<polyline points="150.28,311.56 149.41,310.69 149.41,309.81 150.28,308.94 152.03,308.94 152.91,309.81 152.91,310.69 152.03,311.56 " stroke="red" stroke-width="0.71875" stroke-linecap="round" stroke-linejoin="round" />
<polygon points="156.41,314.19 155.53,313.31 155.53,312.44 156.41,311.56 158.16,311.56 159.03,312.44 159.03,313.31 158.16,314.19 " stroke="red" stroke-width="0.71875" stroke-linejoin="round" />
<polyline points="156.41,311.56 155.53,310.69 155.53,309.81 156.41,308.94 158.16,308.94 159.03,309.81 159.03,310.69 158.16,311.56 " stroke="red" stroke-width="0.71875" stroke-linecap="round" stroke-linejoin="round" />
<polygon points="162.53,314.19 161.66,313.31 161.66,309.81 162.53,308.94 164.28,308.94 165.16,309.81 165.16,313.31 164.28,314.19 " stroke="red" stroke-width="0.71875" stroke-linejoin="round" />
</g>
<animate id='frame_0' attributeName='display' values='inline;none' dur='0.5s' fill='freeze' begin="0s" repeatCount="indefinite"/>
</svg>
