<?xml version="1.0" encoding="ISO-8859-1" standalone="no"?>
<!DOCTYPE svg PUBLIC "-//W3C//DTD SVG 1.1//EN" "http://www.w3.org/Graphics/SVG/1.1/DTD/svg11.dtd">
<svg version="1.1" baseProfile="full" id="body" width="8in" height="8in" viewBox="0 0 1 1" preserveAspectRatio="none" xmlns="http://www.w3.org/2000/svg" xmlns:xlink="http://www.w3.org/1999/xlink" xmlns:ev="http://www.w3.org/2001/xml-events">
<title>SVG drawing</title>
<desc>This was produced by version 4.2 of GNU libplot, a free library for exporting 2-D vector graphics.</desc>
<rect id="background" x="0" y="0" width="1" height="1" stroke="none" fill="none"/>
<g id="content" transform="translate(-0.03125,1.1875) scale(1,-1) scale(0.0017361) " xml:space="preserve" stroke="black" stroke-linecap="butt" stroke-linejoin="miter" stroke-miterlimit="10.433" stroke-dasharray="none" stroke-dashoffset="0" stroke-opacity="1" fill="none" fill-rule="even-odd" fill-opacity="1" font-style="normal" font-variant="normal" font-weight="normal" font-stretch="normal" font-size-adjust="none" letter-spacing="normal" word-spacing="normal" text-anchor="start">
<polyline points="29.25,567.66 26.25,566.84 22.156,566.25 18.031,564.88 " stroke="red" stroke-width="0.96875" stroke-linecap="round" stroke-linejoin="round" />
<polyline points="32.469,568.66 33.094,568.03 34.844,568.03 35.469,568.66 " stroke="red" stroke-width="0.71875" stroke-linecap="round" stroke-linejoin="round" />
<polyline points="38.969,568.66 38.344,568.03 41.844,568.03 " stroke="red" stroke-width="0.71875" stroke-linecap="round" stroke-linejoin="round" />
<polyline points="45.094,568.66 44.469,568.03 47.969,568.03 " stroke="red" stroke-width="0.71875" stroke-linecap="round" stroke-linejoin="round" />
<polyline points="50.844,568.66 51.469,568.03 53.219,568.03 53.844,568.66 " stroke="red" stroke-width="0.71875" stroke-linecap="round" stroke-linejoin="round" />
<polyline points="116.81,568.66 116.78,568.62 112.66,565.28 108.53,562.97 107.22,561.84 104.44,558.91 101.31,555.12 100.31,549.75 100.09,548.47 99.25,541.91 97.969,535.38 96.188,529.84 95.906,528.97 93.219,525.62 " stroke="red" stroke-width="0.96875" stroke-linecap="round" stroke-linejoin="round" />
<polyline points="66.281,524 63.281,523.81 59.188,522.75 59,522.59 55.062,519.34 51.562,516.28 50.938,515.84 46.844,513.09 42.719,510.72 40.938,510.06 38.594,509.31 34.5,508.19 30.375,507.22 26.25,506.44 22.156,506.09 18.031,505.88 " stroke="red" stroke-width="0.96875" stroke-linecap="round" stroke-linejoin="round" />
<polyline points="69.25,520.72 70.125,519.84 71.875,519.84 72.75,520.72 72.75,522.47 71.875,523.34 69.25,523.34 69.25,525.09 72.75,525.09 " stroke="red" stroke-width="0.71875" stroke-linecap="round" stroke-linejoin="round" />
<polyline points="75.375,524.22 76.25,525.09 78,525.09 78.875,524.22 78.875,523.34 75.375,519.84 78.875,519.84 " stroke="red" stroke-width="0.71875" stroke-linecap="round" stroke-linejoin="round" />
<polygon points="82.375,525.09 81.5,524.22 81.5,523.34 82.375,522.47 84.125,522.47 85,523.34 85,524.22 84.125,525.09 " stroke="red" stroke-width="0.71875" stroke-linejoin="round" />
<polyline points="82.375,522.47 81.5,521.59 81.5,520.72 82.375,519.84 84.125,519.84 85,520.72 85,521.59 84.125,522.47 " stroke="red" stroke-width="0.71875" stroke-linecap="round" stroke-linejoin="round" />
<polygon points="88.5,525.09 87.625,524.22 87.625,520.72 88.5,519.84 90.25,519.84 91.125,520.72 91.125,524.22 90.25,525.09 " stroke="red" stroke-width="0.71875" stroke-linejoin="round" />
<polyline points="146.5,568.66 146.47,568.62 145.56,566.97 143,561.84 141.44,558.44 140.03,555.12 138.03,548.47 137.34,546.69 135.03,541.91 133.22,539.34 129.44,535.38 129.12,535.12 125,532.38 121.31,528.97 120.88,528.62 116.78,525.28 113.84,522.59 112.66,521.59 108.53,517.84 107.16,516.28 104.56,513.53 " stroke="red" stroke-width="0.96875" stroke-linecap="round" stroke-linejoin="round" />
<polyline points="95.688,504.06 95.438,503.88 92.094,501.47 87.969,500 83.844,498.84 79.75,497.84 79.344,497.75 75.625,496.94 71.5,495.69 67.406,494.44 63.281,493.25 59.188,492.09 57.969,491.69 55.062,490.84 50.938,489.62 46.844,488.5 42.719,487.41 38.594,486.47 34.781,485.69 34.5,485.62 30.375,485.06 26.25,484.66 22.156,484.75 18.031,484.97 " stroke="red" stroke-width="0.96875" stroke-linecap="round" stroke-linejoin="round" />
<polyline points="89.812,507.06 90.688,506.19 92.438,506.19 93.312,507.06 93.312,508.81 92.438,509.69 89.812,509.69 89.812,511.44 93.312,511.44 " stroke="red" stroke-width="0.71875" stroke-linecap="round" stroke-linejoin="round" />
<polyline points="95.938,510.56 96.812,511.44 98.562,511.44 99.438,510.56 99.438,509.69 98.562,508.81 97.688,508.81 98.562,508.81 99.438,507.94 99.438,507.06 98.562,506.19 96.812,506.19 95.938,507.06 " stroke="red" stroke-width="0.71875" stroke-linecap="round" stroke-linejoin="round" />
<polyline points="103.81,511.44 102.06,508.81 105.56,508.81 105.56,511.44 105.56,506.19 " stroke="red" stroke-width="0.71875" stroke-linecap="round" stroke-linejoin="round" />
<polygon points="109.06,511.44 108.19,510.56 108.19,507.06 109.06,506.19 110.81,506.19 111.69,507.06 111.69,510.56 110.81,511.44 " stroke="red" stroke-width="0.71875" stroke-linejoin="round" />
<polyline points="440.88,568.66 440.94,568.62 441.78,568.19 445.91,566.03 450,563.88 453.94,561.84 454.12,561.72 458.25,559.19 462.34,556.34 463.94,555.12 466.47,551.47 468.09,548.47 469.81,541.91 470.56,535.81 470.62,535.38 471.25,528.97 472.84,522.59 473.56,521.31 " stroke="red" stroke-width="0.96875" stroke-linecap="round" stroke-linejoin="round" />
<polyline points="493.03,522.31 493.34,522.59 495.25,524.5 499.25,528.97 499.38,529.12 503.5,534.12 504.78,535.38 507.59,538.06 511.72,541.91 515.84,545.97 518.41,548.47 519.94,549.97 524.06,553.59 525.94,555.12 528.19,556.91 532.28,559.94 535.03,561.84 536.41,562.75 540.53,565.56 544.62,568.19 545.34,568.62 545.41,568.66 " stroke="red" stroke-width="0.96875" stroke-linecap="round" stroke-linejoin="round" />
<polyline points="476.53,515.84 477.41,514.97 479.16,514.97 480.03,515.84 480.03,517.59 479.16,518.47 476.53,518.47 476.53,520.22 480.03,520.22 " stroke="red" stroke-width="0.71875" stroke-linecap="round" stroke-linejoin="round" />
<polyline points="482.66,519.34 483.53,520.22 485.28,520.22 486.16,519.34 486.16,518.47 485.28,517.59 484.41,517.59 485.28,517.59 486.16,516.72 486.16,515.84 485.28,514.97 483.53,514.97 482.66,515.84 " stroke="red" stroke-width="0.71875" stroke-linecap="round" stroke-linejoin="round" />
<polyline points="490.53,520.22 488.78,517.59 492.28,517.59 492.28,520.22 492.28,514.97 " stroke="red" stroke-width="0.71875" stroke-linecap="round" stroke-linejoin="round" />
<polygon points="495.78,520.22 494.91,519.34 494.91,515.84 495.78,514.97 497.53,514.97 498.41,515.84 498.41,519.34 497.53,520.22 " stroke="red" stroke-width="0.71875" stroke-linejoin="round" />
<polyline points="172.53,568.66 172.5,568.62 170.25,566.44 166.12,562.03 165.97,561.84 162.03,557.25 160.38,555.12 157.91,552.06 155.72,548.47 153.78,544.91 152.41,541.91 149.69,535.56 149.59,535.38 146.72,528.97 145.56,527.34 141.44,522.72 141.25,522.59 137.34,520.41 133.22,518.38 129.19,516.28 129.12,516.25 125,514 120.88,511.09 119.5,510.06 118.88,509.62 " stroke="red" stroke-width="0.96875" stroke-linecap="round" stroke-linejoin="round" />
<polyline points="106.91,500.16 104.44,497.88 104.28,497.75 100.31,494.53 96.375,491.69 96.188,491.56 92.094,489.03 87.969,486.97 85.438,485.69 83.844,484.88 79.75,482.72 75.625,480.56 73.344,479.75 71.5,479.16 67.406,478.16 63.281,477.38 59.188,476.69 55.062,475.78 50.938,474.94 46.844,474.12 45.219,473.84 42.719,473.41 38.594,472.81 34.5,472.31 30.375,471.94 26.25,471.66 22.156,471.78 18.031,471.94 " stroke="red" stroke-width="0.96875" stroke-linecap="round" stroke-linejoin="round" />
<polyline points="102.16,503.12 103.03,502.25 104.78,502.25 105.66,503.12 105.66,504.88 104.78,505.75 102.16,505.75 102.16,507.5 105.66,507.5 " stroke="red" stroke-width="0.71875" stroke-linecap="round" stroke-linejoin="round" />
<polyline points="110.03,507.5 108.28,504.88 111.78,504.88 111.78,507.5 111.78,502.25 " stroke="red" stroke-width="0.71875" stroke-linecap="round" stroke-linejoin="round" />
<polygon points="115.28,507.5 114.41,506.62 114.41,503.12 115.28,502.25 117.03,502.25 117.91,503.12 117.91,506.62 117.03,507.5 " stroke="red" stroke-width="0.71875" stroke-linejoin="round" />
<polygon points="121.41,507.5 120.53,506.62 120.53,503.12 121.41,502.25 123.16,502.25 124.03,503.12 124.03,506.62 123.16,507.5 " stroke="red" stroke-width="0.71875" stroke-linejoin="round" />
<polyline points="345.47,568.66 345.5,568.62 347.16,567.5 351.28,564.72 355.38,561.94 355.53,561.84 359.5,559.31 363.62,556.75 366.41,555.12 367.72,554.25 371.84,551.62 375.97,548.78 376.41,548.47 380.06,545.78 384.19,542.72 385.31,541.91 388.31,539.56 392.41,536.19 393.38,535.38 396.53,532.5 400.25,528.97 400.62,528.53 404.75,523.84 405.78,522.59 408.88,518.47 410.44,516.28 412.97,512.72 414.88,510.06 417.09,507.06 419.59,503.88 421.22,502.31 425.31,499.06 426.91,497.75 429.44,495.66 433.56,491.78 433.62,491.69 437.66,487.66 439.44,485.69 441.78,483.41 445.91,479.91 446.16,479.75 448.38,478.25 " stroke="red" stroke-width="0.96875" stroke-linecap="round" stroke-linejoin="round" />
<polyline points="471.72,472.91 474.69,473.19 477.38,473.84 478.81,474.16 482.91,475.78 487.03,478.09 488.53,479.75 491.16,482.78 493.44,485.69 495.25,487.91 498.38,491.69 499.38,492.84 503.5,497.44 503.81,497.75 507.59,501.72 509.59,503.88 511.72,506.25 515.09,510.06 515.84,510.88 519.94,515.41 520.75,516.28 524.06,519.91 526.53,522.59 528.19,524.38 532.28,528.69 532.56,528.97 536.41,532.69 539.62,535.38 540.53,536.12 544.62,539.44 547.78,541.91 548.75,542.62 552.88,545.75 556.88,548.47 556.97,548.53 561.09,551.09 565.19,553.47 568.22,555.12 569.31,555.72 573.44,558.06 577.53,560.44 579.91,561.84 581.66,562.88 585.78,565.41 589.88,567.78 591.28,568.62 591.34,568.66 " stroke="red" stroke-width="0.96875" stroke-linecap="round" stroke-linejoin="round" />
<polyline points="447.75,471.78 448.62,470.91 450.38,470.91 451.25,471.78 451.25,473.53 450.38,474.41 447.75,474.41 447.75,476.16 451.25,476.16 " stroke="red" stroke-width="0.71875" stroke-linecap="round" stroke-linejoin="round" />
<polyline points="455.62,476.16 453.88,473.53 457.38,473.53 457.38,476.16 457.38,470.91 " stroke="red" stroke-width="0.71875" stroke-linecap="round" stroke-linejoin="round" />
<polygon points="460.88,476.16 460,475.28 460,471.78 460.88,470.91 462.62,470.91 463.5,471.78 463.5,475.28 462.62,476.16 " stroke="red" stroke-width="0.71875" stroke-linejoin="round" />
<polygon points="467,476.16 466.12,475.28 466.12,471.78 467,470.91 468.75,470.91 469.62,471.78 469.62,475.28 468.75,476.16 " stroke="red" stroke-width="0.71875" stroke-linejoin="round" />
<polyline points="594,548.78 593.5,548.47 589.88,546.22 585.78,543.88 582.56,541.91 581.66,541.31 577.53,538.72 573.44,536.03 572.5,535.38 569.31,533.12 565.19,530.09 563.72,528.97 561.09,526.91 556.97,523.62 555.66,522.59 552.88,520.34 548.75,517.03 547.88,516.28 544.62,513.5 540.91,510.06 540.53,509.69 536.41,505.59 534.75,503.88 532.28,501.22 529.19,497.75 528.19,496.56 524.09,491.69 524.06,491.66 519.94,486.75 518.94,485.69 515.84,482.62 512.75,479.75 511.72,478.81 507.59,475.03 506.41,473.84 503.5,470.84 501.25,468 499.38,465.69 496.44,462.19 495.25,460.88 491.16,456.56 491.06,456.47 487.03,452.72 484.78,450.75 482.91,449.12 478.81,445.59 478.22,445.12 474.69,442.38 470.66,439.5 470.56,439.47 466.47,438.31 462.34,437.75 458.25,437.75 454.12,438.12 450,438.34 445.91,438.84 442.56,439.5 441.78,439.69 437.66,441.12 433.56,442.75 429.44,444.94 429.16,445.12 425.31,448.31 422.78,450.75 421.22,452.5 417.47,456.47 417.09,456.81 412.97,460.66 411.31,462.19 408.88,464.62 405.5,468 404.75,468.78 400.62,473.59 400.44,473.84 396.53,478.22 395.09,479.75 392.41,482.72 389.88,485.69 388.31,487.59 385.38,491.69 384.19,493.31 380.75,497.75 380.06,498.59 375.97,503.41 375.53,503.88 371.84,508.25 370.47,510.06 367.72,513.47 365.31,516.28 363.62,518.16 359.5,522.31 359.19,522.59 355.38,526.09 352.41,528.97 351.28,530.09 347.16,534.06 345.69,535.38 343.69,537.16 " stroke="red" stroke-width="0.96875" stroke-linecap="round" stroke-linejoin="round" />
<polyline points="331.75,546.62 330.69,547.44 329.38,548.47 326.59,550.69 322.47,553.91 320.62,555.12 318.34,556.56 314.25,558.97 310.12,561.22 308.84,561.84 306.03,563.19 301.91,564.69 297.78,565.88 293.69,566.81 289.56,567.53 285.44,568.06 281.34,568.38 277.22,568.59 275.88,568.62 274.94,568.66 " stroke="red" stroke-width="0.96875" stroke-linecap="round" stroke-linejoin="round" />
<polyline points="244.69,568.66 244.31,568.62 244.28,568.62 240.19,568.19 236.06,567.69 231.97,567.03 227.84,566.28 223.72,565.41 219.62,564.56 215.5,563.56 211.41,562.41 209.66,561.84 207.28,561.06 203.16,559.22 199.06,557.22 195.03,555.12 194.94,555.06 190.81,553.06 186.72,550.94 182.69,548.47 182.59,548.41 178.47,545.5 174.38,542.06 174.19,541.91 170.25,538.62 166.84,535.38 166.12,534.72 162.03,530.22 161.06,528.97 157.91,524.47 156.88,522.59 153.78,518 152.41,516.28 149.69,513.59 145.56,510.62 144.59,510.06 141.44,508.41 137.34,506.34 133.22,504.19 132.66,503.88 129.12,501.62 125,499.03 123.06,497.75 120.88,496.34 116.78,493.62 113.94,491.69 112.66,490.81 108.53,487.97 105.38,485.69 104.44,485.03 100.31,482.31 96.188,479.88 95.969,479.75 92.094,477.25 87.969,474.59 86.75,473.84 83.844,472.06 79.75,469.81 75.812,468 75.625,467.91 71.5,466.84 67.406,466.06 63.281,465.47 59.188,464.94 55.062,464.22 50.938,463.5 46.844,462.84 42.719,462.22 42.5,462.19 38.594,461.69 34.5,461.25 30.375,460.91 26.25,460.66 22.156,460.66 18.031,460.72 " stroke="red" stroke-width="0.96875" stroke-linecap="round" stroke-linejoin="round" />
<polyline points="327.38,540.16 328.25,539.28 330,539.28 330.88,540.16 330.88,541.91 330,542.78 327.38,542.78 327.38,544.53 330.88,544.53 " stroke="red" stroke-width="0.71875" stroke-linecap="round" stroke-linejoin="round" />
<polyline points="335.25,544.53 333.5,541.91 337,541.91 337,544.53 337,539.28 " stroke="red" stroke-width="0.71875" stroke-linecap="round" stroke-linejoin="round" />
<polyline points="343.12,543.66 342.25,544.53 340.5,544.53 339.62,543.66 339.62,540.16 340.5,539.28 342.25,539.28 343.12,540.16 343.12,541.03 342.25,541.91 339.62,541.91 " stroke="red" stroke-width="0.71875" stroke-linecap="round" stroke-linejoin="round" />
<polygon points="346.62,544.53 345.75,543.66 345.75,540.16 346.62,539.28 348.38,539.28 349.25,540.16 349.25,543.66 348.38,544.53 " stroke="red" stroke-width="0.71875" stroke-linejoin="round" />
<polyline points="594,528.75 589.88,525.72 585.78,523.06 585.12,522.59 581.66,519.97 577.53,516.78 576.94,516.28 573.44,513.47 569.31,510.19 569.16,510.06 565.19,506.91 561.34,503.88 561.09,503.66 556.97,500.19 554.22,497.75 552.88,496.53 548.75,492.69 547.72,491.69 544.62,488.72 541.53,485.69 540.53,484.69 536.41,480.56 535.69,479.75 532.28,476.03 530.25,473.84 528.19,471.69 524.41,468 524.06,467.66 519.94,463.88 518.09,462.19 515.84,460.12 512.09,456.47 511.72,456.09 507.59,452.09 506.22,450.75 503.5,448.22 500.34,445.12 499.38,444.22 495.25,440.34 494.38,439.5 491.16,436.66 488.03,433.97 487.03,433.22 482.91,430.19 480.34,428.44 478.81,427.47 474.69,425.16 470.56,423.12 470.16,422.97 466.47,421.69 462.34,420.5 458.25,419.56 454.12,419 450,419.16 445.91,419.72 441.78,420.66 437.66,421.81 433.94,422.97 433.56,423.09 429.44,424.59 425.31,426.25 421.22,428.09 420.66,428.44 417.09,430.97 413.44,433.97 412.97,434.47 408.88,438.88 408.25,439.5 404.75,443.06 402.47,445.12 400.62,446.88 396.53,450.75 396.53,450.78 392.41,454.97 390.97,456.47 388.31,459.44 385.81,462.19 384.19,464.12 380.88,468 380.06,468.97 376.03,473.84 375.97,473.91 371.84,478.88 371,479.75 367.72,483.22 365.38,485.69 363.62,487.66 359.94,491.69 359.5,492.22 355.38,496.81 354.38,497.75 351.28,500.72 347.78,503.88 347.16,504.41 346,505.31 " stroke="red" stroke-width="0.96875" stroke-linecap="round" stroke-linejoin="round" />
<polyline points="331.94,514.78 330.69,515.44 328.91,516.28 326.59,517.41 322.47,519.16 318.34,520.75 314.25,522.19 312.97,522.59 310.12,523.5 306.03,524.69 301.91,525.88 297.78,526.94 293.69,527.91 289.56,528.78 288.78,528.97 285.44,529.72 281.34,530.62 277.22,531.47 273.09,532.22 269,532.88 264.88,533.5 260.75,534.06 256.66,534.56 252.53,535.06 249.38,535.38 248.41,535.5 244.31,535.84 240.19,536.09 236.06,536.31 231.97,536.38 227.84,536.31 223.72,536.06 219.62,535.44 219.41,535.38 215.5,534.62 211.41,533.72 207.28,532.75 203.16,532.44 199.06,532 194.94,531.31 190.81,530.25 188.5,528.97 186.72,527.81 182.59,524.84 179.72,522.59 178.47,521.66 174.38,518.28 172.31,516.28 170.25,514.16 166.84,510.06 166.12,509.16 162.12,503.88 162.03,503.75 157.91,499.44 154.91,497.75 153.78,497.16 149.69,495.31 145.56,493.62 141.44,491.94 140.91,491.69 137.34,489.94 133.22,488 129.12,486.09 128.22,485.69 125,484.16 120.88,481.84 117.34,479.75 116.78,479.34 112.66,476.5 108.88,473.84 108.53,473.59 104.44,470.84 100.31,468.31 99.75,468 96.188,465.88 92.094,463.62 89.688,462.19 87.969,461.19 83.844,458.97 79.75,457.12 78,456.47 75.625,455.44 71.5,454.44 67.406,453.69 63.281,453.06 59.188,452.53 55.062,451.78 50.938,451.06 49.062,450.75 46.844,450.38 42.719,449.75 38.594,449.19 34.5,448.72 30.375,448.34 26.25,448.03 22.156,448.09 18.031,448.16 " stroke="red" stroke-width="0.96875" stroke-linecap="round" stroke-linejoin="round" />
<polyline points="329.38,508.31 330.25,507.44 332,507.44 332.88,508.31 332.88,510.06 332,510.94 329.38,510.94 329.38,512.69 332.88,512.69 " stroke="red" stroke-width="0.71875" stroke-linecap="round" stroke-linejoin="round" />
<polyline points="335.5,508.31 336.38,507.44 338.12,507.44 339,508.31 339,510.06 338.12,510.94 335.5,510.94 335.5,512.69 339,512.69 " stroke="red" stroke-width="0.71875" stroke-linecap="round" stroke-linejoin="round" />
<polyline points="341.62,511.81 342.5,512.69 344.25,512.69 345.12,511.81 345.12,510.94 341.62,507.44 345.12,507.44 " stroke="red" stroke-width="0.71875" stroke-linecap="round" stroke-linejoin="round" />
<polygon points="348.62,512.69 347.75,511.81 347.75,508.31 348.62,507.44 350.38,507.44 351.25,508.31 351.25,511.81 350.38,512.69 " stroke="red" stroke-width="0.71875" stroke-linejoin="round" />
<polyline points="594,505.12 592.03,503.88 589.88,502.16 585.78,499.28 583.75,497.75 581.66,496.16 577.53,493 575.84,491.69 573.44,489.81 569.31,486.53 568.28,485.69 565.19,483.06 561.44,479.75 561.09,479.41 556.97,475.66 555.03,473.84 552.88,471.78 548.75,468.03 548.69,468 544.62,464.22 542.5,462.19 540.53,460.34 536.41,456.53 536.34,456.47 532.28,452.88 529.84,450.75 528.19,449.34 524.06,445.84 523.22,445.12 519.94,442.31 516.72,439.5 515.84,438.75 511.72,435.34 509.97,433.97 507.59,432.03 503.5,428.81 503.03,428.44 499.38,425.66 495.41,422.97 495.25,422.88 491.16,420.44 487.03,418.25 485.81,417.53 482.91,415.94 478.81,413.81 475.19,412.16 474.69,411.91 470.56,410.19 466.47,408.69 462.34,407.5 459.06,406.78 458.25,406.62 454.12,406.12 450,406.34 446.41,406.78 445.91,406.88 441.78,407.69 437.66,408.78 433.56,410.12 429.44,411.72 428.47,412.16 425.31,413.5 421.22,415.31 417.09,417.28 416.62,417.53 412.97,419.56 408.88,422.22 407.81,422.97 404.75,425.31 400.62,428.25 400.38,428.44 396.53,431.44 393.41,433.97 392.41,434.75 388.31,438.06 386.41,439.5 384.19,441.34 380.06,444.78 379.69,445.12 375.97,448.44 373.41,450.75 371.84,452.28 367.72,455.34 366.03,456.47 363.62,458.09 359.5,460.72 357.12,462.19 355.38,463.34 351.28,466.19 348.5,468 347.16,468.91 346.81,469.12 " stroke="red" stroke-width="0.96875" stroke-linecap="round" stroke-linejoin="round" />
<polyline points="328.59,478.56 326.59,479.34 325.47,479.75 322.47,480.88 318.34,482.53 314.25,484.06 310.12,485.53 309.66,485.69 306.03,486.97 301.91,488.5 297.78,490.06 293.69,491.59 293.44,491.69 289.56,493.22 285.44,494.75 281.34,496.31 277.41,497.75 277.22,497.81 273.09,499.31 269,500.78 264.88,502.19 260.75,503.5 259.5,503.88 256.66,504.69 252.53,505.78 248.41,506.81 244.31,507.66 240.19,508.41 236.06,509 231.97,509.41 227.84,509.59 223.72,509.53 219.62,508.88 215.5,508.03 211.41,507.03 207.28,505.94 203.16,505.12 199.06,504.16 198,503.88 194.94,503 190.81,501.62 186.72,500.22 182.59,498.44 181.38,497.75 178.47,496.06 174.38,493.09 173.06,491.69 170.25,488.81 166.84,485.69 166.12,485.09 162.03,482.03 158.28,479.75 157.91,479.5 153.78,477.31 149.69,475.19 146.97,473.84 145.56,473.12 141.44,471.12 137.34,470.09 133.22,469.16 129.12,468.19 128.44,468 125,466.97 120.88,464.56 117.22,462.19 116.78,461.91 112.66,459.03 108.88,456.47 108.53,456.22 104.44,453.88 100.31,451.69 98.5,450.75 96.188,449.53 92.094,447.41 87.969,445.19 87.812,445.12 83.844,443.09 79.75,441.28 75.625,439.78 74.562,439.5 71.5,438.69 67.406,437.75 63.281,436.94 59.188,436.22 55.062,435.53 50.938,434.91 46.844,434.41 42.781,433.97 42.719,433.94 38.594,433.47 34.5,433.06 30.375,432.72 26.25,432.44 22.156,432.31 18.031,432.19 " stroke="red" stroke-width="0.96875" stroke-linecap="round" stroke-linejoin="round" />
<polyline points="328.28,472.09 329.16,471.22 330.91,471.22 331.78,472.09 331.78,473.84 330.91,474.72 328.28,474.72 328.28,476.47 331.78,476.47 " stroke="red" stroke-width="0.71875" stroke-linecap="round" stroke-linejoin="round" />
<polyline points="334.41,472.09 335.28,471.22 337.03,471.22 337.91,472.09 337.91,473.84 337.03,474.72 334.41,474.72 334.41,476.47 337.91,476.47 " stroke="red" stroke-width="0.71875" stroke-linecap="round" stroke-linejoin="round" />
<polygon points="341.41,476.47 340.53,475.59 340.53,474.72 341.41,473.84 343.16,473.84 344.03,474.72 344.03,475.59 343.16,476.47 " stroke="red" stroke-width="0.71875" stroke-linejoin="round" />
<polyline points="341.41,473.84 340.53,472.97 340.53,472.09 341.41,471.22 343.16,471.22 344.03,472.09 344.03,472.97 343.16,473.84 " stroke="red" stroke-width="0.71875" stroke-linecap="round" stroke-linejoin="round" />
<polygon points="347.53,476.47 346.66,475.59 346.66,472.09 347.53,471.22 349.28,471.22 350.16,472.09 350.16,475.59 349.28,476.47 " stroke="red" stroke-width="0.71875" stroke-linejoin="round" />
<polyline points="594,479.88 593.75,479.75 589.88,476.78 585.78,474.19 585.28,473.84 581.66,471.25 577.53,468.22 577.25,468 573.44,464.97 570.06,462.19 569.31,461.59 565.19,457.94 563.56,456.47 561.09,454.22 557.22,450.75 556.97,450.53 552.88,446.88 550.88,445.12 548.75,443.19 544.62,439.53 544.59,439.5 540.53,435.88 538.28,433.97 536.41,432.38 532.28,429.12 531.44,428.44 528.19,425.81 524.66,422.97 524.06,422.47 519.94,419.16 517.75,417.53 515.84,416.12 511.72,413.25 510,412.16 507.59,410.62 503.5,408.16 500.62,406.78 499.38,406.19 495.25,404.38 491.16,402.75 487.56,401.47 487.03,401.28 482.91,399.72 478.81,398.44 474.69,397.44 470.56,396.62 468.34,396.22 466.47,395.84 462.34,395.25 458.25,394.88 454.12,394.72 450,395.03 445.91,395.56 442.06,396.22 441.78,396.25 437.66,397 433.56,397.81 429.44,398.78 425.31,399.94 421.22,401.31 420.62,401.47 417.09,402.59 412.97,404.03 408.88,405.69 406.28,406.78 404.75,407.47 400.62,409.16 396.53,410.91 393.75,412.16 392.41,412.75 388.31,414.78 384.19,417.19 383.62,417.53 380.06,419.69 375.97,422.16 374.53,422.97 371.84,424.53 367.72,426.78 364.59,428.44 363.62,428.97 359.5,431.06 355.38,433.09 353.78,433.97 351.28,435.34 347.16,437.56 343.53,439.5 343.03,439.78 338.94,442.03 338.84,442.09 " stroke="red" stroke-width="0.96875" stroke-linecap="round" stroke-linejoin="round" />
<polyline points="322.19,451.53 318.34,453.47 314.25,455.34 311.59,456.47 310.12,457.06 306.03,458.66 301.91,460.06 297.78,461.41 295.28,462.19 293.69,462.72 289.56,464 285.44,465.38 281.34,466.72 277.28,468 277.22,468 273.09,469.28 269,470.47 264.88,471.62 260.75,472.75 256.66,473.81 256.5,473.84 252.53,474.72 248.41,475.56 244.31,476.31 240.19,476.94 236.06,477.53 231.97,477.94 227.84,478.12 223.72,478.03 219.62,477.44 215.5,476.69 211.41,475.84 207.28,475 203.16,474.38 200.31,473.84 199.06,473.59 194.94,472.66 190.81,471.44 186.72,469.75 182.84,468 182.59,467.88 178.47,465.91 174.38,463.88 170.84,462.19 170.25,461.94 166.12,460.06 162.03,458.28 157.91,456.5 157.84,456.47 153.78,454.38 149.69,452.56 145.56,451 144.84,450.75 141.44,449.66 137.34,448.81 133.22,447.84 129.12,446.56 125.59,445.12 125,444.84 120.88,442.44 116.78,440.09 115.72,439.5 112.66,437.84 108.53,435.72 105.22,433.97 104.44,433.5 100.31,431.19 96.188,428.97 95.125,428.44 92.094,426.88 87.969,425.31 83.844,424.06 79.75,423.03 79.438,422.97 75.625,422.06 71.5,420.81 67.406,419.56 63.281,418.25 60.875,417.53 59.188,416.97 55.062,415.97 50.938,415.12 46.844,414.38 42.719,413.78 38.594,413.34 34.5,413 30.375,412.78 26.25,412.66 22.156,412.53 18.031,412.47 " stroke="red" stroke-width="0.96875" stroke-linecap="round" stroke-linejoin="round" />
<polyline points="320.19,445.06 321.06,444.19 322.81,444.19 323.69,445.06 323.69,446.81 322.81,447.69 320.19,447.69 320.19,449.44 323.69,449.44 " stroke="red" stroke-width="0.71875" stroke-linecap="round" stroke-linejoin="round" />
<polyline points="329.81,448.56 328.94,449.44 327.19,449.44 326.31,448.56 326.31,445.06 327.19,444.19 328.94,444.19 329.81,445.06 329.81,445.94 328.94,446.81 326.31,446.81 " stroke="red" stroke-width="0.71875" stroke-linecap="round" stroke-linejoin="round" />
<polyline points="334.19,449.44 332.44,446.81 335.94,446.81 335.94,449.44 335.94,444.19 " stroke="red" stroke-width="0.71875" stroke-linecap="round" stroke-linejoin="round" />
<polygon points="339.44,449.44 338.56,448.56 338.56,445.06 339.44,444.19 341.19,444.19 342.06,445.06 342.06,448.56 341.19,449.44 " stroke="red" stroke-width="0.71875" stroke-linejoin="round" />
<polyline points="594,449.38 589.88,446.72 587.03,445.12 585.78,444.41 581.66,441.12 579.62,439.5 577.53,437.81 573.44,434.53 572.72,433.97 569.31,431.19 565.91,428.44 565.19,427.88 561.09,424.44 559.28,422.97 556.97,421.03 552.88,417.69 552.66,417.53 548.75,414.44 545.62,412.16 544.62,411.34 540.53,408.03 538.97,406.78 536.41,404.62 532.44,401.47 532.28,401.38 528.19,398.38 524.69,396.22 524.06,395.84 519.94,393.41 516.25,390.97 515.84,390.66 511.72,387.66 508.78,385.78 507.59,385 503.5,382.62 499.38,380.69 499.16,380.59 495.25,378.78 491.16,376.97 487.41,375.47 487.03,375.31 482.91,373.78 478.81,372.41 474.69,371.25 470.56,370.38 470.31,370.38 466.47,370.19 462.34,370.31 461.84,370.38 458.25,370.78 454.12,371.5 450,372.41 445.91,373.56 441.78,374.94 440.28,375.47 437.66,376.22 433.56,377.31 429.44,378.38 425.31,379.41 421.22,380.44 420.66,380.59 417.09,381.38 412.97,382.31 408.88,383.28 404.75,384.31 400.62,385.5 399.78,385.78 396.53,386.75 392.41,388.09 388.31,389.53 384.41,390.97 384.19,391.06 380.06,392.66 375.97,394.47 372.44,396.22 371.84,396.5 367.72,398.72 363.62,401.03 362.84,401.47 359.5,403.41 355.38,405.75 353.62,406.78 351.28,408.16 347.16,410.5 344.28,412.16 343.03,412.81 338.94,415.06 334.88,417.44 " stroke="red" stroke-width="0.96875" stroke-linecap="round" stroke-linejoin="round" />
<polyline points="317.94,426.88 315,428.44 314.25,428.84 310.12,430.88 306.03,432.81 303,433.97 301.91,434.34 297.78,435.62 293.69,436.78 289.56,437.81 285.44,438.91 283.06,439.5 281.34,439.94 277.22,440.84 273.09,441.69 269,442.22 264.88,442.69 260.75,443.06 256.66,443.38 252.53,443.81 248.41,444.19 244.31,444.5 240.19,444.75 236.06,445.03 234.22,445.12 231.97,445.22 227.84,445.34 223.72,445.31 220.16,445.12 219.62,445.09 215.5,444.69 211.41,444.12 207.28,443.38 203.16,442.59 199.06,441.69 194.94,440.75 190.81,439.75 189.91,439.5 186.72,438.69 182.59,437.56 178.47,436.44 174.38,435.31 170.25,434.19 169.38,433.97 166.12,433.12 162.03,432.16 157.91,431.31 153.78,430.84 149.69,430.25 145.56,429.44 142.16,428.44 141.44,428.22 137.34,425.91 133.22,423.59 132.06,422.97 129.12,421.38 125,419.34 121.31,417.53 120.88,417.31 116.78,415.09 112.66,412.75 111.62,412.16 108.53,410.22 104.44,408 101.66,406.78 100.31,406.25 96.188,404.84 92.094,403.72 87.969,402.81 83.844,401.91 82.156,401.47 79.75,400.84 75.625,399.59 71.5,397.94 67.406,396.28 67.188,396.22 63.281,394.72 59.188,393.31 55.062,392.22 50.938,391.22 49.688,390.97 46.844,390.34 42.719,389.53 38.594,388.72 34.5,387.91 30.375,387.19 26.25,386.5 22.156,386.09 18.531,385.78 18.031,385.72 " stroke="red" stroke-width="0.96875" stroke-linecap="round" stroke-linejoin="round" />
<polyline points="316.09,420.41 316.97,419.53 318.72,419.53 319.59,420.41 319.59,422.16 318.72,423.03 316.09,423.03 316.09,424.78 319.59,424.78 " stroke="red" stroke-width="0.71875" stroke-linecap="round" stroke-linejoin="round" />
<polyline points="322.22,424.78 325.72,424.78 323.97,419.53 " stroke="red" stroke-width="0.71875" stroke-linecap="round" stroke-linejoin="round" />
<polygon points="329.22,424.78 328.34,423.91 328.34,420.41 329.22,419.53 330.97,419.53 331.84,420.41 331.84,423.91 330.97,424.78 " stroke="red" stroke-width="0.71875" stroke-linejoin="round" />
<polygon points="335.34,424.78 334.47,423.91 334.47,420.41 335.34,419.53 337.09,419.53 337.97,420.41 337.97,423.91 337.09,424.78 " stroke="red" stroke-width="0.71875" stroke-linejoin="round" />
<polyline points="594,391.28 593.06,390.97 589.88,389.12 585.78,387.19 583.47,385.78 581.66,384.59 577.53,381.81 575.84,380.59 573.44,378.75 569.31,375.53 569.25,375.47 565.19,371.09 564.56,370.38 561.09,365.59 560.88,365.28 557.62,360.25 556.97,359.22 554.22,355.25 552.88,353.38 549.88,350.28 548.75,349.28 544.62,346.47 542.47,345.31 540.53,344.38 536.41,342.81 532.28,341.97 528.19,341.34 524.06,340.84 520.06,340.41 519.94,340.38 515.84,339.91 511.72,339.41 507.59,338.88 503.5,338.22 499.38,337.34 495.25,336.41 491.22,335.5 491.16,335.5 487.03,334.53 482.91,333.66 478.81,332.84 474.69,332.06 470.56,331.31 467.66,330.66 466.47,330.34 462.34,329.41 458.25,328.62 454.12,328 450,327.62 445.91,327.5 441.78,327.72 437.66,328.34 433.56,330.03 432.41,330.66 429.44,332.75 425.97,335.5 425.31,336.03 421.22,339.41 419.81,340.41 417.09,342.19 412.97,344.84 412.22,345.31 408.88,347.25 404.75,349.53 403.34,350.28 400.62,351.56 396.53,353.5 392.72,355.25 392.41,355.38 388.31,357.16 384.19,358.94 381.38,360.25 380.06,360.84 375.97,362.84 371.84,365.06 371.47,365.28 367.72,367.53 363.62,370.19 363.34,370.38 359.5,372.62 355.38,375.16 354.88,375.47 351.28,377.66 347.16,380.28 346.66,380.59 343.03,382.88 338.94,385.5 338.47,385.78 334.81,387.97 334.75,388 " stroke="red" stroke-width="0.96875" stroke-linecap="round" stroke-linejoin="round" />
<polyline points="317.25,397.47 314.25,398.81 310.12,400.53 307.72,401.47 306.03,402.12 301.91,403.66 297.78,405.03 293.69,406.22 291.38,406.78 289.56,407.22 285.44,407.81 281.34,408.22 277.22,408.5 273.09,408.62 264.88,408.62 260.75,408.69 256.66,408.91 252.53,409.62 248.41,410.56 244.31,411.75 243.06,412.16 240.19,413.03 236.06,414.72 231.97,416.09 227.84,417.09 223.78,417.53 223.72,417.53 219.62,416.41 215.5,414.81 211.41,413.03 209.28,412.16 207.28,411.19 203.16,410.78 199.06,410.59 194.94,410.44 190.81,410.16 186.72,408.97 182.59,407.78 179.06,406.78 178.47,406.62 174.38,405.62 170.25,405.19 166.12,404.78 162.03,404.25 157.91,403.53 153.78,402.19 151.88,401.47 149.69,400.69 145.56,399.16 141.44,397.69 137.34,396.38 136.84,396.22 133.22,394.91 129.12,393.22 125,391.25 124.53,390.97 120.88,388.72 116.78,386.34 115.62,385.78 112.66,384.28 108.53,382.59 104.44,381.62 100.31,380.78 99.438,380.59 96.188,379.91 92.094,378.97 87.969,377.75 83.844,376.53 80.188,375.47 79.75,375.34 75.625,374.09 71.5,372.66 67.406,371.19 65.094,370.38 63.281,369.72 59.188,368.28 55.062,367.09 50.938,365.97 48.375,365.28 46.844,364.88 42.719,363.75 38.594,362.5 34.5,361.25 31,360.25 30.375,360.06 26.25,358.97 22.156,358.12 18.031,357.38 " stroke="red" stroke-width="0.96875" stroke-linecap="round" stroke-linejoin="round" />
<polyline points="316.09,391 316.97,390.12 318.72,390.12 319.59,391 319.59,392.75 318.72,393.62 316.09,393.62 316.09,395.38 319.59,395.38 " stroke="red" stroke-width="0.71875" stroke-linecap="round" stroke-linejoin="round" />
<polyline points="322.22,395.38 325.72,395.38 323.97,390.12 " stroke="red" stroke-width="0.71875" stroke-linecap="round" stroke-linejoin="round" />
<polyline points="331.84,394.5 330.97,395.38 329.22,395.38 328.34,394.5 328.34,391 329.22,390.12 330.97,390.12 331.84,391 331.84,391.88 330.97,392.75 328.34,392.75 " stroke="red" stroke-width="0.71875" stroke-linecap="round" stroke-linejoin="round" />
<polygon points="335.34,395.38 334.47,394.5 334.47,391 335.34,390.12 337.09,390.12 337.97,391 337.97,394.5 337.09,395.38 " stroke="red" stroke-width="0.71875" stroke-linejoin="round" />
<polyline points="460.53,247 460.5,247.03 458.25,248.66 454.5,251.5 454.12,251.81 450,255.31 449.28,256 446.31,260.5 445.91,261.03 443.09,265.03 441.78,266.44 438.94,269.59 437.66,270.59 433.56,273.94 433.28,274.16 429.44,276.16 425.31,278.41 424.72,278.75 421.22,280.38 417.09,282.25 414.78,283.34 412.97,284.12 408.88,286.16 405.75,287.97 404.75,288.53 400.62,291.84 399.81,292.62 396.53,295.47 394.62,297.31 392.41,299.28 389.59,302 388.31,303.16 384.41,306.72 384.19,306.91 380.06,310.53 379.03,311.44 375.97,313.94 373.03,316.22 371.84,317.03 367.72,319.78 366,321 363.62,322.56 359.5,325.47 359.06,325.81 355.38,328.5 352.62,330.66 351.28,331.69 347.16,334.91 346.44,335.5 343.03,338.19 340.34,340.41 338.94,341.53 334.81,344.81 334.22,345.31 330.69,348.09 327.97,350.28 326.59,351.28 322.47,354.09 320.38,355.25 318.34,356.28 314.25,358.25 310.12,360.19 309.94,360.25 306.03,361.91 301.91,363.66 297.78,365.19 297.47,365.28 294.81,366.06 " stroke="red" stroke-width="0.96875" stroke-linecap="round" stroke-linejoin="round" />
<polyline points="267.84,370.78 264.88,370.88 260.75,370.91 252.53,370.91 248.41,370.94 244.31,371 240.19,371.19 236.06,371.81 231.97,372.47 227.84,373.12 223.72,373.62 219.62,373.47 215.5,373.19 211.41,372.78 207.28,372.34 203.16,372.06 199.06,371.78 194.94,371.47 190.81,371.09 186.72,370.66 184.25,370.38 182.59,370.16 178.47,369.53 174.38,368.84 170.25,368.03 166.12,367.19 162.03,366.34 157.91,365.5 156.44,365.28 153.78,364.88 149.69,364.22 145.56,363.5 141.44,362.69 137.34,361.62 133.22,360.56 132.03,360.25 129.12,359.47 125,358.34 120.88,357.22 116.78,356.09 113.69,355.25 112.66,354.94 108.53,353.66 104.44,352.28 100.31,350.97 98.125,350.28 96.188,349.59 92.094,348.22 87.969,347.19 83.844,346.25 79.75,345.38 79.438,345.31 75.625,344.47 71.5,343.5 67.406,342.5 63.281,341.5 59.188,340.5 58.812,340.41 55.062,339.31 50.938,338.16 46.844,337.03 42.719,335.97 40.719,335.5 38.594,335 34.5,334.09 30.375,333.25 26.25,332.5 22.156,331.69 18.031,330.91 " stroke="red" stroke-width="0.96875" stroke-linecap="round" stroke-linejoin="round" />
<polyline points="270.84,367.5 271.72,366.62 273.47,366.62 274.34,367.5 274.34,369.25 273.47,370.12 270.84,370.12 270.84,371.88 274.34,371.88 " stroke="red" stroke-width="0.71875" stroke-linecap="round" stroke-linejoin="round" />
<polygon points="277.84,371.88 276.97,371 276.97,370.12 277.84,369.25 279.59,369.25 280.47,370.12 280.47,371 279.59,371.88 " stroke="red" stroke-width="0.71875" stroke-linejoin="round" />
<polyline points="277.84,369.25 276.97,368.38 276.97,367.5 277.84,366.62 279.59,366.62 280.47,367.5 280.47,368.38 279.59,369.25 " stroke="red" stroke-width="0.71875" stroke-linecap="round" stroke-linejoin="round" />
<polyline points="283.09,371 283.97,371.88 285.72,371.88 286.59,371 286.59,370.12 283.09,366.62 286.59,366.62 " stroke="red" stroke-width="0.71875" stroke-linecap="round" stroke-linejoin="round" />
<polygon points="290.09,371.88 289.22,371 289.22,367.5 290.09,366.62 291.84,366.62 292.72,367.5 292.72,371 291.84,371.88 " stroke="red" stroke-width="0.71875" stroke-linejoin="round" />
</g>
</svg>
